<?xml version="1.0" standalone="no"?>
<!DOCTYPE svg PUBLIC "-//W3C//DTD SVG 1.1//EN" "http://www.w3.org/Graphics/SVG/1.1/DTD/svg11.dtd" >
<svg xmlns="http://www.w3.org/2000/svg">
<metadata></metadata>
<defs>
<font id="att_aleck_slablight_italic" horiz-adv-x="438" >
<font-face units-per-em="1000" ascent="750" descent="-250" />
<missing-glyph horiz-adv-x="230" />
<glyph unicode="fb" horiz-adv-x="900" d="M66 516h95l13 57q19 89 67 138t116 49q28 0 53 -9l-10 -42q-22 6 -44 6q-50 0 -83 -36t-50 -111l-12 -52h155l-9 -42h-154l-128 -599h-50l128 599h-96zM453 750h129l-64 -295q80 71 171 71q79 0 124.5 -55t45.5 -152q0 -93 -40 -169t-104.5 -118t-141.5 -42 q-41 0 -78 15.5t-65 44.5l-16 -50h-42l151 709h-79zM677 481q-90 0 -170 -83l-65 -305q24 -27 60 -42.5t74 -15.5q67 0 120 39t82.5 102.5t29.5 137.5q0 82 -33.5 124.5t-97.5 42.5z" />
<glyph unicode="fj" horiz-adv-x="554" d="M66 516h95l13 57q19 89 67 138t116 49q19 0 38 -4.5t29 -10.5l-16 -40q-22 10 -52 10q-100 0 -133 -147l-12 -52h274l-9 -42h-273l-128 -599h-50l128 599h-96zM387 516h129l-125 -586q-17 -80 -51.5 -118t-92.5 -38q-18 0 -37 5t-30 12l16 41q25 -13 53 -13q35 0 57.5 28 t35.5 87l115 541h-79zM474 677q0 18 13 29t32 11q14 0 23 -9t9 -22q0 -18 -13 -29t-32 -11q-14 0 -23 9t-9 22z" />
<glyph unicode="fk" horiz-adv-x="890" d="M66 516h95l13 57q19 89 67 138t116 49q28 0 53 -9l-10 -42q-22 6 -44 6q-50 0 -83 -36t-50 -111l-12 -52h155l-9 -42h-154l-128 -599h-50l128 599h-96zM313 41h68l143 668h-79l9 41h129l-102 -475l271 200h-61l9 41h188l-9 -41h-54l-223 -166l155 -268h68l-9 -41h-188 l9 41h64l-139 241l-94 -70l-37 -171h70l-9 -41h-188z" />
<glyph unicode="ft" horiz-adv-x="702" d="M66 516h95l13 57q19 89 67 138t116 49q19 0 38 -4.5t29 -10.5l-16 -40q-22 10 -52 10q-100 0 -133 -147l-12 -52h274l-9 -42h-273l-128 -599h-50l128 599h-96zM494 -10q-55 0 -83.5 29t-28.5 85q0 31 8 69l64 301h-93l9 42h93l43 151h39l-32 -151h179l-9 -42h-179 l-63 -296q-8 -38 -8 -64q0 -40 17.5 -59.5t55.5 -19.5q24 0 52 11.5t53 31.5l13 -40q-27 -22 -62 -35t-68 -13z" />
<glyph unicode="fh" horiz-adv-x="914" d="M66 516h95l13 57q19 89 67 138t116 49q28 0 53 -9l-10 -42q-22 6 -44 6q-50 0 -83 -36t-50 -111l-12 -52h155l-9 -42h-154l-128 -599h-50l128 599h-96zM455 750h129l-65 -302q92 78 194 78q66 0 101 -33.5t35 -97.5q0 -20 -3.5 -42.5t-12.5 -66.5l-53 -245h70l-9 -41 h-188l9 41h68l54 250q13 62 13 95q0 48 -24.5 70.5t-78.5 22.5q-45 0 -93 -22t-93 -63l-76 -353h70l-9 -41h-188l9 41h68l143 668h-79z" />
<glyph unicode="ff" horiz-adv-x="633" d="M66 516h95l13 57q19 89 67 138t116 49q19 0 38 -4.5t29 -10.5l-16 -40q-22 10 -52 10q-100 0 -133 -147l-12 -52h274l-9 -42h-273l-128 -599h-50l128 599h-96zM371 516h95l13 57q19 91 69 139t124 48q18 0 37 -5t30 -12l-16 -40q-25 12 -53 12q-56 0 -90.5 -36.5 t-51.5 -110.5l-12 -52h155l-9 -42h-154l-128 -599h-50l128 599h-96z" />
<glyph unicode="fi" horiz-adv-x="564" d="M66 516h95l13 57q19 89 67 138t116 49q19 0 38 -4.5t29 -10.5l-16 -40q-22 10 -52 10q-100 0 -133 -147l-12 -52h274l-9 -42h-273l-128 -599h-50l128 599h-96zM387 516h129l-102 -475h70l-9 -41h-188l9 41h68l93 434h-79zM474 677q0 18 13 29t32 11q14 0 23 -9t9 -22 q0 -18 -13 -29t-32 -11q-14 0 -23 9t-9 22z" />
<glyph unicode="fl" horiz-adv-x="581" d="M66 516h95l13 57q19 89 67 138t116 49q28 0 53 -9l-10 -42q-22 6 -44 6q-50 0 -83 -36t-50 -111l-12 -52h155l-9 -42h-154l-128 -599h-50l128 599h-96zM454 750h129l-152 -709h70l-9 -41h-188l9 41h68l143 668h-79z" />
<glyph unicode="ffi" horiz-adv-x="868" d="M66 516h95l13 57q19 89 67 138t116 49q19 0 38 -4.5t29 -10.5l-16 -40q-22 10 -52 10q-100 0 -133 -147l-12 -52h274l-9 -42h-273l-128 -599h-50l128 599h-96zM370 516h95l13 57q19 89 67 138t116 49q19 0 38 -4.5t29 -10.5l-16 -40q-22 10 -52 10q-100 0 -133 -147 l-12 -52h274l-9 -42h-273l-128 -599h-50l128 599h-96zM691 516h129l-102 -475h70l-9 -41h-188l9 41h68l93 434h-79zM778 677q0 18 13 29t32 11q14 0 23 -9t9 -22q0 -18 -13 -29t-32 -11q-14 0 -23 9t-9 22z" />
<glyph unicode="ffl" horiz-adv-x="885" d="M66 516h95l13 57q19 89 67 138t116 49q19 0 38 -4.5t29 -10.5l-16 -40q-22 10 -52 10q-100 0 -133 -147l-12 -52h274l-9 -42h-273l-128 -599h-50l128 599h-96zM370 516h95l13 57q19 89 67 138t116 49q28 0 53 -9l-10 -42q-22 6 -44 6q-50 0 -83 -36t-50 -111l-12 -52h155 l-9 -42h-154l-128 -599h-50l128 599h-96zM758 750h129l-152 -709h70l-9 -41h-188l9 41h68l143 668h-79z" />
<glyph unicode="ffb" horiz-adv-x="1205" d="M66 516h95l13 57q19 89 67 138t116 49q19 0 38 -4.5t29 -10.5l-16 -40q-22 10 -52 10q-100 0 -133 -147l-12 -52h274l-9 -42h-273l-128 -599h-50l128 599h-96zM371 516h95l13 57q19 89 67 138t116 49q28 0 53 -9l-10 -42q-22 6 -44 6q-50 0 -83 -36t-50 -111l-12 -52h155 l-9 -42h-154l-128 -599h-50l128 599h-96zM758 750h129l-64 -295q80 71 171 71q79 0 124.5 -55t45.5 -152q0 -93 -40 -169t-104.5 -118t-141.5 -42q-41 0 -78 15.5t-65 44.5l-16 -50h-42l151 709h-79zM982 481q-90 0 -170 -83l-65 -305q24 -27 60 -42.5t74 -15.5q67 0 120 39 t82.5 102.5t29.5 137.5q0 82 -33.5 124.5t-97.5 42.5z" />
<glyph unicode="ffh" horiz-adv-x="1218" d="M66 516h95l13 57q19 89 67 138t116 49q19 0 38 -4.5t29 -10.5l-16 -40q-22 10 -52 10q-100 0 -133 -147l-12 -52h274l-9 -42h-273l-128 -599h-50l128 599h-96zM371 516h95l13 57q19 89 67 138t116 49q28 0 53 -9l-10 -42q-22 6 -44 6q-50 0 -83 -36t-50 -111l-12 -52h155 l-9 -42h-154l-128 -599h-50l128 599h-96zM759 750h129l-65 -302q92 78 194 78q66 0 101 -33.5t35 -97.5q0 -20 -3.5 -42.5t-12.5 -66.5l-53 -245h70l-9 -41h-188l9 41h68l54 250q13 62 13 95q0 48 -24.5 70.5t-78.5 22.5q-45 0 -93 -22t-93 -63l-76 -353h70l-9 -41h-188 l9 41h68l143 668h-79z" />
<glyph unicode="ffj" horiz-adv-x="857" d="M66 516h95l13 57q19 89 67 138t116 49q19 0 38 -4.5t29 -10.5l-16 -40q-22 10 -52 10q-100 0 -133 -147l-12 -52h274l-9 -42h-273l-128 -599h-50l128 599h-96zM370 516h95l13 57q19 89 67 138t116 49q19 0 38 -4.5t29 -10.5l-16 -40q-22 10 -52 10q-100 0 -133 -147 l-12 -52h274l-9 -42h-273l-128 -599h-50l128 599h-96zM690 516h129l-125 -586q-17 -80 -51.5 -118t-92.5 -38q-18 0 -37 5t-30 12l16 41q25 -13 53 -13q35 0 57.5 28t35.5 87l115 541h-79zM777 677q0 18 13 29t32 11q14 0 23 -9t9 -22q0 -18 -13 -29t-32 -11q-14 0 -23 9 t-9 22z" />
<glyph unicode="ffk" horiz-adv-x="1194" d="M66 516h95l13 57q19 89 67 138t116 49q19 0 38 -4.5t29 -10.5l-16 -40q-22 10 -52 10q-100 0 -133 -147l-12 -52h274l-9 -42h-273l-128 -599h-50l128 599h-96zM370 516h95l13 57q19 89 67 138t116 49q28 0 53 -9l-10 -42q-22 6 -44 6q-50 0 -83 -36t-50 -111l-12 -52h155 l-9 -42h-154l-128 -599h-50l128 599h-96zM617 41h68l143 668h-79l9 41h129l-102 -475l271 200h-61l9 41h188l-9 -41h-54l-223 -166l155 -268h68l-9 -41h-188l9 41h64l-139 241l-94 -70l-37 -171h70l-9 -41h-188z" />
<glyph unicode="fft" horiz-adv-x="1005" d="M66 516h95l13 57q19 89 67 138t116 49q19 0 38 -4.5t29 -10.5l-16 -40q-22 10 -52 10q-100 0 -133 -147l-12 -52h274l-9 -42h-273l-128 -599h-50l128 599h-96zM370 516h95l13 57q19 89 67 138t116 49q19 0 38 -4.5t29 -10.5l-16 -40q-22 10 -52 10q-100 0 -133 -147 l-12 -52h274l-9 -42h-273l-128 -599h-50l128 599h-96zM797 -10q-55 0 -83.5 29t-28.5 85q0 31 8 69l64 301h-93l9 42h93l43 151h39l-32 -151h179l-9 -42h-179l-63 -296q-8 -38 -8 -64q0 -40 17.5 -59.5t55.5 -19.5q24 0 52 11.5t53 31.5l13 -40q-27 -22 -62 -35t-68 -13z " />
<glyph unicode=" "  horiz-adv-x="230" />
<glyph unicode="&#x09;" horiz-adv-x="230" />
<glyph unicode="&#xa0;" horiz-adv-x="230" />
<glyph unicode="!" horiz-adv-x="229" d="M180 700h54l-114 -506h-41zM110 34q0 -18 -13.5 -31t-32.5 -13q-16 0 -26 9.5t-10 25.5q0 19 13.5 32t32.5 13q16 0 26 -9.5t10 -26.5z" />
<glyph unicode="&#x22;" horiz-adv-x="292" d="M128 700h54l-58 -245h-42zM288 700h54l-58 -245h-42z" />
<glyph unicode="#" horiz-adv-x="600" d="M114 479h111l72 211h46l-72 -211h187l72 211h46l-72 -211h101l-9 -42h-107l-63 -184h105l-9 -42h-111l-72 -211h-46l72 211h-187l-72 -211h-46l72 211h-101l9 42h107l63 184h-105zM193 253h187l63 184h-187z" />
<glyph unicode="$" horiz-adv-x="600" d="M516 626q-60 21 -107 26l-60 -283q90 -44 123.5 -81.5t33.5 -98.5q0 -56 -30.5 -100.5t-84.5 -70t-124 -28.5l-22 -103h-43l22 104q-53 3 -105 16t-87 33l35 166h46l-30 -141q70 -27 150 -30l66 306l-21 10q-50 24 -79 46.5t-42.5 50.5t-13.5 64q0 56 30 99t81 66t113 23 h9l20 91h43l-20 -95q72 -8 149 -42l-32 -151h-46zM456 185q0 32 -9.5 53t-33.5 40t-75 44l-61 -287q82 5 130.5 46t48.5 104zM192 513q0 -26 9 -46t32.5 -37.5t76.5 -42.5l57 268q-82 -1 -128.5 -39t-46.5 -103z" />
<glyph unicode="%" horiz-adv-x="913" d="M189 0l520 690h53l-520 -690h-53zM655 33q45 0 81 40t50 106q8 40 8 75q0 48 -22.5 75.5t-62.5 27.5q-45 0 -81 -40t-50 -106q-8 -40 -8 -75q0 -48 22.5 -75.5t62.5 -27.5zM651 -10q-59 0 -93.5 39.5t-34.5 106.5q0 36 9 78q19 86 67.5 136t113.5 50q59 0 93.5 -39.5 t34.5 -106.5q0 -36 -9 -78q-19 -86 -67.5 -136t-113.5 -50zM242 333q45 0 81 40t50 106q8 40 8 75q0 48 -22.5 75.5t-62.5 27.5q-45 0 -81 -40t-50 -106q-8 -40 -8 -75q0 -48 22.5 -75.5t62.5 -27.5zM238 290q-59 0 -93.5 39.5t-34.5 106.5q0 36 9 78q19 86 67.5 136 t113.5 50q59 0 93.5 -39.5t34.5 -106.5q0 -36 -9 -78q-19 -86 -67.5 -136t-113.5 -50z" />
<glyph unicode="&#x26;" horiz-adv-x="673" d="M200 -10q-74 0 -119 42t-45 110q0 71 51 130t158 111q-37 51 -52.5 88.5t-15.5 76.5q0 71 54 116.5t139 45.5q69 0 111.5 -36t42.5 -94q0 -56 -49 -106.5t-158 -105.5l133 -173q28 36 74 104l51 76h56l-66 -98q-41 -61 -86 -118l121 -159h-60l-93 122 q-62 -69 -120.5 -100.5t-126.5 -31.5zM205 35q106 0 213 124l-147 191q-100 -52 -142 -99.5t-42 -108.5q0 -49 32.5 -78t85.5 -29zM228 548q0 -31 14.5 -64t47.5 -81q70 35 109 62t56.5 54t17.5 61q0 38 -29 61.5t-77 23.5q-65 0 -102 -31t-37 -86z" />
<glyph unicode="'" horiz-adv-x="132" d="M128 700h54l-58 -245h-42z" />
<glyph unicode="(" horiz-adv-x="304" d="M139 -164q-29 59 -47 146.5t-18 167.5q0 160 65.5 311t184.5 269h59q-126 -125 -191.5 -271.5t-65.5 -305.5q0 -82 18.5 -171t48.5 -146h-54z" />
<glyph unicode=")" horiz-adv-x="304" d="M165 730q29 -59 47 -146.5t18 -167.5q0 -160 -65.5 -311t-184.5 -269h-59q126 125 191.5 271.5t65.5 305.5q0 82 -18.5 171t-48.5 146h54z" />
<glyph unicode="*" horiz-adv-x="385" d="M89 400l115 118l-129 38l21 42l124 -52l18 150h48l-33 -150l138 54l10 -45l-141 -39l83 -125l-41 -25l-72 135l-104 -130z" />
<glyph unicode="+" horiz-adv-x="600" d="M244 111l45 210h-192l10 46h191l45 210h48l-45 -210h192l-10 -46h-191l-45 -210h-48z" />
<glyph unicode="," horiz-adv-x="183" d="M-47 -107q34 23 55 46.5t33 52.5q-14 1 -22 10t-8 24q0 18 13 31t32 13q17 0 27 -10.5t10 -28.5q0 -43 -34 -87.5t-91 -75.5z" />
<glyph unicode="-" horiz-adv-x="368" d="M46 295h292l-9 -44h-292z" />
<glyph unicode="." horiz-adv-x="183" d="M11 25q0 19 13.5 32t32.5 13q16 0 26 -9.5t10 -26.5q0 -18 -13.5 -31t-32.5 -13q-16 0 -26 9.5t-10 25.5z" />
<glyph unicode="/" horiz-adv-x="432" d="M470 730h55l-563 -893h-55z" />
<glyph unicode="0" horiz-adv-x="545" d="M231 36q74 0 128.5 70.5t86.5 209.5q21 95 21 174q0 81 -33 122.5t-96 41.5q-74 0 -128.5 -70.5t-86.5 -209.5q-21 -95 -21 -174q0 -81 33 -122.5t96 -41.5zM226 -10q-84 0 -129.5 55t-45.5 154q0 85 21 179q34 156 103.5 239t167.5 83q84 0 129.5 -55t45.5 -154 q0 -85 -21 -179q-34 -156 -103.5 -239t-167.5 -83z" />
<glyph unicode="1" horiz-adv-x="488" d="M86 530l233 160h49l-137 -643h197l-10 -47h-435l10 47h187l123 580l-196 -134z" />
<glyph unicode="2" horiz-adv-x="507" d="M123 630q50 36 98 53t101 17q78 0 125.5 -42.5t47.5 -112.5q0 -67 -48 -120t-160 -109l-20 -10q-64 -32 -101 -64t-61 -77.5t-40 -117.5h288l26 122h46l-36 -169h-386l11 52q15 73 41.5 125.5t71 92.5t118.5 77l20 10q99 49 138 89t39 93q0 55 -33 85t-92 30 q-41 0 -77.5 -11.5t-75.5 -35.5l-20 -95h-46z" />
<glyph unicode="3" horiz-adv-x="499" d="M198 -10q-55 0 -104.5 15.5t-86.5 44.5l26 121h46l-22 -99q62 -36 145 -36t133 47t50 127q0 57 -32.5 93t-89.5 36h-101l9 45h95q46 0 83.5 20.5t58 55t20.5 76.5q0 57 -34 87.5t-98 30.5q-63 0 -129 -34l-20 -102h-46l24 124q38 27 86.5 42.5t95.5 15.5q79 0 126 -42.5 t47 -117.5q0 -62 -37 -111t-98 -68q44 -19 68 -57t24 -88q0 -67 -31.5 -118.5t-85.5 -79.5t-122 -28z" />
<glyph unicode="4" horiz-adv-x="560" d="M226 45h110l28 133h-346l9 44l448 468h49l-100 -467h96l-9 -45h-96l-29 -133h110l-9 -45h-270zM374 223l82 385l-367 -385h285z" />
<glyph unicode="5" horiz-adv-x="493" d="M441 643h-224l-66 -239q51 3 86 3q94 0 147.5 -46.5t53.5 -126.5q0 -72 -34 -127.5t-92 -86t-130 -30.5q-48 0 -95.5 15.5t-85.5 43.5l27 129h46l-23 -108q30 -16 65 -25t69 -9q90 0 145.5 53.5t55.5 139.5q0 62 -40.5 97t-113.5 35q-62 0 -139 -3l92 332h312l-32 -148 h-46z" />
<glyph unicode="6" horiz-adv-x="525" d="M372 700q73 0 148 -36l-26 -121h-46l20 94q-52 17 -100 17q-85 0 -147.5 -65.5t-96.5 -186.5q79 11 142 11q102 0 156 -48.5t54 -137.5q0 -70 -31 -124t-83.5 -83.5t-117.5 -29.5q-94 0 -144.5 59.5t-50.5 172.5q0 94 26.5 187t70.5 158.5t101 99t125 33.5zM251 369 q-50 0 -138 -11q-14 -69 -14 -137q0 -95 36.5 -140t113.5 -45q79 0 127 51t48 135q0 75 -42.5 111t-130.5 36z" />
<glyph unicode="7" horiz-adv-x="459" d="M109 690h418l-10 -46l-174 -226q-63 -82 -98.5 -138t-57.5 -110t-38 -132l-8 -38h-57l9 42q22 104 67 189t145 214l154 198h-314l-22 -102h-46z" />
<glyph unicode="8" horiz-adv-x="549" d="M37 159q0 75 50 133.5t128 78.5q-45 24 -68 61t-23 82q0 40 18.5 75t50 60t71 38t82.5 13q53 0 97.5 -21.5t68 -57t23.5 -81.5q0 -62 -39.5 -113t-105.5 -75q45 -24 69.5 -63t24.5 -88q0 -61 -33.5 -109.5t-89 -75t-120.5 -26.5q-58 0 -105.5 22t-73 60t-25.5 87zM89 165 q0 -58 44 -94t113 -36q54 0 97 22t66 59.5t23 83.5t-33.5 82.5t-93.5 55.5l-42 13q-50 -10 -90.5 -38t-62 -66t-21.5 -82zM175 515q0 -45 29 -77t85 -50l53 -17q63 16 102.5 60.5t39.5 102.5q0 54 -40 87.5t-100 33.5q-49 0 -88 -19t-60 -50.5t-21 -70.5z" />
<glyph unicode="9" horiz-adv-x="527" d="M190 -10q-44 0 -82.5 8t-82.5 27l26 122h46l-20 -94q48 -17 117 -17q85 0 145.5 65.5t90.5 186.5q-80 -11 -144 -11q-101 0 -155.5 46.5t-54.5 133.5q0 68 33 124.5t85.5 87.5t113.5 31q94 0 144.5 -59.5t50.5 -172.5q0 -96 -25 -189t-67 -158t-98 -98t-123 -33zM301 321 q64 0 139 11q13 71 13 137q0 95 -36.5 140t-113.5 45q-50 0 -90.5 -26.5t-62.5 -70t-22 -95.5q0 -72 42 -106.5t131 -34.5z" />
<glyph unicode=":" horiz-adv-x="183" d="M11 25q0 19 13.5 32t32.5 13q16 0 26 -9.5t10 -26.5q0 -18 -13.5 -31t-32.5 -13q-16 0 -26 9.5t-10 25.5zM106 471q0 19 13.5 32t32.5 13q16 0 26 -9.5t10 -26.5q0 -18 -13.5 -31t-32.5 -13q-16 0 -26 9.5t-10 25.5z" />
<glyph unicode=";" horiz-adv-x="183" d="M-47 -107q34 23 55 46.5t33 52.5q-14 1 -22 10t-8 24q0 18 13 31t32 13q17 0 27 -10.5t10 -28.5q0 -43 -34 -87.5t-91 -75.5zM106 471q0 19 13.5 32t32.5 13q16 0 26 -9.5t10 -26.5q0 -18 -13.5 -31t-32.5 -13q-16 0 -26 9.5t-10 25.5z" />
<glyph unicode="&#x3c;" horiz-adv-x="600" d="M549 489l-388 -146l327 -149l-10 -46l-372 177l9 43l445 175z" />
<glyph unicode="=" horiz-adv-x="600" d="M73 211l10 46h428l-10 -46h-428zM120 432l10 46h428l-10 -46h-428z" />
<glyph unicode="&#x3e;" horiz-adv-x="600" d="M102 203l388 146l-327 149l10 46l372 -177l-9 -43l-445 -175z" />
<glyph unicode="?" horiz-adv-x="443" d="M92 634q45 37 97.5 56t106.5 19q76 0 119 -36.5t43 -100.5q0 -49 -31.5 -93t-99.5 -92l-18 -13q-53 -38 -75 -67.5t-32 -74.5l-8 -38h-47l8 38q12 56 38.5 93.5t82.5 77.5l18 13q59 42 85.5 78t26.5 75q0 44 -30.5 69.5t-83.5 25.5q-80 0 -160 -52l-19 -90h-45zM109 25 q0 19 13.5 32t32.5 13q16 0 26 -9.5t10 -26.5q0 -18 -13.5 -31t-32.5 -13q-16 0 -26 9.5t-10 25.5z" />
<glyph unicode="@" horiz-adv-x="988" d="M694 -25q-53 0 -83 27t-31 75q-33 -32 -75.5 -50.5t-84.5 -18.5q-63 0 -99 42t-36 113q0 76 35 140.5t92 99.5t126 35q35 0 67.5 -12.5t54.5 -34.5l14 38h42l-80 -290q-8 -26 -8 -52q0 -34 16 -50.5t50 -16.5q54 0 97.5 36.5t67.5 97t24 133.5q0 100 -42.5 173.5 t-118 113t-174.5 39.5q-127 0 -229 -61.5t-158 -161.5t-56 -218q0 -110 45 -189.5t127 -121.5t193 -42q51 0 105 11t102 31l11 -42q-96 -45 -220 -45q-129 0 -222.5 49t-142.5 138.5t-49 209.5q0 141 68 252.5t180.5 173t246.5 61.5q117 0 204.5 -47.5t134 -131.5t46.5 -192 q0 -92 -32.5 -163t-87 -110t-120.5 -39zM430 52q36 0 78 21t77 58l61 220q-21 20 -51.5 31.5t-61.5 11.5q-56 0 -101.5 -31.5t-71 -82.5t-25.5 -111q0 -55 25 -86t70 -31z" />
<glyph unicode="A" horiz-adv-x="707" d="M330 700h143l103 -654h78l-10 -46h-206l10 46h74l-24 167h-310l-96 -167h77l-10 -46h-206l10 46h74l353 608h-70zM215 260h276l-56 385z" />
<glyph unicode="B" horiz-adv-x="641" d="M139 700h275q102 0 154 -41.5t52 -121.5q0 -63 -43 -113.5t-111 -68.5q53 -13 83 -51.5t30 -94.5q0 -64 -32.5 -111.5t-90.5 -72.5t-136 -25h-330l10 46h79l129 608h-79zM191 329l-60 -281h194q93 0 146.5 43t53.5 116q0 122 -161 122h-173zM259 652l-58 -275h155 q96 0 153 43.5t57 114.5q0 60 -38.5 88.5t-119.5 28.5h-149z" />
<glyph unicode="C" horiz-adv-x="625" d="M584 628q-39 18 -73 25.5t-73 7.5q-93 0 -167 -52t-114.5 -137.5t-40.5 -186.5q0 -116 58.5 -181t164.5 -65q75 0 139 31l26 125h47l-32 -154q-35 -23 -84.5 -37t-99.5 -14q-85 0 -146.5 36t-94 102t-32.5 153q0 122 53.5 221t140 153.5t186.5 54.5q51 0 102.5 -15 t91.5 -43l-31 -147h-47z" />
<glyph unicode="D" horiz-adv-x="717" d="M139 700h216q165 0 248.5 -73t83.5 -218q0 -119 -56.5 -214t-153.5 -145t-225 -50h-262l10 46h79l129 608h-79zM259 652l-128 -604h125q118 0 202 46.5t129.5 129t45.5 183.5q0 124 -70 184.5t-214 60.5h-90z" />
<glyph unicode="E" horiz-adv-x="573" d="M560 652h-301l-58 -274h292l-10 -48h-292l-60 -282h310l24 112h47l-34 -160h-488l10 46h79l129 608h-79l10 46h478l-34 -160h-47z" />
<glyph unicode="F" horiz-adv-x="550" d="M546 652h-287l-61 -289h281l-10 -48h-281l-57 -269h87l-10 -46h-218l10 46h79l129 608h-79l10 46h464l-34 -160h-47z" />
<glyph unicode="G" horiz-adv-x="692" d="M609 623q-83 38 -171 38q-93 0 -167 -52t-114.5 -137.5t-40.5 -186.5q0 -115 59.5 -180.5t165.5 -65.5q47 0 84.5 8.5t73.5 28.5l52 242h-178l10 48h306l-10 -48h-76l-58 -272q-85 -56 -207 -56q-86 0 -148 36.5t-95 102.5t-33 152q0 122 53.5 221t140 153.5t186.5 54.5 q112 0 220 -59l-31 -146h-47z" />
<glyph unicode="H" horiz-adv-x="737" d="M0 46h79l129 608h-79l10 46h208l-10 -46h-77l-59 -276h392l59 276h-77l10 46h208l-10 -46h-79l-129 -608h79l-10 -46h-208l10 46h77l60 284h-392l-60 -284h77l-10 -46h-208z" />
<glyph unicode="I" horiz-adv-x="293" d="M0 46h79l129 608h-79l10 46h210l-10 -46h-79l-129 -608h79l-10 -46h-210z" />
<glyph unicode="J" horiz-adv-x="412" d="M228 700h195l-105 -493q-24 -113 -73.5 -165t-134.5 -52q-34 0 -69.5 12t-61.5 31l21 42q55 -36 112 -36q64 0 100 41.5t56 135.5l93 438h-143z" />
<glyph unicode="K" horiz-adv-x="689" d="M0 46h79l129 608h-79l10 46h210l-10 -46h-79l-71 -335l374 335h-74l10 46h212l-10 -46h-67l-269 -239l176 -369h78l-10 -46h-210l10 46h75l-160 336l-150 -135l-43 -201h79l-10 -46h-210z" />
<glyph unicode="L" horiz-adv-x="545" d="M139 700h210l-10 -46h-79l-129 -606h291l24 112h47l-34 -160h-469l10 46h79l129 608h-79z" />
<glyph unicode="M" horiz-adv-x="866" d="M139 700h131l150 -516l371 516h131l-10 -46h-79l-129 -608h79l-10 -46h-208l10 46h77l116 544l-336 -467h-46l-139 472l-116 -549h77l-10 -46h-208l10 46h79l129 608h-79z" />
<glyph unicode="N" horiz-adv-x="727" d="M579 700h210l-10 -46h-79l-139 -654h-51l-259 615l-121 -569h80l-10 -46h-210l10 46h79l129 608h-79l10 46h130l259 -615l121 569h-80z" />
<glyph unicode="O" horiz-adv-x="723" d="M421 661q-85 0 -155.5 -53t-110 -138.5t-39.5 -184.5q0 -111 59.5 -178.5t158.5 -67.5q85 0 155.5 53t110 138.5t39.5 184.5q0 111 -59.5 178.5t-158.5 67.5zM425 710q81 0 142 -38t93.5 -104t32.5 -149q0 -121 -51.5 -220t-134 -154t-177.5 -55q-81 0 -142 38t-93.5 104 t-32.5 149q0 121 51.5 220t134 154t177.5 55z" />
<glyph unicode="P" horiz-adv-x="616" d="M0 46h79l129 608h-79l10 46h266q101 0 154 -47t53 -136q0 -71 -35 -127.5t-95.5 -86.5t-140.5 -30h-162l-48 -227h87l-10 -46h-218zM189 321h159q66 0 113 24.5t72 68.5t25 99q0 139 -156 139h-142z" />
<glyph unicode="Q" horiz-adv-x="723" d="M425 710q81 0 142 -38t93.5 -104t32.5 -149q0 -120 -53.5 -223t-143.5 -158l52 -110l-44 -19l-50 107q-63 -26 -124 -26q-81 0 -142 38t-93.5 104t-32.5 149q0 121 51.5 220t134 154t177.5 55zM421 661q-85 0 -155.5 -53t-110 -138.5t-39.5 -184.5q0 -111 59.5 -178.5 t158.5 -67.5q52 0 100 21l-55 118l44 19l53 -115q75 49 119 138.5t44 194.5q0 111 -59.5 178.5t-158.5 67.5z" />
<glyph unicode="R" horiz-adv-x="663" d="M0 46h79l129 608h-79l10 46h258q106 0 160.5 -45t54.5 -132q0 -89 -55.5 -152.5t-150.5 -80.5l112 -244h85l-10 -46h-220l10 46h77l-107 238h-172l-50 -238h89l-10 -46h-220zM558 519q0 133 -164 133h-135l-68 -320h154q100 0 156.5 51t56.5 136z" />
<glyph unicode="S" horiz-adv-x="578" d="M512 633q-37 15 -71.5 21.5t-79.5 6.5q-80 0 -128 -38t-48 -100q0 -42 24 -69.5t82 -55.5l34 -16q98 -46 134 -88.5t36 -103.5q0 -58 -33.5 -104.5t-90 -71t-129.5 -24.5q-125 0 -220 59l33 156h47l-27 -129q77 -37 169 -37q61 0 105 19.5t68 54t24 75.5q0 48 -27.5 78.5 t-115.5 71.5l-34 16q-73 34 -103 73t-30 94q0 56 30 99t82.5 66.5t118.5 23.5q116 0 204 -49l-32 -148h-47z" />
<glyph unicode="T" horiz-adv-x="562" d="M125 46h87l129 606h-193l-26 -122h-47l36 170h532l-36 -170h-47l26 122h-193l-129 -606h87l-10 -46h-226z" />
<glyph unicode="U" horiz-adv-x="711" d="M121 700h210l-10 -46h-79l-70 -330q-17 -79 -17 -135q0 -71 42 -110.5t118 -39.5q90 0 146 58t81 176l81 381h-79l10 46h210l-10 -46h-79l-82 -387q-30 -142 -98.5 -209.5t-181.5 -67.5q-98 0 -154.5 52.5t-56.5 143.5q0 56 18 139l70 329h-79z" />
<glyph unicode="V" horiz-adv-x="674" d="M560 700h206l-10 -46h-75l-368 -654h-56l-92 654h-76l10 46h206l-10 -46h-76l76 -598l331 598h-76z" />
<glyph unicode="W" horiz-adv-x="890" d="M776 700h206l-10 -46h-74l-300 -654h-61l-24 562l-268 -562h-56l-23 654h-77l10 46h206l-10 -46h-76l13 -581l271 567h53l25 -571l263 585h-78z" />
<glyph unicode="X" horiz-adv-x="666" d="M384 46h74l-112 270l-221 -270h75l-10 -46h-206l10 46h70l261 314l-124 294h-74l10 46h206l-10 -46h-77l106 -262l216 262h-81l10 46h206l-10 -46h-64l-256 -306l130 -302h77l-10 -46h-206z" />
<glyph unicode="Y" horiz-adv-x="625" d="M153 46h89l51 243l-130 365h-76l10 46h210l-10 -46h-79l110 -321l246 321h-75l10 46h210l-10 -46h-74l-290 -366l-51 -242h89l-10 -46h-230z" />
<glyph unicode="Z" horiz-adv-x="592" d="M155 700h454l-10 -47l-524 -605h367l27 127h47l-37 -175h-478l10 47l523 605h-343l-26 -122h-47z" />
<glyph unicode="[" horiz-adv-x="347" d="M10 -164l190 894h206l-10 -45h-156l-171 -804h172l-9 -45h-222z" />
<glyph unicode="\" horiz-adv-x="422" d="M335 -163h-48l-200 893h48z" />
<glyph unicode="]" horiz-adv-x="347" d="M358 730l-190 -894h-206l10 45h156l171 804h-172l9 45h222z" />
<glyph unicode="^" horiz-adv-x="600" d="M476 324l-93 321l-229 -321h-54l268 366h46l112 -366h-50z" />
<glyph unicode="_" horiz-adv-x="500" d="M-53 -90h500l-9 -42h-500z" />
<glyph unicode="`" horiz-adv-x="587" d="M356 611l-76 139h64l63 -139h-51z" />
<glyph unicode="a" horiz-adv-x="576" d="M487 0h-111l8 68q-81 -78 -173 -78q-79 0 -124.5 55t-45.5 152q0 92 40.5 168.5t105.5 118.5t140 42q41 0 78 -16t64 -45l17 51h42l-102 -475h70zM223 35q41 0 86.5 23.5t84.5 64.5l64 300q-25 27 -60.5 42.5t-73.5 15.5q-67 0 -120 -39t-82.5 -102.5t-29.5 -137.5 q0 -82 33.5 -124.5t97.5 -42.5z" />
<glyph unicode="b" horiz-adv-x="559" d="M112 750h129l-64 -295q80 71 171 71q79 0 124.5 -55t45.5 -152q0 -93 -40 -169t-104.5 -118t-141.5 -42q-41 0 -78 15.5t-65 44.5l-16 -50h-42l151 709h-79zM336 481q-90 0 -170 -83l-65 -305q24 -27 60 -42.5t74 -15.5q67 0 120 39t82.5 102.5t29.5 137.5 q0 82 -33.5 124.5t-97.5 42.5z" />
<glyph unicode="c" horiz-adv-x="488" d="M419 464q-39 17 -87 17q-66 0 -121.5 -40t-87 -102.5t-31.5 -132.5q0 -82 39.5 -126.5t112.5 -44.5q71 0 146 57l13 -40q-32 -29 -76 -45.5t-89 -16.5q-96 0 -146.5 55t-50.5 160q0 89 43.5 163.5t111 116t142.5 41.5q74 0 132 -35l-24 -112h-45z" />
<glyph unicode="d" horiz-adv-x="576" d="M449 750h129l-152 -709h70l-9 -41h-111l8 68q-81 -78 -173 -78q-79 0 -124.5 55t-45.5 152q0 92 40.5 168.5t105.5 118.5t140 42q40 0 76.5 -15.5t63.5 -43.5l52 242h-79zM223 35q41 0 86.5 23.5t84.5 64.5l64 300q-25 27 -60.5 42.5t-73.5 15.5q-67 0 -120 -39 t-82.5 -102.5t-29.5 -137.5q0 -82 33.5 -124.5t97.5 -42.5z" />
<glyph unicode="e" horiz-adv-x="514" d="M241 -10q-95 0 -147.5 56t-52.5 159q0 88 44 162.5t113 116.5t145 42q64 0 101.5 -33.5t37.5 -90.5q0 -83 -90.5 -132.5t-243.5 -49.5q-24 0 -55 3q-1 -10 -1 -17q0 -80 41.5 -125.5t113.5 -45.5q83 0 158 57l13 -40q-75 -62 -177 -62zM338 481q-58 0 -109 -29.5 t-85 -78.5t-46 -109q22 -2 44 -2q87 0 153 17.5t101 48t35 69.5t-25 61.5t-68 22.5z" />
<glyph unicode="f" horiz-adv-x="328" d="M66 516h95l13 57q19 91 69 139t124 48q18 0 37 -5t30 -12l-16 -40q-25 12 -53 12q-56 0 -90.5 -36.5t-51.5 -110.5l-12 -52h155l-9 -42h-154l-128 -599h-50l128 599h-96z" />
<glyph unicode="g" horiz-adv-x="567" d="M576 475h-64l-103 -485q-23 -107 -89 -161.5t-174 -54.5q-45 0 -88.5 11.5t-72.5 31.5l17 42q68 -40 146 -40q89 0 141 43.5t72 136.5l16 74q-81 -73 -173 -73q-79 0 -124.5 54.5t-45.5 147.5q0 91 41 166t106 116.5t139 41.5q41 0 78 -16t64 -45l17 51h106zM216 45 q90 0 172 85l63 293q-25 27 -60.5 42.5t-73.5 15.5q-67 0 -120 -39t-82.5 -101.5t-29.5 -133.5q0 -79 34 -120.5t97 -41.5z" />
<glyph unicode="h" horiz-adv-x="587" d="M128 750h129l-65 -302q92 78 194 78q66 0 101 -33.5t35 -97.5q0 -20 -3.5 -42.5t-12.5 -66.5l-53 -245h70l-9 -41h-188l9 41h68l54 250q13 62 13 95q0 48 -24.5 70.5t-78.5 22.5q-45 0 -93 -22t-93 -63l-76 -353h70l-9 -41h-188l9 41h68l143 668h-79z" />
<glyph unicode="i" horiz-adv-x="255" d="M78 516h129l-102 -475h70l-9 -41h-188l9 41h68l93 434h-79zM165 677q0 18 13 29t32 11q14 0 23 -9t9 -22q0 -18 -13 -29t-32 -11q-14 0 -23 9t-9 22z" />
<glyph unicode="j" horiz-adv-x="235" d="M68 516h129l-125 -586q-17 -80 -51.5 -118t-92.5 -38q-18 0 -37 5t-30 12l16 41q25 -13 53 -13q35 0 57.5 28t35.5 87l115 541h-79zM155 677q0 18 13 29t32 11q14 0 23 -9t9 -22q0 -18 -13 -29t-32 -11q-14 0 -23 9t-9 22z" />
<glyph unicode="k" horiz-adv-x="564" d="M-13 41h68l143 668h-79l9 41h129l-102 -475l271 200h-61l9 41h188l-9 -41h-54l-223 -166l155 -268h68l-9 -41h-188l9 41h64l-139 241l-94 -70l-37 -171h70l-9 -41h-188z" />
<glyph unicode="l" horiz-adv-x="255" d="M128 750h129l-152 -709h70l-9 -41h-188l9 41h68l143 668h-79z" />
<glyph unicode="m" horiz-adv-x="911" d="M78 516h121l-9 -70q45 39 94 59.5t96 20.5q52 0 84.5 -24t41.5 -69q107 93 210 93q62 0 96 -34t34 -97q0 -20 -3.5 -42.5t-12.5 -66.5l-53 -245h70l-9 -41h-188l9 41h68l54 250q13 62 13 95q0 47 -23.5 70t-73.5 23q-43 0 -92.5 -24t-94.5 -67q-1 -34 -16 -102l-53 -245 h70l-9 -41h-188l9 41h68l54 250q13 62 13 95q0 47 -23.5 70t-73.5 23q-42 0 -89.5 -22.5t-90.5 -62.5l-76 -353h70l-9 -41h-188l9 41h68l93 434h-79z" />
<glyph unicode="n" horiz-adv-x="587" d="M78 516h121l-9 -70q92 80 196 80q66 0 101 -33.5t35 -97.5q0 -20 -3.5 -42.5t-12.5 -66.5l-53 -245h70l-9 -41h-188l9 41h68l54 250q13 62 13 95q0 48 -24.5 70.5t-78.5 22.5q-45 0 -93 -22t-93 -63l-76 -353h70l-9 -41h-188l9 41h68l93 434h-79z" />
<glyph unicode="o" horiz-adv-x="560" d="M519 311q0 -90 -40.5 -164.5t-104.5 -115.5t-136 -41q-60 0 -105 27t-68.5 75.5t-23.5 112.5q0 90 40.5 164.5t104.5 115.5t136 41q60 0 105 -27t68.5 -75.5t23.5 -112.5zM242 35q63 0 115.5 39t81.5 101t29 135q0 79 -40.5 125t-109.5 46q-63 0 -115.5 -39t-81.5 -101 t-29 -135q0 -79 40.5 -125t109.5 -46z" />
<glyph unicode="p" horiz-adv-x="567" d="M70 516h121l-8 -63q81 73 173 73q79 0 124.5 -55t45.5 -152q0 -93 -40 -169t-104.5 -118t-141.5 -42q-40 0 -77 15t-64 43l-48 -223h80l-9 -41h-198l9 41h68l139 650h-79zM344 481q-90 0 -170 -83l-65 -305q24 -27 60 -42.5t74 -15.5q67 0 120 39t82.5 102.5t29.5 137.5 q0 82 -33.5 124.5t-97.5 42.5z" />
<glyph unicode="q" horiz-adv-x="565" d="M252 -175h79l50 236q-79 -71 -170 -71q-79 0 -124.5 55t-45.5 152q0 92 40.5 168.5t105.5 118.5t140 42q41 0 78 -16t64 -45l17 51h42l-148 -691h80l-9 -41h-208zM223 35q44 0 87.5 21t82.5 61l65 306q-25 27 -60.5 42.5t-73.5 15.5q-67 0 -120 -39t-82.5 -102.5 t-29.5 -137.5q0 -82 33.5 -124.5t97.5 -42.5z" />
<glyph unicode="r" horiz-adv-x="385" d="M401 472q-19 4 -41 4q-91 0 -179 -82l-76 -353h80l-9 -41h-198l9 41h68l93 434h-79l9 41h121l-9 -71q89 81 184 81q20 0 40 -5z" />
<glyph unicode="s" horiz-adv-x="451" d="M370 462q-51 19 -101 19q-61 0 -98.5 -27t-37.5 -71q0 -29 18.5 -49t63.5 -39l28 -12q74 -32 102.5 -62.5t28.5 -78.5q0 -66 -52.5 -109t-135.5 -43q-90 0 -174 48l21 100h45l-16 -74q63 -29 125 -29t99 28t37 74q0 35 -22 57t-82 48l-28 12q-59 25 -84 54.5t-25 72.5 q0 42 25.5 75.5t68.5 51.5t96 18q85 0 149 -35l-23 -108h-45z" />
<glyph unicode="t" horiz-adv-x="384" d="M176 -10q-55 0 -83.5 29t-28.5 85q0 31 8 69l64 301h-93l9 42h93l43 151h39l-32 -151h179l-9 -42h-179l-63 -296q-8 -38 -8 -64q0 -40 17.5 -59.5t55.5 -19.5q24 0 52 11.5t53 31.5l13 -40q-27 -22 -62 -35t-68 -13z" />
<glyph unicode="u" horiz-adv-x="579" d="M402 516h129l-102 -475h70l-9 -41h-111l8 70q-91 -80 -193 -80q-65 0 -99.5 34t-34.5 97q0 20 3.5 42.5t12.5 66.5l52 245h-79l9 41h129l-62 -291q-13 -62 -13 -95q0 -48 24.5 -70.5t76.5 -22.5q44 0 91.5 22t92.5 62l75 354h-79z" />
<glyph unicode="v" horiz-adv-x="565" d="M404 516h184l-9 -41h-61l-281 -475h-47l-79 475h-67l9 41h183l-9 -41h-66l64 -415l238 415h-68z" />
<glyph unicode="w" horiz-adv-x="807" d="M646 516h184l-9 -41h-61l-251 -475h-44l-42 420l-219 -420h-44l-51 475h-65l9 41h183l-9 -41h-67l37 -404l219 426h44l40 -422l205 400h-68z" />
<glyph unicode="x" horiz-adv-x="545" d="M392 516h184l-9 -41h-63l-199 -214l112 -220h67l-9 -41h-184l9 41h63l-94 189l-174 -189h66l-9 -41h-183l9 41h58l211 229l-102 205h-62l9 41h183l-9 -41h-67l84 -173l162 173h-62z" />
<glyph unicode="y" horiz-adv-x="564" d="M403 516h184l-9 -41h-61l-285 -481q-51 -85 -85.5 -132t-64.5 -67.5t-68 -20.5q-18 0 -36.5 5.5t-31.5 15.5l18 39q25 -15 50 -15q37 0 71.5 33t86.5 122l19 34l-81 467h-65l9 41h183l-9 -41h-68l67 -410l235 410h-68z" />
<glyph unicode="z" horiz-adv-x="467" d="M-1 38l395 436h-248l-21 -100h-45l30 142h355l-8 -38l-395 -436h266l22 100h45l-31 -142h-373z" />
<glyph unicode="{" horiz-adv-x="351" d="M169 -165q-56 0 -87 29t-31 84q0 22 8.5 53.5t31.5 92.5q20 53 26.5 76t6.5 40q0 27 -16 39.5t-51 12.5h-20l9 43h20q41 0 63.5 16.5t30.5 54.5q8 35 16 109q8 73 15 110q13 66 54 101t104 35q36 0 73 -8l-10 -44q-30 7 -57 7q-48 0 -75 -23t-38 -74q-3 -14 -5.5 -30 t-5.5 -37t-6 -50q-6 -52 -15 -103q-14 -72 -83 -87q24 -8 36 -25.5t12 -42.5q0 -16 -7.5 -43t-29.5 -89q-23 -64 -29.5 -89t-6.5 -41q0 -38 19 -55t59 -17q31 0 68 7l-9 -44q-37 -8 -70 -8z" />
<glyph unicode="|" horiz-adv-x="234" d="M193 730h48l-201 -946h-48z" />
<glyph unicode="}" horiz-adv-x="351" d="M201 731q56 0 87 -29t31 -84q0 -22 -8.5 -53.5t-31.5 -92.5q-20 -53 -26.5 -76t-6.5 -40q0 -27 16 -39.5t51 -12.5h20l-9 -43h-20q-41 0 -63.5 -16.5t-30.5 -54.5q-8 -35 -16 -109q-8 -73 -15 -110q-13 -66 -54 -101t-104 -35q-36 0 -73 8l10 44q30 -7 57 -7q48 0 75 23 t38 74q3 14 6 30t5.5 37t5.5 50q6 52 15 103q14 72 83 87q-24 8 -36 25.5t-12 42.5q0 16 7.5 43t29.5 89q23 64 29.5 89t6.5 41q0 38 -19 55t-59 17q-31 0 -68 -7l9 44q37 8 70 8z" />
<glyph unicode="~" horiz-adv-x="600" d="M417 246q-29 0 -53 16t-60 62q-27 35 -40.5 48.5t-25.5 19t-25 5.5q-61 0 -88 -114l-8 -34h-47l8 36q18 81 52.5 119.5t88.5 38.5q29 0 53 -16t60 -62q27 -35 40.5 -48.5t25.5 -19t25 -5.5q61 0 88 114l8 34h47l-8 -36q-18 -81 -52.5 -119.5t-88.5 -38.5z" />
<glyph unicode="&#xa1;" horiz-adv-x="229" d="M49 -184h-54l114 506h41zM119 482q0 18 13.5 31t32.5 13q16 0 26 -9.5t10 -25.5q0 -19 -13.5 -32t-32.5 -13q-16 0 -26 9.5t-10 26.5z" />
<glyph unicode="&#xa2;" horiz-adv-x="600" d="M220 -113l23 109q-68 14 -104 65.5t-36 133.5q0 81 34 150.5t91 113t125 54.5l23 107h43l-22 -104q76 -2 132 -39l-24 -116h-46l19 91q-45 19 -91 19l-93 -436h7q36 0 76 15t75 42l13 -40q-32 -29 -76.5 -45.5t-89.5 -16.5h-7t-7 1l-22 -104h-43zM154 200 q0 -63 25.5 -104t72.5 -55l91 425q-55 -13 -98.5 -53.5t-67 -96t-23.5 -116.5z" />
<glyph unicode="&#xa3;" horiz-adv-x="600" d="M36 47q43 30 77.5 77t54 99.5t20.5 101.5h-84l10 45h73l-4 29q-8 54 -8 80q0 66 28 116.5t77.5 77.5t113.5 27q110 0 190 -45l-33 -156h-46l27 127q-65 28 -139 28q-79 0 -122 -47.5t-43 -135.5q0 -16 4 -57l4 -44h198l-10 -45h-188q-2 -53 -21 -107.5t-48.5 -98.5 t-67.5 -72h338l22 104h46l-22 -104l-10 -47h-447z" />
<glyph unicode="&#xa5;" horiz-adv-x="600" d="M216 0l28 132h-173l10 45h172l23 107h-173l10 45h150l-113 315h-59l10 46h187l-10 -46h-73l106 -311l239 311h-73l10 46h194l-10 -46h-62l-248 -315h149l-10 -45h-173l-23 -107h174l-10 -45h-173l-28 -132h-51z" />
<glyph unicode="&#xa7;" horiz-adv-x="507" d="M330 21q0 38 -22.5 60t-78.5 38l-27 8q-75 22 -110.5 60t-35.5 94q0 41 21.5 76.5t58.5 61.5t81 37q-36 19 -53.5 45.5t-17.5 63.5q0 62 52 103.5t133 41.5q42 0 80.5 -8t82.5 -27l-23 -108h-45l17 79q-54 19 -111 19q-62 0 -98.5 -26.5t-36.5 -71.5q0 -34 22.5 -55 t77.5 -37l27 -8q73 -22 110 -61t37 -93q0 -42 -21 -77.5t-57.5 -61t-80.5 -36.5q36 -19 53 -46t17 -66q0 -46 -25.5 -80.5t-72 -53t-109.5 -18.5q-102 0 -179 48l21 100h45l-16 -77q61 -26 130 -26q72 0 113 27.5t41 74.5zM267 435q-71 -14 -115.5 -54.5t-44.5 -94.5 q0 -44 27.5 -71.5t86.5 -44.5l39 -11q71 14 115.5 54.5t44.5 94.5q0 44 -27.5 71.5t-86.5 44.5z" />
<glyph unicode="&#xa8;" horiz-adv-x="587" d="M260 677q0 18 13 29t32 11q14 0 23 -9t9 -22q0 -18 -13 -29t-32 -11q-14 0 -23 9t-9 22zM411 677q0 18 13 29t32 11q14 0 23 -9t9 -22q0 -18 -13 -29t-32 -11q-14 0 -23 9t-9 22z" />
<glyph unicode="&#xa9;" horiz-adv-x="592" d="M343 336q-69 0 -110 43t-41 115q0 70 42.5 114t108.5 44q51 0 85 -20l-12 -38q-33 13 -67 13q-50 0 -78.5 -30t-28.5 -84q0 -53 28 -82.5t79 -29.5q38 0 69 18l14 -39q-36 -24 -89 -24zM335 224q-79 0 -139.5 36t-93 97t-32.5 137q0 81 35.5 142.5t95.5 94.5t134 33 q79 0 139.5 -36t93 -97t32.5 -137q0 -81 -35.5 -142.5t-95.5 -94.5t-134 -33zM335 266q100 0 158.5 62t58.5 166t-58.5 166t-158.5 62t-158.5 -62t-58.5 -166t58.5 -166t158.5 -62z" />
<glyph unicode="&#xaa;" horiz-adv-x="396" d="M378 388l-8 -37h-87l4 37q-50 -44 -111 -44q-55 0 -86.5 36t-31.5 99q0 62 28 113t72.5 79.5t94.5 28.5q24 0 49.5 -10t43.5 -27l10 30h40l-66 -305h48zM189 386q24 0 53.5 14t52.5 36l41 189q-16 15 -39 24t-46 9q-40 0 -74 -25t-53 -64.5t-19 -84.5q0 -47 22 -72.5 t62 -25.5zM42 250l9 43h306l-9 -43h-306z" />
<glyph unicode="&#xab;" horiz-adv-x="403" d="M86 275l94 -168h-49l-97 173l163 173h57zM230 275l94 -168h-49l-97 173l163 173h57z" />
<glyph unicode="&#xac;" horiz-adv-x="600" d="M426 111l44 210h-383l10 46h431l-54 -256h-48z" />
<glyph unicode="&#xae;" horiz-adv-x="592" d="M335 224q-79 0 -139.5 36t-93 97t-32.5 137q0 81 35.5 142.5t95.5 94.5t134 33q79 0 139.5 -36t93 -97t32.5 -137q0 -81 -35.5 -142.5t-95.5 -94.5t-134 -33zM335 266q100 0 158.5 62t58.5 166t-58.5 166t-158.5 62t-158.5 -62t-58.5 -166t58.5 -166t158.5 -62zM237 643 h114q49 0 76 -24t27 -67q0 -31 -16.5 -54t-46.5 -32l72 -114h-56l-67 107h-56v-107h-47v291zM284 501h66q54 0 54 51q0 24 -14 36.5t-40 12.5h-66v-100z" />
<glyph unicode="&#xb0;" horiz-adv-x="322" d="M199 450q48 0 83 37.5t35 90.5q0 37 -21 59.5t-55 22.5q-48 0 -83 -37.5t-35 -90.5q0 -37 21 -59.5t55 -22.5zM193 410q-51 0 -83 33t-32 85q0 49 24 88.5t62.5 61.5t82.5 22q51 0 83 -33t32 -85q0 -49 -24 -88.5t-62.5 -61.5t-82.5 -22z" />
<glyph unicode="&#xb2;" d="M190 774q71 46 142 46q52 0 83.5 -26.5t31.5 -69.5q-1 -37 -21.5 -61t-55 -41t-75.5 -33q-36 -15 -59 -31t-37.5 -38t-23.5 -56h186l15 71h42l-24 -115h-275l4 20q14 72 50 113.5t107 71.5q63 27 83 39t28.5 25.5t8.5 33.5q0 23 -20.5 38.5t-53.5 15.5q-46 0 -99 -25 l-12 -59h-42z" />
<glyph unicode="&#xb3;" d="M251 410q-66 0 -121 35l19 90h42l-14 -68q36 -14 78 -14q53 0 84.5 23t31.5 61q0 31 -23.5 48.5t-65.5 17.5h-62l9 41h66q47 0 76.5 21t29.5 55q0 27 -21.5 42t-58.5 15q-39 0 -85 -16l-14 -68h-42l20 94q27 15 61.5 24t67.5 9q53 0 86 -26.5t33 -68.5q0 -38 -23.5 -64.5 t-66.5 -38.5q60 -23 60 -85q0 -55 -47.5 -91t-119.5 -36z" />
<glyph unicode="&#xb4;" horiz-adv-x="587" d="M270 611l122 139h73l-136 -139h-59z" />
<glyph unicode="&#xb6;" horiz-adv-x="552" d="M365 -110h-49l162 762h-86l-162 -762h-50l88 416q-87 2 -134 45.5t-47 122.5q0 64 33 117t89 81t128 28h285l-10 -46h-85z" />
<glyph unicode="&#xb7;" horiz-adv-x="183" d="M56 283q0 19 13.5 32t32.5 13q16 0 26 -9.5t10 -26.5q0 -18 -13.5 -31t-32.5 -13q-16 0 -26 9.5t-10 25.5z" />
<glyph unicode="&#xb8;" horiz-adv-x="587" d="M125 -164q35 -20 72 -20q29 0 47 13.5t18 35.5q0 18 -18 28.5t-49 10.5h-32l58 98h50l-38 -61q36 -4 55.5 -22t19.5 -48q0 -42 -30.5 -68.5t-80.5 -26.5q-54 0 -88 24z" />
<glyph unicode="&#xb9;" d="M171 699l171 111h41l-74 -346h102l-9 -44h-250l9 44h102l62 290l-136 -87z" />
<glyph unicode="&#xba;" horiz-adv-x="390" d="M55 250l9 43h275l-9 -43h-275zM217 386q40 0 74 24.5t53 63t19 82.5q0 46 -26 74t-69 28q-40 0 -74 -24.5t-53 -63t-19 -82.5q0 -46 26 -74t69 -28zM213 344q-62 0 -100 38.5t-38 102.5q0 60 28.5 109.5t73.5 77.5t95 28q62 0 100 -38.5t38 -102.5q0 -60 -28.5 -109.5 t-73.5 -77.5t-95 -28z" />
<glyph unicode="&#xbb;" horiz-adv-x="403" d="M181 285l-94 168h49l97 -173l-163 -173h-57zM325 285l-94 168h49l97 -173l-163 -173h-57z" />
<glyph unicode="&#xbc;" horiz-adv-x="913" d="M227 0l520 690h53l-520 -690h-53zM637 0l8 43h66l12 56h-219l8 38l278 253h39l-54 -250h68l-8 -41h-68l-12 -56h67l-9 -43h-176zM731 140l39 183l-201 -183h162zM146 579l171 111h41l-74 -346h102l-9 -44h-250l9 44h102l62 290l-136 -87z" />
<glyph unicode="&#xbd;" horiz-adv-x="913" d="M202 0l520 690h53l-520 -690h-53zM577 354q71 46 142 46q52 0 83.5 -26.5t31.5 -69.5q-1 -37 -21.5 -61t-55 -41t-75.5 -33q-36 -15 -59 -31t-37.5 -38t-23.5 -56h186l15 71h42l-24 -115h-275l4 20q14 72 50 113.5t107 71.5q63 27 83 39t28.5 25.5t8.5 33.5 q0 23 -20.5 38.5t-53.5 15.5q-46 0 -99 -25l-12 -59h-42zM146 579l171 111h41l-74 -346h102l-9 -44h-250l9 44h102l62 290l-136 -87z" />
<glyph unicode="&#xbe;" horiz-adv-x="913" d="M214 0l520 690h53l-520 -690h-53zM637 0l8 43h66l12 56h-219l8 38l278 253h39l-54 -250h68l-8 -41h-68l-12 -56h67l-9 -43h-176zM731 140l39 183l-201 -183h162zM226 290q-66 0 -121 35l19 90h42l-14 -68q36 -14 78 -14q53 0 84.5 23t31.5 61q0 31 -23.5 48.5t-65.5 17.5 h-62l9 41h66q47 0 76.5 21t29.5 55q0 27 -21.5 42t-58.5 15q-39 0 -85 -16l-14 -68h-42l20 94q27 15 61.5 24t67.5 9q53 0 86 -26.5t33 -68.5q0 -38 -23.5 -64.5t-66.5 -38.5q60 -23 60 -85q0 -55 -47.5 -91t-119.5 -36z" />
<glyph unicode="&#xbf;" horiz-adv-x="443" d="M351 -118q-45 -37 -97.5 -56t-106.5 -19q-76 0 -119 36.5t-43 100.5q0 49 31.5 93t99.5 92l18 13q53 38 75 67.5t32 74.5l8 38h47l-8 -38q-12 -56 -38.5 -93.5t-82.5 -77.5l-18 -13q-59 -42 -85.5 -78t-26.5 -75q0 -44 30.5 -69.5t83.5 -25.5q80 0 159 52l20 90h45z M334 491q0 -19 -13.5 -32t-32.5 -13q-16 0 -26 9.5t-10 26.5q0 18 13.5 31t32.5 13q16 0 26 -9.5t10 -25.5z" />
<glyph unicode="&#xc0;" horiz-adv-x="707" d="M330 700h143l103 -654h78l-10 -46h-206l10 46h74l-24 167h-310l-96 -167h77l-10 -46h-206l10 46h74l353 608h-70zM215 260h276l-56 385zM404 770l-87 109h72l69 -109h-54z" />
<glyph unicode="&#xc1;" horiz-adv-x="707" d="M330 700h143l103 -654h78l-10 -46h-206l10 46h74l-24 167h-310l-96 -167h77l-10 -46h-206l10 46h74l353 608h-70zM215 260h276l-56 385zM396 770l115 109h80l-133 -109h-62z" />
<glyph unicode="&#xc2;" horiz-adv-x="707" d="M330 700h143l103 -654h78l-10 -46h-206l10 46h74l-24 167h-310l-96 -167h77l-10 -46h-206l10 46h74l353 608h-70zM215 260h276l-56 385zM288 770l136 109h62l89 -109h-55l-69 70l-99 -70h-64z" />
<glyph unicode="&#xc3;" horiz-adv-x="707" d="M330 700h143l103 -654h78l-10 -46h-206l10 46h74l-24 167h-310l-96 -167h77l-10 -46h-206l10 46h74l353 608h-70zM215 260h276l-56 385zM288 770q8 51 32.5 81t59.5 30q21 0 37 -8t40 -31q21 -20 30.5 -26t22.5 -6q15 0 27 17.5t18 48.5h44q-8 -51 -32.5 -81t-59.5 -30 q-21 0 -37 8t-40 31q-21 20 -30.5 26t-22.5 6q-15 0 -27 -17.5t-18 -48.5h-44z" />
<glyph unicode="&#xc4;" horiz-adv-x="707" d="M330 700h143l103 -654h78l-10 -46h-206l10 46h74l-24 167h-310l-96 -167h77l-10 -46h-206l10 46h74l353 608h-70zM215 260h276l-56 385zM325 819q0 18 12.5 31t30.5 13q16 0 25.5 -9.5t9.5 -24.5q0 -18 -12.5 -31t-30.5 -13q-16 0 -25.5 9.5t-9.5 24.5zM483 819 q0 18 12.5 31t30.5 13q16 0 25.5 -9.5t9.5 -24.5q0 -18 -12.5 -31t-30.5 -13q-16 0 -25.5 9.5t-9.5 24.5z" />
<glyph unicode="&#xc5;" horiz-adv-x="707" d="M330 700h143l103 -654h78l-10 -46h-206l10 46h74l-24 167h-310l-96 -167h77l-10 -46h-206l10 46h74l353 608h-70zM215 260h276l-56 385zM350 843q0 47 32.5 79t79.5 32q40 0 64 -23.5t24 -63.5q0 -46 -32.5 -78.5t-79.5 -32.5q-40 0 -64 23.5t-24 63.5zM507 862 q0 24 -14 38.5t-36 14.5q-26 0 -45 -19.5t-19 -47.5q0 -24 14 -38.5t36 -14.5q26 0 45 19.5t19 47.5z" />
<glyph unicode="&#xc6;" horiz-adv-x="955" d="M470 700h529l-34 -160h-47l24 112h-296l-58 -274h287l-10 -48h-287l-60 -282h305l24 112h47l-34 -160h-483l10 46h79l39 187h-263l-152 -187h76l-10 -46h-206l10 46h70l496 608h-66zM515 280l80 372h-14l-301 -372h235z" />
<glyph unicode="&#xc7;" horiz-adv-x="625" d="M584 628q-39 18 -73 25.5t-73 7.5q-93 0 -167 -52t-114.5 -137.5t-40.5 -186.5q0 -116 58.5 -181t164.5 -65q75 0 139 31l26 125h47l-32 -154q-35 -23 -84.5 -37t-99.5 -14q-85 0 -146.5 36t-94 102t-32.5 153q0 122 53.5 221t140 153.5t186.5 54.5q51 0 102.5 -15 t91.5 -43l-31 -147h-47zM185 -162q32 -20 71 -20q29 0 46.5 13t17.5 34q0 38 -67 38h-32l58 99h51l-37 -60q75 -8 75 -71q0 -42 -31 -68.5t-81 -26.5q-54 0 -88 24z" />
<glyph unicode="&#xc8;" horiz-adv-x="573" d="M560 652h-301l-58 -274h292l-10 -48h-292l-60 -282h310l24 112h47l-34 -160h-488l10 46h79l129 608h-79l10 46h478l-34 -160h-47zM379 770l-87 109h72l69 -109h-54z" />
<glyph unicode="&#xc9;" horiz-adv-x="573" d="M560 652h-301l-58 -274h292l-10 -48h-292l-60 -282h310l24 112h47l-34 -160h-488l10 46h79l129 608h-79l10 46h478l-34 -160h-47zM371 770l115 109h80l-133 -109h-62z" />
<glyph unicode="&#xca;" horiz-adv-x="573" d="M560 652h-301l-58 -274h292l-10 -48h-292l-60 -282h310l24 112h47l-34 -160h-488l10 46h79l129 608h-79l10 46h478l-34 -160h-47zM263 770l136 109h62l89 -109h-55l-69 70l-99 -70h-64z" />
<glyph unicode="&#xcb;" horiz-adv-x="573" d="M560 652h-301l-58 -274h292l-10 -48h-292l-60 -282h310l24 112h47l-34 -160h-488l10 46h79l129 608h-79l10 46h478l-34 -160h-47zM300 819q0 18 12.5 31t30.5 13q16 0 25.5 -9.5t9.5 -24.5q0 -18 -12.5 -31t-30.5 -13q-16 0 -25.5 9.5t-9.5 24.5zM458 819q0 18 12.5 31 t30.5 13q16 0 25.5 -9.5t9.5 -24.5q0 -18 -12.5 -31t-30.5 -13q-16 0 -25.5 9.5t-9.5 24.5z" />
<glyph unicode="&#xcc;" horiz-adv-x="293" d="M0 46h79l129 608h-79l10 46h210l-10 -46h-79l-129 -608h79l-10 -46h-210zM223 770l-87 109h72l69 -109h-54z" />
<glyph unicode="&#xcd;" horiz-adv-x="293" d="M0 46h79l129 608h-79l10 46h210l-10 -46h-79l-129 -608h79l-10 -46h-210zM215 770l115 109h80l-133 -109h-62z" />
<glyph unicode="&#xce;" horiz-adv-x="293" d="M0 46h79l129 608h-79l10 46h210l-10 -46h-79l-129 -608h79l-10 -46h-210zM107 770l136 109h62l89 -109h-55l-69 70l-99 -70h-64z" />
<glyph unicode="&#xcf;" horiz-adv-x="293" d="M0 46h79l129 608h-79l10 46h210l-10 -46h-79l-129 -608h79l-10 -46h-210zM144 819q0 18 12.5 31t30.5 13q16 0 25.5 -9.5t9.5 -24.5q0 -18 -12.5 -31t-30.5 -13q-16 0 -25.5 9.5t-9.5 24.5zM302 819q0 18 12.5 31t30.5 13q16 0 25.5 -9.5t9.5 -24.5q0 -18 -12.5 -31 t-30.5 -13q-16 0 -25.5 9.5t-9.5 24.5z" />
<glyph unicode="&#xd0;" horiz-adv-x="727" d="M10 46h79l62 293h-90l9 43h90l58 272h-79l10 46h216q165 0 248.5 -73t83.5 -218q0 -119 -56.5 -214t-153.5 -145t-225 -50h-262zM269 652l-57 -270h140l-9 -43h-140l-62 -291h125q118 0 202 46.5t129.5 129t45.5 183.5q0 124 -70 184.5t-214 60.5h-90z" />
<glyph unicode="&#xd1;" horiz-adv-x="727" d="M579 700h210l-10 -46h-79l-139 -654h-51l-259 615l-121 -569h80l-10 -46h-210l10 46h79l129 608h-79l10 46h130l259 -615l121 569h-80zM327 770q8 51 32.5 81t59.5 30q21 0 37 -8t40 -31q21 -20 30.5 -26t22.5 -6q15 0 27 17.5t18 48.5h44q-8 -51 -32.5 -81t-59.5 -30 q-21 0 -37 8t-40 31q-21 20 -30.5 26t-22.5 6q-15 0 -27 -17.5t-18 -48.5h-44z" />
<glyph unicode="&#xd2;" horiz-adv-x="723" d="M421 661q-85 0 -155.5 -53t-110 -138.5t-39.5 -184.5q0 -111 59.5 -178.5t158.5 -67.5q85 0 155.5 53t110 138.5t39.5 184.5q0 111 -59.5 178.5t-158.5 67.5zM425 710q81 0 142 -38t93.5 -104t32.5 -149q0 -121 -51.5 -220t-134 -154t-177.5 -55q-81 0 -142 38t-93.5 104 t-32.5 149q0 121 51.5 220t134 154t177.5 55zM426 770l-87 109h72l69 -109h-54z" />
<glyph unicode="&#xd3;" horiz-adv-x="723" d="M421 661q-85 0 -155.5 -53t-110 -138.5t-39.5 -184.5q0 -111 59.5 -178.5t158.5 -67.5q85 0 155.5 53t110 138.5t39.5 184.5q0 111 -59.5 178.5t-158.5 67.5zM425 710q81 0 142 -38t93.5 -104t32.5 -149q0 -121 -51.5 -220t-134 -154t-177.5 -55q-81 0 -142 38t-93.5 104 t-32.5 149q0 121 51.5 220t134 154t177.5 55zM418 770l115 109h80l-133 -109h-62z" />
<glyph unicode="&#xd4;" horiz-adv-x="723" d="M421 661q-85 0 -155.5 -53t-110 -138.5t-39.5 -184.5q0 -111 59.5 -178.5t158.5 -67.5q85 0 155.5 53t110 138.5t39.5 184.5q0 111 -59.5 178.5t-158.5 67.5zM425 710q81 0 142 -38t93.5 -104t32.5 -149q0 -121 -51.5 -220t-134 -154t-177.5 -55q-81 0 -142 38t-93.5 104 t-32.5 149q0 121 51.5 220t134 154t177.5 55zM310 770l136 109h62l89 -109h-55l-69 70l-99 -70h-64z" />
<glyph unicode="&#xd5;" horiz-adv-x="723" d="M421 661q-85 0 -155.5 -53t-110 -138.5t-39.5 -184.5q0 -111 59.5 -178.5t158.5 -67.5q85 0 155.5 53t110 138.5t39.5 184.5q0 111 -59.5 178.5t-158.5 67.5zM425 710q81 0 142 -38t93.5 -104t32.5 -149q0 -121 -51.5 -220t-134 -154t-177.5 -55q-81 0 -142 38t-93.5 104 t-32.5 149q0 121 51.5 220t134 154t177.5 55zM310 770q8 51 32.5 81t59.5 30q21 0 37 -8t40 -31q21 -20 30.5 -26t22.5 -6q15 0 27 17.5t18 48.5h44q-8 -51 -32.5 -81t-59.5 -30q-21 0 -37 8t-40 31q-21 20 -30.5 26t-22.5 6q-15 0 -27 -17.5t-18 -48.5h-44z" />
<glyph unicode="&#xd6;" horiz-adv-x="723" d="M421 661q-85 0 -155.5 -53t-110 -138.5t-39.5 -184.5q0 -111 59.5 -178.5t158.5 -67.5q85 0 155.5 53t110 138.5t39.5 184.5q0 111 -59.5 178.5t-158.5 67.5zM425 710q81 0 142 -38t93.5 -104t32.5 -149q0 -121 -51.5 -220t-134 -154t-177.5 -55q-81 0 -142 38t-93.5 104 t-32.5 149q0 121 51.5 220t134 154t177.5 55zM347 819q0 18 12.5 31t30.5 13q16 0 25.5 -9.5t9.5 -24.5q0 -18 -12.5 -31t-30.5 -13q-16 0 -25.5 9.5t-9.5 24.5zM505 819q0 18 12.5 31t30.5 13q16 0 25.5 -9.5t9.5 -24.5q0 -18 -12.5 -31t-30.5 -13q-16 0 -25.5 9.5 t-9.5 24.5z" />
<glyph unicode="&#xd7;" horiz-adv-x="600" d="M308 310l-197 -169l-28 35l198 170l-132 179l35 29l131 -179l197 169l28 -35l-198 -170l132 -179l-35 -29z" />
<glyph unicode="&#xd8;" horiz-adv-x="723" d="M0 21l101 97q-39 72 -39 163q0 121 51.5 220t134 154t177.5 55q61 0 112.5 -22.5t88.5 -65.5l97 93l32 -36l-101 -97q39 -72 39 -163q0 -121 -51.5 -220t-134 -154t-177.5 -55q-61 0 -112.5 22.5t-88.5 65.5l-97 -93zM116 285q0 -72 26 -127l445 426q-30 38 -72.5 57.5 t-93.5 19.5q-85 0 -155.5 -53t-110 -138.5t-39.5 -184.5zM334 39q85 0 155.5 53t110 138.5t39.5 184.5q0 72 -26 127l-445 -426q30 -38 72.5 -57.5t93.5 -19.5z" />
<glyph unicode="&#xd9;" horiz-adv-x="711" d="M121 700h210l-10 -46h-79l-70 -330q-17 -79 -17 -135q0 -71 42 -110.5t118 -39.5q90 0 146 58t81 176l81 381h-79l10 46h210l-10 -46h-79l-82 -387q-30 -142 -98.5 -209.5t-181.5 -67.5q-98 0 -154.5 52.5t-56.5 143.5q0 56 18 139l70 329h-79zM421 770l-87 109h72 l69 -109h-54z" />
<glyph unicode="&#xda;" horiz-adv-x="711" d="M121 700h210l-10 -46h-79l-70 -330q-17 -79 -17 -135q0 -71 42 -110.5t118 -39.5q90 0 146 58t81 176l81 381h-79l10 46h210l-10 -46h-79l-82 -387q-30 -142 -98.5 -209.5t-181.5 -67.5q-98 0 -154.5 52.5t-56.5 143.5q0 56 18 139l70 329h-79zM413 770l115 109h80 l-133 -109h-62z" />
<glyph unicode="&#xdb;" horiz-adv-x="711" d="M121 700h210l-10 -46h-79l-70 -330q-17 -79 -17 -135q0 -71 42 -110.5t118 -39.5q90 0 146 58t81 176l81 381h-79l10 46h210l-10 -46h-79l-82 -387q-30 -142 -98.5 -209.5t-181.5 -67.5q-98 0 -154.5 52.5t-56.5 143.5q0 56 18 139l70 329h-79zM305 770l136 109h62 l89 -109h-55l-69 70l-99 -70h-64z" />
<glyph unicode="&#xdc;" horiz-adv-x="711" d="M121 700h210l-10 -46h-79l-70 -330q-17 -79 -17 -135q0 -71 42 -110.5t118 -39.5q90 0 146 58t81 176l81 381h-79l10 46h210l-10 -46h-79l-82 -387q-30 -142 -98.5 -209.5t-181.5 -67.5q-98 0 -154.5 52.5t-56.5 143.5q0 56 18 139l70 329h-79zM342 819q0 18 12.5 31 t30.5 13q16 0 25.5 -9.5t9.5 -24.5q0 -18 -12.5 -31t-30.5 -13q-16 0 -25.5 9.5t-9.5 24.5zM500 819q0 18 12.5 31t30.5 13q16 0 25.5 -9.5t9.5 -24.5q0 -18 -12.5 -31t-30.5 -13q-16 0 -25.5 9.5t-9.5 24.5z" />
<glyph unicode="&#xdd;" horiz-adv-x="625" d="M153 46h89l51 243l-130 365h-76l10 46h210l-10 -46h-79l110 -321l246 321h-75l10 46h210l-10 -46h-74l-290 -366l-51 -242h89l-10 -46h-230zM377 770l115 109h80l-133 -109h-62z" />
<glyph unicode="&#xde;" horiz-adv-x="611" d="M0 46h79l129 608h-79l10 46h210l-10 -46h-79l-18 -86h135q101 0 154 -47t53 -136q0 -71 -35 -127.5t-95.5 -86.5t-140.5 -30h-162l-20 -95h79l-10 -46h-210zM231 520l-70 -331h159q66 0 113 24.5t72 68.5t25 99q0 139 -156 139h-143z" />
<glyph unicode="&#xdf;" horiz-adv-x="604" d="M-13 41h68l93 435q19 90 57.5 154t92.5 97t119 33q80 0 129 -45t49 -119q0 -79 -49.5 -136.5t-130.5 -72.5q62 -16 96.5 -61t34.5 -109q0 -66 -33 -118t-88 -80.5t-122 -28.5q-70 0 -130 40l18 38q55 -33 114 -33q55 0 98.5 24.5t67.5 66t24 91.5q0 70 -47.5 110 t-130.5 40h-40l9 42h41q98 0 157.5 50.5t59.5 133.5q0 56 -36 89t-98 33q-78 0 -133 -63t-80 -180l-100 -472h-119z" />
<glyph unicode="&#xe0;" horiz-adv-x="576" d="M487 0h-111l8 68q-81 -78 -173 -78q-79 0 -124.5 55t-45.5 152q0 92 40.5 168.5t105.5 118.5t140 42q41 0 78 -16t64 -45l17 51h42l-102 -475h70zM223 35q41 0 86.5 23.5t84.5 64.5l64 300q-25 27 -60.5 42.5t-73.5 15.5q-67 0 -120 -39t-82.5 -102.5t-29.5 -137.5 q0 -82 33.5 -124.5t97.5 -42.5zM311 611l-76 139h64l63 -139h-51z" />
<glyph unicode="&#xe1;" horiz-adv-x="576" d="M487 0h-111l8 68q-81 -78 -173 -78q-79 0 -124.5 55t-45.5 152q0 92 40.5 168.5t105.5 118.5t140 42q41 0 78 -16t64 -45l17 51h42l-102 -475h70zM223 35q41 0 86.5 23.5t84.5 64.5l64 300q-25 27 -60.5 42.5t-73.5 15.5q-67 0 -120 -39t-82.5 -102.5t-29.5 -137.5 q0 -82 33.5 -124.5t97.5 -42.5zM302 611l122 139h73l-136 -139h-59z" />
<glyph unicode="&#xe2;" horiz-adv-x="576" d="M487 0h-111l8 68q-81 -78 -173 -78q-79 0 -124.5 55t-45.5 152q0 92 40.5 168.5t105.5 118.5t140 42q41 0 78 -16t64 -45l17 51h42l-102 -475h70zM223 35q41 0 86.5 23.5t84.5 64.5l64 300q-25 27 -60.5 42.5t-73.5 15.5q-67 0 -120 -39t-82.5 -102.5t-29.5 -137.5 q0 -82 33.5 -124.5t97.5 -42.5zM202 611l135 139h56l77 -139h-49l-61 96l-102 -96h-56z" />
<glyph unicode="&#xe3;" horiz-adv-x="576" d="M487 0h-111l8 68q-81 -78 -173 -78q-79 0 -124.5 55t-45.5 152q0 92 40.5 168.5t105.5 118.5t140 42q41 0 78 -16t64 -45l17 51h42l-102 -475h70zM223 35q41 0 86.5 23.5t84.5 64.5l64 300q-25 27 -60.5 42.5t-73.5 15.5q-67 0 -120 -39t-82.5 -102.5t-29.5 -137.5 q0 -82 33.5 -124.5t97.5 -42.5zM410 619q-19 0 -34.5 8t-37.5 31q-20 21 -28.5 26.5t-19.5 5.5q-16 0 -29 -18t-18 -48h-42q9 52 33.5 81t58.5 29q19 0 34.5 -8t37.5 -31q20 -21 28.5 -26.5t19.5 -5.5q16 0 29 18t18 48h42q-9 -52 -33.5 -81t-58.5 -29z" />
<glyph unicode="&#xe4;" horiz-adv-x="576" d="M487 0h-111l8 68q-81 -78 -173 -78q-79 0 -124.5 55t-45.5 152q0 92 40.5 168.5t105.5 118.5t140 42q41 0 78 -16t64 -45l17 51h42l-102 -475h70zM223 35q41 0 86.5 23.5t84.5 64.5l64 300q-25 27 -60.5 42.5t-73.5 15.5q-67 0 -120 -39t-82.5 -102.5t-29.5 -137.5 q0 -82 33.5 -124.5t97.5 -42.5zM238 677q0 18 13 29t32 11q14 0 23 -9t9 -22q0 -18 -13 -29t-32 -11q-14 0 -23 9t-9 22zM389 677q0 18 13 29t32 11q14 0 23 -9t9 -22q0 -18 -13 -29t-32 -11q-14 0 -23 9t-9 22z" />
<glyph unicode="&#xe5;" horiz-adv-x="576" d="M487 0h-111l8 68q-81 -78 -173 -78q-79 0 -124.5 55t-45.5 152q0 92 40.5 168.5t105.5 118.5t140 42q41 0 78 -16t64 -45l17 51h42l-102 -475h70zM223 35q41 0 86.5 23.5t84.5 64.5l64 300q-25 27 -60.5 42.5t-73.5 15.5q-67 0 -120 -39t-82.5 -102.5t-29.5 -137.5 q0 -82 33.5 -124.5t97.5 -42.5zM254 674q0 46 32.5 78t78.5 32q39 0 63 -23.5t24 -62.5q0 -46 -32.5 -78t-78.5 -32q-39 0 -63 23.5t-24 62.5zM410 693q0 24 -13.5 39t-36.5 15q-27 0 -45.5 -19.5t-18.5 -48.5q0 -24 13.5 -39t36.5 -15q27 0 45.5 19.5t18.5 48.5z" />
<glyph unicode="&#xe6;" horiz-adv-x="887" d="M384 68q-81 -78 -173 -78q-79 0 -124.5 55t-45.5 152q0 92 40.5 168.5t105.5 118.5t140 42q41 0 78 -16t64 -45l17 51h42l-19 -90q39 47 93.5 73.5t113.5 26.5q64 0 101.5 -33.5t37.5 -90.5q0 -83 -90.5 -132.5t-243.5 -49.5q-24 0 -55 3q-1 -10 -1 -17 q0 -80 41.5 -125.5t113.5 -45.5q83 0 158 57l13 -40q-75 -62 -177 -62q-63 0 -108.5 29.5t-65.5 83.5l-22 -103h-42zM223 35q41 0 86.5 23.5t84.5 64.5l64 300q-25 27 -60.5 42.5t-73.5 15.5q-67 0 -120 -39t-82.5 -102.5t-29.5 -137.5q0 -82 33.5 -124.5t97.5 -42.5z M711 481q-58 0 -109 -29.5t-85 -78.5t-46 -109q22 -2 44 -2q87 0 153 17.5t101 48t35 69.5t-25 61.5t-68 22.5z" />
<glyph unicode="&#xe7;" horiz-adv-x="488" d="M419 464q-39 17 -87 17q-66 0 -121.5 -40t-87 -102.5t-31.5 -132.5q0 -82 39.5 -126.5t112.5 -44.5q71 0 146 57l13 -40q-32 -29 -76 -45.5t-89 -16.5q-96 0 -146.5 55t-50.5 160q0 89 43.5 163.5t111 116t142.5 41.5q74 0 132 -35l-24 -112h-45zM103 -164q35 -20 72 -20 q29 0 47 13.5t18 35.5q0 18 -18 28.5t-49 10.5h-32l58 98h50l-38 -61q36 -4 55.5 -22t19.5 -48q0 -42 -30.5 -68.5t-80.5 -26.5q-54 0 -88 24z" />
<glyph unicode="&#xe8;" horiz-adv-x="514" d="M241 -10q-95 0 -147.5 56t-52.5 159q0 88 44 162.5t113 116.5t145 42q64 0 101.5 -33.5t37.5 -90.5q0 -83 -90.5 -132.5t-243.5 -49.5q-24 0 -55 3q-1 -10 -1 -17q0 -80 41.5 -125.5t113.5 -45.5q83 0 158 57l13 -40q-75 -62 -177 -62zM338 481q-58 0 -109 -29.5 t-85 -78.5t-46 -109q22 -2 44 -2q87 0 153 17.5t101 48t35 69.5t-25 61.5t-68 22.5zM310 611l-76 139h64l63 -139h-51z" />
<glyph unicode="&#xe9;" horiz-adv-x="514" d="M241 -10q-95 0 -147.5 56t-52.5 159q0 88 44 162.5t113 116.5t145 42q64 0 101.5 -33.5t37.5 -90.5q0 -83 -90.5 -132.5t-243.5 -49.5q-24 0 -55 3q-1 -10 -1 -17q0 -80 41.5 -125.5t113.5 -45.5q83 0 158 57l13 -40q-75 -62 -177 -62zM338 481q-58 0 -109 -29.5 t-85 -78.5t-46 -109q22 -2 44 -2q87 0 153 17.5t101 48t35 69.5t-25 61.5t-68 22.5zM301 611l122 139h73l-136 -139h-59z" />
<glyph unicode="&#xea;" horiz-adv-x="514" d="M241 -10q-95 0 -147.5 56t-52.5 159q0 88 44 162.5t113 116.5t145 42q64 0 101.5 -33.5t37.5 -90.5q0 -83 -90.5 -132.5t-243.5 -49.5q-24 0 -55 3q-1 -10 -1 -17q0 -80 41.5 -125.5t113.5 -45.5q83 0 158 57l13 -40q-75 -62 -177 -62zM338 481q-58 0 -109 -29.5 t-85 -78.5t-46 -109q22 -2 44 -2q87 0 153 17.5t101 48t35 69.5t-25 61.5t-68 22.5zM201 611l135 139h56l77 -139h-49l-61 96l-102 -96h-56z" />
<glyph unicode="&#xeb;" horiz-adv-x="514" d="M241 -10q-95 0 -147.5 56t-52.5 159q0 88 44 162.5t113 116.5t145 42q64 0 101.5 -33.5t37.5 -90.5q0 -83 -90.5 -132.5t-243.5 -49.5q-24 0 -55 3q-1 -10 -1 -17q0 -80 41.5 -125.5t113.5 -45.5q83 0 158 57l13 -40q-75 -62 -177 -62zM338 481q-58 0 -109 -29.5 t-85 -78.5t-46 -109q22 -2 44 -2q87 0 153 17.5t101 48t35 69.5t-25 61.5t-68 22.5zM237 677q0 18 13 29t32 11q14 0 23 -9t9 -22q0 -18 -13 -29t-32 -11q-14 0 -23 9t-9 22zM388 677q0 18 13 29t32 11q14 0 23 -9t9 -22q0 -18 -13 -29t-32 -11q-14 0 -23 9t-9 22z" />
<glyph unicode="&#xec;" horiz-adv-x="255" d="M78 516h129l-102 -475h70l-9 -41h-188l9 41h68l93 434h-79zM158 611l-76 139h64l63 -139h-51z" />
<glyph unicode="&#xed;" horiz-adv-x="255" d="M78 516h129l-102 -475h70l-9 -41h-188l9 41h68l93 434h-79zM149 611l122 139h73l-136 -139h-59z" />
<glyph unicode="&#xee;" horiz-adv-x="255" d="M78 516h129l-102 -475h70l-9 -41h-188l9 41h68l93 434h-79zM49 611l135 139h56l77 -139h-49l-61 96l-102 -96h-56z" />
<glyph unicode="&#xef;" horiz-adv-x="255" d="M78 516h129l-102 -475h70l-9 -41h-188l9 41h68l93 434h-79zM85 677q0 18 13 29t32 11q14 0 23 -9t9 -22q0 -18 -13 -29t-32 -11q-14 0 -23 9t-9 22zM236 677q0 18 13 29t32 11q14 0 23 -9t9 -22q0 -18 -13 -29t-32 -11q-14 0 -23 9t-9 22z" />
<glyph unicode="&#xf0;" horiz-adv-x="559" d="M533 739l-114 -78q107 -107 107 -282q0 -117 -38.5 -204.5t-104 -136t-144.5 -48.5q-61 0 -106 26.5t-69.5 73t-24.5 105.5q0 88 39 159.5t101.5 111.5t131.5 40q59 0 105 -29t65 -79q-3 145 -99 238l-139 -95l-22 34l129 88q-53 39 -115 64l18 37q78 -30 135 -75l123 84 zM242 35q61 0 113 38.5t81 99t29 128.5q0 71 -43 115.5t-115 44.5q-60 0 -110.5 -37.5t-78.5 -97.5t-28 -130q0 -47 19.5 -84t54 -57t78.5 -20z" />
<glyph unicode="&#xf1;" horiz-adv-x="587" d="M78 516h121l-9 -70q92 80 196 80q66 0 101 -33.5t35 -97.5q0 -20 -3.5 -42.5t-12.5 -66.5l-53 -245h70l-9 -41h-188l9 41h68l54 250q13 62 13 95q0 48 -24.5 70.5t-78.5 22.5q-45 0 -93 -22t-93 -63l-76 -353h70l-9 -41h-188l9 41h68l93 434h-79zM441 619q-19 0 -34.5 8 t-37.5 31q-20 21 -28.5 26.5t-19.5 5.5q-16 0 -29 -18t-18 -48h-42q9 52 33.5 81t58.5 29q19 0 34.5 -8t37.5 -31q20 -21 28.5 -26.5t19.5 -5.5q16 0 29 18t18 48h42q-9 -52 -33.5 -81t-58.5 -29z" />
<glyph unicode="&#xf2;" horiz-adv-x="560" d="M519 311q0 -90 -40.5 -164.5t-104.5 -115.5t-136 -41q-60 0 -105 27t-68.5 75.5t-23.5 112.5q0 90 40.5 164.5t104.5 115.5t136 41q60 0 105 -27t68.5 -75.5t23.5 -112.5zM242 35q63 0 115.5 39t81.5 101t29 135q0 79 -40.5 125t-109.5 46q-63 0 -115.5 -39t-81.5 -101 t-29 -135q0 -79 40.5 -125t109.5 -46zM321 611l-76 139h64l63 -139h-51z" />
<glyph unicode="&#xf3;" horiz-adv-x="560" d="M519 311q0 -90 -40.5 -164.5t-104.5 -115.5t-136 -41q-60 0 -105 27t-68.5 75.5t-23.5 112.5q0 90 40.5 164.5t104.5 115.5t136 41q60 0 105 -27t68.5 -75.5t23.5 -112.5zM242 35q63 0 115.5 39t81.5 101t29 135q0 79 -40.5 125t-109.5 46q-63 0 -115.5 -39t-81.5 -101 t-29 -135q0 -79 40.5 -125t109.5 -46zM312 611l122 139h73l-136 -139h-59z" />
<glyph unicode="&#xf4;" horiz-adv-x="560" d="M519 311q0 -90 -40.5 -164.5t-104.5 -115.5t-136 -41q-60 0 -105 27t-68.5 75.5t-23.5 112.5q0 90 40.5 164.5t104.5 115.5t136 41q60 0 105 -27t68.5 -75.5t23.5 -112.5zM242 35q63 0 115.5 39t81.5 101t29 135q0 79 -40.5 125t-109.5 46q-63 0 -115.5 -39t-81.5 -101 t-29 -135q0 -79 40.5 -125t109.5 -46zM212 611l135 139h56l77 -139h-49l-61 96l-102 -96h-56z" />
<glyph unicode="&#xf5;" horiz-adv-x="560" d="M519 311q0 -90 -40.5 -164.5t-104.5 -115.5t-136 -41q-60 0 -105 27t-68.5 75.5t-23.5 112.5q0 90 40.5 164.5t104.5 115.5t136 41q60 0 105 -27t68.5 -75.5t23.5 -112.5zM242 35q63 0 115.5 39t81.5 101t29 135q0 79 -40.5 125t-109.5 46q-63 0 -115.5 -39t-81.5 -101 t-29 -135q0 -79 40.5 -125t109.5 -46zM420 619q-19 0 -34.5 8t-37.5 31q-20 21 -28.5 26.5t-19.5 5.5q-16 0 -29 -18t-18 -48h-42q9 52 33.5 81t58.5 29q19 0 34.5 -8t37.5 -31q20 -21 28.5 -26.5t19.5 -5.5q16 0 29 18t18 48h42q-9 -52 -33.5 -81t-58.5 -29z" />
<glyph unicode="&#xf6;" horiz-adv-x="560" d="M519 311q0 -90 -40.5 -164.5t-104.5 -115.5t-136 -41q-60 0 -105 27t-68.5 75.5t-23.5 112.5q0 90 40.5 164.5t104.5 115.5t136 41q60 0 105 -27t68.5 -75.5t23.5 -112.5zM242 35q63 0 115.5 39t81.5 101t29 135q0 79 -40.5 125t-109.5 46q-63 0 -115.5 -39t-81.5 -101 t-29 -135q0 -79 40.5 -125t109.5 -46zM248 677q0 18 13 29t32 11q14 0 23 -9t9 -22q0 -18 -13 -29t-32 -11q-14 0 -23 9t-9 22zM399 677q0 18 13 29t32 11q14 0 23 -9t9 -22q0 -18 -13 -29t-32 -11q-14 0 -23 9t-9 22z" />
<glyph unicode="&#xf7;" horiz-adv-x="600" d="M275 131q-16 0 -26 9.5t-10 25.5q0 19 13.5 32t32.5 13q16 0 26 -9.5t10 -26.5q0 -18 -13.5 -31t-32.5 -13zM528 321h-431l10 46h431zM350 477q-16 0 -26 9.5t-10 26.5q0 18 13.5 31t32.5 13q16 0 26 -9.5t10 -25.5q0 -19 -13.5 -32t-32.5 -13z" />
<glyph unicode="&#xf8;" horiz-adv-x="560" d="M564 499l-72 -69q27 -48 27 -119q0 -90 -40.5 -164.5t-104.5 -115.5t-136 -41q-88 0 -143 58l-66 -63l-33 32l72 69q-27 48 -27 119q0 90 40.5 164.5t104.5 115.5t136 41q88 0 143 -58l66 63zM242 35q63 0 115.5 39t81.5 101t29 135q0 47 -15 83l-322 -310 q20 -23 48.5 -35.5t62.5 -12.5zM92 206q0 -47 15 -83l322 310q-40 48 -111 48q-63 0 -115.5 -39t-81.5 -101t-29 -135z" />
<glyph unicode="&#xf9;" horiz-adv-x="577" d="M400 516h129l-102 -475h70l-9 -41h-111l8 70q-91 -80 -193 -80q-65 0 -99.5 34t-34.5 97q0 20 3.5 42.5t12.5 66.5l52 245h-79l9 41h129l-62 -291q-13 -62 -13 -95q0 -48 24.5 -70.5t76.5 -22.5q44 0 91.5 22t92.5 62l75 354h-79zM318 611l-76 139h64l63 -139h-51z" />
<glyph unicode="&#xfa;" horiz-adv-x="577" d="M400 516h129l-102 -475h70l-9 -41h-111l8 70q-91 -80 -193 -80q-65 0 -99.5 34t-34.5 97q0 20 3.5 42.5t12.5 66.5l52 245h-79l9 41h129l-62 -291q-13 -62 -13 -95q0 -48 24.5 -70.5t76.5 -22.5q44 0 91.5 22t92.5 62l75 354h-79zM309 611l122 139h73l-136 -139h-59z" />
<glyph unicode="&#xfb;" horiz-adv-x="577" d="M400 516h129l-102 -475h70l-9 -41h-111l8 70q-91 -80 -193 -80q-65 0 -99.5 34t-34.5 97q0 20 3.5 42.5t12.5 66.5l52 245h-79l9 41h129l-62 -291q-13 -62 -13 -95q0 -48 24.5 -70.5t76.5 -22.5q44 0 91.5 22t92.5 62l75 354h-79zM209 611l135 139h56l77 -139h-49l-61 96 l-102 -96h-56z" />
<glyph unicode="&#xfc;" horiz-adv-x="577" d="M400 516h129l-102 -475h70l-9 -41h-111l8 70q-91 -80 -193 -80q-65 0 -99.5 34t-34.5 97q0 20 3.5 42.5t12.5 66.5l52 245h-79l9 41h129l-62 -291q-13 -62 -13 -95q0 -48 24.5 -70.5t76.5 -22.5q44 0 91.5 22t92.5 62l75 354h-79zM245 677q0 18 13 29t32 11q14 0 23 -9 t9 -22q0 -18 -13 -29t-32 -11q-14 0 -23 9t-9 22zM396 677q0 18 13 29t32 11q14 0 23 -9t9 -22q0 -18 -13 -29t-32 -11q-14 0 -23 9t-9 22z" />
<glyph unicode="&#xfd;" horiz-adv-x="564" d="M403 516h184l-9 -41h-61l-285 -481q-51 -85 -85.5 -132t-64.5 -67.5t-68 -20.5q-18 0 -36.5 5.5t-31.5 15.5l18 39q25 -15 50 -15q37 0 71.5 33t86.5 122l19 34l-81 467h-65l9 41h183l-9 -41h-68l67 -410l235 410h-68zM297 611l122 139h73l-136 -139h-59z" />
<glyph unicode="&#xfe;" horiz-adv-x="567" d="M120 750h129l-64 -295q80 71 171 71q79 0 124.5 -55t45.5 -152q0 -93 -40 -169t-104.5 -118t-141.5 -42q-40 0 -77 15t-64 43l-48 -223h80l-9 -41h-198l9 41h68l189 884h-79zM344 481q-90 0 -170 -83l-65 -305q24 -27 60 -42.5t74 -15.5q67 0 120 39t82.5 102.5 t29.5 137.5q0 82 -33.5 124.5t-97.5 42.5z" />
<glyph unicode="&#xff;" horiz-adv-x="564" d="M403 516h184l-9 -41h-61l-285 -481q-51 -85 -85.5 -132t-64.5 -67.5t-68 -20.5q-18 0 -36.5 5.5t-31.5 15.5l18 39q25 -15 50 -15q37 0 71.5 33t86.5 122l19 34l-81 467h-65l9 41h183l-9 -41h-68l67 -410l235 410h-68zM233 677q0 18 13 29t32 11q14 0 23 -9t9 -22 q0 -18 -13 -29t-32 -11q-14 0 -23 9t-9 22zM384 677q0 18 13 29t32 11q14 0 23 -9t9 -22q0 -18 -13 -29t-32 -11q-14 0 -23 9t-9 22z" />
<glyph unicode="&#x102;" horiz-adv-x="707" d="M330 700h143l103 -654h78l-10 -46h-206l10 46h74l-24 167h-310l-96 -167h77l-10 -46h-206l10 46h74l353 608h-70zM215 260h276l-56 385zM435 765q-52 0 -81.5 25t-29.5 68q0 5 0.5 10t1.5 10h42v-4q0 -33 17 -49t54 -16q36 0 61 18.5t33 50.5h42q-9 -50 -48.5 -81.5 t-91.5 -31.5z" />
<glyph unicode="&#x103;" horiz-adv-x="576" d="M487 0h-111l8 68q-81 -78 -173 -78q-79 0 -124.5 55t-45.5 152q0 92 40.5 168.5t105.5 118.5t140 42q41 0 78 -16t64 -45l17 51h42l-102 -475h70zM223 35q41 0 86.5 23.5t84.5 64.5l64 300q-25 27 -60.5 42.5t-73.5 15.5q-67 0 -120 -39t-82.5 -102.5t-29.5 -137.5 q0 -82 33.5 -124.5t97.5 -42.5zM339 608q-48 0 -76.5 26.5t-28.5 69.5q0 11 1 17h42v-8q0 -61 66 -61q33 0 57 18.5t32 50.5h42q-9 -49 -47 -81t-88 -32z" />
<glyph unicode="&#x131;" horiz-adv-x="255" d="M78 516h129l-102 -475h70l-9 -41h-188l9 41h68l93 434h-79z" />
<glyph unicode="&#x132;" horiz-adv-x="716" d="M0 46h79l129 608h-79l10 46h210l-10 -46h-79l-129 -608h79l-10 -46h-210zM532 700h195l-105 -493q-24 -113 -73.5 -165t-134.5 -52q-34 0 -69.5 12t-61.5 31l21 42q55 -36 112 -36q64 0 100 41.5t56 135.5l93 438h-143z" />
<glyph unicode="&#x133;" horiz-adv-x="492" d="M78 516h129l-102 -475h70l-9 -41h-188l9 41h68l93 434h-79zM165 677q0 18 13 29t32 11q14 0 23 -9t9 -22q0 -18 -13 -29t-32 -11q-14 0 -23 9t-9 22zM325 516h129l-125 -586q-17 -80 -51.5 -118t-92.5 -38q-18 0 -37 5t-30 12l16 41q25 -13 53 -13q35 0 57.5 28t35.5 87 l115 541h-79zM412 677q0 18 13 29t32 11q14 0 23 -9t9 -22q0 -18 -13 -29t-32 -11q-14 0 -23 9t-9 22z" />
<glyph unicode="&#x152;" horiz-adv-x="1058" d="M587 135q-44 -66 -112.5 -105.5t-144.5 -39.5q-81 0 -142 38t-93.5 104t-32.5 149q0 121 51.5 220t134 154t177.5 55q90 0 157.5 -54.5t85.5 -141.5l40 186h394l-34 -160h-47l24 112h-296l-58 -274h287l-10 -48h-287l-60 -282h305l24 112h47l-34 -160h-404zM421 661 q-85 0 -155.5 -53t-110 -138.5t-39.5 -184.5q0 -111 59.5 -178.5t158.5 -67.5q85 0 155.5 53t110 138.5t39.5 184.5q0 111 -59.5 178.5t-158.5 67.5z" />
<glyph unicode="&#x153;" horiz-adv-x="932" d="M659 -10q-75 0 -123.5 37.5t-66.5 109.5q-38 -69 -99.5 -108t-131.5 -39q-60 0 -105 27t-68.5 75.5t-23.5 112.5q0 90 40.5 164.5t104.5 115.5t136 41q75 0 123.5 -42t61.5 -118q40 74 108.5 117t145.5 43q64 0 101.5 -33.5t37.5 -90.5q0 -83 -90.5 -132.5t-243.5 -49.5 q-24 0 -55 3q-1 -10 -1 -17q0 -80 41.5 -125.5t113.5 -45.5q83 0 158 57l13 -40q-75 -62 -177 -62zM242 35q63 0 115.5 39t81.5 101t29 135q0 79 -40.5 125t-109.5 46q-63 0 -115.5 -39t-81.5 -101t-29 -135q0 -79 40.5 -125t109.5 -46zM756 481q-58 0 -109 -29.5t-85 -78.5 t-46 -109q22 -2 44 -2q87 0 153 17.5t101 48t35 69.5t-25 61.5t-68 22.5z" />
<glyph unicode="&#x15e;" horiz-adv-x="578" d="M512 633q-37 15 -71.5 21.5t-79.5 6.5q-80 0 -128 -38t-48 -100q0 -42 24 -69.5t82 -55.5l34 -16q98 -46 134 -88.5t36 -103.5q0 -58 -33.5 -104.5t-90 -71t-129.5 -24.5q-125 0 -220 59l33 156h47l-27 -129q77 -37 169 -37q61 0 105 19.5t68 54t24 75.5q0 48 -27.5 78.5 t-115.5 71.5l-34 16q-73 34 -103 73t-30 94q0 56 30 99t82.5 66.5t118.5 23.5q116 0 204 -49l-32 -148h-47zM113 -162q32 -20 71 -20q29 0 46.5 13t17.5 34q0 38 -67 38h-32l58 99h51l-37 -60q75 -8 75 -71q0 -42 -31 -68.5t-81 -26.5q-54 0 -88 24z" />
<glyph unicode="&#x15f;" horiz-adv-x="451" d="M370 462q-51 19 -101 19q-61 0 -98.5 -27t-37.5 -71q0 -29 18.5 -49t63.5 -39l28 -12q74 -32 102.5 -62.5t28.5 -78.5q0 -66 -52.5 -109t-135.5 -43q-90 0 -174 48l21 100h45l-16 -74q63 -29 125 -29t99 28t37 74q0 35 -22 57t-82 48l-28 12q-59 25 -84 54.5t-25 72.5 q0 42 25.5 75.5t68.5 51.5t96 18q85 0 149 -35l-23 -108h-45zM55 -164q35 -20 72 -20q29 0 47 13.5t18 35.5q0 18 -18 28.5t-49 10.5h-32l58 98h50l-38 -61q36 -4 55.5 -22t19.5 -48q0 -42 -30.5 -68.5t-80.5 -26.5q-54 0 -88 24z" />
<glyph unicode="&#x160;" horiz-adv-x="578" d="M512 633q-37 15 -71.5 21.5t-79.5 6.5q-80 0 -128 -38t-48 -100q0 -42 24 -69.5t82 -55.5l34 -16q98 -46 134 -88.5t36 -103.5q0 -58 -33.5 -104.5t-90 -71t-129.5 -24.5q-125 0 -220 59l33 156h47l-27 -129q77 -37 169 -37q61 0 105 19.5t68 54t24 75.5q0 48 -27.5 78.5 t-115.5 71.5l-34 16q-73 34 -103 73t-30 94q0 56 30 99t82.5 66.5t118.5 23.5q116 0 204 -49l-32 -148h-47zM553 879l-136 -109h-62l-89 109h55l69 -71l99 71h64z" />
<glyph unicode="&#x161;" horiz-adv-x="451" d="M370 462q-51 19 -101 19q-61 0 -98.5 -27t-37.5 -71q0 -29 18.5 -49t63.5 -39l28 -12q74 -32 102.5 -62.5t28.5 -78.5q0 -66 -52.5 -109t-135.5 -43q-90 0 -174 48l21 100h45l-16 -74q63 -29 125 -29t99 28t37 74q0 35 -22 57t-82 48l-28 12q-59 25 -84 54.5t-25 72.5 q0 42 25.5 75.5t68.5 51.5t96 18q85 0 149 -35l-23 -108h-45zM457 750l-135 -139h-56l-77 139h49l61 -96l102 96h56z" />
<glyph unicode="&#x162;" horiz-adv-x="562" d="M125 46h87l129 606h-193l-26 -122h-47l36 170h532l-36 -170h-47l26 122h-193l-129 -606h87l-10 -46h-226zM108 -162q32 -20 71 -20q29 0 46.5 13t17.5 34q0 38 -67 38h-32l58 99h51l-37 -60q75 -8 75 -71q0 -42 -31 -68.5t-81 -26.5q-54 0 -88 24z" />
<glyph unicode="&#x163;" horiz-adv-x="384" d="M176 -10q-55 0 -83.5 29t-28.5 85q0 31 8 69l64 301h-93l9 42h93l43 151h39l-32 -151h179l-9 -42h-179l-63 -296q-8 -38 -8 -64q0 -40 17.5 -59.5t55.5 -19.5q24 0 52 11.5t53 31.5l13 -40q-27 -22 -62 -35t-68 -13zM48 -164q35 -20 72 -20q29 0 47 13.5t18 35.5 q0 18 -18 28.5t-49 10.5h-32l58 98h50l-38 -61q36 -4 55.5 -22t19.5 -48q0 -42 -30.5 -68.5t-80.5 -26.5q-54 0 -88 24z" />
<glyph unicode="&#x174;" horiz-adv-x="890" d="M776 700h206l-10 -46h-74l-300 -654h-61l-24 562l-268 -562h-56l-23 654h-77l10 46h206l-10 -46h-76l13 -581l271 567h53l25 -571l263 585h-78zM405 770l136 109h62l89 -109h-55l-69 70l-99 -70h-64z" />
<glyph unicode="&#x175;" horiz-adv-x="807" d="M646 516h184l-9 -41h-61l-251 -475h-44l-42 420l-219 -420h-44l-51 475h-65l9 41h183l-9 -41h-67l37 -404l219 426h44l40 -422l205 400h-68zM318 611l135 139h56l77 -139h-49l-61 96l-102 -96h-56z" />
<glyph unicode="&#x176;" horiz-adv-x="625" d="M153 46h89l51 243l-130 365h-76l10 46h210l-10 -46h-79l110 -321l246 321h-75l10 46h210l-10 -46h-74l-290 -366l-51 -242h89l-10 -46h-230zM269 770l136 109h62l89 -109h-55l-69 70l-99 -70h-64z" />
<glyph unicode="&#x177;" horiz-adv-x="564" d="M403 516h184l-9 -41h-61l-285 -481q-51 -85 -85.5 -132t-64.5 -67.5t-68 -20.5q-18 0 -36.5 5.5t-31.5 15.5l18 39q25 -15 50 -15q37 0 71.5 33t86.5 122l19 34l-81 467h-65l9 41h183l-9 -41h-68l67 -410l235 410h-68zM197 611l135 139h56l77 -139h-49l-61 96l-102 -96 h-56z" />
<glyph unicode="&#x178;" horiz-adv-x="625" d="M153 46h89l51 243l-130 365h-76l10 46h210l-10 -46h-79l110 -321l246 321h-75l10 46h210l-10 -46h-74l-290 -366l-51 -242h89l-10 -46h-230zM306 819q0 18 12.5 31t30.5 13q16 0 25.5 -9.5t9.5 -24.5q0 -18 -12.5 -31t-30.5 -13q-16 0 -25.5 9.5t-9.5 24.5zM464 819 q0 18 12.5 31t30.5 13q16 0 25.5 -9.5t9.5 -24.5q0 -18 -12.5 -31t-30.5 -13q-16 0 -25.5 9.5t-9.5 24.5z" />
<glyph unicode="&#x17d;" horiz-adv-x="592" d="M155 700h454l-10 -47l-524 -605h367l27 127h47l-37 -175h-478l10 47l523 605h-343l-26 -122h-47zM565 879l-136 -109h-62l-89 109h55l69 -71l99 71h64z" />
<glyph unicode="&#x17e;" horiz-adv-x="467" d="M-1 38l395 436h-248l-21 -100h-45l30 142h355l-8 -38l-395 -436h266l22 100h45l-31 -142h-373zM462 750l-135 -139h-56l-77 139h49l61 -96l102 96h56z" />
<glyph unicode="&#x218;" horiz-adv-x="578" d="M512 633q-37 15 -71.5 21.5t-79.5 6.5q-80 0 -128 -38t-48 -100q0 -42 24 -69.5t82 -55.5l34 -16q98 -46 134 -88.5t36 -103.5q0 -58 -33.5 -104.5t-90 -71t-129.5 -24.5q-125 0 -220 59l33 156h47l-27 -129q77 -37 169 -37q61 0 105 19.5t68 54t24 75.5q0 48 -27.5 78.5 t-115.5 71.5l-34 16q-73 34 -103 73t-30 94q0 56 30 99t82.5 66.5t118.5 23.5q116 0 204 -49l-32 -148h-47zM148 -213q39 34 52 71q-12 2 -19 10.5t-7 20.5q0 17 12.5 28.5t31.5 11.5q16 0 25 -9.5t9 -25.5q0 -34 -21.5 -67.5t-62.5 -63.5z" />
<glyph unicode="&#x219;" horiz-adv-x="451" d="M370 462q-51 19 -101 19q-61 0 -98.5 -27t-37.5 -71q0 -29 18.5 -49t63.5 -39l28 -12q74 -32 102.5 -62.5t28.5 -78.5q0 -66 -52.5 -109t-135.5 -43q-90 0 -174 48l21 100h45l-16 -74q63 -29 125 -29t99 28t37 74q0 35 -22 57t-82 48l-28 12q-59 25 -84 54.5t-25 72.5 q0 42 25.5 75.5t68.5 51.5t96 18q85 0 149 -35l-23 -108h-45zM90 -213q24 22 35.5 38t17.5 34q-12 1 -19.5 9t-7.5 21q0 17 12.5 28.5t30.5 11.5q16 0 24.5 -9.5t8.5 -25.5q0 -33 -21.5 -66.5t-61.5 -63.5z" />
<glyph unicode="&#x21a;" horiz-adv-x="562" d="M125 46h87l129 606h-193l-26 -122h-47l36 170h532l-36 -170h-47l26 122h-193l-129 -606h87l-10 -46h-226zM143 -213q39 34 52 71q-12 2 -19 10.5t-7 20.5q0 17 12.5 28.5t31.5 11.5q16 0 25 -9.5t9 -25.5q0 -34 -21.5 -67.5t-62.5 -63.5z" />
<glyph unicode="&#x21b;" horiz-adv-x="384" d="M176 -10q-55 0 -83.5 29t-28.5 85q0 31 8 69l64 301h-93l9 42h93l43 151h39l-32 -151h179l-9 -42h-179l-63 -296q-8 -38 -8 -64q0 -40 17.5 -59.5t55.5 -19.5q24 0 52 11.5t53 31.5l13 -40q-27 -22 -62 -35t-68 -13zM83 -213q24 22 35.5 38t17.5 34q-12 1 -19.5 9 t-7.5 21q0 17 12.5 28.5t30.5 11.5q16 0 24.5 -9.5t8.5 -25.5q0 -33 -21.5 -66.5t-61.5 -63.5z" />
<glyph unicode="&#x237;" horiz-adv-x="235" d="M68 516h129l-125 -586q-17 -80 -51.5 -118t-92.5 -38q-18 0 -37 5t-30 12l16 41q24 -13 53 -13q35 0 57.5 28t35.5 87l115 541h-79z" />
<glyph unicode="&#x2c6;" horiz-adv-x="587" d="M229 611l135 139h56l77 -139h-49l-61 96l-102 -96h-56z" />
<glyph unicode="&#x2c7;" horiz-adv-x="587" d="M523 750l-135 -139h-56l-77 139h49l61 -96l102 96h56z" />
<glyph unicode="&#x2cb;" horiz-adv-x="587" d="M356 611l-76 139h64l63 -139h-51z" />
<glyph unicode="&#x2d8;" horiz-adv-x="587" d="M363 608q-48 0 -76.5 26.5t-28.5 69.5q0 11 1 17h42v-8q0 -61 66 -61q33 0 57 18.5t32 50.5h42q-9 -49 -47 -81t-88 -32z" />
<glyph unicode="&#x2da;" horiz-adv-x="587" d="M274 674q0 46 32.5 78t78.5 32q39 0 63 -23.5t24 -62.5q0 -46 -32.5 -78t-78.5 -32q-39 0 -63 23.5t-24 62.5zM430 693q0 24 -13.5 39t-36.5 15q-27 0 -45.5 -19.5t-18.5 -48.5q0 -24 13.5 -39t36.5 -15q27 0 45.5 19.5t18.5 48.5z" />
<glyph unicode="&#x2dc;" horiz-adv-x="587" d="M440 619q-19 0 -34.5 8t-37.5 31q-20 21 -28.5 26.5t-19.5 5.5q-16 0 -29 -18t-18 -48h-42q9 52 33.5 81t58.5 29q19 0 34.5 -8t37.5 -31q20 -21 28.5 -26.5t19.5 -5.5q16 0 29 18t18 48h42q-9 -52 -33.5 -81t-58.5 -29z" />
<glyph unicode="&#x300;" horiz-adv-x="0" d="M-13 611l-76 139h64l63 -139h-51z" />
<glyph unicode="&#x301;" horiz-adv-x="0" d="M-22 611l122 139h73l-136 -139h-59z" />
<glyph unicode="&#x302;" horiz-adv-x="0" d="M-122 611l135 139h56l77 -139h-49l-61 96l-102 -96h-56z" />
<glyph unicode="&#x303;" horiz-adv-x="0" d="M86 619q-19 0 -34.5 8t-37.5 31q-20 21 -28.5 26.5t-19.5 5.5q-16 0 -29 -18t-18 -48h-42q9 52 33.5 81t58.5 29q19 0 34.5 -8t37.5 -31q20 -21 28.5 -26.5t19.5 -5.5q16 0 29 18t18 48h42q-9 -52 -33.5 -81t-58.5 -29z" />
<glyph unicode="&#x306;" horiz-adv-x="0" d="M15 608q-48 0 -76.5 26.5t-28.5 69.5q0 11 1 17h42v-8q0 -61 66 -61q33 0 57 18.5t32 50.5h42q-9 -49 -47 -81t-88 -32z" />
<glyph unicode="&#x308;" horiz-adv-x="0" d="M-86 677q0 18 13 29t32 11q14 0 23 -9t9 -22q0 -18 -13 -29t-32 -11q-14 0 -23 9t-9 22zM65 677q0 18 13 29t32 11q14 0 23 -9t9 -22q0 -18 -13 -29t-32 -11q-14 0 -23 9t-9 22z" />
<glyph unicode="&#x30a;" horiz-adv-x="0" d="M-70 674q0 46 32.5 78t78.5 32q39 0 63 -23.5t24 -62.5q0 -46 -32.5 -78t-78.5 -32q-39 0 -63 23.5t-24 62.5zM86 693q0 24 -13.5 39t-36.5 15q-27 0 -45.5 -19.5t-18.5 -48.5q0 -24 13.5 -39t36.5 -15q27 0 45.5 19.5t18.5 48.5z" />
<glyph unicode="&#x30c;" horiz-adv-x="0" d="M176 750l-135 -139h-56l-77 139h49l61 -96l102 96h56z" />
<glyph unicode="&#x326;" horiz-adv-x="0" d="M-76 -213q24 22 35.5 38t17.5 34q-12 1 -19.5 9t-7.5 21q0 17 12.5 28.5t30.5 11.5q16 0 24.5 -9.5t8.5 -25.5q0 -33 -21.5 -66.5t-61.5 -63.5z" />
<glyph unicode="&#x327;" horiz-adv-x="0" d="M-113 -164q35 -20 72 -20q29 0 47 13.5t18 35.5q0 18 -18 28.5t-49 10.5h-32l58 98h50l-38 -61q36 -4 55.5 -22t19.5 -48q0 -42 -30.5 -68.5t-80.5 -26.5q-54 0 -88 24z" />
<glyph unicode="&#x1e80;" horiz-adv-x="890" d="M776 700h206l-10 -46h-74l-300 -654h-61l-24 562l-268 -562h-56l-23 654h-77l10 46h206l-10 -46h-76l13 -581l271 567h53l25 -571l263 585h-78zM521 770l-87 109h72l69 -109h-54z" />
<glyph unicode="&#x1e81;" horiz-adv-x="807" d="M646 516h184l-9 -41h-61l-251 -475h-44l-42 420l-219 -420h-44l-51 475h-65l9 41h183l-9 -41h-67l37 -404l219 426h44l40 -422l205 400h-68zM427 611l-76 139h64l63 -139h-51z" />
<glyph unicode="&#x1e82;" horiz-adv-x="890" d="M776 700h206l-10 -46h-74l-300 -654h-61l-24 562l-268 -562h-56l-23 654h-77l10 46h206l-10 -46h-76l13 -581l271 567h53l25 -571l263 585h-78zM513 770l115 109h80l-133 -109h-62z" />
<glyph unicode="&#x1e83;" horiz-adv-x="807" d="M646 516h184l-9 -41h-61l-251 -475h-44l-42 420l-219 -420h-44l-51 475h-65l9 41h183l-9 -41h-67l37 -404l219 426h44l40 -422l205 400h-68zM418 611l122 139h73l-136 -139h-59z" />
<glyph unicode="&#x1e84;" horiz-adv-x="890" d="M776 700h206l-10 -46h-74l-300 -654h-61l-24 562l-268 -562h-56l-23 654h-77l10 46h206l-10 -46h-76l13 -581l271 567h53l25 -571l263 585h-78zM442 819q0 18 12.5 31t30.5 13q16 0 25.5 -9.5t9.5 -24.5q0 -18 -12.5 -31t-30.5 -13q-16 0 -25.5 9.5t-9.5 24.5zM600 819 q0 18 12.5 31t30.5 13q16 0 25.5 -9.5t9.5 -24.5q0 -18 -12.5 -31t-30.5 -13q-16 0 -25.5 9.5t-9.5 24.5z" />
<glyph unicode="&#x1e85;" horiz-adv-x="807" d="M646 516h184l-9 -41h-61l-251 -475h-44l-42 420l-219 -420h-44l-51 475h-65l9 41h183l-9 -41h-67l37 -404l219 426h44l40 -422l205 400h-68zM354 677q0 18 13 29t32 11q14 0 23 -9t9 -22q0 -18 -13 -29t-32 -11q-14 0 -23 9t-9 22zM505 677q0 18 13 29t32 11q14 0 23 -9 t9 -22q0 -18 -13 -29t-32 -11q-14 0 -23 9t-9 22z" />
<glyph unicode="&#x1e9e;" horiz-adv-x="712" d="M0 46h78l74 351q34 159 115 236t215 77q58 0 124 -19t103 -46l-10 -45l-221 -207q86 -4 136 -52t50 -128q0 -66 -31.5 -117t-85.5 -78.5t-122 -27.5q-80 0 -156 32l33 156h47l-26 -123q54 -16 107 -16q78 0 129 49t51 123q0 67 -43.5 101.5t-128.5 34.5q-20 0 -36 -2 l9 47l245 231q-34 17 -84.5 28t-91.5 11q-115 0 -181 -64.5t-96 -205.5l-83 -392h-130z" />
<glyph unicode="&#x1ef2;" horiz-adv-x="625" d="M153 46h89l51 243l-130 365h-76l10 46h210l-10 -46h-79l110 -321l246 321h-75l10 46h210l-10 -46h-74l-290 -366l-51 -242h89l-10 -46h-230zM385 770l-87 109h72l69 -109h-54z" />
<glyph unicode="&#x1ef3;" horiz-adv-x="564" d="M403 516h184l-9 -41h-61l-285 -481q-51 -85 -85.5 -132t-64.5 -67.5t-68 -20.5q-18 0 -36.5 5.5t-31.5 15.5l18 39q25 -15 50 -15q37 0 71.5 33t86.5 122l19 34l-81 467h-65l9 41h183l-9 -41h-68l67 -410l235 410h-68zM306 611l-76 139h64l63 -139h-51z" />
<glyph unicode="&#x2000;" horiz-adv-x="500" />
<glyph unicode="&#x2001;" horiz-adv-x="1000" />
<glyph unicode="&#x2002;" horiz-adv-x="500" />
<glyph unicode="&#x2003;" horiz-adv-x="1000" />
<glyph unicode="&#x2004;" horiz-adv-x="333" />
<glyph unicode="&#x2005;" horiz-adv-x="250" />
<glyph unicode="&#x2006;" horiz-adv-x="166" />
<glyph unicode="&#x2007;" horiz-adv-x="600" />
<glyph unicode="&#x2008;" horiz-adv-x="183" />
<glyph unicode="&#x2009;" horiz-adv-x="200" />
<glyph unicode="&#x200a;" horiz-adv-x="55" />
<glyph unicode="&#x200b;" horiz-adv-x="0" />
<glyph unicode="&#x2013;" horiz-adv-x="500" d="M8 294h500l-9 -42h-500z" />
<glyph unicode="&#x2014;" horiz-adv-x="1000" d="M8 294h1000l-9 -42h-1000z" />
<glyph unicode="&#x2018;" horiz-adv-x="171" d="M237 696q-64 -42 -87 -99q14 -2 22 -11t8 -23q0 -17 -12.5 -29.5t-31.5 -12.5q-17 0 -26 11t-9 30q0 39 33.5 82.5t87.5 74.5z" />
<glyph unicode="&#x2019;" horiz-adv-x="171" d="M74 535q34 23 54 46t33 53q-14 2 -22 11t-8 23q0 17 12.5 29.5t31.5 12.5q17 0 26 -11t9 -30q0 -39 -33.5 -82.5t-87.5 -74.5z" />
<glyph unicode="&#x201a;" horiz-adv-x="171" d="M-59 -107q34 23 54 46t33 53q-14 2 -22 11t-8 23q0 17 12.5 29.5t31.5 12.5q17 0 26 -11t9 -30q0 -39 -33.5 -82.5t-87.5 -74.5z" />
<glyph unicode="&#x201c;" horiz-adv-x="308" d="M237 696q-64 -42 -87 -99q14 -2 22 -11t8 -23q0 -17 -12.5 -29.5t-31.5 -12.5q-17 0 -26 11t-9 30q0 39 33.5 82.5t87.5 74.5zM374 696q-64 -42 -87 -99q14 -2 22 -11t8 -23q0 -17 -12.5 -29.5t-31.5 -12.5q-17 0 -26 11t-9 30q0 39 33.5 82.5t87.5 74.5z" />
<glyph unicode="&#x201d;" horiz-adv-x="308" d="M74 535q34 23 54 46t33 53q-14 2 -22 11t-8 23q0 17 12.5 29.5t31.5 12.5q17 0 26 -11t9 -30q0 -39 -33.5 -82.5t-87.5 -74.5zM211 535q34 23 54 46t33 53q-14 2 -22 11t-8 23q0 17 12.5 29.5t31.5 12.5q17 0 26 -11t9 -30q0 -39 -33.5 -82.5t-87.5 -74.5z" />
<glyph unicode="&#x201e;" horiz-adv-x="308" d="M-59 -107q34 23 54 46t33 53q-14 2 -22 11t-8 23q0 17 12.5 29.5t31.5 12.5q17 0 26 -11t9 -30q0 -39 -33.5 -82.5t-87.5 -74.5zM78 -107q34 23 54 46t33 53q-14 2 -22 11t-8 23q0 17 12.5 29.5t31.5 12.5q17 0 26 -11t9 -30q0 -39 -33.5 -82.5t-87.5 -74.5z" />
<glyph unicode="&#x2020;" horiz-adv-x="463" d="M86 485h160l52 245h50l-52 -245h160l-9 -44h-160l-118 -557h-50l118 557h-160z" />
<glyph unicode="&#x2021;" horiz-adv-x="463" d="M381 129h-160l-52 -245h-50l52 245h-160l9 44h160l57 268h-160l9 44h160l52 245h50l-52 -245h160l-9 -44h-160l-57 -268h160z" />
<glyph unicode="&#x2022;" horiz-adv-x="231" d="M110 209q-29 0 -47.5 18.5t-18.5 46.5q0 39 29.5 66t68.5 27q29 0 47.5 -18.5t18.5 -46.5q0 -39 -29.5 -66t-68.5 -27z" />
<glyph unicode="&#x2026;" horiz-adv-x="1000" d="M76 25q0 19 13.5 32t32.5 13q16 0 26 -9.5t10 -26.5q0 -18 -13.5 -31t-32.5 -13q-16 0 -26 9.5t-10 25.5zM410 25q0 19 13.5 32t32.5 13q16 0 26 -9.5t10 -26.5q0 -18 -13.5 -31t-32.5 -13q-16 0 -26 9.5t-10 25.5zM744 25q0 19 13.5 32t32.5 13q16 0 26 -9.5t10 -26.5 q0 -18 -13.5 -31t-32.5 -13q-16 0 -26 9.5t-10 25.5z" />
<glyph unicode="&#x2032;" horiz-adv-x="163" d="M166 700h61l-92 -195h-44z" />
<glyph unicode="&#x2033;" horiz-adv-x="314" d="M166 700h61l-92 -195h-44zM317 700h61l-92 -195h-44z" />
<glyph unicode="&#x2039;" horiz-adv-x="259" d="M86 275l94 -168h-49l-97 173l163 173h57z" />
<glyph unicode="&#x203a;" horiz-adv-x="259" d="M181 285l-94 168h49l97 -173l-163 -173h-57z" />
<glyph unicode="&#x2044;" horiz-adv-x="102" d="M-215 0l520 690h53l-520 -690h-53z" />
<glyph unicode="&#x2070;" d="M267 453q45 0 81 40t50 106q8 40 8 75q0 48 -22.5 75.5t-62.5 27.5q-45 0 -81 -40t-50 -106q-8 -40 -8 -75q0 -48 22.5 -75.5t62.5 -27.5zM263 410q-59 0 -93.5 39.5t-34.5 106.5q0 36 9 78q19 86 67.5 136t113.5 50q59 0 93.5 -39.5t34.5 -106.5q0 -36 -9 -78 q-19 -86 -67.5 -136t-113.5 -50z" />
<glyph unicode="&#x2074;" d="M249 420l8 43h66l12 56h-219l8 38l278 253h39l-54 -250h68l-8 -41h-68l-12 -56h67l-9 -43h-176zM343 560l39 183l-201 -183h162z" />
<glyph unicode="&#x2075;" d="M252 410q-71 0 -129 34l19 91h42l-14 -67q39 -15 86 -15q53 0 84.5 24t31.5 62q0 37 -30.5 56t-89.5 19h-19t-25 -0.5t-22.5 -0.5h-12.5l54 197h225l-23 -107h-42l13 63h-146l-30 -112q19 1 42 1q73 0 112.5 -29t39.5 -83q0 -59 -46 -96t-120 -37z" />
<glyph unicode="&#x2076;" d="M407 768q-33 9 -64 9q-51 0 -90.5 -34t-57.5 -93q53 8 91 8q67 0 104 -28t37 -80q0 -40 -21.5 -72.5t-57 -50t-78.5 -17.5q-64 0 -99.5 38.5t-35.5 109.5q0 76 28.5 136.5t77 93t108.5 32.5q58 0 106 -25l-20 -92h-42zM274 617q-41 0 -89 -8q-3 -24 -3 -49 q0 -52 24 -79.5t68 -27.5t75 27.5t31 66.5q0 34 -27 52t-79 18z" />
<glyph unicode="&#x2077;" d="M182 420l1 5q10 53 28.5 95t51.5 87t88 102l54 57h-183l-13 -63h-42l23 107h277l-8 -40l-78 -84q-72 -78 -104 -133t-47 -128l-1 -5h-47z" />
<glyph unicode="&#x2078;" d="M266 410q-63 0 -103.5 28.5t-40.5 74.5q0 36 26 67.5t71 49.5q-22 11 -34.5 30t-12.5 43q0 49 45 83t111 34q59 0 97 -27.5t38 -70.5q0 -31 -22 -59t-60 -45q27 -14 41.5 -36t14.5 -48q0 -52 -49.5 -88t-121.5 -36zM267 612q-45 -12 -71.5 -37t-26.5 -56q0 -30 27 -49 t72 -19q51 0 86.5 24t35.5 58q0 47 -64 64zM219 706q0 -40 58 -56l58 -16q37 11 59 33t22 48q0 28 -26 45.5t-67 17.5q-43 0 -73.5 -21t-30.5 -51z" />
<glyph unicode="&#x2079;" d="M239 410q-61 0 -104 24l19 90h42l-14 -64q28 -7 63 -7q51 0 90.5 34t57.5 93q-45 -8 -92 -8q-69 0 -106.5 28t-37.5 79q0 41 22 73.5t57.5 50t79.5 17.5q63 0 100 -39t37 -109q0 -76 -28.5 -136.5t-77 -93t-108.5 -32.5zM312 613q44 0 90 8q4 21 4 49q0 53 -24.5 80 t-69.5 27q-46 0 -77 -27.5t-31 -66.5q0 -34 27.5 -52t80.5 -18z" />
<glyph unicode="&#x2080;" d="M154 -87q45 0 81 40t50 106q8 40 8 75q0 48 -22.5 75.5t-62.5 27.5q-45 0 -81 -40t-50 -106q-8 -40 -8 -75q0 -48 22.5 -75.5t62.5 -27.5zM150 -130q-59 0 -93.5 39.5t-34.5 106.5q0 36 9 78q19 86 67.5 136t113.5 50q59 0 93.5 -39.5t34.5 -106.5q0 -36 -9 -78 q-19 -86 -67.5 -136t-113.5 -50z" />
<glyph unicode="&#x2081;" d="M58 159l171 111h41l-74 -346h102l-9 -44h-250l9 44h102l62 290l-136 -87z" />
<glyph unicode="&#x2082;" d="M77 234q71 46 142 46q52 0 83.5 -26.5t31.5 -69.5q-1 -37 -21.5 -61t-55 -41t-75.5 -33q-36 -15 -59 -31t-37.5 -38t-23.5 -56h186l15 71h42l-24 -115h-275l4 20q14 72 50 113.5t107 71.5q63 27 83 39t28.5 25.5t8.5 33.5q0 23 -20.5 38.5t-53.5 15.5q-46 0 -99 -25 l-12 -59h-42z" />
<glyph unicode="&#x2083;" d="M138 -130q-66 0 -121 35l19 90h42l-14 -68q36 -14 78 -14q53 0 84.5 23t31.5 61q0 31 -23.5 48.5t-65.5 17.5h-62l9 41h66q47 0 76.5 21t29.5 55q0 27 -21.5 42t-58.5 15q-39 0 -85 -16l-14 -68h-42l20 94q27 15 61.5 24t67.5 9q53 0 86 -26.5t33 -68.5 q0 -38 -23.5 -64.5t-66.5 -38.5q60 -23 60 -85q0 -55 -47.5 -91t-119.5 -36z" />
<glyph unicode="&#x2084;" d="M136 -120l8 43h66l12 56h-219l8 38l278 253h39l-54 -250h68l-8 -41h-68l-12 -56h67l-9 -43h-176zM230 20l39 183l-201 -183h162z" />
<glyph unicode="&#x2085;" d="M139 -130q-71 0 -129 34l19 91h42l-14 -67q39 -15 86 -15q53 0 84.5 24t31.5 62q0 37 -30.5 56t-89.5 19h-19t-25 -0.5t-22.5 -0.5h-12.5l54 197h225l-23 -107h-42l13 63h-146l-30 -112q19 1 42 1q73 0 112.5 -29t39.5 -83q0 -59 -46 -96t-120 -37z" />
<glyph unicode="&#x2086;" d="M294 228q-33 9 -64 9q-51 0 -90.5 -34t-57.5 -93q53 8 91 8q67 0 104 -28t37 -80q0 -40 -21.5 -72.5t-57 -50t-78.5 -17.5q-64 0 -99.5 38.5t-35.5 109.5q0 76 28.5 136.5t77 93t108.5 32.5q58 0 106 -25l-20 -92h-42zM161 77q-41 0 -89 -8q-3 -24 -3 -49q0 -52 24 -79.5 t68 -27.5t75 27.5t31 66.5q0 34 -27 52t-79 18z" />
<glyph unicode="&#x2087;" d="M69 -120l1 5q10 53 28.5 95t51.5 87t88 102l54 57h-183l-13 -63h-42l23 107h277l-8 -40l-78 -84q-72 -78 -104 -133t-47 -128l-1 -5h-47z" />
<glyph unicode="&#x2088;" d="M153 -130q-63 0 -103.5 28.5t-40.5 74.5q0 36 26 67.5t71 49.5q-22 11 -34.5 30t-12.5 43q0 49 45 83t111 34q59 0 97 -27.5t38 -70.5q0 -31 -22 -59t-60 -45q27 -14 41.5 -36t14.5 -48q0 -52 -49.5 -88t-121.5 -36zM154 72q-45 -12 -71.5 -37t-26.5 -56q0 -30 27 -49 t72 -19q51 0 86.5 24t35.5 58q0 47 -64 64zM106 166q0 -40 58 -56l58 -16q37 11 59 33t22 48q0 28 -26 45.5t-67 17.5q-43 0 -73.5 -21t-30.5 -51z" />
<glyph unicode="&#x2089;" d="M126 -130q-61 0 -104 24l19 90h42l-14 -64q28 -7 63 -7q51 0 90.5 34t57.5 93q-45 -8 -92 -8q-69 0 -106.5 28t-37.5 79q0 41 22 73.5t57.5 50t79.5 17.5q63 0 100 -39t37 -109q0 -76 -28.5 -136.5t-77 -93t-108.5 -32.5zM199 73q44 0 90 8q4 21 4 49q0 53 -24.5 80 t-69.5 27q-46 0 -77 -27.5t-31 -66.5q0 -34 27.5 -52t80.5 -18z" />
<glyph unicode="&#x20ac;" horiz-adv-x="600" d="M171 399q-13 -55 -13 -107h300l-17 -45h-282q9 -101 61 -156t141 -55q61 0 119 28l27 125h46l-32 -152q-73 -47 -165 -47q-72 0 -126 31.5t-85.5 89.5t-37.5 136h-88l17 45h70q2 58 13 107h-77l17 45h73q40 117 130 186.5t205 69.5q44 0 89 -11.5t84 -32.5l-33 -160h-46 l27 133q-64 25 -123 25q-94 0 -168.5 -56t-111.5 -154h316l-17 -45h-313z" />
<glyph unicode="&#x20ba;" horiz-adv-x="600" d="M32 46h87l38 178l-103 -47l10 50l103 47l22 105l-102 -47l10 50l103 47l56 261h51l-50 -235l210 96l-10 -50l-211 -96l-22 -105l210 96l-10 -50l-210 -96l-43 -203h53q120 0 183 55t84 179h51q-17 -97 -55 -159t-103 -92t-162 -30h-200z" />
<glyph unicode="&#x20bd;" horiz-adv-x="600" d="M170 690h217q101 0 153.5 -46.5t52.5 -136.5q0 -65 -34 -117t-94 -79t-140 -27h-113l-23 -107h205l-10 -45h-204l-28 -132h-51l28 132h-115l10 45h114l23 107h-115l10 45h115l67 315h-78zM221 329h111q66 0 112.5 21.5t71 61.5t24.5 91q0 72 -38 107t-118 35h-95z" />
<glyph unicode="&#x2122;" horiz-adv-x="910" d="M776 358h47v242l-111 -235h-46l-111 235v-242h47v-42h-142v42h47v300h-47v42h100l129 -279l129 279h102v-42h-47v-300h47v-42h-144v42zM363 655h-91v-297h46v-42h-141v42h46v297h-91v-54h-42v99h315v-99h-42v54z" />
<glyph unicode="&#x2212;" horiz-adv-x="600" d="M97 321l10 46h431l-10 -46h-431z" />
<glyph unicode="&#x25fc;" horiz-adv-x="515" d="M0 515h515v-515h-515v515z" />
<glyph unicode="&#xfeff;" horiz-adv-x="0" />
<glyph horiz-adv-x="600" d="M263 36q74 0 128.5 70.5t86.5 209.5q21 95 21 174q0 81 -33 122.5t-96 41.5q-74 0 -128.5 -70.5t-86.5 -209.5q-21 -95 -21 -174q0 -81 33 -122.5t96 -41.5zM258 -10q-84 0 -129.5 55t-45.5 154q0 85 21 179q34 156 103.5 239t167.5 83q84 0 129.5 -55t45.5 -154 q0 -85 -21 -179q-34 -156 -103.5 -239t-167.5 -83z" />
<glyph horiz-adv-x="600" d="M130 530l233 160h49l-137 -643h197l-10 -47h-435l10 47h187l123 580l-196 -134z" />
<glyph horiz-adv-x="600" d="M175 630q50 36 98 53t101 17q78 0 125.5 -42.5t47.5 -112.5q0 -67 -48 -120t-160 -109l-20 -10q-64 -32 -101 -64t-61 -77.5t-40 -117.5h288l26 122h46l-36 -169h-386l11 52q15 73 41.5 125.5t71 92.5t118.5 77l20 10q99 49 138 89t39 93q0 55 -33 85t-92 30 q-41 0 -77.5 -11.5t-75.5 -35.5l-20 -95h-46z" />
<glyph horiz-adv-x="600" d="M245 -10q-55 0 -104.5 15.5t-86.5 44.5l26 121h46l-22 -99q62 -36 145 -36t133 47t50 127q0 57 -32.5 93t-89.5 36h-101l9 45h95q46 0 83.5 20.5t58 55t20.5 76.5q0 57 -34 87.5t-98 30.5q-63 0 -129 -34l-20 -102h-46l24 124q38 27 86.5 42.5t95.5 15.5q79 0 126 -42.5 t47 -117.5q0 -62 -37 -111t-98 -68q44 -19 68 -57t24 -88q0 -67 -31.5 -118.5t-85.5 -79.5t-122 -28z" />
<glyph horiz-adv-x="600" d="M246 45h110l28 133h-346l9 44l448 468h49l-100 -467h96l-9 -45h-96l-29 -133h110l-9 -45h-270zM394 223l82 385l-367 -385h285z" />
<glyph horiz-adv-x="600" d="M502 643h-224l-66 -239q51 3 86 3q94 0 147.5 -46.5t53.5 -126.5q0 -72 -34 -127.5t-92 -86t-130 -30.5q-48 0 -95.5 15.5t-85.5 43.5l27 129h46l-23 -108q30 -16 65 -25t69 -9q90 0 145.5 53.5t55.5 139.5q0 62 -40.5 97t-113.5 35q-62 0 -139 -3l92 332h312l-32 -148 h-46z" />
<glyph horiz-adv-x="600" d="M421 700q73 0 148 -36l-26 -121h-46l20 94q-52 17 -100 17q-85 0 -147.5 -65.5t-96.5 -186.5q79 11 142 11q102 0 156 -48.5t54 -137.5q0 -70 -31 -124t-83.5 -83.5t-117.5 -29.5q-94 0 -144.5 59.5t-50.5 172.5q0 94 26.5 187t70.5 158.5t101 99t125 33.5zM300 369 q-50 0 -138 -11q-14 -69 -14 -137q0 -95 36.5 -140t113.5 -45q79 0 127 51t48 135q0 75 -42.5 111t-130.5 36z" />
<glyph horiz-adv-x="600" d="M181 690h418l-10 -46l-174 -226q-63 -82 -98.5 -138t-57.5 -110t-38 -132l-8 -38h-57l9 42q22 104 67 189t145 214l154 198h-314l-22 -102h-46z" />
<glyph horiz-adv-x="600" d="M64 159q0 75 50 133.5t128 78.5q-45 24 -68 61t-23 82q0 40 18.5 75t50 60t71 38t82.5 13q53 0 97.5 -21.5t68 -57t23.5 -81.5q0 -62 -39.5 -113t-105.5 -75q45 -24 69.5 -63t24.5 -88q0 -61 -33.5 -109.5t-89 -75t-120.5 -26.5q-58 0 -105.5 22t-73 60t-25.5 87z M116 165q0 -58 44 -94t113 -36q54 0 97 22t66 59.5t23 83.5t-33.5 82.5t-93.5 55.5l-42 13q-50 -10 -90.5 -38t-62 -66t-21.5 -82zM202 515q0 -45 29 -77t85 -50l53 -17q63 16 102.5 60.5t39.5 102.5q0 54 -40 87.5t-100 33.5q-49 0 -88 -19t-60 -50.5t-21 -70.5z" />
<glyph horiz-adv-x="600" d="M227 -10q-44 0 -82.5 8t-82.5 27l26 122h46l-20 -94q48 -17 117 -17q85 0 145.5 65.5t90.5 186.5q-80 -11 -144 -11q-101 0 -155.5 46.5t-54.5 133.5q0 68 33 124.5t85.5 87.5t113.5 31q94 0 144.5 -59.5t50.5 -172.5q0 -96 -25 -189t-67 -158t-98 -98t-123 -33zM338 321 q64 0 139 11q13 71 13 137q0 95 -36.5 140t-113.5 45q-50 0 -90.5 -26.5t-62.5 -70t-22 -95.5q0 -72 42 -106.5t131 -34.5z" />
<glyph d="M180 33q45 0 81 40t50 106q8 40 8 75q0 48 -22.5 75.5t-62.5 27.5q-45 0 -81 -40t-50 -106q-8 -40 -8 -75q0 -48 22.5 -75.5t62.5 -27.5zM176 -10q-59 0 -93.5 39.5t-34.5 106.5q0 36 9 78q19 86 67.5 136t113.5 50q59 0 93.5 -39.5t34.5 -106.5q0 -36 -9 -78 q-19 -86 -67.5 -136t-113.5 -50z" />
<glyph d="M84 279l171 111h41l-74 -346h102l-9 -44h-250l9 44h102l62 290l-136 -87z" />
<glyph d="M102 354q71 46 142 46q52 0 83.5 -26.5t31.5 -69.5q-1 -37 -21.5 -61t-55 -41t-75.5 -33q-36 -15 -59 -31t-37.5 -38t-23.5 -56h186l15 71h42l-24 -115h-275l4 20q14 72 50 113.5t107 71.5q63 27 83 39t28.5 25.5t8.5 33.5q0 23 -20.5 38.5t-53.5 15.5q-46 0 -99 -25 l-12 -59h-42z" />
<glyph d="M164 -10q-66 0 -121 35l19 90h42l-14 -68q36 -14 78 -14q53 0 84.5 23t31.5 61q0 31 -23.5 48.5t-65.5 17.5h-62l9 41h66q47 0 76.5 21t29.5 55q0 27 -21.5 42t-58.5 15q-39 0 -85 -16l-14 -68h-42l20 94q27 15 61.5 24t67.5 9q53 0 86 -26.5t33 -68.5q0 -38 -23.5 -64.5 t-66.5 -38.5q60 -23 60 -85q0 -55 -47.5 -91t-119.5 -36z" />
<glyph d="M162 0l8 43h66l12 56h-219l8 38l278 253h39l-54 -250h68l-8 -41h-68l-12 -56h67l-9 -43h-176zM256 140l39 183l-201 -183h162z" />
<glyph d="M165 -10q-71 0 -129 34l19 91h42l-14 -67q39 -15 86 -15q53 0 84.5 24t31.5 62q0 37 -30.5 56t-89.5 19h-19t-25 -0.5t-22.5 -0.5h-12.5l54 197h225l-23 -107h-42l13 63h-146l-30 -112q19 1 42 1q73 0 112.5 -29t39.5 -83q0 -59 -46 -96t-120 -37z" />
<glyph d="M320 348q-33 9 -64 9q-51 0 -90.5 -34t-57.5 -93q53 8 91 8q67 0 104 -28t37 -80q0 -40 -21.5 -72.5t-57 -50t-78.5 -17.5q-64 0 -99.5 38.5t-35.5 109.5q0 76 28.5 136.5t77 93t108.5 32.5q58 0 106 -25l-20 -92h-42zM187 197q-41 0 -89 -8q-3 -24 -3 -49 q0 -52 24 -79.5t68 -27.5t75 27.5t31 66.5q0 34 -27 52t-79 18z" />
<glyph d="M95 0l1 5q10 53 28.5 95t51.5 87t88 102l54 57h-183l-13 -63h-42l23 107h277l-8 -40l-78 -84q-72 -78 -104 -133t-47 -128l-1 -5h-47z" />
<glyph d="M179 -10q-63 0 -103.5 28.5t-40.5 74.5q0 36 26 67.5t71 49.5q-22 11 -34.5 30t-12.5 43q0 49 45 83t111 34q59 0 97 -27.5t38 -70.5q0 -31 -22 -59t-60 -45q27 -14 41.5 -36t14.5 -48q0 -52 -49.5 -88t-121.5 -36zM180 192q-45 -12 -71.5 -37t-26.5 -56q0 -30 27 -49 t72 -19q51 0 86.5 24t35.5 58q0 47 -64 64zM132 286q0 -40 58 -56l58 -16q37 11 59 33t22 48q0 28 -26 45.5t-67 17.5q-43 0 -73.5 -21t-30.5 -51z" />
<glyph d="M152 -10q-61 0 -104 24l19 90h42l-14 -64q28 -7 63 -7q51 0 90.5 34t57.5 93q-45 -8 -92 -8q-69 0 -106.5 28t-37.5 79q0 41 22 73.5t57.5 50t79.5 17.5q63 0 100 -39t37 -109q0 -76 -28.5 -136.5t-77 -93t-108.5 -32.5zM225 193q44 0 90 8q4 21 4 49q0 53 -24.5 80 t-69.5 27q-46 0 -77 -27.5t-31 -66.5q0 -34 27.5 -52t80.5 -18z" />
<glyph d="M242 333q45 0 81 40t50 106q8 40 8 75q0 48 -22.5 75.5t-62.5 27.5q-45 0 -81 -40t-50 -106q-8 -40 -8 -75q0 -48 22.5 -75.5t62.5 -27.5zM238 290q-59 0 -93.5 39.5t-34.5 106.5q0 36 9 78q19 86 67.5 136t113.5 50q59 0 93.5 -39.5t34.5 -106.5q0 -36 -9 -78 q-19 -86 -67.5 -136t-113.5 -50z" />
<glyph d="M146 579l171 111h41l-74 -346h102l-9 -44h-250l9 44h102l62 290l-136 -87z" />
<glyph d="M165 654q71 46 142 46q52 0 83.5 -26.5t31.5 -69.5q-1 -37 -21.5 -61t-55 -41t-75.5 -33q-36 -15 -59 -31t-37.5 -38t-23.5 -56h186l15 71h42l-24 -115h-275l4 20q14 72 50 113.5t107 71.5q63 27 83 39t28.5 25.5t8.5 33.5q0 23 -20.5 38.5t-53.5 15.5q-46 0 -99 -25 l-12 -59h-42z" />
<glyph d="M226 290q-66 0 -121 35l19 90h42l-14 -68q36 -14 78 -14q53 0 84.5 23t31.5 61q0 31 -23.5 48.5t-65.5 17.5h-62l9 41h66q47 0 76.5 21t29.5 55q0 27 -21.5 42t-58.5 15q-39 0 -85 -16l-14 -68h-42l20 94q27 15 61.5 24t67.5 9q53 0 86 -26.5t33 -68.5q0 -38 -23.5 -64.5 t-66.5 -38.5q60 -23 60 -85q0 -55 -47.5 -91t-119.5 -36z" />
<glyph d="M224 300l8 43h66l12 56h-219l8 38l278 253h39l-54 -250h68l-8 -41h-68l-12 -56h67l-9 -43h-176zM318 440l39 183l-201 -183h162z" />
<glyph d="M227 290q-71 0 -129 34l19 91h42l-14 -67q39 -15 86 -15q53 0 84.5 24t31.5 62q0 37 -30.5 56t-89.5 19h-19t-25 -0.5t-22.5 -0.5h-12.5l54 197h225l-23 -107h-42l13 63h-146l-30 -112q19 1 42 1q73 0 112.5 -29t39.5 -83q0 -59 -46 -96t-120 -37z" />
<glyph d="M382 648q-33 9 -64 9q-51 0 -90.5 -34t-57.5 -93q53 8 91 8q67 0 104 -28t37 -80q0 -40 -21.5 -72.5t-57 -50t-78.5 -17.5q-64 0 -99.5 38.5t-35.5 109.5q0 76 28.5 136.5t77 93t108.5 32.5q58 0 106 -25l-20 -92h-42zM249 497q-41 0 -89 -8q-3 -24 -3 -49 q0 -52 24 -79.5t68 -27.5t75 27.5t31 66.5q0 34 -27 52t-79 18z" />
<glyph d="M157 300l1 5q10 53 28.5 95t51.5 87t88 102l54 57h-183l-13 -63h-42l23 107h277l-8 -40l-78 -84q-72 -78 -104 -133t-47 -128l-1 -5h-47z" />
<glyph d="M241 290q-63 0 -103.5 28.5t-40.5 74.5q0 36 26 67.5t71 49.5q-22 11 -34.5 30t-12.5 43q0 49 45 83t111 34q59 0 97 -27.5t38 -70.5q0 -31 -22 -59t-60 -45q27 -14 41.5 -36t14.5 -48q0 -52 -49.5 -88t-121.5 -36zM242 492q-45 -12 -71.5 -37t-26.5 -56q0 -30 27 -49 t72 -19q51 0 86.5 24t35.5 58q0 47 -64 64zM194 586q0 -40 58 -56l58 -16q37 11 59 33t22 48q0 28 -26 45.5t-67 17.5q-43 0 -73.5 -21t-30.5 -51z" />
<glyph d="M214 290q-61 0 -104 24l19 90h42l-14 -64q28 -7 63 -7q51 0 90.5 34t57.5 93q-45 -8 -92 -8q-69 0 -106.5 28t-37.5 79q0 41 22 73.5t57.5 50t79.5 17.5q63 0 100 -39t37 -109q0 -76 -28.5 -136.5t-77 -93t-108.5 -32.5zM287 493q44 0 90 8q4 21 4 49q0 53 -24.5 80 t-69.5 27q-46 0 -77 -27.5t-31 -66.5q0 -34 27.5 -52t80.5 -18z" />
<glyph d="M110 -190l13 62q-68 6 -118 32l21 100h42l-16 -76q41 -13 79 -17l33 157l-8 3q-53 19 -75 40.5t-22 54.5t20.5 58.5t55 40t76.5 15.5l13 60h38l-13 -62q55 -6 102 -28l-19 -90h-42l14 66q-36 10 -64 13l-30 -143l9 -3q50 -18 72.5 -41.5t22.5 -57.5q0 -36 -19.5 -64 t-54 -43.5t-78.5 -16.5l-13 -60h-39zM269 -9q0 21 -15 35t-53 28l-31 -144q47 2 73 23.5t26 57.5zM104 168q0 -20 14 -32t57 -28l28 132q-47 -3 -73 -22t-26 -50z" />
<glyph d="M131 -190l13 63q-45 7 -70 37t-25 78q0 46 22 85.5t58 65t79 32.5l13 62h38l-13 -61q46 -3 82 -25l-20 -93h-38l15 70q-23 8 -47 9l-48 -223q31 1 78 30l11 -35q-38 -32 -97 -35l-13 -60h-38zM94 -8q0 -30 15 -50.5t44 -28.5l46 216q-44 -11 -74.5 -50.5t-30.5 -86.5z " />
<glyph horiz-adv-x="608" d="M122 78q26 0 46.5 21.5t28.5 55.5q4 19 4 33q0 27 -13 42t-37 15q-26 0 -46.5 -21.5t-28.5 -55.5q-4 -19 -4 -33q0 -27 13 -42t37 -15zM120 43q-39 0 -64 25t-25 64q0 20 4 39q10 48 43 78.5t75 30.5q39 0 64 -25t25 -64q0 -20 -4 -39q-10 -48 -43 -78.5t-75 -30.5z M75 -120l329 390h51l-329 -390h-51zM379 -95q26 0 46.5 21.5t28.5 55.5q4 19 4 33q0 27 -13 42t-37 15q-26 0 -46.5 -21.5t-28.5 -55.5q-4 -19 -4 -33q0 -27 13 -42t37 -15zM377 -130q-39 0 -64 25t-25 64q0 20 4 39q10 48 43 78.5t75 30.5q39 0 64 -25t25 -64q0 -20 -4 -39 q-10 -48 -43 -78.5t-75 -30.5z" />
<glyph horiz-adv-x="388" d="M-4 -120l41 113h-68l8 36h73l33 92h-74l8 36h79l41 113h40l-41 -113h100l41 113h40l-41 -113h68l-8 -36h-73l-33 -92h74l-8 -36h-79l-41 -113h-40l41 113h-100l-41 -113h-40zM90 29h100l33 92h-100z" />
<glyph d="M223 350l13 62q-68 6 -118 32l21 100h42l-16 -76q41 -13 79 -17l33 157l-8 3q-53 19 -75 40.5t-22 54.5t20.5 58.5t55 40t76.5 15.5l13 60h38l-13 -62q55 -6 102 -28l-19 -90h-42l14 66q-36 10 -64 13l-30 -143l9 -3q50 -18 72.5 -41.5t22.5 -57.5q0 -36 -19.5 -64 t-54 -43.5t-78.5 -16.5l-13 -60h-39zM382 531q0 21 -15 35t-53 28l-31 -144q47 2 73 23.5t26 57.5zM217 708q0 -20 14 -32t57 -28l28 132q-47 -3 -73 -22t-26 -50z" />
<glyph d="M244 350l13 63q-45 7 -70 37t-25 78q0 46 22 85.5t58 65t79 32.5l13 62h38l-13 -61q46 -3 82 -25l-20 -93h-38l15 70q-23 8 -47 9l-48 -223q31 1 78 30l11 -35q-38 -32 -97 -35l-13 -60h-38zM207 532q0 -30 15 -50.5t44 -28.5l46 216q-44 -11 -74.5 -50.5t-30.5 -86.5z " />
<glyph horiz-adv-x="608" d="M235 618q26 0 46.5 21.5t28.5 55.5q4 19 4 33q0 27 -13 42t-37 15q-26 0 -46.5 -21.5t-28.5 -55.5q-4 -19 -4 -33q0 -27 13 -42t37 -15zM233 583q-39 0 -64 25t-25 64q0 20 4 39q10 48 43 78.5t75 30.5q39 0 64 -25t25 -64q0 -20 -4 -39q-10 -48 -43 -78.5t-75 -30.5z M188 420l329 390h51l-329 -390h-51zM492 445q26 0 46.5 21.5t28.5 55.5q4 19 4 33q0 27 -13 42t-37 15q-26 0 -46.5 -21.5t-28.5 -55.5q-4 -19 -4 -33q0 -27 13 -42t37 -15zM490 410q-39 0 -64 25t-25 64q0 20 4 39q10 48 43 78.5t75 30.5q39 0 64 -25t25 -64q0 -20 -4 -39 q-10 -48 -43 -78.5t-75 -30.5z" />
<glyph horiz-adv-x="388" d="M109 420l41 113h-68l8 36h73l33 92h-74l8 36h79l41 113h40l-41 -113h100l41 113h40l-41 -113h68l-8 -36h-73l-33 -92h74l-8 -36h-79l-41 -113h-40l41 113h-100l-41 -113h-40zM203 569h100l33 92h-100z" />
<glyph d="M136 -70l13 62q-68 6 -118 32l21 100h42l-16 -76q41 -13 79 -17l33 157l-8 3q-53 19 -75 40.5t-22 54.5t20.5 58.5t55 40t76.5 15.5l13 60h38l-13 -62q55 -6 102 -28l-19 -90h-42l14 66q-36 10 -64 13l-30 -143l9 -3q50 -18 72.5 -41.5t22.5 -57.5q0 -36 -19.5 -64 t-54 -43.5t-78.5 -16.5l-13 -60h-39zM295 111q0 21 -15 35t-53 28l-31 -144q47 2 73 23.5t26 57.5zM130 288q0 -20 14 -32t57 -28l28 132q-47 -3 -73 -22t-26 -50z" />
<glyph d="M157 -70l13 63q-45 7 -70 37t-25 78q0 46 22 85.5t58 65t79 32.5l13 62h38l-13 -61q46 -3 82 -25l-20 -93h-38l15 70q-23 8 -47 9l-48 -223q31 1 78 30l11 -35q-38 -32 -97 -35l-13 -60h-38zM120 112q0 -30 15 -50.5t44 -28.5l46 216q-44 -11 -74.5 -50.5t-30.5 -86.5z " />
<glyph horiz-adv-x="608" d="M148 198q26 0 46.5 21.5t28.5 55.5q4 19 4 33q0 27 -13 42t-37 15q-26 0 -46.5 -21.5t-28.5 -55.5q-4 -19 -4 -33q0 -27 13 -42t37 -15zM146 163q-39 0 -64 25t-25 64q0 20 4 39q10 48 43 78.5t75 30.5q39 0 64 -25t25 -64q0 -20 -4 -39q-10 -48 -43 -78.5t-75 -30.5z M101 0l329 390h51l-329 -390h-51zM405 25q26 0 46.5 21.5t28.5 55.5q4 19 4 33q0 27 -13 42t-37 15q-26 0 -46.5 -21.5t-28.5 -55.5q-4 -19 -4 -33q0 -27 13 -42t37 -15zM403 -10q-39 0 -64 25t-25 64q0 20 4 39q10 48 43 78.5t75 30.5q39 0 64 -25t25 -64q0 -20 -4 -39 q-10 -48 -43 -78.5t-75 -30.5z" />
<glyph horiz-adv-x="388" d="M22 0l41 113h-68l8 36h73l33 92h-74l8 36h79l41 113h40l-41 -113h100l41 113h40l-41 -113h68l-8 -36h-73l-33 -92h74l-8 -36h-79l-41 -113h-40l41 113h-100l-41 -113h-40zM116 149h100l33 92h-100z" />
<glyph d="M198 230l13 62q-68 6 -118 32l21 100h42l-16 -76q41 -13 79 -17l33 157l-8 3q-53 19 -75 40.5t-22 54.5t20.5 58.5t55 40t76.5 15.5l13 60h38l-13 -62q55 -6 102 -28l-19 -90h-42l14 66q-36 10 -64 13l-30 -143l9 -3q50 -18 72.5 -41.5t22.5 -57.5q0 -36 -19.5 -64 t-54 -43.5t-78.5 -16.5l-13 -60h-39zM357 411q0 21 -15 35t-53 28l-31 -144q47 2 73 23.5t26 57.5zM192 588q0 -20 14 -32t57 -28l28 132q-47 -3 -73 -22t-26 -50z" />
<glyph d="M219 230l13 63q-45 7 -70 37t-25 78q0 46 22 85.5t58 65t79 32.5l13 62h38l-13 -61q46 -3 82 -25l-20 -93h-38l15 70q-23 8 -47 9l-48 -223q31 1 78 30l11 -35q-38 -32 -97 -35l-13 -60h-38zM182 412q0 -30 15 -50.5t44 -28.5l46 216q-44 -11 -74.5 -50.5t-30.5 -86.5z " />
<glyph horiz-adv-x="608" d="M210 498q26 0 46.5 21.5t28.5 55.5q4 19 4 33q0 27 -13 42t-37 15q-26 0 -46.5 -21.5t-28.5 -55.5q-4 -19 -4 -33q0 -27 13 -42t37 -15zM208 463q-39 0 -64 25t-25 64q0 20 4 39q10 48 43 78.5t75 30.5q39 0 64 -25t25 -64q0 -20 -4 -39q-10 -48 -43 -78.5t-75 -30.5z M163 300l329 390h51l-329 -390h-51zM467 325q26 0 46.5 21.5t28.5 55.5q4 19 4 33q0 27 -13 42t-37 15q-26 0 -46.5 -21.5t-28.5 -55.5q-4 -19 -4 -33q0 -27 13 -42t37 -15zM465 290q-39 0 -64 25t-25 64q0 20 4 39q10 48 43 78.5t75 30.5q39 0 64 -25t25 -64q0 -20 -4 -39 q-10 -48 -43 -78.5t-75 -30.5z" />
<glyph horiz-adv-x="388" d="M84 300l41 113h-68l8 36h73l33 92h-74l8 36h79l41 113h40l-41 -113h100l41 113h40l-41 -113h68l-8 -36h-73l-33 -92h74l-8 -36h-79l-41 -113h-40l41 113h-100l-41 -113h-40zM178 449h100l33 92h-100z" />
<glyph horiz-adv-x="153" d="M56 365q0 19 12.5 31t31.5 12q16 0 26 -9.5t10 -24.5q0 -18 -12.5 -30t-31.5 -12q-16 0 -26 9t-10 24z" />
<glyph horiz-adv-x="153" d="M50 385q0 19 12.5 31t31.5 12q16 0 26 -9.5t10 -24.5q0 -18 -12.5 -30t-31.5 -12q-16 0 -26 9t-10 24z" />
<glyph horiz-adv-x="716" d="M0 46h79l129 608h-79l10 46h210l-10 -46h-79l-129 -608h79l-10 -46h-210zM532 700h195l-105 -493q-24 -113 -73.5 -165t-134.5 -52q-34 0 -69.5 12t-61.5 31l21 42q55 -36 112 -36q64 0 100 41.5t56 135.5l93 438h-143zM215 770l115 109h80l-133 -109h-62zM632 770 l115 109h80l-133 -109h-62z" />
<glyph horiz-adv-x="492" d="M78 516h129l-102 -475h70l-9 -41h-188l9 41h68l93 434h-79zM325 516h129l-125 -586q-17 -80 -51.5 -118t-92.5 -38q-18 0 -37 5t-30 12l16 41q24 -13 53 -13q35 0 57.5 28t35.5 87l115 541h-79zM149 611l122 139h73l-136 -139h-59zM396 611l122 139h73l-136 -139h-59z " />
<glyph horiz-adv-x="322" d="M66 516h95l13 57q19 89 67 138t116 49q28 0 53 -9l-10 -42q-22 6 -44 6q-50 0 -83 -36t-50 -111l-12 -52h155l-9 -42h-154l-128 -599h-50l128 599h-96z" />
<glyph horiz-adv-x="308" d="M66 516h95l13 57q19 89 67 138t116 49q19 0 38 -4.5t29 -10.5l-16 -40q-22 10 -52 10q-100 0 -133 -147l-12 -52h274l-9 -42h-273l-128 -599h-50l128 599h-96z" />
<glyph horiz-adv-x="0" d="M-114 -162q32 -20 71 -20q29 0 46.5 13t17.5 34q0 38 -67 38h-32l58 99h51l-37 -60q75 -8 75 -71q0 -42 -31 -68.5t-81 -26.5q-54 0 -88 24z" />
<glyph horiz-adv-x="0" d="M-77 -213q39 34 52 71q-12 2 -19 10.5t-7 20.5q0 17 12.5 28.5t31.5 11.5q16 0 25 -9.5t9 -25.5q0 -34 -21.5 -67.5t-62.5 -63.5z" />
<glyph horiz-adv-x="0" d="M-27 760l115 109h80l-133 -109h-62z" />
<glyph horiz-adv-x="0" d="M-19 760l-87 109h72l69 -109h-54z" />
<glyph horiz-adv-x="0" d="M-135 760l136 109h62l89 -109h-55l-69 70l-99 -70h-64z" />
<glyph horiz-adv-x="0" d="M-135 760q8 51 32.5 81t59.5 30q21 0 37 -8t40 -31q21 -20 30.5 -26t22.5 -6q15 0 27 17.5t18 48.5h44q-8 -51 -32.5 -81t-59.5 -30q-21 0 -37 8t-40 31q-21 20 -30.5 26t-22.5 6q-15 0 -27 -17.5t-18 -48.5h-44z" />
<glyph horiz-adv-x="0" d="M175 869l-136 -109h-62l-89 109h55l69 -71l99 71h64z" />
<glyph horiz-adv-x="0" d="M-98 809q0 18 12.5 31t30.5 13q16 0 25.5 -9.5t9.5 -24.5q0 -18 -12.5 -31t-30.5 -13q-16 0 -25.5 9.5t-9.5 24.5zM60 809q0 18 12.5 31t30.5 13q16 0 25.5 -9.5t9.5 -24.5q0 -18 -12.5 -31t-30.5 -13q-16 0 -25.5 9.5t-9.5 24.5z" />
<glyph horiz-adv-x="0" d="M12 755q-52 0 -81.5 25t-29.5 68q0 5 0.5 10t1.5 10h42v-4q0 -33 17 -49t54 -16q36 0 61 18.5t33 50.5h42q-9 -50 -48.5 -81.5t-91.5 -31.5z" />
<glyph horiz-adv-x="0" d="M-73 833q0 47 32.5 79t79.5 32q40 0 64 -23.5t24 -63.5q0 -46 -32.5 -78.5t-79.5 -32.5q-40 0 -64 23.5t-24 63.5zM84 852q0 24 -14 38.5t-36 14.5q-26 0 -45 -19.5t-19 -47.5q0 -24 14 -38.5t36 -14.5q26 0 45 19.5t19 47.5z" />
<glyph horiz-adv-x="638" d="M452 -10q-21 0 -39 6q-50 15 -74 15t-74 -15q-18 -6 -39 -6q-66 0 -85 76q-19 77 -19 94q0 19 8 39q3 9 3 23q0 21 -5 48.5t-12.5 56.5t-14.5 54t-11 42q-10 40 -10 55q0 43 40 75q7 6 10 9.5t5.5 8t5.5 13.5q21 60 72 93t126 33t126 -33t72 -93q3 -8 5 -12.5t5 -8 t11 -10.5q40 -32 40 -75q0 -15 -10 -55q-4 -17 -11 -42t-14.5 -54t-12.5 -56.5t-5 -48.5q0 -14 3 -23q8 -20 8 -39q0 -17 -19 -94q-19 -76 -85 -76zM233 238q5 0 14 7.5t14 16.5q7 12 15.5 35.5t8.5 28.5t-5 5q-1 0 -2.5 -0.5t-3.5 -2.5q-4 -4 -10 -7t-10 -3q-3 0 -5.5 1.5 t-2.5 2.5q0 4 8 10q10 7 10 11q0 5 -7 5q-3 0 -9 -7q-5 -5 -12 -5q-11 0 -16 8q-3 6 -7 6q-7 0 -7 -5q0 -2 0.5 -4t0.5 -4q0 -8 -7 -8q-4 0 -9 4q-3 2 -11 2q-3 0 -5.5 2t-2.5 5q0 7 13 14q4 3 27 8q4 1 4 7t-7 6q-19 0 -32 -5q-13 -4 -18 -11t-5 -18q0 -18 10 -41t27 -40 q12 -13 22 -18.5t20 -5.5zM338 53q22 0 41 8t27 21q12 17 12 37v19q0 13 2 25q1 4 1.5 7.5t0.5 5.5q0 4 -5 4t-24.5 -3.5t-54.5 -3.5q-34 0 -53 3.5t-24 3.5q-7 0 -7 -4q0 -2 2 -9.5t4 -11.5q3 -5 18 -7q25 -2 44 -2q23 0 35 1t18 1q16 0 16 -12q0 -11 -14 -13 q-25 -3 -53 -3q-17 0 -29.5 1t-21.5 1q-13 0 -13 -10q0 -13 12 -30q9 -13 27 -21t39 -8zM469 204q15 0 25 37q9 35 20 49q8 9 15 21t7 18q0 8 -4 8q-1 0 -5 -1.5t-8 -3.5t-5 -2q-7 0 -7 9q0 8 6 29.5t15 45.5q13 33 13 48q0 11 -8 25q-10 15 -15 15t-13 -8q-17 -17 -42 -17 q-29 0 -45 28q-7 12 -7 19q0 6 5 6q3 0 10 -5t11 -5q6 0 11 8q5 10 5 26q0 17 -6.5 29.5t-14.5 12.5q-3 0 -17 -4t-34.5 -8.5t-42.5 -4.5q-11 0 -32 3t-28 5q-15 5 -22 7t-10 2q-7 0 -18 -7q-12 -7 -28.5 -20.5t-25.5 -24.5q-29 -31 -29 -49q1 -10 4.5 -20t4.5 -25 q0 -12 -1.5 -20t-1.5 -15q0 -8 2.5 -10t13.5 -2q17 0 36.5 3t36 6t22.5 3q12 0 20.5 -4t18.5 -14q13 -13 13 -32q0 -6 -1 -17t-2 -20l-8 -79q2 -32 35 -32q17 0 26.5 8.5t9.5 23.5q0 4 -0.5 7.5t-0.5 6.5q0 11 8 11q5 0 20 -15l37 -38q16 -17 31 -17zM365 373q-4 0 -6.5 2.5 t-2.5 5.5q0 5 6 8q12 7 44.5 21t42.5 17q9 3 13 3q9 0 18 -8q7 -6 14.5 -15t7.5 -12q0 -5 -3 -9t-7 -4q-5 0 -9 2.5t-11 7.5t-16 5q-12 0 -47 -11q-7 -2 -16 -5t-17 -5.5t-11 -2.5zM451 338q-12 1 -24 4.5t-21 3.5q-11 0 -16.5 -0.5t-12.5 -0.5q-9 0 -9 5q0 7 6 8 q9 3 37.5 6t37.5 3q6 0 8.5 -1.5t4.5 -6.5q3 -6 10 -6q3 0 5.5 1t6.5 1q5 0 5 -5q0 -4 -13.5 -8t-24.5 -4z" />
</font>
</defs>
</svg>
