<?xml version="1.0" encoding="UTF-8"?>
<svg width="54px" height="26px" viewBox="0 0 54 26" version="1.1" xmlns="http://www.w3.org/2000/svg" xmlns:xlink="http://www.w3.org/1999/xlink">
    <!-- Generator: Sketch 47.1 (45422) - http://www.bohemiancoding.com/sketch -->
    <title>Disney Channel Logo</title>
    <desc>Created with Sketch.</desc>
    <defs></defs>
    <g id="Symbols" stroke="none" stroke-width="1" fill="none" fill-rule="evenodd">
        <g id="Card/SELECT" transform="translate(-156.000000, -215.000000)">
            <g id="SELECT-Card">
                <g id="Detail/Channels" transform="translate(38.000000, 169.000000)">
                    <g id="Logos" transform="translate(2.400000, 44.474004)">
                        <g id="Disney-Channel-Logo" transform="translate(116.365354, 0.793872)">
                            <g id="Layer_1" transform="translate(0.000000, -0.000000)">
                                <g id="Group" transform="translate(0.000000, -0.000000)">
                                    <path d="M50.3682757,9.53766202 C48.323136,8.71142802 46.802135,9.23611332 45.673183,10.3871525 L45.6716356,10.3802384 L45.6431498,10.3094475 C44.6562751,9.41250124 43.8382051,9.41250124 43.8382051,9.41250124 C41.6986754,9.30038295 38.6843152,10.3988593 38.6843152,10.3988593 C38.6843152,10.3988593 37.5634517,8.2536837 36.3088809,8.42190042 C35.05431,8.59011713 35.2883859,10.8885813 35.2883859,10.8885813 C32.3943693,8.12302308 25.0265349,10.1374595 25.0263239,10.1374595 C25.0778094,10.1164029 25.1279584,10.0912608 25.1762788,10.0617188 C26.7319551,9.1087526 27.1836484,8.08562412 27.1836484,8.08562412 C27.5098636,8.19774241 29.5674527,7.87537287 29.7054505,5.91334212 C29.8434484,3.9512328 28.3755506,3.01225196 27.4596442,2.92818289 C26.5437378,2.84411382 25.8035291,3.39071993 25.8035291,3.39071993 C25.3644257,0.994201353 23.2692073,1.35852686 23.2692073,1.35852686 C20.3711113,2.00326594 21.500204,4.83419378 21.500204,4.83419378 C20.1954137,6.16562791 20.2707428,7.4129144 20.2707428,7.4129144 C12.6968963,-0.398123928 4.12372567,0.797856854 4.12372567,0.797856854 C1.75251146,0.867940605 -0.116860328,2.31149302 0.00861785965,3.90911969 C0.134096048,5.50682494 1.72747209,5.50682494 1.72747209,5.50682494 C3.33442286,5.50682494 3.43788609,4.27360234 3.43788609,4.27360234 C6.86715432,4.08668615 8.9414832,4.94631207 8.9414832,4.94631207 C8.3057927,6.34775138 8.10505573,9.78625505 8.10505573,9.78625505 C8.10505573,9.78625505 2.91930387,10.83264 3.12004084,13.6354401 C3.32077781,16.4383973 8.03823719,19.0920729 8.03823719,19.0920729 C8.05497699,19.615344 8.57658363,21.3156606 9.89501896,21.3156606 C11.2134543,21.3156606 11.5098473,20.4187143 11.5098473,20.4187143 C12.3933291,20.7513764 14.1181618,20.6429509 14.1181618,20.6429509 L14.1181618,21.7971329 C14.2588324,24.5397489 16.7701546,24.6213823 16.7701546,24.6213823 L43.0166888,24.6213823 C43.2174257,25.0142285 44.118632,26.4453669 45.1768267,26.4453669 C46.2350214,26.4453669 46.4918859,24.9522373 46.5086257,24.484829 C46.5252249,24.0175778 47.7174083,19.611337 47.7174083,19.611337 L47.7167753,19.6017515 C47.7514506,19.590909 47.7860556,19.5776308 47.8208716,19.5661597 C50.5339154,18.6726704 52.802651,16.5710221 52.802651,13.6442398 C52.802651,10.7174575 50.3682757,9.53766202 50.3682757,9.53766202 Z" id="Shape" fill="#1A69CD"></path>
                                    <g transform="translate(1.758162, 2.386873)" id="Shape" fill="#F5F5F5">
                                        <g>
                                            <path d="M4.63432899,0.00507735898 C2.66031093,0.0627101476 1.07304792,0.307735776 0.716954036,0.691356182 C0.406441262,1.03894747 0.00805138896,1.31710332 0.000180776445,1.78209984 C-0.0111802816,2.23287798 0.515603236,2.27470489 0.83268626,2.27090872 C1.1448416,2.27090872 1.43735462,2.24309313 1.43304289,2.05079978 C1.43304289,1.79307423 1.00734542,1.84732498 1.00734542,1.5788321 C1.00734542,1.27582858 2.64012109,1.20729043 3.45380555,1.20729043 C10.4366814,1.18264982 18.4777782,6.06639021 18.4903712,10.2106363 C18.5007741,13.4261318 14.3502922,14.1500963 12.0622709,14.1500963 C11.2468754,14.1542376 10.4597457,14.0692723 9.7116269,13.9215667 C9.67330044,12.8977737 9.61512635,10.750659 9.58952974,9.38914479 C9.85322948,9.38521057 10.1006405,9.37837746 10.3097934,9.37837746 C12.0073135,9.37527151 14.233944,9.98107149 14.2358603,10.3791173 C14.2358603,10.721532 13.6424161,10.9608979 13.6424161,11.2871616 C13.6474807,11.5311519 14.191648,11.4818017 14.6588886,11.5212129 C14.7456707,11.5310829 15.7031478,10.9879543 15.7016421,10.1326423 C15.69603,9.00303961 14.3036844,7.66996216 9.75508637,7.68839084 L9.55599409,7.68839084 C9.5143825,6.4175706 9.33274246,4.42320003 8.61199967,4.42444241 C8.02307253,4.42782446 7.85080878,6.62939698 7.80077906,7.83354264 C5.2483052,8.22993199 2.98136348,9.27484551 2.985333,10.3078874 C2.985333,11.152432 4.81254703,13.2760105 7.76135756,14.5685724 C7.81405644,15.5270023 7.99227448,16.1823595 8.83586727,16.1776661 C9.44758496,16.1776661 9.65160492,15.7250244 9.71566486,15.2488464 C10.6700622,15.4949074 11.7058348,15.6406803 12.8034773,15.6367461 C17.0835163,15.6254957 20.52359,13.3141102 20.5105863,10.1487933 C20.500731,5.8998418 12.0194274,-0.20081319 4.63432899,0.00507735898 M3.48405608,10.572239 C3.48405608,9.83502241 5.70630641,9.54747966 7.76560084,9.44215315 C7.75314474,10.6040578 7.73774572,12.2665049 7.74109929,13.384443 C5.20806242,12.4828177 3.48405608,11.0500044 3.48405608,10.572239"></path>
                                            <path d="M21.543976,8.46796316 C20.8337046,8.47596963 20.8121459,11.4102723 20.7916823,12.4824492 C20.7439111,14.9231116 21.0983625,15.2085837 21.7349923,15.2085837 C22.303935,15.2085837 22.4979627,15.1380439 22.4492333,13.0943231 C22.359919,9.21380737 22.102721,8.46796316 21.543976,8.46796316"></path>
                                            <path d="M30.7925204,9.13400072 C30.7925204,8.46055986 29.0541416,8.46697884 28.0749006,8.46808318 C27.3406066,8.47408803 23.6182176,8.55712066 23.6220502,10.6459124 C23.6251984,12.0550513 25.7102948,11.7108421 27.0932641,11.8508173 C28.2164347,11.9629079 29.5820202,12.3363821 29.5900961,12.7047488 C29.5900961,13.5352822 26.6053545,13.8647209 25.9944581,13.8647209 C24.7259207,13.8721752 24.700461,13.5047748 24.700461,13.3162086 C24.700461,13.1272973 24.910709,12.8104205 25.3872575,12.8104205 C25.8598364,12.8086949 26.8340814,13.4153922 27.5106119,13.4137357 C28.1787926,13.4080759 28.7397962,13.1121816 28.7397962,12.8091091 C28.7397962,12.2532115 26.5110441,11.9873414 25.8197305,11.9873414 C25.0933072,11.992449 24.0525385,12.2899308 24.0582875,13.382469 C24.0582875,13.9499622 24.9815445,15.2893206 27.5736452,15.277794 C30.1299517,15.2660604 30.776437,13.8116435 30.7726728,13.061589 C30.7684295,11.2368728 29.0420962,11.0258747 27.5380563,10.8954244 C26.4100265,10.7981043 25.1997316,10.7428183 25.2039749,10.4928921 C25.2134881,9.65863165 30.7925204,10.2694012 30.7925204,9.13400072"></path>
                                            <path d="M34.9606777,7.38007813 C34.7502244,7.38007813 34.7102554,7.60488052 34.7102554,7.84148555 C34.7102554,8.56572609 35.7013366,11.0547723 35.7013366,12.0132712 C35.7013366,12.2080493 35.6857323,12.5610933 35.5308523,12.6106506 C35.2943917,12.6792577 33.2351657,8.89571694 32.3835655,8.83125104 C31.5051367,8.76298897 31.031668,12.5428716 31.0362535,13.4735549 C31.0362535,14.3963697 31.2022207,15.0239805 31.8889488,15.0202533 C32.9021362,15.0202533 32.377748,11.2456162 32.7852404,11.2456162 C33.0887039,11.2456162 34.7462549,14.6977168 35.6704017,14.6941967 C36.669901,14.6908146 37.2623186,13.2132066 37.260676,12.2530512 C37.2536952,10.0576216 35.8022858,7.37324502 34.9606777,7.38007813"></path>
                                            <path d="M42.0545781,13.3980029 C41.7034804,13.3980029 39.7227552,13.8449158 39.5925136,13.7273035 C39.460698,13.6038934 39.7094094,12.4422649 39.9559306,12.3650991 C40.2045051,12.2880023 41.7529626,12.3076043 41.9996207,12.2920055 C42.7189263,12.2505927 42.5833464,11.2631739 42.138691,11.2264546 C41.9125649,11.205058 40.515976,11.2007097 40.4354905,11.0695002 C40.3625333,10.94257 40.461224,10.2825193 40.6139138,10.2146023 C40.9356508,10.0764907 43.0609215,10.0239655 43.221482,9.98241463 C43.4864136,9.91187485 43.6793463,9.76982901 43.743064,9.5404022 C43.806508,9.30855964 43.004869,8.36973187 42.0124875,8.47636978 C40.3073021,8.66390066 38.0983292,8.65485887 38.0983292,9.22269714 C38.0983292,9.7542302 39.1363603,9.96854134 39.1626413,10.116454 C39.1900858,10.2580167 39.02932,10.8107393 38.9681345,10.9839828 C38.9067438,11.1686838 38.1650583,11.2253503 38.1161921,11.7402492 C38.1059945,11.8620028 38.3014594,12.0471179 38.2678553,12.1966871 C38.1497277,12.6317974 37.7946604,13.5327324 37.7952764,13.903929 C37.7952764,14.4814993 38.2163199,15.763501 39.3711783,15.7197415 C41.202841,15.663075 42.8404759,14.3647843 42.8687417,14.1357716 C42.9068628,13.7965319 42.4060181,13.3980029 42.0545781,13.3980029"></path>
                                            <path d="M47.8330669,9.07252903 C46.8365789,9.12677977 44.9234041,11.2638864 43.8066669,12.7035328 C43.7356945,12.5560342 43.6965467,12.4135743 43.6965467,12.2875414 C43.6940829,11.6729757 44.8266982,9.85067521 45.0377675,9.39237375 C45.2590344,8.92019901 45.0112812,8.28823995 44.7335513,8.51587221 C44.2040986,8.9554689 42.504936,10.9634367 42.5084949,12.8318434 C42.5084949,13.2617771 42.6184097,13.7821287 42.8542543,14.2611365 C42.4779021,15.5129759 41.5467745,18.3013675 41.5754509,19.990802 C41.5927662,20.8626791 42.4650354,21.7193025 42.9905186,21.6112151 C43.189953,21.5633834 43.2286217,20.4171466 43.4964963,19.6425895 C43.8614189,18.5244444 44.4522624,16.4818279 44.6552558,15.6108481 C44.7503875,15.6209942 44.8455193,15.6292768 44.949206,15.6292768 C47.0247892,15.6210633 49.329989,13.3755242 49.3256772,11.4461717 C49.3179435,9.51040018 48.1867654,9.04816451 47.8330669,9.07252903 M45.4362259,13.8491483 C46.2728377,12.3809962 47.4899766,10.4376324 47.9379171,10.4452247 C48.2519888,10.4452247 48.3721012,10.7698319 48.3721012,11.2435941 C48.3720328,12.6793063 46.6629464,13.8689575 45.4362259,13.8491483"></path>
                                            <path d="M29.1544401,15.8480305 C28.9728685,15.8487897 28.8348248,15.9749607 28.8223002,16.1547612 C28.8126502,16.2963239 28.8050533,16.4380246 28.7982778,16.5797253 C28.7672059,17.2089926 28.7227199,17.8379147 28.7232674,18.4687694 C28.7232674,18.4909942 28.7192294,18.5133572 28.7135489,18.5735437 C28.6721426,18.532269 28.6504471,18.5153588 28.6348428,18.4947214 C28.5937787,18.4397114 28.5568211,18.3815955 28.5148673,18.3271377 C28.3061934,18.0536753 28.0971088,17.7804199 27.8864502,17.5083379 C27.6971448,17.2636574 27.509003,17.0175965 27.3138802,16.7767812 C27.2388699,16.6838095 27.1527038,16.5970497 27.0612678,16.5191936 C26.8525255,16.342292 26.5035493,16.5038019 26.4981426,16.7335738 C26.4969107,16.7728469 26.4832226,16.8121201 26.4819223,16.8513242 C26.4719985,17.106634 26.4551622,17.3618747 26.4568048,17.6172536 C26.4609112,18.2307149 26.4738463,18.8435551 26.483907,19.4567403 C26.4850705,19.5188595 26.4878081,19.581945 26.4991692,19.6431669 C26.519359,19.7522896 26.5877991,19.8256592 26.6949079,19.8643111 C26.8181685,19.9087608 26.9260301,19.8755616 27.0183558,19.7945996 C27.1082862,19.7153632 27.1563995,19.6159725 27.1525669,19.4929765 C27.1426431,19.1522183 27.1366888,18.8118053 27.1292973,18.4709781 C27.1238905,18.2383763 27.1184153,18.0058435 27.114788,17.7730346 C27.1145142,17.7473587 27.1041113,17.715747 27.1427115,17.6940053 C27.1974636,17.7156779 27.2229233,17.7691004 27.2563905,17.8122387 C27.5458238,18.1828141 27.8322456,18.5555982 28.1224317,18.9256904 C28.2287876,19.0609722 28.3401397,19.1925268 28.4553244,19.3204233 C28.512335,19.3837158 28.5777637,19.4441785 28.6502418,19.4895254 C28.8415319,19.6086562 29.0755286,19.5611696 29.20885,19.3831636 C29.2862557,19.2811501 29.3427873,19.1689215 29.3544905,19.040956 C29.3689998,18.8827592 29.3826878,18.7245623 29.3882999,18.5658133 C29.4049309,18.0720349 29.4147178,17.5784636 29.4343601,17.0848232 C29.4448315,16.8297205 29.4708387,16.575377 29.4889069,16.3206194 C29.4930817,16.2640219 29.4995151,16.2065962 29.4947243,16.1506199 C29.4801466,15.9775145 29.3310156,15.8474093 29.1544401,15.8480305 Z"></path>
                                            <path d="M36.5663893,18.938866 C36.4924739,18.9405225 36.4183533,18.9537746 36.3447117,18.9657843 C36.0503508,19.013271 35.7574272,19.0693853 35.4619028,19.1087274 C35.2578828,19.1359908 35.0508515,19.142893 34.8451205,19.1553858 C34.8012504,19.1580086 34.7562168,19.1465511 34.7102251,19.1415126 C34.6673131,18.9686142 34.6152986,18.8073114 34.6290551,18.6131545 C34.7994025,18.6030774 34.9533928,18.5932763 35.1077252,18.5854079 C35.4400704,18.5678075 35.7705677,18.5354365 36.0994224,18.4811857 C36.2055046,18.4636543 36.2950242,18.4218274 36.3738672,18.3506665 C36.4541475,18.2785392 36.4774171,18.1886044 36.4566113,18.0881094 C36.4193799,17.9123812 36.2387665,17.811265 36.1185856,17.8302458 C36.0508984,17.8409441 35.9829373,17.8530229 35.9144972,17.8585446 C35.5087158,17.8910536 35.1030029,17.9223893 34.6970161,17.9533108 C34.6683397,17.9556575 34.6391842,17.9554505 34.6109869,17.9536559 C34.572592,17.9516543 34.5462426,17.9307408 34.5383035,17.8935384 C34.5226992,17.8216182 34.5041519,17.749974 34.4967604,17.6772946 C34.4888898,17.6003359 34.4723272,17.5215135 34.4953231,17.4346847 C34.5361819,17.4297842 34.5745083,17.4221229 34.6132454,17.4210185 C34.9861071,17.4099061 35.3587635,17.4025208 35.7314199,17.3888546 C35.9205884,17.3820905 36.1092093,17.3637999 36.298104,17.3526874 C36.4189008,17.3458543 36.5197815,17.2982296 36.6033469,17.2145068 C36.6814371,17.1360986 36.7103188,17.0429198 36.6789048,16.9342113 C36.6330499,16.7748411 36.4973332,16.6703428 36.3201417,16.6713091 C36.2172078,16.6722754 36.1146845,16.6924987 36.0114769,16.6961568 C35.5932394,16.7118246 35.1745912,16.7254218 34.7561484,16.7381217 C34.6475339,16.7414348 34.5379613,16.7342565 34.4295522,16.7406755 C34.3382531,16.7460592 34.2467486,16.7580689 34.1574343,16.7781541 C34.041223,16.8041061 33.9527299,16.8708497 33.8873696,16.9729322 C33.8130437,17.08875 33.7915535,17.2114008 33.8029145,17.3457853 C33.8492485,17.8822189 33.893187,18.4188595 33.9802429,18.9508067 C34.008714,19.1237051 34.0517628,19.2946708 34.0906368,19.4656366 C34.1315639,19.6456442 34.2498285,19.7438615 34.4309894,19.7823063 C34.602295,19.8185425 34.77319,19.8099839 34.9449062,19.7990785 C35.1050561,19.7890014 35.2654797,19.7790623 35.425698,19.7698825 C35.6434744,19.7581489 35.8618668,19.7533864 36.0788904,19.7348887 C36.2153599,19.7233621 36.3508029,19.6961677 36.485493,19.6698706 C36.5942444,19.648405 36.6897183,19.5949135 36.7760213,19.5268585 C36.8912745,19.4361645 36.9263158,19.2901844 36.8714268,19.1423408 C36.8225606,19.0109242 36.7154518,18.935691 36.5663893,18.938866 Z"></path>
                                            <path d="M18.3842221,19.2475896 C18.3500021,19.2506266 18.316398,19.2606347 18.2825201,19.2673297 C18.1410544,19.2955594 18.0006153,19.3318647 17.8577124,19.3507075 C17.278709,19.426907 16.6957362,19.4603133 16.1127634,19.4877148 C15.9107282,19.4973777 15.708077,19.4941337 15.5059733,19.4951 C15.3399376,19.4961354 15.1837573,19.4515476 15.0440026,19.3647188 C14.8809783,19.2631885 14.8310854,19.229368 14.9621482,19.0158851 C15.0390749,18.8906805 15.1426248,18.7872866 15.2557563,18.6963165 C15.4816771,18.5149285 15.7095142,18.3356112 15.9424159,18.163265 C16.1288468,18.0248772 16.3306082,17.9103709 16.5408562,17.8118775 C16.735979,17.7204933 16.9380142,17.654578 17.153053,17.6298683 C17.2582455,17.6178586 17.3470807,17.6235184 17.3986161,17.7383008 C17.4313305,17.8107041 17.4963486,17.8533593 17.5743019,17.8681989 C17.7146725,17.8951172 17.8369066,17.8563962 17.9390877,17.7558322 C18.0372992,17.6595475 18.050166,17.5409689 18.0139611,17.4160403 C17.9716651,17.2712336 17.8844724,17.1567963 17.759843,17.0725213 C17.6368561,16.9896267 17.5010025,16.9466264 17.3533772,16.9379988 C17.1785127,16.9278526 17.0076178,16.9564965 16.8376125,16.990455 C16.4993131,17.0581649 16.1877737,17.1960004 15.8908805,17.3682776 C15.4581337,17.6188939 15.0635765,17.9228638 14.6913992,18.2571339 C14.6094764,18.3304346 14.5349451,18.4125699 14.4630145,18.4961547 C14.3715785,18.6020334 14.297321,18.7203359 14.2431849,18.8505101 C14.1144491,19.1607608 14.1663951,19.4434721 14.3742477,19.7004384 C14.5242,19.8863128 14.7165851,20.010137 14.9391524,20.0907539 C15.1606246,20.1711637 15.3898989,20.1908348 15.6223215,20.1864864 C15.8072467,20.1828973 15.9918981,20.175236 16.1769602,20.1695762 C16.1771655,20.1726822 16.1773024,20.1757191 16.1775077,20.178549 C16.5926654,20.149353 17.00796,20.1232629 17.422707,20.0902017 C17.6126283,20.0752241 17.8019337,20.0500313 17.9909653,20.0238722 C18.1108723,20.0073071 18.2311216,19.9864627 18.3481542,19.9562314 C18.4308983,19.9349728 18.5149427,19.9044654 18.5881736,19.8607749 C18.728955,19.776776 18.7663917,19.6417703 18.7233429,19.485299 C18.6748188,19.3099849 18.5239084,19.2350968 18.3842221,19.2475896 Z"></path>
                                            <path d="M25.8999969,18.4227781 C25.7958994,18.2168875 25.6904332,18.0115491 25.5749748,17.7850902 C25.5847617,17.7523051 25.5979022,17.7140673 25.6073469,17.6750703 C25.6408142,17.5344739 25.5870202,17.4077508 25.4635543,17.3356235 C25.443912,17.3238899 25.4233799,17.3093264 25.4017529,17.3064275 C25.3236627,17.2960053 25.2861575,17.2426518 25.2511846,17.1792212 C25.1652923,17.0223358 25.0800844,16.8646221 24.9861161,16.7127753 C24.8646349,16.5168238 24.7389104,16.323219 24.6059997,16.1347909 C24.5506317,16.0561066 24.477743,15.9863951 24.4023904,15.9262085 C24.2967189,15.8419335 24.1735267,15.8291645 24.0443802,15.8717507 C23.9518492,15.9022581 23.8827931,15.9630659 23.8392652,16.0463056 C23.7698669,16.1793096 23.7015637,16.31328 23.6478382,16.4530481 C23.4752322,16.9014105 23.3560096,17.3672353 23.2310379,17.8305063 C23.2145439,17.8915211 23.1970916,17.9521218 23.1791603,18.0166567 C23.1013439,18.0482685 23.0265389,18.0762911 22.953787,18.1088002 C22.9016357,18.1318533 22.8478418,18.1547684 22.8016447,18.1878296 C22.7173949,18.2483612 22.6668861,18.3353971 22.6789316,18.4407926 C22.6962469,18.5967118 22.7461398,18.7360658 22.918951,18.7849329 C22.9399621,18.7905926 22.9589201,18.8039827 22.9862961,18.817787 C22.9815053,18.85354 22.9802049,18.8875675 22.9723343,18.9198695 C22.9470799,19.0208477 22.9208674,19.1217568 22.8922594,19.2217687 C22.8624195,19.3259909 22.8701532,19.4277973 22.9040995,19.5289135 C22.9354451,19.6227825 22.9996419,19.6801392 23.0912148,19.7173416 C23.2279581,19.7730418 23.4303355,19.679725 23.4969278,19.5124174 C23.5160225,19.4644476 23.5270414,19.4130267 23.5388815,19.3622961 C23.5947287,19.1258981 23.651534,18.8895692 23.7036853,18.6522739 C23.7213429,18.5710358 23.7599431,18.5202362 23.8394705,18.4917994 C24.1794125,18.370736 24.517712,18.2454623 24.8573118,18.1233637 C24.887357,18.1125963 24.9218508,18.1154262 24.9564815,18.111354 C24.989059,18.1679514 25.0188989,18.2168185 25.0449746,18.2677562 C25.2192231,18.6067889 25.3927872,18.9460976 25.5662829,19.2854063 C25.5874309,19.326543 25.6057728,19.3693362 25.6293162,19.4087474 C25.7551776,19.6161564 26.0229837,19.6234727 26.1556207,19.420343 C26.242608,19.2869248 26.2692997,19.1476398 26.1877191,18.9955859 C26.0869068,18.8072267 25.996429,18.613691 25.8999969,18.4227781 Z M23.9798412,17.7012294 C23.98121,17.6712741 23.9781302,17.6442868 23.9844266,17.6196462 C24.1094667,17.1171711 24.1629869,16.9533835 24.2324536,16.8537168 C24.3290226,16.9457912 24.552548,17.3294806 24.5994295,17.4841574 C24.4949214,17.5497276 24.2736545,17.6275836 23.9798412,17.7012294 Z"></path>
                                            <path d="M22.2066794,17.1502095 C22.151106,17.1382688 22.0937532,17.1332993 22.0311989,17.1238433 C22.0264766,17.0933359 22.0197694,17.0653133 22.0182637,17.0368765 C22.0066974,16.7977867 21.9969104,16.5582138 21.9838384,16.3189859 C21.9801426,16.2494124 21.9752149,16.1778373 21.9563939,16.1113008 C21.9080752,15.9427508 21.7580545,15.8553698 21.5772357,15.8822191 C21.3772537,15.9116222 21.2706924,16.0299937 21.2732932,16.2209757 C21.2737038,16.2501027 21.2776733,16.2791606 21.279179,16.3083566 C21.2948518,16.6179172 21.3108668,16.9272016 21.324897,17.2364861 C21.3266764,17.2755522 21.3168211,17.3152394 21.3118249,17.3574804 C20.9991221,17.4205659 20.7096204,17.5419744 20.4067045,17.6017468 C20.3655036,17.5403179 20.3789863,17.4803384 20.3784387,17.4233958 C20.3770015,17.1663605 20.3789863,16.908911 20.3761802,16.6518066 C20.3754274,16.5820951 20.366188,16.5119695 20.3520893,16.4437074 C20.3330629,16.3529444 20.2744782,16.2890307 20.1947455,16.2444429 C19.956437,16.1115079 19.6604336,16.2823356 19.6568062,16.5574545 C19.6556427,16.6449045 19.6713155,16.7322165 19.6718631,16.8197355 C19.6742585,17.1236363 19.6739847,17.4276751 19.6730265,17.731714 C19.6730265,17.7709871 19.6631027,17.8101912 19.6583804,17.8455301 C19.5446329,17.8812831 19.4388929,17.9109623 19.3356168,17.9480957 C19.2306981,17.9852982 19.159452,18.0601863 19.1313231,18.1703443 C19.0719855,18.4017038 19.286203,18.6371354 19.5198576,18.5984835 C19.5638646,18.5913743 19.6072556,18.5812282 19.6472931,18.5734288 C19.6845929,18.6395512 19.6730265,18.6991856 19.6740531,18.7564733 C19.6759695,18.8968626 19.6768592,19.0372519 19.6756957,19.1773652 C19.6749429,19.2621233 19.6991707,19.338737 19.7424932,19.409967 C19.8201728,19.5386917 19.9652658,19.5917 20.1037886,19.536483 C20.2625012,19.4733285 20.3647507,19.3624113 20.3644085,19.1808853 C20.3639979,19.0000494 20.3583173,18.8190066 20.3544847,18.6380327 C20.3527737,18.5679071 20.3497623,18.4978504 20.34723,18.4278628 C20.3459981,18.3735431 20.3731688,18.3405509 20.423883,18.3257113 C20.4461944,18.3190162 20.4677531,18.3099744 20.4899277,18.3034864 C20.7340535,18.2303929 20.9784532,18.1569542 21.2229212,18.084965 C21.2607686,18.0737145 21.3001901,18.0694352 21.3520677,18.0593581 C21.3591855,18.1246522 21.3679458,18.1812497 21.3709572,18.2383303 C21.3896413,18.5943422 21.4073673,18.9504921 21.4232454,19.3069182 C21.426599,19.3835318 21.4365913,19.4575917 21.4674577,19.5286146 C21.5330918,19.6794261 21.6841391,19.7486545 21.8399088,19.6980619 C22.0201801,19.6396008 22.1190076,19.4934137 22.1094944,19.2980144 C22.1044298,19.1927569 22.0953273,19.0880516 22.0916315,18.9827251 C22.0791754,18.6382398 22.0726736,18.2932023 22.0262028,17.9509946 C22.0232599,17.9287698 22.0275716,17.9054406 22.028256,17.890532 C22.0377007,17.8783842 22.0404383,17.8717582 22.0451607,17.8699636 C22.0823237,17.8556762 22.1195551,17.8413198 22.157334,17.8292411 C22.2481541,17.8007353 22.3226853,17.7522133 22.3872244,17.6791197 C22.5153443,17.5334158 22.4714057,17.2074972 22.2066794,17.1502095 Z"></path>
                                            <path d="M32.8938547,18.5628845 C32.866684,18.2718907 32.8408821,17.9809659 32.812411,17.6899721 C32.782708,17.3877278 32.7513624,17.0856215 32.7202906,16.7833772 C32.7002376,16.5917741 32.677584,16.40024 32.657531,16.2084988 C32.6448012,16.0900583 32.5905966,15.9990192 32.4930694,15.9355886 C32.3183418,15.8219795 32.1262305,15.8791982 32.0332888,16.0690068 C31.996468,16.1450682 31.9856545,16.2244427 31.9945517,16.3074063 C32.0123461,16.4758873 32.0304143,16.6444374 32.0478665,16.8129184 C32.0976909,17.2955843 32.1471047,17.7780433 32.1956287,18.2607092 C32.2005564,18.3113018 32.19645,18.3630678 32.19645,18.4465836 C32.1480628,18.4065512 32.1242457,18.3909524 32.1050825,18.3707292 C31.9165984,18.1754679 31.7274299,17.9810349 31.5417519,17.7830818 C31.2848278,17.5094814 31.031394,17.2322918 30.7741277,16.9586223 C30.6796803,16.8575061 30.5813319,16.759772 30.4795614,16.665972 C30.4249462,16.6156555 30.3641714,16.5689281 30.2994271,16.5342794 C30.1084792,16.4324729 29.8792732,16.5406293 29.830407,16.753422 C29.8160346,16.8158173 29.8077533,16.8806283 29.8061792,16.9443349 C29.8018675,17.0845172 29.7961185,17.2254587 29.8039207,17.3652268 C29.8397833,17.9957364 29.8794786,18.6255558 29.9187632,19.2559274 C29.9215008,19.3021027 29.928687,19.3493823 29.9408009,19.3941771 C29.9799486,19.5349805 30.0913007,19.6178751 30.2328348,19.6158735 C30.4059883,19.6133197 30.5593626,19.4624392 30.5695602,19.2832598 C30.5718871,19.2366014 30.5692864,19.189736 30.5660013,19.1431466 C30.5472487,18.8749298 30.5289068,18.6067821 30.5079641,18.3387033 C30.495508,18.1754679 30.4772345,18.0127847 30.4642309,17.8496874 C30.4599876,17.7941942 30.4636833,17.7374587 30.4636833,17.6608451 C30.4985193,17.6843813 30.518367,17.693009 30.5324656,17.7077796 C30.5963887,17.7742471 30.6597642,17.8423021 30.7219763,17.9104951 C31.0611655,18.2813466 31.4017235,18.6512318 31.7749274,18.9870894 C31.8820361,19.0831671 31.9933882,19.1748274 32.1081623,19.2608279 C32.1719484,19.3084526 32.2444265,19.3466904 32.3172468,19.3783712 C32.6368621,19.5165519 32.9202726,19.2270765 32.9204779,18.982534 C32.9206832,18.9243491 32.9204779,18.865819 32.9166453,18.807358 C32.9111016,18.7255677 32.9015884,18.6443296 32.8938547,18.5628845 Z"></path>
                                            <path d="M41.2387255,18.9892669 C41.171928,18.9335667 41.0959594,18.8959501 41.0097249,18.8869773 C40.8922817,18.8745535 40.77477,18.8597829 40.6572583,18.856884 C40.4158016,18.8507411 40.1739343,18.8493607 39.9322038,18.8499819 C39.5267646,18.8505341 39.1251581,18.8945697 38.7280686,18.9823648 C38.6747537,18.9940984 38.6197279,19.0130792 38.5547098,18.986299 C38.5509456,18.9617274 38.5438962,18.9341879 38.5428012,18.9065104 C38.5360256,18.749694 38.5290447,18.5932227 38.5259649,18.4362682 C38.5130982,17.8030668 38.5025584,17.1699344 38.4894179,16.537009 C38.4852431,16.3278745 38.3785449,16.1946633 38.1912243,16.1504207 C38.1079327,16.1309567 38.0292951,16.1444158 37.969889,16.2017725 C37.8703771,16.2974361 37.7801046,16.4028316 37.79742,16.5608904 C37.8000891,16.5840125 37.798515,16.6074107 37.7988572,16.6306709 C37.8152144,17.4322153 37.8315716,18.2340358 37.8484078,19.0354422 C37.8496398,19.09342 37.8526511,19.151605 37.8606586,19.2090998 C37.8976847,19.4743486 38.0581083,19.6508361 38.3099679,19.7100564 C38.4217991,19.7362845 38.5329458,19.7323503 38.6449138,19.7116439 C38.8048584,19.6818267 38.9645976,19.6468329 39.1253634,19.6206738 C39.7175757,19.5245961 40.3129362,19.5321885 40.9079545,19.5780876 C41.0136944,19.5861631 41.1036247,19.5649736 41.1982774,19.5179701 C41.3943583,19.420443 41.404419,19.1277927 41.2387255,18.9892669 Z"></path>
                                        </g>
                                        <path d="M27.1742289,3.6423096 C27.0427554,2.80418391 26.2733517,2.37790834 25.5855971,2.37252468 C24.8642383,2.42905312 24.426427,2.90882021 24.3423141,3.53946786 C24.3000181,3.51337781 24.25957,3.4825943 24.2196694,3.44815267 C23.9164113,3.18663095 23.5718838,3.04071992 23.1886876,3.00772773 C23.3330278,2.76877598 23.4318553,2.48613374 23.455604,2.21715772 C23.4570413,1.46668909 22.8863192,0.974084043 22.0489545,0.940884795 C21.2718855,0.940884795 20.6418943,1.51224315 20.6418943,2.21715772 C20.6418943,2.67380267 21.0579417,3.14287145 21.4639969,3.37222924 C21.3065162,3.45132765 21.1538947,3.5438162 21.0059272,3.64914271 C20.9669163,3.67688927 20.9280424,3.70498094 20.8897159,3.73459108 C20.4972803,4.03800873 20.1729426,4.40064666 19.968033,4.8598454 C19.8916538,5.03081117 19.8443617,5.20743668 19.8425822,5.39752135 C19.8397077,5.72903068 19.9359345,6.02775488 20.1262665,6.29514341 C20.1283881,6.29818035 20.1299622,6.3012863 20.1320839,6.30439226 C20.3821641,6.64735912 20.7552995,6.89293692 21.1864722,6.97479619 C21.1889361,6.97534836 21.1918105,6.97576248 21.1945481,6.97631465 C21.2029663,6.97804019 21.2114528,6.97997278 21.2205554,6.98225049 C21.4800118,7.04920115 21.7456963,7.07218524 21.9042721,7.0781901 C22.2599553,7.08667972 22.5005907,7.04726855 22.7358878,6.97514129 C23.5272608,6.73225532 24.1966051,6.29528145 24.7563083,5.68761789 C24.9131046,5.51741136 25.0484791,5.3322272 25.150934,5.12668176 C25.3853413,5.23918648 25.6523262,5.28853671 25.9282083,5.25506138 C26.8984153,5.10404277 27.2688816,4.43840132 27.1742289,3.6423096 Z M21.1409595,4.90284567 C21.0349458,5.00347873 20.9311222,5.10839111 20.828462,5.21730673 C20.7842497,5.26582871 20.7413377,5.3144197 20.7006843,5.3630107 C20.6906236,5.32822396 20.6825477,5.29288506 20.677004,5.25830538 C20.6676962,5.22034367 20.6665327,5.1838314 20.6709129,5.14842347 C20.6960988,4.76887532 21.2451938,4.20000173 22.312928,4.02392839 C21.9071466,4.26819478 21.493563,4.57513252 21.1409595,4.90284567 Z M22.2205338,6.13114879 C21.9353439,6.13114879 21.6962826,6.09208273 21.4917835,6.02692662 C21.5133422,6.00235504 21.5365434,5.97688618 21.560429,5.9507271 C21.581577,5.91842513 21.6105956,5.89323236 21.6365344,5.86638307 C21.7064117,5.79432483 21.7773157,5.72337093 21.848904,5.65303822 C21.8740215,5.62832859 21.899755,5.60327386 21.9258991,5.57808108 C21.9566288,5.54847094 21.9874952,5.51920591 22.0184986,5.4900099 C22.0325288,5.47696487 22.0465591,5.46364376 22.0607262,5.45046069 C22.1561317,5.36176832 22.2527691,5.27480148 22.3513913,5.19004331 C22.9345695,4.68673997 23.6116475,4.21732608 24.0225619,4.21560055 C24.4483278,4.21560055 24.5242963,4.55987881 24.5242963,4.69115733 C24.5242963,5.48020888 22.9143112,6.12838794 22.2205338,6.13114879 Z"></path>
                                    </g>
                                </g>
                            </g>
                        </g>
                    </g>
                </g>
            </g>
        </g>
    </g>
</svg>