<?xml version="1.0" encoding="UTF-8"?>
<svg width="111px" height="98px" viewBox="0 0 111 98" version="1.1" xmlns="http://www.w3.org/2000/svg" xmlns:xlink="http://www.w3.org/1999/xlink">
    <!-- Generator: Sketch 47.1 (45422) - http://www.bohemiancoding.com/sketch -->
    <title>DVR 4</title>
    <desc>Created with Sketch.</desc>
    <defs></defs>
    <g id="High-Fidelity" stroke="none" stroke-width="1" fill="none" fill-rule="evenodd">
        <g id="home" transform="translate(-878.000000, -525.000000)">
            <g id="2" transform="translate(0.000000, 469.000000)">
                <g id="DVR" transform="translate(794.000000, 56.000000)">
                    <g id="DVR-4" transform="translate(84.000000, 0.000000)">
                        <path d="M69.4487788,47.3336783 L73.8537211,47.3336783 C75.2488026,47.3336783 76.336307,46.9831318 77.1198961,46.2820386 C77.9034852,45.5809455 78.2916181,44.6107459 78.2916181,43.3749808 C78.2916181,42.15692 77.9108084,41.2079657 77.1491892,40.524577 C76.3875699,39.8411882 75.2890805,39.5012643 73.8537211,39.5012643 L69.4487788,39.5012643 L69.4487788,47.3336783 Z M73.7987966,49.3519767 L69.4487788,49.3519767 L69.4487788,56.8550894 L67.1858908,56.8550894 L67.1858908,37.479425 L73.8280897,37.479425 C75.9628207,37.479425 77.6288628,37.9893109 78.8225546,39.0161645 C80.0162464,40.0394772 80.6094306,41.4841539 80.6094306,43.3466538 C80.6094306,44.74884 80.2176361,45.9598191 79.4377086,46.9725091 C78.6577812,47.9887401 77.5666151,48.6792106 76.1751953,49.0474615 L81.2978173,56.8550894 L78.5772253,56.8550894 L73.7987966,49.3519767 Z M47.0469194,37.479425 L49.5661216,37.479425 L55.5492269,54.3906409 L61.5030392,37.479425 L63.9636553,37.479425 L56.6953175,56.8550894 L54.3189189,56.8550894 L47.0469194,37.479425 Z M43.1582671,47.1672572 C43.1582671,44.74884 42.4955118,42.8686358 41.1553548,41.5195626 C39.8225211,40.1740304 37.9587508,39.5012643 35.5750289,39.5012643 L31.5984975,39.5012643 L31.5984975,54.8332502 L35.5750289,54.8332502 C37.9587508,54.8332502 39.8225211,54.160484 41.1553548,52.8114109 C42.4955118,51.4658787 43.1582671,49.5856744 43.1582671,47.1672572 L43.1582671,47.1672572 Z M45.4797412,47.1672572 C45.4797412,49.1784738 45.0696385,50.9135023 44.2494332,52.3688016 C43.4292278,53.8276419 42.2794756,54.9394764 40.8001766,55.7043053 C39.317216,56.472675 37.5889261,56.8550894 35.604322,56.8550894 L29.3356094,56.8550894 L29.3356094,37.479425 L35.604322,37.479425 C37.6438505,37.479425 39.4124184,37.8795438 40.8990406,38.6833223 C42.3856629,39.4871008 43.5244302,40.6166397 44.3080193,42.0754799 C45.0879467,43.5307793 45.4797412,45.230399 45.4797412,47.1672572 L45.4797412,47.1672572 Z M92.2387712,35.8400002 L92.2277863,91.5025448 C92.2277863,93.3367178 90.6862396,94.8309667 88.7895146,94.8309667 L70.8914615,94.8309667 L70.8914615,70.3387389 C70.8914615,68.0619567 68.9764284,66.2171612 66.6256612,66.2171612 L44.1029679,66.2171612 C41.7522007,66.2171612 39.8371676,68.0619567 39.8371676,70.3387389 L39.8371676,83.2452259 C39.8371676,83.9781869 40.4523216,84.5730538 41.2102793,84.5730538 C41.9682369,84.5730538 42.583391,83.9781869 42.583391,83.2452259 L42.583391,70.3387389 C42.583391,69.5278787 43.268116,68.8728169 44.1029679,68.8728169 L66.6256612,68.8728169 C67.4605131,68.8728169 68.1452381,69.5278787 68.1452381,70.3387389 L68.1452381,94.8309667 L21.9391145,94.8309667 C20.0460512,94.8309667 18.5008428,93.3367178 18.5008428,91.5025448 L18.5337975,35.7408557 C18.5337975,35.6806609 18.5081661,35.6310886 18.4971812,35.5744346 L51.9864598,4.91046283 C53.8062905,3.15418916 56.9552933,3.15064829 58.8117403,4.9564942 L92.2827108,35.6169251 C92.2680642,35.6912835 92.2387712,35.762101 92.2387712,35.8400002 L92.2387712,35.8400002 Z M110.125839,48.300337 L60.730435,3.05504468 C59.3023989,1.67056281 57.3983507,0.905733953 55.3624837,0.905733953 C53.3522482,0.905733953 51.4665082,1.65994019 50.0714267,3.00547244 L0.606451329,48.300337 C0.0572066549,48.806682 0.0315752368,49.6458693 0.555188493,50.1805413 C1.07514012,50.7116724 1.9429467,50.7329177 2.49585301,50.2301135 L15.7875741,38.0601284 L15.7546194,91.5025448 C15.7546194,94.8026397 18.5301359,97.4866225 21.9391145,97.4866225 L88.7895146,97.4866225 C92.2021549,97.4866225 94.9740097,94.8026397 94.9740097,91.5025448 L94.9849946,38.0884554 L108.240099,50.2301135 C108.503737,50.4744339 108.844269,50.5948236 109.1848,50.5948236 C109.547302,50.5948236 109.913465,50.4531886 110.180764,50.1805413 C110.700716,49.6458693 110.678746,48.806682 110.125839,48.300337 L110.125839,48.300337 Z" id="Fill-6" fill="#009FDB"></path>
                        <ellipse id="Oval" stroke="#009FDB" stroke-width="2" fill="#FFFFFF" cx="88.3958333" cy="30.6826347" rx="9.39583333" ry="9.68263473"></ellipse>
                        <text id="4" font-family="OpenSans, Open Sans" font-size="16" font-weight="normal" letter-spacing="0.100000009" fill="#009FDB">
                            <tspan x="83.4799479" y="38">4</tspan>
                        </text>
                    </g>
                </g>
            </g>
        </g>
    </g>
</svg>