<?xml version="1.0" encoding="UTF-8"?>
<svg width="58px" height="24px" viewBox="0 0 58 24" version="1.1" xmlns="http://www.w3.org/2000/svg" xmlns:xlink="http://www.w3.org/1999/xlink">
    <!-- Generator: Sketch 47.1 (45422) - http://www.bohemiancoding.com/sketch -->
    <title>Nick Logo</title>
    <desc>Created with Sketch.</desc>
    <defs></defs>
    <g id="Symbols" stroke="none" stroke-width="1" fill="none" fill-rule="evenodd">
        <g id="Card/SELECT" transform="translate(-223.000000, -214.000000)" fill="#F58220">
            <g id="SELECT-Card">
                <g id="Detail/Channels" transform="translate(38.000000, 169.000000)">
                    <g id="Logos" transform="translate(2.400000, 44.474004)">
                        <g id="Nick-Logo" transform="translate(183.307087, 1.000000)">
                            <g id="Layer_1">
                                <g id="Group" transform="translate(0.000000, 0.000000)">
                                    <path d="M20.4625406,5.64820799 C21.0294506,5.04906712 21.3788193,4.22229006 21.3788193,3.30891489 C21.3788193,2.39331153 21.0296772,1.56653447 20.4625406,0.969862671 C19.9134759,0.38951082 19.1620526,0.0225227345 18.3304676,0 L18.1687847,0 C17.3371997,0.0222818496 16.5856064,0.389089271 16.0365983,0.969862671 C15.4698017,1.56653447 15.1181102,2.39331153 15.1181102,3.30891489 C15.1181102,4.22229006 15.4695185,5.04906712 16.0365983,5.64820799 L16.7272348,6.37839023 C17.8805993,7.60015824 17.9622339,7.92240196 16.8657473,9.08129903 L16.2369175,9.7457197 C15.7221834,10.2927692 15.4027832,11.0438482 15.4027832,11.8758645 L15.4027832,22.5780176 L21.0936365,22.5780176 L21.0936365,11.8761054 C21.0936365,11.0440891 20.7768989,10.2927692 20.2620516,9.74596058 L19.6331651,9.08382832 C18.5365085,7.92456993 18.6184263,7.60009802 19.7717342,6.37833001 L20.4625406,5.64820799 L20.4625406,5.64820799 Z" id="Shape"></path>
                                    <path d="M7.37040034,7.52708515 C5.34324558,7.52455586 3.48332556,8.40727843 2.15751434,9.82018858 C0.829040507,11.2251495 -0.00231785044,13.1993816 4.85434675e-06,15.3536149 L4.85434675e-06,22.5016925 L5.59415434,22.5016925 L5.59415434,15.4739369 C5.596647,14.6174708 5.78835512,13.8865659 6.11557324,13.3190412 C6.44534067,12.760369 6.87084886,12.4285501 7.37017373,12.4263821 C7.86955526,12.4285501 8.2952334,12.760369 8.62500083,13.3190412 C8.95187904,13.8865659 9.14375711,14.617531 9.14641973,15.4739369 L9.14641973,22.5016925 L14.7428919,22.5016925 L14.7428919,15.3536149 C14.7428919,13.1994418 13.9115336,11.2251495 12.5830597,9.82018858 C11.2571352,8.40727843 9.39761175,7.52425475 7.37040034,7.52708515 L7.37040034,7.52708515 Z" id="Shape"></path>
                                    <path d="M30.3355878,17.8395399 C30.0066135,18.4839671 29.5799157,18.8681785 29.0843298,18.8706476 C28.5864212,18.8679376 28.1592701,18.4839671 27.8305791,17.8395399 C27.50693,17.1867419 27.3131824,16.3410554 27.3131824,15.35138 C27.3131824,14.3618852 27.50693,13.5189688 27.8305791,12.8634609 C28.1592701,12.2187326 28.5861946,11.8347621 29.0843298,11.8323533 C29.5799157,11.835003 30.0066135,12.2187326 30.3355878,12.8634609 C30.5762427,13.3490848 30.7430809,13.9391925 30.8138951,14.6149949 L36.4020395,14.6149949 C36.2379206,12.7534367 35.4550558,11.064593 34.282713,9.8193387 C32.9601876,8.40703076 31.10344,7.52707836 29.0843298,7.52707836 C27.0629535,7.52707836 25.2059227,8.40678988 23.8860032,9.8193387 C22.5589456,11.2262267 21.72974,13.2001577 21.7322893,15.3511391 C21.7297967,17.5021204 22.5589456,19.4761719 23.8860032,20.8831804 C24.9040843,21.9669816 26.675345,23.1755009 29.0843298,23.1755009 C30.8922439,23.1755009 32.5678771,22.4678414 33.8484239,21.3090648 C34.7808482,20.4656064 36.1643872,18.7738118 36.4020395,16.0874639 L30.8138951,16.0874639 C30.7431376,16.7635675 30.5762427,17.3536149 30.3355878,17.8395399 L30.3355878,17.8395399 Z" id="Shape"></path>
                                    <path d="M50.889218,21.5302481 C50.889218,21.3324816 50.8327932,21.147482 50.7416979,20.9911478 L47.6772005,16.0805292 L49.7995295,11.9991568 C50.5844338,10.5890168 50.1416469,8.76961348 48.8111336,7.93831982 C47.4798839,7.10678528 45.7634617,7.57578811 44.9790107,8.98869826 L42.4458462,13.787486 L42.4458462,10.5869091 C42.4458462,8.95015668 41.1936817,7.62330265 39.6490264,7.62330265 C38.104541,7.62330265 36.8503937,8.9502169 36.8503937,10.5869091 L36.8503937,22.5680403 L42.4459028,22.5680403 L42.4459028,17.8768076 L45.397664,22.5658723 L49.9157214,22.5631624 L49.9157214,22.5631624 C50.4540224,22.5626204 50.889218,22.1009645 50.889218,21.5302481 L50.889218,21.5302481 Z" id="Shape"></path>
                                    <polygon id="Shape" points="56.6669219 9.55701509 56.6669219 7.52707836 56.6224506 7.52707836 55.7418622 8.61027736 54.8573649 7.52707836 54.8031496 7.52707836 54.8031496 9.55701509 55.1369959 9.55701509 55.1369959 8.299837 55.7109873 9.04736294 55.7730205 9.04736294 56.3471818 8.299837 56.3471818 9.55701509"></polygon>
                                    <polygon id="Shape" points="52.5192682 7.83691652 51.9685039 7.83691652 51.9685039 7.52707836 53.4037089 7.52707836 53.4037089 7.83691652 52.8530012 7.83691652 52.8530012 9.52317076 52.5192682 9.52317076"></polygon>
                                </g>
                            </g>
                        </g>
                    </g>
                </g>
            </g>
        </g>
    </g>
</svg>