<?xml version="1.0" encoding="UTF-8"?>
<svg width="37px" height="23px" viewBox="0 0 37 23" version="1.1" xmlns="http://www.w3.org/2000/svg" xmlns:xlink="http://www.w3.org/1999/xlink">
    <!-- Generator: Sketch 47.1 (45422) - http://www.bohemiancoding.com/sketch -->
    <title>TBS Logo</title>
    <desc>Created with Sketch.</desc>
    <defs>
        <linearGradient x1="49.6659233%" y1="0.194931577%" x2="49.6659233%" y2="100.228607%" id="linearGradient-1">
            <stop stop-color="#01445F" offset="0%"></stop>
            <stop stop-color="#904B79" offset="100%"></stop>
        </linearGradient>
        <linearGradient x1="222.893424%" y1="-0.343160358%" x2="222.893424%" y2="104.499773%" id="linearGradient-2">
            <stop stop-color="#EFDD25" offset="0%"></stop>
            <stop stop-color="#F7A657" offset="50%"></stop>
            <stop stop-color="#C86289" offset="100%"></stop>
        </linearGradient>
        <linearGradient x1="57.4752456%" y1="-0.329394613%" x2="57.4752456%" y2="100.307805%" id="linearGradient-3">
            <stop stop-color="#EFDD25" offset="0%"></stop>
            <stop stop-color="#F7A657" offset="50%"></stop>
            <stop stop-color="#C86289" offset="100%"></stop>
        </linearGradient>
        <linearGradient x1="-53.2476789%" y1="-25.9847419%" x2="-53.2476789%" y2="103.46667%" id="linearGradient-4">
            <stop stop-color="#EFDD25" offset="0%"></stop>
            <stop stop-color="#F7A657" offset="50%"></stop>
            <stop stop-color="#C86289" offset="100%"></stop>
        </linearGradient>
    </defs>
    <g id="Symbols" stroke="none" stroke-width="1" fill="none" fill-rule="evenodd">
        <g id="Card/SELECT" transform="translate(-104.000000, -215.000000)">
            <g id="SELECT-Card">
                <g id="Detail/Channels" transform="translate(38.000000, 169.000000)">
                    <g id="Logos" transform="translate(2.400000, 44.474004)">
                        <g id="TBS-Logo" transform="translate(64.251969, 1.940885)">
                            <g id="svg2">
                                <g id="layer1" transform="translate(0.039861, 0.005103)">
                                    <polygon id="path3061" fill="url(#linearGradient-1)" points="5.87002653 21.6362904 0 15.5207704 0 0 29.945073 0 35.6167879 6.11551995 35.6167879 21.6362904"></polygon>
                                    <polygon id="path2996" fill="url(#linearGradient-2)" points="2.83464567 3.76353918 2.83464567 14.2262855 6.44608816 18.0580744 6.44608816 11.4015147 9.22288617 11.4015147 9.22288617 7.43318105 6.44608816 7.43318105 6.44608816 3.76353918"></polygon>
                                    <path d="M11.3385827,3.76353918 L11.3385827,18.2714256 L14.5166521,18.2714256 L14.5166521,17.4777589 C15.4333085,18.2137682 16.5699278,18.6554579 17.8070775,18.6554579 C20.8299543,18.6554579 23.2804192,16.0496913 23.2804192,12.8352352 C23.2804192,9.62077861 20.8299543,7.01501256 17.8070775,7.01501256 C17.7126126,7.01501256 17.6194771,7.00998771 17.5261875,7.01501256 C16.5853433,7.06572694 15.7068161,7.37389165 14.9500252,7.86841764 L14.9500252,3.76353918 L11.3385827,3.76353918 Z M17.8070775,10.7614609 C18.8804179,10.7614609 19.749231,11.6938702 19.749231,12.8352352 C19.749231,13.9766002 18.8804179,14.9004755 17.8070775,14.9004755 C16.733737,14.9004755 15.8649239,13.9766002 15.8649239,12.8352352 C15.8649239,11.6938702 16.733737,10.7614609 17.8070775,10.7614609 Z" id="path3001" fill="url(#linearGradient-3)"></path>
                                    <path d="M28.1654199,11.4637064 C27.9061233,11.4149779 27.6886463,11.2367192 27.6886463,10.9567166 C27.6886463,10.676714 27.9021052,10.4497268 28.1654199,10.4497268 L32.989249,10.4497268 L30.2407883,7.52707845 C26.9173947,7.52707845 25.9673577,7.52334804 24.4949642,9.08905444 C23.7096192,9.92417181 23.7342296,10.8225127 23.7342296,11.1654767 C23.7342296,11.7619356 23.2794372,14.2489448 29.118967,15.1915742 C29.3792991,15.2335978 29.5957406,15.4185614 29.5957406,15.698564 C29.5957406,15.9785667 29.3822817,16.2055538 29.118967,16.2055538 L23.6220472,16.2055538 L26.3424618,19.0983786 C30.0024015,19.0983786 31.2909945,19.2714557 32.7333336,17.7377068 C33.552143,16.8670042 33.6342956,16.0415269 33.6342956,15.3705108 C33.6342956,14.028479 33.3059208,12.4297385 28.1654199,11.4637064 L28.1654199,11.4637064 Z" id="path3873" fill="url(#linearGradient-4)"></path>
                                </g>
                            </g>
                        </g>
                    </g>
                </g>
            </g>
        </g>
    </g>
</svg>