<?xml version="1.0" encoding="UTF-8"?>
<svg width="106px" height="86px" viewBox="0 0 106 86" version="1.1" xmlns="http://www.w3.org/2000/svg" xmlns:xlink="http://www.w3.org/1999/xlink">
    <!-- Generator: Sketch 47.1 (45422) - http://www.bohemiancoding.com/sketch -->
    <title>TV</title>
    <desc>Created with Sketch.</desc>
    <defs></defs>
    <g id="High-Fidelity" stroke="none" stroke-width="1" fill="none" fill-rule="evenodd">
        <g id="home" transform="translate(-556.000000, -539.000000)" fill="#009FDB">
            <g id="2" transform="translate(0.000000, 469.000000)">
                <g id="Never-miss-a-show" transform="translate(479.000000, 70.000000)">
                    <path d="M181,62.1651341 L181,4.83148682 C181,3.82112785 180.124618,3 179.052721,3 L92.9508516,3 C91.8753821,3 91,3.82112785 91,4.83148682 L91,23.2105584 C91.6574298,23.1531132 92.3220056,23.1058055 93.0080194,23.0956681 L93.0258843,23.0956681 L93.0437493,23.0990472 L93.0437493,23.0956681 C93.8798285,23.1091846 94.6944698,23.1632506 95.4876732,23.2443497 L95.4876732,10.292156 C95.4876732,8.73099934 96.8275438,7.4604476 98.4746913,7.4604476 L173.532455,7.4604476 C175.176029,7.4604476 176.512327,8.73099934 176.512327,10.292156 L176.512327,56.0793264 C176.512327,57.6371039 175.172456,58.9076557 173.528882,58.9076557 L125.150621,58.9076557 C124.411013,58.9076557 123.810751,58.3399623 123.810751,57.640483 C123.810751,56.9410038 124.411013,56.3733104 125.150621,56.3733104 L173.528882,56.3733104 C173.696812,56.3733104 173.832586,56.2415245 173.832586,56.0793264 L173.832586,10.292156 C173.832586,10.1299579 173.696812,9.99479282 173.532455,9.99479282 L98.4746913,9.99479282 C98.3067609,9.99479282 98.1674143,10.1299579 98.1674143,10.292156 L98.1674143,23.4369599 C98.1674143,23.5180589 98.1352575,23.5890206 98.1173925,23.6667405 C102.17988,24.5216596 105.413434,26.2112231 107.132042,27.883891 C108.228949,28.9516951 108.797054,30.0735653 108.782762,31.1346111 C108.747032,33.1249169 108.057446,35.3010747 107.260669,37.8185243 C106.281671,40.9070463 105.177617,44.4044427 105.113303,48.2532683 C105.081147,50.3246732 105.760014,53.3084423 106.360276,55.9441613 C106.764024,57.7013073 107.139188,59.3638378 107.271388,60.6005983 C107.382151,61.6717815 107.450038,62.8173056 107.475049,64 L179.052721,64 C180.124618,64 181,63.1788721 181,62.1651341 Z M178.390703,0 C180.932045,0 183,1.96217047 183,4.37845293 L183,61.8778421 C183,64.2941246 180.932045,66.259684 178.390703,66.259684 L136.839404,66.259684 L136.839404,73.6203649 L156.009808,73.6203649 C156.746583,73.6203649 157.344546,74.1896993 157.344546,74.8912007 C157.344546,75.5927021 156.746583,76.1620365 156.009808,76.1620365 L114.992404,76.1620365 C114.255628,76.1620365 113.657665,75.5927021 113.657665,74.8912007 C113.657665,74.1896993 114.255628,73.6203649 114.992404,73.6203649 L134.169927,73.6203649 L134.169927,66.259684 L107.076515,66.259684 C106.934143,70.9363597 106.119062,75.7350357 104.456868,78.3275407 C99.8974012,85.4340545 94.3021774,85.9966111 92.6969319,86 C91.721683,85.9966111 89.7498293,85.8136107 87.4398419,84.607164 C86.7956081,84.2648855 86.5606941,83.4922174 86.9166244,82.8788273 C87.2725546,82.2654372 88.0840757,82.045159 88.7283094,82.3772708 C90.5150794,83.3159948 91.9779528,83.4549395 92.6933726,83.4583284 C93.9533658,83.4549395 98.3455453,82.9804941 102.175355,77.0058715 C103.958566,74.2269772 104.876866,66.8459629 104.225513,60.5595618 C104.111616,59.4649486 103.752126,57.8653899 103.367721,56.1709422 C102.741284,53.3988257 102.029424,50.2539307 102.065017,47.8884817 C102.132643,43.6760846 103.292976,39.9889664 104.318055,36.7356267 C105.054831,34.3871222 105.691946,32.3605627 105.72042,30.7169484 C105.72398,30.5847815 105.663472,30.083225 104.830595,29.2665012 C102.905012,27.3788864 98.2850371,25.3150491 92.6933726,25.2404934 C87.1017081,25.3150491 82.4817332,27.3788864 80.5561505,29.2665012 C79.7232737,30.083225 79.6663248,30.5813926 79.6698841,30.7169484 C79.6983586,32.3605627 80.3354737,34.3871222 81.0722494,36.7356267 C82.0937693,39.9889664 83.2541019,43.6760846 83.3217287,47.8884817 C83.3573217,50.2539307 82.6490205,53.3920479 82.0225832,56.1641644 C81.6381785,57.8586121 81.2751296,59.4615597 81.1647913,60.5595618 C80.8836063,63.2808449 80.880047,66.3274619 81.161232,69.1504118 C81.3463157,71.0109154 81.6524157,72.7460299 82.0510576,74.1659771 C82.2397007,74.8437562 81.8161436,75.5418686 81.1042831,75.7214801 C80.9868261,75.7519801 80.8729284,75.7655357 80.7590308,75.7655357 C80.1681865,75.7655357 79.6307318,75.3893683 79.4705632,74.8200339 C79.0363283,73.2645309 78.7017538,71.3870828 78.5024329,69.3876345 C78.2070107,66.4087954 78.21057,63.1859558 78.5059922,60.3121724 C78.6341271,59.0684478 79.0114131,57.3977223 79.4136143,55.6287189 C80.0080179,52.9887694 80.6842854,49.9997636 80.6522517,47.9257595 C80.5917435,44.0691965 79.4883597,40.5583008 78.5166701,37.4642393 C77.7193863,34.9361233 77.0360002,32.7536746 77.0004071,30.7576152 C76.9826106,29.6968909 77.5485397,28.5683887 78.6412457,27.4974977 C80.4102191,25.7623833 83.784438,23.9967687 88.0342454,23.1732671 C88.0318725,23.1416374 88.0223811,16.8766994 88.005771,4.37845293 C88.005771,1.96217047 90.0772852,0 92.6186273,0 L178.390703,0 Z M96.4462826,49.7689883 C95.5102826,48.9499082 96.8662826,48.9335918 96.8462826,46.9201559 C96.8222826,45.2330467 95.4782826,45.0568302 96.2262826,44.3421747 C97.3782826,43.2424536 99.0702826,44.9752485 99.0982826,46.9593151 C99.1342826,49.0184368 97.4222826,50.6141745 96.4462826,49.7689883 Z M92.5398909,53.326712 C90.1461599,53.353712 88.2814091,52.063712 89.2708687,51.334712 C90.2222721,50.635712 90.2413002,51.646712 92.5893639,51.634712 C94.5530606,51.616712 94.7623693,50.608712 95.60341,51.169712 C96.8820962,52.033712 94.8575097,53.302712 92.5398909,53.326712 Z M88.6524403,44.2321903 C89.5924403,45.0511536 88.2404403,45.0674676 88.2564403,47.0806163 C88.2884403,48.7674848 89.6244403,48.9436761 88.8764403,49.6582297 C87.7244403,50.7577939 86.0324403,49.0219833 86.0004403,47.0414627 C85.9684403,44.9826348 87.6884403,43.3838619 88.6524403,44.2321903 Z M93.9997885,46.9746447 C94.0156598,48.0807506 93.1363874,48.9840176 92.0285677,48.9998644 C90.9239222,49.0125418 90.0129071,48.1346297 90.00021,47.0253544 C89.9843387,45.9224178 90.8699596,45.0159814 91.9746051,45.0001346 C93.0824249,44.9874572 93.9934399,45.8717081 93.9997885,46.9746447 Z M92.4495841,41.0003302 C94.8511188,40.9763302 96.7122131,42.2663302 95.734092,42.9923302 C94.7711945,43.6943302 94.7559708,42.6803302 92.407719,42.6923302 C90.440059,42.7133302 90.2307335,43.7213302 89.4010432,43.1573302 C88.1146427,42.2933302 90.1355855,41.0243302 92.4495841,41.0003302 Z M92.76,68 C93.556,68 94.204,68.486 94.204,69.08 L94.204,69.326 C94.204,69.92 93.556,70.406 92.76,70.406 L92.436,70.406 C91.648,70.406 91,69.92 91,69.326 L91,69.08 C91,68.486 91.648,68 92.436,68 L92.76,68 Z M92.76,69.906 C93.004,69.906 93.204,69.759 93.204,69.576 L93.204,69.33 C93.204,69.15 93.004,69 92.76,69 L92.436,69 C92.196,69 92,69.15 92,69.33 L92,69.576 C92,69.759 92.196,69.906 92.436,69.906 L92.76,69.906 Z M92.768,64 C93.56,64 94.204,64.486 94.204,65.08 L94.204,65.323 C94.204,65.917 93.56,66.406 92.768,66.406 L92.436,66.406 C91.648,66.406 91,65.917 91,65.323 L91,65.08 C91,64.486 91.648,64 92.436,64 L92.768,64 Z M92.768,64.906 C93.012,64.906 93.204,64.756 93.204,64.573 L93.204,64.33 C93.204,64.15 93.012,64 92.768,64 L92.436,64 C92.2,64 92,64.15 92,64.33 L92,64.573 C92,64.756 92.2,64.906 92.436,64.906 L92.768,64.906 Z M92.76,59 C93.556,59 94.204,59.486 94.204,60.08 L94.204,60.326 C94.204,60.923 93.556,61.409 92.76,61.409 L92.436,61.409 C91.648,61.409 91,60.923 91,60.326 L91,60.08 C91,59.486 91.648,59 92.436,59 L92.76,59 Z M92.76,60.909 C93.004,60.909 93.204,60.759 93.204,60.576 L93.204,60.33 C93.204,60.15 93.004,60 92.76,60 L92.436,60 C92.196,60 92,60.15 92,60.33 L92,60.576 C92,60.759 92.196,60.909 92.436,60.909 L92.76,60.909 Z M87.764,68 C88.56,68 89.208,68.486 89.208,69.08 L89.208,69.326 C89.208,69.92 88.56,70.406 87.764,70.406 L87.436,70.406 C86.648,70.406 86,69.92 86,69.326 L86,69.08 C86,68.486 86.648,68 87.436,68 L87.764,68 Z M87.764,69.906 C88.012,69.906 88.208,69.759 88.208,69.576 L88.208,69.33 C88.208,69.15 88.012,69 87.764,69 L87.436,69 C87.2,69 87,69.15 87,69.33 L87,69.576 C87,69.759 87.2,69.906 87.436,69.906 L87.764,69.906 Z M87.764,64 C88.56,64 89.204,64.486 89.204,65.08 L89.204,65.323 C89.204,65.917 88.56,66.406 87.764,66.406 L87.436,66.406 C86.644,66.406 86,65.917 86,65.323 L86,65.08 C86,64.486 86.644,64 87.436,64 L87.764,64 Z M87.764,64.906 C88.004,64.906 88.204,64.756 88.204,64.573 L88.204,64.33 C88.204,64.15 88.004,64 87.764,64 L87.436,64 C87.196,64 87,64.15 87,64.33 L87,64.573 C87,64.756 87.196,64.906 87.436,64.906 L87.764,64.906 Z M87.764,59 C88.56,59 89.208,59.486 89.208,60.08 L89.208,60.326 C89.208,60.923 88.56,61.409 87.764,61.409 L87.436,61.409 C86.648,61.409 86,60.923 86,60.326 L86,60.08 C86,59.486 86.648,59 87.436,59 L87.764,59 Z M87.764,60.909 C88.012,60.909 88.208,60.759 88.208,60.576 L88.208,60.33 C88.208,60.15 88.012,60 87.764,60 L87.436,60 C87.2,60 87,60.15 87,60.33 L87,60.576 C87,60.759 87.2,60.909 87.436,60.909 L87.764,60.909 Z M97.76,68 C98.556,68 99.204,68.486 99.204,69.08 L99.204,69.326 C99.204,69.92 98.556,70.406 97.76,70.406 L97.44,70.406 C96.644,70.406 96,69.92 96,69.326 L96,69.08 C96,68.486 96.644,68 97.44,68 L97.76,68 Z M97.76,69.906 C98.008,69.906 98.204,69.759 98.204,69.576 L98.204,69.33 C98.204,69.15 98.008,69 97.76,69 L97.44,69 C97.192,69 97,69.15 97,69.33 L97,69.576 C97,69.759 97.192,69.906 97.44,69.906 L97.76,69.906 Z M97.76,64 C98.556,64 99.204,64.486 99.204,65.08 L99.204,65.323 C99.204,65.917 98.556,66.406 97.76,66.406 L97.44,66.406 C96.644,66.406 96,65.917 96,65.323 L96,65.08 C96,64.486 96.644,64 97.44,64 L97.76,64 Z M97.76,64.906 C98.004,64.906 98.204,64.756 98.204,64.573 L98.204,64.33 C98.204,64.15 98.004,64 97.76,64 L97.44,64 C97.196,64 97,64.15 97,64.33 L97,64.573 C97,64.756 97.196,64.906 97.44,64.906 L97.76,64.906 Z M97.76,59 C98.556,59 99.204,59.486 99.204,60.08 L99.204,60.326 C99.204,60.923 98.556,61.409 97.76,61.409 L97.44,61.409 C96.644,61.409 96,60.923 96,60.326 L96,60.08 C96,59.486 96.644,59 97.44,59 L97.76,59 Z M97.76,60.909 C98.008,60.909 98.204,60.759 98.204,60.576 L98.204,60.33 C98.204,60.15 98.008,60 97.76,60 L97.44,60 C97.192,60 97,60.15 97,60.33 L97,60.576 C97,60.759 97.192,60.909 97.44,60.909 L97.76,60.909 Z M92.996012,30 L92.9681268,30 C92.4343237,30.0059583 91.9403566,30.1668322 91.5698813,30.449851 C91.1954224,30.7388282 90.9922585,31.1171797 91.0002258,31.5193644 C91.0042094,31.9245283 91.219324,32.2969215 91.5977666,32.5739821 C91.9762091,32.8510427 92.4900941,32.9761668 93.01593,33 C93.5577004,32.9940417 94.0636182,32.8301887 94.4380771,32.5412115 C94.812536,32.2552135 95.0077327,31.8798411 94.9997655,31.4836147 C94.9838311,30.6613704 94.0875199,30 92.996012,30 Z M92.4928104,35 C91.3068444,35 90.1927551,34.5947954 89.3482036,33.8609602 C88.4892767,33.1143627 88.0112965,32.1157088 88.000515,31.0500526 C87.9825458,29.9875869 88.4353692,28.9761706 89.2763269,28.207239 C90.1136907,27.4446886 91.2349676,27.0139593 92.4389028,27.0011969 C94.9689636,26.9469569 96.9635427,28.7432577 96.9994811,30.9479538 C97.0174503,32.0104194 96.5682207,33.0186451 95.7308569,33.7811955 C94.8898992,34.5533177 93.7614346,34.9840471 92.5539056,35 L92.5503117,35 L92.4928104,35 Z" id="TV"></path>
                </g>
            </g>
        </g>
    </g>
</svg>