<?xml version="1.0" encoding="UTF-8"?>
<svg width="92px" height="78px" viewBox="0 0 92 78" version="1.1" xmlns="http://www.w3.org/2000/svg" xmlns:xlink="http://www.w3.org/1999/xlink">
    <!-- Generator: Sketch 47.1 (45422) - http://www.bohemiancoding.com/sketch -->
    <title>Page 1</title>
    <desc>Created with Sketch.</desc>
    <defs></defs>
    <g id="High-Fidelity" stroke="none" stroke-width="1" fill="none" fill-rule="evenodd">
        <g id="home" transform="translate(-233.000000, -539.000000)" fill="#009FDB">
            <g id="2" transform="translate(0.000000, 469.000000)">
                <g id="Premium-Channels" transform="translate(128.000000, 70.000000)">
                    <path d="M139.606036,20.2643758 L163.416227,32.7167737 C163.538196,32.7760552 163.640385,32.8814444 163.706314,32.9934205 C163.795318,33.1679714 163.815097,33.3688697 163.759057,33.5533009 C163.703018,33.7311452 163.577753,33.872762 163.403042,33.9649776 L139.606036,46.4338427 C139.315949,46.5886331 139.039048,46.476657 138.913783,46.4042019 C138.702811,46.2790522 138.57425,46.0518066 138.570953,45.8048006 L138.570953,20.8967112 L138.570953,20.8670705 C138.56436,20.6332381 138.683032,20.4224596 138.940154,20.2709626 C139.039048,20.2083877 139.151127,20.1754536 139.266502,20.1754536 C139.378581,20.1754536 139.493957,20.2050943 139.606036,20.2643758 L139.606036,20.2643758 Z M140.766383,48.6140827 L164.540314,36.1550979 C165.298495,35.7697684 165.855594,35.1077922 166.116012,34.2976124 C166.373135,33.4808458 166.29402,32.6113845 165.878669,31.8176717 C165.552321,31.2347375 165.074337,30.7736595 164.527128,30.5134798 L140.7499,18.0742555 C139.724707,17.537429 138.544582,17.5901237 137.64795,18.1697645 C136.668907,18.7362317 136.075547,19.7868307 136.098623,20.9131783 L136.098623,45.8113874 C136.105215,46.937735 136.685389,47.9521065 137.657839,48.5350407 C138.172084,48.831448 138.739072,48.982945 139.299467,48.982945 C139.807118,48.982945 140.308177,48.8610887 140.766383,48.6140827 L140.766383,48.6140827 Z M194.043459,4.38024049 C194.043459,3.32634804 193.176495,2.47006043 192.115041,2.47006043 L109.390859,2.47006043 C108.332702,2.47006043 107.472331,3.32634804 107.472331,4.38024049 L107.472331,62.5748642 C107.472331,63.6287567 108.332702,64.4883377 109.390859,64.4883377 L192.115041,64.4883377 C193.176495,64.4883377 194.043459,63.6287567 194.043459,62.5748642 L194.043459,4.38024049 Z M196.515789,4.38024049 L196.515789,62.5748642 C196.515789,64.99223 194.541221,66.9583981 192.115041,66.9583981 L151.99406,66.9583981 L151.99406,74.6616932 L169.74869,74.6616932 C170.431053,74.6616932 170.984855,75.2149868 170.984855,75.8967234 C170.984855,76.5784601 170.431053,77.1317537 169.74869,77.1317537 L131.767099,77.1317537 C131.084736,77.1317537 130.530934,76.5784601 130.530934,75.8967234 C130.530934,75.2149868 131.084736,74.6616932 131.767099,74.6616932 L149.521729,74.6616932 L149.521729,66.9583981 L109.390859,66.9583981 C106.971272,66.9583981 105,64.99223 105,62.5748642 L105,4.38024049 C105,1.96287469 106.971272,4.26325641e-14 109.390859,4.26325641e-14 L192.115041,4.26325641e-14 C194.541221,4.26325641e-14 196.515789,1.96287469 196.515789,4.38024049 L196.515789,4.38024049 Z M186.814364,59.215582 L121.089928,59.215582 C120.407564,59.215582 119.853762,58.6622885 119.853762,57.9805518 C119.853762,57.2988151 120.407564,56.7455216 121.089928,56.7455216 L186.814364,56.7455216 C187.002261,56.7455216 187.16049,56.5841443 187.16049,56.3931263 L187.16049,9.9230561 C187.16049,9.72874468 187.005558,9.57066081 186.817661,9.57066081 L114.708018,9.57066081 C114.516825,9.57066081 114.361892,9.72874468 114.361892,9.9230561 L114.361892,40.6934222 C114.361892,41.3751589 113.80809,41.9284524 113.125727,41.9284524 C112.443363,41.9284524 111.889561,41.3751589 111.889561,40.6934222 L111.889561,9.9230561 C111.889561,8.36856473 113.155395,7.10060038 114.708018,7.10060038 L186.817661,7.10060038 C188.366988,7.10060038 189.632821,8.36856473 189.632821,9.9230561 L189.632821,56.3931263 C189.632821,57.9509111 188.366988,59.215582 186.814364,59.215582 L186.814364,59.215582 Z" id="Page-1"></path>
                </g>
            </g>
        </g>
    </g>
</svg>