<?xml version="1.0" encoding="UTF-8"?>
<svg width="42px" height="21px" viewBox="0 0 42 21" version="1.1" xmlns="http://www.w3.org/2000/svg" xmlns:xlink="http://www.w3.org/1999/xlink">
    <!-- Generator: Sketch 47.1 (45422) - http://www.bohemiancoding.com/sketch -->
    <title>USA Network Logo</title>
    <desc>Created with Sketch.</desc>
    <defs></defs>
    <g id="Symbols" stroke="none" stroke-width="1" fill="none" fill-rule="evenodd">
        <g id="Card/SELECT" transform="translate(-41.000000, -217.000000)" fill="#72CDF4">
            <g id="SELECT-Card">
                <g id="Detail/Channels" transform="translate(38.000000, 169.000000)">
                    <g id="Logos" transform="translate(2.400000, 44.474004)">
                        <g id="USA-Network-Logo" transform="translate(0.000000, 2.881770)">
                            <g id="svg2">
                                <g id="layer1" transform="translate(0.750195, 0.201819)">
                                    <g id="g103826" transform="translate(21.031149, 10.494114) scale(1, -1) translate(-21.031149, -10.494114) translate(0.031149, 0.513722)">
                                        <path d="M36.4064866,17.7080571 C35.2414527,18.8728794 33.6703748,19.5076422 32.0680627,19.5698097 C30.468874,19.6319772 28.8540682,19.1411812 27.5484806,18.1694053 C26.4084339,17.3219643 25.521384,16.1309661 24.9091945,14.818905 C24.1626983,15.5125632 23.3880912,16.1833177 22.4510666,16.5792264 C21.5827571,16.9489594 20.5270427,17.119102 19.6431162,16.7035614 C19.243319,16.513787 18.8966199,16.2062215 18.6748574,15.8070408 C18.4530949,15.4013162 18.3625158,14.9170642 18.4093671,14.449172 C18.4593417,13.9976398 18.6467467,13.5951871 18.9559648,13.2778057 C19.2839234,12.9440645 19.6993376,12.7248423 20.1147519,12.5481558 C20.5957579,12.3420215 21.0955043,12.1947827 21.589004,12.037728 C22.0637631,11.8872172 22.5322754,11.7301625 22.9945409,11.546932 C23.8878377,11.193559 24.7655174,10.7256668 25.4557922,10.0221926 C26.8488355,8.61524427 27.2954839,6.47537397 27.0643512,4.5121902 C26.9987594,3.95922678 26.8706994,3.41280729 26.6832945,2.8925636 C26.6364433,2.7715006 26.589592,2.64716563 26.5396174,2.5293746 C26.5240003,2.49665487 26.5021364,2.43448738 26.5021364,2.43448738 C26.5021364,2.43448738 26.6145794,2.30688044 26.664554,2.25780085 C26.8207248,2.09093023 26.9862658,1.9371475 27.1580536,1.78663674 C27.7889835,1.24021726 28.5104925,0.808316832 29.2788527,0.507295322 C30.8030794,-0.0947476998 32.5272047,-0.186362942 34.0764188,0.369872458 C34.9478517,0.680709888 35.7661865,1.19113767 36.4064866,1.88479593 L36.4064866,0.274985243 L41.7006758,0.274985243 L41.6975523,19.3113238 L36.4064866,19.3113238 L36.4064866,17.7080571 Z M33.0998065,4.83871664 C32.3022776,4.83871664 31.5440209,5.17164901 30.9488952,5.71501978 C30.3084553,6.29922187 29.8704185,7.09386235 29.634785,7.93875677 C29.1544551,9.6630952 29.5441567,11.6920982 30.797848,12.9704328 C31.3839109,13.5703393 32.1572723,13.944103 32.9850107,13.9723708 C33.812749,13.9974978 34.6314245,13.6771289 35.2597807,13.1211947 C36.3563829,12.1538063 36.8578594,10.5802297 36.7883778,9.11658356 C36.7158751,7.64351485 36.0482468,6.14531917 34.8126811,5.35067869 C34.3021418,5.01774631 33.7039951,4.83871664 33.0998065,4.83871664 L33.0998065,4.83871664 Z M17.3621601,8.22179261 C17.1188413,8.32384796 16.8786024,8.43577963 16.6414435,8.56087974 C16.1979257,8.79791153 15.7728877,9.07774072 15.3878895,9.41353575 C14.6825729,10.0357442 14.1682153,10.8554791 13.8632968,11.7739773 C13.5491383,12.7155202 13.4382588,13.7393658 13.4936986,14.7335825 C13.5522183,15.7969334 13.820177,16.8471159 14.3129746,17.7754904 C14.7010528,18.5030463 15.2123304,19.1548837 15.8129275,19.6914973 L10.5553926,19.6914973 C10.5553926,19.6914973 10.5461526,13.7657027 10.5461526,11.4019691 L10.5461526,9.63410699 C10.5461526,9.08432493 10.5369127,8.53783499 10.472233,7.99134504 C10.3613535,7.02346525 10.0687549,5.89756427 9.21559896,5.38728751 C8.80288092,5.14367151 8.31932323,5.06795303 7.85116546,5.08441357 C7.3830077,5.10087411 6.90868996,5.22926632 6.52985176,5.54201659 C5.78449532,6.15434871 5.54733645,7.25720493 5.46417685,8.20862417 C5.41797707,8.73865358 5.41797707,9.26868299 5.41797707,9.79542029 L5.41797707,11.5665745 C5.41797707,12.7550255 5.41489708,19.6914973 5.41489708,19.6914973 L0.00644287435,19.6947894 C0.00644287435,19.6947894 0.00952285966,11.8068984 0.000282903726,9.44316472 C-0.00279708159,8.29751109 0.0156828303,7.13868903 0.237441773,6.01278806 C0.431480847,5.0152793 0.779519187,4.0441074 1.31543663,3.20132772 C1.83595415,2.38488491 2.53511081,1.71987907 3.33898698,1.23264706 C4.20138287,0.71249398 5.16849826,0.409620033 6.1448536,0.258183059 C7.1304489,0.103453977 8.14068408,0.0837013286 9.12935937,0.172588248 C10.0749149,0.261475167 11.0173904,0.465585871 11.8951862,0.857346737 C12.7267822,1.22606285 13.4875386,1.76596858 14.0973757,2.47706393 C14.6794929,3.15523821 15.1199308,3.9650968 15.4125294,4.82762913 C15.4340893,4.8967634 15.4587292,4.96918978 15.4802891,5.03832405 C16.124006,4.36014978 16.8293226,3.73135713 17.6393588,3.29021464 C18.433995,2.85565637 19.3672305,2.59557983 20.2604263,2.76676945 C20.7008642,2.84907215 21.1259022,3.04989075 21.4523806,3.38568577 C21.7634591,3.70172815 21.9667381,4.11982589 22.0437378,4.5708447 C22.1145774,4.99552665 22.0745376,5.44654546 21.8958985,5.83830633 C21.7357392,6.19714611 21.4647005,6.49014373 21.156702,6.71400709 C20.7101041,7.03663368 20.1803467,7.23745228 19.6690691,7.41522612 C19.0992718,7.6127526 18.2430359,7.87941336 18.0366769,7.95513185 C17.8303179,8.03085034 17.4730396,8.17241098 17.3621601,8.22179261 L17.3621601,8.22179261 Z" id="path103828"></path>
                                    </g>
                                </g>
                            </g>
                        </g>
                    </g>
                </g>
            </g>
        </g>
    </g>
</svg>