<?xml version="1.0" standalone="no"?>
<!DOCTYPE svg PUBLIC "-//W3C//DTD SVG 1.1//EN" "http://www.w3.org/Graphics/SVG/1.1/DTD/svg11.dtd" >
<svg xmlns="http://www.w3.org/2000/svg">
<metadata></metadata>
<defs>
<font id="att_aleck_cdlight_italic" horiz-adv-x="358" >
<font-face units-per-em="1000" ascent="750" descent="-250" />
<missing-glyph horiz-adv-x="210" />
<glyph unicode="fb" horiz-adv-x="736" d="M12 -125l128 600h-71l9 41h71l15 69q19 89 57.5 132t102.5 43q32 0 62 -14l-15 -39q-27 9 -46 9q-43 0 -71 -33.5t-42 -101.5l-14 -65h123l-9 -41h-123l-128 -600h-49zM297 0l160 750h49l-59 -278q57 54 121 54q60 0 93.5 -47t33.5 -129q0 -103 -32.5 -186t-85.5 -128.5 t-116 -45.5q-66 0 -109 55l-15 -45h-40zM555 482q-30 0 -62 -18t-58 -48l-71 -332q17 -23 43.5 -36.5t54.5 -13.5q51 0 93.5 44t66 113.5t23.5 148.5q0 70 -23 106t-67 36z" />
<glyph unicode="fj" horiz-adv-x="471" d="M12 -125l128 600h-71l9 41h71l15 69q19 89 57.5 132t102.5 43q32 0 62 -14l-15 -39q-27 9 -46 9q-43 0 -71 -33.5t-42 -101.5l-14 -65h223l-9 -41h-223l-128 -600h-49zM161 -176q19 -7 38 -7q33 0 51 22.5t29 76.5l128 600h49l-129 -605q-16 -75 -44.5 -106t-80.5 -31 q-31 0 -54 14zM503 686q0 -18 -12.5 -29.5t-31.5 -11.5q-13 0 -22 9t-9 22q0 18 12.5 29.5t31.5 11.5q14 0 22.5 -8.5t8.5 -22.5z" />
<glyph unicode="fk" horiz-adv-x="687" d="M12 -125l128 600h-71l9 41h71l15 69q19 89 57.5 132t102.5 43q32 0 62 -14l-15 -39q-27 9 -46 9q-43 0 -71 -33.5t-42 -101.5l-14 -65h123l-9 -41h-123l-128 -600h-49zM297 0l160 750h49l-100 -468l248 234h60l-208 -195l113 -321h-51l-100 289l-76 -74l-46 -215h-49z " />
<glyph unicode="ft" horiz-adv-x="569" d="M12 -125l128 600h-71l9 41h71l15 69q19 89 57.5 132t102.5 43q32 0 62 -14l-15 -39q-27 9 -46 9q-43 0 -71 -33.5t-42 -101.5l-14 -65h223l-9 -41h-223l-128 -600h-49zM517 21q-48 -31 -102 -31q-47 0 -72.5 25.5t-25.5 72.5q0 27 10 76l66 311h-71l9 41h73l41 151h38 l-32 -151h136l-9 -41h-136l-65 -307q-10 -46 -10 -73q0 -59 59 -59q20 0 42 7t39 18z" />
<glyph unicode="fh" horiz-adv-x="742" d="M12 -125l128 600h-71l9 41h71l15 69q19 89 57.5 132t102.5 43q32 0 62 -14l-15 -39q-27 9 -46 9q-43 0 -71 -33.5t-42 -101.5l-14 -65h123l-9 -41h-123l-128 -600h-49zM297 0l160 750h49l-61 -283q77 59 146 59q53 0 81.5 -30t28.5 -86q0 -27 -6 -54l-76 -356h-49l75 352 q6 27 6 53q0 76 -73 76q-34 0 -73 -17t-70 -47l-89 -417h-49z" />
<glyph unicode="ff" horiz-adv-x="549" d="M12 -125l128 600h-71l9 41h71l15 69q19 89 57.5 132t102.5 43q32 0 62 -14l-15 -39q-27 9 -46 9q-43 0 -71 -33.5t-42 -101.5l-14 -65h223l-9 -41h-223l-128 -600h-49zM270 -125l128 600h-71l9 41h71l15 69q19 89 57.5 132t102.5 43q37 0 71 -18l-15 -39q-11 5 -27 9 t-28 4q-43 0 -71 -33.5t-42 -101.5l-14 -65h123l-9 -41h-123l-128 -600h-49z" />
<glyph unicode="fi" horiz-adv-x="471" d="M12 -125l128 600h-71l9 41h71l15 69q19 89 57.5 132t102.5 43q32 0 62 -14l-15 -39q-27 9 -46 9q-43 0 -71 -33.5t-42 -101.5l-14 -65h223l-9 -41h-223l-128 -600h-49zM297 0l110 516h49l-110 -516h-49zM503 686q0 -18 -12.5 -29.5t-31.5 -11.5q-13 0 -22 9t-9 22 q0 18 12.5 29.5t31.5 11.5q14 0 22.5 -8.5t8.5 -22.5z" />
<glyph unicode="fl" horiz-adv-x="471" d="M12 -125l128 600h-71l9 41h71l15 69q19 89 57.5 132t102.5 43q32 0 62 -14l-15 -39q-27 9 -46 9q-43 0 -71 -33.5t-42 -101.5l-14 -65h123l-9 -41h-123l-128 -600h-49zM297 0l160 750h49l-160 -750h-49z" />
<glyph unicode="ffi" horiz-adv-x="729" d="M12 -125l128 600h-71l9 41h71l15 69q19 89 57.5 132t102.5 43q32 0 62 -14l-15 -39q-27 9 -46 9q-43 0 -71 -33.5t-42 -101.5l-14 -65h223l-9 -41h-223l-128 -600h-49zM270 -125l128 600h-71l9 41h71l15 69q19 89 57.5 132t102.5 43q32 0 62 -14l-15 -39q-27 9 -46 9 q-43 0 -71 -33.5t-42 -101.5l-14 -65h223l-9 -41h-223l-128 -600h-49zM555 0l110 516h49l-110 -516h-49zM761 686q0 -18 -12.5 -29.5t-31.5 -11.5q-13 0 -22 9t-9 22q0 18 12.5 29.5t31.5 11.5q14 0 22.5 -8.5t8.5 -22.5z" />
<glyph unicode="ffl" horiz-adv-x="729" d="M12 -125l128 600h-71l9 41h71l15 69q19 89 57.5 132t102.5 43q32 0 62 -14l-15 -39q-27 9 -46 9q-43 0 -71 -33.5t-42 -101.5l-14 -65h223l-9 -41h-223l-128 -600h-49zM270 -125l128 600h-71l9 41h71l15 69q19 89 57.5 132t102.5 43q32 0 62 -14l-15 -39q-27 9 -46 9 q-43 0 -71 -33.5t-42 -101.5l-14 -65h123l-9 -41h-123l-128 -600h-49zM555 0l160 750h49l-160 -750h-49z" />
<glyph unicode="ffb" horiz-adv-x="994" d="M12 -125l128 600h-71l9 41h71l15 69q19 89 57.5 132t102.5 43q32 0 62 -14l-15 -39q-27 9 -46 9q-43 0 -71 -33.5t-42 -101.5l-14 -65h223l-9 -41h-223l-128 -600h-49zM270 -125l128 600h-71l9 41h71l15 69q19 89 57.5 132t102.5 43q32 0 62 -14l-15 -39q-27 9 -46 9 q-43 0 -71 -33.5t-42 -101.5l-14 -65h123l-9 -41h-123l-128 -600h-49zM555 0l160 750h49l-59 -278q57 54 121 54q60 0 93.5 -47t33.5 -129q0 -103 -32.5 -186t-85.5 -128.5t-116 -45.5q-66 0 -109 55l-15 -45h-40zM813 482q-30 0 -62 -18t-58 -48l-71 -332 q17 -23 43.5 -36.5t54.5 -13.5q51 0 93.5 44t66 113.5t23.5 148.5q0 70 -23 106t-67 36z" />
<glyph unicode="ffh" horiz-adv-x="1000" d="M12 -125l128 600h-71l9 41h71l15 69q19 89 57.5 132t102.5 43q32 0 62 -14l-15 -39q-27 9 -46 9q-43 0 -71 -33.5t-42 -101.5l-14 -65h223l-9 -41h-223l-128 -600h-49zM270 -125l128 600h-71l9 41h71l15 69q19 89 57.5 132t102.5 43q32 0 62 -14l-15 -39q-27 9 -46 9 q-43 0 -71 -33.5t-42 -101.5l-14 -65h123l-9 -41h-123l-128 -600h-49zM555 0l160 750h49l-61 -283q77 59 146 59q53 0 81.5 -30t28.5 -86q0 -27 -6 -54l-76 -356h-49l75 352q6 27 6 53q0 76 -73 76q-34 0 -73 -17t-70 -47l-89 -417h-49z" />
<glyph unicode="ffj" horiz-adv-x="729" d="M12 -125l128 600h-71l9 41h71l15 69q19 89 57.5 132t102.5 43q32 0 62 -14l-15 -39q-27 9 -46 9q-43 0 -71 -33.5t-42 -101.5l-14 -65h223l-9 -41h-223l-128 -600h-49zM270 -125l128 600h-71l9 41h71l15 69q19 89 57.5 132t102.5 43q32 0 62 -14l-15 -39q-27 9 -46 9 q-43 0 -71 -33.5t-42 -101.5l-14 -65h223l-9 -41h-223l-128 -600h-49zM419 -176q19 -7 38 -7q33 0 51 22.5t29 76.5l128 600h49l-129 -605q-16 -75 -44.5 -106t-80.5 -31q-31 0 -54 14zM761 686q0 -18 -12.5 -29.5t-31.5 -11.5q-13 0 -22 9t-9 22q0 18 12.5 29.5t31.5 11.5 q14 0 22.5 -8.5t8.5 -22.5z" />
<glyph unicode="ffk" horiz-adv-x="945" d="M12 -125l128 600h-71l9 41h71l15 69q19 89 57.5 132t102.5 43q32 0 62 -14l-15 -39q-27 9 -46 9q-43 0 -71 -33.5t-42 -101.5l-14 -65h223l-9 -41h-223l-128 -600h-49zM270 -125l128 600h-71l9 41h71l15 69q19 89 57.5 132t102.5 43q32 0 62 -14l-15 -39q-27 9 -46 9 q-43 0 -71 -33.5t-42 -101.5l-14 -65h123l-9 -41h-123l-128 -600h-49zM555 0l160 750h49l-100 -468l248 234h60l-208 -195l113 -321h-51l-100 289l-76 -74l-46 -215h-49z" />
<glyph unicode="fft" horiz-adv-x="827" d="M12 -125l128 600h-71l9 41h71l15 69q19 89 57.5 132t102.5 43q32 0 62 -14l-15 -39q-27 9 -46 9q-43 0 -71 -33.5t-42 -101.5l-14 -65h223l-9 -41h-223l-128 -600h-49zM270 -125l128 600h-71l9 41h71l15 69q19 89 57.5 132t102.5 43q32 0 62 -14l-15 -39q-27 9 -46 9 q-43 0 -71 -33.5t-42 -101.5l-14 -65h223l-9 -41h-223l-128 -600h-49zM775 21q-48 -31 -102 -31q-47 0 -72.5 25.5t-25.5 72.5q0 27 10 76l66 311h-71l9 41h73l41 151h38l-32 -151h136l-9 -41h-136l-65 -307q-10 -46 -10 -73q0 -59 59 -59q20 0 42 7t39 18z" />
<glyph unicode=" "  horiz-adv-x="210" />
<glyph unicode="&#x09;" horiz-adv-x="210" />
<glyph unicode="&#xa0;" horiz-adv-x="210" />
<glyph unicode="!" horiz-adv-x="208" d="M69 194l102 506h54l-114 -506h-42zM95 34q0 -19 -13 -31.5t-32 -12.5q-16 0 -25.5 9.5t-9.5 24.5q0 19 13 31.5t32 12.5q16 0 25.5 -9.5t9.5 -24.5z" />
<glyph unicode="&#x22;" horiz-adv-x="282" d="M93 455l41 245h52l-54 -245h-39zM236 455l41 245h52l-54 -245h-39z" />
<glyph unicode="#" horiz-adv-x="490" d="M50 0l66 211h-72l9 41h76l58 186h-75l9 41h79l66 211h45l-66 -211h120l66 211h45l-66 -211h72l-9 -41h-76l-58 -186h75l-9 -41h-79l-66 -211h-45l66 211h-120l-66 -211h-45zM174 252h120l58 186h-120z" />
<glyph unicode="$" horiz-adv-x="490" d="M36 70q31 -19 61 -27t72 -8l67 312q-53 36 -78 77t-25 93q0 76 49 126t130 56l20 92h41l-20 -92q71 -5 119 -39l-20 -40q-57 34 -108 35l-62 -287q53 -36 78.5 -77t25.5 -93q0 -83 -51 -138.5t-135 -66.5l-22 -106h-41l22 103q-41 0 -78 10.5t-65 29.5zM337 199 q0 38 -16 67.5t-50 55.5l-61 -282q60 14 93.5 56.5t33.5 102.5zM182 516q0 -38 15.5 -67t49.5 -56l56 260q-57 -8 -89 -44.5t-32 -92.5z" />
<glyph unicode="%" horiz-adv-x="809" d="M198 0l428 690h50l-428 -690h-50zM610 32q49 0 85 73q16 33 25 76t9 86q0 91 -53 91q-49 0 -85 -73q-16 -33 -25 -76t-9 -86q0 -91 53 -91zM732 78q-50 -88 -130 -88q-47 0 -69.5 34t-22.5 104q0 108 44 184q50 88 130 88q47 0 69.5 -34t22.5 -104q0 -108 -44 -184z M197 332q49 0 85 73q16 33 25 76t9 86q0 91 -53 91q-49 0 -85 -73q-16 -33 -25 -76t-9 -86q0 -91 53 -91zM319 378q-50 -88 -130 -88q-47 0 -69.5 34t-22.5 104q0 108 44 184q50 88 130 88q47 0 69.5 -34t22.5 -104q0 -108 -44 -184z" />
<glyph unicode="&#x26;" horiz-adv-x="543" d="M425 0l-68 126q-51 -69 -102 -102.5t-104 -33.5q-58 0 -92 36.5t-34 99.5q0 148 196 259q-26 49 -37.5 84.5t-11.5 65.5q0 75 45.5 125t114.5 50q54 0 85.5 -33t31.5 -87q0 -56 -40 -107.5t-131 -109.5l86 -168l109 170h48l-134 -209l90 -166h-52zM159 34q79 0 175 131 l-96 187q-80 -51 -121.5 -108.5t-41.5 -116.5q0 -42 23.5 -67.5t60.5 -25.5zM221 536q0 -28 9.5 -58.5t31.5 -71.5q73 49 105.5 90.5t32.5 88.5q0 38 -19 60t-53 22q-46 0 -76.5 -37.5t-30.5 -93.5z" />
<glyph unicode="'" horiz-adv-x="139" d="M93 455l41 245h52l-54 -245h-39z" />
<glyph unicode="(" horiz-adv-x="270" d="M106 -164q-19 45 -30.5 122.5t-11.5 157.5q0 160 59 321t165 293h56q-110 -137 -169.5 -295.5t-59.5 -318.5q0 -82 10.5 -158t28.5 -122h-48z" />
<glyph unicode=")" horiz-adv-x="270" d="M-64 -164q110 137 169.5 295.5t59.5 318.5q0 82 -10.5 158t-28.5 122h48q19 -45 30.5 -122.5t11.5 -157.5q0 -160 -59 -321t-165 -293h-56z" />
<glyph unicode="*" horiz-adv-x="351" d="M276 400l-52 116l-96 -111l-31 30l106 101l-114 36l17 39l112 -47l23 132h45l-37 -134l122 40l9 -41l-128 -29l62 -112z" />
<glyph unicode="+" horiz-adv-x="490" d="M282 322l-36 -170h-47l36 170h-160l9 45h160l36 170h47l-36 -170h160l-9 -45h-160z" />
<glyph unicode="," horiz-adv-x="170" d="M-61 -107q61 38 85 97q-29 5 -29 34q0 19 13 31.5t32 12.5q16 0 25.5 -10.5t9.5 -27.5q0 -44 -35 -90.5t-88 -73.5z" />
<glyph unicode="-" horiz-adv-x="303" d="M45 252l9 43h210l-9 -43h-210z" />
<glyph unicode="." horiz-adv-x="170" d="M75 34q0 -19 -13 -31.5t-32 -12.5q-16 0 -25.5 9.5t-9.5 24.5q0 19 13 31.5t32 12.5q16 0 25.5 -9.5t9.5 -24.5z" />
<glyph unicode="/" horiz-adv-x="375" d="M-74 -164l470 894h53l-470 -894h-53z" />
<glyph unicode="0" horiz-adv-x="469" d="M190 35q46 0 87.5 49t70.5 139q49 150 49 270q0 162 -84 162q-46 0 -87.5 -49t-70.5 -139q-49 -150 -49 -270q0 -162 84 -162zM181 -10q-61 0 -93.5 53t-32.5 151q0 149 58 305q74 201 209 201q61 0 93.5 -53t32.5 -151q0 -149 -58 -305q-74 -201 -209 -201z" />
<glyph unicode="1" horiz-adv-x="304" d="M111 0l133 623l-144 -107l-23 37l183 137h48l-147 -690h-50z" />
<glyph unicode="2" horiz-adv-x="378" d="M-14 0l8 34q31 134 70 201t116 115l16 10q85 53 118.5 94.5t33.5 89.5q0 53 -27 82t-77 29q-58 0 -114 -41l-19 36q29 24 65 37t73 13q68 0 109 -41.5t41 -110.5q0 -60 -43.5 -114.5t-140.5 -115.5l-16 -10q-39 -24 -64.5 -55.5t-46.5 -81t-40 -125.5h259l-10 -46h-311z " />
<glyph unicode="3" horiz-adv-x="388" d="M7 70q56 -35 116 -35q72 0 117 47.5t45 123.5q0 64 -34 99t-95 35h-44l10 44h54q69 0 113 45t44 115q0 53 -27 82t-77 29q-57 0 -114 -36l-19 36q30 21 66.5 33t71.5 12q68 0 109 -41.5t41 -110.5q0 -67 -38.5 -120t-99.5 -72q43 -16 66.5 -55.5t23.5 -97.5 q0 -63 -27.5 -112t-75 -75t-109.5 -26q-78 0 -134 41z" />
<glyph unicode="4" horiz-adv-x="443" d="M242 0l38 178h-270l9 42l366 470h53l-100 -468h64l-9 -44h-64l-38 -178h-49zM289 222l80 378l-294 -378h214z" />
<glyph unicode="5" horiz-adv-x="379" d="M18 70q56 -35 116 -35q73 0 117.5 53t44.5 139q0 65 -31 99.5t-91 34.5q-38 0 -92 -2l88 331h222l-10 -46h-179l-64 -239q17 1 47 1q77 0 119 -47.5t42 -134.5q0 -71 -27.5 -124t-75.5 -81.5t-109 -28.5q-78 0 -134 41z" />
<glyph unicode="6" horiz-adv-x="428" d="M425 631q-19 11 -43 17.5t-46 6.5q-65 0 -119.5 -68t-84.5 -183q47 9 87 9q181 0 181 -186q0 -109 -52 -173t-140 -64q-75 0 -114 53.5t-39 154.5q0 143 39.5 258.5t104 179.5t139.5 64q58 0 106 -30zM222 370q-50 0 -100 -9q-16 -74 -16 -163q0 -163 105 -163 q64 0 101 50.5t37 136.5q0 148 -127 148z" />
<glyph unicode="7" horiz-adv-x="349" d="M45 0l7 39q21 118 60.5 207.5t132.5 243.5l93 154h-249l10 46h301l-9 -43l-100 -167q-93 -155 -131 -242t-58 -199l-7 -39h-50z" />
<glyph unicode="8" horiz-adv-x="435" d="M441 552q0 -59 -36 -114t-94 -84q35 -23 55 -61t20 -83q0 -65 -28 -115t-75 -77.5t-104 -27.5q-69 0 -109.5 43t-40.5 116q0 51 20.5 97t55 78.5t76.5 45.5q-33 22 -50.5 56t-17.5 75q0 85 53.5 142t133.5 57q64 0 102.5 -40t38.5 -108zM221 350q-60 -16 -100.5 -71.5 t-40.5 -121.5q0 -58 28 -90.5t78 -32.5q42 0 76.5 24.5t53.5 64t19 86.5q0 98 -86 131zM163 501q0 -44 21 -73t65 -46l23 -9q51 24 85 72t34 98q0 54 -25.5 83.5t-71.5 29.5q-57 0 -94 -44t-37 -111z" />
<glyph unicode="9" horiz-adv-x="432" d="M130 35q69 0 124.5 68t83.5 186q-49 -9 -91 -9q-92 0 -136.5 45t-44.5 138q0 109 52 173t140 64q75 0 114 -53.5t39 -154.5q0 -151 -37.5 -265.5t-102.5 -175.5t-148 -61q-56 0 -109 35l19 39q19 -13 46.5 -21t50.5 -8zM244 323q49 0 102 9q14 76 14 160q0 163 -105 163 q-64 0 -101 -50.5t-37 -136.5q0 -73 31 -109t96 -36z" />
<glyph unicode=":" horiz-adv-x="170" d="M75 34q0 -19 -13 -31.5t-32 -12.5q-16 0 -25.5 9.5t-9.5 24.5q0 19 13 31.5t32 12.5q16 0 25.5 -9.5t9.5 -24.5zM171 482q0 -19 -13 -31.5t-32 -12.5q-16 0 -25.5 9.5t-9.5 24.5q0 19 13 31.5t32 12.5q16 0 25.5 -9.5t9.5 -24.5z" />
<glyph unicode=";" horiz-adv-x="170" d="M-61 -107q61 38 85 97q-29 5 -29 34q0 19 13 31.5t32 12.5q16 0 25.5 -10.5t9.5 -27.5q0 -44 -35 -90.5t-88 -73.5zM171 482q0 -19 -13 -31.5t-32 -12.5q-16 0 -25.5 9.5t-9.5 24.5q0 19 13 31.5t32 12.5q16 0 25.5 -9.5t9.5 -24.5z" />
<glyph unicode="&#x3c;" horiz-adv-x="490" d="M74 323l9 44l371 136l-11 -49l-315 -112l268 -112l-9 -43z" />
<glyph unicode="=" horiz-adv-x="490" d="M96 423l9 45h367l-9 -45h-367zM54 222l9 45h367l-9 -45h-367z" />
<glyph unicode="&#x3e;" horiz-adv-x="490" d="M71 187l11 49l315 112l-268 112l9 43l313 -136l-9 -44z" />
<glyph unicode="?" horiz-adv-x="339" d="M99 194l5 24q15 73 36 109t64 70l20 15q59 45 82 80.5t23 75.5q0 45 -25.5 71t-70.5 26q-60 0 -126 -45l-18 35q34 26 73 40t77 14q64 0 102 -38t38 -100q0 -50 -28 -93.5t-95 -94.5l-20 -15q-37 -28 -55.5 -60t-30.5 -90l-5 -24h-46zM127 34q0 -19 -13 -31.5t-32 -12.5 q-16 0 -25.5 9.5t-9.5 24.5q0 19 13 31.5t32 12.5q16 0 25.5 -9.5t9.5 -24.5z" />
<glyph unicode="@" horiz-adv-x="832" d="M571 -159q-38 -17 -88.5 -27t-99.5 -10q-103 0 -177.5 44t-113.5 124t-39 186q0 137 59 247.5t155 171.5t208 61q93 0 162 -42t105.5 -118t36.5 -175q0 -91 -30 -164t-79.5 -113.5t-107.5 -40.5q-43 0 -68 22t-26 61q-24 -28 -56 -44t-64 -16q-49 0 -77 37.5t-28 103.5 q0 78 31 145.5t79.5 105.5t100.5 38q50 0 88 -35l9 26h42l-74 -297q-7 -28 -7 -45q0 -28 14.5 -43.5t39.5 -15.5q45 0 83 40t59 103.5t21 133.5q0 132 -69.5 210.5t-185.5 78.5q-104 0 -190 -61.5t-133.5 -160.5t-47.5 -212q0 -97 35.5 -167.5t99 -107.5t147.5 -37 q44 0 92 9.5t83 24.5zM360 51q26 0 53.5 16.5t52.5 47.5l63 251q-15 14 -35 21.5t-40 7.5q-44 0 -81.5 -35.5t-59 -91t-21.5 -115.5q0 -49 17.5 -75.5t50.5 -26.5z" />
<glyph unicode="A" horiz-adv-x="484" d="M360 0l-13 213h-227l-103 -213h-52l343 700h53l50 -700h-51zM322 631l-180 -372h202z" />
<glyph unicode="B" horiz-adv-x="482" d="M20 0l149 700h130q79 0 124 -42.5t45 -114.5q0 -68 -40.5 -117.5t-110.5 -70.5q53 -15 81.5 -52.5t28.5 -90.5q0 -102 -67 -157t-191 -55h-149zM141 330l-60 -283h97q91 0 143.5 42.5t52.5 117.5q0 60 -38 91.5t-110 31.5h-85zM210 653l-59 -276h73q85 0 138 45.5 t53 117.5q0 53 -32 83t-90 30h-83z" />
<glyph unicode="C" horiz-adv-x="445" d="M377 33q-60 -43 -141 -43q-82 0 -129.5 60t-47.5 165q0 107 26.5 200.5t71 159.5t101.5 100.5t120 34.5q53 0 109 -34l-19 -42q-21 13 -45.5 20.5t-47.5 7.5q-75 0 -135.5 -62t-94 -161.5t-33.5 -212.5q0 -91 34.5 -139.5t98.5 -48.5q30 0 57 8t58 26z" />
<glyph unicode="D" horiz-adv-x="517" d="M137 47q93 0 163 51t107 139.5t37 199.5q0 107 -49.5 161.5t-147.5 54.5h-37l-129 -606h56zM20 0l149 700h83q118 0 181.5 -67.5t63.5 -193.5q0 -135 -47 -234.5t-130 -152t-193 -52.5h-107z" />
<glyph unicode="E" horiz-adv-x="424" d="M141 331l-60 -284h262l-10 -47h-313l149 700h302l-10 -47h-251l-59 -275h209l-10 -47h-209z" />
<glyph unicode="F" horiz-adv-x="403" d="M20 0l149 700h292l-10 -47h-241l-62 -290h199l-10 -47h-199l-67 -316h-51z" />
<glyph unicode="G" horiz-adv-x="503" d="M461 366l-73 -341q-68 -35 -143 -35q-89 0 -137.5 59t-48.5 166t26.5 200.5t71 159.5t101.5 100.5t120 34.5q33 0 66 -9t58 -25l-19 -42q-53 28 -108 28q-75 0 -135.5 -62t-94 -161.5t-33.5 -212.5q0 -188 142 -188q51 0 90 19l56 262h-141l10 47h192z" />
<glyph unicode="H" horiz-adv-x="528" d="M20 0l149 700h51l-69 -322h276l69 322h51l-149 -700h-51l70 331h-276l-70 -331h-51z" />
<glyph unicode="I" horiz-adv-x="201" d="M20 0l149 700h51l-149 -700h-51z" />
<glyph unicode="J" horiz-adv-x="320" d="M-17 63q42 -25 84 -25q31 0 52.5 14.5t37.5 49t29 95.5l107 503h51l-108 -507q-24 -112 -62 -157.5t-106 -45.5q-55 0 -103 31z" />
<glyph unicode="K" horiz-adv-x="478" d="M20 0l149 700h51l-80 -374l335 374h60l-255 -285l114 -415h-52l-103 376l-116 -129l-52 -247h-51z" />
<glyph unicode="L" horiz-adv-x="394" d="M20 0l149 700h51l-139 -653h244l-10 -47h-295z" />
<glyph unicode="M" horiz-adv-x="676" d="M495 0l125 589l-287 -466h-50l-85 476l-127 -599h-51l149 700h61l90 -514l316 514h59l-149 -700h-51z" />
<glyph unicode="N" horiz-adv-x="524" d="M336 0l-136 614l-130 -614h-50l149 700h58l136 -614l130 614h50l-149 -700h-58z" />
<glyph unicode="O" horiz-adv-x="524" d="M210 -10q-71 0 -111 59t-40 166q0 142 40.5 256t107.5 176.5t146 62.5q71 0 111 -59t40 -166q0 -142 -41 -256t-107.5 -176.5t-145.5 -62.5zM219 38q63 0 117 64.5t84.5 164t30.5 209.5q0 91 -27.5 138.5t-79.5 47.5q-63 0 -117 -64.5t-84.5 -164t-30.5 -209.5 q0 -91 27.5 -138.5t79.5 -47.5z" />
<glyph unicode="P" horiz-adv-x="469" d="M20 0l149 700h123q84 0 132 -49t48 -134q0 -73 -32 -128.5t-87.5 -85.5t-124.5 -30h-99l-58 -273h-51zM139 320h96q79 0 131.5 55t52.5 138q0 66 -34 103t-96 37h-79z" />
<glyph unicode="Q" horiz-adv-x="524" d="M353 -71l-44 88q-49 -27 -99 -27q-71 0 -111 59t-40 166q0 142 40.5 256t107.5 176.5t146 62.5q71 0 111 -59t40 -166q0 -96 -19.5 -182t-55.5 -153t-84 -107l46 -92zM219 38q35 0 67 20l-55 113l38 22l52 -106q59 58 94.5 164t35.5 225q0 91 -27.5 138.5t-79.5 47.5 q-63 0 -117 -64.5t-84.5 -164t-30.5 -209.5q0 -91 27.5 -138.5t79.5 -47.5z" />
<glyph unicode="R" horiz-adv-x="488" d="M350 0l-102 284h-117l-60 -284h-51l149 700h123q82 0 131 -47t49 -131q0 -88 -47 -149.5t-127 -80.5l105 -292h-53zM141 331h94q54 0 96 24.5t65 67t23 95.5q0 63 -34.5 99t-95.5 36h-79z" />
<glyph unicode="S" horiz-adv-x="418" d="M0 71q53 -33 118 -33q76 0 124.5 46t48.5 118q0 46 -17.5 75.5t-66.5 65.5l-18 13q-47 34 -67.5 73t-20.5 93q0 55 27 98t72.5 66.5t102.5 23.5q78 0 132 -40l-21 -41q-52 33 -111 33q-66 0 -107.5 -38.5t-41.5 -100.5q0 -46 17.5 -75.5t66.5 -65.5l18 -13 q47 -34 67.5 -73t20.5 -93q0 -64 -29.5 -112.5t-80 -74.5t-113.5 -26q-39 0 -76.5 10.5t-65.5 29.5z" />
<glyph unicode="T" horiz-adv-x="457" d="M149 0l139 653h-173l10 47h393l-10 -47h-169l-139 -653h-51z" />
<glyph unicode="U" horiz-adv-x="512" d="M485 700h51l-103 -485q-47 -225 -223 -225q-73 0 -114 43t-41 119q0 36 8 73l101 475h51l-100 -470q-8 -37 -8 -72q0 -58 27 -89t78 -31q133 0 171 182z" />
<glyph unicode="V" horiz-adv-x="481" d="M160 0l-40 700h51l29 -628l294 628h52l-333 -700h-53z" />
<glyph unicode="W" horiz-adv-x="677" d="M405 0l-2 552l-241 -552h-57l28 700h50l-32 -619l244 559h52l3 -556l232 616h50l-270 -700h-57z" />
<glyph unicode="X" horiz-adv-x="485" d="M-17 0l254 357l-100 343h52l84 -300l210 300h56l-248 -348l102 -352h-52l-87 306l-215 -306h-56z" />
<glyph unicode="Y" horiz-adv-x="441" d="M140 0l61 284l-80 416h51l64 -361l219 361h52l-256 -416l-60 -284h-51z" />
<glyph unicode="Z" horiz-adv-x="405" d="M-32 0l9 44l411 609h-274l10 47h333l-9 -44l-411 -609h298l-10 -47h-357z" />
<glyph unicode="[" horiz-adv-x="279" d="M-12 -164l190 894h156l-9 -44h-107l-171 -806h117l-9 -44h-167z" />
<glyph unicode="\" horiz-adv-x="375" d="M213 -164l-97 894h46l97 -894h-46z" />
<glyph unicode="]" horiz-adv-x="279" d="M-45 -164l9 44h107l171 806h-117l9 44h167l-190 -894h-156z" />
<glyph unicode="^" horiz-adv-x="490" d="M379 369l-43 270l-173 -270h-50l211 321h45l56 -321h-46z" />
<glyph unicode="_" horiz-adv-x="370" d="M-76 -131l9 41h370l-9 -41h-370z" />
<glyph unicode="`" horiz-adv-x="463" d="M318 611l-76 139h60l63 -139h-47z" />
<glyph unicode="a" horiz-adv-x="454" d="M275 526q65 0 108 -56l16 46h40l-110 -516h-40l5 49q-59 -59 -126 -59q-60 0 -93.5 47t-33.5 129q0 103 32.5 186t85.5 128.5t116 45.5zM181 34q30 0 62.5 17.5t57.5 48.5l71 331q-18 24 -44.5 37.5t-53.5 13.5q-51 0 -93.5 -44t-66 -113.5t-23.5 -148.5q0 -70 23 -106 t67 -36z" />
<glyph unicode="b" horiz-adv-x="454" d="M15 0l160 750h49l-59 -278q57 54 121 54q60 0 93.5 -47t33.5 -129q0 -103 -32.5 -186t-85.5 -128.5t-116 -45.5q-66 0 -109 55l-15 -45h-40zM273 482q-30 0 -62 -18t-58 -48l-71 -332q17 -23 43.5 -36.5t54.5 -13.5q51 0 93.5 44t66 113.5t23.5 148.5q0 70 -23 106 t-67 36z" />
<glyph unicode="c" horiz-adv-x="371" d="M303 32q-24 -19 -58.5 -30.5t-66.5 -11.5q-66 0 -101.5 50.5t-35.5 142.5q0 96 36 175.5t93.5 123.5t123.5 44q45 0 89 -27l-19 -37q-36 20 -77 20q-53 0 -98.5 -45.5t-71.5 -115t-26 -141.5q0 -69 25 -107.5t71 -38.5q49 0 104 37z" />
<glyph unicode="d" horiz-adv-x="454" d="M289 0l5 49q-59 -59 -126 -59q-60 0 -93.5 47t-33.5 129q0 103 32.5 186t85.5 128.5t116 45.5t106 -53l59 277h49l-160 -750h-40zM181 34q30 0 62 17.5t58 47.5l71 332q-18 24 -44.5 37.5t-53.5 13.5q-51 0 -93.5 -44t-66 -113.5t-23.5 -148.5q0 -70 23 -106t67 -36z" />
<glyph unicode="e" horiz-adv-x="402" d="M313 32q-51 -42 -123 -42t-110.5 50t-38.5 144q0 93 35.5 172t90 124.5t111.5 45.5q49 0 78 -29.5t29 -79.5q0 -58 -34 -103t-90.5 -69.5t-124.5 -24.5h-22t-21 1q-2 -17 -2 -40q0 -72 28 -109.5t83 -37.5q24 0 51 10t48 27zM276 482q-36 0 -74 -31.5t-65 -81t-39 -107.5 q11 -1 30 -1q89 0 148 42.5t59 106.5q0 35 -15 53.5t-44 18.5z" />
<glyph unicode="f" horiz-adv-x="291" d="M12 -125l128 600h-71l9 41h71l15 69q19 89 57.5 132t102.5 43q37 0 71 -18l-15 -39q-11 5 -27 9t-28 4q-43 0 -71 -33.5t-42 -101.5l-14 -65h123l-9 -41h-123l-128 -600h-49z" />
<glyph unicode="g" horiz-adv-x="454" d="M6 -151q55 -31 109 -31q65 0 104 40.5t58 128.5l15 70q-58 -57 -124 -57q-60 0 -93.5 47t-33.5 129q0 97 33 178.5t86 126.5t115 45q65 0 108 -56l16 46h40l-113 -530q-23 -110 -74.5 -161t-137.5 -51q-67 0 -124 35zM181 44q31 0 64 18.5t59 49.5l68 319 q-18 24 -44.5 37.5t-53.5 13.5q-51 0 -93 -44t-66 -111.5t-24 -140.5q0 -70 23 -106t67 -36z" />
<glyph unicode="h" horiz-adv-x="458" d="M15 0l160 750h49l-61 -283q77 59 146 59q53 0 81.5 -30t28.5 -86q0 -27 -6 -54l-76 -356h-49l75 352q6 27 6 53q0 76 -73 76q-34 0 -73 -17t-70 -47l-89 -417h-49z" />
<glyph unicode="i" horiz-adv-x="189" d="M15 0l110 516h49l-110 -516h-49zM221 686q0 -18 -12.5 -29.5t-31.5 -11.5q-13 0 -22 9t-9 22q0 18 12.5 29.5t31.5 11.5q14 0 22.5 -8.5t8.5 -22.5z" />
<glyph unicode="j" horiz-adv-x="189" d="M-121 -176q19 -7 38 -7q33 0 51 22.5t29 76.5l128 600h49l-129 -605q-16 -75 -44.5 -106t-80.5 -31q-31 0 -54 14zM221 686q0 -18 -12.5 -29.5t-31.5 -11.5q-13 0 -22 9t-9 22q0 18 12.5 29.5t31.5 11.5q14 0 22.5 -8.5t8.5 -22.5z" />
<glyph unicode="k" horiz-adv-x="405" d="M15 0l160 750h49l-100 -468l248 234h60l-208 -195l113 -321h-51l-100 289l-76 -74l-46 -215h-49z" />
<glyph unicode="l" horiz-adv-x="189" d="M15 0l160 750h49l-160 -750h-49z" />
<glyph unicode="m" horiz-adv-x="699" d="M529 0l75 352q6 27 6 53q0 36 -17 56t-48 20q-34 0 -71.5 -19t-70.5 -52q0 -27 -6 -54l-76 -356h-49l75 352q6 27 6 53q0 36 -17 56t-48 20q-32 0 -67.5 -16.5t-67.5 -47.5l-89 -417h-49l110 516h40l-6 -52q40 32 74 47t68 15q38 0 63 -19.5t34 -55.5q79 75 160 75 q48 0 75 -30.5t27 -85.5q0 -27 -6 -54l-76 -356h-49z" />
<glyph unicode="n" horiz-adv-x="458" d="M288 0l75 352q6 27 6 53q0 76 -73 76q-34 0 -73 -17t-70 -47l-89 -417h-49l110 516h40l-6 -53q78 63 150 63q53 0 81.5 -30t28.5 -86q0 -27 -6 -54l-76 -356h-49z" />
<glyph unicode="o" horiz-adv-x="449" d="M171 -10q-60 0 -95 48t-35 131q0 104 32.5 186t86.5 126.5t118 44.5q60 0 95 -48t35 -131q0 -104 -32.5 -186t-86.5 -126.5t-118 -44.5zM179 34q49 0 90.5 45t65 115t23.5 146q0 68 -22.5 105t-65.5 37q-49 0 -90.5 -45t-65 -115t-23.5 -146q0 -68 22.5 -105t65.5 -37z " />
<glyph unicode="p" horiz-adv-x="454" d="M-31 -216l156 732h40l-5 -49q61 59 126 59q60 0 93.5 -47t33.5 -129q0 -103 -32.5 -186t-85.5 -128.5t-116 -45.5t-106 52l-55 -258h-49zM273 482q-29 0 -61.5 -17.5t-59.5 -48.5l-70 -331q17 -23 43.5 -37t54.5 -14q51 0 93.5 44t66 113.5t23.5 148.5q0 70 -23 106 t-67 36z" />
<glyph unicode="q" horiz-adv-x="454" d="M234 -216l55 260q-57 -54 -121 -54q-60 0 -93.5 47t-33.5 129q0 103 32.5 186t85.5 128.5t116 45.5q65 0 108 -56l16 46h40l-156 -732h-49zM181 34q30 0 62 17.5t58 47.5l71 332q-18 24 -44.5 37.5t-53.5 13.5q-51 0 -93.5 -44t-66 -113.5t-23.5 -148.5q0 -70 23 -106 t67 -36z" />
<glyph unicode="r" horiz-adv-x="293" d="M15 0l110 516h40l-6 -58q30 33 64 50.5t68 17.5q16 0 33 -5l-12 -47q-13 3 -29 3q-72 0 -133 -70l-86 -407h-49z" />
<glyph unicode="s" horiz-adv-x="361" d="M3 67q59 -33 112 -33q57 0 90.5 29t33.5 78q0 30 -16.5 54t-54.5 49l-15 10q-43 28 -63 60t-20 73q0 62 44 100.5t116 38.5q64 0 110 -29l-20 -38q-17 11 -41 17t-49 6q-50 0 -80 -25.5t-30 -67.5q0 -30 16.5 -54t54.5 -49l15 -10q43 -28 63 -60t20 -73q0 -71 -46 -112 t-125 -41q-36 0 -73.5 11t-61.5 28z" />
<glyph unicode="t" horiz-adv-x="311" d="M259 21q-48 -31 -102 -31q-47 0 -72.5 25.5t-25.5 72.5q0 27 10 76l66 311h-71l9 41h73l41 151h38l-32 -151h136l-9 -41h-136l-65 -307q-10 -46 -10 -73q0 -59 59 -59q20 0 42 7t39 18z" />
<glyph unicode="u" horiz-adv-x="452" d="M287 0l5 49q-75 -59 -144 -59q-52 0 -80.5 30t-28.5 86q0 27 6 54l76 356h49l-75 -352q-6 -27 -6 -53q0 -76 72 -76q33 0 70 16t67 43l90 422h49l-110 -516h-40z" />
<glyph unicode="v" horiz-adv-x="394" d="M116 0l-38 516h50l25 -449l221 449h51l-262 -516h-47z" />
<glyph unicode="w" horiz-adv-x="597" d="M343 0l-12 424l-184 -424h-47l-15 516h50l2 -441l183 422h49l12 -424l189 443h50l-230 -516h-47z" />
<glyph unicode="x" horiz-adv-x="389" d="M264 0l-75 224l-159 -224h-55l198 269l-87 247h51l69 -207l147 207h55l-186 -252l93 -264h-51z" />
<glyph unicode="y" horiz-adv-x="394" d="M78 516h50l30 -439l216 439h51l-286 -563q-51 -102 -87 -140.5t-80 -38.5q-30 0 -53 14l15 37q21 -7 36 -7q23 0 43 15t44 52.5t64 117.5z" />
<glyph unicode="z" horiz-adv-x="345" d="M-23 0l7 36l322 439h-222l8 41h276l-7 -36l-322 -439h234l-8 -41h-288z" />
<glyph unicode="{" horiz-adv-x="306" d="M174 -158q-25 -7 -51 -7q-46 0 -70 24.5t-24 71.5q0 29 8.5 62t31.5 95q17 47 24 74t7 47q0 28 -12 40.5t-38 12.5h-15l9 42h15q34 0 53 20t29 66q7 28 12 94q6 73 14 110q29 137 145 137q21 0 49 -6l-9 -43q-15 4 -37 4q-41 0 -64.5 -23t-34.5 -73q-9 -42 -14 -104 q-7 -72 -12 -98q-19 -88 -81 -105q42 -14 42 -71q0 -21 -7.5 -49.5t-26.5 -78.5q-23 -60 -31 -90t-8 -54q0 -60 59 -60q21 0 46 5z" />
<glyph unicode="|" horiz-adv-x="205" d="M-23 -216l202 946h49l-202 -946h-49z" />
<glyph unicode="}" horiz-adv-x="305" d="M-36 -116q15 -4 37 -4q41 0 64.5 23t34.5 73q9 42 14 104q7 72 12 98q19 88 81 105q-42 14 -42 71q0 21 7.5 49.5t26.5 78.5q23 60 31 90t8 54q0 60 -59 60q-21 0 -46 -5l9 43q25 7 51 7q46 0 70 -24.5t24 -71.5q0 -29 -8.5 -62t-31.5 -95q-17 -47 -24 -74t-7 -47 q0 -28 12 -40.5t38 -12.5h15l-9 -42h-15q-34 0 -53 -20t-29 -66q-7 -28 -12 -94q-6 -73 -14 -110q-29 -137 -145 -137q-21 0 -49 6z" />
<glyph unicode="~" horiz-adv-x="490" d="M468 397q-14 -67 -41 -99t-70 -32q-28 0 -51.5 14t-64.5 55q-23 23 -39.5 33t-32.5 10q-22 0 -37 -20.5t-26 -65.5l-5 -23h-47l5 23q14 67 41 99t70 32q28 0 51.5 -14t64.5 -55q23 -23 39.5 -33t32.5 -10q22 0 37 20.5t26 65.5l5 23h47z" />
<glyph unicode="&#xa1;" horiz-adv-x="208" d="M-17 -184l114 506h42l-102 -506h-54zM193 492q0 -19 -13 -31.5t-32 -12.5q-16 0 -25.5 9.5t-9.5 24.5q0 19 13 31.5t32 12.5q16 0 25.5 -9.5t9.5 -24.5z" />
<glyph unicode="&#xa2;" horiz-adv-x="490" d="M191 -113l22 104q-56 7 -86 57t-30 135q0 89 31.5 162.5t83.5 117.5t114 51l23 106h41l-23 -105q36 -4 72 -26l-19 -37q-32 18 -62 19l-94 -436q40 7 83 36l12 -39q-20 -16 -48 -26.5t-57 -14.5l-22 -104h-41zM147 180q0 -61 19.5 -98.5t56.5 -45.5l93 433 q-48 -11 -87 -55.5t-60.5 -106.5t-21.5 -127z" />
<glyph unicode="&#xa3;" horiz-adv-x="490" d="M217 326q-7 -81 -41 -160t-80 -120h278l-10 -46h-333l10 47q52 45 86.5 121t40.5 158h-68l9 44h60q-3 44 -3 99q0 114 45 172.5t132 58.5q71 0 132 -43l-20 -39q-25 17 -54.5 27t-54.5 10q-66 0 -98 -46t-32 -144q0 -41 2 -95h147l-9 -44h-139z" />
<glyph unicode="&#xa5;" horiz-adv-x="490" d="M162 0l28 132h-132l9 44h132l24 109h-133l9 44h115l-69 361h51l62 -351l212 351h52l-221 -361h108l-9 -44h-127l-24 -109h128l-9 -44h-128l-28 -132h-50z" />
<glyph unicode="&#xa7;" horiz-adv-x="424" d="M41 -56q17 -12 43.5 -19t51.5 -7q50 0 80 25.5t30 67.5q0 30 -16.5 54t-54.5 49l-15 10q-51 34 -75.5 71t-24.5 82q0 58 39.5 102t107.5 64q-39 28 -56.5 58.5t-17.5 69.5q0 62 44 100.5t116 38.5q64 0 110 -29l-20 -38q-17 11 -41 17t-49 6q-50 0 -80 -25.5t-30 -67.5 q0 -30 16.5 -54t54.5 -49l15 -10q51 -34 75.5 -71t24.5 -82q0 -59 -39.5 -102.5t-108.5 -64.5q39 -27 57 -58t18 -69q0 -62 -44 -100.5t-116 -38.5q-31 0 -61.5 8.5t-53.5 23.5zM319 303q0 61 -75 115q-60 -15 -97 -53t-37 -84q0 -32 18 -60t56 -56q61 16 98 54t37 84z" />
<glyph unicode="&#xa8;" horiz-adv-x="463" d="M276 685q0 -17 -12.5 -29t-31.5 -12q-16 0 -25 9t-9 24q0 17 12.5 29t31.5 12q16 0 25 -9t9 -24zM426 685q0 -17 -12.5 -29t-31.5 -12q-16 0 -25 9t-9 24q0 17 12.5 29t31.5 12q16 0 25 -9t9 -24z" />
<glyph unicode="&#xa9;" horiz-adv-x="508" d="M388 355q-32 -19 -70 -19q-55 0 -88 43.5t-33 114.5t33 114.5t88 43.5q36 0 67 -17l-13 -38q-23 11 -48 11q-38 0 -58 -29t-20 -85t20 -85t58 -29q26 0 51 13zM304 224q-66 0 -117 36t-78.5 97t-27.5 137q0 80 30 142t80.5 95t112.5 33q66 0 117 -36t78.5 -97t27.5 -137 q0 -80 -30 -142t-80.5 -95t-112.5 -33zM304 265q53 0 93 29.5t61.5 81.5t21.5 118q0 69 -23 121.5t-63 80t-90 27.5q-53 0 -93 -29.5t-61.5 -81.5t-21.5 -118q0 -69 23 -121.5t63 -80t90 -27.5z" />
<glyph unicode="&#xaa;" horiz-adv-x="321" d="M257 351l1 29q-18 -17 -39 -26.5t-41 -9.5q-38 0 -62 33.5t-24 87.5q0 67 22 121t57.5 84t76.5 30q40 0 69 -35l12 28h36l-72 -342h-36zM193 385q17 0 35.5 9.5t34.5 25.5l43 213q-26 26 -57 26q-30 0 -55.5 -27t-40 -68.5t-14.5 -88.5q0 -90 54 -90zM50 251l9 42h221 l-9 -42h-221z" />
<glyph unicode="&#xab;" horiz-adv-x="347" d="M105 107l-75 173l149 173h52l-153 -178l73 -168h-46zM232 107l-75 173l149 173h52l-153 -178l73 -168h-46z" />
<glyph unicode="&#xac;" horiz-adv-x="490" d="M349 152l36 170h-320l9 45h367l-45 -215h-47z" />
<glyph unicode="&#xae;" horiz-adv-x="508" d="M304 224q-66 0 -117 36t-78.5 97t-27.5 137q0 80 30 142t80.5 95t112.5 33q66 0 117 -36t78.5 -97t27.5 -137q0 -80 -30 -142t-80.5 -95t-112.5 -33zM304 265q53 0 93 29.5t61.5 81.5t21.5 118q0 69 -23 121.5t-63 80t-90 27.5q-53 0 -93 -29.5t-61.5 -81.5t-21.5 -118 q0 -69 23 -121.5t63 -80t90 -27.5zM224 352v291h89q39 0 64 -25.5t25 -65.5q0 -32 -16.5 -55t-44.5 -31l64 -114h-50l-61 110h-24v-110h-46zM270 502h39q21 0 33.5 13t12.5 37t-12.5 37t-33.5 13h-39v-100z" />
<glyph unicode="&#xb0;" horiz-adv-x="296" d="M197 479q41 0 71 32t30 78q0 33 -18 52.5t-48 19.5q-41 0 -71 -32t-30 -78q0 -33 18 -52.5t48 -19.5zM190 440q-45 0 -74 29.5t-29 76.5q0 64 44.5 109t107.5 45q45 0 74 -29.5t29 -76.5q0 -64 -44.5 -109t-107.5 -45z" />
<glyph unicode="&#xb2;" d="M123 420l4 20q10 50 22 81t33 54.5t62 50.5q53 35 71 55.5t18 45.5q0 24 -15.5 37.5t-44.5 13.5q-40 0 -71 -23l-18 35q46 30 94 30q45 0 73 -24t28 -63q0 -38 -21 -64.5t-84 -70.5q-31 -22 -47.5 -38t-27.5 -37.5t-21 -59.5h155l-9 -43h-201z" />
<glyph unicode="&#xb3;" d="M114 478q42 -26 87 -26q44 0 70 22t26 59q0 34 -22.5 52.5t-65.5 18.5h-31l8 40h29q46 0 73 21t27 56q0 28 -15.5 42.5t-44.5 14.5q-40 0 -71 -23l-18 35q42 30 95 30q46 0 73 -25.5t27 -68.5q0 -36 -22.5 -63.5t-62.5 -39.5q32 -12 49.5 -36.5t17.5 -56.5 q0 -53 -39 -86.5t-101 -33.5q-61 0 -105 33z" />
<glyph unicode="&#xb4;" horiz-adv-x="463" d="M288 611h-53l122 139h69z" />
<glyph unicode="&#xb6;" horiz-adv-x="470" d="M264 -110l163 763h-76l-163 -763h-49l89 416q-63 0 -102.5 46t-39.5 117q0 68 29.5 121t80.5 81.5t116 28.5h174l-173 -810h-49z" />
<glyph unicode="&#xb7;" horiz-adv-x="170" d="M132 293q0 -19 -13 -31.5t-32 -12.5q-16 0 -25.5 9.5t-9.5 24.5q0 19 13 31.5t32 12.5q16 0 25.5 -9.5t9.5 -24.5z" />
<glyph unicode="&#xb8;" horiz-adv-x="463" d="M75 -165q38 -20 67 -20q28 0 44.5 12.5t16.5 34.5q0 43 -62 43h-27l57 97h47l-37 -64q67 -11 67 -72q0 -40 -28.5 -65t-75.5 -25q-23 0 -46 6.5t-39 17.5z" />
<glyph unicode="&#xb9;" d="M217 420l69 326l-90 -67l-21 34l130 97h41l-83 -390h-46z" />
<glyph unicode="&#xba;" horiz-adv-x="330" d="M50 251l9 42h221l-9 -42h-221zM184 344q-42 0 -67 33t-25 88q0 68 22 122t59.5 83.5t82.5 29.5q42 0 67 -33t25 -88q0 -68 -22 -122t-59.5 -83.5t-82.5 -29.5zM193 385q30 0 55 27t39 69t14 88q0 43 -14 66.5t-40 23.5q-30 0 -55 -27t-39 -69t-14 -88q0 -43 14 -66.5 t40 -23.5z" />
<glyph unicode="&#xbb;" horiz-adv-x="347" d="M-2 107l153 178l-73 168h46l75 -173l-149 -173h-52zM125 107l153 178l-73 168h46l75 -173l-149 -173h-52z" />
<glyph unicode="&#xbc;" horiz-adv-x="809" d="M196 0l428 690h50l-428 -690h-50zM616 0l19 89h-178l8 39l237 262h40l-56 -261h39l-8 -40h-39l-19 -89h-43zM643 129l39 184l-167 -184h128zM192 300l69 326l-90 -67l-21 34l130 97h41l-83 -390h-46z" />
<glyph unicode="&#xbd;" horiz-adv-x="809" d="M164 0l428 690h50l-428 -690h-50zM485 0l4 20q10 50 22 81t33 54.5t62 50.5q53 35 71 55.5t18 45.5q0 24 -15.5 37.5t-44.5 13.5q-40 0 -71 -23l-18 35q46 30 94 30q45 0 73 -24t28 -63q0 -38 -21 -64.5t-84 -70.5q-31 -22 -47.5 -38t-27.5 -37.5t-21 -59.5h155l-9 -43 h-201zM192 300l69 326l-90 -67l-21 34l130 97h41l-83 -390h-46z" />
<glyph unicode="&#xbe;" horiz-adv-x="809" d="M211 0l428 690h50l-428 -690h-50zM616 0l19 89h-178l8 39l237 262h40l-56 -261h39l-8 -40h-39l-19 -89h-43zM643 129l39 184l-167 -184h128zM89 358q42 -26 87 -26q44 0 70 22t26 59q0 34 -22.5 52.5t-65.5 18.5h-31l8 40h29q46 0 73 21t27 56q0 28 -15.5 42.5 t-44.5 14.5q-40 0 -71 -23l-18 35q42 30 95 30q46 0 73 -25.5t27 -68.5q0 -36 -22.5 -63.5t-62.5 -39.5q32 -12 49.5 -36.5t17.5 -56.5q0 -53 -39 -86.5t-101 -33.5q-61 0 -105 33z" />
<glyph unicode="&#xbf;" horiz-adv-x="339" d="M250 -139q-34 -26 -73 -40t-77 -14q-64 0 -102 38t-38 100q0 50 28 93.5t95 94.5l20 15q37 28 55.5 60t30.5 90l5 24h46l-5 -24q-15 -73 -36 -109t-64 -70l-20 -15q-59 -45 -82 -80.5t-23 -75.5q0 -45 25.5 -71t70.5 -26q60 0 126 45zM292 492q0 -19 -13 -31.5t-32 -12.5 q-16 0 -25.5 9.5t-9.5 24.5q0 19 13 31.5t32 12.5q16 0 25.5 -9.5t9.5 -24.5z" />
<glyph unicode="&#xc0;" horiz-adv-x="484" d="M360 0l-13 213h-227l-103 -213h-52l343 700h53l50 -700h-51zM322 631l-180 -372h202zM325 770l-87 109h68l69 -109h-50z" />
<glyph unicode="&#xc1;" horiz-adv-x="484" d="M360 0l-13 213h-227l-103 -213h-52l343 700h53l50 -700h-51zM322 631l-180 -372h202zM369 770h-58l115 109h76z" />
<glyph unicode="&#xc2;" horiz-adv-x="484" d="M360 0l-13 213h-227l-103 -213h-52l343 700h53l50 -700h-51zM322 631l-180 -372h202zM417 770l-55 71l-83 -71h-58l115 109h62l69 -109h-50z" />
<glyph unicode="&#xc3;" horiz-adv-x="484" d="M360 0l-13 213h-227l-103 -213h-52l343 700h53l50 -700h-51zM322 631l-180 -372h202zM501 874q-18 -105 -87 -105q-17 0 -34.5 9.5t-43.5 32.5t-41 23q-32 0 -42 -61h-45q18 105 87 105q17 0 34.5 -9.5t43.5 -32.5t41 -23q32 0 42 61h45z" />
<glyph unicode="&#xc4;" horiz-adv-x="484" d="M360 0l-13 213h-227l-103 -213h-52l343 700h53l50 -700h-51zM322 631l-180 -372h202zM320 828q0 -18 -13 -30t-32 -12q-16 0 -25.5 9t-9.5 25q0 18 13 30t32 12q16 0 25.5 -9t9.5 -25zM470 828q0 -18 -13 -30t-32 -12q-16 0 -25.5 9t-9.5 25q0 18 13 30t32 12 q16 0 25.5 -9t9.5 -25z" />
<glyph unicode="&#xc5;" horiz-adv-x="484" d="M360 0l-13 213h-227l-103 -213h-52l343 700h53l50 -700h-51zM322 631l-180 -372h202zM462 867q0 -46 -32.5 -78.5t-79.5 -32.5q-40 0 -64 23.5t-24 63.5q0 47 32.5 79t79.5 32q40 0 64 -23.5t24 -63.5zM419 862q0 24 -14 38.5t-36 14.5q-27 0 -45.5 -19.5t-18.5 -47.5 q0 -24 14 -38.5t36 -14.5q26 0 45 19.5t19 47.5z" />
<glyph unicode="&#xc6;" horiz-adv-x="705" d="M-57 0l478 700h331l-10 -47h-241l-59 -275h199l-10 -47h-199l-60 -284h252l-10 -47h-303l49 233h-204l-157 -233h-56zM370 279l80 374h-10l-253 -374h183z" />
<glyph unicode="&#xc7;" horiz-adv-x="445" d="M377 33q-60 -43 -141 -43q-82 0 -129.5 60t-47.5 165q0 107 26.5 200.5t71 159.5t101.5 100.5t120 34.5q53 0 109 -34l-19 -42q-21 13 -45.5 20.5t-47.5 7.5q-75 0 -135.5 -62t-94 -161.5t-33.5 -212.5q0 -91 34.5 -139.5t98.5 -48.5q30 0 57 8t58 26zM102 -163 q38 -20 67 -20t44.5 12t15.5 33q0 42 -61 42h-28l57 98h49l-37 -63q33 -6 50 -25t17 -48q0 -40 -29 -65t-76 -25q-23 0 -46 6.5t-39 17.5z" />
<glyph unicode="&#xc8;" horiz-adv-x="424" d="M141 331l-60 -284h262l-10 -47h-313l149 700h302l-10 -47h-251l-59 -275h209l-10 -47h-209zM306 770l-87 109h68l69 -109h-50z" />
<glyph unicode="&#xc9;" horiz-adv-x="424" d="M141 331l-60 -284h262l-10 -47h-313l149 700h302l-10 -47h-251l-59 -275h209l-10 -47h-209zM350 770h-58l115 109h76z" />
<glyph unicode="&#xca;" horiz-adv-x="424" d="M141 331l-60 -284h262l-10 -47h-313l149 700h302l-10 -47h-251l-59 -275h209l-10 -47h-209zM398 770l-55 71l-83 -71h-58l115 109h62l69 -109h-50z" />
<glyph unicode="&#xcb;" horiz-adv-x="424" d="M141 331l-60 -284h262l-10 -47h-313l149 700h302l-10 -47h-251l-59 -275h209l-10 -47h-209zM301 828q0 -18 -13 -30t-32 -12q-16 0 -25.5 9t-9.5 25q0 18 13 30t32 12q16 0 25.5 -9t9.5 -25zM451 828q0 -18 -13 -30t-32 -12q-16 0 -25.5 9t-9.5 25q0 18 13 30t32 12 q16 0 25.5 -9t9.5 -25z" />
<glyph unicode="&#xcc;" horiz-adv-x="201" d="M20 0l149 700h51l-149 -700h-51zM180 770l-87 109h68l69 -109h-50z" />
<glyph unicode="&#xcd;" horiz-adv-x="201" d="M20 0l149 700h51l-149 -700h-51zM224 770h-58l115 109h76z" />
<glyph unicode="&#xce;" horiz-adv-x="201" d="M20 0l149 700h51l-149 -700h-51zM272 770l-55 71l-83 -71h-58l115 109h62l69 -109h-50z" />
<glyph unicode="&#xcf;" horiz-adv-x="201" d="M20 0l149 700h51l-149 -700h-51zM175 828q0 -18 -13 -30t-32 -12q-16 0 -25.5 9t-9.5 25q0 18 13 30t32 12q16 0 25.5 -9t9.5 -25zM325 828q0 -18 -13 -30t-32 -12q-16 0 -25.5 9t-9.5 25q0 18 13 30t32 12q16 0 25.5 -9t9.5 -25z" />
<glyph unicode="&#xd0;" horiz-adv-x="540" d="M43 0l72 340h-67l9 42h67l68 318h83q118 0 181.5 -67.5t63.5 -193.5q0 -135 -47 -234.5t-130 -152t-193 -52.5h-107zM160 47q93 0 163 51t107 139.5t37 199.5q0 107 -49.5 161.5t-147.5 54.5h-37l-58 -271h112l-9 -42h-112l-62 -293h56z" />
<glyph unicode="&#xd1;" horiz-adv-x="524" d="M336 0l-136 614l-130 -614h-50l149 700h58l136 -614l130 614h50l-149 -700h-58zM512 874q-18 -105 -87 -105q-17 0 -34.5 9.5t-43.5 32.5t-41 23q-32 0 -42 -61h-45q18 105 87 105q17 0 34.5 -9.5t43.5 -32.5t41 -23q32 0 42 61h45z" />
<glyph unicode="&#xd2;" horiz-adv-x="524" d="M210 -10q-71 0 -111 59t-40 166q0 142 40.5 256t107.5 176.5t146 62.5q71 0 111 -59t40 -166q0 -142 -41 -256t-107.5 -176.5t-145.5 -62.5zM219 38q63 0 117 64.5t84.5 164t30.5 209.5q0 91 -27.5 138.5t-79.5 47.5q-63 0 -117 -64.5t-84.5 -164t-30.5 -209.5 q0 -91 27.5 -138.5t79.5 -47.5zM336 770l-87 109h68l69 -109h-50z" />
<glyph unicode="&#xd3;" horiz-adv-x="524" d="M210 -10q-71 0 -111 59t-40 166q0 142 40.5 256t107.5 176.5t146 62.5q71 0 111 -59t40 -166q0 -142 -41 -256t-107.5 -176.5t-145.5 -62.5zM219 38q63 0 117 64.5t84.5 164t30.5 209.5q0 91 -27.5 138.5t-79.5 47.5q-63 0 -117 -64.5t-84.5 -164t-30.5 -209.5 q0 -91 27.5 -138.5t79.5 -47.5zM380 770h-58l115 109h76z" />
<glyph unicode="&#xd4;" horiz-adv-x="524" d="M210 -10q-71 0 -111 59t-40 166q0 142 40.5 256t107.5 176.5t146 62.5q71 0 111 -59t40 -166q0 -142 -41 -256t-107.5 -176.5t-145.5 -62.5zM219 38q63 0 117 64.5t84.5 164t30.5 209.5q0 91 -27.5 138.5t-79.5 47.5q-63 0 -117 -64.5t-84.5 -164t-30.5 -209.5 q0 -91 27.5 -138.5t79.5 -47.5zM428 770l-55 71l-83 -71h-58l115 109h62l69 -109h-50z" />
<glyph unicode="&#xd5;" horiz-adv-x="524" d="M210 -10q-71 0 -111 59t-40 166q0 142 40.5 256t107.5 176.5t146 62.5q71 0 111 -59t40 -166q0 -142 -41 -256t-107.5 -176.5t-145.5 -62.5zM219 38q63 0 117 64.5t84.5 164t30.5 209.5q0 91 -27.5 138.5t-79.5 47.5q-63 0 -117 -64.5t-84.5 -164t-30.5 -209.5 q0 -91 27.5 -138.5t79.5 -47.5zM512 874q-18 -105 -87 -105q-17 0 -34.5 9.5t-43.5 32.5t-41 23q-32 0 -42 -61h-45q18 105 87 105q17 0 34.5 -9.5t43.5 -32.5t41 -23q32 0 42 61h45z" />
<glyph unicode="&#xd6;" horiz-adv-x="524" d="M210 -10q-71 0 -111 59t-40 166q0 142 40.5 256t107.5 176.5t146 62.5q71 0 111 -59t40 -166q0 -142 -41 -256t-107.5 -176.5t-145.5 -62.5zM219 38q63 0 117 64.5t84.5 164t30.5 209.5q0 91 -27.5 138.5t-79.5 47.5q-63 0 -117 -64.5t-84.5 -164t-30.5 -209.5 q0 -91 27.5 -138.5t79.5 -47.5zM331 828q0 -18 -13 -30t-32 -12q-16 0 -25.5 9t-9.5 25q0 18 13 30t32 12q16 0 25.5 -9t9.5 -25zM481 828q0 -18 -13 -30t-32 -12q-16 0 -25.5 9t-9.5 25q0 18 13 30t32 12q16 0 25.5 -9t9.5 -25z" />
<glyph unicode="&#xd7;" horiz-adv-x="490" d="M293 342l111 -142l-35 -29l-110 142l-166 -137l-26 34l166 137l-111 142l35 29l110 -142l166 137l26 -34z" />
<glyph unicode="&#xd8;" horiz-adv-x="524" d="M11 14l63 87q-15 48 -15 114q0 142 40.5 256t107.5 176.5t146 62.5q74 0 114 -63l49 67l36 -28l-63 -87q15 -48 15 -114q0 -142 -41 -256t-107.5 -176.5t-145.5 -62.5q-74 0 -114 63l-49 -67zM112 224q0 -38 4 -65l316 439q-26 64 -88 64q-63 0 -117 -64.5t-84.5 -164 t-30.5 -209.5zM219 38q63 0 117 64.5t84.5 164t30.5 209.5q0 38 -4 65l-316 -439q26 -64 88 -64z" />
<glyph unicode="&#xd9;" horiz-adv-x="512" d="M485 700h51l-103 -485q-47 -225 -223 -225q-73 0 -114 43t-41 119q0 36 8 73l101 475h51l-100 -470q-8 -37 -8 -72q0 -58 27 -89t78 -31q133 0 171 182zM336 770l-87 109h68l69 -109h-50z" />
<glyph unicode="&#xda;" horiz-adv-x="512" d="M485 700h51l-103 -485q-47 -225 -223 -225q-73 0 -114 43t-41 119q0 36 8 73l101 475h51l-100 -470q-8 -37 -8 -72q0 -58 27 -89t78 -31q133 0 171 182zM380 770h-58l115 109h76z" />
<glyph unicode="&#xdb;" horiz-adv-x="512" d="M485 700h51l-103 -485q-47 -225 -223 -225q-73 0 -114 43t-41 119q0 36 8 73l101 475h51l-100 -470q-8 -37 -8 -72q0 -58 27 -89t78 -31q133 0 171 182zM428 770l-55 71l-83 -71h-58l115 109h62l69 -109h-50z" />
<glyph unicode="&#xdc;" horiz-adv-x="512" d="M485 700h51l-103 -485q-47 -225 -223 -225q-73 0 -114 43t-41 119q0 36 8 73l101 475h51l-100 -470q-8 -37 -8 -72q0 -58 27 -89t78 -31q133 0 171 182zM331 828q0 -18 -13 -30t-32 -12q-16 0 -25.5 9t-9.5 25q0 18 13 30t32 12q16 0 25.5 -9t9.5 -25zM481 828 q0 -18 -13 -30t-32 -12q-16 0 -25.5 9t-9.5 25q0 18 13 30t32 12q16 0 25.5 -9t9.5 -25z" />
<glyph unicode="&#xdd;" horiz-adv-x="441" d="M140 0l61 284l-80 416h51l64 -361l219 361h52l-256 -416l-60 -284h-51zM344 770h-58l115 109h76z" />
<glyph unicode="&#xde;" horiz-adv-x="469" d="M20 0l149 700h51l-28 -132h72q84 0 132 -49t48 -134q0 -73 -32 -128.5t-87.5 -85.5t-124.5 -30h-99l-30 -141h-51zM182 521l-71 -333h96q79 0 131.5 55t52.5 138q0 66 -34 103t-96 37h-79z" />
<glyph unicode="&#xdf;" horiz-adv-x="464" d="M125 54q34 -20 81 -20t83 25.5t55.5 69t19.5 98.5q0 140 -131 140h-25l9 41h31q50 0 90 26.5t62 70t22 95.5q0 55 -25.5 85.5t-70.5 30.5q-56 0 -93 -49.5t-59 -150.5l-110 -516h-49l110 516q26 125 75.5 184.5t126.5 59.5q67 0 106 -41.5t39 -112.5q0 -75 -44.5 -139.5 t-108.5 -81.5q47 -17 71 -57.5t24 -101.5q0 -69 -27.5 -123.5t-74.5 -83.5t-107 -29q-29 0 -55 7t-43 19z" />
<glyph unicode="&#xe0;" horiz-adv-x="454" d="M275 526q65 0 108 -56l16 46h40l-110 -516h-40l5 49q-59 -59 -126 -59q-60 0 -93.5 47t-33.5 129q0 103 32.5 186t85.5 128.5t116 45.5zM181 34q30 0 62.5 17.5t57.5 48.5l71 331q-18 24 -44.5 37.5t-53.5 13.5q-51 0 -93.5 -44t-66 -113.5t-23.5 -148.5q0 -70 23 -106 t67 -36zM276 611l-76 139h60l63 -139h-47z" />
<glyph unicode="&#xe1;" horiz-adv-x="454" d="M275 526q65 0 108 -56l16 46h40l-110 -516h-40l5 49q-59 -59 -126 -59q-60 0 -93.5 47t-33.5 129q0 103 32.5 186t85.5 128.5t116 45.5zM181 34q30 0 62.5 17.5t57.5 48.5l71 331q-18 24 -44.5 37.5t-53.5 13.5q-51 0 -93.5 -44t-66 -113.5t-23.5 -148.5q0 -70 23 -106 t67 -36zM313 611h-53l122 139h69z" />
<glyph unicode="&#xe2;" horiz-adv-x="454" d="M275 526q65 0 108 -56l16 46h40l-110 -516h-40l5 49q-59 -59 -126 -59q-60 0 -93.5 47t-33.5 129q0 103 32.5 186t85.5 128.5t116 45.5zM181 34q30 0 62.5 17.5t57.5 48.5l71 331q-18 24 -44.5 37.5t-53.5 13.5q-51 0 -93.5 -44t-66 -113.5t-23.5 -148.5q0 -70 23 -106 t67 -36zM367 611l-49 94l-92 -94h-53l122 139h56l63 -139h-47z" />
<glyph unicode="&#xe3;" horiz-adv-x="454" d="M275 526q65 0 108 -56l16 46h40l-110 -516h-40l5 49q-59 -59 -126 -59q-60 0 -93.5 47t-33.5 129q0 103 32.5 186t85.5 128.5t116 45.5zM181 34q30 0 62.5 17.5t57.5 48.5l71 331q-18 24 -44.5 37.5t-53.5 13.5q-51 0 -93.5 -44t-66 -113.5t-23.5 -148.5q0 -70 23 -106 t67 -36zM449 727q-9 -50 -31.5 -76.5t-56.5 -26.5q-18 0 -33.5 8.5t-38.5 31.5q-13 13 -20 17.5t-16 4.5q-32 0 -42 -60h-45q9 50 31.5 76.5t56.5 26.5q18 0 34 -9t38 -31q13 -13 20 -17.5t16 -4.5q32 0 42 60h45z" />
<glyph unicode="&#xe4;" horiz-adv-x="454" d="M275 526q65 0 108 -56l16 46h40l-110 -516h-40l5 49q-59 -59 -126 -59q-60 0 -93.5 47t-33.5 129q0 103 32.5 186t85.5 128.5t116 45.5zM181 34q30 0 62.5 17.5t57.5 48.5l71 331q-18 24 -44.5 37.5t-53.5 13.5q-51 0 -93.5 -44t-66 -113.5t-23.5 -148.5q0 -70 23 -106 t67 -36zM272 685q0 -17 -12.5 -29t-31.5 -12q-16 0 -25 9t-9 24q0 17 12.5 29t31.5 12q16 0 25 -9t9 -24zM422 685q0 -17 -12.5 -29t-31.5 -12q-16 0 -25 9t-9 24q0 17 12.5 29t31.5 12q16 0 25 -9t9 -24z" />
<glyph unicode="&#xe5;" horiz-adv-x="454" d="M275 526q65 0 108 -56l16 46h40l-110 -516h-40l5 49q-59 -59 -126 -59q-60 0 -93.5 47t-33.5 129q0 103 32.5 186t85.5 128.5t116 45.5zM181 34q30 0 62.5 17.5t57.5 48.5l71 331q-18 24 -44.5 37.5t-53.5 13.5q-51 0 -93.5 -44t-66 -113.5t-23.5 -148.5q0 -70 23 -106 t67 -36zM408 698q0 -46 -32.5 -78t-78.5 -32q-39 0 -63 23.5t-24 62.5q0 46 32.5 78t78.5 32q39 0 63 -23.5t24 -62.5zM366 693q0 24 -13.5 39t-36.5 15q-27 0 -45.5 -19.5t-18.5 -48.5q0 -24 13.5 -39t36.5 -15q27 0 45.5 19.5t18.5 48.5z" />
<glyph unicode="&#xe6;" horiz-adv-x="688" d="M289 0l5 49q-59 -59 -126 -59q-60 0 -93.5 47t-33.5 129q0 103 32.5 186t85.5 128.5t116 45.5q65 0 108 -56l16 46h40l-16 -76q67 86 141 86q49 0 78 -29.5t29 -79.5q0 -58 -34 -103t-90.5 -69.5t-124.5 -24.5h-22t-21 1q-2 -17 -2 -40q0 -72 28 -109.5t83 -37.5 q24 0 51 10t48 27l12 -39q-51 -42 -123 -42q-97 0 -129 95l-18 -85h-40zM181 34q30 0 62 17.5t58 47.5l70 333q-18 23 -44 36.5t-53 13.5q-51 0 -93.5 -44t-66 -113.5t-23.5 -148.5q0 -70 23 -106t67 -36zM562 482q-36 0 -74 -31.5t-65 -81t-39 -107.5q11 -1 30 -1 q89 0 148 42.5t59 106.5q0 35 -15 53.5t-44 18.5z" />
<glyph unicode="&#xe7;" horiz-adv-x="371" d="M303 32q-24 -19 -58.5 -30.5t-66.5 -11.5q-66 0 -101.5 50.5t-35.5 142.5q0 96 36 175.5t93.5 123.5t123.5 44q45 0 89 -27l-19 -37q-36 20 -77 20q-53 0 -98.5 -45.5t-71.5 -115t-26 -141.5q0 -69 25 -107.5t71 -38.5q49 0 104 37zM55 -165q38 -20 67 -20 q28 0 44.5 12.5t16.5 34.5q0 43 -62 43h-27l57 97h47l-37 -64q67 -11 67 -72q0 -40 -28.5 -65t-75.5 -25q-23 0 -46 6.5t-39 17.5z" />
<glyph unicode="&#xe8;" horiz-adv-x="402" d="M313 32q-51 -42 -123 -42t-110.5 50t-38.5 144q0 93 35.5 172t90 124.5t111.5 45.5q49 0 78 -29.5t29 -79.5q0 -58 -34 -103t-90.5 -69.5t-124.5 -24.5h-22t-21 1q-2 -17 -2 -40q0 -72 28 -109.5t83 -37.5q24 0 51 10t48 27zM276 482q-36 0 -74 -31.5t-65 -81t-39 -107.5 q11 -1 30 -1q89 0 148 42.5t59 106.5q0 35 -15 53.5t-44 18.5zM266 611l-76 139h60l63 -139h-47z" />
<glyph unicode="&#xe9;" horiz-adv-x="402" d="M313 32q-51 -42 -123 -42t-110.5 50t-38.5 144q0 93 35.5 172t90 124.5t111.5 45.5q49 0 78 -29.5t29 -79.5q0 -58 -34 -103t-90.5 -69.5t-124.5 -24.5h-22t-21 1q-2 -17 -2 -40q0 -72 28 -109.5t83 -37.5q24 0 51 10t48 27zM276 482q-36 0 -74 -31.5t-65 -81t-39 -107.5 q11 -1 30 -1q89 0 148 42.5t59 106.5q0 35 -15 53.5t-44 18.5zM303 611h-53l122 139h69z" />
<glyph unicode="&#xea;" horiz-adv-x="402" d="M313 32q-51 -42 -123 -42t-110.5 50t-38.5 144q0 93 35.5 172t90 124.5t111.5 45.5q49 0 78 -29.5t29 -79.5q0 -58 -34 -103t-90.5 -69.5t-124.5 -24.5h-22t-21 1q-2 -17 -2 -40q0 -72 28 -109.5t83 -37.5q24 0 51 10t48 27zM276 482q-36 0 -74 -31.5t-65 -81t-39 -107.5 q11 -1 30 -1q89 0 148 42.5t59 106.5q0 35 -15 53.5t-44 18.5zM357 611l-49 94l-92 -94h-53l122 139h56l63 -139h-47z" />
<glyph unicode="&#xeb;" horiz-adv-x="402" d="M313 32q-51 -42 -123 -42t-110.5 50t-38.5 144q0 93 35.5 172t90 124.5t111.5 45.5q49 0 78 -29.5t29 -79.5q0 -58 -34 -103t-90.5 -69.5t-124.5 -24.5h-22t-21 1q-2 -17 -2 -40q0 -72 28 -109.5t83 -37.5q24 0 51 10t48 27zM276 482q-36 0 -74 -31.5t-65 -81t-39 -107.5 q11 -1 30 -1q89 0 148 42.5t59 106.5q0 35 -15 53.5t-44 18.5zM262 685q0 -17 -12.5 -29t-31.5 -12q-16 0 -25 9t-9 24q0 17 12.5 29t31.5 12q16 0 25 -9t9 -24zM412 685q0 -17 -12.5 -29t-31.5 -12q-16 0 -25 9t-9 24q0 17 12.5 29t31.5 12q16 0 25 -9t9 -24z" />
<glyph unicode="&#xec;" horiz-adv-x="189" d="M15 0l110 516h49l-110 -516h-49zM142 611l-76 139h60l63 -139h-47z" />
<glyph unicode="&#xed;" horiz-adv-x="189" d="M15 0l110 516h49l-110 -516h-49zM179 611h-53l122 139h69z" />
<glyph unicode="&#xee;" horiz-adv-x="189" d="M15 0l110 516h49l-110 -516h-49zM233 611l-49 94l-92 -94h-53l122 139h56l63 -139h-47z" />
<glyph unicode="&#xef;" horiz-adv-x="189" d="M15 0l110 516h49l-110 -516h-49zM138 685q0 -17 -12.5 -29t-31.5 -12q-16 0 -25 9t-9 24q0 17 12.5 29t31.5 12q16 0 25 -9t9 -24zM288 685q0 -17 -12.5 -29t-31.5 -12q-16 0 -25 9t-9 24q0 17 12.5 29t31.5 12q16 0 25 -9t9 -24z" />
<glyph unicode="&#xf0;" horiz-adv-x="449" d="M328 660q81 -121 81 -306q0 -107 -32 -190t-86 -128.5t-120 -45.5q-59 0 -94.5 48t-35.5 129q0 94 33.5 172.5t86 122.5t111.5 44q28 0 52 -16.5t39 -45.5q-17 113 -69 192l-105 -77l-21 33l103 75q-32 39 -69 62l24 35q45 -31 78 -72l103 75l21 -33zM179 34q48 0 90 44 t66 110.5t24 136.5q0 65 -23 101t-65 36q-48 0 -90 -44t-66 -110.5t-24 -136.5q0 -65 23 -101t65 -36z" />
<glyph unicode="&#xf1;" horiz-adv-x="458" d="M288 0l75 352q6 27 6 53q0 76 -73 76q-34 0 -73 -17t-70 -47l-89 -417h-49l110 516h40l-6 -53q78 63 150 63q53 0 81.5 -30t28.5 -86q0 -27 -6 -54l-76 -356h-49zM454 727q-9 -50 -31.5 -76.5t-56.5 -26.5q-18 0 -33.5 8.5t-38.5 31.5q-13 13 -20 17.5t-16 4.5 q-32 0 -42 -60h-45q9 50 31.5 76.5t56.5 26.5q18 0 34 -9t38 -31q13 -13 20 -17.5t16 -4.5q32 0 42 60h45z" />
<glyph unicode="&#xf2;" horiz-adv-x="449" d="M171 -10q-60 0 -95 48t-35 131q0 104 32.5 186t86.5 126.5t118 44.5q60 0 95 -48t35 -131q0 -104 -32.5 -186t-86.5 -126.5t-118 -44.5zM179 34q49 0 90.5 45t65 115t23.5 146q0 68 -22.5 105t-65.5 37q-49 0 -90.5 -45t-65 -115t-23.5 -146q0 -68 22.5 -105t65.5 -37z M267 611l-76 139h60l63 -139h-47z" />
<glyph unicode="&#xf3;" horiz-adv-x="449" d="M171 -10q-60 0 -95 48t-35 131q0 104 32.5 186t86.5 126.5t118 44.5q60 0 95 -48t35 -131q0 -104 -32.5 -186t-86.5 -126.5t-118 -44.5zM179 34q49 0 90.5 45t65 115t23.5 146q0 68 -22.5 105t-65.5 37q-49 0 -90.5 -45t-65 -115t-23.5 -146q0 -68 22.5 -105t65.5 -37z M304 611h-53l122 139h69z" />
<glyph unicode="&#xf4;" horiz-adv-x="449" d="M171 -10q-60 0 -95 48t-35 131q0 104 32.5 186t86.5 126.5t118 44.5q60 0 95 -48t35 -131q0 -104 -32.5 -186t-86.5 -126.5t-118 -44.5zM179 34q49 0 90.5 45t65 115t23.5 146q0 68 -22.5 105t-65.5 37q-49 0 -90.5 -45t-65 -115t-23.5 -146q0 -68 22.5 -105t65.5 -37z M358 611l-49 94l-92 -94h-53l122 139h56l63 -139h-47z" />
<glyph unicode="&#xf5;" horiz-adv-x="449" d="M171 -10q-60 0 -95 48t-35 131q0 104 32.5 186t86.5 126.5t118 44.5q60 0 95 -48t35 -131q0 -104 -32.5 -186t-86.5 -126.5t-118 -44.5zM179 34q49 0 90.5 45t65 115t23.5 146q0 68 -22.5 105t-65.5 37q-49 0 -90.5 -45t-65 -115t-23.5 -146q0 -68 22.5 -105t65.5 -37z M440 727q-9 -50 -31.5 -76.5t-56.5 -26.5q-18 0 -33.5 8.5t-38.5 31.5q-13 13 -20 17.5t-16 4.5q-32 0 -42 -60h-45q9 50 31.5 76.5t56.5 26.5q18 0 34 -9t38 -31q13 -13 20 -17.5t16 -4.5q32 0 42 60h45z" />
<glyph unicode="&#xf6;" horiz-adv-x="449" d="M171 -10q-60 0 -95 48t-35 131q0 104 32.5 186t86.5 126.5t118 44.5q60 0 95 -48t35 -131q0 -104 -32.5 -186t-86.5 -126.5t-118 -44.5zM179 34q49 0 90.5 45t65 115t23.5 146q0 68 -22.5 105t-65.5 37q-49 0 -90.5 -45t-65 -115t-23.5 -146q0 -68 22.5 -105t65.5 -37z M263 685q0 -17 -12.5 -29t-31.5 -12q-16 0 -25 9t-9 24q0 17 12.5 29t31.5 12q16 0 25 -9t9 -24zM413 685q0 -17 -12.5 -29t-31.5 -12q-16 0 -25 9t-9 24q0 17 12.5 29t31.5 12q16 0 25 -9t9 -24z" />
<glyph unicode="&#xf7;" horiz-adv-x="490" d="M272 201q0 -19 -13 -31.5t-32 -12.5q-16 0 -25.5 9.5t-9.5 24.5q0 19 13 31.5t32 12.5q16 0 25.5 -9.5t9.5 -24.5zM75 322l9 45h367l-9 -45h-367zM334 498q0 -19 -13 -31.5t-32 -12.5q-16 0 -25.5 9.5t-9.5 24.5q0 19 13 31.5t32 12.5q16 0 25.5 -9.5t9.5 -24.5z" />
<glyph unicode="&#xf8;" horiz-adv-x="449" d="M-5 14l58 70q-12 36 -12 85q0 104 32.5 186t86.5 126.5t118 44.5q62 0 98 -51l44 54l34 -27l-58 -70q12 -36 12 -85q0 -104 -32.5 -186t-86.5 -126.5t-118 -44.5q-62 0 -98 51l-44 -54zM179 34q49 0 90.5 45t65 115t23.5 146q0 30 -2 43l-249 -301q23 -48 72 -48zM91 176 q0 -30 2 -43l249 301q-23 48 -72 48t-90.5 -45t-65 -115t-23.5 -146z" />
<glyph unicode="&#xf9;" horiz-adv-x="452" d="M287 0l5 49q-75 -59 -144 -59q-52 0 -80.5 30t-28.5 86q0 27 6 54l76 356h49l-75 -352q-6 -27 -6 -53q0 -76 72 -76q33 0 70 16t67 43l90 422h49l-110 -516h-40zM272 611l-76 139h60l63 -139h-47z" />
<glyph unicode="&#xfa;" horiz-adv-x="452" d="M287 0l5 49q-75 -59 -144 -59q-52 0 -80.5 30t-28.5 86q0 27 6 54l76 356h49l-75 -352q-6 -27 -6 -53q0 -76 72 -76q33 0 70 16t67 43l90 422h49l-110 -516h-40zM309 611h-53l122 139h69z" />
<glyph unicode="&#xfb;" horiz-adv-x="452" d="M287 0l5 49q-75 -59 -144 -59q-52 0 -80.5 30t-28.5 86q0 27 6 54l76 356h49l-75 -352q-6 -27 -6 -53q0 -76 72 -76q33 0 70 16t67 43l90 422h49l-110 -516h-40zM363 611l-49 94l-92 -94h-53l122 139h56l63 -139h-47z" />
<glyph unicode="&#xfc;" horiz-adv-x="452" d="M287 0l5 49q-75 -59 -144 -59q-52 0 -80.5 30t-28.5 86q0 27 6 54l76 356h49l-75 -352q-6 -27 -6 -53q0 -76 72 -76q33 0 70 16t67 43l90 422h49l-110 -516h-40zM268 685q0 -17 -12.5 -29t-31.5 -12q-16 0 -25 9t-9 24q0 17 12.5 29t31.5 12q16 0 25 -9t9 -24zM418 685 q0 -17 -12.5 -29t-31.5 -12q-16 0 -25 9t-9 24q0 17 12.5 29t31.5 12q16 0 25 -9t9 -24z" />
<glyph unicode="&#xfd;" horiz-adv-x="394" d="M78 516h50l30 -439l216 439h51l-286 -563q-51 -102 -87 -140.5t-80 -38.5q-30 0 -53 14l15 37q21 -7 36 -7q23 0 43 15t44 52.5t64 117.5zM280 611h-53l122 139h69z" />
<glyph unicode="&#xfe;" horiz-adv-x="454" d="M-31 -216l206 966h49l-59 -278q57 54 121 54q60 0 93.5 -47t33.5 -129q0 -103 -32.5 -186t-85.5 -128.5t-116 -45.5t-106 52l-55 -258h-49zM273 482q-30 0 -62 -18t-58 -48l-71 -332q17 -23 43.5 -36.5t54.5 -13.5q51 0 93.5 44t66 113.5t23.5 148.5q0 70 -23 106t-67 36 z" />
<glyph unicode="&#xff;" horiz-adv-x="394" d="M78 516h50l30 -439l216 439h51l-286 -563q-51 -102 -87 -140.5t-80 -38.5q-30 0 -53 14l15 37q21 -7 36 -7q23 0 43 15t44 52.5t64 117.5zM239 685q0 -17 -12.5 -29t-31.5 -12q-16 0 -25 9t-9 24q0 17 12.5 29t31.5 12q16 0 25 -9t9 -24zM389 685q0 -17 -12.5 -29 t-31.5 -12q-16 0 -25 9t-9 24q0 17 12.5 29t31.5 12q16 0 25 -9t9 -24z" />
<glyph unicode="&#x102;" horiz-adv-x="484" d="M360 0l-13 213h-227l-103 -213h-52l343 700h53l50 -700h-51zM322 631l-180 -372h202zM470 878q-10 -52 -45.5 -82.5t-86.5 -30.5q-46 0 -72.5 24t-26.5 64q0 12 2 25h43v-6q0 -31 15 -47.5t43 -16.5q59 0 81 70h47z" />
<glyph unicode="&#x103;" horiz-adv-x="454" d="M275 526q65 0 108 -56l16 46h40l-110 -516h-40l5 49q-59 -59 -126 -59q-60 0 -93.5 47t-33.5 129q0 103 32.5 186t85.5 128.5t116 45.5zM181 34q30 0 62.5 17.5t57.5 48.5l71 331q-18 24 -44.5 37.5t-53.5 13.5q-51 0 -93.5 -44t-66 -113.5t-23.5 -148.5q0 -70 23 -106 t67 -36zM414 721q-10 -52 -44.5 -82.5t-82.5 -30.5q-44 0 -68.5 25.5t-24.5 70.5q0 10 1 17h42v-8q0 -30 14 -46t40 -16q55 0 78 70h45z" />
<glyph unicode="&#x131;" horiz-adv-x="189" d="M15 0l110 516h49l-110 -516h-49z" />
<glyph unicode="&#x132;" horiz-adv-x="521" d="M20 0l149 700h51l-149 -700h-51zM184 63q42 -25 84 -25q31 0 52.5 14.5t37.5 49t29 95.5l107 503h51l-108 -507q-24 -112 -62 -157.5t-106 -45.5q-55 0 -103 31z" />
<glyph unicode="&#x133;" horiz-adv-x="378" d="M15 0l110 516h49l-110 -516h-49zM221 686q0 -18 -12.5 -29.5t-31.5 -11.5q-13 0 -22 9t-9 22q0 18 12.5 29.5t31.5 11.5q14 0 22.5 -8.5t8.5 -22.5zM68 -176q19 -7 38 -7q33 0 51 22.5t29 76.5l128 600h49l-129 -605q-16 -75 -44.5 -106t-80.5 -31q-31 0 -54 14zM410 686 q0 -18 -12.5 -29.5t-31.5 -11.5q-13 0 -22 9t-9 22q0 18 12.5 29.5t31.5 11.5q14 0 22.5 -8.5t8.5 -22.5z" />
<glyph unicode="&#x152;" horiz-adv-x="761" d="M488 331l-60 -284h252l-10 -47h-303l20 95q-75 -105 -169 -105q-74 0 -116.5 60.5t-42.5 164.5q0 141 40 255t105 177t141 63q57 0 93.5 -37.5t48.5 -107.5l29 135h292l-10 -47h-241l-59 -275h199l-10 -47h-199zM219 38q63 0 117 64.5t84.5 164t30.5 209.5 q0 91 -27.5 138.5t-79.5 47.5q-63 0 -117 -64.5t-84.5 -164t-30.5 -209.5q0 -91 27.5 -138.5t79.5 -47.5z" />
<glyph unicode="&#x153;" horiz-adv-x="705" d="M616 32q-51 -42 -123 -42q-116 0 -140 129q-33 -62 -80 -95.5t-102 -33.5q-60 0 -95 48t-35 131q0 104 32.5 186t86.5 126.5t118 44.5q50 0 82 -34.5t42 -97.5q33 62 80.5 97t98.5 35q49 0 78 -29.5t29 -79.5q0 -58 -34 -103t-90.5 -69.5t-124.5 -24.5h-22t-21 1 q-2 -17 -2 -40q0 -72 28 -109.5t83 -37.5q24 0 51 10t48 27zM179 34q49 0 90.5 45t65 115t23.5 146q0 68 -22.5 105t-65.5 37q-49 0 -90.5 -45t-65 -115t-23.5 -146q0 -68 22.5 -105t65.5 -37zM579 482q-36 0 -74 -31.5t-65 -81t-39 -107.5q11 -1 30 -1q89 0 148 42.5 t59 106.5q0 35 -15 53.5t-44 18.5z" />
<glyph unicode="&#x15e;" horiz-adv-x="418" d="M0 71q53 -33 118 -33q76 0 124.5 46t48.5 118q0 46 -17.5 75.5t-66.5 65.5l-18 13q-47 34 -67.5 73t-20.5 93q0 55 27 98t72.5 66.5t102.5 23.5q78 0 132 -40l-21 -41q-52 33 -111 33q-66 0 -107.5 -38.5t-41.5 -100.5q0 -46 17.5 -75.5t66.5 -65.5l18 -13 q47 -34 67.5 -73t20.5 -93q0 -64 -29.5 -112.5t-80 -74.5t-113.5 -26q-39 0 -76.5 10.5t-65.5 29.5zM24 -163q38 -20 67 -20t44.5 12t15.5 33q0 42 -61 42h-28l57 98h49l-37 -63q33 -6 50 -25t17 -48q0 -40 -29 -65t-76 -25q-23 0 -46 6.5t-39 17.5z" />
<glyph unicode="&#x15f;" horiz-adv-x="361" d="M3 67q59 -33 112 -33q57 0 90.5 29t33.5 78q0 30 -16.5 54t-54.5 49l-15 10q-43 28 -63 60t-20 73q0 62 44 100.5t116 38.5q64 0 110 -29l-20 -38q-17 11 -41 17t-49 6q-50 0 -80 -25.5t-30 -67.5q0 -30 16.5 -54t54.5 -49l15 -10q43 -28 63 -60t20 -73q0 -71 -46 -112 t-125 -41q-36 0 -73.5 11t-61.5 28zM5 -165q38 -20 67 -20q28 0 44.5 12.5t16.5 34.5q0 43 -62 43h-27l57 97h47l-37 -64q67 -11 67 -72q0 -40 -28.5 -65t-75.5 -25q-23 0 -46 6.5t-39 17.5z" />
<glyph unicode="&#x160;" horiz-adv-x="418" d="M0 71q53 -33 118 -33q76 0 124.5 46t48.5 118q0 46 -17.5 75.5t-66.5 65.5l-18 13q-47 34 -67.5 73t-20.5 93q0 55 27 98t72.5 66.5t102.5 23.5q78 0 132 -40l-21 -41q-52 33 -111 33q-66 0 -107.5 -38.5t-41.5 -100.5q0 -46 17.5 -75.5t66.5 -65.5l18 -13 q47 -34 67.5 -73t20.5 -93q0 -64 -29.5 -112.5t-80 -74.5t-113.5 -26q-39 0 -76.5 10.5t-65.5 29.5zM347 770h-62l-69 109h50l54 -71l84 71h58z" />
<glyph unicode="&#x161;" horiz-adv-x="361" d="M3 67q59 -33 112 -33q57 0 90.5 29t33.5 78q0 30 -16.5 54t-54.5 49l-15 10q-43 28 -63 60t-20 73q0 62 44 100.5t116 38.5q64 0 110 -29l-20 -38q-17 11 -41 17t-49 6q-50 0 -80 -25.5t-30 -67.5q0 -30 16.5 -54t54.5 -49l15 -10q43 -28 63 -60t20 -73q0 -71 -46 -112 t-125 -41q-36 0 -73.5 11t-61.5 28zM222 611l-63 139h47l49 -95l92 95h53l-122 -139h-56z" />
<glyph unicode="&#x162;" horiz-adv-x="457" d="M149 0l139 653h-173l10 47h393l-10 -47h-169l-139 -653h-51zM56 -163q38 -20 67 -20t44.5 12t15.5 33q0 42 -61 42h-28l57 98h49l-37 -63q33 -6 50 -25t17 -48q0 -40 -29 -65t-76 -25q-23 0 -46 6.5t-39 17.5z" />
<glyph unicode="&#x163;" horiz-adv-x="311" d="M259 21q-48 -31 -102 -31q-47 0 -72.5 25.5t-25.5 72.5q0 27 10 76l66 311h-71l9 41h73l41 151h38l-32 -151h136l-9 -41h-136l-65 -307q-10 -46 -10 -73q0 -59 59 -59q20 0 42 7t39 18zM13 -165q38 -20 67 -20q28 0 44.5 12.5t16.5 34.5q0 43 -62 43h-27l57 97h47 l-37 -64q67 -11 67 -72q0 -40 -28.5 -65t-75.5 -25q-23 0 -46 6.5t-39 17.5z" />
<glyph unicode="&#x174;" horiz-adv-x="677" d="M405 0l-2 552l-241 -552h-57l28 700h50l-32 -619l244 559h52l3 -556l232 616h50l-270 -700h-57zM510 770l-55 71l-83 -71h-58l115 109h62l69 -109h-50z" />
<glyph unicode="&#x175;" horiz-adv-x="597" d="M343 0l-12 424l-184 -424h-47l-15 516h50l2 -441l183 422h49l12 -424l189 443h50l-230 -516h-47zM446 611l-49 94l-92 -94h-53l122 139h56l63 -139h-47z" />
<glyph unicode="&#x176;" horiz-adv-x="441" d="M140 0l61 284l-80 416h51l64 -361l219 361h52l-256 -416l-60 -284h-51zM392 770l-55 71l-83 -71h-58l115 109h62l69 -109h-50z" />
<glyph unicode="&#x177;" horiz-adv-x="394" d="M78 516h50l30 -439l216 439h51l-286 -563q-51 -102 -87 -140.5t-80 -38.5q-30 0 -53 14l15 37q21 -7 36 -7q23 0 43 15t44 52.5t64 117.5zM334 611l-49 94l-92 -94h-53l122 139h56l63 -139h-47z" />
<glyph unicode="&#x178;" horiz-adv-x="441" d="M140 0l61 284l-80 416h51l64 -361l219 361h52l-256 -416l-60 -284h-51zM295 828q0 -18 -13 -30t-32 -12q-16 0 -25.5 9t-9.5 25q0 18 13 30t32 12q16 0 25.5 -9t9.5 -25zM445 828q0 -18 -13 -30t-32 -12q-16 0 -25.5 9t-9.5 25q0 18 13 30t32 12q16 0 25.5 -9t9.5 -25z " />
<glyph unicode="&#x17d;" horiz-adv-x="405" d="M-32 0l9 44l411 609h-274l10 47h333l-9 -44l-411 -609h298l-10 -47h-357zM326 770h-62l-69 109h50l54 -71l84 71h58z" />
<glyph unicode="&#x17e;" horiz-adv-x="345" d="M-23 0l7 36l322 439h-222l8 41h276l-7 -36l-322 -439h234l-8 -41h-288zM212 611l-63 139h47l49 -95l92 95h53l-122 -139h-56z" />
<glyph unicode="&#x218;" horiz-adv-x="418" d="M0 71q53 -33 118 -33q76 0 124.5 46t48.5 118q0 46 -17.5 75.5t-66.5 65.5l-18 13q-47 34 -67.5 73t-20.5 93q0 55 27 98t72.5 66.5t102.5 23.5q78 0 132 -40l-21 -41q-52 33 -111 33q-66 0 -107.5 -38.5t-41.5 -100.5q0 -46 17.5 -75.5t66.5 -65.5l18 -13 q47 -34 67.5 -73t20.5 -93q0 -64 -29.5 -112.5t-80 -74.5t-113.5 -26q-39 0 -76.5 10.5t-65.5 29.5zM70 -215q37 33 51 73q-13 2 -20 10.5t-7 20.5q0 17 12.5 28.5t31.5 11.5q16 0 25 -9.5t9 -25.5q0 -34 -21.5 -67.5t-62.5 -63.5z" />
<glyph unicode="&#x219;" horiz-adv-x="361" d="M3 67q59 -33 112 -33q57 0 90.5 29t33.5 78q0 30 -16.5 54t-54.5 49l-15 10q-43 28 -63 60t-20 73q0 62 44 100.5t116 38.5q64 0 110 -29l-20 -38q-17 11 -41 17t-49 6q-50 0 -80 -25.5t-30 -67.5q0 -30 16.5 -54t54.5 -49l15 -10q43 -28 63 -60t20 -73q0 -71 -46 -112 t-125 -41q-36 0 -73.5 11t-61.5 28zM52 -215q22 20 33.5 37t17.5 37q-12 1 -19.5 9t-7.5 21q0 17 12.5 28.5t30.5 11.5q16 0 24.5 -9.5t8.5 -25.5q0 -33 -21.5 -66.5t-61.5 -63.5z" />
<glyph unicode="&#x21a;" horiz-adv-x="457" d="M149 0l139 653h-173l10 47h393l-10 -47h-169l-139 -653h-51zM102 -215q37 33 51 73q-13 2 -20 10.5t-7 20.5q0 17 12.5 28.5t31.5 11.5q16 0 25 -9.5t9 -25.5q0 -34 -21.5 -67.5t-62.5 -63.5z" />
<glyph unicode="&#x21b;" horiz-adv-x="311" d="M259 21q-48 -31 -102 -31q-47 0 -72.5 25.5t-25.5 72.5q0 27 10 76l66 311h-71l9 41h73l41 151h38l-32 -151h136l-9 -41h-136l-65 -307q-10 -46 -10 -73q0 -59 59 -59q20 0 42 7t39 18zM60 -215q22 20 33.5 37t17.5 37q-12 1 -19.5 9t-7.5 21q0 17 12.5 28.5t30.5 11.5 q16 0 24.5 -9.5t8.5 -25.5q0 -33 -21.5 -66.5t-61.5 -63.5z" />
<glyph unicode="&#x237;" horiz-adv-x="189" d="M-121 -176q19 -7 38 -7q33 0 51 22.5t29 76.5l128 600h49l-129 -605q-16 -75 -44.5 -106t-80.5 -31q-31 0 -54 14z" />
<glyph unicode="&#x2c6;" horiz-adv-x="463" d="M362 611l-49 94l-92 -94h-53l122 139h56l63 -139h-47z" />
<glyph unicode="&#x2c7;" horiz-adv-x="463" d="M271 611l-63 139h47l49 -95l92 95h53l-122 -139h-56z" />
<glyph unicode="&#x2cb;" horiz-adv-x="463" d="M318 611l-76 139h60l63 -139h-47z" />
<glyph unicode="&#x2d8;" horiz-adv-x="463" d="M423 721q-10 -52 -44.5 -82.5t-82.5 -30.5q-44 0 -68.5 25.5t-24.5 70.5q0 10 1 17h42v-8q0 -30 14 -46t40 -16q55 0 78 70h45z" />
<glyph unicode="&#x2da;" horiz-adv-x="463" d="M412 698q0 -46 -32.5 -78t-78.5 -32q-39 0 -63 23.5t-24 62.5q0 46 32.5 78t78.5 32q39 0 63 -23.5t24 -62.5zM370 693q0 24 -13.5 39t-36.5 15q-27 0 -45.5 -19.5t-18.5 -48.5q0 -24 13.5 -39t36.5 -15q27 0 45.5 19.5t18.5 48.5z" />
<glyph unicode="&#x2dc;" horiz-adv-x="463" d="M461 727q-9 -50 -31.5 -76.5t-56.5 -26.5q-18 0 -33.5 8.5t-38.5 31.5q-13 13 -20 17.5t-16 4.5q-32 0 -42 -60h-45q9 50 31.5 76.5t56.5 26.5q18 0 34 -9t38 -31q13 -13 20 -17.5t16 -4.5q32 0 42 60h45z" />
<glyph unicode="&#x300;" horiz-adv-x="0" d="M-4 611l-76 139h60l63 -139h-47z" />
<glyph unicode="&#x301;" horiz-adv-x="0" d="M33 611h-53l122 139h69z" />
<glyph unicode="&#x302;" horiz-adv-x="0" d="M87 611l-49 94l-92 -94h-53l122 139h56l63 -139h-47z" />
<glyph unicode="&#x303;" horiz-adv-x="0" d="M169 727q-9 -50 -31.5 -76.5t-56.5 -26.5q-18 0 -33.5 8.5t-38.5 31.5q-13 13 -20 17.5t-16 4.5q-32 0 -42 -60h-45q9 50 31.5 76.5t56.5 26.5q18 0 34 -9t38 -31q13 -13 20 -17.5t16 -4.5q32 0 42 60h45z" />
<glyph unicode="&#x306;" horiz-adv-x="0" d="M134 721q-10 -52 -44.5 -82.5t-82.5 -30.5q-44 0 -68.5 25.5t-24.5 70.5q0 10 1 17h42v-8q0 -30 14 -46t40 -16q55 0 78 70h45z" />
<glyph unicode="&#x308;" horiz-adv-x="0" d="M-8 685q0 -17 -12.5 -29t-31.5 -12q-16 0 -25 9t-9 24q0 17 12.5 29t31.5 12q16 0 25 -9t9 -24zM142 685q0 -17 -12.5 -29t-31.5 -12q-16 0 -25 9t-9 24q0 17 12.5 29t31.5 12q16 0 25 -9t9 -24z" />
<glyph unicode="&#x30a;" horiz-adv-x="0" d="M128 698q0 -46 -32.5 -78t-78.5 -32q-39 0 -63 23.5t-24 62.5q0 46 32.5 78t78.5 32q39 0 63 -23.5t24 -62.5zM86 693q0 24 -13.5 39t-36.5 15q-27 0 -45.5 -19.5t-18.5 -48.5q0 -24 13.5 -39t36.5 -15q27 0 45.5 19.5t18.5 48.5z" />
<glyph unicode="&#x30c;" horiz-adv-x="0" d="M-15 611l-63 139h47l49 -95l92 95h53l-122 -139h-56z" />
<glyph unicode="&#x326;" horiz-adv-x="0" d="M-74 -215q22 20 33.5 37t17.5 37q-12 1 -19.5 9t-7.5 21q0 17 12.5 28.5t30.5 11.5q16 0 24.5 -9.5t8.5 -25.5q0 -33 -21.5 -66.5t-61.5 -63.5z" />
<glyph unicode="&#x327;" horiz-adv-x="0" d="M-123 -165q38 -20 67 -20q28 0 44.5 12.5t16.5 34.5q0 43 -62 43h-27l57 97h47l-37 -64q67 -11 67 -72q0 -40 -28.5 -65t-75.5 -25q-23 0 -46 6.5t-39 17.5z" />
<glyph unicode="&#x1e80;" horiz-adv-x="677" d="M405 0l-2 552l-241 -552h-57l28 700h50l-32 -619l244 559h52l3 -556l232 616h50l-270 -700h-57zM418 770l-87 109h68l69 -109h-50z" />
<glyph unicode="&#x1e81;" horiz-adv-x="597" d="M343 0l-12 424l-184 -424h-47l-15 516h50l2 -441l183 422h49l12 -424l189 443h50l-230 -516h-47zM355 611l-76 139h60l63 -139h-47z" />
<glyph unicode="&#x1e82;" horiz-adv-x="677" d="M405 0l-2 552l-241 -552h-57l28 700h50l-32 -619l244 559h52l3 -556l232 616h50l-270 -700h-57zM462 770h-58l115 109h76z" />
<glyph unicode="&#x1e83;" horiz-adv-x="597" d="M343 0l-12 424l-184 -424h-47l-15 516h50l2 -441l183 422h49l12 -424l189 443h50l-230 -516h-47zM392 611h-53l122 139h69z" />
<glyph unicode="&#x1e84;" horiz-adv-x="677" d="M405 0l-2 552l-241 -552h-57l28 700h50l-32 -619l244 559h52l3 -556l232 616h50l-270 -700h-57zM413 828q0 -18 -13 -30t-32 -12q-16 0 -25.5 9t-9.5 25q0 18 13 30t32 12q16 0 25.5 -9t9.5 -25zM563 828q0 -18 -13 -30t-32 -12q-16 0 -25.5 9t-9.5 25q0 18 13 30t32 12 q16 0 25.5 -9t9.5 -25z" />
<glyph unicode="&#x1e85;" horiz-adv-x="597" d="M343 0l-12 424l-184 -424h-47l-15 516h50l2 -441l183 422h49l12 -424l189 443h50l-230 -516h-47zM351 685q0 -17 -12.5 -29t-31.5 -12q-16 0 -25 9t-9 24q0 17 12.5 29t31.5 12q16 0 25 -9t9 -24zM501 685q0 -17 -12.5 -29t-31.5 -12q-16 0 -25 9t-9 24q0 17 12.5 29 t31.5 12q16 0 25 -9t9 -24z" />
<glyph unicode="&#x1e9e;" horiz-adv-x="530" d="M160 63q44 -25 98 -25q75 0 121 47.5t46 121.5q0 66 -33 103t-91 37q-16 0 -30 -2l9 45l202 232q-27 19 -61.5 30t-67.5 11q-77 0 -122.5 -51t-69.5 -165l-95 -447h-51l95 447q20 93 50.5 150.5t77 85t115.5 27.5q95 0 178 -65l-9 -45l-184 -211q64 -9 102 -57t38 -120 q0 -68 -28 -118.5t-78 -77t-114 -26.5q-65 0 -118 32z" />
<glyph unicode="&#x1ef2;" horiz-adv-x="441" d="M140 0l61 284l-80 416h51l64 -361l219 361h52l-256 -416l-60 -284h-51zM300 770l-87 109h68l69 -109h-50z" />
<glyph unicode="&#x1ef3;" horiz-adv-x="394" d="M78 516h50l30 -439l216 439h51l-286 -563q-51 -102 -87 -140.5t-80 -38.5q-30 0 -53 14l15 37q21 -7 36 -7q23 0 43 15t44 52.5t64 117.5zM243 611l-76 139h60l63 -139h-47z" />
<glyph unicode="&#x2000;" horiz-adv-x="370" />
<glyph unicode="&#x2001;" horiz-adv-x="740" />
<glyph unicode="&#x2002;" horiz-adv-x="370" />
<glyph unicode="&#x2003;" horiz-adv-x="740" />
<glyph unicode="&#x2004;" horiz-adv-x="247" />
<glyph unicode="&#x2005;" horiz-adv-x="185" />
<glyph unicode="&#x2006;" horiz-adv-x="123" />
<glyph unicode="&#x2007;" horiz-adv-x="490" />
<glyph unicode="&#x2008;" horiz-adv-x="170" />
<glyph unicode="&#x2009;" horiz-adv-x="148" />
<glyph unicode="&#x200a;" horiz-adv-x="55" />
<glyph unicode="&#x200b;" horiz-adv-x="0" />
<glyph unicode="&#x2013;" horiz-adv-x="370" d="M-1 253l9 41h370l-9 -41h-370z" />
<glyph unicode="&#x2014;" horiz-adv-x="740" d="M-1 253l9 41h740l-9 -41h-740z" />
<glyph unicode="&#x2018;" horiz-adv-x="147" d="M232 697q-33 -22 -53.5 -45.5t-32.5 -54.5q13 -1 21 -10t8 -22q0 -17 -12.5 -29.5t-31.5 -12.5q-17 0 -26 11t-9 30q0 38 33.5 81.5t86.5 74.5z" />
<glyph unicode="&#x2019;" horiz-adv-x="147" d="M67 536q33 22 53 45.5t32 53.5q-28 5 -28 33q0 17 12.5 29.5t31.5 12.5q17 0 26 -11t9 -30q0 -38 -33.5 -81.5t-86.5 -74.5z" />
<glyph unicode="&#x201a;" horiz-adv-x="147" d="M-70 -106q33 22 53 45.5t32 53.5q-28 5 -28 33q0 17 12.5 29.5t31.5 12.5q17 0 26 -11t9 -30q0 -38 -33.5 -81.5t-86.5 -74.5z" />
<glyph unicode="&#x201c;" horiz-adv-x="267" d="M232 697q-33 -22 -53.5 -45.5t-32.5 -54.5q13 -1 21 -10t8 -22q0 -17 -12.5 -29.5t-31.5 -12.5q-17 0 -26 11t-9 30q0 38 33.5 81.5t86.5 74.5zM352 697q-33 -22 -53.5 -45.5t-32.5 -54.5q13 -1 21 -10t8 -22q0 -17 -12.5 -29.5t-31.5 -12.5q-17 0 -26 11t-9 30 q0 38 33.5 81.5t86.5 74.5z" />
<glyph unicode="&#x201d;" horiz-adv-x="267" d="M67 536q33 22 53 45.5t32 53.5q-28 5 -28 33q0 17 12.5 29.5t31.5 12.5q17 0 26 -11t9 -30q0 -38 -33.5 -81.5t-86.5 -74.5zM187 536q33 22 53 45.5t32 53.5q-28 5 -28 33q0 17 12.5 29.5t31.5 12.5q17 0 26 -11t9 -30q0 -38 -33.5 -81.5t-86.5 -74.5z" />
<glyph unicode="&#x201e;" horiz-adv-x="267" d="M-70 -106q33 22 53 45.5t32 53.5q-28 5 -28 33q0 17 12.5 29.5t31.5 12.5q17 0 26 -11t9 -30q0 -38 -33.5 -81.5t-86.5 -74.5zM50 -106q33 22 53 45.5t32 53.5q-28 5 -28 33q0 17 12.5 29.5t31.5 12.5q17 0 26 -11t9 -30q0 -38 -33.5 -81.5t-86.5 -74.5z" />
<glyph unicode="&#x2020;" horiz-adv-x="381" d="M86 -116l119 558h-119l9 43h119l53 245h49l-53 -245h121l-9 -43h-121l-119 -558h-49z" />
<glyph unicode="&#x2021;" horiz-adv-x="381" d="M86 -116l52 245h-120l9 43h120l58 270h-119l9 43h119l53 245h49l-53 -245h121l-9 -43h-121l-58 -270h120l-9 -43h-120l-52 -245h-49z" />
<glyph unicode="&#x2022;" horiz-adv-x="234" d="M204 302q0 -39 -29 -65.5t-68 -26.5q-28 0 -46.5 18.5t-18.5 45.5q0 39 29 65.5t68 26.5q28 0 46.5 -18.5t18.5 -45.5z" />
<glyph unicode="&#x2026;" horiz-adv-x="740" d="M115 34q0 -19 -13 -31.5t-32 -12.5q-16 0 -25.5 9.5t-9.5 24.5q0 19 13 31.5t32 12.5q16 0 25.5 -9.5t9.5 -24.5zM361 34q0 -19 -13 -31.5t-32 -12.5q-16 0 -25.5 9.5t-9.5 24.5q0 19 13 31.5t32 12.5q16 0 25.5 -9.5t9.5 -24.5zM607 34q0 -19 -13 -31.5t-32 -12.5 q-16 0 -25.5 9.5t-9.5 24.5q0 19 13 31.5t32 12.5q16 0 25.5 -9.5t9.5 -24.5z" />
<glyph unicode="&#x2032;" horiz-adv-x="168" d="M90 505l75 195h60l-94 -195h-41z" />
<glyph unicode="&#x2033;" horiz-adv-x="300" d="M90 505l75 195h60l-94 -195h-41zM222 505l75 195h60l-94 -195h-41z" />
<glyph unicode="&#x2039;" horiz-adv-x="220" d="M105 107l-75 173l149 173h52l-153 -178l73 -168h-46z" />
<glyph unicode="&#x203a;" horiz-adv-x="220" d="M-2 107l153 178l-73 168h46l75 -173l-149 -173h-52z" />
<glyph unicode="&#x2044;" horiz-adv-x="83" d="M-180 0l428 690h50l-428 -690h-50z" />
<glyph unicode="&#x2070;" d="M222 452q49 0 85 73q16 33 25 76t9 86q0 91 -53 91q-49 0 -85 -73q-16 -33 -25 -76t-9 -86q0 -91 53 -91zM344 498q-50 -88 -130 -88q-47 0 -69.5 34t-22.5 104q0 108 44 184q50 88 130 88q47 0 69.5 -34t22.5 -104q0 -108 -44 -184z" />
<glyph unicode="&#x2074;" d="M254 420l19 89h-178l8 39l237 262h40l-56 -261h39l-8 -40h-39l-19 -89h-43zM281 549l39 184l-167 -184h128z" />
<glyph unicode="&#x2075;" d="M235 767l-30 -113q11 1 32 1q47 0 78 -31t31 -79q0 -58 -39.5 -96.5t-100.5 -38.5q-58 0 -101 31l13 36q44 -25 86 -25q43 0 70 25.5t27 66.5q0 32 -21 51.5t-54 19.5q-44 0 -72 -2l53 197h177l-9 -43h-140z" />
<glyph unicode="&#x2076;" d="M363 764q-22 14 -56 14q-45 0 -78 -32.5t-48 -92.5q25 5 55 5q60 0 95 -31.5t35 -85.5q0 -59 -35.5 -95t-92.5 -36q-52 0 -83.5 38.5t-31.5 101.5q0 121 51 195.5t133 74.5q41 0 73 -21zM228 618q-30 0 -55 -5q-4 -27 -4 -66q0 -44 19.5 -69.5t51.5 -25.5q37 0 58.5 23.5 t21.5 64.5q0 37 -24 57.5t-68 20.5z" />
<glyph unicode="&#x2077;" d="M169 420l1 5q10 53 25 90t43 84.5t71 109.5l40 58h-163l9 43h211l-8 -39l-58 -85q-28 -41 -49 -75.5t-36 -63.5t-24.5 -55.5t-17.5 -66.5l-1 -5h-43z" />
<glyph unicode="&#x2078;" d="M379 725q0 -34 -18.5 -61.5t-50.5 -44.5q26 -14 38.5 -35.5t12.5 -52.5q0 -53 -38.5 -87t-98.5 -34q-51 0 -81.5 27.5t-30.5 73.5q0 37 23.5 68t64.5 48q-39 27 -39 78t34 83t89 32q43 0 69 -26t26 -69zM232 611q-35 -14 -55 -39.5t-20 -54.5q0 -31 19.5 -49t52.5 -18 q38 0 62.5 22.5t24.5 58.5q0 50 -47 67zM205 708q0 -50 48 -67l22 -8q27 14 43.5 37.5t16.5 50.5q0 29 -15 44t-43 15q-31 0 -51.5 -20.5t-20.5 -51.5z" />
<glyph unicode="&#x2079;" d="M198 452q53 0 84.5 30.5t44.5 94.5q-19 -5 -58 -5q-60 0 -95 31.5t-35 85.5q0 59 35.5 95t92.5 36q52 0 83.5 -38.5t31.5 -101.5q0 -131 -47.5 -200.5t-136.5 -69.5q-43 0 -78 24l17 35q24 -17 61 -17zM277 612q36 0 56 4q3 30 3 67q0 44 -19.5 69.5t-51.5 25.5 q-37 0 -58.5 -23.5t-21.5 -64.5q0 -37 24 -57.5t68 -20.5z" />
<glyph unicode="&#x2080;" d="M107 -88q49 0 85 73q16 33 25 76t9 86q0 91 -53 91q-49 0 -85 -73q-16 -33 -25 -76t-9 -86q0 -91 53 -91zM229 -42q-50 -88 -130 -88q-47 0 -69.5 34t-22.5 104q0 108 44 184q50 88 130 88q47 0 69.5 -34t22.5 -104q0 -108 -44 -184z" />
<glyph unicode="&#x2081;" d="M102 -120l69 326l-90 -67l-21 34l130 97h41l-83 -390h-46z" />
<glyph unicode="&#x2082;" d="M8 -120l4 20q10 50 22 81t33 54.5t62 50.5q53 35 71 55.5t18 45.5q0 24 -15.5 37.5t-44.5 13.5q-40 0 -71 -23l-18 35q46 30 94 30q45 0 73 -24t28 -63q0 -38 -21 -64.5t-84 -70.5q-31 -22 -47.5 -38t-27.5 -37.5t-21 -59.5h155l-9 -43h-201z" />
<glyph unicode="&#x2083;" d="M-1 -62q42 -26 87 -26q44 0 70 22t26 59q0 34 -22.5 52.5t-65.5 18.5h-31l8 40h29q46 0 73 21t27 56q0 28 -15.5 42.5t-44.5 14.5q-40 0 -71 -23l-18 35q42 30 95 30q46 0 73 -25.5t27 -68.5q0 -36 -22.5 -63.5t-62.5 -39.5q32 -12 49.5 -36.5t17.5 -56.5 q0 -53 -39 -86.5t-101 -33.5q-61 0 -105 33z" />
<glyph unicode="&#x2084;" d="M139 -120l19 89h-178l8 39l237 262h40l-56 -261h39l-8 -40h-39l-19 -89h-43zM166 9l39 184l-167 -184h128z" />
<glyph unicode="&#x2085;" d="M120 227l-30 -113q11 1 32 1q47 0 78 -31t31 -79q0 -58 -39.5 -96.5t-100.5 -38.5q-58 0 -101 31l13 36q44 -25 86 -25q43 0 70 25.5t27 66.5q0 32 -21 51.5t-54 19.5q-44 0 -72 -2l53 197h177l-9 -43h-140z" />
<glyph unicode="&#x2086;" d="M248 224q-22 14 -56 14q-45 0 -78 -32.5t-48 -92.5q25 5 55 5q60 0 95 -31.5t35 -85.5q0 -59 -35.5 -95t-92.5 -36q-52 0 -83.5 38.5t-31.5 101.5q0 121 51 195.5t133 74.5q41 0 73 -21zM113 78q-30 0 -55 -5q-4 -27 -4 -66q0 -44 19.5 -69.5t51.5 -25.5q37 0 58.5 23.5 t21.5 64.5q0 37 -24 57.5t-68 20.5z" />
<glyph unicode="&#x2087;" d="M54 -120l1 5q10 53 25 90t43 84.5t71 109.5l40 58h-163l9 43h211l-8 -39l-58 -85q-28 -41 -49 -75.5t-36 -63.5t-24.5 -55.5t-17.5 -66.5l-1 -5h-43z" />
<glyph unicode="&#x2088;" d="M264 185q0 -34 -18.5 -61.5t-50.5 -44.5q26 -14 38.5 -35.5t12.5 -52.5q0 -53 -38.5 -87t-98.5 -34q-51 0 -81.5 27.5t-30.5 73.5q0 37 23.5 68t64.5 48q-39 27 -39 78t34 83t89 32q43 0 69 -26t26 -69zM117 71q-35 -14 -55 -39.5t-20 -54.5q0 -31 19.5 -49t52.5 -18 q38 0 62.5 22.5t24.5 58.5q0 50 -47 67zM90 168q0 -50 48 -67l22 -8q27 14 43.5 37.5t16.5 50.5q0 29 -15 44t-43 15q-31 0 -51.5 -20.5t-20.5 -51.5z" />
<glyph unicode="&#x2089;" d="M83 -88q53 0 84.5 30.5t44.5 94.5q-19 -5 -58 -5q-60 0 -95 31.5t-35 85.5q0 59 35.5 95t92.5 36q52 0 83.5 -38.5t31.5 -101.5q0 -131 -47.5 -200.5t-136.5 -69.5q-43 0 -78 24l17 35q24 -17 61 -17zM162 72q36 0 56 4q3 30 3 67q0 44 -19.5 69.5t-51.5 25.5 q-37 0 -58.5 -23.5t-21.5 -64.5q0 -37 24 -57.5t68 -20.5z" />
<glyph unicode="&#x20ac;" horiz-adv-x="490" d="M144 247v-21q0 -90 35.5 -140.5t99.5 -50.5q58 0 114 35l16 -37q-60 -43 -141 -43q-82 0 -129.5 60t-47.5 165v32h-62l16 44h50q7 61 19 109h-53l16 44h50q42 120 117.5 188t168.5 68q60 0 104 -29l-18 -39q-18 10 -43.5 16.5t-47.5 6.5q-72 0 -132 -56t-96 -155h205 l-16 -44h-202q-16 -55 -20 -109h192l-16 -44h-179z" />
<glyph unicode="&#x20ba;" horiz-adv-x="490" d="M163 241l-41 -195h50q90 0 144 57.5t76 177.5h50q-24 -147 -91 -214t-189 -67h-100l45 213l-77 -38l10 49l77 38l24 110l-79 -39l10 49l79 39l57 269h50l-51 -241l133 67l-10 -49l-133 -67l-23 -109l134 67l-10 -49z" />
<glyph unicode="&#x20bd;" horiz-adv-x="490" d="M77 0l28 132h-87l9 44h87l23 108h-89l9 44h90l77 362h111q81 0 123.5 -42.5t42.5 -121.5q0 -73 -29.5 -128t-81 -84.5t-118.5 -29.5h-85l-23 -108h163l-9 -44h-163l-28 -132h-50zM197 328h83q49 0 88 26.5t60 71t21 96.5q0 60 -30.5 92t-85.5 32h-68z" />
<glyph unicode="&#x2122;" horiz-adv-x="626" d="M611 316v286l-88 -237h-39l-88 237v-286h-44v384h53l99 -275l99 275h52v-384h-44zM158 316v340h-94v44h234v-44h-94v-340h-46z" />
<glyph unicode="&#x2212;" horiz-adv-x="490" d="M75 322l9 45h367l-9 -45h-367z" />
<glyph unicode="&#x25fc;" horiz-adv-x="515" d="M0 515h515v-515h-515v515z" />
<glyph unicode="&#xfeff;" horiz-adv-x="0" />
<glyph horiz-adv-x="490" d="M201 35q46 0 87.5 49t70.5 139q49 150 49 270q0 162 -84 162q-46 0 -87.5 -49t-70.5 -139q-49 -150 -49 -270q0 -162 84 -162zM192 -10q-61 0 -93.5 53t-32.5 151q0 149 58 305q74 201 209 201q61 0 93.5 -53t32.5 -151q0 -149 -58 -305q-74 -201 -209 -201z" />
<glyph horiz-adv-x="490" d="M51 0l10 46h131l123 577l-144 -107l-23 37l183 137h48l-137 -644h123l-10 -46h-304z" />
<glyph horiz-adv-x="490" d="M47 0l8 34q31 134 70 201t116 115l16 10q85 53 118.5 94.5t33.5 89.5q0 53 -27 82t-77 29q-58 0 -114 -41l-19 36q29 24 65 37t73 13q68 0 109 -41.5t41 -110.5q0 -60 -43.5 -114.5t-140.5 -115.5l-16 -10q-39 -24 -64.5 -55.5t-46.5 -81t-40 -125.5h259l-10 -46h-311z " />
<glyph horiz-adv-x="490" d="M59 70q56 -35 116 -35q72 0 117 47.5t45 123.5q0 64 -34 99t-95 35h-44l10 44h54q69 0 113 45t44 115q0 53 -27 82t-77 29q-57 0 -114 -36l-19 36q30 21 66.5 33t71.5 12q68 0 109 -41.5t41 -110.5q0 -67 -38.5 -120t-99.5 -72q43 -16 66.5 -55.5t23.5 -97.5 q0 -63 -27.5 -112t-75 -75t-109.5 -26q-78 0 -134 41z" />
<glyph horiz-adv-x="490" d="M263 0l38 178h-270l9 42l366 470h53l-100 -468h64l-9 -44h-64l-38 -178h-49zM310 222l80 378l-294 -378h214z" />
<glyph horiz-adv-x="490" d="M71 70q56 -35 116 -35q73 0 117.5 53t44.5 139q0 65 -31 99.5t-91 34.5q-38 0 -92 -2l88 331h222l-10 -46h-179l-64 -239q17 1 47 1q77 0 119 -47.5t42 -134.5q0 -71 -27.5 -124t-75.5 -81.5t-109 -28.5q-78 0 -134 41z" />
<glyph horiz-adv-x="490" d="M457 631q-19 11 -43 17.5t-46 6.5q-65 0 -119.5 -68t-84.5 -183q47 9 87 9q181 0 181 -186q0 -109 -52 -173t-140 -64q-75 0 -114 53.5t-39 154.5q0 143 39.5 258.5t104 179.5t139.5 64q58 0 106 -30zM254 370q-50 0 -100 -9q-16 -74 -16 -163q0 -163 105 -163 q64 0 101 50.5t37 136.5q0 148 -127 148z" />
<glyph horiz-adv-x="490" d="M121 0l7 39q21 118 60.5 207.5t132.5 243.5l93 154h-249l10 46h301l-9 -43l-100 -167q-93 -155 -131 -242t-58 -199l-7 -39h-50z" />
<glyph horiz-adv-x="490" d="M469 552q0 -59 -36 -114t-94 -84q35 -23 55 -61t20 -83q0 -65 -28 -115t-75 -77.5t-104 -27.5q-69 0 -109.5 43t-40.5 116q0 51 20.5 97t55 78.5t76.5 45.5q-33 22 -50.5 56t-17.5 75q0 85 53.5 142t133.5 57q64 0 102.5 -40t38.5 -108zM249 350q-60 -16 -100.5 -71.5 t-40.5 -121.5q0 -58 28 -90.5t78 -32.5q42 0 76.5 24.5t53.5 64t19 86.5q0 98 -86 131zM191 501q0 -44 21 -73t65 -46l23 -9q51 24 85 72t34 98q0 54 -25.5 83.5t-71.5 29.5q-57 0 -94 -44t-37 -111z" />
<glyph horiz-adv-x="490" d="M159 35q69 0 124.5 68t83.5 186q-49 -9 -91 -9q-92 0 -136.5 45t-44.5 138q0 109 52 173t140 64q75 0 114 -53.5t39 -154.5q0 -151 -37.5 -265.5t-102.5 -175.5t-148 -61q-56 0 -109 35l19 39q19 -13 46.5 -21t50.5 -8zM273 323q49 0 102 9q14 76 14 160q0 163 -105 163 q-64 0 -101 -50.5t-37 -136.5q0 -73 31 -109t96 -36z" />
<glyph d="M133 32q49 0 85 73q16 33 25 76t9 86q0 91 -53 91q-49 0 -85 -73q-16 -33 -25 -76t-9 -86q0 -91 53 -91zM255 78q-50 -88 -130 -88q-47 0 -69.5 34t-22.5 104q0 108 44 184q50 88 130 88q47 0 69.5 -34t22.5 -104q0 -108 -44 -184z" />
<glyph d="M128 0l69 326l-90 -67l-21 34l130 97h41l-83 -390h-46z" />
<glyph d="M34 0l4 20q10 50 22 81t33 54.5t62 50.5q53 35 71 55.5t18 45.5q0 24 -15.5 37.5t-44.5 13.5q-40 0 -71 -23l-18 35q46 30 94 30q45 0 73 -24t28 -63q0 -38 -21 -64.5t-84 -70.5q-31 -22 -47.5 -38t-27.5 -37.5t-21 -59.5h155l-9 -43h-201z" />
<glyph d="M25 58q42 -26 87 -26q44 0 70 22t26 59q0 34 -22.5 52.5t-65.5 18.5h-31l8 40h29q46 0 73 21t27 56q0 28 -15.5 42.5t-44.5 14.5q-40 0 -71 -23l-18 35q42 30 95 30q46 0 73 -25.5t27 -68.5q0 -36 -22.5 -63.5t-62.5 -39.5q32 -12 49.5 -36.5t17.5 -56.5q0 -53 -39 -86.5 t-101 -33.5q-61 0 -105 33z" />
<glyph d="M165 0l19 89h-178l8 39l237 262h40l-56 -261h39l-8 -40h-39l-19 -89h-43zM192 129l39 184l-167 -184h128z" />
<glyph d="M146 347l-30 -113q11 1 32 1q47 0 78 -31t31 -79q0 -58 -39.5 -96.5t-100.5 -38.5q-58 0 -101 31l13 36q44 -25 86 -25q43 0 70 25.5t27 66.5q0 32 -21 51.5t-54 19.5q-44 0 -72 -2l53 197h177l-9 -43h-140z" />
<glyph d="M274 344q-22 14 -56 14q-45 0 -78 -32.5t-48 -92.5q25 5 55 5q60 0 95 -31.5t35 -85.5q0 -59 -35.5 -95t-92.5 -36q-52 0 -83.5 38.5t-31.5 101.5q0 121 51 195.5t133 74.5q41 0 73 -21zM139 198q-30 0 -55 -5q-4 -27 -4 -66q0 -44 19.5 -69.5t51.5 -25.5q37 0 58.5 23.5 t21.5 64.5q0 37 -24 57.5t-68 20.5z" />
<glyph d="M80 0l1 5q10 53 25 90t43 84.5t71 109.5l40 58h-163l9 43h211l-8 -39l-58 -85q-28 -41 -49 -75.5t-36 -63.5t-24.5 -55.5t-17.5 -66.5l-1 -5h-43z" />
<glyph d="M290 305q0 -34 -18.5 -61.5t-50.5 -44.5q26 -14 38.5 -35.5t12.5 -52.5q0 -53 -38.5 -87t-98.5 -34q-51 0 -81.5 27.5t-30.5 73.5q0 37 23.5 68t64.5 48q-39 27 -39 78t34 83t89 32q43 0 69 -26t26 -69zM143 191q-35 -14 -55 -39.5t-20 -54.5q0 -31 19.5 -49t52.5 -18 q38 0 62.5 22.5t24.5 58.5q0 50 -47 67zM116 288q0 -50 48 -67l22 -8q27 14 43.5 37.5t16.5 50.5q0 29 -15 44t-43 15q-31 0 -51.5 -20.5t-20.5 -51.5z" />
<glyph d="M109 32q53 0 84.5 30.5t44.5 94.5q-19 -5 -58 -5q-60 0 -95 31.5t-35 85.5q0 59 35.5 95t92.5 36q52 0 83.5 -38.5t31.5 -101.5q0 -131 -47.5 -200.5t-136.5 -69.5q-43 0 -78 24l17 35q24 -17 61 -17zM188 192q36 0 56 4q3 30 3 67q0 44 -19.5 69.5t-51.5 25.5 q-37 0 -58.5 -23.5t-21.5 -64.5q0 -37 24 -57.5t68 -20.5z" />
<glyph d="M197 332q49 0 85 73q16 33 25 76t9 86q0 91 -53 91q-49 0 -85 -73q-16 -33 -25 -76t-9 -86q0 -91 53 -91zM319 378q-50 -88 -130 -88q-47 0 -69.5 34t-22.5 104q0 108 44 184q50 88 130 88q47 0 69.5 -34t22.5 -104q0 -108 -44 -184z" />
<glyph d="M192 300l69 326l-90 -67l-21 34l130 97h41l-83 -390h-46z" />
<glyph d="M96 300l4 20q10 50 22 81t33 54.5t62 50.5q53 35 71 55.5t18 45.5q0 24 -15.5 37.5t-44.5 13.5q-40 0 -71 -23l-18 35q46 30 94 30q45 0 73 -24t28 -63q0 -38 -21 -64.5t-84 -70.5q-31 -22 -47.5 -38t-27.5 -37.5t-21 -59.5h155l-9 -43h-201z" />
<glyph d="M89 358q42 -26 87 -26q44 0 70 22t26 59q0 34 -22.5 52.5t-65.5 18.5h-31l8 40h29q46 0 73 21t27 56q0 28 -15.5 42.5t-44.5 14.5q-40 0 -71 -23l-18 35q42 30 95 30q46 0 73 -25.5t27 -68.5q0 -36 -22.5 -63.5t-62.5 -39.5q32 -12 49.5 -36.5t17.5 -56.5 q0 -53 -39 -86.5t-101 -33.5q-61 0 -105 33z" />
<glyph d="M229 300l19 89h-178l8 39l237 262h40l-56 -261h39l-8 -40h-39l-19 -89h-43zM256 429l39 184l-167 -184h128z" />
<glyph d="M210 647l-30 -113q11 1 32 1q47 0 78 -31t31 -79q0 -58 -39.5 -96.5t-100.5 -38.5q-58 0 -101 31l13 36q44 -25 86 -25q43 0 70 25.5t27 66.5q0 32 -21 51.5t-54 19.5q-44 0 -72 -2l53 197h177l-9 -43h-140z" />
<glyph d="M340 644q-22 14 -56 14q-45 0 -78 -32.5t-48 -92.5q25 5 55 5q60 0 95 -31.5t35 -85.5q0 -59 -35.5 -95t-92.5 -36q-52 0 -83.5 38.5t-31.5 101.5q0 121 51 195.5t133 74.5q41 0 73 -21zM205 498q-30 0 -55 -5q-4 -27 -4 -66q0 -44 19.5 -69.5t51.5 -25.5q37 0 58.5 23.5 t21.5 64.5q0 37 -24 57.5t-68 20.5z" />
<glyph d="M144 300l1 5q10 53 25 90t43 84.5t71 109.5l40 58h-163l9 43h211l-8 -39l-58 -85q-28 -41 -49 -75.5t-36 -63.5t-24.5 -55.5t-17.5 -66.5l-1 -5h-43z" />
<glyph d="M354 605q0 -34 -18.5 -61.5t-50.5 -44.5q26 -14 38.5 -35.5t12.5 -52.5q0 -53 -38.5 -87t-98.5 -34q-51 0 -81.5 27.5t-30.5 73.5q0 37 23.5 68t64.5 48q-39 27 -39 78t34 83t89 32q43 0 69 -26t26 -69zM207 491q-35 -14 -55 -39.5t-20 -54.5q0 -31 19.5 -49t52.5 -18 q38 0 62.5 22.5t24.5 58.5q0 50 -47 67zM180 588q0 -50 48 -67l22 -8q27 14 43.5 37.5t16.5 50.5q0 29 -15 44t-43 15q-31 0 -51.5 -20.5t-20.5 -51.5z" />
<glyph d="M173 332q53 0 84.5 30.5t44.5 94.5q-19 -5 -58 -5q-60 0 -95 31.5t-35 85.5q0 59 35.5 95t92.5 36q52 0 83.5 -38.5t31.5 -101.5q0 -131 -47.5 -200.5t-136.5 -69.5q-43 0 -78 24l17 35q24 -17 61 -17zM252 492q36 0 56 4q3 30 3 67q0 44 -19.5 69.5t-51.5 25.5 q-37 0 -58.5 -23.5t-21.5 -64.5q0 -37 24 -57.5t68 -20.5z" />
<glyph d="M66 -190l12 61q-26 2 -51.5 11t-42.5 21l16 32q38 -22 86 -27l34 159q-81 39 -81 109q0 47 34 75t92 29l12 60h37l-13 -63q42 -7 77 -30l-16 -32q-33 18 -69 24l-31 -148q77 -38 77 -107q0 -47 -33 -77.5t-91 -35.5l-12 -61h-37zM83 174q0 -22 11 -38.5t35 -29.5l28 136 q-36 -1 -55 -18.5t-19 -49.5zM195 -14q0 21 -10 36.5t-32 28.5l-30 -142q34 6 53 26.5t19 50.5z" />
<glyph d="M89 -190l13 63q-35 8 -56 37.5t-21 72.5q0 77 38 129t102 60l13 61h37l-13 -62q28 -5 49 -18l-16 -32q-20 11 -41 13l-48 -226q23 3 53 21l10 -33q-13 -10 -32.5 -17t-38.5 -8l-12 -61h-37zM69 -16q0 -58 41 -72l46 220q-40 -11 -63.5 -50.5t-23.5 -97.5z" />
<glyph horiz-adv-x="510" d="M69 -120l256 390h43l-256 -390h-43zM397 -82q-31 -48 -78 -48q-31 0 -49.5 22.5t-18.5 60.5q0 64 28 106q31 48 78 48q31 0 49.5 -22.5t18.5 -60.5q0 -64 -28 -106zM324 -96q25 0 43 34q18 33 18 88q0 22 -8.5 34.5t-24.5 12.5q-25 0 -43 -34q-18 -33 -18 -88 q0 -22 8.5 -34.5t24.5 -12.5zM158 91q-31 -48 -78 -48q-31 0 -49.5 22.5t-18.5 60.5q0 64 28 106q31 48 78 48q31 0 49.5 -22.5t18.5 -60.5q0 -64 -28 -106zM85 77q25 0 43 34q18 33 18 88q0 22 -8.5 34.5t-24.5 12.5q-25 0 -43 -34q-18 -33 -18 -88q0 -22 8.5 -34.5 t24.5 -12.5z" />
<glyph d="M-7 -120l41 113h-44l8 35h49l35 94h-54l8 35h59l41 113h38l-41 -113h73l41 113h38l-41 -113h44l-8 -35h-49l-35 -94h54l-8 -35h-59l-41 -113h-38l41 113h-73l-41 -113h-38zM85 28h73l35 94h-73z" />
<glyph d="M181 350l12 61q-26 2 -51.5 11t-42.5 21l16 32q38 -22 86 -27l34 159q-81 39 -81 109q0 47 34 75t92 29l12 60h37l-13 -63q42 -7 77 -30l-16 -32q-33 18 -69 24l-31 -148q77 -38 77 -107q0 -47 -33 -77.5t-91 -35.5l-12 -61h-37zM198 714q0 -22 11 -38.5t35 -29.5l28 136 q-36 -1 -55 -18.5t-19 -49.5zM310 526q0 21 -10 36.5t-32 28.5l-30 -142q34 6 53 26.5t19 50.5z" />
<glyph d="M204 350l13 63q-35 8 -56 37.5t-21 72.5q0 77 38 129t102 60l13 61h37l-13 -62q28 -5 49 -18l-16 -32q-20 11 -41 13l-48 -226q23 3 53 21l10 -33q-13 -10 -32.5 -17t-38.5 -8l-12 -61h-37zM184 524q0 -58 41 -72l46 220q-40 -11 -63.5 -50.5t-23.5 -97.5z" />
<glyph horiz-adv-x="510" d="M180 420l256 390h43l-256 -390h-43zM508 458q-31 -48 -78 -48q-31 0 -49.5 22.5t-18.5 60.5q0 64 28 106q31 48 78 48q31 0 49.5 -22.5t18.5 -60.5q0 -64 -28 -106zM435 444q25 0 43 34q18 33 18 88q0 22 -8.5 34.5t-24.5 12.5q-25 0 -43 -34q-18 -33 -18 -88 q0 -22 8.5 -34.5t24.5 -12.5zM269 631q-31 -48 -78 -48q-31 0 -49.5 22.5t-18.5 60.5q0 64 28 106q31 48 78 48q31 0 49.5 -22.5t18.5 -60.5q0 -64 -28 -106zM196 617q25 0 43 34q18 33 18 88q0 22 -8.5 34.5t-24.5 12.5q-25 0 -43 -34q-18 -33 -18 -88q0 -22 8.5 -34.5 t24.5 -12.5z" />
<glyph d="M108 420l41 113h-44l8 35h49l35 94h-54l8 35h59l41 113h38l-41 -113h73l41 113h38l-41 -113h44l-8 -35h-49l-35 -94h54l-8 -35h-59l-41 -113h-38l41 113h-73l-41 -113h-38zM200 568h73l35 94h-73z" />
<glyph d="M92 -70l12 61q-26 2 -51.5 11t-42.5 21l16 32q38 -22 86 -27l34 159q-81 39 -81 109q0 47 34 75t92 29l12 60h37l-13 -63q42 -7 77 -30l-16 -32q-33 18 -69 24l-31 -148q77 -38 77 -107q0 -47 -33 -77.5t-91 -35.5l-12 -61h-37zM109 294q0 -22 11 -38.5t35 -29.5l28 136 q-36 -1 -55 -18.5t-19 -49.5zM221 106q0 21 -10 36.5t-32 28.5l-30 -142q34 6 53 26.5t19 50.5z" />
<glyph d="M115 -70l13 63q-35 8 -56 37.5t-21 72.5q0 77 38 129t102 60l13 61h37l-13 -62q28 -5 49 -18l-16 -32q-20 11 -41 13l-48 -226q23 3 53 21l10 -33q-13 -10 -32.5 -17t-38.5 -8l-12 -61h-37zM95 104q0 -58 41 -72l46 220q-40 -11 -63.5 -50.5t-23.5 -97.5z" />
<glyph horiz-adv-x="510" d="M91 0l256 390h43l-256 -390h-43zM419 38q-31 -48 -78 -48q-31 0 -49.5 22.5t-18.5 60.5q0 64 28 106q31 48 78 48q31 0 49.5 -22.5t18.5 -60.5q0 -64 -28 -106zM346 24q25 0 43 34q18 33 18 88q0 22 -8.5 34.5t-24.5 12.5q-25 0 -43 -34q-18 -33 -18 -88q0 -22 8.5 -34.5 t24.5 -12.5zM180 211q-31 -48 -78 -48q-31 0 -49.5 22.5t-18.5 60.5q0 64 28 106q31 48 78 48q31 0 49.5 -22.5t18.5 -60.5q0 -64 -28 -106zM107 197q25 0 43 34q18 33 18 88q0 22 -8.5 34.5t-24.5 12.5q-25 0 -43 -34q-18 -33 -18 -88q0 -22 8.5 -34.5t24.5 -12.5z" />
<glyph d="M19 0l41 113h-44l8 35h49l35 94h-54l8 35h59l41 113h38l-41 -113h73l41 113h38l-41 -113h44l-8 -35h-49l-35 -94h54l-8 -35h-59l-41 -113h-38l41 113h-73l-41 -113h-38zM111 148h73l35 94h-73z" />
<glyph d="M156 230l12 61q-26 2 -51.5 11t-42.5 21l16 32q38 -22 86 -27l34 159q-81 39 -81 109q0 47 34 75t92 29l12 60h37l-13 -63q42 -7 77 -30l-16 -32q-33 18 -69 24l-31 -148q77 -38 77 -107q0 -47 -33 -77.5t-91 -35.5l-12 -61h-37zM173 594q0 -22 11 -38.5t35 -29.5l28 136 q-36 -1 -55 -18.5t-19 -49.5zM285 406q0 21 -10 36.5t-32 28.5l-30 -142q34 6 53 26.5t19 50.5z" />
<glyph d="M179 230l13 63q-35 8 -56 37.5t-21 72.5q0 77 38 129t102 60l13 61h37l-13 -62q28 -5 49 -18l-16 -32q-20 11 -41 13l-48 -226q23 3 53 21l10 -33q-13 -10 -32.5 -17t-38.5 -8l-12 -61h-37zM159 404q0 -58 41 -72l46 220q-40 -11 -63.5 -50.5t-23.5 -97.5z" />
<glyph horiz-adv-x="510" d="M155 300l256 390h43l-256 -390h-43zM483 338q-31 -48 -78 -48q-31 0 -49.5 22.5t-18.5 60.5q0 64 28 106q31 48 78 48q31 0 49.5 -22.5t18.5 -60.5q0 -64 -28 -106zM410 324q25 0 43 34q18 33 18 88q0 22 -8.5 34.5t-24.5 12.5q-25 0 -43 -34q-18 -33 -18 -88 q0 -22 8.5 -34.5t24.5 -12.5zM244 511q-31 -48 -78 -48q-31 0 -49.5 22.5t-18.5 60.5q0 64 28 106q31 48 78 48q31 0 49.5 -22.5t18.5 -60.5q0 -64 -28 -106zM171 497q25 0 43 34q18 33 18 88q0 22 -8.5 34.5t-24.5 12.5q-25 0 -43 -34q-18 -33 -18 -88q0 -22 8.5 -34.5 t24.5 -12.5z" />
<glyph d="M83 300l41 113h-44l8 35h49l35 94h-54l8 35h59l41 113h38l-41 -113h73l41 113h38l-41 -113h44l-8 -35h-49l-35 -94h54l-8 -35h-59l-41 -113h-38l41 113h-73l-41 -113h-38zM175 448h73l35 94h-73z" />
<glyph horiz-adv-x="166" d="M145 375q0 -17 -12 -29.5t-31 -12.5q-15 0 -24 9t-9 23q0 18 12.5 30t30.5 12q15 0 24 -9t9 -23z" />
<glyph horiz-adv-x="166" d="M149 395q0 -17 -12 -29.5t-31 -12.5q-15 0 -24 9t-9 23q0 18 12.5 30t30.5 12q15 0 24 -9t9 -23z" />
<glyph horiz-adv-x="521" d="M20 0l149 700h51l-149 -700h-51zM184 63q42 -25 84 -25q31 0 52.5 14.5t37.5 49t29 95.5l107 503h51l-108 -507q-24 -112 -62 -157.5t-106 -45.5q-55 0 -103 31zM224 770h-58l115 109h76zM549 770h-58l115 109h76z" />
<glyph horiz-adv-x="378" d="M15 0l110 516h49l-110 -516h-49zM68 -176q19 -7 38 -7q33 0 51 22.5t29 76.5l128 600h49l-129 -605q-16 -75 -44.5 -106t-80.5 -31q-31 0 -54 14zM179 611h-53l122 139h69zM368 611h-53l122 139h69z" />
<glyph horiz-adv-x="291" d="M12 -125l128 600h-71l9 41h71l15 69q19 89 57.5 132t102.5 43q32 0 62 -14l-15 -39q-27 9 -46 9q-43 0 -71 -33.5t-42 -101.5l-14 -65h123l-9 -41h-123l-128 -600h-49z" />
<glyph horiz-adv-x="291" d="M12 -125l128 600h-71l9 41h71l15 69q19 89 57.5 132t102.5 43q32 0 62 -14l-15 -39q-27 9 -46 9q-43 0 -71 -33.5t-42 -101.5l-14 -65h223l-9 -41h-223l-128 -600h-49z" />
<glyph horiz-adv-x="0" d="M-123 -163q38 -20 67 -20t44.5 12t15.5 33q0 42 -61 42h-28l57 98h49l-37 -63q33 -6 50 -25t17 -48q0 -40 -29 -65t-76 -25q-23 0 -46 6.5t-39 17.5z" />
<glyph horiz-adv-x="0" d="M-75 -215q37 33 51 73q-13 2 -20 10.5t-7 20.5q0 17 12.5 28.5t31.5 11.5q16 0 25 -9.5t9 -25.5q0 -34 -21.5 -67.5t-62.5 -63.5z" />
<glyph horiz-adv-x="0" d="M34 770h-58l115 109h76z" />
<glyph horiz-adv-x="0" d="M-10 770l-87 109h68l69 -109h-50z" />
<glyph horiz-adv-x="0" d="M82 770l-55 71l-83 -71h-58l115 109h62l69 -109h-50z" />
<glyph horiz-adv-x="0" d="M166 874q-18 -105 -87 -105q-17 0 -34.5 9.5t-43.5 32.5t-41 23q-32 0 -42 -61h-45q18 105 87 105q17 0 34.5 -9.5t43.5 -32.5t41 -23q32 0 42 61h45z" />
<glyph horiz-adv-x="0" d="M40 770h-62l-69 109h50l54 -71l84 71h58z" />
<glyph horiz-adv-x="0" d="M-15 828q0 -18 -13 -30t-32 -12q-16 0 -25.5 9t-9.5 25q0 18 13 30t32 12q16 0 25.5 -9t9.5 -25zM135 828q0 -18 -13 -30t-32 -12q-16 0 -25.5 9t-9.5 25q0 18 13 30t32 12q16 0 25.5 -9t9.5 -25z" />
<glyph horiz-adv-x="0" d="M135 878q-10 -52 -45.5 -82.5t-86.5 -30.5q-46 0 -72.5 24t-26.5 64q0 12 2 25h43v-6q0 -31 15 -47.5t43 -16.5q59 0 81 70h47z" />
<glyph horiz-adv-x="0" d="M127 867q0 -46 -32.5 -78.5t-79.5 -32.5q-40 0 -64 23.5t-24 63.5q0 47 32.5 79t79.5 32q40 0 64 -23.5t24 -63.5zM84 862q0 24 -14 38.5t-36 14.5q-27 0 -45.5 -19.5t-18.5 -47.5q0 -24 14 -38.5t36 -14.5q26 0 45 19.5t19 47.5z" />
<glyph horiz-adv-x="598" d="M437 -10q-21 0 -39 6q-50 15 -74 15t-74 -15q-18 -6 -39 -6q-66 0 -85 76q-19 77 -19 94q0 19 8 39q3 9 3 23q0 21 -5 48.5t-12.5 56.5t-14.5 54t-11 42q-10 40 -10 55q0 43 40 75q7 6 10 9.5t5.5 8t5.5 13.5q21 60 72 93t126 33t126 -33t72 -93q3 -8 5 -12.5t5 -8 t11 -10.5q40 -32 40 -75q0 -15 -10 -55q-4 -17 -11 -42t-14.5 -54t-12.5 -56.5t-5 -48.5q0 -14 3 -23q8 -20 8 -39q0 -17 -19 -94q-19 -76 -85 -76zM218 238q5 0 14 7.5t14 16.5q7 12 15.5 35.5t8.5 28.5t-5 5q-1 0 -2.5 -0.5t-3.5 -2.5q-4 -4 -10 -7t-10 -3q-3 0 -5.5 1.5 t-2.5 2.5q0 4 8 10q10 7 10 11q0 5 -7 5q-3 0 -9 -7q-5 -5 -12 -5q-11 0 -16 8q-3 6 -7 6q-7 0 -7 -5q0 -2 0.5 -4t0.5 -4q0 -8 -7 -8q-4 0 -9 4q-3 2 -11 2q-3 0 -5.5 2t-2.5 5q0 7 13 14q4 3 27 8q4 1 4 7t-7 6q-19 0 -32 -5q-13 -4 -18 -11t-5 -18q0 -18 10 -41t27 -40 q12 -13 22 -18.5t20 -5.5zM323 53q22 0 41 8t27 21q12 17 12 37v19q0 13 2 25q1 4 1.5 7.5t0.5 5.5q0 4 -5 4t-24.5 -3.5t-54.5 -3.5q-34 0 -53 3.5t-24 3.5q-7 0 -7 -4q0 -2 2 -9.5t4 -11.5q3 -5 18 -7q25 -2 44 -2q23 0 35 1t18 1q16 0 16 -12q0 -11 -14 -13 q-25 -3 -53 -3q-17 0 -29.5 1t-21.5 1q-13 0 -13 -10q0 -13 12 -30q9 -13 27 -21t39 -8zM454 204q15 0 25 37q9 35 20 49q8 9 15 21t7 18q0 8 -4 8q-1 0 -5 -1.5t-8 -3.5t-5 -2q-7 0 -7 9q0 8 6 29.5t15 45.5q13 33 13 48q0 11 -8 25q-10 15 -15 15t-13 -8q-17 -17 -42 -17 q-29 0 -45 28q-7 12 -7 19q0 6 5 6q3 0 10 -5t11 -5q6 0 11 8q5 10 5 26q0 17 -6.5 29.5t-14.5 12.5q-3 0 -17 -4t-34.5 -8.5t-42.5 -4.5q-11 0 -32 3t-28 5q-15 5 -22 7t-10 2q-7 0 -18 -7q-12 -7 -28.5 -20.5t-25.5 -24.5q-29 -31 -29 -49q1 -10 4.5 -20t4.5 -25 q0 -12 -1.5 -20t-1.5 -15q0 -8 2.5 -10t13.5 -2q17 0 36.5 3t36 6t22.5 3q12 0 20.5 -4t18.5 -14q13 -13 13 -32q0 -6 -1 -17t-2 -20l-8 -79q2 -32 35 -32q17 0 26.5 8.5t9.5 23.5q0 4 -0.5 7.5t-0.5 6.5q0 11 8 11q5 0 20 -15l37 -38q16 -17 31 -17zM350 373q-4 0 -6.5 2.5 t-2.5 5.5q0 5 6 8q12 7 44.5 21t42.5 17q9 3 13 3q9 0 18 -8q7 -6 14.5 -15t7.5 -12q0 -5 -3 -9t-7 -4q-5 0 -9 2.5t-11 7.5t-16 5q-12 0 -47 -11q-7 -2 -16 -5t-17 -5.5t-11 -2.5zM436 338q-12 1 -24 4.5t-21 3.5q-11 0 -16.5 -0.5t-12.5 -0.5q-9 0 -9 5q0 7 6 8 q9 3 37.5 6t37.5 3q6 0 8.5 -1.5t4.5 -6.5q3 -6 10 -6q3 0 5.5 1t6.5 1q5 0 5 -5q0 -4 -13.5 -8t-24.5 -4z" />
</font>
</defs>
</svg>
