<?xml version="1.0" standalone="no"?>
<!DOCTYPE svg PUBLIC "-//W3C//DTD SVG 1.1//EN" "http://www.w3.org/Graphics/SVG/1.1/DTD/svg11.dtd" >
<svg xmlns="http://www.w3.org/2000/svg">
<metadata></metadata>
<defs>
<font id="att_aleck_cdmedium_italic" horiz-adv-x="358" >
<font-face units-per-em="1000" ascent="750" descent="-250" />
<missing-glyph horiz-adv-x="210" />
<glyph unicode="fb" horiz-adv-x="785" d="M8 -125l121 568h-67l17 81h67l11 50q39 186 179 186q43 0 77 -17l-31 -80q-19 8 -39 8q-33 0 -53.5 -24.5t-31.5 -77.5l-10 -45h104l-17 -81h-104l-121 -568h-102zM312 0l160 750h102l-57 -268q25 26 53.5 39.5t57.5 13.5q60 0 92.5 -46t32.5 -129q0 -105 -33 -190.5 t-86 -133t-116 -47.5q-66 0 -107 57l-21 -46h-78zM584 446q-22 0 -44.5 -13t-40.5 -36l-60 -281q12 -17 31 -27.5t40 -10.5q39 0 71.5 38.5t50.5 98t18 125.5q0 52 -17 79t-49 27z" />
<glyph unicode="fj" horiz-adv-x="531" d="M8 -125l121 568h-67l17 81h67l11 50q39 186 179 186q43 0 77 -17l-31 -80q-19 8 -39 8q-33 0 -53.5 -24.5t-31.5 -77.5l-10 -45h204l-17 -81h-204l-121 -568h-102zM196 -129q20 -7 35 -7q28 0 44 18.5t25 60.5l124 581h102l-125 -584q-19 -88 -56 -127t-102 -39 q-45 0 -76 20zM573 685q0 -30 -21.5 -50.5t-53.5 -20.5q-27 0 -41.5 14t-14.5 39q0 30 21.5 50.5t53.5 20.5q27 0 41.5 -14t14.5 -39z" />
<glyph unicode="fk" horiz-adv-x="760" d="M8 -125l121 568h-67l17 81h67l11 50q39 186 179 186q43 0 77 -17l-31 -80q-19 8 -39 8q-33 0 -53.5 -24.5t-31.5 -77.5l-10 -45h104l-17 -81h-104l-121 -568h-102zM312 0l160 750h102l-91 -427l196 201h115l-193 -197l96 -327h-104l-76 257l-62 -65l-41 -192h-102z" />
<glyph unicode="ft" horiz-adv-x="623" d="M8 -125l121 568h-67l17 81h67l11 50q19 91 65.5 138.5t116.5 47.5q45 0 81 -18l-32 -80q-22 9 -43 9q-65 0 -87 -102l-10 -45h175l48 143h80l-31 -143h123l-17 -81h-123l-56 -265q-7 -31 -7 -52q0 -47 48 -47q34 0 67 19l16 -78q-50 -31 -117 -31q-57 0 -87.5 30.5 t-30.5 87.5q0 31 10 75l56 261h-171l-121 -568h-102z" />
<glyph unicode="fh" horiz-adv-x="788" d="M8 -125l121 568h-67l17 81h67l11 50q39 186 179 186q43 0 77 -17l-31 -80q-19 8 -39 8q-33 0 -53.5 -24.5t-31.5 -77.5l-10 -45h104l-17 -81h-104l-121 -568h-102zM312 0l160 750h102l-58 -273q30 27 65.5 42.5t68.5 15.5q53 0 81.5 -30t28.5 -86q0 -27 -6 -54l-78 -365 h-102l75 351q5 20 5 38q0 26 -14.5 40t-40.5 14q-24 0 -51.5 -12.5t-49.5 -34.5l-84 -396h-102z" />
<glyph unicode="ff" horiz-adv-x="605" d="M8 -125l121 568h-67l17 81h67l11 50q19 91 65.5 138.5t116.5 47.5q45 0 81 -18l-32 -80q-22 9 -43 9q-65 0 -87 -102l-10 -45h175l11 50q19 92 68 139t124 47q48 0 90 -21l-32 -80q-10 5 -25.5 8.5t-27.5 3.5q-74 0 -96 -102l-10 -45h114l-17 -81h-114l-121 -568h-102 l121 568h-175l-121 -568h-102z" />
<glyph unicode="fi" horiz-adv-x="531" d="M8 -125l121 568h-67l17 81h67l11 50q39 186 179 186q43 0 77 -17l-31 -80q-19 8 -39 8q-33 0 -53.5 -24.5t-31.5 -77.5l-10 -45h204l-17 -81h-204l-121 -568h-102zM312 0l112 524h102l-112 -524h-102zM573 685q0 -30 -21.5 -50.5t-53.5 -20.5q-27 0 -41.5 14t-14.5 39 q0 30 21.5 50.5t53.5 20.5q27 0 41.5 -14t14.5 -39z" />
<glyph unicode="fl" horiz-adv-x="531" d="M8 -125l121 568h-67l17 81h67l11 50q39 186 179 186q43 0 77 -17l-31 -80q-19 8 -39 8q-33 0 -53.5 -24.5t-31.5 -77.5l-10 -45h104l-17 -81h-104l-121 -568h-102zM312 0l160 750h102l-160 -750h-102z" />
<glyph unicode="ffi" horiz-adv-x="808" d="M8 -125l121 568h-67l17 81h67l11 50q19 91 65.5 138.5t116.5 47.5q45 0 81 -18l-32 -80q-22 9 -43 9q-65 0 -87 -102l-10 -45h175l11 50q39 186 179 186q43 0 77 -17l-31 -80q-19 8 -39 8q-33 0 -53.5 -24.5t-31.5 -77.5l-10 -45h278l-112 -524h-102l94 443h-175 l-121 -568h-102l121 568h-175l-121 -568h-102zM850 685q0 -30 -21.5 -50.5t-53.5 -20.5q-27 0 -41.5 14t-14.5 39q0 30 21.5 50.5t53.5 20.5q27 0 41.5 -14t14.5 -39z" />
<glyph unicode="ffl" horiz-adv-x="808" d="M8 -125l121 568h-67l17 81h67l11 50q19 91 65.5 138.5t116.5 47.5q45 0 81 -18l-32 -80q-22 9 -43 9q-65 0 -87 -102l-10 -45h175l11 50q39 186 179 186q43 0 77 -17l-31 -80q-19 8 -39 8q-33 0 -53.5 -24.5t-31.5 -77.5l-10 -45h104l-17 -81h-104l-121 -568h-102 l121 568h-175l-121 -568h-102zM589 0l160 750h102l-160 -750h-102z" />
<glyph unicode="ffb" horiz-adv-x="1062" d="M8 -125l121 568h-67l17 81h67l11 50q19 91 65.5 138.5t116.5 47.5q45 0 81 -18l-32 -80q-22 9 -43 9q-65 0 -87 -102l-10 -45h175l11 50q39 186 179 186q43 0 77 -17l-31 -80q-19 8 -39 8q-33 0 -53.5 -24.5t-31.5 -77.5l-10 -45h104l-17 -81h-104l-121 -568h-102 l121 568h-175l-121 -568h-102zM589 0l160 750h102l-57 -268q25 26 53.5 39.5t57.5 13.5q60 0 92.5 -46t32.5 -129q0 -105 -33 -190.5t-86 -133t-116 -47.5q-66 0 -107 57l-21 -46h-78zM861 446q-22 0 -44.5 -13t-40.5 -36l-60 -281q12 -17 31 -27.5t40 -10.5q39 0 71.5 38.5 t50.5 98t18 125.5q0 52 -17 79t-49 27z" />
<glyph unicode="ffh" horiz-adv-x="1065" d="M8 -125l121 568h-67l17 81h67l11 50q19 91 65.5 138.5t116.5 47.5q45 0 81 -18l-32 -80q-22 9 -43 9q-65 0 -87 -102l-10 -45h175l11 50q39 186 179 186q43 0 77 -17l-31 -80q-19 8 -39 8q-33 0 -53.5 -24.5t-31.5 -77.5l-10 -45h104l-17 -81h-104l-121 -568h-102 l121 568h-175l-121 -568h-102zM589 0l160 750h102l-58 -273q30 27 65.5 42.5t68.5 15.5q53 0 81.5 -30t28.5 -86q0 -27 -6 -54l-78 -365h-102l75 351q5 20 5 38q0 26 -14.5 40t-40.5 14q-24 0 -51.5 -12.5t-49.5 -34.5l-84 -396h-102z" />
<glyph unicode="ffj" horiz-adv-x="808" d="M8 -125l121 568h-67l17 81h67l11 50q19 91 65.5 138.5t116.5 47.5q45 0 81 -18l-32 -80q-22 9 -43 9q-65 0 -87 -102l-10 -45h175l11 50q39 186 179 186q43 0 77 -17l-31 -80q-19 8 -39 8q-33 0 -53.5 -24.5t-31.5 -77.5l-10 -45h278l-125 -584q-19 -88 -56 -127 t-102 -39q-45 0 -76 20l29 77q20 -7 35 -7q28 0 44 18.5t25 60.5l106 500h-175l-121 -568h-102l121 568h-175l-121 -568h-102zM850 685q0 -30 -21.5 -50.5t-53.5 -20.5q-27 0 -41.5 14t-14.5 39q0 30 21.5 50.5t53.5 20.5q27 0 41.5 -14t14.5 -39z" />
<glyph unicode="ffk" horiz-adv-x="1037" d="M8 -125l121 568h-67l17 81h67l11 50q19 91 65.5 138.5t116.5 47.5q45 0 81 -18l-32 -80q-22 9 -43 9q-65 0 -87 -102l-10 -45h175l11 50q39 186 179 186q43 0 77 -17l-31 -80q-19 8 -39 8q-33 0 -53.5 -24.5t-31.5 -77.5l-10 -45h104l-17 -81h-104l-121 -568h-102 l121 568h-175l-121 -568h-102zM589 0l160 750h102l-91 -427l196 201h115l-193 -197l96 -327h-104l-76 257l-62 -65l-41 -192h-102z" />
<glyph unicode="fft" horiz-adv-x="900" d="M8 -125l121 568h-67l17 81h67l11 50q19 91 65.5 138.5t116.5 47.5q45 0 81 -18l-32 -80q-22 9 -43 9q-65 0 -87 -102l-10 -45h175l11 50q19 91 65.5 138.5t116.5 47.5q45 0 81 -18l-32 -80q-22 9 -43 9q-65 0 -87 -102l-10 -45h175l48 143h80l-31 -143h123l-17 -81h-123 l-56 -265q-7 -31 -7 -52q0 -47 48 -47q34 0 67 19l16 -78q-50 -31 -117 -31q-57 0 -87.5 30.5t-30.5 87.5q0 31 10 75l56 261h-171l-121 -568h-102l121 568h-175l-121 -568h-102z" />
<glyph unicode=" "  horiz-adv-x="210" />
<glyph unicode="&#x09;" horiz-adv-x="210" />
<glyph unicode="&#xa0;" horiz-adv-x="210" />
<glyph unicode="!" horiz-adv-x="238" d="M67 217l90 483h110l-116 -483h-84zM141 60q0 -30 -22 -50.5t-54 -20.5q-25 0 -41 15.5t-16 39.5q0 30 22 50.5t54 20.5q25 0 41 -15.5t16 -39.5z" />
<glyph unicode="&#x22;" horiz-adv-x="350" d="M78 421l47 279h103l-71 -279h-79zM253 421l47 279h103l-71 -279h-79z" />
<glyph unicode="#" horiz-adv-x="490" d="M26 0l57 182h-63l18 82h71l50 162h-67l17 82h75l58 182h78l-58 -182h102l57 182h78l-57 -182h63l-18 -82h-71l-50 -162h67l-17 -82h-75l-58 -182h-78l58 182h-102l-57 -182h-78zM187 264h101l50 162h-101z" />
<glyph unicode="$" horiz-adv-x="490" d="M38 118q60 -36 126 -39l52 242q-55 35 -81.5 78.5t-26.5 101.5q0 82 51.5 135.5t140.5 61.5l21 96h65l-21 -96q72 -8 125 -42l-38 -78q-52 27 -105 32l-48 -228q61 -40 87.5 -83t26.5 -101q0 -89 -53.5 -144t-148.5 -63l-22 -103h-65l21 102q-82 6 -145 48zM317 193 q0 57 -44 92l-42 -200q42 11 64 38.5t22 69.5zM204 507q0 -54 37 -87l40 186q-38 -9 -57.5 -34t-19.5 -65z" />
<glyph unicode="%" horiz-adv-x="809" d="M143 0l470 690h89l-470 -690h-89zM589 61q19 0 34 17t30 57q11 29 18 65t7 67q0 34 -8 48t-27 14t-34 -17t-30 -57q-11 -29 -18 -65t-7 -67q0 -34 8 -48t27 -14zM728 102q-53 -112 -151 -112q-53 0 -80.5 35.5t-27.5 104.5q0 85 35 158q53 112 151 112q53 0 80.5 -35.5 t27.5 -104.5q0 -85 -35 -158zM202 361q19 0 34 17t30 57q11 29 18 65t7 67q0 34 -8 48t-27 14t-34 -17t-30 -57q-11 -29 -18 -65t-7 -67q0 -34 8 -48t27 -14zM341 402q-53 -112 -151 -112q-53 0 -80.5 35.5t-27.5 104.5q0 85 35 158q53 112 151 112q53 0 80.5 -35.5 t27.5 -104.5q0 -85 -35 -158z" />
<glyph unicode="&#x26;" horiz-adv-x="551" d="M397 0l-50 93q-44 -54 -90 -79t-102 -25q-67 0 -106.5 39t-39.5 106q0 72 48 136t139 114q-42 83 -42 142q0 55 23 97.5t62.5 65t87.5 22.5q62 0 98.5 -35.5t36.5 -95.5q0 -57 -38 -108.5t-120 -105.5l61 -121l89 130h96l-141 -206l90 -169h-102zM176 72q30 0 60.5 21.5 t69.5 71.5l-79 157q-56 -37 -86 -82t-30 -92q0 -35 17.5 -55.5t47.5 -20.5zM248 533q0 -51 25 -106q52 38 75 71.5t23 71.5q0 30 -13 46t-37 16q-33 0 -53 -27.5t-20 -71.5z" />
<glyph unicode="'" horiz-adv-x="175" d="M78 421l47 279h103l-71 -279h-79z" />
<glyph unicode="(" horiz-adv-x="297" d="M92 -164q-19 47 -31 125t-12 154q0 160 58.5 322t163.5 293h112q-111 -142 -169 -299.5t-58 -316.5q0 -79 10 -155t27 -123h-101z" />
<glyph unicode=")" horiz-adv-x="297" d="M-78 -164q111 142 169 299.5t58 316.5q0 79 -10 155t-27 123h101q19 -47 31 -125t12 -154q0 -160 -58.5 -322t-163.5 -293h-112z" />
<glyph unicode="*" horiz-adv-x="369" d="M277 380l-49 106l-85 -102l-55 55l101 88l-108 29l30 73l104 -46l19 120h80l-38 -124l112 38l16 -73l-122 -24l64 -101z" />
<glyph unicode="+" horiz-adv-x="490" d="M297 303l-30 -156h-88l31 156h-146l17 84h146l30 156h88l-31 -156h146l-17 -84h-146z" />
<glyph unicode="," horiz-adv-x="212" d="M-67 -115q39 26 62.5 51t36.5 55q-18 5 -28.5 19.5t-10.5 33.5q0 30 22 50.5t54 20.5q25 0 41 -17t16 -44q0 -54 -48 -114.5t-120 -97.5z" />
<glyph unicode="-" horiz-adv-x="311" d="M36 234l18 86h227l-18 -86h-227z" />
<glyph unicode="." horiz-adv-x="212" d="M126 60q0 -30 -22 -50.5t-54 -20.5q-25 0 -41 15.5t-16 39.5q0 30 22 50.5t54 20.5q25 0 41 -15.5t16 -39.5z" />
<glyph unicode="/" horiz-adv-x="408" d="M-82 -164l470 894h102l-470 -894h-102z" />
<glyph unicode="0" horiz-adv-x="485" d="M209 78q66 0 120 187q38 131 38 220q0 67 -14 96.5t-45 29.5q-66 0 -120 -187q-38 -131 -38 -220q0 -67 14 -96.5t45 -29.5zM192 -11q-71 0 -110 53.5t-39 151.5q0 103 31 220q38 145 100 215.5t151 70.5q71 0 110 -53.5t39 -151.5q0 -103 -31 -220q-38 -145 -100 -215.5 t-151 -70.5z" />
<glyph unicode="1" horiz-adv-x="351" d="M113 0l117 553l-122 -89l-48 76l207 150h97l-146 -690h-105z" />
<glyph unicode="2" horiz-adv-x="402" d="M-24 0l12 55q19 82 41 134.5t57 93t96 82.5l15 10q66 43 93.5 77t27.5 72q0 42 -23.5 65.5t-65.5 23.5q-55 0 -105 -36l-29 76q34 22 76 34.5t82 12.5q78 0 124 -43.5t46 -117.5q0 -67 -41 -123t-140 -122l-15 -10q-35 -23 -58 -48t-39.5 -60.5t-29.5 -86.5h235l-19 -89 h-340z" />
<glyph unicode="3" horiz-adv-x="405" d="M14 111q56 -35 111 -35q59 0 96.5 37.5t37.5 96.5q0 50 -28.5 78t-79.5 28h-44l18 82h52q58 0 94 34t36 89q0 44 -24 68t-66 24q-53 0 -104 -31l-29 76q36 20 76.5 31t78.5 11q80 0 126.5 -43t46.5 -116q0 -66 -37 -116t-101 -72q44 -20 67 -58.5t23 -92.5 q0 -65 -29.5 -113.5t-82 -74t-120.5 -25.5q-91 0 -153 45z" />
<glyph unicode="4" horiz-adv-x="475" d="M232 0l33 156h-265l18 86l355 448h104l-97 -452h59l-17 -82h-59l-33 -156h-98zM282 238l62 289l-229 -289h167z" />
<glyph unicode="5" horiz-adv-x="403" d="M24 111q55 -35 111 -35q61 0 97.5 41t36.5 109q0 53 -31.5 84t-86.5 31q-15 0 -34 -0.5t-44 -1.5l90 351h260l-19 -89h-174l-46 -182h21q78 0 123.5 -52t45.5 -141q0 -110 -62.5 -173.5t-169.5 -63.5q-91 0 -153 45z" />
<glyph unicode="6" horiz-adv-x="454" d="M437 589q-43 24 -88 24q-54 0 -100 -51t-74 -140q36 6 68 6q183 0 183 -188q0 -116 -58 -183.5t-158 -67.5q-82 0 -124.5 54t-42.5 158q0 142 42 257t110.5 178.5t148.5 63.5q69 0 128 -34zM225 350q-27 0 -69 -5q-12 -66 -12 -142q0 -64 19 -95.5t58 -31.5q48 0 76 42 t28 113q0 60 -24.5 89.5t-75.5 29.5z" />
<glyph unicode="7" horiz-adv-x="371" d="M30 0l11 54q24 117 60.5 204t108.5 198l94 145h-230l19 89h340l-18 -83l-98 -156q-80 -127 -114 -206t-57 -191l-11 -54h-105z" />
<glyph unicode="8" horiz-adv-x="455" d="M466 546q0 -57 -34 -107.5t-91 -79.5q70 -53 70 -145q0 -67 -30 -118t-80.5 -79t-113.5 -28q-79 0 -125 45t-46 121q0 72 40.5 129.5t105.5 80.5q-30 25 -46 59.5t-16 75.5q0 58 28.5 104t76 71t105.5 25q69 0 112.5 -42.5t43.5 -111.5zM230 328q-50 -15 -82.5 -60.5 t-32.5 -101.5q0 -46 21.5 -72t60.5 -26q48 0 80 40.5t32 102.5q0 82 -67 112zM201 501q0 -74 64 -102l9 -5q42 22 68 60.5t26 79.5t-18.5 64t-52.5 23q-42 0 -69 -34.5t-27 -85.5z" />
<glyph unicode="9" horiz-adv-x="456" d="M139 76q59 0 105.5 50.5t72.5 142.5q-37 -6 -72 -6q-183 0 -183 186q0 116 58 183.5t158 67.5q82 0 124.5 -54t42.5 -158q0 -150 -39.5 -263.5t-108 -174.5t-156.5 -61q-70 0 -132 38l35 77q21 -13 47 -20.5t48 -7.5zM263 341q35 0 71 4q10 72 10 141q0 64 -19 95.5 t-58 31.5q-48 0 -76 -42t-28 -113q0 -60 24.5 -88.5t75.5 -28.5z" />
<glyph unicode=":" horiz-adv-x="212" d="M126 60q0 -30 -22 -50.5t-54 -20.5q-25 0 -41 15.5t-16 39.5q0 30 22 50.5t54 20.5q25 0 41 -15.5t16 -39.5zM213 469q0 -30 -22 -50.5t-54 -20.5q-25 0 -41 15.5t-16 39.5q0 30 22 50.5t54 20.5q25 0 41 -15.5t16 -39.5z" />
<glyph unicode=";" horiz-adv-x="212" d="M-67 -115q39 26 62.5 51t36.5 55q-18 5 -28.5 19.5t-10.5 33.5q0 30 22 50.5t54 20.5q25 0 41 -17t16 -44q0 -54 -48 -114.5t-120 -97.5zM213 469q0 -30 -22 -50.5t-54 -20.5q-25 0 -41 15.5t-16 39.5q0 30 22 50.5t54 20.5q25 0 41 -15.5t16 -39.5z" />
<glyph unicode="&#x3c;" horiz-adv-x="490" d="M63 303l18 85l385 143l-21 -96l-274 -93l234 -98l-18 -84z" />
<glyph unicode="=" horiz-adv-x="490" d="M89 412l17 84h379l-17 -84h-379zM43 194l17 84h379l-17 -84h-379z" />
<glyph unicode="&#x3e;" horiz-adv-x="490" d="M57 160l21 96l274 93l-234 98l18 84l324 -143l-18 -85z" />
<glyph unicode="?" horiz-adv-x="373" d="M100 217l5 24q10 49 21 78.5t28 51t48 43.5l17 12q87 62 87 132q0 34 -19 52.5t-55 18.5q-55 0 -113 -42l-35 73q81 59 167 59q74 0 118 -41.5t44 -110.5q0 -55 -31 -103t-95 -93l-17 -12q-31 -22 -46 -47t-25 -71l-5 -24h-94zM178 60q0 -30 -22 -50.5t-54 -20.5 q-25 0 -41 15.5t-16 39.5q0 30 22 50.5t54 20.5q25 0 41 -15.5t16 -39.5z" />
<glyph unicode="@" horiz-adv-x="851" d="M590 -153q-87 -38 -197 -38q-111 0 -190 43.5t-120 124t-41 190.5q0 140 60.5 250t161.5 170t223 60q99 0 172 -42t111.5 -117t38.5 -174q0 -96 -31 -169.5t-83.5 -113t-118.5 -39.5q-43 0 -71 20t-36 55q-24 -25 -54.5 -38.5t-62.5 -13.5q-51 0 -81.5 40.5t-30.5 107.5 q0 77 31 142.5t79.5 102.5t102.5 37q24 0 46 -10t38 -28l13 29h75l-73 -285q-6 -24 -6 -39q0 -48 41 -48q38 0 70.5 36.5t50.5 93.5t18 121q0 117 -66 187.5t-176 70.5q-103 0 -185.5 -55.5t-128 -147t-45.5 -200.5q0 -136 72 -211.5t202 -75.5q91 0 173 33zM385 88 q36 0 73 39l58 226q-28 18 -55 18q-37 0 -67 -28t-47 -73t-17 -96q0 -41 14.5 -63.5t40.5 -22.5z" />
<glyph unicode="A" horiz-adv-x="522" d="M344 0l-5 168h-196l-75 -168h-109l340 700h109l44 -700h-108zM326 573l-141 -312h151z" />
<glyph unicode="B" horiz-adv-x="505" d="M10 0l149 700h169q78 0 123.5 -42t45.5 -115q0 -67 -39.5 -117.5t-108.5 -71.5q51 -16 79 -53t28 -89q0 -102 -67 -157t-191 -55h-188zM180 309l-47 -220h71q67 0 105.5 34.5t38.5 95.5q0 90 -102 90h-66zM244 611l-46 -215h53q64 0 102 36t38 96q0 40 -22.5 61.5 t-65.5 21.5h-59z" />
<glyph unicode="C" horiz-adv-x="468" d="M404 33q-69 -44 -155 -44q-94 0 -148 63.5t-54 174.5q0 138 46 249.5t121.5 173t165.5 61.5q69 0 133 -41l-37 -87q-45 26 -91 26q-66 0 -118 -50t-80.5 -131.5t-28.5 -177.5q0 -78 30 -118.5t87 -40.5q52 0 106 30z" />
<glyph unicode="D" horiz-adv-x="537" d="M180 96q52 0 96.5 28t75.5 75.5t47.5 108.5t16.5 129q0 167 -141 167h-27l-109 -508h41zM10 0l149 700h123q118 0 181.5 -67.5t63.5 -193.5q0 -135 -47 -234.5t-130.5 -152t-192.5 -52.5h-147z" />
<glyph unicode="E" horiz-adv-x="454" d="M184 306l-45 -212h244l-20 -94h-353l149 700h342l-20 -94h-233l-44 -206h191l-20 -94h-191z" />
<glyph unicode="F" horiz-adv-x="432" d="M10 0l149 700h332l-20 -94h-223l-47 -221h181l-20 -94h-181l-62 -291h-109z" />
<glyph unicode="G" horiz-adv-x="521" d="M492 389l-77 -363q-74 -37 -161 -37q-98 0 -152.5 63t-54.5 175q0 138 46 249.5t122 173t167 61.5q80 0 143 -37l-37 -87q-46 23 -101 23q-67 0 -119.5 -49.5t-81 -131.5t-28.5 -179q0 -160 117 -160q29 0 52 8l42 197h-96l20 94h199z" />
<glyph unicode="H" horiz-adv-x="550" d="M10 0l149 700h109l-63 -297h200l63 297h109l-149 -700h-109l65 305h-200l-65 -305h-109z" />
<glyph unicode="I" horiz-adv-x="241" d="M10 0l149 700h109l-149 -700h-109z" />
<glyph unicode="J" horiz-adv-x="349" d="M-7 111q36 -21 75 -21q41 0 65 29.5t39 100.5l102 480h109l-103 -485q-17 -80 -43 -129.5t-64.5 -73t-95.5 -23.5q-62 0 -116 33z" />
<glyph unicode="K" horiz-adv-x="517" d="M10 0l149 700h109l-68 -319l260 319h120l-234 -287l97 -413h-114l-74 317l-93 -115l-43 -202h-109z" />
<glyph unicode="L" horiz-adv-x="423" d="M10 0l149 700h109l-128 -602h225l-21 -98h-334z" />
<glyph unicode="M" horiz-adv-x="709" d="M484 0l104 489l-221 -366h-88l-64 369l-104 -492h-101l149 700h114l76 -442l266 442h121l-149 -700h-103z" />
<glyph unicode="N" horiz-adv-x="546" d="M320 0l-104 491l-105 -491h-101l149 700h104l104 -491l105 491h101l-149 -700h-104z" />
<glyph unicode="O" horiz-adv-x="542" d="M221 -11q-81 0 -127.5 64t-46.5 174q0 140 42.5 251t113 172t155.5 61q81 0 127.5 -64t46.5 -174q0 -140 -42.5 -251t-113 -172t-155.5 -61zM239 90q48 0 90.5 56t67 141t24.5 176q0 73 -20.5 110t-60.5 37q-48 0 -90.5 -56t-67 -141t-24.5 -176q0 -73 20.5 -110 t60.5 -37z" />
<glyph unicode="P" horiz-adv-x="489" d="M10 0l149 700h150q90 0 141.5 -52t51.5 -142q0 -80 -34 -139.5t-93.5 -91t-136.5 -31.5h-67l-52 -244h-109zM191 338h57q63 0 103 46t40 117q0 50 -25.5 78t-70.5 28h-47z" />
<glyph unicode="Q" horiz-adv-x="542" d="M368 -74l-47 87q-50 -24 -100 -24q-81 0 -127.5 64t-46.5 174q0 140 42.5 251t113 172t155.5 61q81 0 127.5 -64t46.5 -174q0 -131 -38.5 -240t-106.5 -173l50 -93zM239 88q19 0 37 9l-47 89l69 41l39 -73q39 55 61.5 138t22.5 171q0 73 -20.5 110t-60.5 37 q-48 0 -90.5 -56t-67 -141t-24.5 -176q0 -73 20.5 -111t60.5 -38z" />
<glyph unicode="R" horiz-adv-x="516" d="M337 0l-91 256h-73l-54 -256h-109l149 700h150q88 0 140.5 -50.5t52.5 -135.5q0 -84 -40 -146.5t-112 -91.5l98 -276h-111zM193 350h54q64 0 104 43.5t40 112.5q0 47 -26 74t-70 27h-47z" />
<glyph unicode="S" horiz-adv-x="443" d="M20 123q61 -35 121 -35t95.5 31.5t35.5 84.5q0 34 -15 57t-58 56l-19 15q-45 36 -66 77t-21 93q0 93 61.5 151t160.5 58q42 0 82.5 -11.5t71.5 -31.5l-42 -86q-54 30 -107 30q-52 0 -84 -28t-32 -72q0 -34 15 -57t58 -56l19 -15q45 -36 66 -77t21 -93 q0 -104 -63.5 -164.5t-172.5 -60.5q-101 0 -169 48z" />
<glyph unicode="T" horiz-adv-x="493" d="M138 0l128 602h-162l21 98h426l-21 -98h-155l-128 -602h-109z" />
<glyph unicode="U" horiz-adv-x="531" d="M456 700h109l-100 -469q-27 -126 -85 -184t-158 -58q-84 0 -130 44.5t-46 127.5q0 41 9 80l98 459h109l-97 -455q-10 -45 -10 -74q0 -39 20 -60t58 -21q48 0 77.5 32.5t44.5 102.5z" />
<glyph unicode="V" horiz-adv-x="514" d="M148 0l-35 700h112l4 -553l244 553h113l-329 -700h-109z" />
<glyph unicode="W" horiz-adv-x="706" d="M391 0l1 450l-184 -450h-112l20 700h108l-30 -525l191 465h90v-462l184 522h108l-264 -700h-112z" />
<glyph unicode="X" horiz-adv-x="520" d="M-29 0l253 359l-96 341h113l61 -240l161 240h119l-244 -347l100 -353h-113l-65 253l-170 -253h-119z" />
<glyph unicode="Y" horiz-adv-x="482" d="M132 0l56 264l-74 436h109l36 -334l182 334h113l-257 -435l-56 -265h-109z" />
<glyph unicode="Z" horiz-adv-x="440" d="M-33 0l18 92l365 510h-246l19 98h370l-18 -92l-365 -510h271l-19 -98h-395z" />
<glyph unicode="[" horiz-adv-x="292" d="M-23 -164l190 894h192l-18 -84h-91l-153 -726h101l-18 -84h-203z" />
<glyph unicode="\" horiz-adv-x="408" d="M207 -164l-97 894h91l97 -894h-91z" />
<glyph unicode="]" horiz-adv-x="292" d="M-58 -164l18 84h91l153 726h-101l18 84h203l-190 -894h-192z" />
<glyph unicode="^" horiz-adv-x="490" d="M354 352l-31 236l-145 -236h-97l214 338h98l50 -338h-89z" />
<glyph unicode="_" horiz-adv-x="370" d="M-77 -143l15 71h370l-15 -71h-370z" />
<glyph unicode="`" horiz-adv-x="484" d="M307 606l-92 150h112l66 -150h-86z" />
<glyph unicode="a" horiz-adv-x="478" d="M267 535q64 0 106 -57l22 46h78l-112 -524h-78v52q-27 -29 -60.5 -46t-65.5 -17q-60 0 -92.5 46t-32.5 129q0 105 33 190.5t86 133t116 47.5zM201 78q22 0 44.5 13t40.5 35l60 282q-12 17 -31.5 27.5t-39.5 10.5q-39 0 -71.5 -38.5t-50.5 -98t-18 -125.5q0 -52 17 -79 t49 -27z" />
<glyph unicode="b" horiz-adv-x="478" d="M5 0l160 750h102l-57 -268q25 26 53.5 39.5t57.5 13.5q60 0 92.5 -46t32.5 -129q0 -105 -33 -190.5t-86 -133t-116 -47.5q-66 0 -107 57l-21 -46h-78zM277 446q-22 0 -44.5 -13t-40.5 -36l-60 -281q12 -17 31 -27.5t40 -10.5q39 0 71.5 38.5t50.5 98t18 125.5 q0 52 -17 79t-49 27z" />
<glyph unicode="c" horiz-adv-x="394" d="M329 33q-28 -21 -65 -32.5t-75 -11.5q-74 0 -115.5 53.5t-41.5 148.5q0 100 36 179t95.5 122t132.5 43q59 0 111 -32l-39 -77q-35 19 -70 19q-45 0 -83 -35t-59 -90t-21 -116q0 -59 22 -92t61 -33q41 0 91 32z" />
<glyph unicode="d" horiz-adv-x="478" d="M283 0v52q-27 -29 -60.5 -46t-65.5 -17q-60 0 -92.5 46t-32.5 129q0 105 33 190.5t86 133t116 47.5q57 0 96 -49l56 264h102l-160 -750h-78zM201 78q22 0 44.5 13t40.5 35l60 282q-12 17 -31.5 27.5t-39.5 10.5q-39 0 -71.5 -38.5t-50.5 -98t-18 -125.5q0 -52 17 -79 t49 -27z" />
<glyph unicode="e" horiz-adv-x="425" d="M347 35q-27 -21 -68 -33.5t-81 -12.5q-79 0 -122.5 52.5t-43.5 149.5t36.5 176.5t95.5 123.5t127 44q56 0 89.5 -33.5t33.5 -89.5q0 -61 -32.5 -107.5t-88.5 -71.5t-127 -25q-24 0 -36 1v-21q0 -59 21.5 -86t69.5 -27q26 0 54 9.5t53 25.5zM278 451q-43 0 -81.5 -47.5 t-56.5 -120.5h21q47 0 84 15.5t57 41.5t20 57q0 26 -11.5 40t-32.5 14z" />
<glyph unicode="f" horiz-adv-x="328" d="M8 -125l121 568h-67l17 81h67l11 50q19 92 68 139t124 47q48 0 90 -21l-32 -80q-10 5 -25.5 8.5t-27.5 3.5q-74 0 -96 -102l-10 -45h114l-17 -81h-114l-121 -568h-102z" />
<glyph unicode="g" horiz-adv-x="478" d="M18 -108q52 -28 103 -28q56 0 89.5 33.5t48.5 102.5l12 55q-25 -26 -54.5 -40.5t-59.5 -14.5q-60 0 -92.5 46t-32.5 129q0 100 33.5 183.5t86.5 130t115 46.5q64 0 106 -57l22 46h78l-110 -515q-27 -124 -83 -179.5t-155 -55.5q-39 0 -72 8.5t-68 28.5zM201 89 q23 0 46 14t42 39l57 266q-12 17 -31.5 27.5t-39.5 10.5q-38 0 -70.5 -38t-51 -95.5t-18.5 -118.5q0 -52 17 -78.5t49 -26.5z" />
<glyph unicode="h" horiz-adv-x="481" d="M5 0l160 750h102l-58 -273q30 27 65.5 42.5t68.5 15.5q53 0 81.5 -30t28.5 -86q0 -27 -6 -54l-78 -365h-102l75 351q5 20 5 38q0 26 -14.5 40t-40.5 14q-24 0 -51.5 -12.5t-49.5 -34.5l-84 -396h-102z" />
<glyph unicode="i" horiz-adv-x="224" d="M5 0l112 524h102l-112 -524h-102zM266 685q0 -30 -21.5 -50.5t-53.5 -20.5q-27 0 -41.5 14t-14.5 39q0 30 21.5 50.5t53.5 20.5q27 0 41.5 -14t14.5 -39z" />
<glyph unicode="j" horiz-adv-x="224" d="M-111 -129q20 -7 35 -7q28 0 44 18.5t25 60.5l124 581h102l-125 -584q-19 -88 -56 -127t-102 -39q-45 0 -76 20zM266 685q0 -30 -21.5 -50.5t-53.5 -20.5q-27 0 -41.5 14t-14.5 39q0 30 21.5 50.5t53.5 20.5q27 0 41.5 -14t14.5 -39z" />
<glyph unicode="k" horiz-adv-x="453" d="M5 0l160 750h102l-91 -427l196 201h115l-193 -197l96 -327h-104l-76 257l-62 -65l-41 -192h-102z" />
<glyph unicode="l" horiz-adv-x="224" d="M5 0l160 750h102l-160 -750h-102z" />
<glyph unicode="m" horiz-adv-x="725" d="M511 0l75 351q5 20 5 38q0 26 -13 40t-37 14q-23 0 -49 -13t-49 -35q-1 -7 -2 -14.5t-3 -15.5l-78 -365h-102l75 351q5 20 5 38q0 26 -13 40t-37 14q-22 0 -48 -12.5t-48 -33.5l-85 -397h-102l112 524h85l-3 -55q32 32 68 49t71 17q39 0 65 -19t36 -55q34 35 74 54.5 t78 19.5q51 0 78.5 -30.5t27.5 -85.5q0 -27 -6 -54l-78 -365h-102z" />
<glyph unicode="n" horiz-adv-x="481" d="M267 0l75 351q5 20 5 38q0 26 -14.5 40t-40.5 14q-24 0 -51 -12.5t-49 -33.5l-85 -397h-102l112 524h85l-3 -56q33 32 71 49.5t73 17.5q53 0 81.5 -30t28.5 -86q0 -27 -6 -54l-78 -365h-102z" />
<glyph unicode="o" horiz-adv-x="469" d="M183 -11q-69 0 -110 52.5t-41 140.5q0 104 34 185t91.5 124.5t128.5 43.5q69 0 110 -52.5t41 -140.5q0 -104 -34 -185t-91.5 -124.5t-128.5 -43.5zM199 78q36 0 67.5 38.5t49.5 97.5t18 123q0 52 -16.5 80.5t-47.5 28.5q-36 0 -67.5 -38.5t-49.5 -97.5t-18 -123 q0 -52 16.5 -80.5t47.5 -28.5z" />
<glyph unicode="p" horiz-adv-x="478" d="M-41 -216l158 740h78v-53q26 30 59.5 47t66.5 17q60 0 92.5 -46t32.5 -129q0 -105 -33 -190.5t-86 -133t-116 -47.5q-58 0 -96 48l-54 -253h-102zM277 446q-22 0 -44.5 -13t-40.5 -36l-60 -281q12 -17 31 -27.5t40 -10.5q39 0 71.5 38.5t50.5 98t18 125.5q0 52 -17 79 t-49 27z" />
<glyph unicode="q" horiz-adv-x="478" d="M213 -216l55 257q-52 -52 -111 -52q-60 0 -92.5 46t-32.5 129q0 105 33 190.5t86 133t116 47.5q64 0 106 -57l22 46h78l-158 -740h-102zM201 78q22 0 44.5 13t40.5 35l60 282q-12 17 -31.5 27.5t-39.5 10.5q-39 0 -71.5 -38.5t-50.5 -98t-18 -125.5q0 -52 17 -79t49 -27z " />
<glyph unicode="r" horiz-adv-x="326" d="M5 0l112 524h85l-3 -53q61 64 130 64q20 0 35 -5l-25 -95q-22 5 -41 5q-59 0 -107 -48l-84 -392h-102z" />
<glyph unicode="s" horiz-adv-x="386" d="M18 108q62 -33 113 -33q43 0 68.5 20t25.5 54q0 21 -12.5 38t-41.5 35l-16 10q-48 30 -69.5 64t-21.5 79q0 72 50.5 116t132.5 44q66 0 129 -35l-39 -76q-39 25 -88 25q-38 0 -62 -18.5t-24 -49.5q0 -21 12.5 -38t41.5 -35l16 -10q48 -30 69.5 -64t21.5 -79 q0 -76 -51 -121t-139 -45q-42 0 -83 11.5t-72 31.5z" />
<glyph unicode="t" horiz-adv-x="345" d="M293 20q-50 -31 -117 -31q-57 0 -87.5 30.5t-30.5 87.5q0 31 10 75l56 261h-68l17 81h72l48 143h80l-31 -143h123l-17 -81h-123l-56 -265q-7 -31 -7 -52q0 -47 48 -47q34 0 67 19z" />
<glyph unicode="u" horiz-adv-x="475" d="M273 0l2 49q-32 -29 -68 -44.5t-69 -15.5q-53 0 -81.5 30t-28.5 86q0 27 6 54l78 365h102l-75 -351q-5 -20 -5 -38q0 -26 14.5 -40t40.5 -14q22 0 46.5 10.5t46.5 28.5l86 404h102l-112 -524h-85z" />
<glyph unicode="v" horiz-adv-x="438" d="M114 0l-40 524h105l10 -394l180 394h107l-264 -524h-98z" />
<glyph unicode="w" horiz-adv-x="645" d="M349 0l-5 375l-156 -375h-94l-15 524h99l-5 -379l150 360h94l4 -361l153 380h104l-236 -524h-93z" />
<glyph unicode="x" horiz-adv-x="428" d="M259 0l-58 181l-125 -181h-108l198 275l-86 249h104l51 -163l113 163h108l-186 -258l93 -266h-104z" />
<glyph unicode="y" horiz-adv-x="438" d="M74 524h105l12 -389l178 389h107l-284 -563q-54 -106 -96.5 -146.5t-99.5 -40.5q-44 0 -75 22l30 76q24 -9 42 -9q30 0 56 31t67 113z" />
<glyph unicode="z" horiz-adv-x="384" d="M-24 0l16 75l281 368h-196l17 81h313l-16 -75l-281 -368h210l-17 -81h-327z" />
<glyph unicode="{" horiz-adv-x="324" d="M203 -159q-42 -8 -67 -8q-56 0 -86.5 28.5t-30.5 82.5q0 27 7 55t30 88q26 69 26 106q0 25 -11 35.5t-36 10.5h-17l18 88h17q32 0 49 17t27 60q7 29 11 83q6 64 12 96q14 72 59 111t115 39q30 0 65 -8l-17 -81q-20 5 -37 5q-24 0 -41 -8t-28.5 -26t-18.5 -49 q-7 -29 -11 -88q-5 -61 -11 -85q-21 -89 -94 -110q53 -17 53 -80q0 -35 -30 -113q-19 -52 -25.5 -75.5t-6.5 -43.5q0 -54 53 -54q20 0 43 5z" />
<glyph unicode="|" horiz-adv-x="233" d="M-35 -216l202 946h99l-202 -946h-99z" />
<glyph unicode="}" horiz-adv-x="323" d="M-41 -78q20 -5 37 -5q24 0 41 8t28.5 26t18.5 49q7 29 11 88q5 61 11 85q21 89 94 110q-53 17 -53 80q0 35 30 113q19 52 25.5 75.5t6.5 43.5q0 54 -53 54q-20 0 -43 -5l17 81q42 8 67 8q56 0 86.5 -28.5t30.5 -82.5q0 -27 -7 -55t-30 -88q-26 -69 -26 -106 q0 -25 11 -35.5t36 -10.5h17l-18 -88h-17q-32 0 -49 -17t-27 -60q-7 -29 -11 -83q-6 -64 -12 -96q-14 -72 -59 -111t-115 -39q-30 0 -65 8z" />
<glyph unicode="~" horiz-adv-x="490" d="M478 402q-17 -80 -47 -117t-79 -37q-31 0 -56 14.5t-62 54.5q-33 36 -57 36q-17 0 -28.5 -15.5t-19.5 -49.5l-8 -37h-82l8 37q17 80 47 117t79 37q31 0 56 -14.5t62 -54.5q33 -36 57 -36q17 0 28.5 15.5t19.5 49.5l8 37h82z" />
<glyph unicode="&#xa1;" horiz-adv-x="238" d="M-29 -176l116 483h84l-90 -483h-110zM230 480q0 -30 -22 -50.5t-54 -20.5q-25 0 -41 15.5t-16 39.5q0 30 22 50.5t54 20.5q25 0 41 -15.5t16 -39.5z" />
<glyph unicode="&#xa2;" horiz-adv-x="490" d="M175 -112l22 104q-63 11 -96.5 63t-33.5 139q0 88 32.5 160.5t87.5 116t122 51.5l22 103h65l-22 -104q40 -7 77 -29l-38 -73q-26 14 -57 17l-77 -361q37 6 74 30l19 -72q-41 -32 -110 -42l-22 -103h-65zM166 201q0 -94 50 -120l74 349q-56 -21 -90 -83.5t-34 -145.5z" />
<glyph unicode="&#xa3;" horiz-adv-x="490" d="M247 305q-10 -64 -37.5 -122t-66.5 -95h254l-19 -88h-366l18 82q50 39 81.5 97t40.5 126h-74l17 82h60q-2 52 -2 78q0 113 52.5 174t148.5 61q82 0 139 -42l-38 -75q-18 13 -44 21.5t-49 8.5q-112 0 -112 -150q0 -26 2 -76h136l-17 -82h-124z" />
<glyph unicode="&#xa5;" horiz-adv-x="490" d="M137 0l24 116h-127l16 80h128l16 71h-129l16 80h102l-53 343h99l37 -315l173 315h106l-203 -343h95l-16 -80h-124l-16 -71h125l-16 -80h-126l-24 -116h-103z" />
<glyph unicode="&#xa7;" horiz-adv-x="434" d="M42 -13q19 -13 44.5 -20t49.5 -7q38 0 62 18.5t24 49.5q0 21 -12.5 38t-41.5 35l-16 10q-58 36 -82.5 72.5t-24.5 83.5q0 55 34.5 98t97.5 66q-30 25 -44 54t-14 66q0 72 50.5 116t132.5 44q66 0 129 -35l-39 -76q-39 25 -88 25q-38 0 -62 -18.5t-24 -49.5 q0 -21 12.5 -38t41.5 -35l16 -10q58 -36 82.5 -72.5t24.5 -83.5q0 -55 -35 -98t-98 -66q30 -25 44.5 -54t14.5 -66q0 -72 -50.5 -116t-132.5 -44q-73 0 -135 37zM300 297q0 53 -66 95q-43 -13 -68.5 -41t-25.5 -63q0 -27 15.5 -50t49.5 -46q44 13 69.5 41.5t25.5 63.5z" />
<glyph unicode="&#xa8;" horiz-adv-x="484" d="M294 688q0 -27 -19.5 -45t-48.5 -18q-23 0 -37 13.5t-14 35.5q0 27 19.5 45t48.5 18q23 0 37 -13.5t14 -35.5zM473 688q0 -27 -19.5 -45t-48.5 -18q-23 0 -37 13.5t-14 35.5q0 27 19.5 45t48.5 18q23 0 37 -13.5t14 -35.5z" />
<glyph unicode="&#xa9;" horiz-adv-x="514" d="M389 360q-32 -20 -69 -20q-53 0 -85.5 42.5t-32.5 111.5t32.5 111.5t85.5 42.5q32 0 67 -19l-17 -49q-18 9 -40 9q-31 0 -48.5 -25t-17.5 -70t17.5 -70t48.5 -25q20 0 42 10zM305 224q-69 0 -121.5 35.5t-81 96.5t-28.5 138q0 81 30.5 142.5t83 94.5t117.5 33 q69 0 121.5 -35.5t81 -96.5t28.5 -138q0 -81 -30.5 -142.5t-83 -94.5t-117.5 -33zM305 274q80 0 128.5 60t48.5 160t-48.5 160t-128.5 60t-128.5 -60t-48.5 -160t48.5 -160t128.5 -60z" />
<glyph unicode="&#xaa;" horiz-adv-x="334" d="M248 345l-1 34q-17 -20 -39 -31.5t-43 -11.5q-39 0 -61.5 32t-22.5 88q0 69 21.5 125.5t56.5 87.5t76 31q20 0 38.5 -10t32.5 -28l15 31h61l-73 -348h-61zM199 408q26 0 49 25l37 176q-17 19 -41 19q-33 0 -58.5 -47.5t-25.5 -108.5q0 -31 10 -47.5t29 -16.5zM38 228 l15 68h246l-15 -68h-246z" />
<glyph unicode="&#xab;" horiz-adv-x="413" d="M95 96l-76 184l155 184h99l-162 -193l73 -175h-89zM263 96l-76 184l155 184h99l-162 -193l73 -175h-89z" />
<glyph unicode="&#xac;" horiz-adv-x="490" d="M315 147l31 156h-292l17 84h379l-47 -240h-88z" />
<glyph unicode="&#xae;" horiz-adv-x="514" d="M305 224q-69 0 -121.5 35.5t-81 96.5t-28.5 138q0 81 30.5 142.5t83 94.5t117.5 33q69 0 121.5 -35.5t81 -96.5t28.5 -138q0 -81 -30.5 -142.5t-83 -94.5t-117.5 -33zM305 274q80 0 128.5 60t48.5 160t-48.5 160t-128.5 60t-128.5 -60t-48.5 -160t48.5 -160t128.5 -60z M223 357v284h86q42 0 67.5 -25t25.5 -68q0 -30 -13 -51t-36 -31l54 -109h-58l-50 101h-21v-101h-55zM278 506h30q17 0 27.5 11.5t10.5 30.5t-10.5 30.5t-27.5 11.5h-30v-84z" />
<glyph unicode="&#xb0;" horiz-adv-x="305" d="M203 490q35 0 59 26.5t24 63.5q0 27 -15 43.5t-41 16.5q-35 0 -59 -26.5t-24 -63.5q0 -27 15 -43.5t41 -16.5zM197 430q-51 0 -83.5 32t-32.5 83q0 45 21.5 80.5t56.5 55t77 19.5q51 0 83.5 -32t32.5 -83q0 -44 -21.5 -80t-56.5 -55.5t-77 -19.5z" />
<glyph unicode="&#xb2;" d="M104 420l6 29q11 50 23.5 80t33.5 53t58 46q54 34 69.5 50t15.5 35q0 17 -13.5 27t-36.5 10q-33 0 -67 -21l-22 62q53 29 106 29t84.5 -26.5t31.5 -71.5q0 -39 -22 -67.5t-84 -68.5q-41 -27 -58 -46t-26 -48h145l-15 -72h-229z" />
<glyph unicode="&#xb3;" d="M120 505q39 -26 81 -26q37 0 56.5 15t19.5 44q0 51 -69 51h-39l14 64h35q37 0 57 14.5t20 41.5q0 42 -57 42q-31 0 -68 -17l-19 61q53 25 106 25q54 0 87.5 -26.5t33.5 -68.5q0 -34 -21.5 -62.5t-59.5 -43.5q31 -13 47 -36t16 -53q0 -53 -43 -86.5t-111 -33.5 q-31 0 -60.5 8.5t-51.5 24.5z" />
<glyph unicode="&#xb4;" horiz-adv-x="484" d="M313 606h-97l131 150h128z" />
<glyph unicode="&#xb6;" horiz-adv-x="481" d="M272 -110l159 750h-59l-159 -750h-62l83 388q-68 0 -110 48t-42 124q0 75 31.5 132t86 87.5t123.5 30.5h183l-172 -810h-62z" />
<glyph unicode="&#xb7;" horiz-adv-x="211" d="M176 296q0 -30 -22 -50.5t-54 -20.5q-25 0 -41 15.5t-16 39.5q0 30 22 50.5t54 20.5q25 0 41 -15.5t16 -39.5z" />
<glyph unicode="&#xb8;" horiz-adv-x="484" d="M77 -158q32 -19 64 -19q27 0 42 11.5t15 32.5q0 37 -56 37h-29l55 98h66l-33 -58q68 -14 68 -77q0 -48 -34 -76.5t-91 -28.5q-49 0 -92 26z" />
<glyph unicode="&#xb9;" d="M204 420l59 276l-72 -54l-38 61l146 107h72l-83 -390h-84z" />
<glyph unicode="&#xba;" horiz-adv-x="340" d="M38 228l15 68h246l-15 -68h-246zM188 336q-49 0 -78 34t-29 92q0 70 23.5 124.5t63.5 84t89 29.5t78 -34t29 -92q0 -70 -23.5 -124.5t-63.5 -84t-89 -29.5zM201 408q33 0 58.5 47.5t25.5 108.5q0 33 -10 48.5t-31 15.5q-33 0 -58.5 -47.5t-25.5 -108.5q0 -33 10 -48.5 t31 -15.5z" />
<glyph unicode="&#xbb;" horiz-adv-x="413" d="M-19 96l162 193l-73 175h89l76 -184l-155 -184h-99zM149 96l162 193l-73 175h89l76 -184l-155 -184h-99z" />
<glyph unicode="&#xbc;" horiz-adv-x="809" d="M161 0l470 690h89l-470 -690h-89zM596 0l15 73h-171l14 66l224 251h79l-54 -251h39l-14 -66h-39l-15 -73h-78zM625 139l30 139l-124 -139h94zM179 300l59 276l-72 -54l-38 61l146 107h72l-83 -390h-84z" />
<glyph unicode="&#xbd;" horiz-adv-x="809" d="M127 0l470 690h89l-470 -690h-89zM466 0l6 29q11 50 23.5 80t33.5 53t58 46q54 34 69.5 50t15.5 35q0 17 -13.5 27t-36.5 10q-33 0 -67 -21l-22 62q53 29 106 29t84.5 -26.5t31.5 -71.5q0 -39 -22 -67.5t-84 -68.5q-41 -27 -58 -46t-26 -48h145l-15 -72h-229zM179 300 l59 276l-72 -54l-38 61l146 107h72l-83 -390h-84z" />
<glyph unicode="&#xbe;" horiz-adv-x="809" d="M172 0l470 690h89l-470 -690h-89zM596 0l15 73h-171l14 66l224 251h79l-54 -251h39l-14 -66h-39l-15 -73h-78zM625 139l30 139l-124 -139h94zM95 385q39 -26 81 -26q37 0 56.5 15t19.5 44q0 51 -69 51h-39l14 64h35q37 0 57 14.5t20 41.5q0 42 -57 42q-31 0 -68 -17 l-19 61q53 25 106 25q54 0 87.5 -26.5t33.5 -68.5q0 -34 -21.5 -62.5t-59.5 -43.5q31 -13 47 -36t16 -53q0 -53 -43 -86.5t-111 -33.5q-31 0 -60.5 8.5t-51.5 24.5z" />
<glyph unicode="&#xbf;" horiz-adv-x="373" d="M289 -136q-81 -59 -167 -59q-74 0 -118 41.5t-44 110.5q0 55 31 103t95 93l17 12q31 22 46 47t25 71l5 24h94l-5 -24q-10 -49 -21 -78.5t-28 -51t-48 -43.5l-17 -12q-87 -61 -87 -132q0 -34 19 -52.5t55 -18.5q55 0 113 42zM328 480q0 -30 -22 -50.5t-54 -20.5 q-25 0 -41 15.5t-16 39.5q0 30 22 50.5t54 20.5q25 0 41 -15.5t16 -39.5z" />
<glyph unicode="&#xc0;" horiz-adv-x="522" d="M344 0l-5 168h-196l-75 -168h-109l340 700h109l44 -700h-108zM326 573l-141 -312h151zM317 765l-111 125h125l78 -125h-92z" />
<glyph unicode="&#xc1;" horiz-adv-x="522" d="M344 0l-5 168h-196l-75 -168h-109l340 700h109l44 -700h-108zM326 573l-141 -312h151zM402 765h-104l132 125h136z" />
<glyph unicode="&#xc2;" horiz-adv-x="522" d="M344 0l-5 168h-196l-75 -168h-109l340 700h109l44 -700h-108zM326 573l-141 -312h151zM427 765l-51 65l-76 -65h-103l132 125h109l78 -125h-89z" />
<glyph unicode="&#xc3;" horiz-adv-x="522" d="M344 0l-5 168h-196l-75 -168h-109l340 700h109l44 -700h-108zM326 573l-141 -312h151zM544 890q-13 -62 -41 -94.5t-68 -32.5q-21 0 -37.5 7t-44.5 27q-31 22 -43 22q-13 0 -21 -11.5t-14 -39.5h-79q13 62 41 94.5t68 32.5q21 0 37.5 -7t44.5 -27q31 -22 43 -22 q13 0 21 11.5t14 39.5h79z" />
<glyph unicode="&#xc4;" horiz-adv-x="522" d="M344 0l-5 168h-196l-75 -168h-109l340 700h109l44 -700h-108zM326 573l-141 -312h151zM338 841q0 -29 -21 -48t-51 -19q-24 0 -39 14t-15 37q0 29 21 48t51 19q24 0 39 -14t15 -37zM530 841q0 -29 -21 -48t-51 -19q-24 0 -39 14t-15 37q0 29 21 48t51 19q24 0 39 -14 t15 -37z" />
<glyph unicode="&#xc5;" horiz-adv-x="522" d="M344 0l-5 168h-196l-75 -168h-109l340 700h109l44 -700h-108zM326 573l-141 -312h151zM492 877q0 -53 -38 -89.5t-93 -36.5q-45 0 -72 27t-27 71q0 53 38 89.5t93 36.5q45 0 72 -27t27 -71zM428 870q0 19 -13 32t-31 13q-25 0 -41.5 -17t-16.5 -42q0 -19 13 -32t31 -13 q25 0 41.5 17t16.5 42z" />
<glyph unicode="&#xc6;" horiz-adv-x="743" d="M-57 0l446 700h401l-20 -94h-218l-44 -206h176l-20 -94h-176l-45 -212h229l-20 -94h-336l43 204h-177l-126 -204h-113zM379 297l66 309h-14l-192 -309h140z" />
<glyph unicode="&#xc7;" horiz-adv-x="468" d="M404 33q-69 -44 -155 -44q-94 0 -148 63.5t-54 174.5q0 138 46 249.5t121.5 173t165.5 61.5q69 0 133 -41l-37 -87q-45 26 -91 26q-66 0 -118 -50t-80.5 -131.5t-28.5 -177.5q0 -78 30 -118.5t87 -40.5q52 0 106 30zM111 -156q32 -19 64 -19q27 0 41.5 11t14.5 31 q0 19 -13 27.5t-42 8.5h-30l55 99h68l-33 -57q68 -15 68 -78q0 -48 -34 -76.5t-92 -28.5q-52 0 -92 26z" />
<glyph unicode="&#xc8;" horiz-adv-x="454" d="M184 306l-45 -212h244l-20 -94h-353l149 700h342l-20 -94h-233l-44 -206h191l-20 -94h-191zM283 765l-111 125h125l78 -125h-92z" />
<glyph unicode="&#xc9;" horiz-adv-x="454" d="M184 306l-45 -212h244l-20 -94h-353l149 700h342l-20 -94h-233l-44 -206h191l-20 -94h-191zM368 765h-104l132 125h136z" />
<glyph unicode="&#xca;" horiz-adv-x="454" d="M184 306l-45 -212h244l-20 -94h-353l149 700h342l-20 -94h-233l-44 -206h191l-20 -94h-191zM393 765l-51 65l-76 -65h-103l132 125h109l78 -125h-89z" />
<glyph unicode="&#xcb;" horiz-adv-x="454" d="M184 306l-45 -212h244l-20 -94h-353l149 700h342l-20 -94h-233l-44 -206h191l-20 -94h-191zM304 841q0 -29 -21 -48t-51 -19q-24 0 -39 14t-15 37q0 29 21 48t51 19q24 0 39 -14t15 -37zM496 841q0 -29 -21 -48t-51 -19q-24 0 -39 14t-15 37q0 29 21 48t51 19 q24 0 39 -14t15 -37z" />
<glyph unicode="&#xcc;" horiz-adv-x="241" d="M10 0l149 700h109l-149 -700h-109zM177 765l-111 125h125l78 -125h-92z" />
<glyph unicode="&#xcd;" horiz-adv-x="241" d="M10 0l149 700h109l-149 -700h-109zM262 765h-104l132 125h136z" />
<glyph unicode="&#xce;" horiz-adv-x="241" d="M10 0l149 700h109l-149 -700h-109zM287 765l-51 65l-76 -65h-103l132 125h109l78 -125h-89z" />
<glyph unicode="&#xcf;" horiz-adv-x="241" d="M10 0l149 700h109l-149 -700h-109zM198 841q0 -29 -21 -48t-51 -19q-24 0 -39 14t-15 37q0 29 21 48t51 19q24 0 39 -14t15 -37zM390 841q0 -29 -21 -48t-51 -19q-24 0 -39 14t-15 37q0 29 21 48t51 19q24 0 39 -14t15 -37z" />
<glyph unicode="&#xd0;" horiz-adv-x="560" d="M33 0l66 312h-57l18 87h58l64 301h123q118 0 181.5 -67.5t63.5 -193.5q0 -135 -47 -234.5t-130.5 -152t-192.5 -52.5h-147zM203 96q52 0 96.5 28t75.5 75.5t47.5 108.5t16.5 129q0 167 -141 167h-27l-44 -205h87l-18 -87h-88l-46 -216h41z" />
<glyph unicode="&#xd1;" horiz-adv-x="546" d="M320 0l-104 491l-105 -491h-101l149 700h104l104 -491l105 491h101l-149 -700h-104zM556 890q-13 -62 -41 -94.5t-68 -32.5q-21 0 -37.5 7t-44.5 27q-31 22 -43 22q-13 0 -21 -11.5t-14 -39.5h-79q13 62 41 94.5t68 32.5q21 0 37.5 -7t44.5 -27q31 -22 43 -22 q13 0 21 11.5t14 39.5h79z" />
<glyph unicode="&#xd2;" horiz-adv-x="542" d="M221 -11q-81 0 -127.5 64t-46.5 174q0 140 42.5 251t113 172t155.5 61q81 0 127.5 -64t46.5 -174q0 -140 -42.5 -251t-113 -172t-155.5 -61zM239 90q48 0 90.5 56t67 141t24.5 176q0 73 -20.5 110t-60.5 37q-48 0 -90.5 -56t-67 -141t-24.5 -176q0 -73 20.5 -110 t60.5 -37zM323 765l-111 125h125l78 -125h-92z" />
<glyph unicode="&#xd3;" horiz-adv-x="542" d="M221 -11q-81 0 -127.5 64t-46.5 174q0 140 42.5 251t113 172t155.5 61q81 0 127.5 -64t46.5 -174q0 -140 -42.5 -251t-113 -172t-155.5 -61zM239 90q48 0 90.5 56t67 141t24.5 176q0 73 -20.5 110t-60.5 37q-48 0 -90.5 -56t-67 -141t-24.5 -176q0 -73 20.5 -110 t60.5 -37zM408 765h-104l132 125h136z" />
<glyph unicode="&#xd4;" horiz-adv-x="542" d="M221 -11q-81 0 -127.5 64t-46.5 174q0 140 42.5 251t113 172t155.5 61q81 0 127.5 -64t46.5 -174q0 -140 -42.5 -251t-113 -172t-155.5 -61zM239 90q48 0 90.5 56t67 141t24.5 176q0 73 -20.5 110t-60.5 37q-48 0 -90.5 -56t-67 -141t-24.5 -176q0 -73 20.5 -110 t60.5 -37zM433 765l-51 65l-76 -65h-103l132 125h109l78 -125h-89z" />
<glyph unicode="&#xd5;" horiz-adv-x="542" d="M221 -11q-81 0 -127.5 64t-46.5 174q0 140 42.5 251t113 172t155.5 61q81 0 127.5 -64t46.5 -174q0 -140 -42.5 -251t-113 -172t-155.5 -61zM239 90q48 0 90.5 56t67 141t24.5 176q0 73 -20.5 110t-60.5 37q-48 0 -90.5 -56t-67 -141t-24.5 -176q0 -73 20.5 -110 t60.5 -37zM550 890q-13 -62 -41 -94.5t-68 -32.5q-21 0 -37.5 7t-44.5 27q-31 22 -43 22q-13 0 -21 -11.5t-14 -39.5h-79q13 62 41 94.5t68 32.5q21 0 37.5 -7t44.5 -27q31 -22 43 -22q13 0 21 11.5t14 39.5h79z" />
<glyph unicode="&#xd6;" horiz-adv-x="542" d="M221 -11q-81 0 -127.5 64t-46.5 174q0 140 42.5 251t113 172t155.5 61q81 0 127.5 -64t46.5 -174q0 -140 -42.5 -251t-113 -172t-155.5 -61zM239 90q48 0 90.5 56t67 141t24.5 176q0 73 -20.5 110t-60.5 37q-48 0 -90.5 -56t-67 -141t-24.5 -176q0 -73 20.5 -110 t60.5 -37zM344 841q0 -29 -21 -48t-51 -19q-24 0 -39 14t-15 37q0 29 21 48t51 19q24 0 39 -14t15 -37zM536 841q0 -29 -21 -48t-51 -19q-24 0 -39 14t-15 37q0 29 21 48t51 19q24 0 39 -14t15 -37z" />
<glyph unicode="&#xd7;" horiz-adv-x="490" d="M318 339l103 -133l-66 -54l-103 132l-152 -126l-50 65l151 126l-103 133l66 54l103 -132l152 126l50 -65z" />
<glyph unicode="&#xd8;" horiz-adv-x="542" d="M-3 22l67 89q-17 51 -17 116q0 140 42.5 251t113 172t155.5 61q73 0 120 -53l48 64l56 -44l-67 -89q17 -51 17 -116q0 -140 -42.5 -251t-113 -172t-155.5 -61q-73 0 -120 53l-48 -64zM153 228l258 341q-21 50 -69 50q-50 0 -94.5 -58t-69.5 -146t-25 -182v-5zM237 81 q50 0 94.5 58t69.5 146t25 182v5l-258 -341q21 -50 69 -50z" />
<glyph unicode="&#xd9;" horiz-adv-x="531" d="M456 700h109l-100 -469q-27 -126 -85 -184t-158 -58q-84 0 -130 44.5t-46 127.5q0 41 9 80l98 459h109l-97 -455q-10 -45 -10 -74q0 -39 20 -60t58 -21q48 0 77.5 32.5t44.5 102.5zM323 765l-111 125h125l78 -125h-92z" />
<glyph unicode="&#xda;" horiz-adv-x="531" d="M456 700h109l-100 -469q-27 -126 -85 -184t-158 -58q-84 0 -130 44.5t-46 127.5q0 41 9 80l98 459h109l-97 -455q-10 -45 -10 -74q0 -39 20 -60t58 -21q48 0 77.5 32.5t44.5 102.5zM408 765h-104l132 125h136z" />
<glyph unicode="&#xdb;" horiz-adv-x="531" d="M456 700h109l-100 -469q-27 -126 -85 -184t-158 -58q-84 0 -130 44.5t-46 127.5q0 41 9 80l98 459h109l-97 -455q-10 -45 -10 -74q0 -39 20 -60t58 -21q48 0 77.5 32.5t44.5 102.5zM433 765l-51 65l-76 -65h-103l132 125h109l78 -125h-89z" />
<glyph unicode="&#xdc;" horiz-adv-x="531" d="M456 700h109l-100 -469q-27 -126 -85 -184t-158 -58q-84 0 -130 44.5t-46 127.5q0 41 9 80l98 459h109l-97 -455q-10 -45 -10 -74q0 -39 20 -60t58 -21q48 0 77.5 32.5t44.5 102.5zM344 841q0 -29 -21 -48t-51 -19q-24 0 -39 14t-15 37q0 29 21 48t51 19q24 0 39 -14 t15 -37zM536 841q0 -29 -21 -48t-51 -19q-24 0 -39 14t-15 37q0 29 21 48t51 19q24 0 39 -14t15 -37z" />
<glyph unicode="&#xdd;" horiz-adv-x="482" d="M132 0l56 264l-74 436h109l36 -334l182 334h113l-257 -435l-56 -265h-109zM383 765h-104l132 125h136z" />
<glyph unicode="&#xde;" horiz-adv-x="489" d="M10 0l149 700h109l-25 -116h42q90 0 141.5 -52t51.5 -142q0 -80 -34 -139.5t-93.5 -91t-136.5 -31.5h-68l-27 -128h-109zM223 491l-57 -269h58q63 0 103 46t40 117q0 50 -25.5 78t-70.5 28h-48z" />
<glyph unicode="&#xdf;" horiz-adv-x="481" d="M164 89q22 -14 59 -14q52 0 84.5 44t32.5 114q0 55 -25 83.5t-74 28.5h-19l18 82h21q39 0 71 23t50 59t18 78q0 41 -18.5 64t-52.5 23q-85 0 -118 -158l-110 -516h-98l110 516q27 125 82 184.5t144 59.5q71 0 115.5 -44t44.5 -115q0 -75 -44.5 -137.5t-108.5 -78.5 q46 -16 70.5 -57t24.5 -102q0 -70 -27.5 -124t-75 -83.5t-106.5 -29.5q-28 0 -54 6.5t-44 17.5z" />
<glyph unicode="&#xe0;" horiz-adv-x="478" d="M267 535q64 0 106 -57l22 46h78l-112 -524h-78v52q-27 -29 -60.5 -46t-65.5 -17q-60 0 -92.5 46t-32.5 129q0 105 33 190.5t86 133t116 47.5zM201 78q22 0 44.5 13t40.5 35l60 282q-12 17 -31.5 27.5t-39.5 10.5q-39 0 -71.5 -38.5t-50.5 -98t-18 -125.5q0 -52 17 -79 t49 -27zM256 606l-92 150h112l66 -150h-86z" />
<glyph unicode="&#xe1;" horiz-adv-x="478" d="M267 535q64 0 106 -57l22 46h78l-112 -524h-78v52q-27 -29 -60.5 -46t-65.5 -17q-60 0 -92.5 46t-32.5 129q0 105 33 190.5t86 133t116 47.5zM201 78q22 0 44.5 13t40.5 35l60 282q-12 17 -31.5 27.5t-39.5 10.5q-39 0 -71.5 -38.5t-50.5 -98t-18 -125.5q0 -52 17 -79 t49 -27zM335 606h-97l131 150h128z" />
<glyph unicode="&#xe2;" horiz-adv-x="478" d="M267 535q64 0 106 -57l22 46h78l-112 -524h-78v52q-27 -29 -60.5 -46t-65.5 -17q-60 0 -92.5 46t-32.5 129q0 105 33 190.5t86 133t116 47.5zM201 78q22 0 44.5 13t40.5 35l60 282q-12 17 -31.5 27.5t-39.5 10.5q-39 0 -71.5 -38.5t-50.5 -98t-18 -125.5q0 -52 17 -79 t49 -27zM362 606l-46 83l-85 -83h-87l131 150h101l66 -150h-80z" />
<glyph unicode="&#xe3;" horiz-adv-x="478" d="M267 535q64 0 106 -57l22 46h78l-112 -524h-78v52q-27 -29 -60.5 -46t-65.5 -17q-60 0 -92.5 46t-32.5 129q0 105 33 190.5t86 133t116 47.5zM201 78q22 0 44.5 13t40.5 35l60 282q-12 17 -31.5 27.5t-39.5 10.5q-39 0 -71.5 -38.5t-50.5 -98t-18 -125.5q0 -52 17 -79 t49 -27zM477 745q-24 -127 -112 -127q-18 0 -32 6.5t-39 27.5q-18 15 -24.5 18.5t-13.5 3.5q-14 0 -22.5 -13t-13.5 -40h-79q24 127 112 127q18 0 32 -6.5t39 -27.5q18 -15 24.5 -18.5t13.5 -3.5q14 0 22.5 13t13.5 40h79z" />
<glyph unicode="&#xe4;" horiz-adv-x="478" d="M267 535q64 0 106 -57l22 46h78l-112 -524h-78v52q-27 -29 -60.5 -46t-65.5 -17q-60 0 -92.5 46t-32.5 129q0 105 33 190.5t86 133t116 47.5zM201 78q22 0 44.5 13t40.5 35l60 282q-12 17 -31.5 27.5t-39.5 10.5q-39 0 -71.5 -38.5t-50.5 -98t-18 -125.5q0 -52 17 -79 t49 -27zM279 688q0 -27 -19.5 -45t-48.5 -18q-23 0 -37 13.5t-14 35.5q0 27 19.5 45t48.5 18q23 0 37 -13.5t14 -35.5zM458 688q0 -27 -19.5 -45t-48.5 -18q-23 0 -37 13.5t-14 35.5q0 27 19.5 45t48.5 18q23 0 37 -13.5t14 -35.5z" />
<glyph unicode="&#xe5;" horiz-adv-x="478" d="M267 535q64 0 106 -57l22 46h78l-112 -524h-78v52q-27 -29 -60.5 -46t-65.5 -17q-60 0 -92.5 46t-32.5 129q0 105 33 190.5t86 133t116 47.5zM201 78q22 0 44.5 13t40.5 35l60 282q-12 17 -31.5 27.5t-39.5 10.5q-39 0 -71.5 -38.5t-50.5 -98t-18 -125.5q0 -52 17 -79 t49 -27zM426 708q0 -53 -37.5 -89t-92.5 -36q-44 0 -71 26.5t-27 70.5q0 53 37.5 89t92.5 36q44 0 71 -26.5t27 -70.5zM363 701q0 20 -12.5 33t-31.5 13q-24 0 -41 -17.5t-17 -42.5q0 -20 12.5 -33t31.5 -13q24 0 41 17.5t17 42.5z" />
<glyph unicode="&#xe6;" horiz-adv-x="705" d="M283 0v52q-27 -29 -60.5 -46t-65.5 -17q-60 0 -92.5 46t-32.5 129q0 105 33 190.5t86 133t116 47.5q64 0 106 -57l22 46h56l-7 -56q59 67 127 67q56 0 89.5 -33.5t33.5 -89.5q0 -61 -32.5 -107.5t-88.5 -71.5t-127 -25q-24 0 -36 1v-21q0 -59 21.5 -86t69.5 -27 q26 0 54 9.5t53 25.5l19 -75q-26 -20 -66.5 -33t-77.5 -13q-45 0 -74.5 17t-49.5 54l-20 -60h-56zM201 78q22 0 44.5 13t40.5 35l60 282q-12 17 -31.5 27.5t-39.5 10.5q-39 0 -71.5 -38.5t-50.5 -98t-18 -125.5q0 -52 17 -79t49 -27zM558 451q-43 0 -81.5 -47.5 t-56.5 -120.5h21q47 0 84 15.5t57 41.5t20 57q0 26 -11.5 40t-32.5 14z" />
<glyph unicode="&#xe7;" horiz-adv-x="394" d="M329 33q-28 -21 -65 -32.5t-75 -11.5q-74 0 -115.5 53.5t-41.5 148.5q0 100 36 179t95.5 122t132.5 43q59 0 111 -32l-39 -77q-35 19 -70 19q-45 0 -83 -35t-59 -90t-21 -116q0 -59 22 -92t61 -33q41 0 91 32zM56 -158q32 -19 64 -19q27 0 42 11.5t15 32.5q0 37 -56 37 h-29l55 98h66l-33 -58q68 -14 68 -77q0 -48 -34 -76.5t-91 -28.5q-49 0 -92 26z" />
<glyph unicode="&#xe8;" horiz-adv-x="425" d="M347 35q-27 -21 -68 -33.5t-81 -12.5q-79 0 -122.5 52.5t-43.5 149.5t36.5 176.5t95.5 123.5t127 44q56 0 89.5 -33.5t33.5 -89.5q0 -61 -32.5 -107.5t-88.5 -71.5t-127 -25q-24 0 -36 1v-21q0 -59 21.5 -86t69.5 -27q26 0 54 9.5t53 25.5zM278 451q-43 0 -81.5 -47.5 t-56.5 -120.5h21q47 0 84 15.5t57 41.5t20 57q0 26 -11.5 40t-32.5 14zM254 606l-92 150h112l66 -150h-86z" />
<glyph unicode="&#xe9;" horiz-adv-x="425" d="M347 35q-27 -21 -68 -33.5t-81 -12.5q-79 0 -122.5 52.5t-43.5 149.5t36.5 176.5t95.5 123.5t127 44q56 0 89.5 -33.5t33.5 -89.5q0 -61 -32.5 -107.5t-88.5 -71.5t-127 -25q-24 0 -36 1v-21q0 -59 21.5 -86t69.5 -27q26 0 54 9.5t53 25.5zM278 451q-43 0 -81.5 -47.5 t-56.5 -120.5h21q47 0 84 15.5t57 41.5t20 57q0 26 -11.5 40t-32.5 14zM333 606h-97l131 150h128z" />
<glyph unicode="&#xea;" horiz-adv-x="425" d="M347 35q-27 -21 -68 -33.5t-81 -12.5q-79 0 -122.5 52.5t-43.5 149.5t36.5 176.5t95.5 123.5t127 44q56 0 89.5 -33.5t33.5 -89.5q0 -61 -32.5 -107.5t-88.5 -71.5t-127 -25q-24 0 -36 1v-21q0 -59 21.5 -86t69.5 -27q26 0 54 9.5t53 25.5zM278 451q-43 0 -81.5 -47.5 t-56.5 -120.5h21q47 0 84 15.5t57 41.5t20 57q0 26 -11.5 40t-32.5 14zM360 606l-46 83l-85 -83h-87l131 150h101l66 -150h-80z" />
<glyph unicode="&#xeb;" horiz-adv-x="425" d="M347 35q-27 -21 -68 -33.5t-81 -12.5q-79 0 -122.5 52.5t-43.5 149.5t36.5 176.5t95.5 123.5t127 44q56 0 89.5 -33.5t33.5 -89.5q0 -61 -32.5 -107.5t-88.5 -71.5t-127 -25q-24 0 -36 1v-21q0 -59 21.5 -86t69.5 -27q26 0 54 9.5t53 25.5zM278 451q-43 0 -81.5 -47.5 t-56.5 -120.5h21q47 0 84 15.5t57 41.5t20 57q0 26 -11.5 40t-32.5 14zM277 688q0 -27 -19.5 -45t-48.5 -18q-23 0 -37 13.5t-14 35.5q0 27 19.5 45t48.5 18q23 0 37 -13.5t14 -35.5zM456 688q0 -27 -19.5 -45t-48.5 -18q-23 0 -37 13.5t-14 35.5q0 27 19.5 45t48.5 18 q23 0 37 -13.5t14 -35.5z" />
<glyph unicode="&#xec;" horiz-adv-x="224" d="M5 0l112 524h102l-112 -524h-102zM139 606l-92 150h112l66 -150h-86z" />
<glyph unicode="&#xed;" horiz-adv-x="224" d="M5 0l112 524h102l-112 -524h-102zM218 606h-97l131 150h128z" />
<glyph unicode="&#xee;" horiz-adv-x="224" d="M5 0l112 524h102l-112 -524h-102zM245 606l-46 83l-85 -83h-87l131 150h101l66 -150h-80z" />
<glyph unicode="&#xef;" horiz-adv-x="224" d="M5 0l112 524h102l-112 -524h-102zM162 688q0 -27 -19.5 -45t-48.5 -18q-23 0 -37 13.5t-14 35.5q0 27 19.5 45t48.5 18q23 0 37 -13.5t14 -35.5zM341 688q0 -27 -19.5 -45t-48.5 -18q-23 0 -37 13.5t-14 35.5q0 27 19.5 45t48.5 18q23 0 37 -13.5t14 -35.5z" />
<glyph unicode="&#xf0;" horiz-adv-x="469" d="M353 661q84 -124 84 -303q0 -112 -33 -195.5t-90 -128.5t-131 -45q-68 0 -109.5 52t-41.5 137q0 89 33.5 164t87 117t113.5 42q27 0 49.5 -14t37.5 -39q-15 87 -67 161l-90 -68l-31 47l85 64q-32 32 -62 53l51 69q42 -28 80 -69l92 70l31 -47zM198 78q35 0 67 37t50.5 90 t18.5 107q0 46 -17 73t-46 27q-35 0 -67 -37t-50.5 -90t-18.5 -107q0 -46 17 -73t46 -27z" />
<glyph unicode="&#xf1;" horiz-adv-x="481" d="M267 0l75 351q5 20 5 38q0 26 -14.5 40t-40.5 14q-24 0 -51 -12.5t-49 -33.5l-85 -397h-102l112 524h85l-3 -56q33 32 71 49.5t73 17.5q53 0 81.5 -30t28.5 -86q0 -27 -6 -54l-78 -365h-102zM494 745q-24 -127 -112 -127q-18 0 -32 6.5t-39 27.5q-18 15 -24.5 18.5 t-13.5 3.5q-14 0 -22.5 -13t-13.5 -40h-79q24 127 112 127q18 0 32 -6.5t39 -27.5q18 -15 24.5 -18.5t13.5 -3.5q14 0 22.5 13t13.5 40h79z" />
<glyph unicode="&#xf2;" horiz-adv-x="469" d="M183 -11q-69 0 -110 52.5t-41 140.5q0 104 34 185t91.5 124.5t128.5 43.5q69 0 110 -52.5t41 -140.5q0 -104 -34 -185t-91.5 -124.5t-128.5 -43.5zM199 78q36 0 67.5 38.5t49.5 97.5t18 123q0 52 -16.5 80.5t-47.5 28.5q-36 0 -67.5 -38.5t-49.5 -97.5t-18 -123 q0 -52 16.5 -80.5t47.5 -28.5zM253 606l-92 150h112l66 -150h-86z" />
<glyph unicode="&#xf3;" horiz-adv-x="469" d="M183 -11q-69 0 -110 52.5t-41 140.5q0 104 34 185t91.5 124.5t128.5 43.5q69 0 110 -52.5t41 -140.5q0 -104 -34 -185t-91.5 -124.5t-128.5 -43.5zM199 78q36 0 67.5 38.5t49.5 97.5t18 123q0 52 -16.5 80.5t-47.5 28.5q-36 0 -67.5 -38.5t-49.5 -97.5t-18 -123 q0 -52 16.5 -80.5t47.5 -28.5zM332 606h-97l131 150h128z" />
<glyph unicode="&#xf4;" horiz-adv-x="469" d="M183 -11q-69 0 -110 52.5t-41 140.5q0 104 34 185t91.5 124.5t128.5 43.5q69 0 110 -52.5t41 -140.5q0 -104 -34 -185t-91.5 -124.5t-128.5 -43.5zM199 78q36 0 67.5 38.5t49.5 97.5t18 123q0 52 -16.5 80.5t-47.5 28.5q-36 0 -67.5 -38.5t-49.5 -97.5t-18 -123 q0 -52 16.5 -80.5t47.5 -28.5zM359 606l-46 83l-85 -83h-87l131 150h101l66 -150h-80z" />
<glyph unicode="&#xf5;" horiz-adv-x="469" d="M183 -11q-69 0 -110 52.5t-41 140.5q0 104 34 185t91.5 124.5t128.5 43.5q69 0 110 -52.5t41 -140.5q0 -104 -34 -185t-91.5 -124.5t-128.5 -43.5zM199 78q36 0 67.5 38.5t49.5 97.5t18 123q0 52 -16.5 80.5t-47.5 28.5q-36 0 -67.5 -38.5t-49.5 -97.5t-18 -123 q0 -52 16.5 -80.5t47.5 -28.5zM474 745q-24 -127 -112 -127q-18 0 -32 6.5t-39 27.5q-18 15 -24.5 18.5t-13.5 3.5q-14 0 -22.5 -13t-13.5 -40h-79q24 127 112 127q18 0 32 -6.5t39 -27.5q18 -15 24.5 -18.5t13.5 -3.5q14 0 22.5 13t13.5 40h79z" />
<glyph unicode="&#xf6;" horiz-adv-x="469" d="M183 -11q-69 0 -110 52.5t-41 140.5q0 104 34 185t91.5 124.5t128.5 43.5q69 0 110 -52.5t41 -140.5q0 -104 -34 -185t-91.5 -124.5t-128.5 -43.5zM199 78q36 0 67.5 38.5t49.5 97.5t18 123q0 52 -16.5 80.5t-47.5 28.5q-36 0 -67.5 -38.5t-49.5 -97.5t-18 -123 q0 -52 16.5 -80.5t47.5 -28.5zM276 688q0 -27 -19.5 -45t-48.5 -18q-23 0 -37 13.5t-14 35.5q0 27 19.5 45t48.5 18q23 0 37 -13.5t14 -35.5zM455 688q0 -27 -19.5 -45t-48.5 -18q-23 0 -37 13.5t-14 35.5q0 27 19.5 45t48.5 18q23 0 37 -13.5t14 -35.5z" />
<glyph unicode="&#xf7;" horiz-adv-x="490" d="M288 193q0 -26 -19 -44.5t-47 -18.5q-22 0 -35.5 13.5t-13.5 33.5q0 26 19 44.5t47 18.5q22 0 35.5 -13.5t13.5 -33.5zM64 303l17 84h379l-17 -84h-379zM351 513q0 -26 -19 -44.5t-47 -18.5q-22 0 -35.5 13.5t-13.5 33.5q0 26 19 44.5t47 18.5q22 0 35.5 -13.5 t13.5 -33.5z" />
<glyph unicode="&#xf8;" horiz-adv-x="469" d="M-14 18l60 71q-14 42 -14 92q0 104 34 185.5t91.5 125t128.5 43.5q64 0 102 -43l45 53l50 -39l-60 -71q14 -42 14 -92q0 -104 -34 -185.5t-91.5 -125t-128.5 -43.5q-64 0 -102 43l-45 -53zM197 69q39 0 73.5 40t54 101.5t19.5 127.5v4l-202 -239q19 -34 55 -34zM125 182 l202 239q-19 34 -55 34q-39 0 -73.5 -40t-54 -101.5t-19.5 -127.5v-4z" />
<glyph unicode="&#xf9;" horiz-adv-x="475" d="M273 0l2 49q-32 -29 -68 -44.5t-69 -15.5q-53 0 -81.5 30t-28.5 86q0 27 6 54l78 365h102l-75 -351q-5 -20 -5 -38q0 -26 14.5 -40t40.5 -14q22 0 46.5 10.5t46.5 28.5l86 404h102l-112 -524h-85zM262 606l-92 150h112l66 -150h-86z" />
<glyph unicode="&#xfa;" horiz-adv-x="475" d="M273 0l2 49q-32 -29 -68 -44.5t-69 -15.5q-53 0 -81.5 30t-28.5 86q0 27 6 54l78 365h102l-75 -351q-5 -20 -5 -38q0 -26 14.5 -40t40.5 -14q22 0 46.5 10.5t46.5 28.5l86 404h102l-112 -524h-85zM341 606h-97l131 150h128z" />
<glyph unicode="&#xfb;" horiz-adv-x="475" d="M273 0l2 49q-32 -29 -68 -44.5t-69 -15.5q-53 0 -81.5 30t-28.5 86q0 27 6 54l78 365h102l-75 -351q-5 -20 -5 -38q0 -26 14.5 -40t40.5 -14q22 0 46.5 10.5t46.5 28.5l86 404h102l-112 -524h-85zM368 606l-46 83l-85 -83h-87l131 150h101l66 -150h-80z" />
<glyph unicode="&#xfc;" horiz-adv-x="475" d="M273 0l2 49q-32 -29 -68 -44.5t-69 -15.5q-53 0 -81.5 30t-28.5 86q0 27 6 54l78 365h102l-75 -351q-5 -20 -5 -38q0 -26 14.5 -40t40.5 -14q22 0 46.5 10.5t46.5 28.5l86 404h102l-112 -524h-85zM285 688q0 -27 -19.5 -45t-48.5 -18q-23 0 -37 13.5t-14 35.5 q0 27 19.5 45t48.5 18q23 0 37 -13.5t14 -35.5zM464 688q0 -27 -19.5 -45t-48.5 -18q-23 0 -37 13.5t-14 35.5q0 27 19.5 45t48.5 18q23 0 37 -13.5t14 -35.5z" />
<glyph unicode="&#xfd;" horiz-adv-x="438" d="M74 524h105l12 -389l178 389h107l-284 -563q-54 -106 -96.5 -146.5t-99.5 -40.5q-44 0 -75 22l30 76q24 -9 42 -9q30 0 56 31t67 113zM325 606h-97l131 150h128z" />
<glyph unicode="&#xfe;" horiz-adv-x="478" d="M-41 -216l206 966h102l-57 -268q25 26 53.5 39.5t57.5 13.5q60 0 92.5 -46t32.5 -129q0 -105 -33 -190.5t-86 -133t-116 -47.5q-58 0 -96 48l-54 -253h-102zM277 446q-22 0 -44.5 -13t-40.5 -36l-60 -281q12 -17 31 -27.5t40 -10.5q39 0 71.5 38.5t50.5 98t18 125.5 q0 52 -17 79t-49 27z" />
<glyph unicode="&#xff;" horiz-adv-x="438" d="M74 524h105l12 -389l178 389h107l-284 -563q-54 -106 -96.5 -146.5t-99.5 -40.5q-44 0 -75 22l30 76q24 -9 42 -9q30 0 56 31t67 113zM269 688q0 -27 -19.5 -45t-48.5 -18q-23 0 -37 13.5t-14 35.5q0 27 19.5 45t48.5 18q23 0 37 -13.5t14 -35.5zM448 688 q0 -27 -19.5 -45t-48.5 -18q-23 0 -37 13.5t-14 35.5q0 27 19.5 45t48.5 18q23 0 37 -13.5t14 -35.5z" />
<glyph unicode="&#x102;" horiz-adv-x="522" d="M344 0l-5 168h-196l-75 -168h-109l340 700h109l44 -700h-108zM326 573l-141 -312h151zM511 894q-7 -42 -29 -72t-55 -46t-74 -16q-58 0 -91 29.5t-33 81.5q0 15 1 23h78v-6q0 -60 50 -60q54 0 71 66h82z" />
<glyph unicode="&#x103;" horiz-adv-x="478" d="M267 535q64 0 106 -57l22 46h78l-112 -524h-78v52q-27 -29 -60.5 -46t-65.5 -17q-60 0 -92.5 46t-32.5 129q0 105 33 190.5t86 133t116 47.5zM201 78q22 0 44.5 13t40.5 35l60 282q-12 17 -31.5 27.5t-39.5 10.5q-39 0 -71.5 -38.5t-50.5 -98t-18 -125.5q0 -52 17 -79 t49 -27zM444 740q-11 -65 -51.5 -101t-102.5 -36q-55 0 -87.5 30.5t-32.5 82.5q0 13 1 24h76v-6q0 -29 13 -45t36 -16q25 0 43 17.5t26 49.5h79z" />
<glyph unicode="&#x131;" horiz-adv-x="224" d="M5 0l112 524h102l-112 -524h-102z" />
<glyph unicode="&#x132;" horiz-adv-x="590" d="M10 0l149 700h109l-149 -700h-109zM234 111q36 -21 75 -21q41 0 65 29.5t39 100.5l102 480h109l-103 -485q-17 -80 -43 -129.5t-64.5 -73t-95.5 -23.5q-62 0 -116 33z" />
<glyph unicode="&#x133;" horiz-adv-x="448" d="M5 0l112 524h102l-112 -524h-102zM266 685q0 -30 -21.5 -50.5t-53.5 -20.5q-27 0 -41.5 14t-14.5 39q0 30 21.5 50.5t53.5 20.5q27 0 41.5 -14t14.5 -39zM113 -129q20 -7 35 -7q28 0 44 18.5t25 60.5l124 581h102l-125 -584q-19 -88 -56 -127t-102 -39q-45 0 -76 20z M490 685q0 -30 -21.5 -50.5t-53.5 -20.5q-27 0 -41.5 14t-14.5 39q0 30 21.5 50.5t53.5 20.5q27 0 41.5 -14t14.5 -39z" />
<glyph unicode="&#x152;" horiz-adv-x="768" d="M508 306l-45 -212h234l-20 -94h-323l16 73q-68 -84 -159 -84q-75 0 -119.5 64.5t-44.5 173.5q0 138 41.5 249.5t108.5 173t145 61.5q103 0 138 -116l23 105h312l-20 -94h-223l-44 -206h181l-20 -94h-181zM239 90q48 0 90.5 56t67 141t24.5 176q0 73 -20.5 110t-60.5 37 q-48 0 -90.5 -56t-67 -141t-24.5 -176q0 -73 20.5 -110t60.5 -37z" />
<glyph unicode="&#x153;" horiz-adv-x="713" d="M635 35q-27 -21 -68 -33.5t-81 -12.5q-107 0 -141 94q-69 -94 -166 -94q-67 0 -107 52.5t-40 140.5q0 104 34 184.5t91 124.5t126 44q46 0 79.5 -27t48.5 -74q36 49 78.5 75t89.5 26q56 0 89.5 -33.5t33.5 -89.5q0 -61 -32.5 -107.5t-88.5 -71.5t-127 -25q-24 0 -36 1 v-21q0 -59 21.5 -86t69.5 -27q26 0 54 9.5t53 25.5zM199 78q36 0 67.5 38.5t49.5 97.5t18 123q0 52 -16.5 80.5t-47.5 28.5q-36 0 -67.5 -38.5t-49.5 -97.5t-18 -123q0 -52 16.5 -80.5t47.5 -28.5zM566 451q-43 0 -81.5 -47.5t-56.5 -120.5h21q47 0 84 15.5t57 41.5t20 57 q0 26 -11.5 40t-32.5 14z" />
<glyph unicode="&#x15e;" horiz-adv-x="443" d="M20 123q61 -35 121 -35t95.5 31.5t35.5 84.5q0 34 -15 57t-58 56l-19 15q-45 36 -66 77t-21 93q0 93 61.5 151t160.5 58q42 0 82.5 -11.5t71.5 -31.5l-42 -86q-54 30 -107 30q-52 0 -84 -28t-32 -72q0 -34 15 -57t58 -56l19 -15q45 -36 66 -77t21 -93 q0 -104 -63.5 -164.5t-172.5 -60.5q-101 0 -169 48zM40 -156q32 -19 64 -19q27 0 41.5 11t14.5 31q0 19 -13 27.5t-42 8.5h-30l55 99h68l-33 -57q68 -15 68 -78q0 -48 -34 -76.5t-92 -28.5q-52 0 -92 26z" />
<glyph unicode="&#x15f;" horiz-adv-x="386" d="M18 108q62 -33 113 -33q43 0 68.5 20t25.5 54q0 21 -12.5 38t-41.5 35l-16 10q-48 30 -69.5 64t-21.5 79q0 72 50.5 116t132.5 44q66 0 129 -35l-39 -76q-39 25 -88 25q-38 0 -62 -18.5t-24 -49.5q0 -21 12.5 -38t41.5 -35l16 -10q48 -30 69.5 -64t21.5 -79 q0 -76 -51 -121t-139 -45q-42 0 -83 11.5t-72 31.5zM22 -158q32 -19 64 -19q27 0 42 11.5t15 32.5q0 37 -56 37h-29l55 98h66l-33 -58q68 -14 68 -77q0 -48 -34 -76.5t-91 -28.5q-49 0 -92 26z" />
<glyph unicode="&#x160;" horiz-adv-x="443" d="M20 123q61 -35 121 -35t95.5 31.5t35.5 84.5q0 34 -15 57t-58 56l-19 15q-45 36 -66 77t-21 93q0 93 61.5 151t160.5 58q42 0 82.5 -11.5t71.5 -31.5l-42 -86q-54 30 -107 30q-52 0 -84 -28t-32 -72q0 -34 15 -57t58 -56l19 -15q45 -36 66 -77t21 -93 q0 -104 -63.5 -164.5t-172.5 -60.5q-101 0 -169 48zM385 765h-109l-78 125h89l51 -65l76 65h103z" />
<glyph unicode="&#x161;" horiz-adv-x="386" d="M18 108q62 -33 113 -33q43 0 68.5 20t25.5 54q0 21 -12.5 38t-41.5 35l-16 10q-48 30 -69.5 64t-21.5 79q0 72 50.5 116t132.5 44q66 0 129 -35l-39 -76q-39 25 -88 25q-38 0 -62 -18.5t-24 -49.5q0 -21 12.5 -38t41.5 -35l16 -10q48 -30 69.5 -64t21.5 -79 q0 -76 -51 -121t-139 -45q-42 0 -83 11.5t-72 31.5zM215 606l-66 150h80l45 -83l86 83h87l-131 -150h-101z" />
<glyph unicode="&#x162;" horiz-adv-x="493" d="M138 0l128 602h-162l21 98h426l-21 -98h-155l-128 -602h-109zM67 -156q32 -19 64 -19q27 0 41.5 11t14.5 31q0 19 -13 27.5t-42 8.5h-30l55 99h68l-33 -57q68 -15 68 -78q0 -48 -34 -76.5t-92 -28.5q-52 0 -92 26z" />
<glyph unicode="&#x163;" horiz-adv-x="345" d="M293 20q-50 -31 -117 -31q-57 0 -87.5 30.5t-30.5 87.5q0 31 10 75l56 261h-68l17 81h72l48 143h80l-31 -143h123l-17 -81h-123l-56 -265q-7 -31 -7 -52q0 -47 48 -47q34 0 67 19zM31 -158q32 -19 64 -19q27 0 42 11.5t15 32.5q0 37 -56 37h-29l55 98h66l-33 -58 q68 -14 68 -77q0 -48 -34 -76.5t-91 -28.5q-49 0 -92 26z" />
<glyph unicode="&#x174;" horiz-adv-x="706" d="M391 0l1 450l-184 -450h-112l20 700h108l-30 -525l191 465h90v-462l184 522h108l-264 -700h-112zM516 765l-51 65l-76 -65h-103l132 125h109l78 -125h-89z" />
<glyph unicode="&#x175;" horiz-adv-x="645" d="M349 0l-5 375l-156 -375h-94l-15 524h99l-5 -379l150 360h94l4 -361l153 380h104l-236 -524h-93zM454 606l-46 83l-85 -83h-87l131 150h101l66 -150h-80z" />
<glyph unicode="&#x176;" horiz-adv-x="482" d="M132 0l56 264l-74 436h109l36 -334l182 334h113l-257 -435l-56 -265h-109zM408 765l-51 65l-76 -65h-103l132 125h109l78 -125h-89z" />
<glyph unicode="&#x177;" horiz-adv-x="438" d="M74 524h105l12 -389l178 389h107l-284 -563q-54 -106 -96.5 -146.5t-99.5 -40.5q-44 0 -75 22l30 76q24 -9 42 -9q30 0 56 31t67 113zM352 606l-46 83l-85 -83h-87l131 150h101l66 -150h-80z" />
<glyph unicode="&#x178;" horiz-adv-x="482" d="M132 0l56 264l-74 436h109l36 -334l182 334h113l-257 -435l-56 -265h-109zM319 841q0 -29 -21 -48t-51 -19q-24 0 -39 14t-15 37q0 29 21 48t51 19q24 0 39 -14t15 -37zM511 841q0 -29 -21 -48t-51 -19q-24 0 -39 14t-15 37q0 29 21 48t51 19q24 0 39 -14t15 -37z" />
<glyph unicode="&#x17d;" horiz-adv-x="440" d="M-33 0l18 92l365 510h-246l19 98h370l-18 -92l-365 -510h271l-19 -98h-395zM366 765h-109l-78 125h89l51 -65l76 65h103z" />
<glyph unicode="&#x17e;" horiz-adv-x="384" d="M-24 0l16 75l281 368h-196l17 81h313l-16 -75l-281 -368h210l-17 -81h-327zM209 606l-66 150h80l45 -83l86 83h87l-131 -150h-101z" />
<glyph unicode="&#x218;" horiz-adv-x="443" d="M20 123q61 -35 121 -35t95.5 31.5t35.5 84.5q0 34 -15 57t-58 56l-19 15q-45 36 -66 77t-21 93q0 93 61.5 151t160.5 58q42 0 82.5 -11.5t71.5 -31.5l-42 -86q-54 30 -107 30q-52 0 -84 -28t-32 -72q0 -34 15 -57t58 -56l19 -15q45 -36 66 -77t21 -93 q0 -104 -63.5 -164.5t-172.5 -60.5q-101 0 -169 48zM56 -237q47 36 65 75q-16 4 -25 15.5t-9 26.5q0 26 18.5 43t46.5 17q22 0 35.5 -14t13.5 -36q0 -43 -30 -85.5t-87 -79.5z" />
<glyph unicode="&#x219;" horiz-adv-x="386" d="M18 108q62 -33 113 -33q43 0 68.5 20t25.5 54q0 21 -12.5 38t-41.5 35l-16 10q-48 30 -69.5 64t-21.5 79q0 72 50.5 116t132.5 44q66 0 129 -35l-39 -76q-39 25 -88 25q-38 0 -62 -18.5t-24 -49.5q0 -21 12.5 -38t41.5 -35l16 -10q48 -30 69.5 -64t21.5 -79 q0 -76 -51 -121t-139 -45q-42 0 -83 11.5t-72 31.5zM39 -237q24 18 39.5 36t25.5 39q-16 3 -25 14.5t-9 27.5q0 26 18 43t45 17q22 0 35 -13.5t13 -36.5q0 -42 -30.5 -85t-84.5 -78z" />
<glyph unicode="&#x21a;" horiz-adv-x="493" d="M138 0l128 602h-162l21 98h426l-21 -98h-155l-128 -602h-109zM88 -237q47 36 65 75q-16 4 -25 15.5t-9 26.5q0 26 18.5 43t46.5 17q22 0 35.5 -14t13.5 -36q0 -43 -30 -85.5t-87 -79.5z" />
<glyph unicode="&#x21b;" horiz-adv-x="345" d="M293 20q-50 -31 -117 -31q-57 0 -87.5 30.5t-30.5 87.5q0 31 10 75l56 261h-68l17 81h72l48 143h80l-31 -143h123l-17 -81h-123l-56 -265q-7 -31 -7 -52q0 -47 48 -47q34 0 67 19zM48 -237q24 18 39.5 36t25.5 39q-16 3 -25 14.5t-9 27.5q0 26 18 43t45 17q22 0 35 -13.5 t13 -36.5q0 -42 -30.5 -85t-84.5 -78z" />
<glyph unicode="&#x237;" horiz-adv-x="224" d="M-111 -129q20 -7 35 -7q28 0 44 18.5t25 60.5l124 581h102l-125 -584q-19 -88 -56 -127t-102 -39q-45 0 -76 20z" />
<glyph unicode="&#x2c6;" horiz-adv-x="484" d="M371 606l-46 83l-85 -83h-87l131 150h101l66 -150h-80z" />
<glyph unicode="&#x2c7;" horiz-adv-x="484" d="M254 606l-66 150h80l45 -83l86 83h87l-131 -150h-101z" />
<glyph unicode="&#x2cb;" horiz-adv-x="484" d="M307 606l-92 150h112l66 -150h-86z" />
<glyph unicode="&#x2d8;" horiz-adv-x="484" d="M464 740q-11 -65 -51.5 -101t-102.5 -36q-55 0 -87.5 30.5t-32.5 82.5q0 13 1 24h76v-6q0 -29 13 -45t36 -16q25 0 43 17.5t26 49.5h79z" />
<glyph unicode="&#x2da;" horiz-adv-x="484" d="M439 708q0 -53 -37.5 -89t-92.5 -36q-44 0 -71 26.5t-27 70.5q0 53 37.5 89t92.5 36q44 0 71 -26.5t27 -70.5zM376 701q0 20 -12.5 33t-31.5 13q-24 0 -41 -17.5t-17 -42.5q0 -20 12.5 -33t31.5 -13q24 0 41 17.5t17 42.5z" />
<glyph unicode="&#x2dc;" horiz-adv-x="484" d="M499 745q-24 -127 -112 -127q-18 0 -32 6.5t-39 27.5q-18 15 -24.5 18.5t-13.5 3.5q-14 0 -22.5 -13t-13.5 -40h-79q24 127 112 127q18 0 32 -6.5t39 -27.5q18 -15 24.5 -18.5t13.5 -3.5q14 0 22.5 13t13.5 40h79z" />
<glyph unicode="&#x300;" horiz-adv-x="0" d="M-25 606l-92 150h112l66 -150h-86z" />
<glyph unicode="&#x301;" horiz-adv-x="0" d="M54 606h-97l131 150h128z" />
<glyph unicode="&#x302;" horiz-adv-x="0" d="M81 606l-46 83l-85 -83h-87l131 150h101l66 -150h-80z" />
<glyph unicode="&#x303;" horiz-adv-x="0" d="M196 745q-24 -127 -112 -127q-18 0 -32 6.5t-39 27.5q-18 15 -24.5 18.5t-13.5 3.5q-14 0 -22.5 -13t-13.5 -40h-79q24 127 112 127q18 0 32 -6.5t39 -27.5q18 -15 24.5 -18.5t13.5 -3.5q14 0 22.5 13t13.5 40h79z" />
<glyph unicode="&#x306;" horiz-adv-x="0" d="M163 740q-11 -65 -51.5 -101t-102.5 -36q-55 0 -87.5 30.5t-32.5 82.5q0 13 1 24h76v-6q0 -29 13 -45t36 -16q25 0 43 17.5t26 49.5h79z" />
<glyph unicode="&#x308;" horiz-adv-x="0" d="M-2 688q0 -27 -19.5 -45t-48.5 -18q-23 0 -37 13.5t-14 35.5q0 27 19.5 45t48.5 18q23 0 37 -13.5t14 -35.5zM177 688q0 -27 -19.5 -45t-48.5 -18q-23 0 -37 13.5t-14 35.5q0 27 19.5 45t48.5 18q23 0 37 -13.5t14 -35.5z" />
<glyph unicode="&#x30a;" horiz-adv-x="0" d="M145 708q0 -53 -37.5 -89t-92.5 -36q-44 0 -71 26.5t-27 70.5q0 53 37.5 89t92.5 36q44 0 71 -26.5t27 -70.5zM82 701q0 20 -12.5 33t-31.5 13q-24 0 -41 -17.5t-17 -42.5q0 -20 12.5 -33t31.5 -13q24 0 41 17.5t17 42.5z" />
<glyph unicode="&#x30c;" horiz-adv-x="0" d="M-38 606l-66 150h80l45 -83l86 83h87l-131 -150h-101z" />
<glyph unicode="&#x326;" horiz-adv-x="0" d="M-103 -237q24 18 39.5 36t25.5 39q-16 3 -25 14.5t-9 27.5q0 26 18 43t45 17q22 0 35 -13.5t13 -36.5q0 -42 -30.5 -85t-84.5 -78z" />
<glyph unicode="&#x327;" horiz-adv-x="0" d="M-123 -158q32 -19 64 -19q27 0 42 11.5t15 32.5q0 37 -56 37h-29l55 98h66l-33 -58q68 -14 68 -77q0 -48 -34 -76.5t-91 -28.5q-49 0 -92 26z" />
<glyph unicode="&#x1e80;" horiz-adv-x="706" d="M391 0l1 450l-184 -450h-112l20 700h108l-30 -525l191 465h90v-462l184 522h108l-264 -700h-112zM406 765l-111 125h125l78 -125h-92z" />
<glyph unicode="&#x1e81;" horiz-adv-x="645" d="M349 0l-5 375l-156 -375h-94l-15 524h99l-5 -379l150 360h94l4 -361l153 380h104l-236 -524h-93zM348 606l-92 150h112l66 -150h-86z" />
<glyph unicode="&#x1e82;" horiz-adv-x="706" d="M391 0l1 450l-184 -450h-112l20 700h108l-30 -525l191 465h90v-462l184 522h108l-264 -700h-112zM491 765h-104l132 125h136z" />
<glyph unicode="&#x1e83;" horiz-adv-x="645" d="M349 0l-5 375l-156 -375h-94l-15 524h99l-5 -379l150 360h94l4 -361l153 380h104l-236 -524h-93zM427 606h-97l131 150h128z" />
<glyph unicode="&#x1e84;" horiz-adv-x="706" d="M391 0l1 450l-184 -450h-112l20 700h108l-30 -525l191 465h90v-462l184 522h108l-264 -700h-112zM427 841q0 -29 -21 -48t-51 -19q-24 0 -39 14t-15 37q0 29 21 48t51 19q24 0 39 -14t15 -37zM619 841q0 -29 -21 -48t-51 -19q-24 0 -39 14t-15 37q0 29 21 48t51 19 q24 0 39 -14t15 -37z" />
<glyph unicode="&#x1e85;" horiz-adv-x="645" d="M349 0l-5 375l-156 -375h-94l-15 524h99l-5 -379l150 360h94l4 -361l153 380h104l-236 -524h-93zM371 688q0 -27 -19.5 -45t-48.5 -18q-23 0 -37 13.5t-14 35.5q0 27 19.5 45t48.5 18q23 0 37 -13.5t14 -35.5zM550 688q0 -27 -19.5 -45t-48.5 -18q-23 0 -37 13.5 t-14 35.5q0 27 19.5 45t48.5 18q23 0 37 -13.5t14 -35.5z" />
<glyph unicode="&#x1e9e;" horiz-adv-x="552" d="M202 103q31 -19 72 -19q56 0 90.5 36t34.5 94q0 51 -25.5 79.5t-69.5 28.5q-12 0 -26 -2l17 79l159 185q-43 26 -94 26q-65 0 -102.5 -40.5t-57.5 -132.5l-93 -437h-104l95 447q30 140 90.5 202t168.5 62q52 0 104 -18.5t96 -52.5l-18 -84l-147 -171q55 -20 84.5 -65 t29.5 -108q0 -102 -61 -162.5t-163 -60.5q-63 0 -117 30z" />
<glyph unicode="&#x1ef2;" horiz-adv-x="482" d="M132 0l56 264l-74 436h109l36 -334l182 334h113l-257 -435l-56 -265h-109zM298 765l-111 125h125l78 -125h-92z" />
<glyph unicode="&#x1ef3;" horiz-adv-x="438" d="M74 524h105l12 -389l178 389h107l-284 -563q-54 -106 -96.5 -146.5t-99.5 -40.5q-44 0 -75 22l30 76q24 -9 42 -9q30 0 56 31t67 113zM246 606l-92 150h112l66 -150h-86z" />
<glyph unicode="&#x2000;" horiz-adv-x="370" />
<glyph unicode="&#x2001;" horiz-adv-x="740" />
<glyph unicode="&#x2002;" horiz-adv-x="370" />
<glyph unicode="&#x2003;" horiz-adv-x="740" />
<glyph unicode="&#x2004;" horiz-adv-x="247" />
<glyph unicode="&#x2005;" horiz-adv-x="185" />
<glyph unicode="&#x2006;" horiz-adv-x="123" />
<glyph unicode="&#x2007;" horiz-adv-x="490" />
<glyph unicode="&#x2008;" horiz-adv-x="212" />
<glyph unicode="&#x2009;" horiz-adv-x="148" />
<glyph unicode="&#x200a;" horiz-adv-x="55" />
<glyph unicode="&#x200b;" horiz-adv-x="0" />
<glyph unicode="&#x2013;" horiz-adv-x="370" d="M-5 237l16 80h370l-16 -80h-370z" />
<glyph unicode="&#x2014;" horiz-adv-x="740" d="M-5 237l16 80h740l-16 -80h-740z" />
<glyph unicode="&#x2018;" horiz-adv-x="181" d="M262 683q-35 -24 -57 -47.5t-35 -50.5q18 -4 28 -16.5t10 -31.5q0 -28 -20.5 -47t-50.5 -19q-24 0 -39 16t-15 42q0 47 42 99.5t112 92.5z" />
<glyph unicode="&#x2019;" horiz-adv-x="181" d="M58 499q68 46 92 98q-18 3 -28 16t-10 32q0 28 20.5 47t50.5 19q24 0 39 -16t15 -42q0 -47 -42 -99.5t-112 -92.5z" />
<glyph unicode="&#x201a;" horiz-adv-x="181" d="M-69 -103q68 46 92 98q-18 3 -28 16t-10 32q0 28 20.5 47t50.5 19q24 0 39 -16t15 -42q0 -47 -42 -99.5t-112 -92.5z" />
<glyph unicode="&#x201c;" horiz-adv-x="344" d="M262 683q-35 -24 -57 -47.5t-35 -50.5q18 -4 28 -16.5t10 -31.5q0 -28 -20.5 -47t-50.5 -19q-24 0 -39 16t-15 42q0 47 42 99.5t112 92.5zM425 683q-35 -24 -57 -47.5t-35 -50.5q18 -4 28 -16.5t10 -31.5q0 -28 -20.5 -47t-50.5 -19q-24 0 -39 16t-15 42q0 47 42 99.5 t112 92.5z" />
<glyph unicode="&#x201d;" horiz-adv-x="344" d="M58 499q68 46 92 98q-18 3 -28 16t-10 32q0 28 20.5 47t50.5 19q24 0 39 -16t15 -42q0 -47 -42 -99.5t-112 -92.5zM221 499q68 46 92 98q-18 3 -28 16t-10 32q0 28 20.5 47t50.5 19q24 0 39 -16t15 -42q0 -47 -42 -99.5t-112 -92.5z" />
<glyph unicode="&#x201e;" horiz-adv-x="344" d="M-69 -103q68 46 92 98q-18 3 -28 16t-10 32q0 28 20.5 47t50.5 19q24 0 39 -16t15 -42q0 -47 -42 -99.5t-112 -92.5zM94 -103q68 46 92 98q-18 3 -28 16t-10 32q0 28 20.5 47t50.5 19q24 0 39 -16t15 -42q0 -47 -42 -99.5t-112 -92.5z" />
<glyph unicode="&#x2020;" horiz-adv-x="412" d="M74 -116l115 537h-113l18 87h113l48 222h100l-48 -222h119l-18 -87h-119l-115 -537h-100z" />
<glyph unicode="&#x2021;" horiz-adv-x="412" d="M74 -116l48 222h-119l18 87h119l49 228h-113l18 87h113l48 222h100l-48 -222h119l-18 -87h-119l-49 -228h113l-18 -87h-113l-48 -222h-100z" />
<glyph unicode="&#x2022;" horiz-adv-x="274" d="M252 303q0 -50 -37.5 -85t-91.5 -35q-40 0 -65.5 25t-25.5 65q0 50 37.5 85t91.5 35q40 0 65.5 -25t25.5 -65z" />
<glyph unicode="&#x2026;" horiz-adv-x="740" d="M145 60q0 -30 -22 -50.5t-54 -20.5q-25 0 -41 15.5t-16 39.5q0 30 22 50.5t54 20.5q25 0 41 -15.5t16 -39.5zM391 60q0 -30 -22 -50.5t-54 -20.5q-25 0 -41 15.5t-16 39.5q0 30 22 50.5t54 20.5q25 0 41 -15.5t16 -39.5zM637 60q0 -30 -22 -50.5t-54 -20.5 q-25 0 -41 15.5t-16 39.5q0 30 22 50.5t54 20.5q25 0 41 -15.5t16 -39.5z" />
<glyph unicode="&#x2032;" horiz-adv-x="201" d="M69 462l91 238h111l-118 -238h-84z" />
<glyph unicode="&#x2033;" horiz-adv-x="375" d="M69 462l91 238h111l-118 -238h-84zM243 462l91 238h111l-118 -238h-84z" />
<glyph unicode="&#x2039;" horiz-adv-x="245" d="M95 96l-76 184l155 184h99l-162 -193l73 -175h-89z" />
<glyph unicode="&#x203a;" horiz-adv-x="245" d="M-19 96l162 193l-73 175h89l76 -184l-155 -184h-99z" />
<glyph unicode="&#x2044;" horiz-adv-x="93" d="M-215 0l470 690h89l-470 -690h-89z" />
<glyph unicode="&#x2070;" d="M227 481q19 0 34 17t30 57q11 29 18 65t7 67q0 34 -8 48t-27 14t-34 -17t-30 -57q-11 -29 -18 -65t-7 -67q0 -34 8 -48t27 -14zM366 522q-53 -112 -151 -112q-53 0 -80.5 35.5t-27.5 104.5q0 85 35 158q53 112 151 112q53 0 80.5 -35.5t27.5 -104.5q0 -85 -35 -158z" />
<glyph unicode="&#x2074;" d="M234 420l15 73h-171l14 66l224 251h79l-54 -251h39l-14 -66h-39l-15 -73h-78zM263 559l30 139l-124 -139h94z" />
<glyph unicode="&#x2075;" d="M254 738l-21 -78h8q54 0 86.5 -31.5t32.5 -83.5q0 -61 -42 -98t-111 -37q-66 0 -113 33l26 62q40 -26 81 -26q36 0 56 17t20 48q0 26 -16.5 40t-48.5 14q-11 0 -28 -0.5t-40 -1.5l58 214h194l-16 -72h-126z" />
<glyph unicode="&#x2076;" d="M366 736q-29 17 -61 17q-71 0 -99 -88q23 3 42 3q63 0 99 -32.5t36 -90.5q0 -61 -39.5 -98t-105.5 -37q-57 0 -92 40t-35 106q0 80 25 140t68.5 92t99.5 32q23 0 48 -7t41 -18zM230 608q-16 0 -36 -3q-2 -32 -2 -51q0 -75 51 -75q28 0 44.5 17.5t16.5 48.5q0 63 -74 63z " />
<glyph unicode="&#x2077;" d="M145 420l2 10q13 63 43 121.5t97 153.5l23 33h-148l16 72h235l-15 -67l-43 -60q-60 -84 -88.5 -139.5t-40.5 -113.5l-2 -10h-79z" />
<glyph unicode="&#x2078;" d="M393 724q0 -33 -18.5 -59.5t-51.5 -41.5q29 -17 42 -38.5t13 -49.5q0 -56 -43 -90.5t-114 -34.5q-58 0 -92 27t-34 73q0 37 24 67.5t65 45.5q-42 30 -42 81t39.5 83.5t101.5 32.5q50 0 80 -26t30 -70zM239 595q-30 -10 -47.5 -31t-17.5 -47q0 -23 14 -35.5t40 -12.5 q31 0 49.5 17t18.5 45q0 21 -10 36t-29 22zM223 708q0 -21 10.5 -36.5t30.5 -22.5l8 -3q20 10 31.5 29t11.5 42q0 21 -11 32.5t-31 11.5q-22 0 -36 -15t-14 -38z" />
<glyph unicode="&#x2079;" d="M203 477q71 0 99 88q-22 -3 -42 -3q-63 0 -99 32.5t-36 90.5q0 61 39.5 98t105.5 37q57 0 92 -40t35 -106q0 -80 -25 -140t-68.5 -92t-99.5 -32q-25 0 -51 7.5t-43 20.5l27 59q15 -9 33 -14.5t33 -5.5zM278 622q11 0 35 2q3 24 3 52q0 75 -51 75q-28 0 -44.5 -17.5 t-16.5 -48.5q0 -63 74 -63z" />
<glyph unicode="&#x2080;" d="M112 -59q19 0 34 17t30 57q11 29 18 65t7 67q0 34 -8 48t-27 14t-34 -17t-30 -57q-11 -29 -18 -65t-7 -67q0 -34 8 -48t27 -14zM251 -18q-53 -112 -151 -112q-53 0 -80.5 35.5t-27.5 104.5q0 85 35 158q53 112 151 112q53 0 80.5 -35.5t27.5 -104.5q0 -85 -35 -158z" />
<glyph unicode="&#x2081;" d="M89 -120l59 276l-72 -54l-38 61l146 107h72l-83 -390h-84z" />
<glyph unicode="&#x2082;" d="M-6 -120l6 29q11 50 23.5 80t33.5 53t58 46q54 34 69.5 50t15.5 35q0 17 -13.5 27t-36.5 10q-33 0 -67 -21l-22 62q53 29 106 29t84.5 -26.5t31.5 -71.5q0 -39 -22 -67.5t-84 -68.5q-41 -27 -58 -46t-26 -48h145l-15 -72h-229z" />
<glyph unicode="&#x2083;" d="M5 -35q39 -26 81 -26q37 0 56.5 15t19.5 44q0 51 -69 51h-39l14 64h35q37 0 57 14.5t20 41.5q0 42 -57 42q-31 0 -68 -17l-19 61q53 25 106 25q54 0 87.5 -26.5t33.5 -68.5q0 -34 -21.5 -62.5t-59.5 -43.5q31 -13 47 -36t16 -53q0 -53 -43 -86.5t-111 -33.5 q-31 0 -60.5 8.5t-51.5 24.5z" />
<glyph unicode="&#x2084;" d="M119 -120l15 73h-171l14 66l224 251h79l-54 -251h39l-14 -66h-39l-15 -73h-78zM148 19l30 139l-124 -139h94z" />
<glyph unicode="&#x2085;" d="M139 198l-21 -78h8q54 0 86.5 -31.5t32.5 -83.5q0 -61 -42 -98t-111 -37q-66 0 -113 33l26 62q40 -26 81 -26q36 0 56 17t20 48q0 26 -16.5 40t-48.5 14q-11 0 -28 -0.5t-40 -1.5l58 214h194l-16 -72h-126z" />
<glyph unicode="&#x2086;" d="M251 196q-29 17 -61 17q-71 0 -99 -88q23 3 42 3q63 0 99 -32.5t36 -90.5q0 -61 -39.5 -98t-105.5 -37q-57 0 -92 40t-35 106q0 80 25 140t68.5 92t99.5 32q23 0 48 -7t41 -18zM115 68q-16 0 -36 -3q-2 -32 -2 -51q0 -75 51 -75q28 0 44.5 17.5t16.5 48.5q0 63 -74 63z " />
<glyph unicode="&#x2087;" d="M30 -120l2 10q13 63 43 121.5t97 153.5l23 33h-148l16 72h235l-15 -67l-43 -60q-60 -84 -88.5 -139.5t-40.5 -113.5l-2 -10h-79z" />
<glyph unicode="&#x2088;" d="M278 184q0 -33 -18.5 -59.5t-51.5 -41.5q29 -17 42 -38.5t13 -49.5q0 -56 -43 -90.5t-114 -34.5q-58 0 -92 27t-34 73q0 37 24 67.5t65 45.5q-42 30 -42 81t39.5 83.5t101.5 32.5q50 0 80 -26t30 -70zM124 55q-30 -10 -47.5 -31t-17.5 -47q0 -23 14 -35.5t40 -12.5 q31 0 49.5 17t18.5 45q0 21 -10 36t-29 22zM108 168q0 -21 10.5 -36.5t30.5 -22.5l8 -3q20 10 31.5 29t11.5 42q0 21 -11 32.5t-31 11.5q-22 0 -36 -15t-14 -38z" />
<glyph unicode="&#x2089;" d="M88 -63q71 0 99 88q-22 -3 -42 -3q-63 0 -99 32.5t-36 90.5q0 61 39.5 98t105.5 37q57 0 92 -40t35 -106q0 -80 -25 -140t-68.5 -92t-99.5 -32q-25 0 -51 7.5t-43 20.5l27 59q15 -9 33 -14.5t33 -5.5zM163 82q11 0 35 2q3 24 3 52q0 75 -51 75q-28 0 -44.5 -17.5 t-16.5 -48.5q0 -63 74 -63z" />
<glyph unicode="&#x20ac;" horiz-adv-x="490" d="M186 229q1 -70 30 -109.5t81 -39.5t104 29l20 -78q-63 -42 -149 -42q-88 0 -139 65t-51 175h-68l28 80h44q3 33 11 71h-52l28 80h46q42 113 118.5 176.5t173.5 63.5q29 0 60 -9.5t54 -25.5l-36 -78q-39 22 -86 22q-56 0 -102.5 -39t-75.5 -110h171l-28 -80h-168 q-6 -25 -11 -71h176l-28 -80h-151z" />
<glyph unicode="&#x20ba;" horiz-adv-x="490" d="M208 265l-37 -176h35q64 0 103 48.5t59 152.5h101q-22 -151 -89.5 -220.5t-192.5 -69.5h-138l44 207l-70 -35l18 89l71 35l17 80l-72 -36l18 89l73 36l47 225h103l-35 -167l105 53l-18 -89l-106 -54l-17 -79l107 54l-18 -89z" />
<glyph unicode="&#x20bd;" horiz-adv-x="490" d="M51 0l23 111h-72l16 80h73l17 80h-72l18 85h72l72 334h142q81 0 127 -46t46 -129q0 -74 -31 -129.5t-85.5 -85t-124.5 -29.5h-61l-17 -80h148l-16 -80h-149l-23 -111h-103zM229 356h21q78 0 118 40.5t40 118.5q0 40 -21 65t-54 25h-50z" />
<glyph unicode="&#x2122;" horiz-adv-x="669" d="M628 316v238l-66 -180h-54l-67 178v-236h-72v384h82l84 -228l84 228h82v-384h-73zM152 316v311h-92v73h262v-73h-92v-311h-78z" />
<glyph unicode="&#x2212;" horiz-adv-x="490" d="M64 303l17 84h379l-17 -84h-379z" />
<glyph unicode="&#x25fc;" horiz-adv-x="525" d="M0 525h525v-525h-525v525z" />
<glyph unicode="&#xfeff;" horiz-adv-x="0" />
<glyph horiz-adv-x="490" d="M212 78q66 0 120 187q38 131 38 220q0 67 -14 96.5t-45 29.5q-66 0 -120 -187q-38 -131 -38 -220q0 -67 14 -96.5t45 -29.5zM195 -11q-71 0 -110 53.5t-39 151.5q0 103 31 220q38 145 100 215.5t151 70.5q71 0 110 -53.5t39 -151.5q0 -103 -31 -220q-38 -145 -100 -215.5 t-151 -70.5z" />
<glyph horiz-adv-x="490" d="M43 0l19 89h123l98 464l-122 -89l-48 76l207 150h97l-127 -601h115l-19 -89h-343z" />
<glyph horiz-adv-x="490" d="M23 0l12 55q19 82 41 134.5t57 93t96 82.5l15 10q66 43 93.5 77t27.5 72q0 42 -23.5 65.5t-65.5 23.5q-55 0 -105 -36l-29 76q34 22 76 34.5t82 12.5q78 0 124 -43.5t46 -117.5q0 -67 -41 -123t-140 -122l-15 -10q-35 -23 -58 -48t-39.5 -60.5t-29.5 -86.5h235l-19 -89 h-340z" />
<glyph horiz-adv-x="490" d="M54 111q56 -35 111 -35q59 0 96.5 37.5t37.5 96.5q0 50 -28.5 78t-79.5 28h-44l18 82h52q58 0 94 34t36 89q0 44 -24 68t-66 24q-53 0 -104 -31l-29 76q36 20 76.5 31t78.5 11q80 0 126.5 -43t46.5 -116q0 -66 -37 -116t-101 -72q44 -20 67 -58.5t23 -92.5 q0 -65 -29.5 -113.5t-82 -74t-120.5 -25.5q-91 0 -153 45z" />
<glyph horiz-adv-x="490" d="M241 0l33 156h-265l18 86l355 448h104l-97 -452h59l-17 -82h-59l-33 -156h-98zM291 238l62 289l-229 -289h167z" />
<glyph horiz-adv-x="490" d="M66 111q55 -35 111 -35q61 0 97.5 41t36.5 109q0 53 -31.5 84t-86.5 31q-15 0 -34 -0.5t-44 -1.5l90 351h260l-19 -89h-174l-46 -182h21q78 0 123.5 -52t45.5 -141q0 -110 -62.5 -173.5t-169.5 -63.5q-91 0 -153 45z" />
<glyph horiz-adv-x="490" d="M456 589q-43 24 -88 24q-54 0 -100 -51t-74 -140q36 6 68 6q183 0 183 -188q0 -116 -58 -183.5t-158 -67.5q-82 0 -124.5 54t-42.5 158q0 142 42 257t110.5 178.5t148.5 63.5q69 0 128 -34zM244 350q-27 0 -69 -5q-12 -66 -12 -142q0 -64 19 -95.5t58 -31.5q48 0 76 42 t28 113q0 60 -24.5 89.5t-75.5 29.5z" />
<glyph horiz-adv-x="490" d="M92 0l11 54q24 117 60.5 204t108.5 198l94 145h-230l19 89h340l-18 -83l-98 -156q-80 -127 -114 -206t-57 -191l-11 -54h-105z" />
<glyph horiz-adv-x="490" d="M484 546q0 -57 -34 -107.5t-91 -79.5q70 -53 70 -145q0 -67 -30 -118t-80.5 -79t-113.5 -28q-79 0 -125 45t-46 121q0 72 40.5 129.5t105.5 80.5q-30 25 -46 59.5t-16 75.5q0 58 28.5 104t76 71t105.5 25q69 0 112.5 -42.5t43.5 -111.5zM248 328q-50 -15 -82.5 -60.5 t-32.5 -101.5q0 -46 21.5 -72t60.5 -26q48 0 80 40.5t32 102.5q0 82 -67 112zM219 501q0 -74 64 -102l9 -5q42 22 68 60.5t26 79.5t-18.5 64t-52.5 23q-42 0 -69 -34.5t-27 -85.5z" />
<glyph horiz-adv-x="490" d="M152 76q59 0 105.5 50.5t72.5 142.5q-37 -6 -72 -6q-183 0 -183 186q0 116 58 183.5t158 67.5q82 0 124.5 -54t42.5 -158q0 -150 -39.5 -263.5t-108 -174.5t-156.5 -61q-70 0 -132 38l35 77q21 -13 47 -20.5t48 -7.5zM276 341q35 0 71 4q10 72 10 141q0 64 -19 95.5 t-58 31.5q-48 0 -76 -42t-28 -113q0 -60 24.5 -88.5t75.5 -28.5z" />
<glyph d="M138 61q19 0 34 17t30 57q11 29 18 65t7 67q0 34 -8 48t-27 14t-34 -17t-30 -57q-11 -29 -18 -65t-7 -67q0 -34 8 -48t27 -14zM277 102q-53 -112 -151 -112q-53 0 -80.5 35.5t-27.5 104.5q0 85 35 158q53 112 151 112q53 0 80.5 -35.5t27.5 -104.5q0 -85 -35 -158z" />
<glyph d="M115 0l59 276l-72 -54l-38 61l146 107h72l-83 -390h-84z" />
<glyph d="M15 0l6 29q11 50 23.5 80t33.5 53t58 46q54 34 69.5 50t15.5 35q0 17 -13.5 27t-36.5 10q-33 0 -67 -21l-22 62q53 29 106 29t84.5 -26.5t31.5 -71.5q0 -39 -22 -67.5t-84 -68.5q-41 -27 -58 -46t-26 -48h145l-15 -72h-229z" />
<glyph d="M31 85q39 -26 81 -26q37 0 56.5 15t19.5 44q0 51 -69 51h-39l14 64h35q37 0 57 14.5t20 41.5q0 42 -57 42q-31 0 -68 -17l-19 61q53 25 106 25q54 0 87.5 -26.5t33.5 -68.5q0 -34 -21.5 -62.5t-59.5 -43.5q31 -13 47 -36t16 -53q0 -53 -43 -86.5t-111 -33.5 q-31 0 -60.5 8.5t-51.5 24.5z" />
<glyph d="M145 0l15 73h-171l14 66l224 251h79l-54 -251h39l-14 -66h-39l-15 -73h-78zM174 139l30 139l-124 -139h94z" />
<glyph d="M165 318l-21 -78h8q54 0 86.5 -31.5t32.5 -83.5q0 -61 -42 -98t-111 -37q-66 0 -113 33l26 62q40 -26 81 -26q36 0 56 17t20 48q0 26 -16.5 40t-48.5 14q-11 0 -28 -0.5t-40 -1.5l58 214h194l-16 -72h-126z" />
<glyph d="M277 316q-29 17 -61 17q-71 0 -99 -88q23 3 42 3q63 0 99 -32.5t36 -90.5q0 -61 -39.5 -98t-105.5 -37q-57 0 -92 40t-35 106q0 80 25 140t68.5 92t99.5 32q23 0 48 -7t41 -18zM141 188q-16 0 -36 -3q-2 -32 -2 -51q0 -75 51 -75q28 0 44.5 17.5t16.5 48.5q0 63 -74 63z " />
<glyph d="M56 0l2 10q13 63 43 121.5t97 153.5l23 33h-148l16 72h235l-15 -67l-43 -60q-60 -84 -88.5 -139.5t-40.5 -113.5l-2 -10h-79z" />
<glyph d="M304 304q0 -33 -18.5 -59.5t-51.5 -41.5q29 -17 42 -38.5t13 -49.5q0 -56 -43 -90.5t-114 -34.5q-58 0 -92 27t-34 73q0 37 24 67.5t65 45.5q-42 30 -42 81t39.5 83.5t101.5 32.5q50 0 80 -26t30 -70zM150 175q-30 -10 -47.5 -31t-17.5 -47q0 -23 14 -35.5t40 -12.5 q31 0 49.5 17t18.5 45q0 21 -10 36t-29 22zM134 288q0 -21 10.5 -36.5t30.5 -22.5l8 -3q20 10 31.5 29t11.5 42q0 21 -11 32.5t-31 11.5q-22 0 -36 -15t-14 -38z" />
<glyph d="M114 57q71 0 99 88q-22 -3 -42 -3q-63 0 -99 32.5t-36 90.5q0 61 39.5 98t105.5 37q57 0 92 -40t35 -106q0 -80 -25 -140t-68.5 -92t-99.5 -32q-25 0 -51 7.5t-43 20.5l27 59q15 -9 33 -14.5t33 -5.5zM189 202q11 0 35 2q3 24 3 52q0 75 -51 75q-28 0 -44.5 -17.5 t-16.5 -48.5q0 -63 74 -63z" />
<glyph d="M202 361q19 0 34 17t30 57q11 29 18 65t7 67q0 34 -8 48t-27 14t-34 -17t-30 -57q-11 -29 -18 -65t-7 -67q0 -34 8 -48t27 -14zM341 402q-53 -112 -151 -112q-53 0 -80.5 35.5t-27.5 104.5q0 85 35 158q53 112 151 112q53 0 80.5 -35.5t27.5 -104.5q0 -85 -35 -158z" />
<glyph d="M179 300l59 276l-72 -54l-38 61l146 107h72l-83 -390h-84z" />
<glyph d="M78 300l6 29q11 50 23.5 80t33.5 53t58 46q54 34 69.5 50t15.5 35q0 17 -13.5 27t-36.5 10q-33 0 -67 -21l-22 62q53 29 106 29t84.5 -26.5t31.5 -71.5q0 -39 -22 -67.5t-84 -68.5q-41 -27 -58 -46t-26 -48h145l-15 -72h-229z" />
<glyph d="M95 385q39 -26 81 -26q37 0 56.5 15t19.5 44q0 51 -69 51h-39l14 64h35q37 0 57 14.5t20 41.5q0 42 -57 42q-31 0 -68 -17l-19 61q53 25 106 25q54 0 87.5 -26.5t33.5 -68.5q0 -34 -21.5 -62.5t-59.5 -43.5q31 -13 47 -36t16 -53q0 -53 -43 -86.5t-111 -33.5 q-31 0 -60.5 8.5t-51.5 24.5z" />
<glyph d="M209 300l15 73h-171l14 66l224 251h79l-54 -251h39l-14 -66h-39l-15 -73h-78zM238 439l30 139l-124 -139h94z" />
<glyph d="M229 618l-21 -78h8q54 0 86.5 -31.5t32.5 -83.5q0 -61 -42 -98t-111 -37q-66 0 -113 33l26 62q40 -26 81 -26q36 0 56 17t20 48q0 26 -16.5 40t-48.5 14q-11 0 -28 -0.5t-40 -1.5l58 214h194l-16 -72h-126z" />
<glyph d="M342 616q-29 17 -61 17q-71 0 -99 -88q23 3 42 3q63 0 99 -32.5t36 -90.5q0 -61 -39.5 -98t-105.5 -37q-57 0 -92 40t-35 106q0 80 25 140t68.5 92t99.5 32q23 0 48 -7t41 -18zM206 488q-16 0 -36 -3q-2 -32 -2 -51q0 -75 51 -75q28 0 44.5 17.5t16.5 48.5q0 63 -74 63z " />
<glyph d="M120 300l2 10q13 63 43 121.5t97 153.5l23 33h-148l16 72h235l-15 -67l-43 -60q-60 -84 -88.5 -139.5t-40.5 -113.5l-2 -10h-79z" />
<glyph d="M368 604q0 -33 -18.5 -59.5t-51.5 -41.5q29 -17 42 -38.5t13 -49.5q0 -56 -43 -90.5t-114 -34.5q-58 0 -92 27t-34 73q0 37 24 67.5t65 45.5q-42 30 -42 81t39.5 83.5t101.5 32.5q50 0 80 -26t30 -70zM214 475q-30 -10 -47.5 -31t-17.5 -47q0 -23 14 -35.5t40 -12.5 q31 0 49.5 17t18.5 45q0 21 -10 36t-29 22zM198 588q0 -21 10.5 -36.5t30.5 -22.5l8 -3q20 10 31.5 29t11.5 42q0 21 -11 32.5t-31 11.5q-22 0 -36 -15t-14 -38z" />
<glyph d="M178 357q71 0 99 88q-22 -3 -42 -3q-63 0 -99 32.5t-36 90.5q0 61 39.5 98t105.5 37q57 0 92 -40t35 -106q0 -80 -25 -140t-68.5 -92t-99.5 -32q-25 0 -51 7.5t-43 20.5l27 59q15 -9 33 -14.5t33 -5.5zM253 502q11 0 35 2q3 24 3 52q0 75 -51 75q-28 0 -44.5 -17.5 t-16.5 -48.5q0 -63 74 -63z" />
<glyph d="M62 -191l13 63q-56 8 -96 37l25 51q40 -23 84 -29l26 122q-44 20 -65.5 48t-21.5 65q0 52 36.5 82.5t100.5 31.5l13 60h42l-14 -64q49 -8 80 -29l-25 -51q-33 18 -67 24l-25 -120q44 -20 65.5 -48t21.5 -65q0 -53 -37 -84.5t-101 -33.5l-13 -60h-42zM93 171q0 -34 36 -54 l23 107q-28 -2 -43.5 -16t-15.5 -37zM189 -17q0 32 -37 53l-22 -107q28 3 43.5 17.5t15.5 36.5z" />
<glyph d="M84 -191l14 65q-39 10 -61.5 42.5t-22.5 78.5q0 50 19 90t52.5 63.5t77.5 28.5l13 61h42l-14 -62q30 -6 53 -20l-20 -48q-19 9 -45 12l-41 -194q21 1 49 17l16 -50q-16 -10 -36.5 -16t-40.5 -8l-13 -60h-42zM79 0q0 -53 31 -68l40 184q-33 -10 -52 -41t-19 -75z" />
<glyph horiz-adv-x="510" d="M50 -120l268 390h67l-268 -390h-67zM415 -84q-30 -46 -86 -46q-39 0 -57 24t-18 73q0 24 6.5 51t17.5 43q30 46 86 46q39 0 57 -24t18 -73q0 -24 -6.5 -51t-17.5 -43zM335 -84q18 0 32 29q13 31 13 73q0 43 -22 43q-18 0 -32 -29q-13 -31 -13 -73q0 -43 22 -43zM157 89 q-30 -46 -86 -46q-39 0 -57 24t-18 73q0 24 6.5 51t17.5 43q30 46 86 46q39 0 57 -24t18 -73q0 -24 -6.5 -51t-17.5 -43zM77 89q18 0 32 29q13 31 13 73q0 43 -22 43q-18 0 -32 -29q-13 -31 -13 -73q0 -43 22 -43z" />
<glyph d="M-19 -120l37 101h-42l10 51h50l32 86h-51l10 51h60l37 101h58l-37 -101h57l37 101h58l-37 -101h42l-10 -51h-50l-32 -86h51l-10 -51h-60l-37 -101h-58l37 101h-57l-37 -101h-58zM94 32h58l32 86h-58z" />
<glyph d="M174 349l13 63q-56 8 -96 37l25 51q40 -23 84 -29l26 122q-44 20 -65.5 48t-21.5 65q0 52 36.5 82.5t100.5 31.5l13 60h42l-14 -64q49 -8 80 -29l-25 -51q-33 18 -67 24l-25 -120q44 -20 65.5 -48t21.5 -65q0 -53 -37 -84.5t-101 -33.5l-13 -60h-42zM205 711 q0 -34 36 -54l23 107q-28 -2 -43.5 -16t-15.5 -37zM301 523q0 32 -37 53l-22 -107q28 3 43.5 17.5t15.5 36.5z" />
<glyph d="M199 349l14 65q-39 10 -61.5 42.5t-22.5 78.5q0 50 19 90t52.5 63.5t77.5 28.5l13 61h42l-14 -62q30 -6 53 -20l-20 -48q-19 9 -45 12l-41 -194q21 1 49 17l16 -50q-16 -10 -36.5 -16t-40.5 -8l-13 -60h-42zM194 540q0 -53 31 -68l40 184q-33 -10 -52 -41t-19 -75z" />
<glyph horiz-adv-x="510" d="M163 420l268 390h67l-268 -390h-67zM528 456q-30 -46 -86 -46q-39 0 -57 24t-18 73q0 24 6.5 51t17.5 43q30 46 86 46q39 0 57 -24t18 -73q0 -24 -6.5 -51t-17.5 -43zM448 456q18 0 32 29q13 31 13 73q0 43 -22 43q-18 0 -32 -29q-13 -31 -13 -73q0 -43 22 -43zM270 629 q-30 -46 -86 -46q-39 0 -57 24t-18 73q0 24 6.5 51t17.5 43q30 46 86 46q39 0 57 -24t18 -73q0 -24 -6.5 -51t-17.5 -43zM190 629q18 0 32 29q13 31 13 73q0 43 -22 43q-18 0 -32 -29q-13 -31 -13 -73q0 -43 22 -43z" />
<glyph d="M96 420l37 101h-42l10 51h50l32 86h-51l10 51h60l37 101h58l-37 -101h57l37 101h58l-37 -101h42l-10 -51h-50l-32 -86h51l-10 -51h-60l-37 -101h-58l37 101h-57l-37 -101h-58zM209 572h58l32 86h-58z" />
<glyph d="M85 -71l13 63q-56 8 -96 37l25 51q40 -23 84 -29l26 122q-44 20 -65.5 48t-21.5 65q0 52 36.5 82.5t100.5 31.5l13 60h42l-14 -64q49 -8 80 -29l-25 -51q-33 18 -67 24l-25 -120q44 -20 65.5 -48t21.5 -65q0 -53 -37 -84.5t-101 -33.5l-13 -60h-42zM116 291q0 -34 36 -54 l23 107q-28 -2 -43.5 -16t-15.5 -37zM212 103q0 32 -37 53l-22 -107q28 3 43.5 17.5t15.5 36.5z" />
<glyph d="M110 -71l14 65q-39 10 -61.5 42.5t-22.5 78.5q0 50 19 90t52.5 63.5t77.5 28.5l13 61h42l-14 -62q30 -6 53 -20l-20 -48q-19 9 -45 12l-41 -194q21 1 49 17l16 -50q-16 -10 -36.5 -16t-40.5 -8l-13 -60h-42zM105 120q0 -53 31 -68l40 184q-33 -10 -52 -41t-19 -75z" />
<glyph horiz-adv-x="510" d="M74 0l268 390h67l-268 -390h-67zM439 36q-30 -46 -86 -46q-39 0 -57 24t-18 73q0 24 6.5 51t17.5 43q30 46 86 46q39 0 57 -24t18 -73q0 -24 -6.5 -51t-17.5 -43zM359 36q18 0 32 29q13 31 13 73q0 43 -22 43q-18 0 -32 -29q-13 -31 -13 -73q0 -43 22 -43zM181 209 q-30 -46 -86 -46q-39 0 -57 24t-18 73q0 24 6.5 51t17.5 43q30 46 86 46q39 0 57 -24t18 -73q0 -24 -6.5 -51t-17.5 -43zM101 209q18 0 32 29q13 31 13 73q0 43 -22 43q-18 0 -32 -29q-13 -31 -13 -73q0 -43 22 -43z" />
<glyph d="M7 0l37 101h-42l10 51h50l32 86h-51l10 51h60l37 101h58l-37 -101h57l37 101h58l-37 -101h42l-10 -51h-50l-32 -86h51l-10 -51h-60l-37 -101h-58l37 101h-57l-37 -101h-58zM120 152h58l32 86h-58z" />
<glyph d="M149 229l13 63q-56 8 -96 37l25 51q40 -23 84 -29l26 122q-44 20 -65.5 48t-21.5 65q0 52 36.5 82.5t100.5 31.5l13 60h42l-14 -64q49 -8 80 -29l-25 -51q-33 18 -67 24l-25 -120q44 -20 65.5 -48t21.5 -65q0 -53 -37 -84.5t-101 -33.5l-13 -60h-42zM180 591 q0 -34 36 -54l23 107q-28 -2 -43.5 -16t-15.5 -37zM276 403q0 32 -37 53l-22 -107q28 3 43.5 17.5t15.5 36.5z" />
<glyph d="M174 229l14 65q-39 10 -61.5 42.5t-22.5 78.5q0 50 19 90t52.5 63.5t77.5 28.5l13 61h42l-14 -62q30 -6 53 -20l-20 -48q-19 9 -45 12l-41 -194q21 1 49 17l16 -50q-16 -10 -36.5 -16t-40.5 -8l-13 -60h-42zM169 420q0 -53 31 -68l40 184q-33 -10 -52 -41t-19 -75z" />
<glyph horiz-adv-x="510" d="M138 300l268 390h67l-268 -390h-67zM503 336q-30 -46 -86 -46q-39 0 -57 24t-18 73q0 24 6.5 51t17.5 43q30 46 86 46q39 0 57 -24t18 -73q0 -24 -6.5 -51t-17.5 -43zM423 336q18 0 32 29q13 31 13 73q0 43 -22 43q-18 0 -32 -29q-13 -31 -13 -73q0 -43 22 -43zM245 509 q-30 -46 -86 -46q-39 0 -57 24t-18 73q0 24 6.5 51t17.5 43q30 46 86 46q39 0 57 -24t18 -73q0 -24 -6.5 -51t-17.5 -43zM165 509q18 0 32 29q13 31 13 73q0 43 -22 43q-18 0 -32 -29q-13 -31 -13 -73q0 -43 22 -43z" />
<glyph d="M71 300l37 101h-42l10 51h50l32 86h-51l10 51h60l37 101h58l-37 -101h57l37 101h58l-37 -101h42l-10 -51h-50l-32 -86h51l-10 -51h-60l-37 -101h-58l37 101h-57l-37 -101h-58zM184 452h58l32 86h-58z" />
<glyph horiz-adv-x="198" d="M182 378q0 -28 -20 -46.5t-49 -18.5q-23 0 -37 13.5t-14 35.5q0 28 20 46.5t49 18.5q23 0 37 -13.5t14 -35.5z" />
<glyph horiz-adv-x="198" d="M186 398q0 -28 -20 -46.5t-49 -18.5q-23 0 -37 13.5t-14 35.5q0 28 20 46.5t49 18.5q23 0 37 -13.5t14 -35.5z" />
<glyph horiz-adv-x="590" d="M10 0l149 700h109l-149 -700h-109zM234 111q36 -21 75 -21q41 0 65 29.5t39 100.5l102 480h109l-103 -485q-17 -80 -43 -129.5t-64.5 -73t-95.5 -23.5q-62 0 -116 33zM262 765h-104l132 125h136zM618 765h-104l132 125h136z" />
<glyph horiz-adv-x="448" d="M5 0l112 524h102l-112 -524h-102zM113 -129q20 -7 35 -7q28 0 44 18.5t25 60.5l124 581h102l-125 -584q-19 -88 -56 -127t-102 -39q-45 0 -76 20zM218 606h-97l131 150h128zM442 606h-97l131 150h128z" />
<glyph horiz-adv-x="328" d="M8 -125l121 568h-67l17 81h67l11 50q39 186 179 186q43 0 77 -17l-31 -80q-19 8 -39 8q-33 0 -53.5 -24.5t-31.5 -77.5l-10 -45h104l-17 -81h-104l-121 -568h-102z" />
<glyph horiz-adv-x="328" d="M8 -125l121 568h-67l17 81h67l11 50q39 186 179 186q43 0 77 -17l-31 -80q-19 8 -39 8q-33 0 -53.5 -24.5t-31.5 -77.5l-10 -45h204l-17 -81h-204l-121 -568h-102z" />
<glyph horiz-adv-x="0" d="M-123 -156q32 -19 64 -19q27 0 41.5 11t14.5 31q0 19 -13 27.5t-42 8.5h-30l55 99h68l-33 -57q68 -15 68 -78q0 -48 -34 -76.5t-92 -28.5q-52 0 -92 26z" />
<glyph horiz-adv-x="0" d="M-105 -237q47 36 65 75q-16 4 -25 15.5t-9 26.5q0 26 18.5 43t46.5 17q22 0 35.5 -14t13.5 -36q0 -43 -30 -85.5t-87 -79.5z" />
<glyph horiz-adv-x="0" d="M53 765h-104l132 125h136z" />
<glyph horiz-adv-x="0" d="M-32 765l-111 125h125l78 -125h-92z" />
<glyph horiz-adv-x="0" d="M78 765l-51 65l-76 -65h-103l132 125h109l78 -125h-89z" />
<glyph horiz-adv-x="0" d="M195 890q-13 -62 -41 -94.5t-68 -32.5q-21 0 -37.5 7t-44.5 27q-31 22 -43 22q-13 0 -21 -11.5t-14 -39.5h-79q13 62 41 94.5t68 32.5q21 0 37.5 -7t44.5 -27q31 -22 43 -22q13 0 21 11.5t14 39.5h79z" />
<glyph horiz-adv-x="0" d="M62 765h-109l-78 125h89l51 -65l76 65h103z" />
<glyph horiz-adv-x="0" d="M-11 841q0 -29 -21 -48t-51 -19q-24 0 -39 14t-15 37q0 29 21 48t51 19q24 0 39 -14t15 -37zM181 841q0 -29 -21 -48t-51 -19q-24 0 -39 14t-15 37q0 29 21 48t51 19q24 0 39 -14t15 -37z" />
<glyph horiz-adv-x="0" d="M162 894q-7 -42 -29 -72t-55 -46t-74 -16q-58 0 -91 29.5t-33 81.5q0 15 1 23h78v-6q0 -60 50 -60q54 0 71 66h82z" />
<glyph horiz-adv-x="0" d="M143 877q0 -53 -38 -89.5t-93 -36.5q-45 0 -72 27t-27 71q0 53 38 89.5t93 36.5q45 0 72 -27t27 -71zM79 870q0 19 -13 32t-31 13q-25 0 -41.5 -17t-16.5 -42q0 -19 13 -32t31 -13q25 0 41.5 17t16.5 42z" />
<glyph horiz-adv-x="598" d="M437 -10q-21 0 -39 6q-50 15 -74 15t-74 -15q-18 -6 -39 -6q-66 0 -85 76q-19 77 -19 94q0 19 8 39q3 9 3 23q0 21 -5 48.5t-12.5 56.5t-14.5 54t-11 42q-10 40 -10 55q0 43 40 75q7 6 10 9.5t5.5 8t5.5 13.5q21 60 72 93t126 33t126 -33t72 -93q3 -8 5 -12.5t5 -8 t11 -10.5q40 -32 40 -75q0 -15 -10 -55q-4 -17 -11 -42t-14.5 -54t-12.5 -56.5t-5 -48.5q0 -14 3 -23q8 -20 8 -39q0 -17 -19 -94q-19 -76 -85 -76zM218 238q5 0 14 7.5t14 16.5q7 12 15.5 35.5t8.5 28.5t-5 5q-1 0 -2.5 -0.5t-3.5 -2.5q-4 -4 -10 -7t-10 -3q-3 0 -5.5 1.5 t-2.5 2.5q0 4 8 10q10 7 10 11q0 5 -7 5q-3 0 -9 -7q-5 -5 -12 -5q-11 0 -16 8q-3 6 -7 6q-7 0 -7 -5q0 -2 0.5 -4t0.5 -4q0 -8 -7 -8q-4 0 -9 4q-3 2 -11 2q-3 0 -5.5 2t-2.5 5q0 7 13 14q4 3 27 8q4 1 4 7t-7 6q-19 0 -32 -5q-13 -4 -18 -11t-5 -18q0 -18 10 -41t27 -40 q12 -13 22 -18.5t20 -5.5zM323 53q22 0 41 8t27 21q12 17 12 37v19q0 13 2 25q1 4 1.5 7.5t0.5 5.5q0 4 -5 4t-24.5 -3.5t-54.5 -3.5q-34 0 -53 3.5t-24 3.5q-7 0 -7 -4q0 -2 2 -9.5t4 -11.5q3 -5 18 -7q25 -2 44 -2q23 0 35 1t18 1q16 0 16 -12q0 -11 -14 -13 q-25 -3 -53 -3q-17 0 -29.5 1t-21.5 1q-13 0 -13 -10q0 -13 12 -30q9 -13 27 -21t39 -8zM454 204q15 0 25 37q9 35 20 49q8 9 15 21t7 18q0 8 -4 8q-1 0 -5 -1.5t-8 -3.5t-5 -2q-7 0 -7 9q0 8 6 29.5t15 45.5q13 33 13 48q0 11 -8 25q-10 15 -15 15t-13 -8q-17 -17 -42 -17 q-29 0 -45 28q-7 12 -7 19q0 6 5 6q3 0 10 -5t11 -5q6 0 11 8q5 10 5 26q0 17 -6.5 29.5t-14.5 12.5q-3 0 -17 -4t-34.5 -8.5t-42.5 -4.5q-11 0 -32 3t-28 5q-15 5 -22 7t-10 2q-7 0 -18 -7q-12 -7 -28.5 -20.5t-25.5 -24.5q-29 -31 -29 -49q1 -10 4.5 -20t4.5 -25 q0 -12 -1.5 -20t-1.5 -15q0 -8 2.5 -10t13.5 -2q17 0 36.5 3t36 6t22.5 3q12 0 20.5 -4t18.5 -14q13 -13 13 -32q0 -6 -1 -17t-2 -20l-8 -79q2 -32 35 -32q17 0 26.5 8.5t9.5 23.5q0 4 -0.5 7.5t-0.5 6.5q0 11 8 11q5 0 20 -15l37 -38q16 -17 31 -17zM350 373q-4 0 -6.5 2.5 t-2.5 5.5q0 5 6 8q12 7 44.5 21t42.5 17q9 3 13 3q9 0 18 -8q7 -6 14.5 -15t7.5 -12q0 -5 -3 -9t-7 -4q-5 0 -9 2.5t-11 7.5t-16 5q-12 0 -47 -11q-7 -2 -16 -5t-17 -5.5t-11 -2.5zM436 338q-12 1 -24 4.5t-21 3.5q-11 0 -16.5 -0.5t-12.5 -0.5q-9 0 -9 5q0 7 6 8 q9 3 37.5 6t37.5 3q6 0 8.5 -1.5t4.5 -6.5q3 -6 10 -6q3 0 5.5 1t6.5 1q5 0 5 -5q0 -4 -13.5 -8t-24.5 -4z" />
</font>
</defs>
</svg>
