<?xml version="1.0" standalone="no"?>
<!DOCTYPE svg PUBLIC "-//W3C//DTD SVG 1.1//EN" "http://www.w3.org/Graphics/SVG/1.1/DTD/svg11.dtd" >
<svg xmlns="http://www.w3.org/2000/svg">
<metadata></metadata>
<defs>
<font id="att_aleck_cdlight" horiz-adv-x="358" >
<font-face units-per-em="1000" ascent="750" descent="-250" />
<missing-glyph horiz-adv-x="210" />
<glyph unicode="fb" horiz-adv-x="744" d="M94 0v475h-75v41h75v65q0 88 35 133.5t102 45.5q35 0 61 -14l-12 -38q-27 8 -45 8q-47 0 -69.5 -32.5t-22.5 -100.5v-67h127v-41h-127v-475h-49zM353 0v750h49v-278q54 54 122 54q79 0 125.5 -72t46.5 -196t-48 -196t-130 -72q-31 0 -63 13.5t-57 37.5l-5 -41h-40z M515 482q-64 0 -113 -59v-338q51 -51 113 -51q61 0 96 60.5t35 163.5q0 106 -34.5 165t-96.5 59z" />
<glyph unicode="fj" horiz-adv-x="472" d="M94 0v475h-75v41h75v65q0 88 35 133.5t102 45.5q35 0 61 -14l-12 -38q-27 8 -45 8q-47 0 -69.5 -32.5t-22.5 -100.5v-67h227v-41h-227v-475h-49zM254 -175q22 -8 38 -8q34 0 47.5 22.5t13.5 75.5v601h49v-599q0 -73 -24 -108t-75 -35q-34 0 -59 13zM415 681 q0 -16 -10.5 -26t-27.5 -10q-16 0 -26.5 9.5t-10.5 26.5q0 16 10.5 26t27.5 10q16 0 26.5 -9.5t10.5 -26.5z" />
<glyph unicode="fk" horiz-adv-x="706" d="M94 0v475h-75v41h75v65q0 88 35 133.5t102 45.5q35 0 61 -14l-12 -38q-27 8 -45 8q-47 0 -69.5 -32.5t-22.5 -100.5v-67h127v-41h-127v-475h-49zM353 0v750h49v-481l217 247h57l-174 -196l184 -320h-56l-161 285l-67 -76v-209h-49z" />
<glyph unicode="ft" horiz-adv-x="582" d="M94 0v475h-75v41h75v65q0 88 35 133.5t102 45.5q35 0 61 -14l-12 -38q-27 8 -45 8q-47 0 -69.5 -32.5t-22.5 -100.5v-67h227v-41h-227v-475h-49zM561 13q-44 -23 -89 -23q-62 0 -91 41.5t-29 128.5v315h-75v41h77l9 151h38v-151h140v-41h-140v-310q0 -73 17.5 -102 t61.5 -29q33 0 69 18z" />
<glyph unicode="fh" horiz-adv-x="746" d="M94 0v475h-75v41h75v65q0 88 35 133.5t102 45.5q35 0 61 -14l-12 -38q-27 8 -45 8q-47 0 -69.5 -32.5t-22.5 -100.5v-67h127v-41h-127v-475h-49zM402 467q72 59 143 59q65 0 100 -44t35 -128v-354h-49v350q0 131 -97 131q-69 0 -132 -60v-421h-49v750h49v-283z" />
<glyph unicode="ff" horiz-adv-x="554" d="M94 0v475h-75v41h75v65q0 88 35 133.5t102 45.5q35 0 61 -14l-12 -38q-27 8 -45 8q-47 0 -69.5 -32.5t-22.5 -100.5v-67h227v-41h-227v-475h-49zM357 0v475h-75v41h75v65q0 88 35 133.5t102 45.5q38 0 71 -18l-12 -38q-30 12 -55 12q-47 0 -69.5 -32.5t-22.5 -100.5v-67 h127v-41h-127v-475h-49z" />
<glyph unicode="fi" horiz-adv-x="472" d="M94 0v475h-75v41h75v65q0 88 35 133.5t102 45.5q35 0 61 -14l-12 -38q-27 8 -45 8q-47 0 -69.5 -32.5t-22.5 -100.5v-67h227v-41h-227v-475h-49zM353 0v516h49v-516h-49zM415 681q0 -16 -10.5 -26t-27.5 -10q-16 0 -26.5 9.5t-10.5 26.5q0 16 10.5 26t27.5 10 q16 0 26.5 -9.5t10.5 -26.5z" />
<glyph unicode="fl" horiz-adv-x="472" d="M94 0v475h-75v41h75v65q0 88 35 133.5t102 45.5q35 0 61 -14l-12 -38q-27 8 -45 8q-47 0 -69.5 -32.5t-22.5 -100.5v-67h127v-41h-127v-475h-49zM353 0v750h49v-750h-49z" />
<glyph unicode="ffi" horiz-adv-x="735" d="M94 0v475h-75v41h75v65q0 88 35 133.5t102 45.5q35 0 61 -14l-12 -38q-27 8 -45 8q-47 0 -69.5 -32.5t-22.5 -100.5v-67h227v-41h-227v-475h-49zM357 0v475h-75v41h75v65q0 88 35 133.5t102 45.5q35 0 61 -14l-12 -38q-27 8 -45 8q-47 0 -69.5 -32.5t-22.5 -100.5v-67 h227v-41h-227v-475h-49zM616 0v516h49v-516h-49zM678 681q0 -16 -10.5 -26t-27.5 -10q-16 0 -26.5 9.5t-10.5 26.5q0 16 10.5 26t27.5 10q16 0 26.5 -9.5t10.5 -26.5z" />
<glyph unicode="ffl" horiz-adv-x="735" d="M94 0v475h-75v41h75v65q0 88 35 133.5t102 45.5q35 0 61 -14l-12 -38q-27 8 -45 8q-47 0 -69.5 -32.5t-22.5 -100.5v-67h227v-41h-227v-475h-49zM357 0v475h-75v41h75v65q0 88 35 133.5t102 45.5q35 0 61 -14l-12 -38q-27 8 -45 8q-47 0 -69.5 -32.5t-22.5 -100.5v-67 h127v-41h-127v-475h-49zM616 0v750h49v-750h-49z" />
<glyph unicode="ffb" horiz-adv-x="1007" d="M94 0v475h-75v41h75v65q0 88 35 133.5t102 45.5q35 0 61 -14l-12 -38q-27 8 -45 8q-47 0 -69.5 -32.5t-22.5 -100.5v-67h227v-41h-227v-475h-49zM357 0v475h-75v41h75v65q0 88 35 133.5t102 45.5q35 0 61 -14l-12 -38q-27 8 -45 8q-47 0 -69.5 -32.5t-22.5 -100.5v-67 h127v-41h-127v-475h-49zM616 0v750h49v-278q54 54 122 54q79 0 125.5 -72t46.5 -196t-48 -196t-130 -72q-31 0 -63 13.5t-57 37.5l-5 -41h-40zM778 482q-64 0 -113 -59v-338q51 -51 113 -51q61 0 96 60.5t35 163.5q0 106 -34.5 165t-96.5 59z" />
<glyph unicode="ffh" horiz-adv-x="1009" d="M94 0v475h-75v41h75v65q0 88 35 133.5t102 45.5q35 0 61 -14l-12 -38q-27 8 -45 8q-47 0 -69.5 -32.5t-22.5 -100.5v-67h227v-41h-227v-475h-49zM357 0v475h-75v41h75v65q0 88 35 133.5t102 45.5q35 0 61 -14l-12 -38q-27 8 -45 8q-47 0 -69.5 -32.5t-22.5 -100.5v-67 h127v-41h-127v-475h-49zM665 467q72 59 143 59q65 0 100 -44t35 -128v-354h-49v350q0 131 -97 131q-69 0 -132 -60v-421h-49v750h49v-283z" />
<glyph unicode="ffj" horiz-adv-x="735" d="M94 0v475h-75v41h75v65q0 88 35 133.5t102 45.5q35 0 61 -14l-12 -38q-27 8 -45 8q-47 0 -69.5 -32.5t-22.5 -100.5v-67h227v-41h-227v-475h-49zM357 0v475h-75v41h75v65q0 88 35 133.5t102 45.5q35 0 61 -14l-12 -38q-27 8 -45 8q-47 0 -69.5 -32.5t-22.5 -100.5v-67 h227v-41h-227v-475h-49zM517 -175q22 -8 38 -8q34 0 47.5 22.5t13.5 75.5v601h49v-599q0 -73 -24 -108t-75 -35q-34 0 -59 13zM678 681q0 -16 -10.5 -26t-27.5 -10q-16 0 -26.5 9.5t-10.5 26.5q0 16 10.5 26t27.5 10q16 0 26.5 -9.5t10.5 -26.5z" />
<glyph unicode="ffk" horiz-adv-x="969" d="M94 0v475h-75v41h75v65q0 88 35 133.5t102 45.5q35 0 61 -14l-12 -38q-27 8 -45 8q-47 0 -69.5 -32.5t-22.5 -100.5v-67h227v-41h-227v-475h-49zM357 0v475h-75v41h75v65q0 88 35 133.5t102 45.5q35 0 61 -14l-12 -38q-27 8 -45 8q-47 0 -69.5 -32.5t-22.5 -100.5v-67 h127v-41h-127v-475h-49zM616 0v750h49v-481l217 247h57l-174 -196l184 -320h-56l-161 285l-67 -76v-209h-49z" />
<glyph unicode="fft" horiz-adv-x="845" d="M94 0v475h-75v41h75v65q0 88 35 133.5t102 45.5q35 0 61 -14l-12 -38q-27 8 -45 8q-47 0 -69.5 -32.5t-22.5 -100.5v-67h227v-41h-227v-475h-49zM357 0v475h-75v41h75v65q0 88 35 133.5t102 45.5q35 0 61 -14l-12 -38q-27 8 -45 8q-47 0 -69.5 -32.5t-22.5 -100.5v-67 h227v-41h-227v-475h-49zM824 13q-44 -23 -89 -23q-62 0 -91 41.5t-29 128.5v315h-75v41h77l9 151h38v-151h140v-41h-140v-310q0 -73 17.5 -102t61.5 -29q33 0 69 18z" />
<glyph unicode=" "  horiz-adv-x="210" />
<glyph unicode="&#x09;" horiz-adv-x="210" />
<glyph unicode="&#xa0;" horiz-adv-x="210" />
<glyph unicode="!" horiz-adv-x="204" d="M81 194l-6 506h54l-6 -506h-42zM143 29q0 -16 -11.5 -27.5t-29.5 -11.5t-29.5 11.5t-11.5 27.5t11.5 27.5t29.5 11.5t29.5 -11.5t11.5 -27.5z" />
<glyph unicode="&#x22;" horiz-adv-x="289" d="M51 455l-6 245h52l-6 -245h-40zM198 455l-6 245h52l-6 -245h-40z" />
<glyph unicode="#" horiz-adv-x="490" d="M103 0l22 211h-75v41h79l20 186h-78v41h82l22 211h44l-22 -211h124l22 211h44l-22 -211h75v-41h-79l-20 -186h78v-41h-82l-22 -211h-44l22 211h-124l-22 -211h-44zM173 252h124l20 186h-124z" />
<glyph unicode="$" horiz-adv-x="490" d="M220 -113v103q-86 1 -156 50l14 40q67 -44 142 -45v310q-74 31 -108.5 75.5t-34.5 109.5q0 67 39 112.5t105 55.5v93h41v-91q75 -4 132 -39l-14 -40q-60 31 -118 34v-278q81 -31 119.5 -77t38.5 -113q0 -79 -43 -131.5t-116 -62.5v-106h-41zM371 188q0 50 -27 84.5 t-83 57.5v-292q34 7 59 27.5t38 52t13 70.5zM126 530q0 -48 23 -81t72 -56v259q-45 -9 -70 -40.5t-25 -81.5z" />
<glyph unicode="%" horiz-adv-x="809" d="M203 0l355 690h48l-355 -690h-48zM707 203q0 75 -20 115t-57 40t-57 -40t-20 -115v-16q0 -75 20 -115t57 -40t57 40t20 115v16zM754 187q0 -94 -32.5 -145.5t-91.5 -51.5t-91.5 51.5t-32.5 145.5v16q0 94 32.5 145.5t91.5 51.5t91.5 -51.5t32.5 -145.5v-16zM256 503 q0 75 -20 115t-57 40t-57 -40t-20 -115v-16q0 -75 20 -115t57 -40t57 40t20 115v16zM303 487q0 -94 -32.5 -145.5t-91.5 -51.5t-91.5 51.5t-32.5 145.5v16q0 94 32.5 145.5t91.5 51.5t91.5 -51.5t32.5 -145.5v-16z" />
<glyph unicode="&#x26;" horiz-adv-x="532" d="M479 0l-95 122q-64 -132 -183 -132q-73 0 -115 45t-42 125q0 65 30.5 114t103.5 101q-49 64 -67.5 105t-18.5 84q0 64 41.5 105t104.5 41q62 0 101.5 -39.5t39.5 -101.5q0 -51 -30.5 -94.5t-108.5 -103.5l137 -170l72 174h45l-87 -208l130 -167h-58zM206 34q96 0 148 121 l-152 190q-57 -45 -82.5 -88.5t-25.5 -96.5q0 -58 30 -92t82 -34zM141 564q0 -39 16 -73.5t59 -89.5q64 51 89 88t25 80q0 44 -25 71t-67 27t-69.5 -29t-27.5 -74z" />
<glyph unicode="'" horiz-adv-x="142" d="M51 455l-6 245h52l-6 -245h-40z" />
<glyph unicode="(" horiz-adv-x="261" d="M183 -164q-54 84 -85.5 204t-31.5 243t31.5 243t85.5 204h51q-56 -91 -86.5 -208.5t-30.5 -238.5t30.5 -238.5t86.5 -208.5h-51z" />
<glyph unicode=")" horiz-adv-x="261" d="M27 -164q56 91 86.5 208.5t30.5 238.5t-30.5 238.5t-86.5 208.5h51q54 -84 85.5 -204t31.5 -243t-31.5 -243t-85.5 -204h-51z" />
<glyph unicode="*" horiz-adv-x="362" d="M255 405l-74 109l-74 -109l-34 25l81 104l-126 36l13 41l124 -46l-5 131h42l-5 -131l124 46l13 -41l-126 -36l81 -104z" />
<glyph unicode="+" horiz-adv-x="490" d="M221 152v170h-160v45h160v170h47v-170h160v-45h-160v-170h-47z" />
<glyph unicode="," horiz-adv-x="168" d="M9 -109q61 43 70 99q-16 2 -26 13t-10 26q0 16 11.5 27.5t29.5 11.5q19 0 30 -14t11 -37q0 -87 -97 -151z" />
<glyph unicode="-" horiz-adv-x="313" d="M48 252v43h217v-43h-217z" />
<glyph unicode="." horiz-adv-x="168" d="M125 29q0 -16 -11.5 -27.5t-29.5 -11.5t-29.5 11.5t-11.5 27.5t11.5 27.5t29.5 11.5t29.5 -11.5t11.5 -27.5z" />
<glyph unicode="/" horiz-adv-x="384" d="M21 -164l292 894h50l-292 -894h-50z" />
<glyph unicode="0" horiz-adv-x="466" d="M362 352q0 150 -32.5 226.5t-96.5 76.5t-96.5 -76.5t-32.5 -226.5v-14q0 -150 32.5 -226.5t96.5 -76.5t96.5 76.5t32.5 226.5v14zM413 338q0 -175 -44.5 -261.5t-135.5 -86.5t-135.5 86.5t-44.5 261.5v14q0 175 44.5 261.5t135.5 86.5t135.5 -86.5t44.5 -261.5v-14z" />
<glyph unicode="1" horiz-adv-x="302" d="M167 0v628l-126 -107l-27 35l157 134h46v-690h-50z" />
<glyph unicode="2" horiz-adv-x="375" d="M36 0v34q0 82 8.5 131t31.5 87.5t76 85.5q78 69 106.5 111.5t28.5 87.5q0 55 -30 86.5t-82 31.5q-57 0 -116 -49l-25 36q29 27 68 42.5t80 15.5q71 0 113.5 -44t42.5 -119q0 -55 -32 -103.5t-124 -130.5q-39 -35 -59 -66.5t-28.5 -74t-8.5 -116.5h251v-46h-301z" />
<glyph unicode="3" horiz-adv-x="395" d="M41 70q53 -35 112 -35q62 0 102.5 43.5t40.5 111.5q0 73 -40.5 111.5t-116.5 38.5h-38v44h38q63 0 101.5 40t38.5 105q0 57 -32.5 91.5t-85.5 34.5q-30 0 -57 -9.5t-56 -30.5l-23 36q64 49 140 49q71 0 118 -48t47 -123q0 -58 -28 -101t-79 -63q61 -18 92.5 -63 t31.5 -112q0 -88 -53.5 -144t-138.5 -56q-72 0 -134 41z" />
<glyph unicode="4" horiz-adv-x="438" d="M292 0v178h-264v42l260 470h53v-468h64v-44h-64v-178h-49zM292 222v386l-214 -386h214z" />
<glyph unicode="5" horiz-adv-x="381" d="M47 70q53 -35 111 -35q67 0 105.5 45t38.5 123q0 77 -42 117.5t-120 40.5q-50 0 -80 -1l18 330h231v-46h-189l-14 -238h58q86 0 137.5 -55t51.5 -149q0 -97 -52.5 -154.5t-140.5 -57.5q-71 0 -133 41z" />
<glyph unicode="6" horiz-adv-x="437" d="M259 655q-137 0 -153 -252q62 10 113 10q190 0 190 -204q0 -102 -47 -160.5t-128 -58.5q-181 0 -181 315v21q0 374 206 374q63 0 120 -33l-17 -41q-50 29 -103 29zM104 305q0 -270 130 -270q58 0 91 45.5t33 126.5q0 85 -36 124t-115 39q-48 0 -103 -10v-55z" />
<glyph unicode="7" horiz-adv-x="359" d="M84 0v7q0 73 7.5 123t27.5 112t60 157l103 245h-261v46h311v-43l-104 -248q-36 -85 -56.5 -146t-29 -113t-8.5 -133v-7h-50z" />
<glyph unicode="8" horiz-adv-x="436" d="M382 523q0 -51 -23.5 -93t-68.5 -70q52 -25 79 -71.5t27 -108.5q0 -87 -48.5 -138.5t-129.5 -51.5t-129.5 51.5t-48.5 138.5q0 59 29.5 107t81.5 74q-46 22 -71.5 64.5t-25.5 97.5q0 79 45.5 128t118.5 49t118.5 -49t45.5 -128zM194 347q-50 -25 -76.5 -68t-26.5 -99 q0 -67 34 -106.5t93 -39.5t93 39.5t34 106.5q0 62 -30.5 104.5t-85.5 54.5zM104 523q0 -53 27.5 -89.5t76.5 -48.5l41 -10q39 24 61 63t22 85q0 59 -31.5 96t-82.5 37t-82.5 -37t-31.5 -96z" />
<glyph unicode="9" horiz-adv-x="437" d="M70 64q23 -13 52 -21t56 -8q75 0 111 59.5t42 194.5q-55 -9 -113 -9q-96 0 -143 50.5t-47 152.5q0 101 46.5 159t128.5 58q181 0 181 -315v-21q0 -197 -49 -285.5t-157 -88.5q-32 0 -65 8.5t-60 24.5zM230 323q54 0 103 9v53q0 270 -130 270q-59 0 -91.5 -45t-32.5 -125 q0 -85 36 -123.5t115 -38.5z" />
<glyph unicode=":" horiz-adv-x="168" d="M125 29q0 -16 -11.5 -27.5t-29.5 -11.5t-29.5 11.5t-11.5 27.5t11.5 27.5t29.5 11.5t29.5 -11.5t11.5 -27.5zM125 477q0 -16 -11.5 -27.5t-29.5 -11.5t-29.5 11.5t-11.5 27.5t11.5 27.5t29.5 11.5t29.5 -11.5t11.5 -27.5z" />
<glyph unicode=";" horiz-adv-x="168" d="M9 -109q61 43 70 99q-16 2 -26 13t-10 26q0 16 11.5 27.5t29.5 11.5q19 0 30 -14t11 -37q0 -87 -97 -151zM122 477q0 -16 -11.5 -27.5t-29.5 -11.5t-29.5 11.5t-11.5 27.5t11.5 27.5t29.5 11.5t29.5 -11.5t11.5 -27.5z" />
<glyph unicode="&#x3c;" horiz-adv-x="490" d="M61 324v42l347 137v-46l-295 -112l295 -112v-46z" />
<glyph unicode="=" horiz-adv-x="490" d="M61 222v45h367v-45h-367zM61 423v45h367v-45h-367z" />
<glyph unicode="&#x3e;" horiz-adv-x="490" d="M81 187v46l295 112l-295 112v46l347 -137v-42z" />
<glyph unicode="?" horiz-adv-x="342" d="M111 194v24q0 68 13.5 104t52.5 73l16 15q36 33 53 67t17 72q0 53 -31 84.5t-82 31.5q-60 0 -121 -45l-22 33q69 56 148 56q71 0 114.5 -43.5t43.5 -114.5q0 -48 -20 -87t-65 -81l-16 -15q-31 -29 -43 -61t-12 -89v-24h-46zM175 29q0 -16 -11.5 -27.5t-29.5 -11.5 t-29.5 11.5t-11.5 27.5t11.5 27.5t29.5 11.5t29.5 -11.5t11.5 -27.5z" />
<glyph unicode="@" horiz-adv-x="832" d="M571 -159q-38 -17 -88.5 -27t-99.5 -10q-103 0 -177.5 44t-113.5 124t-39 186q0 137 59 247.5t155 171.5t208 61q93 0 162 -42t105.5 -118t36.5 -175q0 -91 -30 -164t-79.5 -113.5t-107.5 -40.5q-43 0 -68 22t-26 61q-24 -28 -56 -44t-64 -16q-49 0 -77 37.5t-28 103.5 q0 78 31 145.5t79.5 105.5t100.5 38q50 0 88 -35l9 26h42l-74 -297q-7 -28 -7 -45q0 -28 14.5 -43.5t39.5 -15.5q45 0 83 40t59 103.5t21 133.5q0 132 -69.5 210.5t-185.5 78.5q-104 0 -190 -61.5t-133.5 -160.5t-47.5 -212q0 -97 35.5 -167.5t99 -107.5t147.5 -37 q44 0 92 9.5t83 24.5zM360 51q26 0 53.5 16.5t52.5 47.5l63 251q-15 14 -35 21.5t-40 7.5q-44 0 -81.5 -35.5t-59 -91t-21.5 -115.5q0 -49 17.5 -75.5t50.5 -26.5z" />
<glyph unicode="A" horiz-adv-x="509" d="M435 0l-62 213h-240l-61 -213h-51l207 700h53l207 -700h-53zM253 631l-107 -372h214z" />
<glyph unicode="B" horiz-adv-x="501" d="M75 0v700h153q97 0 151 -48.5t54 -136.5q0 -58 -29 -100t-79 -58q61 -16 94.5 -60.5t33.5 -108.5q0 -87 -54 -137.5t-149 -50.5h-175zM126 330v-283h122q72 0 112 37t40 104q0 68 -40 105t-112 37h-122zM126 653v-276h102q74 0 113 35t39 103t-39 103t-113 35h-102z" />
<glyph unicode="C" horiz-adv-x="450" d="M422 21q-56 -31 -125 -31q-115 0 -179.5 96t-64.5 264q0 111 30.5 193t85.5 124.5t128 42.5q64 0 120 -32l-15 -42q-50 26 -100 26q-92 0 -144 -83t-52 -229t52 -229t144 -83q55 0 105 25z" />
<glyph unicode="D" horiz-adv-x="537" d="M204 47q108 0 167.5 79.5t59.5 223.5t-59.5 223.5t-167.5 79.5h-78v-606h78zM75 0v700h129q133 0 206.5 -91.5t73.5 -258.5t-73.5 -258.5t-206.5 -91.5h-129z" />
<glyph unicode="E" horiz-adv-x="436" d="M126 331v-284h272v-47h-323v700h315v-47h-264v-275h220v-47h-220z" />
<glyph unicode="F" horiz-adv-x="413" d="M75 0v700h305v-47h-254v-290h210v-47h-210v-316h-51z" />
<glyph unicode="G" horiz-adv-x="517" d="M452 366v-339q-38 -20 -74.5 -28.5t-80.5 -8.5q-115 0 -179.5 96t-64.5 264q0 112 31.5 193t87.5 124t130 43q72 0 130 -32l-15 -42q-56 26 -110 26q-63 0 -108 -38t-69 -108t-24 -166q0 -147 51.5 -229.5t144.5 -82.5q58 0 99 16v265h-141v47h192z" />
<glyph unicode="H" horiz-adv-x="538" d="M75 0v700h51v-322h286v322h51v-700h-51v331h-286v-331h-51z" />
<glyph unicode="I" horiz-adv-x="201" d="M75 0v700h51v-700h-51z" />
<glyph unicode="J" horiz-adv-x="344" d="M30 58q47 -20 91 -20q54 0 78 38t24 124v500h51v-506q0 -104 -37.5 -154t-115.5 -50q-52 0 -106 26z" />
<glyph unicode="K" horiz-adv-x="493" d="M75 0v700h51v-382l271 382h57l-203 -286l211 -414h-55l-190 373l-91 -127v-246h-51z" />
<glyph unicode="L" horiz-adv-x="404" d="M75 0v700h51v-653h254v-47h-305z" />
<glyph unicode="M" horiz-adv-x="686" d="M560 0v600l-192 -477h-50l-192 477v-600h-51v700h61l208 -510l208 510h59v-700h-51z" />
<glyph unicode="N" horiz-adv-x="534" d="M401 0l-276 608v-608h-50v700h58l276 -608v608h50v-700h-58z" />
<glyph unicode="O" horiz-adv-x="550" d="M275 38q78 0 123.5 83.5t45.5 228.5t-45.5 228.5t-123.5 83.5t-123.5 -83.5t-45.5 -228.5t45.5 -228.5t123.5 -83.5zM275 -10q-70 0 -120 44t-76 125t-26 191q0 113 27 194t77 123.5t118 42.5q70 0 120 -44t76 -125t26 -191q0 -113 -27 -194t-77 -123.5t-118 -42.5z" />
<glyph unicode="P" horiz-adv-x="478" d="M75 0v700h145q101 0 157 -56t56 -157q0 -102 -56 -158t-157 -56h-94v-273h-51zM126 320h94q78 0 119 42.5t41 124.5q0 81 -41 123.5t-119 42.5h-94v-333z" />
<glyph unicode="Q" horiz-adv-x="550" d="M438 -74l-67 90q-43 -26 -96 -26q-70 0 -120 44t-76 125t-26 191q0 113 27 194t77 123.5t118 42.5q70 0 120 -44t76 -125t26 -191q0 -103 -23 -181.5t-68 -124.5l67 -90zM275 38q36 0 66 18l-80 108l35 28l78 -106q34 39 52 106.5t18 157.5q0 145 -45.5 228.5 t-123.5 83.5t-123.5 -83.5t-45.5 -228.5t45.5 -228.5t123.5 -83.5z" />
<glyph unicode="R" horiz-adv-x="490" d="M398 0l-164 284h-108v-284h-51v700h145q100 0 156.5 -55t56.5 -153q0 -80 -38 -132t-108 -69l168 -291h-57zM126 331h94q77 0 118.5 42t41.5 119t-41.5 119t-118.5 42h-94v-322z" />
<glyph unicode="S" horiz-adv-x="429" d="M46 79q70 -41 135 -41q69 0 110 39.5t41 106.5q0 55 -27 89t-93 62l-24 10q-66 27 -99.5 74.5t-33.5 113.5q0 80 50 128.5t131 48.5q70 0 134 -40l-15 -42q-65 34 -119 34q-57 0 -92.5 -34.5t-35.5 -94.5q0 -55 27 -89t93 -62l24 -10q66 -27 99.5 -74.5t33.5 -113.5 q0 -89 -55.5 -141.5t-147.5 -52.5q-83 0 -151 47z" />
<glyph unicode="T" horiz-adv-x="459" d="M204 0v653h-176v47h403v-47h-176v-653h-51z" />
<glyph unicode="U" horiz-adv-x="522" d="M401 700h51v-475q0 -112 -50.5 -173.5t-140.5 -61.5t-140.5 61.5t-50.5 173.5v475h51v-472q0 -92 36 -141t104 -49t104 49t36 141v472z" />
<glyph unicode="V" horiz-adv-x="491" d="M219 0l-192 700h53l167 -629l166 629h51l-192 -700h-53z" />
<glyph unicode="W" horiz-adv-x="690" d="M467 0l-122 555l-122 -555h-57l-126 700h52l104 -620l124 560h53l122 -559l105 619h50l-126 -700h-57z" />
<glyph unicode="X" horiz-adv-x="488" d="M36 0l180 355l-178 345h56l150 -302l152 302h54l-178 -347l180 -353h-56l-153 310l-153 -310h-54z" />
<glyph unicode="Y" horiz-adv-x="453" d="M201 0v284l-174 416h54l146 -361l147 361h52l-174 -416v-284h-51z" />
<glyph unicode="Z" horiz-adv-x="423" d="M28 0v44l301 609h-288v47h343v-44l-301 -609h312v-47h-367z" />
<glyph unicode="[" horiz-adv-x="277" d="M75 -164v894h167v-44h-117v-806h117v-44h-167z" />
<glyph unicode="\" horiz-adv-x="384" d="M313 -164l-292 894h50l292 -894h-50z" />
<glyph unicode="]" horiz-adv-x="277" d="M35 -164v44h117v806h-117v44h167v-894h-167z" />
<glyph unicode="^" horiz-adv-x="490" d="M357 369l-114 272l-113 -272h-47l139 321h45l139 -321h-49z" />
<glyph unicode="_" horiz-adv-x="370" d="M0 -131v41h370v-41h-370z" />
<glyph unicode="`" horiz-adv-x="463" d="M261 611l-110 139h64l96 -139h-50z" />
<glyph unicode="a" horiz-adv-x="419" d="M313 0l-6 48q-67 -58 -133 -58q-59 0 -96 42t-37 110q0 70 43 110t120 40h100v58q0 132 -108 132q-57 0 -123 -39l-18 37q74 46 147 46q72 0 111.5 -45t39.5 -127v-354h-40zM182 34q29 0 61 14.5t61 42.5v160h-91q-122 0 -122 -109q0 -50 24.5 -79t66.5 -29z" />
<glyph unicode="b" horiz-adv-x="461" d="M70 0v750h49v-278q54 54 122 54q79 0 125.5 -72t46.5 -196t-48 -196t-130 -72q-31 0 -63 13.5t-57 37.5l-5 -41h-40zM232 482q-64 0 -113 -59v-338q51 -51 113 -51q61 0 96 60.5t35 163.5q0 106 -34.5 165t-96.5 59z" />
<glyph unicode="c" horiz-adv-x="372" d="M347 15q-45 -25 -99 -25q-95 0 -147.5 71t-52.5 197q0 125 52.5 196.5t143.5 71.5q51 0 97 -27l-15 -38q-39 21 -80 21q-69 0 -108.5 -60.5t-39.5 -163.5q0 -104 40.5 -164t111.5 -60q42 0 82 19z" />
<glyph unicode="d" horiz-adv-x="461" d="M351 0l-6 47q-26 -28 -58 -42.5t-67 -14.5q-79 0 -125.5 72t-46.5 196t48 196t130 72q30 0 60.5 -12.5t55.5 -35.5v272h49v-750h-40zM229 34q63 0 113 58v339q-51 51 -113 51q-61 0 -96 -60.5t-35 -163.5q0 -106 34.5 -165t96.5 -59z" />
<glyph unicode="e" horiz-adv-x="432" d="M365 23q-53 -33 -117 -33q-95 0 -147.5 71t-52.5 197q0 122 47 195t125 73q76 0 117.5 -63t41.5 -178q0 -21 -2 -41h-279q2 -99 41.5 -154.5t110.5 -55.5q27 0 49 6t51 21zM220 482q-34 0 -60.5 -25.5t-42 -70t-18.5 -101.5h230v9q0 88 -29 138t-80 50z" />
<glyph unicode="f" horiz-adv-x="291" d="M94 0v475h-75v41h75v65q0 88 35 133.5t102 45.5q38 0 71 -18l-12 -38q-30 12 -55 12q-47 0 -69.5 -32.5t-22.5 -100.5v-67h127v-41h-127v-475h-49z" />
<glyph unicode="g" horiz-adv-x="461" d="M210 -182q67 0 99.5 41t32.5 127v68q-52 -54 -122 -54q-53 0 -92 33t-59.5 92t-20.5 136q0 83 22.5 142.5t62.5 91t93 31.5q31 0 63 -13.5t57 -37.5l5 41h40v-527q0 -105 -46 -160t-133 -55q-70 0 -131 32l16 40q55 -28 113 -28zM229 44q63 0 113 58v329q-51 51 -113 51 q-60 0 -95.5 -60t-35.5 -161t34.5 -159t96.5 -58z" />
<glyph unicode="h" horiz-adv-x="463" d="M119 467q72 59 143 59q65 0 100 -44t35 -128v-354h-49v350q0 131 -97 131q-69 0 -132 -60v-421h-49v750h49v-283z" />
<glyph unicode="i" horiz-adv-x="189" d="M70 0v516h49v-516h-49zM132 681q0 -16 -10.5 -26t-27.5 -10q-16 0 -26.5 9.5t-10.5 26.5q0 16 10.5 26t27.5 10q16 0 26.5 -9.5t10.5 -26.5z" />
<glyph unicode="j" horiz-adv-x="189" d="M-29 -175q22 -8 38 -8q34 0 47.5 22.5t13.5 75.5v601h49v-599q0 -73 -24 -108t-75 -35q-34 0 -59 13zM132 681q0 -16 -10.5 -26t-27.5 -10q-16 0 -26.5 9.5t-10.5 26.5q0 16 10.5 26t27.5 10q16 0 26.5 -9.5t10.5 -26.5z" />
<glyph unicode="k" horiz-adv-x="423" d="M70 0v750h49v-481l217 247h57l-174 -196l184 -320h-56l-161 285l-67 -76v-209h-49z" />
<glyph unicode="l" horiz-adv-x="189" d="M70 0v750h49v-750h-49z" />
<glyph unicode="m" horiz-adv-x="707" d="M592 0v350q0 65 -23 98t-68 33q-29 0 -64.5 -19t-62.5 -48q6 -27 6 -60v-354h-49v350q0 65 -23 98t-68 33q-27 0 -60.5 -16.5t-60.5 -43.5v-421h-49v516h40l6 -51q69 61 135 61q39 0 67.5 -19t43.5 -54q74 73 150 73q61 0 95 -45t34 -127v-354h-49z" />
<glyph unicode="n" horiz-adv-x="463" d="M348 0v350q0 131 -97 131q-69 0 -132 -60v-421h-49v516h40l6 -51q72 61 146 61q65 0 100 -44t35 -128v-354h-49z" />
<glyph unicode="o" horiz-adv-x="458" d="M229 -10q-85 0 -133 70.5t-48 197.5t48 197.5t133 70.5t133 -70.5t48 -197.5t-48 -197.5t-133 -70.5zM229 34q61 0 96 60t35 164t-35 164t-96 60t-96 -60t-35 -164t35 -164t96 -60z" />
<glyph unicode="p" horiz-adv-x="461" d="M70 -216v732h40l5 -48q26 28 58.5 43t67.5 15q79 0 125.5 -72t46.5 -196t-48 -196t-130 -72q-30 0 -60.5 12.5t-55.5 34.5v-253h-49zM232 482q-64 0 -113 -59v-338q51 -51 113 -51q61 0 96 60.5t35 163.5q0 106 -34.5 165t-96.5 59z" />
<glyph unicode="q" horiz-adv-x="461" d="M342 -216v260q-52 -54 -122 -54q-79 0 -125.5 72t-46.5 196t48 196t130 72q31 0 63 -13.5t57 -37.5l5 41h40v-732h-49zM229 34q63 0 113 58v339q-51 51 -113 51q-61 0 -96 -60.5t-35 -163.5q0 -106 34.5 -165t96.5 -59z" />
<glyph unicode="r" horiz-adv-x="304" d="M70 0v516h40l7 -65q30 37 65 56t73 19q16 0 30 -4l-6 -47q-14 2 -30 2q-72 0 -130 -73v-404h-49z" />
<glyph unicode="s" horiz-adv-x="364" d="M41 67q27 -15 59.5 -24t60.5 -9q52 0 82.5 26.5t30.5 72.5q0 40 -18 62t-69 42l-18 7q-71 28 -98.5 60.5t-27.5 86.5q0 60 42 97.5t108 37.5q55 0 116 -29l-15 -38q-50 23 -99 23q-46 0 -74 -24.5t-28 -64.5t18 -62t69 -42l18 -7q71 -28 98.5 -60.5t27.5 -86.5 q0 -65 -44 -105t-117 -40q-70 0 -137 39z" />
<glyph unicode="t" horiz-adv-x="319" d="M298 13q-44 -23 -89 -23q-62 0 -91 41.5t-29 128.5v315h-75v41h77l9 151h38v-151h140v-41h-140v-310q0 -73 17.5 -102t61.5 -29q33 0 69 18z" />
<glyph unicode="u" horiz-adv-x="457" d="M347 0l-6 48q-69 -58 -142 -58q-64 0 -98.5 44.5t-34.5 127.5v354h49v-350q0 -131 95 -131q67 0 128 56v425h49v-516h-40z" />
<glyph unicode="v" horiz-adv-x="401" d="M177 0l-154 516h53l125 -453l126 453h51l-154 -516h-47z" />
<glyph unicode="w" horiz-adv-x="595" d="M391 0l-94 425l-93 -425h-47l-130 516h52l101 -446l94 427h49l94 -427l101 446h50l-130 -516h-47z" />
<glyph unicode="x" horiz-adv-x="394" d="M314 0l-119 226l-118 -226h-52l145 266l-136 250h55l109 -210l110 210h52l-137 -250l146 -266h-55z" />
<glyph unicode="y" horiz-adv-x="401" d="M28 -173q22 -9 42 -9q37 0 60.5 40t49.5 149l-157 509h53l127 -445l124 445h51l-166 -565q-19 -65 -37.5 -103.5t-41.5 -56t-56 -17.5t-59 14z" />
<glyph unicode="z" horiz-adv-x="350" d="M28 0v36l235 439h-228v41h280v-36l-235 -439h242v-41h-294z" />
<glyph unicode="{" horiz-adv-x="302" d="M267 -159q-33 -6 -52 -6q-120 0 -120 137q0 32 10 109q8 69 8 95q0 46 -15.5 66t-50.5 20h-16v42h16q35 0 50.5 20t15.5 66q0 26 -8 95q-10 77 -10 109q0 137 120 137q19 0 52 -6v-43q-20 4 -45 4q-41 0 -59 -22t-18 -74q0 -25 11 -118q7 -52 7 -84q0 -90 -63 -105 q63 -16 63 -105q0 -32 -7 -84q-11 -93 -11 -118q0 -52 18 -74t59 -22q25 0 45 4v-43z" />
<glyph unicode="|" horiz-adv-x="199" d="M75 -216v946h49v-946h-49z" />
<glyph unicode="}" horiz-adv-x="302" d="M35 -116q20 -4 45 -4q41 0 59 22t18 74q0 25 -11 118q-7 52 -7 84q0 89 63 105q-63 15 -63 105q0 32 7 84q11 93 11 118q0 52 -18 74t-59 22q-25 0 -45 -4v43q33 6 52 6q120 0 120 -137q0 -32 -10 -109q-8 -69 -8 -95q0 -46 15.5 -66t50.5 -20h16v-42h-16 q-35 0 -50.5 -20t-15.5 -66q0 -26 8 -95q10 -77 10 -109q0 -137 -120 -137q-19 0 -52 6v43z" />
<glyph unicode="~" horiz-adv-x="490" d="M438 398q0 -64 -25 -98t-71 -34q-28 0 -54 14.5t-61 49.5q-27 27 -44.5 37.5t-35.5 10.5q-24 0 -37 -22.5t-13 -64.5v-22h-46v22q0 64 25 98t71 34q28 0 54 -14.5t61 -49.5q27 -27 44.5 -37.5t35.5 -10.5q24 0 37 22.5t13 64.5v22h46v-22z" />
<glyph unicode="&#xa1;" horiz-adv-x="204" d="M75 -184l6 506h42l6 -506h-54zM143 487q0 -16 -11.5 -27.5t-29.5 -11.5t-29.5 11.5t-11.5 27.5t11.5 27.5t29.5 11.5t29.5 -11.5t11.5 -27.5z" />
<glyph unicode="&#xa2;" horiz-adv-x="490" d="M271 -113v105q-81 11 -125.5 80t-44.5 181t45 181.5t125 79.5v106h41v-105q41 -2 82 -26l-15 -38q-33 17 -67 20v-437q36 1 73 19l15 -38q-38 -22 -88 -25v-103h-41zM151 253q0 -88 31.5 -145.5t88.5 -70.5v432q-56 -12 -88 -69.5t-32 -146.5z" />
<glyph unicode="&#xa3;" horiz-adv-x="490" d="M217 326q3 -22 3 -48q0 -61 -21.5 -123.5t-58.5 -108.5h286v-46h-340v46q37 38 61 103.5t24 128.5q0 26 -3 48h-74v44h67q-2 12 -10 44q-11 43 -14.5 64t-3.5 46q0 85 43 130.5t123 45.5q64 0 124 -36l-19 -40q-56 31 -105 31q-56 0 -85 -33t-29 -98q0 -43 16 -109 q5 -20 10 -45h143v-44h-137z" />
<glyph unicode="&#xa5;" horiz-adv-x="490" d="M220 0v132h-140v44h140v109h-140v44h122l-152 361h54l142 -352l142 352h52l-152 -361h122v-44h-140v-109h140v-44h-140v-132h-50z" />
<glyph unicode="&#xa7;" horiz-adv-x="400" d="M82 -59q52 -23 104 -23q46 0 74 24.5t28 64.5t-18 62t-69 42l-18 7q-76 29 -109.5 67.5t-33.5 95.5t31.5 100t84.5 60q-51 24 -72.5 54.5t-21.5 79.5q0 60 42 97.5t108 37.5q55 0 116 -29l-15 -38q-50 23 -99 23q-46 0 -74 -24.5t-28 -64.5t18 -62t69 -42l18 -7 q76 -29 109.5 -67.5t33.5 -95.5t-31.5 -100t-84.5 -60q51 -24 72.5 -54.5t21.5 -79.5q0 -60 -42 -97.5t-108 -37.5t-121 29zM310 299q0 45 -24 73t-83 50q-53 -14 -83 -51t-30 -86q0 -45 24 -73t83 -50q53 14 83 51t30 86z" />
<glyph unicode="&#xa8;" horiz-adv-x="463" d="M193 681q0 -17 -11 -27t-29 -10t-29 10t-11 27t11 27t29 10t29 -10t11 -27zM349 681q0 -17 -11 -27t-29 -10t-29 10t-11 27t11 27t29 10t29 -10t11 -27z" />
<glyph unicode="&#xa9;" horiz-adv-x="508" d="M338 355q-32 -19 -70 -19q-55 0 -88 43.5t-33 114.5t33 114.5t88 43.5q36 0 67 -17l-13 -38q-23 11 -48 11q-38 0 -58 -29t-20 -85t20 -85t58 -29q26 0 51 13zM254 224q-66 0 -117 36t-78.5 97t-27.5 137q0 80 30 142t80.5 95t112.5 33q66 0 117 -36t78.5 -97t27.5 -137 q0 -80 -30 -142t-80.5 -95t-112.5 -33zM254 265q53 0 93 29.5t61.5 81.5t21.5 118q0 69 -23 121.5t-63 80t-90 27.5q-53 0 -93 -29.5t-61.5 -81.5t-21.5 -118q0 -69 23 -121.5t63 -80t90 -27.5z" />
<glyph unicode="&#xaa;" horiz-adv-x="300" d="M218 351l-6 31q-41 -38 -92 -38q-41 0 -67 28.5t-26 74.5q0 50 31.5 77.5t89.5 27.5h59v13q0 49 -17 71.5t-54 22.5q-22 0 -41 -6t-41 -20l-17 33q52 34 107 34q52 0 80.5 -35t28.5 -100v-214h-35zM33 251v42h220v-42h-220zM129 385q19 0 39.5 8t38.5 22v99h-60 q-73 0 -73 -68q0 -61 55 -61z" />
<glyph unicode="&#xab;" horiz-adv-x="362" d="M139 107l-112 173l112 173h51l-111 -173l111 -173h-51zM275 107l-112 173l112 173h51l-111 -173l111 -173h-51z" />
<glyph unicode="&#xac;" horiz-adv-x="490" d="M371 152v170h-320v45h367v-215h-47z" />
<glyph unicode="&#xae;" horiz-adv-x="508" d="M254 224q-66 0 -117 36t-78.5 97t-27.5 137q0 80 30 142t80.5 95t112.5 33q66 0 117 -36t78.5 -97t27.5 -137q0 -80 -30 -142t-80.5 -95t-112.5 -33zM254 265q53 0 93 29.5t61.5 81.5t21.5 118q0 69 -23 121.5t-63 80t-90 27.5q-53 0 -93 -29.5t-61.5 -81.5t-21.5 -118 q0 -69 23 -121.5t63 -80t90 -27.5zM174 352v291h86q39 0 64 -25.5t25 -65.5q0 -32 -16.5 -55t-44.5 -31l64 -114h-50l-61 110h-21v-110h-46zM220 502h36q21 0 33.5 13t12.5 37t-12.5 37t-33.5 13h-36v-100z" />
<glyph unicode="&#xb0;" horiz-adv-x="302" d="M151 440q-54 0 -91.5 37.5t-37.5 92.5t37.5 92.5t91.5 37.5t91.5 -37.5t37.5 -92.5t-37.5 -92.5t-91.5 -37.5zM151 479q36 0 60.5 26t24.5 65t-24.5 65t-60.5 26t-60.5 -26t-24.5 -65t24.5 -65t60.5 -26z" />
<glyph unicode="&#xb2;" d="M75 420v20q0 46 6 72.5t24 50t64 59.5q42 33 55.5 52.5t13.5 46.5q0 26 -18 41.5t-47 15.5q-38 0 -78 -28l-21 34q47 36 105 36q46 0 75.5 -28.5t29.5 -71.5q0 -35 -18.5 -61.5t-72.5 -68.5q-45 -35 -57 -57.5t-14 -69.5h162v-43h-209z" />
<glyph unicode="&#xb3;" d="M75 478q42 -26 82 -26q39 0 60.5 19t21.5 53q0 36 -23.5 58t-61.5 22h-45v40h43q35 0 56 19t21 52q0 31 -17.5 47t-50.5 16q-38 0 -79 -26l-19 35q47 33 101 33q50 0 80.5 -28.5t30.5 -74.5q0 -30 -17.5 -54t-48.5 -37q36 -13 56 -40.5t20 -63.5q0 -49 -34.5 -80.5 t-89.5 -31.5q-60 0 -104 33z" />
<glyph unicode="&#xb4;" horiz-adv-x="463" d="M151 611l96 139h64l-110 -139h-50z" />
<glyph unicode="&#xb6;" horiz-adv-x="473" d="M349 -110v763h-78v-763h-49v416q-80 0 -128.5 54t-48.5 143t48.5 143t128.5 54h176v-810h-49z" />
<glyph unicode="&#xb7;" horiz-adv-x="168" d="M125 288q0 -16 -11.5 -27.5t-29.5 -11.5t-29.5 11.5t-11.5 27.5t11.5 27.5t29.5 11.5t29.5 -11.5t11.5 -27.5z" />
<glyph unicode="&#xb8;" horiz-adv-x="463" d="M154 -166q33 -19 70 -19q25 0 39 11.5t14 33.5q0 45 -69 45h-31l38 97h46l-23 -60q41 -4 62.5 -25t21.5 -57q0 -40 -26 -62t-72 -22q-51 0 -83 23z" />
<glyph unicode="&#xb9;" d="M187 420v333l-81 -69l-24 33l110 93h41v-390h-46z" />
<glyph unicode="&#xba;" horiz-adv-x="330" d="M165 385q37 0 57.5 36t20.5 101t-20.5 101t-57.5 36t-57.5 -36t-20.5 -101t20.5 -101t57.5 -36zM165 344q-57 0 -91 48.5t-34 129.5t34 129.5t91 48.5t91 -48.5t34 -129.5t-34 -129.5t-91 -48.5zM50 251v42h230v-42h-230z" />
<glyph unicode="&#xbb;" horiz-adv-x="362" d="M36 107l111 173l-111 173h51l112 -173l-112 -173h-51zM172 107l111 173l-111 173h51l112 -173l-112 -173h-51z" />
<glyph unicode="&#xbc;" horiz-adv-x="809" d="M222 0l355 690h48l-355 -690h-48zM673 0v89h-174v39l177 262h40v-261h39v-40h-39v-89h-43zM673 129v190l-129 -190h129zM187 300v333l-81 -69l-24 33l110 93h41v-390h-46z" />
<glyph unicode="&#xbd;" horiz-adv-x="809" d="M180 0l355 690h48l-355 -690h-48zM526 0v20q0 46 6 72.5t24 50t64 59.5q42 33 55.5 52.5t13.5 46.5q0 26 -18 41.5t-47 15.5q-38 0 -78 -28l-21 34q47 36 105 36q46 0 75.5 -28.5t29.5 -71.5q0 -35 -18.5 -61.5t-72.5 -68.5q-45 -35 -57 -57.5t-14 -69.5h162v-43h-209z M187 300v333l-81 -69l-24 33l110 93h41v-390h-46z" />
<glyph unicode="&#xbe;" horiz-adv-x="809" d="M231 0l355 690h48l-355 -690h-48zM673 0v89h-174v39l177 262h40v-261h39v-40h-39v-89h-43zM673 129v190l-129 -190h129zM75 358q42 -26 82 -26q39 0 60.5 19t21.5 53q0 36 -23.5 58t-61.5 22h-45v40h43q35 0 56 19t21 52q0 31 -17.5 47t-50.5 16q-38 0 -79 -26l-19 35 q47 33 101 33q50 0 80.5 -28.5t30.5 -74.5q0 -30 -17.5 -54t-48.5 -37q36 -13 56 -40.5t20 -63.5q0 -49 -34.5 -80.5t-89.5 -31.5q-60 0 -104 33z" />
<glyph unicode="&#xbf;" horiz-adv-x="342" d="M335 -137q-69 -56 -148 -56q-71 0 -114.5 43.5t-43.5 114.5q0 48 20 87t65 81l16 15q31 29 43 61t12 89v24h46v-24q0 -68 -13.5 -104t-52.5 -73l-16 -15q-36 -33 -53 -67t-17 -72q0 -53 31 -84.5t82 -31.5q60 0 121 45zM249 487q0 -16 -11.5 -27.5t-29.5 -11.5 t-29.5 11.5t-11.5 27.5t11.5 27.5t29.5 11.5t29.5 -11.5t11.5 -27.5z" />
<glyph unicode="&#xc0;" horiz-adv-x="509" d="M435 0l-62 213h-240l-61 -213h-51l207 700h53l207 -700h-53zM253 631l-107 -372h214zM233 770l-114 109h72l96 -109h-54z" />
<glyph unicode="&#xc1;" horiz-adv-x="509" d="M435 0l-62 213h-240l-61 -213h-51l207 700h53l207 -700h-53zM253 631l-107 -372h214zM275 770h-54l96 109h72z" />
<glyph unicode="&#xc2;" horiz-adv-x="509" d="M435 0l-62 213h-240l-61 -213h-51l207 700h53l207 -700h-53zM253 631l-107 -372h214zM328 770l-74 71l-74 -71h-54l96 109h64l96 -109h-54z" />
<glyph unicode="&#xc3;" horiz-adv-x="509" d="M435 0l-62 213h-240l-61 -213h-51l207 700h53l207 -700h-53zM253 631l-107 -372h214zM394 874q-3 -105 -73 -105q-20 0 -38 8.5t-53 36.5q-25 20 -41 20q-14 0 -21 -13t-10 -48h-44q3 105 73 105q20 0 38 -8.5t53 -36.5q25 -20 41 -20q14 0 21 13t10 48h44z" />
<glyph unicode="&#xc4;" horiz-adv-x="509" d="M435 0l-62 213h-240l-61 -213h-51l207 700h53l207 -700h-53zM253 631l-107 -372h214zM217 824q0 -17 -11 -27.5t-30 -10.5t-30 10.5t-11 27.5t11 27.5t30 10.5t30 -10.5t11 -27.5zM373 824q0 -17 -11 -27.5t-30 -10.5t-30 10.5t-11 27.5t11 27.5t30 10.5t30 -10.5 t11 -27.5z" />
<glyph unicode="&#xc5;" horiz-adv-x="509" d="M435 0l-62 213h-240l-61 -213h-51l207 700h53l207 -700h-53zM253 631l-107 -372h214zM254 795q24 0 40.5 17.5t16.5 42.5t-16.5 42.5t-40.5 17.5t-40.5 -17.5t-16.5 -42.5t16.5 -42.5t40.5 -17.5zM254 756q-45 0 -73 27.5t-28 71.5t28 71.5t73 27.5t73 -27.5t28 -71.5 t-28 -71.5t-73 -27.5z" />
<glyph unicode="&#xc6;" horiz-adv-x="719" d="M0 0l332 700h341v-47h-254v-275h210v-47h-210v-284h262v-47h-313v233h-207l-109 -233h-52zM182 279h186v374h-11z" />
<glyph unicode="&#xc7;" horiz-adv-x="450" d="M422 21q-56 -31 -125 -31q-115 0 -179.5 96t-64.5 264q0 111 30.5 193t85.5 124.5t128 42.5q64 0 120 -32l-15 -42q-50 26 -100 26q-92 0 -144 -83t-52 -229t52 -229t144 -83q55 0 105 25zM188 -164q37 -19 71 -19q24 0 37.5 12t13.5 32q0 21 -17.5 32t-50.5 11h-32 l38 98h48l-23 -59q84 -9 84 -82q0 -40 -25 -62.5t-73 -22.5t-85 23z" />
<glyph unicode="&#xc8;" horiz-adv-x="436" d="M126 331v-284h272v-47h-323v700h315v-47h-264v-275h220v-47h-220zM211 770l-114 109h72l96 -109h-54z" />
<glyph unicode="&#xc9;" horiz-adv-x="436" d="M126 331v-284h272v-47h-323v700h315v-47h-264v-275h220v-47h-220zM253 770h-54l96 109h72z" />
<glyph unicode="&#xca;" horiz-adv-x="436" d="M126 331v-284h272v-47h-323v700h315v-47h-264v-275h220v-47h-220zM306 770l-74 71l-74 -71h-54l96 109h64l96 -109h-54z" />
<glyph unicode="&#xcb;" horiz-adv-x="436" d="M126 331v-284h272v-47h-323v700h315v-47h-264v-275h220v-47h-220zM195 824q0 -17 -11 -27.5t-30 -10.5t-30 10.5t-11 27.5t11 27.5t30 10.5t30 -10.5t11 -27.5zM351 824q0 -17 -11 -27.5t-30 -10.5t-30 10.5t-11 27.5t11 27.5t30 10.5t30 -10.5t11 -27.5z" />
<glyph unicode="&#xcc;" horiz-adv-x="201" d="M75 0v700h51v-700h-51zM79 770l-114 109h72l96 -109h-54z" />
<glyph unicode="&#xcd;" horiz-adv-x="201" d="M75 0v700h51v-700h-51zM121 770h-54l96 109h72z" />
<glyph unicode="&#xce;" horiz-adv-x="201" d="M75 0v700h51v-700h-51zM174 770l-74 71l-74 -71h-54l96 109h64l96 -109h-54z" />
<glyph unicode="&#xcf;" horiz-adv-x="201" d="M75 0v700h51v-700h-51zM63 824q0 -17 -11 -27.5t-30 -10.5t-30 10.5t-11 27.5t11 27.5t30 10.5t30 -10.5t11 -27.5zM219 824q0 -17 -11 -27.5t-30 -10.5t-30 10.5t-11 27.5t11 27.5t30 10.5t30 -10.5t11 -27.5z" />
<glyph unicode="&#xd0;" horiz-adv-x="560" d="M98 0v340h-68v42h68v318h129q133 0 206.5 -91.5t73.5 -258.5t-73.5 -258.5t-206.5 -91.5h-129zM227 47q108 0 167.5 79.5t59.5 223.5t-59.5 223.5t-167.5 79.5h-78v-271h111v-42h-111v-293h78z" />
<glyph unicode="&#xd1;" horiz-adv-x="534" d="M401 0l-276 608v-608h-50v700h58l276 -608v608h50v-700h-58zM407 874q-3 -105 -73 -105q-20 0 -38 8.5t-53 36.5q-25 20 -41 20q-14 0 -21 -13t-10 -48h-44q3 105 73 105q20 0 38 -8.5t53 -36.5q25 -20 41 -20q14 0 21 13t10 48h44z" />
<glyph unicode="&#xd2;" horiz-adv-x="550" d="M275 38q78 0 123.5 83.5t45.5 228.5t-45.5 228.5t-123.5 83.5t-123.5 -83.5t-45.5 -228.5t45.5 -228.5t123.5 -83.5zM275 -10q-70 0 -120 44t-76 125t-26 191q0 113 27 194t77 123.5t118 42.5q70 0 120 -44t76 -125t26 -191q0 -113 -27 -194t-77 -123.5t-118 -42.5z M254 770l-114 109h72l96 -109h-54z" />
<glyph unicode="&#xd3;" horiz-adv-x="550" d="M275 38q78 0 123.5 83.5t45.5 228.5t-45.5 228.5t-123.5 83.5t-123.5 -83.5t-45.5 -228.5t45.5 -228.5t123.5 -83.5zM275 -10q-70 0 -120 44t-76 125t-26 191q0 113 27 194t77 123.5t118 42.5q70 0 120 -44t76 -125t26 -191q0 -113 -27 -194t-77 -123.5t-118 -42.5z M296 770h-54l96 109h72z" />
<glyph unicode="&#xd4;" horiz-adv-x="550" d="M275 38q78 0 123.5 83.5t45.5 228.5t-45.5 228.5t-123.5 83.5t-123.5 -83.5t-45.5 -228.5t45.5 -228.5t123.5 -83.5zM275 -10q-70 0 -120 44t-76 125t-26 191q0 113 27 194t77 123.5t118 42.5q70 0 120 -44t76 -125t26 -191q0 -113 -27 -194t-77 -123.5t-118 -42.5z M349 770l-74 71l-74 -71h-54l96 109h64l96 -109h-54z" />
<glyph unicode="&#xd5;" horiz-adv-x="550" d="M275 38q78 0 123.5 83.5t45.5 228.5t-45.5 228.5t-123.5 83.5t-123.5 -83.5t-45.5 -228.5t45.5 -228.5t123.5 -83.5zM275 -10q-70 0 -120 44t-76 125t-26 191q0 113 27 194t77 123.5t118 42.5q70 0 120 -44t76 -125t26 -191q0 -113 -27 -194t-77 -123.5t-118 -42.5z M415 874q-3 -105 -73 -105q-20 0 -38 8.5t-53 36.5q-25 20 -41 20q-14 0 -21 -13t-10 -48h-44q3 105 73 105q20 0 38 -8.5t53 -36.5q25 -20 41 -20q14 0 21 13t10 48h44z" />
<glyph unicode="&#xd6;" horiz-adv-x="550" d="M275 38q78 0 123.5 83.5t45.5 228.5t-45.5 228.5t-123.5 83.5t-123.5 -83.5t-45.5 -228.5t45.5 -228.5t123.5 -83.5zM275 -10q-70 0 -120 44t-76 125t-26 191q0 113 27 194t77 123.5t118 42.5q70 0 120 -44t76 -125t26 -191q0 -113 -27 -194t-77 -123.5t-118 -42.5z M238 824q0 -17 -11 -27.5t-30 -10.5t-30 10.5t-11 27.5t11 27.5t30 10.5t30 -10.5t11 -27.5zM394 824q0 -17 -11 -27.5t-30 -10.5t-30 10.5t-11 27.5t11 27.5t30 10.5t30 -10.5t11 -27.5z" />
<glyph unicode="&#xd7;" horiz-adv-x="490" d="M245 313l-137 -139l-32 32l138 138l-138 138l32 32l137 -139l137 139l32 -32l-138 -138l138 -138l-32 -32z" />
<glyph unicode="&#xd8;" horiz-adv-x="550" d="M40 13l59 96q-46 94 -46 241q0 113 27 194t77 123.5t118 42.5q91 0 148 -73l47 77l40 -27l-59 -96q46 -94 46 -241q0 -113 -27 -194t-77 -123.5t-118 -42.5q-91 0 -148 73l-47 -77zM275 38q78 0 123.5 83.5t45.5 228.5q0 110 -26 186l-261 -425q45 -73 118 -73zM106 350 q0 -110 26 -186l261 425q-45 73 -118 73q-78 0 -123.5 -83.5t-45.5 -228.5z" />
<glyph unicode="&#xd9;" horiz-adv-x="522" d="M401 700h51v-475q0 -112 -50.5 -173.5t-140.5 -61.5t-140.5 61.5t-50.5 173.5v475h51v-472q0 -92 36 -141t104 -49t104 49t36 141v472zM240 770l-114 109h72l96 -109h-54z" />
<glyph unicode="&#xda;" horiz-adv-x="522" d="M401 700h51v-475q0 -112 -50.5 -173.5t-140.5 -61.5t-140.5 61.5t-50.5 173.5v475h51v-472q0 -92 36 -141t104 -49t104 49t36 141v472zM282 770h-54l96 109h72z" />
<glyph unicode="&#xdb;" horiz-adv-x="522" d="M401 700h51v-475q0 -112 -50.5 -173.5t-140.5 -61.5t-140.5 61.5t-50.5 173.5v475h51v-472q0 -92 36 -141t104 -49t104 49t36 141v472zM335 770l-74 71l-74 -71h-54l96 109h64l96 -109h-54z" />
<glyph unicode="&#xdc;" horiz-adv-x="522" d="M401 700h51v-475q0 -112 -50.5 -173.5t-140.5 -61.5t-140.5 61.5t-50.5 173.5v475h51v-472q0 -92 36 -141t104 -49t104 49t36 141v472zM224 824q0 -17 -11 -27.5t-30 -10.5t-30 10.5t-11 27.5t11 27.5t30 10.5t30 -10.5t11 -27.5zM380 824q0 -17 -11 -27.5t-30 -10.5 t-30 10.5t-11 27.5t11 27.5t30 10.5t30 -10.5t11 -27.5z" />
<glyph unicode="&#xdd;" horiz-adv-x="453" d="M201 0v284l-174 416h54l146 -361l147 361h52l-174 -416v-284h-51zM247 770h-54l96 109h72z" />
<glyph unicode="&#xde;" horiz-adv-x="478" d="M75 0v700h51v-132h94q101 0 157 -56t56 -157t-56 -157.5t-157 -56.5h-94v-141h-51zM126 521v-333h94q78 0 119 43t41 124t-41 123.5t-119 42.5h-94z" />
<glyph unicode="&#xdf;" horiz-adv-x="471" d="M177 53q38 -19 82 -19q52 0 85 46t33 119q0 79 -41 123.5t-116 44.5h-35v41h32q56 0 91.5 47.5t35.5 123.5q0 64 -29 100.5t-80 36.5q-116 0 -116 -200v-516h-49v516q0 244 165 244q72 0 115.5 -49t43.5 -132q0 -62 -29.5 -114.5t-73.5 -70.5q60 -15 98 -69.5t38 -125.5 q0 -93 -47 -151t-121 -58q-55 0 -97 25z" />
<glyph unicode="&#xe0;" horiz-adv-x="419" d="M313 0l-6 48q-67 -58 -133 -58q-59 0 -96 42t-37 110q0 70 43 110t120 40h100v58q0 132 -108 132q-57 0 -123 -39l-18 37q74 46 147 46q72 0 111.5 -45t39.5 -127v-354h-40zM182 34q29 0 61 14.5t61 42.5v160h-91q-122 0 -122 -109q0 -50 24.5 -79t66.5 -29zM183 611 l-110 139h64l96 -139h-50z" />
<glyph unicode="&#xe1;" horiz-adv-x="419" d="M313 0l-6 48q-67 -58 -133 -58q-59 0 -96 42t-37 110q0 70 43 110t120 40h100v58q0 132 -108 132q-57 0 -123 -39l-18 37q74 46 147 46q72 0 111.5 -45t39.5 -127v-354h-40zM182 34q29 0 61 14.5t61 42.5v160h-91q-122 0 -122 -109q0 -50 24.5 -79t66.5 -29zM171 611 l96 139h64l-110 -139h-50z" />
<glyph unicode="&#xe2;" horiz-adv-x="419" d="M313 0l-6 48q-67 -58 -133 -58q-59 0 -96 42t-37 110q0 70 43 110t120 40h100v58q0 132 -108 132q-57 0 -123 -39l-18 37q74 46 147 46q72 0 111.5 -45t39.5 -127v-354h-40zM182 34q29 0 61 14.5t61 42.5v160h-91q-122 0 -122 -109q0 -50 24.5 -79t66.5 -29zM276 611 l-74 96l-74 -96h-50l96 139h56l96 -139h-50z" />
<glyph unicode="&#xe3;" horiz-adv-x="419" d="M313 0l-6 48q-67 -58 -133 -58q-59 0 -96 42t-37 110q0 70 43 110t120 40h100v58q0 132 -108 132q-57 0 -123 -39l-18 37q74 46 147 46q72 0 111.5 -45t39.5 -127v-354h-40zM182 34q29 0 61 14.5t61 42.5v160h-91q-122 0 -122 -109q0 -50 24.5 -79t66.5 -29zM337 727 q-2 -53 -20 -78t-53 -25q-19 0 -35 8.5t-51 35.5q-22 18 -36 18q-15 0 -22 -13.5t-10 -46.5h-43q2 53 20 78t53 25q19 0 35 -8.5t51 -35.5q22 -18 36 -18q15 0 22 13.5t10 46.5h43z" />
<glyph unicode="&#xe4;" horiz-adv-x="419" d="M313 0l-6 48q-67 -58 -133 -58q-59 0 -96 42t-37 110q0 70 43 110t120 40h100v58q0 132 -108 132q-57 0 -123 -39l-18 37q74 46 147 46q72 0 111.5 -45t39.5 -127v-354h-40zM182 34q29 0 61 14.5t61 42.5v160h-91q-122 0 -122 -109q0 -50 24.5 -79t66.5 -29zM164 681 q0 -17 -11 -27t-29 -10t-29 10t-11 27t11 27t29 10t29 -10t11 -27zM320 681q0 -17 -11 -27t-29 -10t-29 10t-11 27t11 27t29 10t29 -10t11 -27z" />
<glyph unicode="&#xe5;" horiz-adv-x="419" d="M313 0l-6 48q-67 -58 -133 -58q-59 0 -96 42t-37 110q0 70 43 110t120 40h100v58q0 132 -108 132q-57 0 -123 -39l-18 37q74 46 147 46q72 0 111.5 -45t39.5 -127v-354h-40zM182 34q29 0 61 14.5t61 42.5v160h-91q-122 0 -122 -109q0 -50 24.5 -79t66.5 -29zM202 625 q25 0 41.5 17.5t16.5 43.5t-16.5 43.5t-41.5 17.5t-41.5 -17.5t-16.5 -43.5t16.5 -43.5t41.5 -17.5zM202 588q-44 0 -72 27.5t-28 70.5t28 70.5t72 27.5t72 -27.5t28 -70.5t-28 -70.5t-72 -27.5z" />
<glyph unicode="&#xe6;" horiz-adv-x="688" d="M621 23q-54 -33 -122 -33q-94 0 -145 73q-36 -34 -82 -53.5t-91 -19.5q-65 0 -102.5 40.5t-37.5 108.5q0 73 43 113t120 40h100v58q0 132 -108 132q-57 0 -123 -39l-18 37q74 46 147 46q55 0 90.5 -26.5t45.5 -74.5q19 48 55 74.5t83 26.5q76 0 117.5 -63t41.5 -178 q0 -21 -2 -41h-279q2 -99 41.5 -154.5t110.5 -55.5q27 0 49 6t51 21zM188 34q37 0 76 17.5t69 47.5q-27 59 -29 152h-91q-122 0 -122 -109q0 -52 25 -80t72 -28zM476 482q-34 0 -60.5 -25.5t-42 -70t-18.5 -101.5h230v9q0 88 -29 138t-80 50z" />
<glyph unicode="&#xe7;" horiz-adv-x="372" d="M347 15q-45 -25 -99 -25q-95 0 -147.5 71t-52.5 197q0 125 52.5 196.5t143.5 71.5q51 0 97 -27l-15 -38q-39 21 -80 21q-69 0 -108.5 -60.5t-39.5 -163.5q0 -104 40.5 -164t111.5 -60q42 0 82 19zM145 -166q33 -19 70 -19q25 0 39 11.5t14 33.5q0 45 -69 45h-31l38 97h46 l-23 -60q41 -4 62.5 -25t21.5 -57q0 -40 -26 -62t-72 -22q-51 0 -83 23z" />
<glyph unicode="&#xe8;" horiz-adv-x="432" d="M365 23q-53 -33 -117 -33q-95 0 -147.5 71t-52.5 197q0 122 47 195t125 73q76 0 117.5 -63t41.5 -178q0 -21 -2 -41h-279q2 -99 41.5 -154.5t110.5 -55.5q27 0 49 6t51 21zM220 482q-34 0 -60.5 -25.5t-42 -70t-18.5 -101.5h230v9q0 88 -29 138t-80 50zM201 611l-110 139 h64l96 -139h-50z" />
<glyph unicode="&#xe9;" horiz-adv-x="432" d="M365 23q-53 -33 -117 -33q-95 0 -147.5 71t-52.5 197q0 122 47 195t125 73q76 0 117.5 -63t41.5 -178q0 -21 -2 -41h-279q2 -99 41.5 -154.5t110.5 -55.5q27 0 49 6t51 21zM220 482q-34 0 -60.5 -25.5t-42 -70t-18.5 -101.5h230v9q0 88 -29 138t-80 50zM189 611l96 139 h64l-110 -139h-50z" />
<glyph unicode="&#xea;" horiz-adv-x="432" d="M365 23q-53 -33 -117 -33q-95 0 -147.5 71t-52.5 197q0 122 47 195t125 73q76 0 117.5 -63t41.5 -178q0 -21 -2 -41h-279q2 -99 41.5 -154.5t110.5 -55.5q27 0 49 6t51 21zM220 482q-34 0 -60.5 -25.5t-42 -70t-18.5 -101.5h230v9q0 88 -29 138t-80 50zM294 611l-74 96 l-74 -96h-50l96 139h56l96 -139h-50z" />
<glyph unicode="&#xeb;" horiz-adv-x="432" d="M365 23q-53 -33 -117 -33q-95 0 -147.5 71t-52.5 197q0 122 47 195t125 73q76 0 117.5 -63t41.5 -178q0 -21 -2 -41h-279q2 -99 41.5 -154.5t110.5 -55.5q27 0 49 6t51 21zM220 482q-34 0 -60.5 -25.5t-42 -70t-18.5 -101.5h230v9q0 88 -29 138t-80 50zM182 681 q0 -17 -11 -27t-29 -10t-29 10t-11 27t11 27t29 10t29 -10t11 -27zM338 681q0 -17 -11 -27t-29 -10t-29 10t-11 27t11 27t29 10t29 -10t11 -27z" />
<glyph unicode="&#xec;" horiz-adv-x="189" d="M70 0v516h49v-516h-49zM75 611l-110 139h64l96 -139h-50z" />
<glyph unicode="&#xed;" horiz-adv-x="189" d="M70 0v516h49v-516h-49zM63 611l96 139h64l-110 -139h-50z" />
<glyph unicode="&#xee;" horiz-adv-x="189" d="M70 0v516h49v-516h-49zM168 611l-74 96l-74 -96h-50l96 139h56l96 -139h-50z" />
<glyph unicode="&#xef;" horiz-adv-x="189" d="M70 0v516h49v-516h-49zM56 681q0 -17 -11 -27t-29 -10t-29 10t-11 27t11 27t29 10t29 -10t11 -27zM212 681q0 -17 -11 -27t-29 -10t-29 10t-11 27t11 27t29 10t29 -10t11 -27z" />
<glyph unicode="&#xf0;" horiz-adv-x="458" d="M284 663q62 -72 94 -169.5t32 -214.5q0 -143 -46 -216t-136 -73q-83 0 -131.5 70t-48.5 188t48 188t133 70q40 0 73 -23t54 -65q-28 127 -108 218l-102 -77l-23 33l97 73q-40 37 -85 63l22 36q56 -31 99 -72l99 75l24 -33zM229 34q60 0 95.5 58.5t35.5 155.5t-35.5 155.5 t-95.5 58.5t-95.5 -58.5t-35.5 -155.5t35.5 -155.5t95.5 -58.5z" />
<glyph unicode="&#xf1;" horiz-adv-x="463" d="M348 0v350q0 131 -97 131q-69 0 -132 -60v-421h-49v516h40l6 -51q72 61 146 61q65 0 100 -44t35 -128v-354h-49zM368 727q-2 -53 -20 -78t-53 -25q-19 0 -35 8.5t-51 35.5q-22 18 -36 18q-15 0 -22 -13.5t-10 -46.5h-43q2 53 20 78t53 25q19 0 35 -8.5t51 -35.5 q22 -18 36 -18q15 0 22 13.5t10 46.5h43z" />
<glyph unicode="&#xf2;" horiz-adv-x="458" d="M229 -10q-85 0 -133 70.5t-48 197.5t48 197.5t133 70.5t133 -70.5t48 -197.5t-48 -197.5t-133 -70.5zM229 34q61 0 96 60t35 164t-35 164t-96 60t-96 -60t-35 -164t35 -164t96 -60zM210 611l-110 139h64l96 -139h-50z" />
<glyph unicode="&#xf3;" horiz-adv-x="458" d="M229 -10q-85 0 -133 70.5t-48 197.5t48 197.5t133 70.5t133 -70.5t48 -197.5t-48 -197.5t-133 -70.5zM229 34q61 0 96 60t35 164t-35 164t-96 60t-96 -60t-35 -164t35 -164t96 -60zM198 611l96 139h64l-110 -139h-50z" />
<glyph unicode="&#xf4;" horiz-adv-x="458" d="M229 -10q-85 0 -133 70.5t-48 197.5t48 197.5t133 70.5t133 -70.5t48 -197.5t-48 -197.5t-133 -70.5zM229 34q61 0 96 60t35 164t-35 164t-96 60t-96 -60t-35 -164t35 -164t96 -60zM303 611l-74 96l-74 -96h-50l96 139h56l96 -139h-50z" />
<glyph unicode="&#xf5;" horiz-adv-x="458" d="M229 -10q-85 0 -133 70.5t-48 197.5t48 197.5t133 70.5t133 -70.5t48 -197.5t-48 -197.5t-133 -70.5zM229 34q61 0 96 60t35 164t-35 164t-96 60t-96 -60t-35 -164t35 -164t96 -60zM364 727q-2 -53 -20 -78t-53 -25q-19 0 -35 8.5t-51 35.5q-22 18 -36 18 q-15 0 -22 -13.5t-10 -46.5h-43q2 53 20 78t53 25q19 0 35 -8.5t51 -35.5q22 -18 36 -18q15 0 22 13.5t10 46.5h43z" />
<glyph unicode="&#xf6;" horiz-adv-x="458" d="M229 -10q-85 0 -133 70.5t-48 197.5t48 197.5t133 70.5t133 -70.5t48 -197.5t-48 -197.5t-133 -70.5zM229 34q61 0 96 60t35 164t-35 164t-96 60t-96 -60t-35 -164t35 -164t96 -60zM191 681q0 -17 -11 -27t-29 -10t-29 10t-11 27t11 27t29 10t29 -10t11 -27zM347 681 q0 -17 -11 -27t-29 -10t-29 10t-11 27t11 27t29 10t29 -10t11 -27z" />
<glyph unicode="&#xf7;" horiz-adv-x="490" d="M286 196q0 -16 -11.5 -27.5t-29.5 -11.5t-29.5 11.5t-11.5 27.5t11.5 27.5t29.5 11.5t29.5 -11.5t11.5 -27.5zM61 322v45h367v-45h-367zM286 493q0 -16 -11.5 -27.5t-29.5 -11.5t-29.5 11.5t-11.5 27.5t11.5 27.5t29.5 11.5t29.5 -11.5t11.5 -27.5z" />
<glyph unicode="&#xf8;" horiz-adv-x="458" d="M36 13l47 69q-35 68 -35 176q0 127 48 197.5t133 70.5q73 0 119 -52l37 55l37 -26l-47 -69q35 -68 35 -176q0 -127 -48 -197.5t-133 -70.5q-73 0 -119 52l-37 -55zM98 258q0 -74 18 -127l203 301q-34 50 -90 50q-61 0 -96 -60t-35 -164zM229 34q61 0 96 60t35 164 q0 76 -18 127l-203 -301q34 -50 90 -50z" />
<glyph unicode="&#xf9;" horiz-adv-x="457" d="M347 0l-6 48q-69 -58 -142 -58q-64 0 -98.5 44.5t-34.5 127.5v354h49v-350q0 -131 95 -131q67 0 128 56v425h49v-516h-40zM207 611l-110 139h64l96 -139h-50z" />
<glyph unicode="&#xfa;" horiz-adv-x="457" d="M347 0l-6 48q-69 -58 -142 -58q-64 0 -98.5 44.5t-34.5 127.5v354h49v-350q0 -131 95 -131q67 0 128 56v425h49v-516h-40zM195 611l96 139h64l-110 -139h-50z" />
<glyph unicode="&#xfb;" horiz-adv-x="457" d="M347 0l-6 48q-69 -58 -142 -58q-64 0 -98.5 44.5t-34.5 127.5v354h49v-350q0 -131 95 -131q67 0 128 56v425h49v-516h-40zM300 611l-74 96l-74 -96h-50l96 139h56l96 -139h-50z" />
<glyph unicode="&#xfc;" horiz-adv-x="457" d="M347 0l-6 48q-69 -58 -142 -58q-64 0 -98.5 44.5t-34.5 127.5v354h49v-350q0 -131 95 -131q67 0 128 56v425h49v-516h-40zM188 681q0 -17 -11 -27t-29 -10t-29 10t-11 27t11 27t29 10t29 -10t11 -27zM344 681q0 -17 -11 -27t-29 -10t-29 10t-11 27t11 27t29 10t29 -10 t11 -27z" />
<glyph unicode="&#xfd;" horiz-adv-x="401" d="M28 -173q22 -9 42 -9q37 0 60.5 40t49.5 149l-157 509h53l127 -445l124 445h51l-166 -565q-19 -65 -37.5 -103.5t-41.5 -56t-56 -17.5t-59 14zM169 611l96 139h64l-110 -139h-50z" />
<glyph unicode="&#xfe;" horiz-adv-x="461" d="M119 472q54 54 122 54q79 0 125.5 -72t46.5 -196t-48 -196t-130 -72q-30 0 -60.5 12.5t-55.5 34.5v-253h-49v966h49v-278zM232 482q-64 0 -113 -59v-338q51 -51 113 -51q61 0 96 60.5t35 163.5q0 106 -34.5 165t-96.5 59z" />
<glyph unicode="&#xff;" horiz-adv-x="401" d="M28 -173q22 -9 42 -9q37 0 60.5 40t49.5 149l-157 509h53l127 -445l124 445h51l-166 -565q-19 -65 -37.5 -103.5t-41.5 -56t-56 -17.5t-59 14zM162 681q0 -17 -11 -27t-29 -10t-29 10t-11 27t11 27t29 10t29 -10t11 -27zM318 681q0 -17 -11 -27t-29 -10t-29 10t-11 27 t11 27t29 10t29 -10t11 -27z" />
<glyph unicode="&#x102;" horiz-adv-x="509" d="M435 0l-62 213h-240l-61 -213h-51l207 700h53l207 -700h-53zM253 631l-107 -372h214zM373 878q-3 -50 -35 -81.5t-84 -31.5t-84 31.5t-35 81.5h44q8 -34 27 -51.5t48 -17.5t48 17.5t27 51.5h44z" />
<glyph unicode="&#x103;" horiz-adv-x="419" d="M313 0l-6 48q-67 -58 -133 -58q-59 0 -96 42t-37 110q0 70 43 110t120 40h100v58q0 132 -108 132q-57 0 -123 -39l-18 37q74 46 147 46q72 0 111.5 -45t39.5 -127v-354h-40zM182 34q29 0 61 14.5t61 42.5v160h-91q-122 0 -122 -109q0 -50 24.5 -79t66.5 -29zM316 721 q-3 -51 -34 -82t-80 -31t-80 31t-34 82h43q14 -70 71 -70t71 70h43z" />
<glyph unicode="&#x131;" horiz-adv-x="189" d="M70 0v516h49v-516h-49z" />
<glyph unicode="&#x132;" horiz-adv-x="545" d="M75 0v700h51v-700h-51zM231 58q47 -20 91 -20q54 0 78 38t24 124v500h51v-506q0 -104 -37.5 -154t-115.5 -50q-52 0 -106 26z" />
<glyph unicode="&#x133;" horiz-adv-x="378" d="M70 0v516h49v-516h-49zM132 681q0 -16 -10.5 -26t-27.5 -10q-16 0 -26.5 9.5t-10.5 26.5q0 16 10.5 26t27.5 10q16 0 26.5 -9.5t10.5 -26.5zM160 -175q22 -8 38 -8q34 0 47.5 22.5t13.5 75.5v601h49v-599q0 -73 -24 -108t-75 -35q-34 0 -59 13zM321 681q0 -16 -10.5 -26 t-27.5 -10q-16 0 -26.5 9.5t-10.5 26.5q0 16 10.5 26t27.5 10q16 0 26.5 -9.5t10.5 -26.5z" />
<glyph unicode="&#x152;" horiz-adv-x="795" d="M495 331v-284h262v-47h-313v116q-54 -126 -169 -126q-70 0 -120 44t-76 125t-26 191q0 113 27 194t77 123.5t118 42.5q115 0 169 -126v116h305v-47h-254v-275h210v-47h-210zM275 38q78 0 123.5 83.5t45.5 228.5t-45.5 228.5t-123.5 83.5t-123.5 -83.5t-45.5 -228.5 t45.5 -228.5t123.5 -83.5z" />
<glyph unicode="&#x153;" horiz-adv-x="743" d="M676 23q-54 -33 -122 -33q-121 0 -169 125q-44 -125 -156 -125q-85 0 -133 70.5t-48 197.5t48 197.5t133 70.5q110 0 155 -124q46 124 147 124q76 0 117.5 -63t41.5 -178q0 -21 -2 -41h-279q2 -99 41.5 -154.5t110.5 -55.5q27 0 49 6t51 21zM229 34q61 0 96 60t35 164 t-35 164t-96 60t-96 -60t-35 -164t35 -164t96 -60zM531 482q-34 0 -60.5 -25.5t-42 -70t-18.5 -101.5h230v9q0 88 -29 138t-80 50z" />
<glyph unicode="&#x15e;" horiz-adv-x="429" d="M46 79q70 -41 135 -41q69 0 110 39.5t41 106.5q0 55 -27 89t-93 62l-24 10q-66 27 -99.5 74.5t-33.5 113.5q0 80 50 128.5t131 48.5q70 0 134 -40l-15 -42q-65 34 -119 34q-57 0 -92.5 -34.5t-35.5 -94.5q0 -55 27 -89t93 -62l24 -10q66 -27 99.5 -74.5t33.5 -113.5 q0 -89 -55.5 -141.5t-147.5 -52.5q-83 0 -151 47zM119 -164q37 -19 71 -19q24 0 37.5 12t13.5 32q0 21 -17.5 32t-50.5 11h-32l38 98h48l-23 -59q84 -9 84 -82q0 -40 -25 -62.5t-73 -22.5t-85 23z" />
<glyph unicode="&#x15f;" horiz-adv-x="364" d="M41 67q27 -15 59.5 -24t60.5 -9q52 0 82.5 26.5t30.5 72.5q0 40 -18 62t-69 42l-18 7q-71 28 -98.5 60.5t-27.5 86.5q0 60 42 97.5t108 37.5q55 0 116 -29l-15 -38q-50 23 -99 23q-46 0 -74 -24.5t-28 -64.5t18 -62t69 -42l18 -7q71 -28 98.5 -60.5t27.5 -86.5 q0 -65 -44 -105t-117 -40q-70 0 -137 39zM87 -166q33 -19 70 -19q25 0 39 11.5t14 33.5q0 45 -69 45h-31l38 97h46l-23 -60q41 -4 62.5 -25t21.5 -57q0 -40 -26 -62t-72 -22q-51 0 -83 23z" />
<glyph unicode="&#x160;" horiz-adv-x="429" d="M46 79q70 -41 135 -41q69 0 110 39.5t41 106.5q0 55 -27 89t-93 62l-24 10q-66 27 -99.5 74.5t-33.5 113.5q0 80 50 128.5t131 48.5q70 0 134 -40l-15 -42q-65 34 -119 34q-57 0 -92.5 -34.5t-35.5 -94.5q0 -55 27 -89t93 -62l24 -10q66 -27 99.5 -74.5t33.5 -113.5 q0 -89 -55.5 -141.5t-147.5 -52.5q-83 0 -151 47zM198 770l-96 109h54l74 -71l74 71h54l-96 -109h-64z" />
<glyph unicode="&#x161;" horiz-adv-x="364" d="M41 67q27 -15 59.5 -24t60.5 -9q52 0 82.5 26.5t30.5 72.5q0 40 -18 62t-69 42l-18 7q-71 28 -98.5 60.5t-27.5 86.5q0 60 42 97.5t108 37.5q55 0 116 -29l-15 -38q-50 23 -99 23q-46 0 -74 -24.5t-28 -64.5t18 -62t69 -42l18 -7q71 -28 98.5 -60.5t27.5 -86.5 q0 -65 -44 -105t-117 -40q-70 0 -137 39zM161 611l-96 139h50l74 -96l74 96h50l-96 -139h-56z" />
<glyph unicode="&#x162;" horiz-adv-x="459" d="M204 0v653h-176v47h403v-47h-176v-653h-51zM146 -164q37 -19 71 -19q24 0 37.5 12t13.5 32q0 21 -17.5 32t-50.5 11h-32l38 98h48l-23 -59q84 -9 84 -82q0 -40 -25 -62.5t-73 -22.5t-85 23z" />
<glyph unicode="&#x163;" horiz-adv-x="319" d="M298 13q-44 -23 -89 -23q-62 0 -91 41.5t-29 128.5v315h-75v41h77l9 151h38v-151h140v-41h-140v-310q0 -73 17.5 -102t61.5 -29q33 0 69 18zM108 -166q33 -19 70 -19q25 0 39 11.5t14 33.5q0 45 -69 45h-31l38 97h46l-23 -60q41 -4 62.5 -25t21.5 -57q0 -40 -26 -62 t-72 -22q-51 0 -83 23z" />
<glyph unicode="&#x174;" horiz-adv-x="690" d="M467 0l-122 555l-122 -555h-57l-126 700h52l104 -620l124 560h53l122 -559l105 619h50l-126 -700h-57zM419 770l-74 71l-74 -71h-54l96 109h64l96 -109h-54z" />
<glyph unicode="&#x175;" horiz-adv-x="595" d="M391 0l-94 425l-93 -425h-47l-130 516h52l101 -446l94 427h49l94 -427l101 446h50l-130 -516h-47zM371 611l-74 96l-74 -96h-50l96 139h56l96 -139h-50z" />
<glyph unicode="&#x176;" horiz-adv-x="453" d="M201 0v284l-174 416h54l146 -361l147 361h52l-174 -416v-284h-51zM300 770l-74 71l-74 -71h-54l96 109h64l96 -109h-54z" />
<glyph unicode="&#x177;" horiz-adv-x="401" d="M28 -173q22 -9 42 -9q37 0 60.5 40t49.5 149l-157 509h53l127 -445l124 445h51l-166 -565q-19 -65 -37.5 -103.5t-41.5 -56t-56 -17.5t-59 14zM274 611l-74 96l-74 -96h-50l96 139h56l96 -139h-50z" />
<glyph unicode="&#x178;" horiz-adv-x="453" d="M201 0v284l-174 416h54l146 -361l147 361h52l-174 -416v-284h-51zM189 824q0 -17 -11 -27.5t-30 -10.5t-30 10.5t-11 27.5t11 27.5t30 10.5t30 -10.5t11 -27.5zM345 824q0 -17 -11 -27.5t-30 -10.5t-30 10.5t-11 27.5t11 27.5t30 10.5t30 -10.5t11 -27.5z" />
<glyph unicode="&#x17d;" horiz-adv-x="423" d="M28 0v44l301 609h-288v47h343v-44l-301 -609h312v-47h-367zM180 770l-96 109h54l74 -71l74 71h54l-96 -109h-64z" />
<glyph unicode="&#x17e;" horiz-adv-x="350" d="M28 0v36l235 439h-228v41h280v-36l-235 -439h242v-41h-294zM147 611l-96 139h50l74 -96l74 96h50l-96 -139h-56z" />
<glyph unicode="&#x218;" horiz-adv-x="429" d="M46 79q70 -41 135 -41q69 0 110 39.5t41 106.5q0 55 -27 89t-93 62l-24 10q-66 27 -99.5 74.5t-33.5 113.5q0 80 50 128.5t131 48.5q70 0 134 -40l-15 -42q-65 34 -119 34q-57 0 -92.5 -34.5t-35.5 -94.5q0 -55 27 -89t93 -62l24 -10q66 -27 99.5 -74.5t33.5 -113.5 q0 -89 -55.5 -141.5t-147.5 -52.5q-83 0 -151 47zM156 -218q34 42 40 76q-32 5 -32 36q0 15 10.5 25t27.5 10q18 0 30 -13t12 -34q0 -26 -17.5 -59t-46.5 -62z" />
<glyph unicode="&#x219;" horiz-adv-x="364" d="M41 67q27 -15 59.5 -24t60.5 -9q52 0 82.5 26.5t30.5 72.5q0 40 -18 62t-69 42l-18 7q-71 28 -98.5 60.5t-27.5 86.5q0 60 42 97.5t108 37.5q55 0 116 -29l-15 -38q-50 23 -99 23q-46 0 -74 -24.5t-28 -64.5t18 -62t69 -42l18 -7q71 -28 98.5 -60.5t27.5 -86.5 q0 -65 -44 -105t-117 -40q-70 0 -137 39zM125 -218q35 43 41 78q-15 2 -24 11t-9 23q0 15 10 25t27 10q18 0 29.5 -13t11.5 -34q0 -26 -17 -58.5t-46 -61.5z" />
<glyph unicode="&#x21a;" horiz-adv-x="459" d="M204 0v653h-176v47h403v-47h-176v-653h-51zM183 -218q34 42 40 76q-32 5 -32 36q0 15 10.5 25t27.5 10q18 0 30 -13t12 -34q0 -26 -17.5 -59t-46.5 -62z" />
<glyph unicode="&#x21b;" horiz-adv-x="319" d="M298 13q-44 -23 -89 -23q-62 0 -91 41.5t-29 128.5v315h-75v41h77l9 151h38v-151h140v-41h-140v-310q0 -73 17.5 -102t61.5 -29q33 0 69 18zM146 -218q35 43 41 78q-15 2 -24 11t-9 23q0 15 10 25t27 10q18 0 29.5 -13t11.5 -34q0 -26 -17 -58.5t-46 -61.5z" />
<glyph unicode="&#x237;" horiz-adv-x="189" d="M-29 -175q22 -8 38 -8q34 0 47.5 22.5t13.5 75.5v601h49v-599q0 -73 -24 -108t-75 -35q-34 0 -59 13z" />
<glyph unicode="&#x2c6;" horiz-adv-x="463" d="M305 611l-74 96l-74 -96h-50l96 139h56l96 -139h-50z" />
<glyph unicode="&#x2c7;" horiz-adv-x="463" d="M203 611l-96 139h50l74 -96l74 96h50l-96 -139h-56z" />
<glyph unicode="&#x2cb;" horiz-adv-x="463" d="M261 611l-110 139h64l96 -139h-50z" />
<glyph unicode="&#x2d8;" horiz-adv-x="463" d="M345 721q-3 -51 -34 -82t-80 -31t-80 31t-34 82h43q14 -70 71 -70t71 70h43z" />
<glyph unicode="&#x2da;" horiz-adv-x="463" d="M231 625q25 0 41.5 17.5t16.5 43.5t-16.5 43.5t-41.5 17.5t-41.5 -17.5t-16.5 -43.5t16.5 -43.5t41.5 -17.5zM231 588q-44 0 -72 27.5t-28 70.5t28 70.5t72 27.5t72 -27.5t28 -70.5t-28 -70.5t-72 -27.5z" />
<glyph unicode="&#x2dc;" horiz-adv-x="463" d="M366 727q-2 -53 -20 -78t-53 -25q-19 0 -35 8.5t-51 35.5q-22 18 -36 18q-15 0 -22 -13.5t-10 -46.5h-43q2 53 20 78t53 25q19 0 35 -8.5t51 -35.5q22 -18 36 -18q15 0 22 13.5t10 46.5h43z" />
<glyph unicode="&#x300;" horiz-adv-x="0" d="M-19 611l-110 139h64l96 -139h-50z" />
<glyph unicode="&#x301;" horiz-adv-x="0" d="M-31 611l96 139h64l-110 -139h-50z" />
<glyph unicode="&#x302;" horiz-adv-x="0" d="M74 611l-74 96l-74 -96h-50l96 139h56l96 -139h-50z" />
<glyph unicode="&#x303;" horiz-adv-x="0" d="M135 727q-2 -53 -20 -78t-53 -25q-19 0 -35 8.5t-51 35.5q-22 18 -36 18q-15 0 -22 -13.5t-10 -46.5h-43q2 53 20 78t53 25q19 0 35 -8.5t51 -35.5q22 -18 36 -18q15 0 22 13.5t10 46.5h43z" />
<glyph unicode="&#x306;" horiz-adv-x="0" d="M114 721q-3 -51 -34 -82t-80 -31t-80 31t-34 82h43q14 -70 71 -70t71 70h43z" />
<glyph unicode="&#x308;" horiz-adv-x="0" d="M-38 681q0 -17 -11 -27t-29 -10t-29 10t-11 27t11 27t29 10t29 -10t11 -27zM118 681q0 -17 -11 -27t-29 -10t-29 10t-11 27t11 27t29 10t29 -10t11 -27z" />
<glyph unicode="&#x30a;" horiz-adv-x="0" d="M0 625q25 0 41.5 17.5t16.5 43.5t-16.5 43.5t-41.5 17.5t-41.5 -17.5t-16.5 -43.5t16.5 -43.5t41.5 -17.5zM0 588q-44 0 -72 27.5t-28 70.5t28 70.5t72 27.5t72 -27.5t28 -70.5t-28 -70.5t-72 -27.5z" />
<glyph unicode="&#x30c;" horiz-adv-x="0" d="M-28 611l-96 139h50l74 -96l74 96h50l-96 -139h-56z" />
<glyph unicode="&#x326;" horiz-adv-x="0" d="M-45 -218q35 43 41 78q-15 2 -24 11t-9 23q0 15 10 25t27 10q18 0 29.5 -13t11.5 -34q0 -26 -17 -58.5t-46 -61.5z" />
<glyph unicode="&#x327;" horiz-adv-x="0" d="M-83 -166q33 -19 70 -19q25 0 39 11.5t14 33.5q0 45 -69 45h-31l38 97h46l-23 -60q41 -4 62.5 -25t21.5 -57q0 -40 -26 -62t-72 -22q-51 0 -83 23z" />
<glyph unicode="&#x1e80;" horiz-adv-x="690" d="M467 0l-122 555l-122 -555h-57l-126 700h52l104 -620l124 560h53l122 -559l105 619h50l-126 -700h-57zM324 770l-114 109h72l96 -109h-54z" />
<glyph unicode="&#x1e81;" horiz-adv-x="595" d="M391 0l-94 425l-93 -425h-47l-130 516h52l101 -446l94 427h49l94 -427l101 446h50l-130 -516h-47zM278 611l-110 139h64l96 -139h-50z" />
<glyph unicode="&#x1e82;" horiz-adv-x="690" d="M467 0l-122 555l-122 -555h-57l-126 700h52l104 -620l124 560h53l122 -559l105 619h50l-126 -700h-57zM366 770h-54l96 109h72z" />
<glyph unicode="&#x1e83;" horiz-adv-x="595" d="M391 0l-94 425l-93 -425h-47l-130 516h52l101 -446l94 427h49l94 -427l101 446h50l-130 -516h-47zM266 611l96 139h64l-110 -139h-50z" />
<glyph unicode="&#x1e84;" horiz-adv-x="690" d="M467 0l-122 555l-122 -555h-57l-126 700h52l104 -620l124 560h53l122 -559l105 619h50l-126 -700h-57zM308 824q0 -17 -11 -27.5t-30 -10.5t-30 10.5t-11 27.5t11 27.5t30 10.5t30 -10.5t11 -27.5zM464 824q0 -17 -11 -27.5t-30 -10.5t-30 10.5t-11 27.5t11 27.5t30 10.5 t30 -10.5t11 -27.5z" />
<glyph unicode="&#x1e85;" horiz-adv-x="595" d="M391 0l-94 425l-93 -425h-47l-130 516h52l101 -446l94 427h49l94 -427l101 446h50l-130 -516h-47zM259 681q0 -17 -11 -27t-29 -10t-29 10t-11 27t11 27t29 10t29 -10t11 -27zM415 681q0 -17 -11 -27t-29 -10t-29 10t-11 27t11 27t29 10t29 -10t11 -27z" />
<glyph unicode="&#x1e9e;" horiz-adv-x="540" d="M210 63q44 -25 96 -25q60 0 98.5 45t38.5 115q0 69 -40.5 109t-110.5 40q-25 0 -39 -2v45l163 229q-61 43 -129 43q-84 0 -125 -53t-41 -162v-447h-51v447q0 133 53.5 198t163.5 65q44 0 90.5 -17.5t81.5 -47.5v-45l-149 -207q85 -5 135.5 -58t50.5 -137 q0 -62 -25 -109.5t-68 -73t-97 -25.5q-61 0 -111 31z" />
<glyph unicode="&#x1ef2;" horiz-adv-x="453" d="M201 0v284l-174 416h54l146 -361l147 361h52l-174 -416v-284h-51zM205 770l-114 109h72l96 -109h-54z" />
<glyph unicode="&#x1ef3;" horiz-adv-x="401" d="M28 -173q22 -9 42 -9q37 0 60.5 40t49.5 149l-157 509h53l127 -445l124 445h51l-166 -565q-19 -65 -37.5 -103.5t-41.5 -56t-56 -17.5t-59 14zM181 611l-110 139h64l96 -139h-50z" />
<glyph unicode="&#x2000;" horiz-adv-x="370" />
<glyph unicode="&#x2001;" horiz-adv-x="740" />
<glyph unicode="&#x2002;" horiz-adv-x="370" />
<glyph unicode="&#x2003;" horiz-adv-x="740" />
<glyph unicode="&#x2004;" horiz-adv-x="247" />
<glyph unicode="&#x2005;" horiz-adv-x="185" />
<glyph unicode="&#x2006;" horiz-adv-x="123" />
<glyph unicode="&#x2007;" horiz-adv-x="490" />
<glyph unicode="&#x2008;" horiz-adv-x="174" />
<glyph unicode="&#x2009;" horiz-adv-x="148" />
<glyph unicode="&#x200a;" horiz-adv-x="55" />
<glyph unicode="&#x200b;" horiz-adv-x="0" />
<glyph unicode="&#x2013;" horiz-adv-x="370" d="M0 253v41h370v-41h-370z" />
<glyph unicode="&#x2014;" horiz-adv-x="740" d="M0 253v41h740v-41h-740z" />
<glyph unicode="&#x2018;" horiz-adv-x="149" d="M135 698q-54 -48 -61 -100q16 -2 26 -12t10 -25q0 -16 -11 -27t-26 -11q-19 0 -31 13t-12 34q0 37 23 77.5t62 72.5z" />
<glyph unicode="&#x2019;" horiz-adv-x="149" d="M14 535q54 48 61 100q-16 2 -26 12t-10 25q0 16 11 27t26 11q19 0 31 -13t12 -34q0 -37 -23 -77.5t-62 -72.5z" />
<glyph unicode="&#x201a;" horiz-adv-x="149" d="M14 -107q54 48 61 100q-16 2 -26 12t-10 25q0 16 11 27t26 11q19 0 31 -13t12 -34q0 -37 -23 -77.5t-62 -72.5z" />
<glyph unicode="&#x201c;" horiz-adv-x="274" d="M135 698q-54 -48 -61 -100q16 -2 26 -12t10 -25q0 -16 -11 -27t-26 -11q-19 0 -31 13t-12 34q0 37 23 77.5t62 72.5zM260 698q-54 -48 -61 -100q16 -2 26 -12t10 -25q0 -16 -11 -27t-26 -11q-19 0 -31 13t-12 34q0 37 23 77.5t62 72.5z" />
<glyph unicode="&#x201d;" horiz-adv-x="274" d="M14 535q54 48 61 100q-16 2 -26 12t-10 25q0 16 11 27t26 11q19 0 31 -13t12 -34q0 -37 -23 -77.5t-62 -72.5zM139 535q54 48 61 100q-16 2 -26 12t-10 25q0 16 11 27t26 11q19 0 31 -13t12 -34q0 -37 -23 -77.5t-62 -72.5z" />
<glyph unicode="&#x201e;" horiz-adv-x="274" d="M14 -107q54 48 61 100q-16 2 -26 12t-10 25q0 16 11 27t26 11q19 0 31 -13t12 -34q0 -37 -23 -77.5t-62 -72.5zM139 -107q54 48 61 100q-16 2 -26 12t-10 25q0 16 11 27t26 11q19 0 31 -13t12 -34q0 -37 -23 -77.5t-62 -72.5z" />
<glyph unicode="&#x2020;" horiz-adv-x="379" d="M165 -116v558h-125v43h125v245h49v-245h125v-43h-125v-558h-49z" />
<glyph unicode="&#x2021;" horiz-adv-x="379" d="M165 -116v245h-125v43h125v270h-125v43h125v245h49v-245h125v-43h-125v-270h125v-43h-125v-245h-49z" />
<glyph unicode="&#x2022;" horiz-adv-x="234" d="M198 288q0 -32 -23.5 -55t-57.5 -23t-57.5 23t-23.5 55t23.5 55t57.5 23t57.5 -23t23.5 -55z" />
<glyph unicode="&#x2026;" horiz-adv-x="740" d="M164 29q0 -16 -11.5 -27.5t-29.5 -11.5t-29.5 11.5t-11.5 27.5t11.5 27.5t29.5 11.5t29.5 -11.5t11.5 -27.5zM411 29q0 -16 -11.5 -27.5t-29.5 -11.5t-29.5 11.5t-11.5 27.5t11.5 27.5t29.5 11.5t29.5 -11.5t11.5 -27.5zM658 29q0 -16 -11.5 -27.5t-29.5 -11.5 t-29.5 11.5t-11.5 27.5t11.5 27.5t29.5 11.5t29.5 -11.5t11.5 -27.5z" />
<glyph unicode="&#x2032;" horiz-adv-x="168" d="M37 505l34 195h60l-54 -195h-40z" />
<glyph unicode="&#x2033;" horiz-adv-x="306" d="M37 505l34 195h60l-54 -195h-40zM175 505l34 195h60l-54 -195h-40z" />
<glyph unicode="&#x2039;" horiz-adv-x="226" d="M139 107l-112 173l112 173h51l-111 -173l111 -173h-51z" />
<glyph unicode="&#x203a;" horiz-adv-x="226" d="M36 107l111 173l-111 173h51l112 -173l-112 -173h-51z" />
<glyph unicode="&#x2044;" horiz-adv-x="83" d="M-160 0l355 690h48l-355 -690h-48z" />
<glyph unicode="&#x2070;" d="M256 623q0 75 -20 115t-57 40t-57 -40t-20 -115v-16q0 -75 20 -115t57 -40t57 40t20 115v16zM303 607q0 -94 -32.5 -145.5t-91.5 -51.5t-91.5 51.5t-32.5 145.5v16q0 94 32.5 145.5t91.5 51.5t91.5 -51.5t32.5 -145.5v-16z" />
<glyph unicode="&#x2074;" d="M222 420v89h-174v39l177 262h40v-261h39v-40h-39v-89h-43zM222 549v190l-129 -190h129z" />
<glyph unicode="&#x2075;" d="M266 767h-144l-6 -114q12 1 23 1.5t21 0.5q57 0 91.5 -33.5t34.5 -89.5t-33.5 -89t-90.5 -33t-104 33l17 36q40 -27 83 -27q82 0 82 80q0 41 -22.5 62t-65.5 21q-52 0 -77 -1l11 196h180v-43z" />
<glyph unicode="&#x2076;" d="M273 761q-31 17 -64 17q-47 0 -72 -32t-30 -97q38 9 72 9q58 0 91.5 -32t33.5 -89t-32.5 -92t-85.5 -35q-61 0 -93.5 47t-32.5 135v14q0 102 37 158t106 56q46 0 82 -22zM106 590q0 -68 20.5 -103t60.5 -35q33 0 52 22t19 61q0 83 -87 83q-31 0 -65 -8v-20z" />
<glyph unicode="&#x2077;" d="M110 420v5q0 46 9.5 84.5t31 87t57.5 111.5l34 59h-165v43h211v-39l-46 -85q-31 -57 -50 -100.5t-27.5 -79t-8.5 -81.5v-5h-46z" />
<glyph unicode="&#x2078;" d="M55 524q0 34 17 60t49 40q-54 29 -54 91q0 48 30 76.5t79 28.5q50 0 81.5 -30t31.5 -76q0 -59 -53 -91q67 -30 67 -96q0 -52 -35 -84.5t-90 -32.5q-57 0 -90 30.5t-33 83.5zM155 611q-26 -12 -40.5 -34.5t-14.5 -51.5q0 -35 21 -55t57 -20q37 0 58.5 21.5t21.5 56.5 q0 28 -14 44.5t-44 25.5zM111 714q0 -53 61 -70l31 -9q42 31 42 78q0 30 -19 48.5t-50 18.5q-30 0 -47.5 -17.5t-17.5 -48.5z" />
<glyph unicode="&#x2079;" d="M298 624q0 -105 -36.5 -159.5t-106.5 -54.5q-24 0 -47.5 6t-39.5 16l12 37q31 -17 69 -17q49 0 73 31t28 98q-37 -9 -71 -9q-58 0 -91.5 32t-33.5 89t32.5 92t85.5 35q61 0 93.5 -47t32.5 -135v-14zM187 612q36 0 65 7v21q0 68 -20.5 103t-60.5 35q-33 0 -52 -22t-19 -61 q0 -83 87 -83z" />
<glyph unicode="&#x2080;" d="M256 83q0 75 -20 115t-57 40t-57 -40t-20 -115v-16q0 -75 20 -115t57 -40t57 40t20 115v16zM303 67q0 -94 -32.5 -145.5t-91.5 -51.5t-91.5 51.5t-32.5 145.5v16q0 94 32.5 145.5t91.5 51.5t91.5 -51.5t32.5 -145.5v-16z" />
<glyph unicode="&#x2081;" d="M187 -120v333l-81 -69l-24 33l110 93h41v-390h-46z" />
<glyph unicode="&#x2082;" d="M75 -120v20q0 46 6 72.5t24 50t64 59.5q42 33 55.5 52.5t13.5 46.5q0 26 -18 41.5t-47 15.5q-38 0 -78 -28l-21 34q47 36 105 36q46 0 75.5 -28.5t29.5 -71.5q0 -35 -18.5 -61.5t-72.5 -68.5q-45 -35 -57 -57.5t-14 -69.5h162v-43h-209z" />
<glyph unicode="&#x2083;" d="M75 -62q42 -26 82 -26q39 0 60.5 19t21.5 53q0 36 -23.5 58t-61.5 22h-45v40h43q35 0 56 19t21 52q0 31 -17.5 47t-50.5 16q-38 0 -79 -26l-19 35q47 33 101 33q50 0 80.5 -28.5t30.5 -74.5q0 -30 -17.5 -54t-48.5 -37q36 -13 56 -40.5t20 -63.5q0 -49 -34.5 -80.5 t-89.5 -31.5q-60 0 -104 33z" />
<glyph unicode="&#x2084;" d="M222 -120v89h-174v39l177 262h40v-261h39v-40h-39v-89h-43zM222 9v190l-129 -190h129z" />
<glyph unicode="&#x2085;" d="M266 227h-144l-6 -114q12 1 23 1.5t21 0.5q57 0 91.5 -33.5t34.5 -89.5t-33.5 -89t-90.5 -33t-104 33l17 36q40 -27 83 -27q82 0 82 80q0 41 -22.5 62t-65.5 21q-52 0 -77 -1l11 196h180v-43z" />
<glyph unicode="&#x2086;" d="M273 221q-31 17 -64 17q-47 0 -72 -32t-30 -97q38 9 72 9q58 0 91.5 -32t33.5 -89t-32.5 -92t-85.5 -35q-61 0 -93.5 47t-32.5 135v14q0 102 37 158t106 56q46 0 82 -22zM106 50q0 -68 20.5 -103t60.5 -35q33 0 52 22t19 61q0 83 -87 83q-31 0 -65 -8v-20z" />
<glyph unicode="&#x2087;" d="M110 -120v5q0 46 9.5 84.5t31 87t57.5 111.5l34 59h-165v43h211v-39l-46 -85q-31 -57 -50 -100.5t-27.5 -79t-8.5 -81.5v-5h-46z" />
<glyph unicode="&#x2088;" d="M55 -16q0 34 17 60t49 40q-54 29 -54 91q0 48 30 76.5t79 28.5q50 0 81.5 -30t31.5 -76q0 -59 -53 -91q67 -30 67 -96q0 -52 -35 -84.5t-90 -32.5q-57 0 -90 30.5t-33 83.5zM155 71q-26 -12 -40.5 -34.5t-14.5 -51.5q0 -35 21 -55t57 -20q37 0 58.5 21.5t21.5 56.5 q0 28 -14 44.5t-44 25.5zM111 174q0 -53 61 -70l31 -9q42 31 42 78q0 30 -19 48.5t-50 18.5q-30 0 -47.5 -17.5t-17.5 -48.5z" />
<glyph unicode="&#x2089;" d="M298 84q0 -105 -36.5 -159.5t-106.5 -54.5q-24 0 -47.5 6t-39.5 16l12 37q31 -17 69 -17q49 0 73 31t28 98q-37 -9 -71 -9q-58 0 -91.5 32t-33.5 89t32.5 92t85.5 35q61 0 93.5 -47t32.5 -135v-14zM187 72q36 0 65 7v21q0 68 -20.5 103t-60.5 35q-33 0 -52 -22t-19 -61 q0 -83 87 -83z" />
<glyph unicode="&#x20ac;" horiz-adv-x="490" d="M153 247q17 -101 65 -156.5t118 -55.5q57 0 111 26l14 -40q-56 -31 -128 -31q-95 0 -155.5 66.5t-77.5 190.5h-66l8 44h54q-2 34 -2 54q0 37 2 55h-62l8 44h59q18 122 79 189t153 67q65 0 120 -31l-14 -40q-23 12 -51.5 19t-53.5 7q-69 0 -116.5 -55.5t-64.5 -155.5h223 l-8 -44h-220q-2 -18 -2 -55t2 -54h204l-8 -44h-191z" />
<glyph unicode="&#x20ba;" horiz-adv-x="490" d="M155 237v-191h32q100 0 152.5 60t52.5 175h50q0 -140 -64.5 -210.5t-190.5 -70.5h-82v213l-72 -35v46l72 35v109l-72 -35v46l72 35v276h50v-252l148 72v-46l-148 -72v-109l148 72v-46z" />
<glyph unicode="&#x20bd;" horiz-adv-x="490" d="M126 0v132h-90v44h90v108h-90v44h90v362h134q87 0 136.5 -55t49.5 -148t-49.5 -148t-136.5 -55h-84v-108h161v-44h-161v-132h-50zM176 328h84q63 0 98.5 42.5t35.5 116.5t-35.5 116.5t-98.5 42.5h-84v-318z" />
<glyph unicode="&#x2122;" horiz-adv-x="626" d="M555 316v286l-88 -237h-39l-88 237v-286h-44v384h53l99 -275l99 275h52v-384h-44zM102 316v340h-94v44h234v-44h-94v-340h-46z" />
<glyph unicode="&#x2212;" horiz-adv-x="490" d="M61 322v45h367v-45h-367z" />
<glyph unicode="&#x25fc;" horiz-adv-x="515" d="M0 515h515v-515h-515v515z" />
<glyph unicode="&#xfeff;" horiz-adv-x="0" />
<glyph horiz-adv-x="490" d="M374 352q0 150 -32.5 226.5t-96.5 76.5t-96.5 -76.5t-32.5 -226.5v-14q0 -150 32.5 -226.5t96.5 -76.5t96.5 76.5t32.5 226.5v14zM425 338q0 -175 -44.5 -261.5t-135.5 -86.5t-135.5 86.5t-44.5 261.5v14q0 175 44.5 261.5t135.5 86.5t135.5 -86.5t44.5 -261.5v-14z" />
<glyph horiz-adv-x="490" d="M118 0v46h131v582l-126 -107l-27 35l157 134h46v-644h123v-46h-304z" />
<glyph horiz-adv-x="490" d="M93 0v34q0 82 8.5 131t31.5 87.5t76 85.5q78 69 106.5 111.5t28.5 87.5q0 55 -30 86.5t-82 31.5q-57 0 -116 -49l-25 36q29 27 68 42.5t80 15.5q71 0 113.5 -44t42.5 -119q0 -55 -32 -103.5t-124 -130.5q-39 -35 -59 -66.5t-28.5 -74t-8.5 -116.5h251v-46h-301z" />
<glyph horiz-adv-x="490" d="M91 70q53 -35 112 -35q62 0 102.5 43.5t40.5 111.5q0 73 -40.5 111.5t-116.5 38.5h-38v44h38q63 0 101.5 40t38.5 105q0 57 -32.5 91.5t-85.5 34.5q-30 0 -57 -9.5t-56 -30.5l-23 36q64 49 140 49q71 0 118 -48t47 -123q0 -58 -28 -101t-79 -63q61 -18 92.5 -63 t31.5 -112q0 -88 -53.5 -144t-138.5 -56q-72 0 -134 41z" />
<glyph horiz-adv-x="490" d="M314 0v178h-264v42l260 470h53v-468h64v-44h-64v-178h-49zM314 222v386l-214 -386h214z" />
<glyph horiz-adv-x="490" d="M102 70q53 -35 111 -35q67 0 105.5 45t38.5 123q0 77 -42 117.5t-120 40.5q-50 0 -80 -1l18 330h231v-46h-189l-14 -238h58q86 0 137.5 -55t51.5 -149q0 -97 -52.5 -154.5t-140.5 -57.5q-71 0 -133 41z" />
<glyph horiz-adv-x="490" d="M285 655q-137 0 -153 -252q62 10 113 10q190 0 190 -204q0 -102 -47 -160.5t-128 -58.5q-181 0 -181 315v21q0 374 206 374q63 0 120 -33l-17 -41q-50 29 -103 29zM130 305q0 -270 130 -270q58 0 91 45.5t33 126.5q0 85 -36 124t-115 39q-48 0 -103 -10v-55z" />
<glyph horiz-adv-x="490" d="M154 0v7q0 73 7.5 123t27.5 112t60 157l103 245h-261v46h311v-43l-104 -248q-36 -85 -56.5 -146t-29 -113t-8.5 -133v-7h-50z" />
<glyph horiz-adv-x="490" d="M409 523q0 -51 -23.5 -93t-68.5 -70q52 -25 79 -71.5t27 -108.5q0 -87 -48.5 -138.5t-129.5 -51.5t-129.5 51.5t-48.5 138.5q0 59 29.5 107t81.5 74q-46 22 -71.5 64.5t-25.5 97.5q0 79 45.5 128t118.5 49t118.5 -49t45.5 -128zM221 347q-50 -25 -76.5 -68t-26.5 -99 q0 -67 34 -106.5t93 -39.5t93 39.5t34 106.5q0 62 -30.5 104.5t-85.5 54.5zM131 523q0 -53 27.5 -89.5t76.5 -48.5l41 -10q39 24 61 63t22 85q0 59 -31.5 96t-82.5 37t-82.5 -37t-31.5 -96z" />
<glyph horiz-adv-x="490" d="M97 64q23 -13 52 -21t56 -8q75 0 111 59.5t42 194.5q-55 -9 -113 -9q-96 0 -143 50.5t-47 152.5q0 101 46.5 159t128.5 58q181 0 181 -315v-21q0 -197 -49 -285.5t-157 -88.5q-32 0 -65 8.5t-60 24.5zM257 323q54 0 103 9v53q0 270 -130 270q-59 0 -91.5 -45t-32.5 -125 q0 -85 36 -123.5t115 -38.5z" />
<glyph d="M256 203q0 75 -20 115t-57 40t-57 -40t-20 -115v-16q0 -75 20 -115t57 -40t57 40t20 115v16zM303 187q0 -94 -32.5 -145.5t-91.5 -51.5t-91.5 51.5t-32.5 145.5v16q0 94 32.5 145.5t91.5 51.5t91.5 -51.5t32.5 -145.5v-16z" />
<glyph d="M187 0v333l-81 -69l-24 33l110 93h41v-390h-46z" />
<glyph d="M75 0v20q0 46 6 72.5t24 50t64 59.5q42 33 55.5 52.5t13.5 46.5q0 26 -18 41.5t-47 15.5q-38 0 -78 -28l-21 34q47 36 105 36q46 0 75.5 -28.5t29.5 -71.5q0 -35 -18.5 -61.5t-72.5 -68.5q-45 -35 -57 -57.5t-14 -69.5h162v-43h-209z" />
<glyph d="M75 58q42 -26 82 -26q39 0 60.5 19t21.5 53q0 36 -23.5 58t-61.5 22h-45v40h43q35 0 56 19t21 52q0 31 -17.5 47t-50.5 16q-38 0 -79 -26l-19 35q47 33 101 33q50 0 80.5 -28.5t30.5 -74.5q0 -30 -17.5 -54t-48.5 -37q36 -13 56 -40.5t20 -63.5q0 -49 -34.5 -80.5 t-89.5 -31.5q-60 0 -104 33z" />
<glyph d="M222 0v89h-174v39l177 262h40v-261h39v-40h-39v-89h-43zM222 129v190l-129 -190h129z" />
<glyph d="M266 347h-144l-6 -114q12 1 23 1.5t21 0.5q57 0 91.5 -33.5t34.5 -89.5t-33.5 -89t-90.5 -33t-104 33l17 36q40 -27 83 -27q82 0 82 80q0 41 -22.5 62t-65.5 21q-52 0 -77 -1l11 196h180v-43z" />
<glyph d="M273 341q-31 17 -64 17q-47 0 -72 -32t-30 -97q38 9 72 9q58 0 91.5 -32t33.5 -89t-32.5 -92t-85.5 -35q-61 0 -93.5 47t-32.5 135v14q0 102 37 158t106 56q46 0 82 -22zM106 170q0 -68 20.5 -103t60.5 -35q33 0 52 22t19 61q0 83 -87 83q-31 0 -65 -8v-20z" />
<glyph d="M110 0v5q0 46 9.5 84.5t31 87t57.5 111.5l34 59h-165v43h211v-39l-46 -85q-31 -57 -50 -100.5t-27.5 -79t-8.5 -81.5v-5h-46z" />
<glyph d="M55 104q0 34 17 60t49 40q-54 29 -54 91q0 48 30 76.5t79 28.5q50 0 81.5 -30t31.5 -76q0 -59 -53 -91q67 -30 67 -96q0 -52 -35 -84.5t-90 -32.5q-57 0 -90 30.5t-33 83.5zM155 191q-26 -12 -40.5 -34.5t-14.5 -51.5q0 -35 21 -55t57 -20q37 0 58.5 21.5t21.5 56.5 q0 28 -14 44.5t-44 25.5zM111 294q0 -53 61 -70l31 -9q42 31 42 78q0 30 -19 48.5t-50 18.5q-30 0 -47.5 -17.5t-17.5 -48.5z" />
<glyph d="M298 204q0 -105 -36.5 -159.5t-106.5 -54.5q-24 0 -47.5 6t-39.5 16l12 37q31 -17 69 -17q49 0 73 31t28 98q-37 -9 -71 -9q-58 0 -91.5 32t-33.5 89t32.5 92t85.5 35q61 0 93.5 -47t32.5 -135v-14zM187 192q36 0 65 7v21q0 68 -20.5 103t-60.5 35q-33 0 -52 -22t-19 -61 q0 -83 87 -83z" />
<glyph d="M256 503q0 75 -20 115t-57 40t-57 -40t-20 -115v-16q0 -75 20 -115t57 -40t57 40t20 115v16zM303 487q0 -94 -32.5 -145.5t-91.5 -51.5t-91.5 51.5t-32.5 145.5v16q0 94 32.5 145.5t91.5 51.5t91.5 -51.5t32.5 -145.5v-16z" />
<glyph d="M187 300v333l-81 -69l-24 33l110 93h41v-390h-46z" />
<glyph d="M75 300v20q0 46 6 72.5t24 50t64 59.5q42 33 55.5 52.5t13.5 46.5q0 26 -18 41.5t-47 15.5q-38 0 -78 -28l-21 34q47 36 105 36q46 0 75.5 -28.5t29.5 -71.5q0 -35 -18.5 -61.5t-72.5 -68.5q-45 -35 -57 -57.5t-14 -69.5h162v-43h-209z" />
<glyph d="M75 358q42 -26 82 -26q39 0 60.5 19t21.5 53q0 36 -23.5 58t-61.5 22h-45v40h43q35 0 56 19t21 52q0 31 -17.5 47t-50.5 16q-38 0 -79 -26l-19 35q47 33 101 33q50 0 80.5 -28.5t30.5 -74.5q0 -30 -17.5 -54t-48.5 -37q36 -13 56 -40.5t20 -63.5q0 -49 -34.5 -80.5 t-89.5 -31.5q-60 0 -104 33z" />
<glyph d="M222 300v89h-174v39l177 262h40v-261h39v-40h-39v-89h-43zM222 429v190l-129 -190h129z" />
<glyph d="M266 647h-144l-6 -114q12 1 23 1.5t21 0.5q57 0 91.5 -33.5t34.5 -89.5t-33.5 -89t-90.5 -33t-104 33l17 36q40 -27 83 -27q82 0 82 80q0 41 -22.5 62t-65.5 21q-52 0 -77 -1l11 196h180v-43z" />
<glyph d="M273 641q-31 17 -64 17q-47 0 -72 -32t-30 -97q38 9 72 9q58 0 91.5 -32t33.5 -89t-32.5 -92t-85.5 -35q-61 0 -93.5 47t-32.5 135v14q0 102 37 158t106 56q46 0 82 -22zM106 470q0 -68 20.5 -103t60.5 -35q33 0 52 22t19 61q0 83 -87 83q-31 0 -65 -8v-20z" />
<glyph d="M110 300v5q0 46 9.5 84.5t31 87t57.5 111.5l34 59h-165v43h211v-39l-46 -85q-31 -57 -50 -100.5t-27.5 -79t-8.5 -81.5v-5h-46z" />
<glyph d="M55 404q0 34 17 60t49 40q-54 29 -54 91q0 48 30 76.5t79 28.5q50 0 81.5 -30t31.5 -76q0 -59 -53 -91q67 -30 67 -96q0 -52 -35 -84.5t-90 -32.5q-57 0 -90 30.5t-33 83.5zM155 491q-26 -12 -40.5 -34.5t-14.5 -51.5q0 -35 21 -55t57 -20q37 0 58.5 21.5t21.5 56.5 q0 28 -14 44.5t-44 25.5zM111 594q0 -53 61 -70l31 -9q42 31 42 78q0 30 -19 48.5t-50 18.5q-30 0 -47.5 -17.5t-17.5 -48.5z" />
<glyph d="M298 504q0 -105 -36.5 -159.5t-106.5 -54.5q-24 0 -47.5 6t-39.5 16l12 37q31 -17 69 -17q49 0 73 31t28 98q-37 -9 -71 -9q-58 0 -91.5 32t-33.5 89t32.5 92t85.5 35q61 0 93.5 -47t32.5 -135v-14zM187 492q36 0 65 7v21q0 68 -20.5 103t-60.5 35q-33 0 -52 -22t-19 -61 q0 -83 87 -83z" />
<glyph d="M161 -130q-63 5 -105 36l14 35q47 -30 91 -33v157q-55 18 -78.5 43.5t-23.5 68.5q0 41 28.5 69t74.5 33v61h37v-61q47 -5 86 -27l-12 -34q-35 18 -74 23v-148q55 -18 78.5 -43.5t23.5 -67.5q0 -45 -27 -74.5t-76 -35.5v-62h-37v60zM257 -18q0 27 -13.5 43t-45.5 28v-143 q59 12 59 72zM103 177q0 -27 13 -43t46 -28v135q-28 -4 -43.5 -21t-15.5 -43z" />
<glyph d="M187 -190v61q-47 6 -75 46.5t-28 103.5t28 103.5t75 47.5v61h37v-62q26 -3 57 -18l-12 -33q-30 12 -45 14v-225q21 3 45 14l12 -33q-27 -15 -57 -18v-62h-37zM128 21q0 -96 59 -111v222q-59 -14 -59 -111z" />
<glyph horiz-adv-x="510" d="M139 -120l191 390h41l-191 -390h-41zM430 -9q0 40 -11.5 61t-33.5 21t-33.5 -21t-11.5 -61v-5q0 -40 11.5 -61t33.5 -21t33.5 21t11.5 61v5zM470 -14q0 -54 -23 -85t-62 -31t-62 31t-23 85v5q0 54 23 85t62 31t62 -31t23 -85v-5zM170 164q0 40 -11.5 61t-33.5 21 t-33.5 -21t-11.5 -61v-5q0 -40 11.5 -61t33.5 -21t33.5 21t11.5 61v5zM210 159q0 -54 -23 -85t-62 -31t-62 31t-23 85v5q0 54 23 85t62 31t62 -31t23 -85v-5z" />
<glyph d="M72 -120l18 113h-47v35h53l15 94h-58v35h63l19 113h39l-19 -113h74l18 113h39l-18 -113h47v-35h-53l-15 -94h58v-35h-63l-19 -113h-39l19 113h-74l-18 -113h-39zM135 28h73l15 94h-73z" />
<glyph d="M161 410q-63 5 -105 36l14 35q47 -30 91 -33v157q-55 18 -78.5 43.5t-23.5 68.5q0 41 28.5 69t74.5 33v61h37v-61q47 -5 86 -27l-12 -34q-35 18 -74 23v-148q55 -18 78.5 -43.5t23.5 -67.5q0 -45 -27 -74.5t-76 -35.5v-62h-37v60zM257 522q0 27 -13.5 43t-45.5 28v-143 q59 12 59 72zM103 717q0 -27 13 -43t46 -28v135q-28 -4 -43.5 -21t-15.5 -43z" />
<glyph d="M187 350v61q-47 6 -75 46.5t-28 103.5t28 103.5t75 47.5v61h37v-62q26 -3 57 -18l-12 -33q-30 12 -45 14v-225q21 3 45 14l12 -33q-27 -15 -57 -18v-62h-37zM128 561q0 -96 59 -111v222q-59 -14 -59 -111z" />
<glyph horiz-adv-x="510" d="M139 420l191 390h41l-191 -390h-41zM430 531q0 40 -11.5 61t-33.5 21t-33.5 -21t-11.5 -61v-5q0 -40 11.5 -61t33.5 -21t33.5 21t11.5 61v5zM470 526q0 -54 -23 -85t-62 -31t-62 31t-23 85v5q0 54 23 85t62 31t62 -31t23 -85v-5zM170 704q0 40 -11.5 61t-33.5 21 t-33.5 -21t-11.5 -61v-5q0 -40 11.5 -61t33.5 -21t33.5 21t11.5 61v5zM210 699q0 -54 -23 -85t-62 -31t-62 31t-23 85v5q0 54 23 85t62 31t62 -31t23 -85v-5z" />
<glyph d="M72 420l18 113h-47v35h53l15 94h-58v35h63l19 113h39l-19 -113h74l18 113h39l-18 -113h47v-35h-53l-15 -94h58v-35h-63l-19 -113h-39l19 113h-74l-18 -113h-39zM135 568h73l15 94h-73z" />
<glyph d="M161 -10q-63 5 -105 36l14 35q47 -30 91 -33v157q-55 18 -78.5 43.5t-23.5 68.5q0 41 28.5 69t74.5 33v61h37v-61q47 -5 86 -27l-12 -34q-35 18 -74 23v-148q55 -18 78.5 -43.5t23.5 -67.5q0 -45 -27 -74.5t-76 -35.5v-62h-37v60zM257 102q0 27 -13.5 43t-45.5 28v-143 q59 12 59 72zM103 297q0 -27 13 -43t46 -28v135q-28 -4 -43.5 -21t-15.5 -43z" />
<glyph d="M187 -70v61q-47 6 -75 46.5t-28 103.5t28 103.5t75 47.5v61h37v-62q26 -3 57 -18l-12 -33q-30 12 -45 14v-225q21 3 45 14l12 -33q-27 -15 -57 -18v-62h-37zM128 141q0 -96 59 -111v222q-59 -14 -59 -111z" />
<glyph horiz-adv-x="510" d="M139 0l191 390h41l-191 -390h-41zM430 111q0 40 -11.5 61t-33.5 21t-33.5 -21t-11.5 -61v-5q0 -40 11.5 -61t33.5 -21t33.5 21t11.5 61v5zM470 106q0 -54 -23 -85t-62 -31t-62 31t-23 85v5q0 54 23 85t62 31t62 -31t23 -85v-5zM170 284q0 40 -11.5 61t-33.5 21t-33.5 -21 t-11.5 -61v-5q0 -40 11.5 -61t33.5 -21t33.5 21t11.5 61v5zM210 279q0 -54 -23 -85t-62 -31t-62 31t-23 85v5q0 54 23 85t62 31t62 -31t23 -85v-5z" />
<glyph d="M72 0l18 113h-47v35h53l15 94h-58v35h63l19 113h39l-19 -113h74l18 113h39l-18 -113h47v-35h-53l-15 -94h58v-35h-63l-19 -113h-39l19 113h-74l-18 -113h-39zM135 148h73l15 94h-73z" />
<glyph d="M161 290q-63 5 -105 36l14 35q47 -30 91 -33v157q-55 18 -78.5 43.5t-23.5 68.5q0 41 28.5 69t74.5 33v61h37v-61q47 -5 86 -27l-12 -34q-35 18 -74 23v-148q55 -18 78.5 -43.5t23.5 -67.5q0 -45 -27 -74.5t-76 -35.5v-62h-37v60zM257 402q0 27 -13.5 43t-45.5 28v-143 q59 12 59 72zM103 597q0 -27 13 -43t46 -28v135q-28 -4 -43.5 -21t-15.5 -43z" />
<glyph d="M187 230v61q-47 6 -75 46.5t-28 103.5t28 103.5t75 47.5v61h37v-62q26 -3 57 -18l-12 -33q-30 12 -45 14v-225q21 3 45 14l12 -33q-27 -15 -57 -18v-62h-37zM128 441q0 -96 59 -111v222q-59 -14 -59 -111z" />
<glyph horiz-adv-x="510" d="M139 300l191 390h41l-191 -390h-41zM430 411q0 40 -11.5 61t-33.5 21t-33.5 -21t-11.5 -61v-5q0 -40 11.5 -61t33.5 -21t33.5 21t11.5 61v5zM470 406q0 -54 -23 -85t-62 -31t-62 31t-23 85v5q0 54 23 85t62 31t62 -31t23 -85v-5zM170 584q0 40 -11.5 61t-33.5 21 t-33.5 -21t-11.5 -61v-5q0 -40 11.5 -61t33.5 -21t33.5 21t11.5 61v5zM210 579q0 -54 -23 -85t-62 -31t-62 31t-23 85v5q0 54 23 85t62 31t62 -31t23 -85v-5z" />
<glyph d="M72 300l18 113h-47v35h53l15 94h-58v35h63l19 113h39l-19 -113h74l18 113h39l-18 -113h47v-35h-53l-15 -94h58v-35h-63l-19 -113h-39l19 113h-74l-18 -113h-39zM135 448h73l15 94h-73z" />
<glyph horiz-adv-x="164" d="M121 370q0 -15 -11 -26t-28 -11t-28 11t-11 26t11 26t28 11t28 -11t11 -26z" />
<glyph horiz-adv-x="164" d="M121 390q0 -15 -11 -26t-28 -11t-28 11t-11 26t11 26t28 11t28 -11t11 -26z" />
<glyph horiz-adv-x="545" d="M75 0v700h51v-700h-51zM231 58q47 -20 91 -20q54 0 78 38t24 124v500h51v-506q0 -104 -37.5 -154t-115.5 -50q-52 0 -106 26zM126 770h-54l96 109h72zM471 770h-54l96 109h72z" />
<glyph horiz-adv-x="378" d="M70 0v516h49v-516h-49zM160 -175q22 -8 38 -8q34 0 47.5 22.5t13.5 75.5v601h49v-599q0 -73 -24 -108t-75 -35q-34 0 -59 13zM68 611l96 139h64l-110 -139h-50zM257 611l96 139h64l-110 -139h-50z" />
<glyph horiz-adv-x="291" d="M94 0v475h-75v41h75v65q0 88 35 133.5t102 45.5q35 0 61 -14l-12 -38q-27 8 -45 8q-47 0 -69.5 -32.5t-22.5 -100.5v-67h127v-41h-127v-475h-49z" />
<glyph horiz-adv-x="291" d="M94 0v475h-75v41h75v65q0 88 35 133.5t102 45.5q35 0 61 -14l-12 -38q-27 8 -45 8q-47 0 -69.5 -32.5t-22.5 -100.5v-67h227v-41h-227v-475h-49z" />
<glyph horiz-adv-x="0" d="M-83 -164q37 -19 71 -19q24 0 37.5 12t13.5 32q0 21 -17.5 32t-50.5 11h-32l38 98h48l-23 -59q84 -9 84 -82q0 -40 -25 -62.5t-73 -22.5t-85 23z" />
<glyph horiz-adv-x="0" d="M-46 -218q34 42 40 76q-32 5 -32 36q0 15 10.5 25t27.5 10q18 0 30 -13t12 -34q0 -26 -17.5 -59t-46.5 -62z" />
<glyph horiz-adv-x="0" d="M21 770h-54l96 109h72z" />
<glyph horiz-adv-x="0" d="M-21 770l-114 109h72l96 -109h-54z" />
<glyph horiz-adv-x="0" d="M74 770l-74 71l-74 -71h-54l96 109h64l96 -109h-54z" />
<glyph horiz-adv-x="0" d="M140 874q-3 -105 -73 -105q-20 0 -38 8.5t-53 36.5q-25 20 -41 20q-14 0 -21 -13t-10 -48h-44q3 105 73 105q20 0 38 -8.5t53 -36.5q25 -20 41 -20q14 0 21 13t10 48h44z" />
<glyph horiz-adv-x="0" d="M-32 770l-96 109h54l74 -71l74 71h54l-96 -109h-64z" />
<glyph horiz-adv-x="0" d="M-37 824q0 -17 -11 -27.5t-30 -10.5t-30 10.5t-11 27.5t11 27.5t30 10.5t30 -10.5t11 -27.5zM119 824q0 -17 -11 -27.5t-30 -10.5t-30 10.5t-11 27.5t11 27.5t30 10.5t30 -10.5t11 -27.5z" />
<glyph horiz-adv-x="0" d="M119 878q-3 -50 -35 -81.5t-84 -31.5t-84 31.5t-35 81.5h44q8 -34 27 -51.5t48 -17.5t48 17.5t27 51.5h44z" />
<glyph horiz-adv-x="0" d="M0 795q24 0 40.5 17.5t16.5 42.5t-16.5 42.5t-40.5 17.5t-40.5 -17.5t-16.5 -42.5t16.5 -42.5t40.5 -17.5zM0 756q-45 0 -73 27.5t-28 71.5t28 71.5t73 27.5t73 -27.5t28 -71.5t-28 -71.5t-73 -27.5z" />
<glyph horiz-adv-x="598" d="M412 -10q-21 0 -39 6q-50 15 -74 15t-74 -15q-18 -6 -39 -6q-66 0 -85 76q-19 77 -19 94q0 19 8 39q3 9 3 23q0 21 -5 48.5t-12.5 56.5t-14.5 54t-11 42q-10 40 -10 55q0 43 40 75q7 6 10 9.5t5.5 8t5.5 13.5q21 60 72 93t126 33t126 -33t72 -93q3 -8 5 -12.5t5 -8 t11 -10.5q40 -32 40 -75q0 -15 -10 -55q-4 -17 -11 -42t-14.5 -54t-12.5 -56.5t-5 -48.5q0 -14 3 -23q8 -20 8 -39q0 -17 -19 -94q-19 -76 -85 -76zM193 238q5 0 14 7.5t14 16.5q7 12 15.5 35.5t8.5 28.5t-5 5q-1 0 -2.5 -0.5t-3.5 -2.5q-4 -4 -10 -7t-10 -3q-3 0 -5.5 1.5 t-2.5 2.5q0 4 8 10q10 7 10 11q0 5 -7 5q-3 0 -9 -7q-5 -5 -12 -5q-11 0 -16 8q-3 6 -7 6q-7 0 -7 -5q0 -2 0.5 -4t0.5 -4q0 -8 -7 -8q-4 0 -9 4q-3 2 -11 2q-3 0 -5.5 2t-2.5 5q0 7 13 14q4 3 27 8q4 1 4 7t-7 6q-19 0 -32 -5q-13 -4 -18 -11t-5 -18q0 -18 10 -41t27 -40 q12 -13 22 -18.5t20 -5.5zM298 53q22 0 41 8t27 21q12 17 12 37v19q0 13 2 25q1 4 1.5 7.5t0.5 5.5q0 4 -5 4t-24.5 -3.5t-54.5 -3.5q-34 0 -53 3.5t-24 3.5q-7 0 -7 -4q0 -2 2 -9.5t4 -11.5q3 -5 18 -7q25 -2 44 -2q23 0 35 1t18 1q16 0 16 -12q0 -11 -14 -13 q-25 -3 -53 -3q-17 0 -29.5 1t-21.5 1q-13 0 -13 -10q0 -13 12 -30q9 -13 27 -21t39 -8zM429 204q15 0 25 37q9 35 20 49q8 9 15 21t7 18q0 8 -4 8q-1 0 -5 -1.5t-8 -3.5t-5 -2q-7 0 -7 9q0 8 6 29.5t15 45.5q13 33 13 48q0 11 -8 25q-10 15 -15 15t-13 -8q-17 -17 -42 -17 q-29 0 -45 28q-7 12 -7 19q0 6 5 6q3 0 10 -5t11 -5q6 0 11 8q5 10 5 26q0 17 -6.5 29.5t-14.5 12.5q-3 0 -17 -4t-34.5 -8.5t-42.5 -4.5q-11 0 -32 3t-28 5q-15 5 -22 7t-10 2q-7 0 -18 -7q-12 -7 -28.5 -20.5t-25.5 -24.5q-29 -31 -29 -49q1 -10 4.5 -20t4.5 -25 q0 -12 -1.5 -20t-1.5 -15q0 -8 2.5 -10t13.5 -2q17 0 36.5 3t36 6t22.5 3q12 0 20.5 -4t18.5 -14q13 -13 13 -32q0 -6 -1 -17t-2 -20l-8 -79q2 -32 35 -32q17 0 26.5 8.5t9.5 23.5q0 4 -0.5 7.5t-0.5 6.5q0 11 8 11q5 0 20 -15l37 -38q16 -17 31 -17zM325 373q-4 0 -6.5 2.5 t-2.5 5.5q0 5 6 8q12 7 44.5 21t42.5 17q9 3 13 3q9 0 18 -8q7 -6 14.5 -15t7.5 -12q0 -5 -3 -9t-7 -4q-5 0 -9 2.5t-11 7.5t-16 5q-12 0 -47 -11q-7 -2 -16 -5t-17 -5.5t-11 -2.5zM411 338q-12 1 -24 4.5t-21 3.5q-11 0 -16.5 -0.5t-12.5 -0.5q-9 0 -9 5q0 7 6 8 q9 3 37.5 6t37.5 3q6 0 8.5 -1.5t4.5 -6.5q3 -6 10 -6q3 0 5.5 1t6.5 1q5 0 5 -5q0 -4 -13.5 -8t-24.5 -4z" />
</font>
</defs>
</svg>
