<?xml version="1.0" standalone="no"?>
<!DOCTYPE svg PUBLIC "-//W3C//DTD SVG 1.1//EN" "http://www.w3.org/Graphics/SVG/1.1/DTD/svg11.dtd" >
<svg xmlns="http://www.w3.org/2000/svg">
<metadata></metadata>
<defs>
<font id="att_aleck_cditalic" horiz-adv-x="358" >
<font-face units-per-em="1000" ascent="750" descent="-250" />
<missing-glyph horiz-adv-x="210" />
<glyph unicode="fb" horiz-adv-x="756" d="M10 -125l124 583h-69l13 61h69l13 61q19 92 61 136t108 44q38 0 68 -15l-22 -57q-23 9 -43 9q-76 0 -102 -121l-12 -57h115l-13 -61h-115l-124 -583h-71zM301 0l160 750h71l-59 -276q56 56 119 56q60 0 93 -46.5t33 -128.5q0 -104 -33 -188.5t-86 -130.5t-116 -46 q-67 0 -108 56l-18 -46h-56zM565 467q-27 0 -55.5 -16.5t-51.5 -44.5l-65 -306q15 -22 38.5 -34.5t48.5 -12.5q46 0 84.5 41.5t60 107t21.5 139.5q0 61 -20.5 93.5t-60.5 32.5z" />
<glyph unicode="fj" horiz-adv-x="494" d="M10 -125l124 583h-69l13 61h69l13 61q19 92 61 136t108 44q38 0 68 -15l-22 -57q-23 9 -43 9q-76 0 -102 -121l-12 -57h216l-13 -61h-216l-124 -583h-71zM173 -156q21 -7 37 -7q31 0 48.5 21t27.5 70l126 591h71l-127 -596q-17 -80 -49.5 -114.5t-90.5 -34.5 q-38 0 -63 17zM530 686q0 -23 -16.5 -38.5t-40.5 -15.5q-19 0 -30.5 11t-11.5 29q0 23 16.5 38.5t40.5 15.5q19 0 30.5 -11t11.5 -29z" />
<glyph unicode="fk" horiz-adv-x="716" d="M10 -125l124 583h-69l13 61h69l13 61q19 92 61 136t108 44q38 0 68 -15l-22 -57q-23 9 -43 9q-76 0 -102 -121l-12 -57h115l-13 -61h-115l-124 -583h-71zM301 0l160 750h71l-97 -452l228 221h83l-201 -195l105 -324h-73l-88 275l-74 -71l-43 -204h-71z" />
<glyph unicode="ft" horiz-adv-x="589" d="M10 -125l124 583h-69l13 61h69l13 61q19 92 61 136t108 44q38 0 68 -15l-22 -57q-23 9 -43 9q-76 0 -102 -121l-12 -57h191l44 148h56l-31 -148h129l-13 -61h-129l-61 -286q-9 -40 -9 -64q0 -55 55 -55q36 0 75 24l12 -56q-48 -31 -108 -31q-52 0 -79.5 27.5t-27.5 78.5 q0 24 11 76l61 286h-189l-124 -583h-71z" />
<glyph unicode="fh" horiz-adv-x="758" d="M10 -125l124 583h-69l13 61h69l13 61q19 92 61 136t108 44q38 0 68 -15l-22 -57q-23 9 -43 9q-76 0 -102 -121l-12 -57h115l-13 -61h-115l-124 -583h-71zM301 0l160 750h71l-60 -281q74 61 142 61q53 0 81.5 -30t28.5 -86q0 -27 -6 -54l-77 -360h-71l75 352q5 25 5 46 q0 33 -16.5 50t-48.5 17q-30 0 -64 -16t-62 -42l-87 -407h-71z" />
<glyph unicode="ff" horiz-adv-x="572" d="M10 -125l124 583h-69l13 61h69l13 61q19 92 61 136t108 44q38 0 68 -15l-22 -57q-23 9 -43 9q-76 0 -102 -121l-12 -57h194l13 61q19 91 62 135.5t111 44.5q41 0 79 -19l-22 -57q-11 5 -26.5 9t-27.5 4q-41 0 -67 -29.5t-39 -91.5l-12 -57h120l-13 -61h-120l-124 -583 h-71l124 583h-194l-124 -583h-71z" />
<glyph unicode="fi" horiz-adv-x="493" d="M10 -125l124 583h-69l13 61h69l13 61q19 92 61 136t108 44q38 0 68 -15l-22 -57q-23 9 -43 9q-76 0 -102 -121l-12 -57h216l-13 -61h-216l-124 -583h-71zM301 0l111 519h71l-111 -519h-71zM530 686q0 -23 -16.5 -38.5t-40.5 -15.5q-19 0 -30.5 11t-11.5 29 q0 23 16.5 38.5t40.5 15.5q19 0 30.5 -11t11.5 -29z" />
<glyph unicode="fl" horiz-adv-x="493" d="M10 -125l124 583h-69l13 61h69l13 61q19 92 61 136t108 44q38 0 68 -15l-22 -57q-23 9 -43 9q-76 0 -102 -121l-12 -57h115l-13 -61h-115l-124 -583h-71zM301 0l160 750h71l-160 -750h-71z" />
<glyph unicode="ffi" horiz-adv-x="758" d="M10 -125l124 583h-69l13 61h69l13 61q19 92 61 136t108 44q38 0 68 -15l-22 -57q-23 9 -43 9q-76 0 -102 -121l-12 -57h194l13 61q19 92 61 136t108 44q38 0 68 -15l-22 -57q-23 9 -43 9q-76 0 -102 -121l-12 -57h265l-111 -519h-71l98 458h-194l-124 -583h-71l124 583 h-194l-124 -583h-71zM795 686q0 -23 -16.5 -38.5t-40.5 -15.5q-19 0 -30.5 11t-11.5 29q0 23 16.5 38.5t40.5 15.5q19 0 30.5 -11t11.5 -29z" />
<glyph unicode="ffl" horiz-adv-x="758" d="M10 -125l124 583h-69l13 61h69l13 61q19 92 61 136t108 44q38 0 68 -15l-22 -57q-23 9 -43 9q-76 0 -102 -121l-12 -57h194l13 61q19 92 61 136t108 44q38 0 68 -15l-22 -57q-23 9 -43 9q-76 0 -102 -121l-12 -57h115l-13 -61h-115l-124 -583h-71l124 583h-194l-124 -583 h-71zM566 0l160 750h71l-160 -750h-71z" />
<glyph unicode="ffb" horiz-adv-x="1021" d="M10 -125l124 583h-69l13 61h69l13 61q19 92 61 136t108 44q38 0 68 -15l-22 -57q-23 9 -43 9q-76 0 -102 -121l-12 -57h194l13 61q19 92 61 136t108 44q38 0 68 -15l-22 -57q-23 9 -43 9q-76 0 -102 -121l-12 -57h115l-13 -61h-115l-124 -583h-71l124 583h-194l-124 -583 h-71zM566 0l160 750h71l-59 -276q56 56 119 56q59 0 92.5 -46.5t33.5 -129.5q0 -103 -32.5 -187t-86 -130.5t-116.5 -46.5q-66 0 -109 56l-18 -46h-55zM830 467q-27 0 -55.5 -16.5t-51.5 -44.5l-65 -306q15 -22 38.5 -34.5t48.5 -12.5q46 0 84.5 41.5t60 107t21.5 138.5 q0 63 -21 95t-60 32z" />
<glyph unicode="ffh" horiz-adv-x="1023" d="M10 -125l124 583h-69l13 61h69l13 61q19 92 61 136t108 44q38 0 68 -15l-22 -57q-23 9 -43 9q-76 0 -102 -121l-12 -57h194l13 61q19 92 61 136t108 44q38 0 68 -15l-22 -57q-23 9 -43 9q-76 0 -102 -121l-12 -57h115l-13 -61h-115l-124 -583h-71l124 583h-194l-124 -583 h-71zM566 0l160 750h71l-60 -281q74 61 142 61q53 0 81.5 -30t28.5 -86q0 -27 -6 -54l-77 -360h-71l75 352q5 25 5 46q0 33 -16.5 50t-48.5 17q-30 0 -64 -16t-62 -42l-87 -407h-71z" />
<glyph unicode="ffj" horiz-adv-x="759" d="M10 -125l124 583h-69l13 61h69l13 61q19 92 61 136t108 44q38 0 68 -15l-22 -57q-23 9 -43 9q-76 0 -102 -121l-12 -57h194l13 61q19 92 61 136t108 44q38 0 68 -15l-22 -57q-23 9 -43 9q-76 0 -102 -121l-12 -57h265l-127 -596q-17 -80 -49.5 -114.5t-90.5 -34.5 q-38 0 -63 17l20 53q21 -7 37 -7q31 0 48.5 21t27.5 70l113 530h-194l-124 -583h-71l124 583h-194l-124 -583h-71zM795 686q0 -23 -16.5 -38.5t-40.5 -15.5q-19 0 -30.5 11t-11.5 29q0 23 16.5 38.5t40.5 15.5q19 0 30.5 -11t11.5 -29z" />
<glyph unicode="ffk" horiz-adv-x="981" d="M10 -125l124 583h-69l13 61h69l13 61q19 92 61 136t108 44q38 0 68 -15l-22 -57q-23 9 -43 9q-76 0 -102 -121l-12 -57h194l13 61q19 92 61 136t108 44q38 0 68 -15l-22 -57q-23 9 -43 9q-76 0 -102 -121l-12 -57h115l-13 -61h-115l-124 -583h-71l124 583h-194l-124 -583 h-71zM566 0l160 750h71l-97 -452l228 221h83l-201 -195l105 -324h-73l-88 275l-74 -71l-43 -204h-71z" />
<glyph unicode="fft" horiz-adv-x="854" d="M10 -125l124 583h-69l13 61h69l13 61q19 92 61 136t108 44q38 0 68 -15l-22 -57q-23 9 -43 9q-76 0 -102 -121l-12 -57h194l13 61q19 92 61 136t108 44q38 0 68 -15l-22 -57q-23 9 -43 9q-76 0 -102 -121l-12 -57h191l44 148h56l-31 -148h129l-13 -61h-129l-61 -286 q-9 -40 -9 -64q0 -55 55 -55q36 0 75 24l12 -56q-48 -31 -108 -31q-52 0 -79.5 27.5t-27.5 78.5q0 24 11 76l61 286h-189l-124 -583h-71l124 583h-194l-124 -583h-71z" />
<glyph unicode=" "  horiz-adv-x="210" />
<glyph unicode="&#x09;" horiz-adv-x="210" />
<glyph unicode="&#xa0;" horiz-adv-x="210" />
<glyph unicode="!" horiz-adv-x="219" d="M67 204l96 496h77l-116 -496h-57zM122 46q0 -23 -17 -39.5t-41 -16.5q-20 0 -32.5 12t-12.5 32q0 23 17 39.5t41 16.5q20 0 32.5 -12t12.5 -32z" />
<glyph unicode="&#x22;" horiz-adv-x="309" d="M85 440l46 260h73l-64 -260h-55zM240 440l46 260h73l-64 -260h-55z" />
<glyph unicode="#" horiz-adv-x="490" d="M39 0l63 200h-68l13 58h73l55 174h-72l13 58h77l63 200h59l-62 -200h111l62 200h60l-63 -200h68l-13 -58h-73l-55 -174h72l-13 -58h-77l-63 -200h-59l62 200h-111l-62 -200h-60zM179 258h112l55 174h-112z" />
<glyph unicode="$" horiz-adv-x="490" d="M37 89q58 -37 129 -37l58 287q-52 34 -77 75.5t-25 95.5q0 79 50.5 130t134.5 58l20 94h51l-20 -94q70 -6 122 -41l-28 -54q-55 31 -107 34l-54 -265q56 -38 81.5 -79.5t25.5 -94.5q0 -86 -52.5 -141t-142.5 -65l-21 -105h-51l21 103q-85 3 -143 43zM328 196q0 35 -14 62 t-46 51l-51 -252q52 12 81.5 49t29.5 90zM191 512q0 -35 13.5 -61t42.5 -49l47 232q-50 -9 -76.5 -41t-26.5 -81z" />
<glyph unicode="%" horiz-adv-x="809" d="M172 0l436 690h67l-436 -690h-67zM585 44q47 0 78 74q14 31 22 71t8 78q0 41 -11 60t-34 19q-47 0 -78 -74q-14 -31 -22 -71t-8 -78q0 -41 11 -60t34 -19zM715 87q-52 -97 -139 -97q-99 0 -99 139q0 46 11 91.5t30 82.5q52 97 139 97q99 0 99 -139q0 -46 -11 -91.5 t-30 -82.5zM198 344q47 0 78 74q14 31 22 71t8 78q0 41 -11 60t-34 19q-47 0 -78 -74q-14 -31 -22 -71t-8 -78q0 -41 11 -60t34 -19zM328 387q-52 -97 -139 -97q-99 0 -99 139q0 46 11 91.5t30 82.5q52 97 139 97q99 0 99 -139q0 -46 -11 -91.5t-30 -82.5z" />
<glyph unicode="&#x26;" horiz-adv-x="545" d="M413 0l-61 112q-48 -63 -96.5 -92.5t-103.5 -29.5q-63 0 -99 37t-36 102q0 72 48.5 137t143.5 119q-46 93 -46 146q0 78 47 128.5t119 50.5q57 0 91 -33.5t34 -90.5t-39.5 -108.5t-125.5 -107.5l75 -148l100 153h68l-136 -208l89 -167h-72zM163 50q72 0 159 114l-89 175 q-70 -45 -107 -97t-37 -106q0 -38 20.5 -62t53.5 -24zM230 535q0 -47 36 -120q65 45 93 83t28 81q0 34 -16.5 53.5t-46.5 19.5q-40 0 -67 -33.5t-27 -83.5z" />
<glyph unicode="'" horiz-adv-x="154" d="M85 440l46 260h73l-64 -260h-55z" />
<glyph unicode="(" horiz-adv-x="280" d="M99 -164q-19 46 -30.5 123.5t-11.5 156.5q0 160 58.5 321.5t164.5 292.5h80q-111 -139 -169.5 -297t-58.5 -318q0 -81 10.5 -157t27.5 -122h-71z" />
<glyph unicode=")" horiz-adv-x="280" d="M-72 -164q111 139 169.5 297t58.5 318q0 81 -10.5 157t-27.5 122h71q19 -46 30.5 -123.5t11.5 -156.5q0 -160 -58.5 -321.5t-164.5 -292.5h-80z" />
<glyph unicode="*" horiz-adv-x="357" d="M275 391l-50 112l-92 -107l-41 41l104 95l-111 33l22 54l109 -47l21 127h60l-37 -130l117 39l12 -54l-125 -27l63 -107z" />
<glyph unicode="+" horiz-adv-x="490" d="M289 314l-35 -164h-64l35 164h-154l13 62h154l35 165h64l-35 -165h154l-13 -62h-154z" />
<glyph unicode="," horiz-adv-x="188" d="M-64 -110q35 22 57 46.5t35 54.5q-16 3 -25 14.5t-9 28.5q0 23 17 39.5t41 16.5q21 0 33 -14t12 -35q0 -48 -41 -101.5t-101 -83.5z" />
<glyph unicode="-" horiz-adv-x="306" d="M41 244l13 61h218l-13 -61h-218z" />
<glyph unicode="." horiz-adv-x="188" d="M97 46q0 -23 -17 -39.5t-41 -16.5q-20 0 -32.5 12t-12.5 32q0 23 17 39.5t41 16.5q20 0 32.5 -12t12.5 -32z" />
<glyph unicode="/" horiz-adv-x="388" d="M-78 -164l470 894h74l-470 -894h-74z" />
<glyph unicode="0" horiz-adv-x="474" d="M196 53q41 0 78.5 49t65.5 139q44 141 44 248q0 75 -18 111.5t-55 36.5q-41 0 -78.5 -49t-65.5 -139q-44 -143 -44 -248q0 -75 18 -111.5t55 -36.5zM185 -10q-65 0 -100.5 53t-35.5 151q0 107 31 224q75 282 242 282q65 0 100.5 -53t35.5 -151q0 -109 -31 -224 q-75 -282 -242 -282z" />
<glyph unicode="1" horiz-adv-x="321" d="M110 0l127 594l-136 -100l-33 53l194 143h68l-147 -690h-73z" />
<glyph unicode="2" horiz-adv-x="387" d="M-19 0l9 43q26 126 66 192t124 121l15 10q77 49 108 87.5t31 81.5q0 49 -25.5 75.5t-71.5 26.5q-56 0 -111 -39l-23 53q32 23 70.5 36t76.5 13q72 0 115 -42.5t43 -113.5q0 -63 -42.5 -118t-139.5 -118l-16 -10q-37 -23 -62.5 -52.5t-44.5 -72.5t-35 -109h250l-14 -64 h-323z" />
<glyph unicode="3" horiz-adv-x="395" d="M10 88q55 -35 114 -35q67 0 108.5 43.5t41.5 111.5q0 57 -31.5 89.5t-88.5 32.5h-44l13 59h53q64 0 105 40.5t41 104.5q0 50 -25.5 76.5t-72.5 26.5q-56 0 -109 -33l-24 52q33 21 71 32.5t74 11.5q73 0 116.5 -42t43.5 -113q0 -67 -38 -118.5t-101 -71.5q45 -18 68 -57 t23 -95q0 -64 -28.5 -113t-78.5 -74.5t-114 -25.5q-84 0 -142 42z" />
<glyph unicode="4" horiz-adv-x="456" d="M237 0l35 167h-268l13 61l361 462h76l-98 -460h61l-13 -63h-62l-35 -167h-70zM286 230l72 341l-266 -341h194z" />
<glyph unicode="5" horiz-adv-x="388" d="M20 88q53 -35 113 -35q69 0 110 47.5t41 126.5q0 60 -31.5 93t-89.5 33q-32 0 -86 -2l89 339h238l-14 -64h-176l-56 -215q9 1 18 1h17q78 0 121.5 -49.5t43.5 -137.5q0 -71 -28.5 -124.5t-78.5 -82t-114 -28.5q-86 0 -142 42z" />
<glyph unicode="6" horiz-adv-x="438" d="M429 613q-20 12 -44 18.5t-44 6.5q-60 0 -111.5 -61t-80.5 -165q45 8 79 8q182 0 182 -187q0 -112 -54.5 -177.5t-147.5 -65.5q-77 0 -118 53t-41 156q0 109 24.5 203.5t65.5 161t92.5 101.5t108.5 35q62 0 115 -32zM222 362q-41 0 -86 -7q-15 -73 -15 -155 q0 -147 93 -147q58 0 91 47t33 126q0 136 -116 136z" />
<glyph unicode="7" horiz-adv-x="356" d="M38 0l8 45q15 78 34.5 137.5t54 127.5t94.5 165l94 151h-242l14 64h318l-13 -61l-99 -161q-89 -146 -125 -229t-57 -194l-8 -45h-73z" />
<glyph unicode="8" horiz-adv-x="442" d="M451 549q0 -57 -35 -110t-92 -82q35 -24 53.5 -62t18.5 -83q0 -65 -28.5 -116t-77 -78.5t-107.5 -27.5q-74 0 -117 43.5t-43 118.5q0 50 20 94t54 76t76 46q-32 24 -49 58t-17 75q0 58 26.5 103.5t71.5 70.5t99 25q66 0 106.5 -41.5t40.5 -109.5zM226 341 q-57 -16 -94 -67t-37 -113q0 -53 25 -82.5t71 -29.5q56 0 94.5 46.5t38.5 114.5q0 92 -78 123zM178 501q0 -80 78 -112l18 -7q46 23 76 67t30 90q0 49 -22 75.5t-63 26.5q-51 0 -84 -39.5t-33 -100.5z" />
<glyph unicode="9" horiz-adv-x="442" d="M134 52q64 0 116 60.5t80 168.5q-48 -8 -83 -8q-92 0 -137 45.5t-45 138.5q0 112 54.5 177.5t147.5 65.5q77 0 118 -53t41 -156q0 -151 -38.5 -265t-105.5 -175t-151 -61q-64 0 -119 36l26 55q19 -13 46 -21t50 -8zM253 331q48 0 88 6q13 76 13 153q0 147 -93 147 q-58 0 -91 -47t-33 -126q0 -67 28.5 -100t87.5 -33z" />
<glyph unicode=":" horiz-adv-x="188" d="M97 46q0 -23 -17 -39.5t-41 -16.5q-20 0 -32.5 12t-12.5 32q0 23 17 39.5t41 16.5q20 0 32.5 -12t12.5 -32zM189 475q0 -23 -17 -39.5t-41 -16.5q-20 0 -32.5 12t-12.5 32q0 23 17 39.5t41 16.5q20 0 32.5 -12t12.5 -32z" />
<glyph unicode=";" horiz-adv-x="188" d="M-64 -110q35 22 57 46.5t35 54.5q-16 3 -25 14.5t-9 28.5q0 23 17 39.5t41 16.5q21 0 33 -14t12 -35q0 -48 -41 -101.5t-101 -83.5zM189 475q0 -23 -17 -39.5t-41 -16.5q-20 0 -32.5 12t-12.5 32q0 23 17 39.5t41 16.5q20 0 32.5 -12t12.5 -32z" />
<glyph unicode="&#x3c;" horiz-adv-x="490" d="M69 314l13 62l377 139l-15 -69l-299 -104l255 -106l-13 -61z" />
<glyph unicode="=" horiz-adv-x="490" d="M93 418l13 62h372l-13 -62h-372zM49 210l13 62h372l-13 -62h-372z" />
<glyph unicode="&#x3e;" horiz-adv-x="490" d="M65 175l15 69l299 104l-255 106l13 61l318 -139l-13 -62z" />
<glyph unicode="?" horiz-adv-x="344" d="M89 204l5 24q11 49 22 78.5t28.5 52t48.5 45.5l19 14q52 39 75 73.5t23 72.5q0 41 -23.5 63.5t-63.5 22.5q-59 0 -121 -44l-25 51q75 56 157 56q69 0 109.5 -39.5t40.5 -104.5q0 -52 -29.5 -97.5t-95.5 -93.5l-18 -14q-35 -26 -52.5 -55t-28.5 -81l-5 -24h-66zM149 46 q0 -23 -17 -39.5t-41 -16.5q-20 0 -32.5 12t-12.5 32q0 23 17 39.5t41 16.5q20 0 32.5 -12t12.5 -32z" />
<glyph unicode="@" horiz-adv-x="842" d="M580 -156q-40 -18 -90.5 -28t-101.5 -10q-106 0 -182.5 44t-116.5 124t-40 188q0 106 35.5 196t96 153.5t137.5 97t163 33.5q96 0 166.5 -42t108 -117.5t37.5 -174.5q0 -93 -30.5 -166.5t-81.5 -113.5t-112 -40q-43 0 -71 21t-32 57q-24 -26 -55 -40.5t-62 -14.5 q-50 0 -79 38.5t-29 105.5q0 78 31 144.5t79 104t101 37.5q50 0 86 -36l11 27h57l-74 -292q-7 -26 -7 -42q0 -26 13.5 -40.5t37.5 -14.5q42 0 77.5 38.5t55.5 99t20 128.5q0 85 -31.5 147.5t-88 95.5t-130.5 33q-104 0 -188.5 -59t-131 -154.5t-46.5 -207.5 q0 -140 74.5 -220.5t204.5 -80.5q43 0 89.5 9t84.5 25zM370 67q45 0 92 53l60 241q-32 24 -66 24q-41 0 -75.5 -32.5t-54 -83.5t-19.5 -107q0 -46 16.5 -70.5t46.5 -24.5z" />
<glyph unicode="A" horiz-adv-x="500" d="M353 0l-9 193h-214l-91 -193h-77l342 700h77l48 -700h-76zM324 606l-164 -345h181z" />
<glyph unicode="B" horiz-adv-x="492" d="M16 0l149 700h147q78 0 123.5 -42t45.5 -115q0 -67 -40 -117t-110 -71q53 -16 81 -53t28 -90q0 -101 -67 -156.5t-191 -55.5h-166zM157 318l-54 -250h86q82 0 128.5 38t46.5 106q0 106 -129 106h-78zM224 632l-53 -246h65q76 0 122.5 41t46.5 108q0 47 -27.5 72t-80.5 25 h-73z" />
<glyph unicode="C" horiz-adv-x="454" d="M388 33q-64 -43 -147 -43q-87 0 -137.5 61t-50.5 169q0 139 45 252.5t118.5 175.5t161.5 62q62 0 119 -36l-27 -62q-43 27 -92 27q-71 0 -128 -57t-88.5 -149t-31.5 -197q0 -85 32.5 -130t94.5 -45q56 0 111 32z" />
<glyph unicode="D" horiz-adv-x="524" d="M156 68q83 0 146 48.5t97 132t34 188.5q0 97 -44 146t-130 49h-34l-120 -564h51zM16 0l149 700h100q118 0 181.5 -67.5t63.5 -193.5q0 -134 -47 -234t-130.5 -152.5t-192.5 -52.5h-124z" />
<glyph unicode="E" horiz-adv-x="438" d="M158 318l-52 -249h255l-15 -69h-330l149 700h320l-15 -69h-245l-52 -244h203l-15 -69h-203z" />
<glyph unicode="F" horiz-adv-x="415" d="M16 0l149 700h309l-15 -69h-234l-55 -258h193l-15 -69h-193l-64 -304h-75z" />
<glyph unicode="G" horiz-adv-x="510" d="M474 376l-75 -351q-72 -35 -151 -35q-93 0 -144 60.5t-51 169.5q0 140 45 253t119 175t162 62q36 0 70.5 -9t61.5 -26l-27 -62q-52 27 -105 27q-71 0 -128 -56.5t-89 -149t-32 -198.5q0 -176 132 -176q42 0 75 15l50 233h-122l14 68h195z" />
<glyph unicode="H" horiz-adv-x="537" d="M16 0l149 700h75l-67 -312h245l67 312h75l-149 -700h-75l68 319h-245l-68 -319h-75z" />
<glyph unicode="I" horiz-adv-x="217" d="M16 0l149 700h75l-149 -700h-75z" />
<glyph unicode="J" horiz-adv-x="333" d="M-12 84q41 -24 80 -24q45 0 71 33.5t43 113.5l105 493h75l-106 -498q-25 -116 -66.5 -164t-116.5 -48q-58 0 -109 31z" />
<glyph unicode="K" horiz-adv-x="494" d="M16 0l149 700h75l-75 -352l304 352h85l-245 -284l106 -416h-78l-89 352l-109 -126l-48 -226h-75z" />
<glyph unicode="L" horiz-adv-x="406" d="M16 0l149 700h75l-134 -631h237l-15 -69h-312z" />
<glyph unicode="M" horiz-adv-x="690" d="M493 0l115 539l-260 -416h-67l-79 430l-117 -553h-69l149 700h80l86 -487l303 487h79l-149 -700h-71z" />
<glyph unicode="N" horiz-adv-x="533" d="M329 0l-121 562l-120 -562h-72l149 700h78l121 -562l120 562h72l-149 -700h-78z" />
<glyph unicode="O" horiz-adv-x="529" d="M214 -10q-76 0 -118.5 61.5t-42.5 168.5q0 141 41.5 253.5t109.5 174.5t150 62q76 0 118.5 -61.5t42.5 -168.5q0 -141 -41.5 -253.5t-109.5 -174.5t-150 -62zM226 60q57 0 106.5 60.5t77.5 154t28 195.5q0 83 -24.5 126.5t-71.5 43.5q-57 0 -106.5 -60.5t-77.5 -154 t-28 -195.5q0 -83 24.5 -126.5t71.5 -43.5z" />
<glyph unicode="P" horiz-adv-x="478" d="M16 0l149 700h134q87 0 136.5 -50t49.5 -138q0 -76 -33 -133.5t-90 -88.5t-130 -31h-86l-55 -259h-75zM160 328h82q72 0 119 51t47 129q0 58 -30 90.5t-85 32.5h-68z" />
<glyph unicode="Q" horiz-adv-x="529" d="M357 -72l-45 87q-47 -25 -98 -25q-76 0 -118.5 61.5t-42.5 168.5q0 141 41.5 253.5t109.5 174.5t150 62q76 0 118.5 -61.5t42.5 -168.5q0 -137 -41 -251.5t-112 -178.5l47 -92zM226 60q29 0 54 15l-51 103l52 30l47 -93q50 57 80 153t30 202q0 83 -24.5 126.5t-71.5 43.5 q-57 0 -106.5 -60.5t-77.5 -154t-28 -195.5q0 -83 24.5 -126.5t71.5 -43.5z" />
<glyph unicode="R" horiz-adv-x="500" d="M345 0l-96 271h-101l-57 -271h-75l149 700h134q84 0 135 -48.5t51 -132.5q0 -86 -43.5 -148t-120.5 -87l101 -284h-77zM163 340h78q73 0 120 48.5t47 124.5q0 56 -30.5 87t-84.5 31h-68z" />
<glyph unicode="S" horiz-adv-x="428" d="M9 93q56 -33 119 -33q69 0 112.5 39.5t43.5 103.5q0 41 -16.5 67.5t-63.5 61.5l-19 14q-45 33 -66 72.5t-21 94.5q0 59 28 104t75.5 69t106.5 24q40 0 77 -10.5t65 -30.5l-30 -60q-53 31 -110 31q-60 0 -97.5 -34t-37.5 -88q0 -41 16.5 -67.5t63.5 -61.5l19 -14 q45 -33 66 -72.5t21 -94.5q0 -67 -29.5 -116.5t-81 -75.5t-118.5 -26q-93 0 -153 43z" />
<glyph unicode="T" horiz-adv-x="472" d="M145 0l134 631h-168l15 69h406l-15 -69h-163l-134 -631h-75z" />
<glyph unicode="U" horiz-adv-x="518" d="M472 700h75l-102 -479q-25 -118 -81 -174.5t-150 -56.5q-78 0 -121 43.5t-43 122.5q0 33 9 76l99 468h75l-99 -464q-8 -37 -8 -72q0 -50 24.5 -77t69.5 -27q59 0 96 40t54 122z" />
<glyph unicode="V" horiz-adv-x="495" d="M155 0l-38 700h76l19 -596l274 596h77l-332 -700h-76z" />
<glyph unicode="W" horiz-adv-x="688" d="M398 0l-1 509l-216 -509h-80l24 700h75l-30 -578l220 518h68l2 -515l211 575h75l-268 -700h-80z" />
<glyph unicode="X" horiz-adv-x="498" d="M-23 0l254 358l-99 342h78l74 -275l189 275h83l-247 -349l102 -351h-78l-77 285l-196 -285h-83z" />
<glyph unicode="Y" horiz-adv-x="457" d="M136 0l58 275l-77 425h76l53 -351l203 351h77l-257 -426l-58 -274h-75z" />
<glyph unicode="Z" horiz-adv-x="419" d="M-33 0l14 65l391 566h-264l15 69h349l-14 -65l-391 -566h289l-15 -69h-374z" />
<glyph unicode="[" horiz-adv-x="285" d="M-17 -164l190 894h173l-13 -61h-102l-164 -772h112l-13 -61h-183z" />
<glyph unicode="\" horiz-adv-x="388" d="M210 -164l-97 894h65l97 -894h-65z" />
<glyph unicode="]" horiz-adv-x="285" d="M-51 -164l13 61h102l164 772h-112l13 61h183l-190 -894h-173z" />
<glyph unicode="^" horiz-adv-x="490" d="M368 362l-39 256l-160 -256h-70l210 328h70l54 -328h-65z" />
<glyph unicode="_" horiz-adv-x="370" d="M-76 -136l11 54h370l-11 -54h-370z" />
<glyph unicode="`" horiz-adv-x="471" d="M314 609l-83 144h82l65 -144h-64z" />
<glyph unicode="a" horiz-adv-x="465" d="M273 530q65 0 108 -57l16 46h58l-111 -519h-58l4 50q-28 -29 -60.5 -44.5t-65.5 -15.5q-60 0 -93 46.5t-33 128.5q0 104 33 188.5t86 130.5t116 46zM191 53q27 0 55.5 16.5t50.5 44.5l66 306q-15 21 -38.5 34t-48.5 13q-46 0 -84.5 -41.5t-60 -107t-21.5 -139.5 q0 -61 20.5 -93.5t60.5 -32.5z" />
<glyph unicode="b" horiz-adv-x="466" d="M11 0l160 750h71l-59 -276q56 56 119 56q60 0 93 -46.5t33 -128.5q0 -104 -33 -188.5t-86 -130.5t-116 -46q-67 0 -108 56l-18 -46h-56zM275 467q-27 0 -55.5 -16.5t-51.5 -44.5l-65 -306q15 -22 38.5 -34.5t48.5 -12.5q46 0 84.5 41.5t60 107t21.5 139.5 q0 61 -20.5 93.5t-60.5 32.5z" />
<glyph unicode="c" horiz-adv-x="382" d="M315 32q-27 -20 -62 -31t-69 -11q-70 0 -108 51t-38 145q0 97 36.5 176.5t95 123.5t126.5 44q48 0 98 -29l-28 -54q-33 18 -73 18q-49 0 -91.5 -41t-67 -104t-24.5 -130q0 -65 24 -100t68 -35q48 0 97 33z" />
<glyph unicode="d" horiz-adv-x="465" d="M286 0l4 50q-28 -29 -60.5 -44.5t-65.5 -15.5q-60 0 -93 46.5t-33 128.5q0 104 33 188.5t86 130.5t116 46q60 0 102 -52l58 272h71l-160 -750h-58zM191 53q27 0 55.5 16.5t50.5 44.5l66 306q-15 22 -38.5 34.5t-48.5 12.5q-46 0 -84.5 -41.5t-60 -107t-21.5 -139.5 q0 -61 20.5 -93.5t60.5 -32.5z" />
<glyph unicode="e" horiz-adv-x="413" d="M329 33q-25 -20 -60.5 -31.5t-73.5 -11.5q-75 0 -116 51t-41 146q0 73 22 137.5t57.5 110.5t79 70.5t88.5 24.5q52 0 83 -31.5t31 -83.5q0 -59 -34 -104.5t-90.5 -70.5t-124.5 -25h-21t-20 1q-1 -7 -1 -14v-15q0 -134 103 -134q26 0 53 9.5t49 25.5zM278 469 q-33 0 -67 -28t-59 -73t-36 -97q9 -1 27 -1q55 0 98 18t66.5 48.5t23.5 67.5q0 31 -13.5 48t-39.5 17z" />
<glyph unicode="f" horiz-adv-x="307" d="M10 -125l124 583h-69l13 61h69l13 61q19 91 62 135.5t111 44.5q41 0 79 -19l-22 -57q-11 5 -26.5 9t-27.5 4q-41 0 -67 -29.5t-39 -91.5l-12 -57h120l-13 -61h-120l-124 -583h-71z" />
<glyph unicode="g" horiz-adv-x="465" d="M12 -133q57 -30 107 -30q62 0 99 38t54 119l13 63q-55 -57 -121 -57q-59 0 -92.5 46.5t-33.5 129.5q0 98 33.5 180.5t86.5 128t115 45.5q65 0 108 -57l16 46h58l-112 -523q-25 -116 -78.5 -169t-144.5 -53q-71 0 -131 36zM191 63q28 0 57 17.5t52 46.5l63 293 q-15 21 -38.5 34t-48.5 13q-46 0 -84 -41.5t-60 -105t-22 -131.5q0 -61 20.5 -93.5t60.5 -32.5z" />
<glyph unicode="h" horiz-adv-x="468" d="M11 0l160 750h71l-60 -281q74 61 142 61q53 0 81.5 -30t28.5 -86q0 -27 -6 -54l-77 -360h-71l75 352q5 25 5 46q0 33 -16.5 50t-48.5 17q-30 0 -64 -16t-62 -42l-87 -407h-71z" />
<glyph unicode="i" horiz-adv-x="203" d="M11 0l111 519h71l-111 -519h-71zM240 686q0 -23 -16.5 -38.5t-40.5 -15.5q-19 0 -30.5 11t-11.5 29q0 23 16.5 38.5t40.5 15.5q19 0 30.5 -11t11.5 -29z" />
<glyph unicode="j" horiz-adv-x="203" d="M-118 -156q21 -7 37 -7q31 0 48.5 21t27.5 70l126 591h71l-127 -596q-17 -80 -49.5 -114.5t-90.5 -34.5q-38 0 -63 17zM239 686q0 -23 -16.5 -38.5t-40.5 -15.5q-19 0 -30.5 11t-11.5 29q0 23 16.5 38.5t40.5 15.5q19 0 30.5 -11t11.5 -29z" />
<glyph unicode="k" horiz-adv-x="426" d="M11 0l160 750h71l-97 -452l228 221h83l-201 -195l105 -324h-73l-88 275l-74 -71l-43 -204h-71z" />
<glyph unicode="l" horiz-adv-x="203" d="M11 0l160 750h71l-160 -750h-71z" />
<glyph unicode="m" horiz-adv-x="711" d="M523 0l75 352q5 25 5 46q0 31 -15 49t-43 18q-30 0 -62.5 -16.5t-61.5 -45.5q-1 -11 -2.5 -21.5t-3.5 -21.5l-77 -360h-71l75 352q5 25 5 46q0 31 -15 49t-43 18q-57 0 -120 -58l-87 -407h-71l111 519h58l-5 -55q69 66 142 66q39 0 64.5 -19.5t34.5 -56.5q76 76 158 76 q49 0 76 -30.5t27 -85.5q0 -27 -6 -54l-77 -360h-71z" />
<glyph unicode="n" horiz-adv-x="468" d="M280 0l75 352q5 25 5 46q0 33 -16.5 50t-48.5 17q-30 0 -64 -16t-62 -42l-87 -407h-71l111 519h58l-5 -56q37 32 75.5 49.5t73.5 17.5q53 0 81.5 -30t28.5 -86q0 -27 -6 -54l-77 -360h-71z" />
<glyph unicode="o" horiz-adv-x="460" d="M177 -10q-64 0 -101.5 50t-37.5 135q0 104 33 185.5t88.5 125.5t123.5 44q64 0 101.5 -50t37.5 -135q0 -104 -33 -185.5t-88.5 -125.5t-123.5 -44zM188 53q44 0 81.5 42t59 107t21.5 137q0 62 -20.5 95t-57.5 33q-44 0 -81.5 -42t-59 -107t-21.5 -137q0 -62 20.5 -95 t57.5 -33z" />
<glyph unicode="p" horiz-adv-x="466" d="M-35 -216l157 735h58l-5 -51q59 62 127 62q60 0 93 -46.5t33 -128.5q0 -104 -33 -188.5t-86 -130.5t-116 -46q-61 0 -102 51l-55 -257h-71zM275 467q-27 0 -55.5 -16.5t-50.5 -44.5l-66 -307q15 -21 38.5 -33.5t48.5 -12.5q46 0 84.5 41.5t60 107t21.5 139.5 q0 61 -20.5 93.5t-60.5 32.5z" />
<glyph unicode="q" horiz-adv-x="465" d="M227 -216l55 260q-56 -54 -118 -54q-60 0 -93 46.5t-33 128.5q0 104 33 188.5t86 130.5t116 46q65 0 108 -57l16 46h58l-157 -735h-71zM191 53q26 0 55 16t51 44l66 307q-15 21 -38.5 34t-48.5 13q-46 0 -84.5 -41.5t-60 -107t-21.5 -139.5q0 -61 20.5 -93.5t60.5 -32.5z " />
<glyph unicode="r" horiz-adv-x="307" d="M11 0l111 519h58l-5 -57q62 68 133 68q17 0 34 -5l-18 -68q-15 4 -34 4q-67 0 -123 -61l-85 -400h-71z" />
<glyph unicode="s" horiz-adv-x="372" d="M9 85q58 -32 113 -32q51 0 81 24.5t30 66.5q0 27 -15 48.5t-49 42.5l-16 10q-45 28 -65.5 60.5t-20.5 76.5q0 66 47 107t123 41q66 0 118 -32l-28 -54q-36 23 -89 23q-45 0 -72.5 -22.5t-27.5 -58.5q0 -27 15 -48.5t49 -42.5l16 -10q45 -28 65.5 -60.5t20.5 -76.5 q0 -73 -48.5 -115.5t-130.5 -42.5q-37 0 -76 11t-68 29z" />
<glyph unicode="t" horiz-adv-x="324" d="M272 21q-48 -31 -108 -31q-52 0 -79.5 27.5t-27.5 78.5q0 24 11 76l61 286h-70l13 61h72l44 148h56l-31 -148h129l-13 -61h-129l-61 -286q-9 -40 -9 -64q0 -55 55 -55q36 0 75 24z" />
<glyph unicode="u" horiz-adv-x="462" d="M283 0l4 51q-72 -61 -143 -61q-52 0 -80.5 30t-28.5 85q0 27 6 54l77 360h71l-75 -352q-5 -27 -5 -47q0 -65 65 -65q27 0 59.5 13.5t59.5 37.5l88 413h71l-111 -519h-58z" />
<glyph unicode="v" horiz-adv-x="412" d="M115 0l-39 519h74l18 -426l204 426h75l-263 -519h-69z" />
<glyph unicode="w" horiz-adv-x="617" d="M346 0l-9 403l-173 -403h-66l-16 519h71v-414l169 395h68l8 -397l174 416h73l-233 -519h-66z" />
<glyph unicode="x" horiz-adv-x="405" d="M263 0l-69 207l-145 -207h-77l198 272l-87 247h73l62 -190l134 190h77l-186 -254l93 -265h-73z" />
<glyph unicode="y" horiz-adv-x="412" d="M76 519h74l22 -417l200 417h75l-285 -563q-51 -102 -91 -142t-89 -40q-36 0 -62 17l21 54q23 -8 39 -8q32 0 59.5 33t79.5 134z" />
<glyph unicode="z" horiz-adv-x="362" d="M-24 0l12 53l302 405h-210l13 61h292l-12 -53l-302 -405h223l-13 -61h-305z" />
<glyph unicode="{" horiz-adv-x="312" d="M185 -158q-34 -8 -57 -8q-51 0 -77.5 26.5t-26.5 76.5q0 28 8 59.5t30 91.5q29 77 29 114q0 27 -11.5 39t-36.5 12h-16l12 59h16q33 0 51.5 19.5t28.5 64.5q6 30 11 89q5 55 14 104q14 70 54 106.5t103 36.5q25 0 56 -7l-13 -59q-15 4 -37 4q-39 0 -61 -21.5t-33 -68.5 q-8 -33 -13 -97q-6 -66 -11 -93q-19 -88 -86 -108q46 -15 46 -74q0 -19 -7 -45t-25 -76q-21 -54 -28.5 -82t-7.5 -52q0 -57 56 -57q20 0 45 5z" />
<glyph unicode="|" horiz-adv-x="216" d="M-29 -216l202 946h71l-202 -946h-71z" />
<glyph unicode="}" horiz-adv-x="311" d="M-38 -100q15 -4 37 -4q39 0 61 21.5t33 68.5q8 33 13 97q6 66 11 93q19 88 86 108q-46 15 -46 74q0 19 7 45t25 76q21 54 28.5 82t7.5 52q0 57 -56 57q-20 0 -45 -5l13 59q34 8 57 8q51 0 77.5 -26.5t26.5 -76.5q0 -28 -8 -59.5t-30 -91.5q-29 -77 -29 -114 q0 -27 11.5 -39t36.5 -12h16l-12 -59h-16q-33 0 -51.5 -19.5t-28.5 -64.5q-6 -30 -11 -89q-5 -55 -14 -104q-14 -70 -54 -106.5t-103 -36.5q-25 0 -56 7z" />
<glyph unicode="~" horiz-adv-x="490" d="M472 399q-18 -74 -45.5 -107.5t-71.5 -33.5q-29 0 -53 14t-64 55q-22 22 -37 31t-29 9q-20 0 -33.5 -19t-22.5 -58l-7 -29h-62l7 29q18 74 45.5 107.5t71.5 33.5q29 0 53 -14t64 -55q22 -22 37 -31t29 -9q20 0 33.5 19t22.5 58l7 29h62z" />
<glyph unicode="&#xa1;" horiz-adv-x="219" d="M-21 -180l116 496h57l-96 -496h-77zM200 486q0 -23 -17 -39.5t-41 -16.5q-20 0 -32.5 12t-12.5 32q0 23 17 39.5t41 16.5q20 0 32.5 -12t12.5 -32z" />
<glyph unicode="&#xa2;" horiz-adv-x="490" d="M188 -113l22 105q-61 8 -93.5 58.5t-32.5 137.5q0 89 32 162.5t86 117t119 50.5l23 104h51l-23 -105q39 -6 72 -27l-27 -52q-27 14 -58 17l-84 -400q39 8 75 32l15 -55q-20 -15 -47.5 -25.5t-56.5 -14.5l-22 -105h-51zM156 189q0 -115 67 -133l84 395q-65 -18 -108 -92 t-43 -170z" />
<glyph unicode="&#xa3;" horiz-adv-x="490" d="M230 315q-8 -72 -39 -141.5t-73 -109.5h265l-13 -64h-347l13 60q51 41 84 109t41 146h-71l13 62h60q-3 47 -3 90q0 113 48.5 173t139.5 60q76 0 135 -43l-28 -54q-22 15 -49.5 24.5t-52.5 9.5q-62 0 -92 -42.5t-30 -130.5q0 -35 2 -87h142l-13 -62h-132z" />
<glyph unicode="&#xa5;" horiz-adv-x="490" d="M151 0l26 124h-128l13 62h128l19 90h-127l13 62h105l-61 352h71l51 -336l196 336h75l-213 -352h103l-13 -62h-127l-19 -90h126l-13 -62h-126l-26 -124h-73z" />
<glyph unicode="&#xa7;" horiz-adv-x="428" d="M41 -38q18 -12 44 -18.5t51 -6.5q45 0 72.5 22.5t27.5 58.5q0 27 -15 48.5t-49 42.5l-16 10q-53 33 -77.5 69.5t-24.5 83.5q0 57 37.5 100.5t102.5 65.5q-35 25 -51 55t-16 69q0 66 47 107t123 41q66 0 118 -32l-28 -54q-36 23 -89 23q-45 0 -72.5 -22.5t-27.5 -58.5 q0 -27 15 -48.5t49 -42.5l16 -10q53 -33 77.5 -69.5t24.5 -83.5q0 -57 -37.5 -100.5t-102.5 -65.5q35 -26 51 -56t16 -68q0 -66 -47 -107t-123 -41q-70 0 -124 34zM311 300q0 59 -70 107q-54 -14 -86 -48t-32 -75q0 -59 70 -107q53 14 85.5 48t32.5 75z" />
<glyph unicode="&#xa8;" horiz-adv-x="471" d="M285 686q0 -21 -15.5 -35.5t-38.5 -14.5q-19 0 -30.5 11t-11.5 29q0 21 15.5 35.5t38.5 14.5q19 0 30.5 -11t11.5 -29zM447 686q0 -21 -15.5 -35.5t-38.5 -14.5q-19 0 -30.5 11t-11.5 29q0 21 15.5 35.5t38.5 14.5q19 0 30.5 -11t11.5 -29z" />
<glyph unicode="&#xa9;" horiz-adv-x="510" d="M388 357q-32 -19 -70 -19q-54 0 -86.5 43t-32.5 113t32.5 113t86.5 43q37 0 67 -18l-14 -42q-21 10 -45 10q-35 0 -54 -28t-19 -78t19 -78t54 -28q25 0 47 12zM304 224q-67 0 -119 36.5t-80 97.5t-28 136q0 79 30.5 141t82 95.5t114.5 33.5q67 0 119 -36.5t80 -97.5 t28 -136q0 -79 -30.5 -141t-82 -95.5t-114.5 -33.5zM304 269q78 0 127.5 62.5t49.5 162.5t-49.5 162.5t-127.5 62.5t-127.5 -62.5t-49.5 -162.5t49.5 -162.5t127.5 -62.5z" />
<glyph unicode="&#xaa;" horiz-adv-x="326" d="M252 348v31q-17 -18 -38.5 -28.5t-41.5 -10.5q-38 0 -62 33t-24 88q0 68 22 123t57.5 85.5t76.5 30.5q42 0 70 -37l14 30h46l-74 -345h-46zM195 394q15 0 31.5 8.5t29.5 23.5l42 194q-20 26 -52 26q-39 0 -69.5 -52t-30.5 -121q0 -39 12.5 -59t36.5 -20zM45 241l11 53 h231l-11 -53h-231z" />
<glyph unicode="&#xab;" horiz-adv-x="374" d="M101 102l-76 178l152 178h72l-157 -185l73 -171h-64zM246 102l-76 178l152 178h72l-157 -185l73 -171h-64z" />
<glyph unicode="&#xac;" horiz-adv-x="490" d="M333 150l35 164h-308l13 62h372l-48 -226h-64z" />
<glyph unicode="&#xae;" horiz-adv-x="510" d="M304 224q-67 0 -119 36.5t-80 97.5t-28 136q0 79 30.5 141t82 95.5t114.5 33.5q67 0 119 -36.5t80 -97.5t28 -136q0 -79 -30.5 -141t-82 -95.5t-114.5 -33.5zM304 269q78 0 127.5 62.5t49.5 162.5t-49.5 162.5t-127.5 62.5t-127.5 -62.5t-49.5 -162.5t49.5 -162.5 t127.5 -62.5zM225 354v291h86q40 0 65.5 -25.5t25.5 -67.5q0 -31 -15 -54t-41 -32l59 -112h-53l-54 106h-24v-106h-49zM274 504h34q19 0 31 13t12 35t-12 35t-31 13h-34v-96z" />
<glyph unicode="&#xb0;" horiz-adv-x="300" d="M199 483q39 0 66.5 30t27.5 73q0 31 -17 49t-45 18q-39 0 -66.5 -30t-27.5 -73q0 -31 17 -49t45 -18zM193 436q-49 0 -79 30.5t-30 79.5q0 44 21 79.5t56 55t76 19.5q49 0 79 -30.5t30 -79.5q0 -44 -21 -79.5t-56 -55t-76 -19.5z" />
<glyph unicode="&#xb2;" d="M118 420l5 24q16 77 38.5 112.5t77.5 70.5q54 35 70.5 53.5t16.5 40.5q0 21 -14.5 32.5t-41.5 11.5q-37 0 -69 -21l-20 46q51 30 100 30q48 0 77.5 -25t29.5 -67q0 -38 -21 -65t-84 -70q-45 -31 -62.5 -54t-28.5 -64h151l-12 -55h-213z" />
<glyph unicode="&#xb3;" d="M117 490q39 -25 84 -25q41 0 64 18t23 52q0 61 -79 61h-35l11 52h31q42 0 66 18t24 50q0 49 -59 49q-36 0 -73 -18l-17 46q22 12 50 19.5t52 7.5q49 0 79 -26t30 -68q0 -35 -22 -63t-61 -42q31 -12 48 -36t17 -55q0 -53 -40.5 -86.5t-105.5 -33.5q-27 0 -55.5 8.5 t-52.5 24.5z" />
<glyph unicode="&#xb4;" horiz-adv-x="471" d="M299 609h-72l126 144h94z" />
<glyph unicode="&#xb6;" horiz-adv-x="473" d="M267 -110l162 758h-69l-162 -758h-54l87 404q-65 0 -106 46.5t-41 120.5q0 71 30.5 125.5t83 84t119.5 29.5h177l-173 -810h-54z" />
<glyph unicode="&#xb7;" horiz-adv-x="188" d="M150 294q0 -23 -17 -39.5t-41 -16.5q-20 0 -32.5 12t-12.5 32q0 23 17 39.5t41 16.5q20 0 32.5 -12t12.5 -32z" />
<glyph unicode="&#xb8;" horiz-adv-x="471" d="M74 -161q35 -20 66 -20q28 0 44 12t16 33q0 41 -60 41h-28l56 97h55l-32 -55q31 -7 48 -28t17 -53q0 -43 -31 -69.5t-83 -26.5q-49 0 -88 25z" />
<glyph unicode="&#xb9;" d="M211 420l65 304l-82 -61l-28 46l136 101h54l-83 -390h-62z" />
<glyph unicode="&#xba;" horiz-adv-x="333" d="M45 241l11 53h231l-11 -53h-231zM184 340q-44 0 -71 33.5t-27 89.5q0 70 23 124t61 83.5t85 29.5q44 0 71 -33.5t27 -89.5q0 -70 -23 -124t-61 -83.5t-85 -29.5zM195 394q27 0 49.5 25.5t35.5 65t13 82.5q0 38 -12.5 58.5t-36.5 20.5q-27 0 -49.5 -25.5t-35.5 -65 t-13 -82.5q0 -38 12.5 -58.5t36.5 -20.5z" />
<glyph unicode="&#xbb;" horiz-adv-x="374" d="M-10 102l157 185l-73 171h64l76 -178l-152 -178h-72zM135 102l157 185l-73 171h64l76 -178l-152 -178h-72z" />
<glyph unicode="&#xbc;" horiz-adv-x="809" d="M188 0l436 690h67l-436 -690h-67zM607 0l17 83h-174l10 49l232 258h56l-55 -257h39l-10 -50h-40l-17 -83h-58zM635 133l36 166l-149 -166h113zM186 300l65 304l-82 -61l-28 46l136 101h54l-83 -390h-62z" />
<glyph unicode="&#xbd;" horiz-adv-x="809" d="M155 0l436 690h67l-436 -690h-67zM480 0l5 24q16 77 38.5 112.5t77.5 70.5q54 35 70.5 53.5t16.5 40.5q0 21 -14.5 32.5t-41.5 11.5q-37 0 -69 -21l-20 46q51 30 100 30q48 0 77.5 -25t29.5 -67q0 -38 -21 -65t-84 -70q-45 -31 -62.5 -54t-28.5 -64h151l-12 -55h-213z M186 300l65 304l-82 -61l-28 46l136 101h54l-83 -390h-62z" />
<glyph unicode="&#xbe;" horiz-adv-x="809" d="M197 0l436 690h67l-436 -690h-67zM607 0l17 83h-174l10 49l232 258h56l-55 -257h39l-10 -50h-40l-17 -83h-58zM635 133l36 166l-149 -166h113zM92 370q39 -25 84 -25q41 0 64 18t23 52q0 61 -79 61h-35l11 52h31q42 0 66 18t24 50q0 49 -59 49q-36 0 -73 -18l-17 46 q22 12 50 19.5t52 7.5q49 0 79 -26t30 -68q0 -35 -22 -63t-61 -42q31 -12 48 -36t17 -55q0 -53 -40.5 -86.5t-105.5 -33.5q-27 0 -55.5 8.5t-52.5 24.5z" />
<glyph unicode="&#xbf;" horiz-adv-x="344" d="M267 -137q-75 -56 -157 -56q-69 0 -109.5 39.5t-40.5 104.5q0 52 29.5 97.5t95.5 93.5l18 14q35 26 52.5 55t28.5 81l5 24h66l-5 -24q-11 -49 -22 -78.5t-28.5 -52t-48.5 -45.5l-19 -14q-52 -39 -75 -73.5t-23 -72.5q0 -41 23.5 -63.5t63.5 -22.5q59 0 121 44zM298 486 q0 -23 -17 -39.5t-41 -16.5q-20 0 -32.5 12t-12.5 32q0 23 17 39.5t41 16.5q20 0 32.5 -12t12.5 -32z" />
<glyph unicode="&#xc0;" horiz-adv-x="500" d="M353 0l-9 193h-214l-91 -193h-77l342 700h77l48 -700h-76zM324 606l-164 -345h181zM320 768l-98 116h93l73 -116h-68z" />
<glyph unicode="&#xc1;" horiz-adv-x="500" d="M353 0l-9 193h-214l-91 -193h-77l342 700h77l48 -700h-76zM324 606l-164 -345h181zM381 768h-78l123 116h101z" />
<glyph unicode="&#xc2;" horiz-adv-x="500" d="M353 0l-9 193h-214l-91 -193h-77l342 700h77l48 -700h-76zM324 606l-164 -345h181zM419 768l-52 68l-81 -68h-77l122 116h82l73 -116h-67z" />
<glyph unicode="&#xc3;" horiz-adv-x="500" d="M353 0l-9 193h-214l-91 -193h-77l342 700h77l48 -700h-76zM324 606l-164 -345h181zM517 881q-11 -56 -35 -85.5t-61 -29.5q-19 0 -36 8t-44 30q-18 14 -26 18.5t-15 4.5q-30 0 -40 -57h-59q11 56 35 85.5t61 29.5q19 0 36 -8t44 -30q18 -14 26 -18.5t15 -4.5q30 0 40 57 h59z" />
<glyph unicode="&#xc4;" horiz-adv-x="500" d="M353 0l-9 193h-214l-91 -193h-77l342 700h77l48 -700h-76zM324 606l-164 -345h181zM326 834q0 -23 -16.5 -38t-40.5 -15q-20 0 -31.5 11.5t-11.5 29.5q0 23 16.5 38t40.5 15q20 0 31.5 -11.5t11.5 -29.5zM494 834q0 -23 -16.5 -38t-40.5 -15q-20 0 -31.5 11.5t-11.5 29.5 q0 23 16.5 38t40.5 15q20 0 31.5 -11.5t11.5 -29.5z" />
<glyph unicode="&#xc5;" horiz-adv-x="500" d="M353 0l-9 193h-214l-91 -193h-77l342 700h77l48 -700h-76zM324 606l-164 -345h181zM474 870q0 -48 -35 -82t-85 -34q-43 0 -68.5 25t-25.5 67q0 48 35 82t85 34q43 0 68.5 -25t25.5 -67zM421 864q0 22 -13 36t-34 14q-25 0 -43 -18.5t-18 -43.5q0 -22 13 -36t34 -14 q25 0 43 18.5t18 43.5z" />
<glyph unicode="&#xc6;" horiz-adv-x="722" d="M-57 0l464 700h362l-15 -69h-232l-52 -244h190l-15 -69h-190l-52 -249h242l-15 -69h-317l46 219h-193l-142 -219h-81zM374 287l73 344h-13l-223 -344h163z" />
<glyph unicode="&#xc7;" horiz-adv-x="454" d="M388 33q-64 -43 -147 -43q-87 0 -137.5 61t-50.5 169q0 139 45 252.5t118.5 175.5t161.5 62q62 0 119 -36l-27 -62q-43 27 -92 27q-71 0 -128 -57t-88.5 -149t-31.5 -197q0 -85 32.5 -130t94.5 -45q56 0 111 32zM105 -160q35 -20 66 -20q28 0 43.5 11.5t15.5 32.5 q0 40 -59 40h-29l56 98h59l-32 -55q62 -16 62 -81q0 -43 -31 -69.5t-83 -26.5q-49 0 -88 25z" />
<glyph unicode="&#xc8;" horiz-adv-x="438" d="M158 318l-52 -249h255l-15 -69h-330l149 700h320l-15 -69h-245l-52 -244h203l-15 -69h-203zM302 768l-98 116h93l73 -116h-68z" />
<glyph unicode="&#xc9;" horiz-adv-x="438" d="M158 318l-52 -249h255l-15 -69h-330l149 700h320l-15 -69h-245l-52 -244h203l-15 -69h-203zM363 768h-78l123 116h101z" />
<glyph unicode="&#xca;" horiz-adv-x="438" d="M158 318l-52 -249h255l-15 -69h-330l149 700h320l-15 -69h-245l-52 -244h203l-15 -69h-203zM401 768l-52 68l-81 -68h-77l122 116h82l73 -116h-67z" />
<glyph unicode="&#xcb;" horiz-adv-x="438" d="M158 318l-52 -249h255l-15 -69h-330l149 700h320l-15 -69h-245l-52 -244h203l-15 -69h-203zM308 834q0 -23 -16.5 -38t-40.5 -15q-20 0 -31.5 11.5t-11.5 29.5q0 23 16.5 38t40.5 15q20 0 31.5 -11.5t11.5 -29.5zM476 834q0 -23 -16.5 -38t-40.5 -15q-20 0 -31.5 11.5 t-11.5 29.5q0 23 16.5 38t40.5 15q20 0 31.5 -11.5t11.5 -29.5z" />
<glyph unicode="&#xcc;" horiz-adv-x="217" d="M16 0l149 700h75l-149 -700h-75zM179 768l-98 116h93l73 -116h-68z" />
<glyph unicode="&#xcd;" horiz-adv-x="217" d="M16 0l149 700h75l-149 -700h-75zM240 768h-78l123 116h101z" />
<glyph unicode="&#xce;" horiz-adv-x="217" d="M16 0l149 700h75l-149 -700h-75zM278 768l-52 68l-81 -68h-77l122 116h82l73 -116h-67z" />
<glyph unicode="&#xcf;" horiz-adv-x="217" d="M16 0l149 700h75l-149 -700h-75zM185 834q0 -23 -16.5 -38t-40.5 -15q-20 0 -31.5 11.5t-11.5 29.5q0 23 16.5 38t40.5 15q20 0 31.5 -11.5t11.5 -29.5zM353 834q0 -23 -16.5 -38t-40.5 -15q-20 0 -31.5 11.5t-11.5 29.5q0 23 16.5 38t40.5 15q20 0 31.5 -11.5 t11.5 -29.5z" />
<glyph unicode="&#xd0;" horiz-adv-x="546" d="M38 0l69 327h-62l13 63h63l66 310h100q118 0 181.5 -67.5t63.5 -193.5q0 -134 -47 -234t-130.5 -152.5t-192.5 -52.5h-124zM178 68q83 0 146 48.5t97 132t34 188.5q0 97 -44 146t-130 49h-34l-52 -242h103l-13 -63h-103l-55 -259h51z" />
<glyph unicode="&#xd1;" horiz-adv-x="533" d="M329 0l-121 562l-120 -562h-72l149 700h78l121 -562l120 562h72l-149 -700h-78zM535 881q-11 -56 -35 -85.5t-61 -29.5q-19 0 -36 8t-44 30q-18 14 -26 18.5t-15 4.5q-30 0 -40 -57h-59q11 56 35 85.5t61 29.5q19 0 36 -8t44 -30q18 -14 26 -18.5t15 -4.5q30 0 40 57h59z " />
<glyph unicode="&#xd2;" horiz-adv-x="529" d="M214 -10q-76 0 -118.5 61.5t-42.5 168.5q0 141 41.5 253.5t109.5 174.5t150 62q76 0 118.5 -61.5t42.5 -168.5q0 -141 -41.5 -253.5t-109.5 -174.5t-150 -62zM226 60q57 0 106.5 60.5t77.5 154t28 195.5q0 83 -24.5 126.5t-71.5 43.5q-57 0 -106.5 -60.5t-77.5 -154 t-28 -195.5q0 -83 24.5 -126.5t71.5 -43.5zM335 768l-98 116h93l73 -116h-68z" />
<glyph unicode="&#xd3;" horiz-adv-x="529" d="M214 -10q-76 0 -118.5 61.5t-42.5 168.5q0 141 41.5 253.5t109.5 174.5t150 62q76 0 118.5 -61.5t42.5 -168.5q0 -141 -41.5 -253.5t-109.5 -174.5t-150 -62zM226 60q57 0 106.5 60.5t77.5 154t28 195.5q0 83 -24.5 126.5t-71.5 43.5q-57 0 -106.5 -60.5t-77.5 -154 t-28 -195.5q0 -83 24.5 -126.5t71.5 -43.5zM396 768h-78l123 116h101z" />
<glyph unicode="&#xd4;" horiz-adv-x="529" d="M214 -10q-76 0 -118.5 61.5t-42.5 168.5q0 141 41.5 253.5t109.5 174.5t150 62q76 0 118.5 -61.5t42.5 -168.5q0 -141 -41.5 -253.5t-109.5 -174.5t-150 -62zM226 60q57 0 106.5 60.5t77.5 154t28 195.5q0 83 -24.5 126.5t-71.5 43.5q-57 0 -106.5 -60.5t-77.5 -154 t-28 -195.5q0 -83 24.5 -126.5t71.5 -43.5zM434 768l-52 68l-81 -68h-77l122 116h82l73 -116h-67z" />
<glyph unicode="&#xd5;" horiz-adv-x="529" d="M214 -10q-76 0 -118.5 61.5t-42.5 168.5q0 141 41.5 253.5t109.5 174.5t150 62q76 0 118.5 -61.5t42.5 -168.5q0 -141 -41.5 -253.5t-109.5 -174.5t-150 -62zM226 60q57 0 106.5 60.5t77.5 154t28 195.5q0 83 -24.5 126.5t-71.5 43.5q-57 0 -106.5 -60.5t-77.5 -154 t-28 -195.5q0 -83 24.5 -126.5t71.5 -43.5zM532 881q-11 -56 -35 -85.5t-61 -29.5q-19 0 -36 8t-44 30q-18 14 -26 18.5t-15 4.5q-30 0 -40 -57h-59q11 56 35 85.5t61 29.5q19 0 36 -8t44 -30q18 -14 26 -18.5t15 -4.5q30 0 40 57h59z" />
<glyph unicode="&#xd6;" horiz-adv-x="529" d="M214 -10q-76 0 -118.5 61.5t-42.5 168.5q0 141 41.5 253.5t109.5 174.5t150 62q76 0 118.5 -61.5t42.5 -168.5q0 -141 -41.5 -253.5t-109.5 -174.5t-150 -62zM226 60q57 0 106.5 60.5t77.5 154t28 195.5q0 83 -24.5 126.5t-71.5 43.5q-57 0 -106.5 -60.5t-77.5 -154 t-28 -195.5q0 -83 24.5 -126.5t71.5 -43.5zM341 834q0 -23 -16.5 -38t-40.5 -15q-20 0 -31.5 11.5t-11.5 29.5q0 23 16.5 38t40.5 15q20 0 31.5 -11.5t11.5 -29.5zM509 834q0 -23 -16.5 -38t-40.5 -15q-20 0 -31.5 11.5t-11.5 29.5q0 23 16.5 38t40.5 15q20 0 31.5 -11.5 t11.5 -29.5z" />
<glyph unicode="&#xd7;" horiz-adv-x="490" d="M304 341l107 -138l-48 -40l-107 139l-160 -133l-36 47l159 132l-107 138l48 40l107 -139l160 133l36 -47z" />
<glyph unicode="&#xd8;" horiz-adv-x="529" d="M2 19l66 89q-15 48 -15 112q0 141 41.5 253.5t109.5 174.5t150 62q74 0 117 -59l49 67l46 -37l-66 -89q15 -48 15 -111q0 -141 -41.5 -254t-110 -175t-149.5 -62q-74 0 -117 59l-49 -67zM128 230q0 -27 1 -39l293 394q-24 57 -80 57q-57 0 -107 -61.5t-78.5 -155.5 t-28.5 -195zM226 58q57 0 107 61.5t78.5 155.5t28.5 195q0 27 -1 39l-293 -394q24 -57 80 -57z" />
<glyph unicode="&#xd9;" horiz-adv-x="518" d="M472 700h75l-102 -479q-25 -118 -81 -174.5t-150 -56.5q-78 0 -121 43.5t-43 122.5q0 33 9 76l99 468h75l-99 -464q-8 -37 -8 -72q0 -50 24.5 -77t69.5 -27q59 0 96 40t54 122zM329 768l-98 116h93l73 -116h-68z" />
<glyph unicode="&#xda;" horiz-adv-x="518" d="M472 700h75l-102 -479q-25 -118 -81 -174.5t-150 -56.5q-78 0 -121 43.5t-43 122.5q0 33 9 76l99 468h75l-99 -464q-8 -37 -8 -72q0 -50 24.5 -77t69.5 -27q59 0 96 40t54 122zM390 768h-78l123 116h101z" />
<glyph unicode="&#xdb;" horiz-adv-x="518" d="M472 700h75l-102 -479q-25 -118 -81 -174.5t-150 -56.5q-78 0 -121 43.5t-43 122.5q0 33 9 76l99 468h75l-99 -464q-8 -37 -8 -72q0 -50 24.5 -77t69.5 -27q59 0 96 40t54 122zM428 768l-52 68l-81 -68h-77l122 116h82l73 -116h-67z" />
<glyph unicode="&#xdc;" horiz-adv-x="518" d="M472 700h75l-102 -479q-25 -118 -81 -174.5t-150 -56.5q-78 0 -121 43.5t-43 122.5q0 33 9 76l99 468h75l-99 -464q-8 -37 -8 -72q0 -50 24.5 -77t69.5 -27q59 0 96 40t54 122zM335 834q0 -23 -16.5 -38t-40.5 -15q-20 0 -31.5 11.5t-11.5 29.5q0 23 16.5 38t40.5 15 q20 0 31.5 -11.5t11.5 -29.5zM503 834q0 -23 -16.5 -38t-40.5 -15q-20 0 -31.5 11.5t-11.5 29.5q0 23 16.5 38t40.5 15q20 0 31.5 -11.5t11.5 -29.5z" />
<glyph unicode="&#xdd;" horiz-adv-x="457" d="M136 0l58 275l-77 425h76l53 -351l203 351h77l-257 -426l-58 -274h-75zM359 768h-78l123 116h101z" />
<glyph unicode="&#xde;" horiz-adv-x="476" d="M16 0l149 700h75l-27 -124h59q87 0 136.5 -50t49.5 -138q0 -76 -33 -133.5t-90 -88.5t-130 -31h-86l-28 -135h-75zM199 507l-65 -303h81q72 0 119 51t47 129q0 58 -30 90.5t-85 32.5h-67z" />
<glyph unicode="&#xdf;" horiz-adv-x="472" d="M143 70q28 -17 71 -17q62 0 101.5 49t39.5 128q0 127 -118 127h-22l13 60h27q45 0 81.5 25t56.5 65t20 87q0 49 -22.5 76t-62.5 27q-99 0 -137 -181l-110 -516h-71l110 516q27 125 79 184.5t134 59.5q69 0 110.5 -43t41.5 -113q0 -75 -44.5 -138.5t-108.5 -80.5 q46 -16 70.5 -57t24.5 -102q0 -70 -27.5 -124t-75 -83t-106.5 -29q-62 0 -98 25z" />
<glyph unicode="&#xe0;" horiz-adv-x="465" d="M273 530q65 0 108 -57l16 46h58l-111 -519h-58l4 50q-28 -29 -60.5 -44.5t-65.5 -15.5q-60 0 -93 46.5t-33 128.5q0 104 33 188.5t86 130.5t116 46zM191 53q27 0 55.5 16.5t50.5 44.5l66 306q-15 21 -38.5 34t-48.5 13q-46 0 -84.5 -41.5t-60 -107t-21.5 -139.5 q0 -61 20.5 -93.5t60.5 -32.5zM275 609l-83 144h82l65 -144h-64z" />
<glyph unicode="&#xe1;" horiz-adv-x="465" d="M273 530q65 0 108 -57l16 46h58l-111 -519h-58l4 50q-28 -29 -60.5 -44.5t-65.5 -15.5q-60 0 -93 46.5t-33 128.5q0 104 33 188.5t86 130.5t116 46zM191 53q27 0 55.5 16.5t50.5 44.5l66 306q-15 21 -38.5 34t-48.5 13q-46 0 -84.5 -41.5t-60 -107t-21.5 -139.5 q0 -61 20.5 -93.5t60.5 -32.5zM330 609h-72l126 144h94z" />
<glyph unicode="&#xe2;" horiz-adv-x="465" d="M273 530q65 0 108 -57l16 46h58l-111 -519h-58l4 50q-28 -29 -60.5 -44.5t-65.5 -15.5q-60 0 -93 46.5t-33 128.5q0 104 33 188.5t86 130.5t116 46zM191 53q27 0 55.5 16.5t50.5 44.5l66 306q-15 21 -38.5 34t-48.5 13q-46 0 -84.5 -41.5t-60 -107t-21.5 -139.5 q0 -61 20.5 -93.5t60.5 -32.5zM372 609l-48 91l-88 -91h-68l126 144h75l65 -144h-62z" />
<glyph unicode="&#xe3;" horiz-adv-x="465" d="M273 530q65 0 108 -57l16 46h58l-111 -519h-58l4 50q-28 -29 -60.5 -44.5t-65.5 -15.5q-60 0 -93 46.5t-33 128.5q0 104 33 188.5t86 130.5t116 46zM191 53q27 0 55.5 16.5t50.5 44.5l66 306q-15 21 -38.5 34t-48.5 13q-46 0 -84.5 -41.5t-60 -107t-21.5 -139.5 q0 -61 20.5 -93.5t60.5 -32.5zM469 735q-10 -56 -35.5 -85t-63.5 -29q-18 0 -33 7.5t-38 29.5q-14 13 -21 17.5t-16 4.5q-15 0 -24.5 -13.5t-14.5 -43.5h-60q10 56 35.5 85t63.5 29q18 0 33 -7.5t38 -29.5q14 -13 21 -17.5t16 -4.5q15 0 24.5 13.5t14.5 43.5h60z" />
<glyph unicode="&#xe4;" horiz-adv-x="465" d="M273 530q65 0 108 -57l16 46h58l-111 -519h-58l4 50q-28 -29 -60.5 -44.5t-65.5 -15.5q-60 0 -93 46.5t-33 128.5q0 104 33 188.5t86 130.5t116 46zM191 53q27 0 55.5 16.5t50.5 44.5l66 306q-15 21 -38.5 34t-48.5 13q-46 0 -84.5 -41.5t-60 -107t-21.5 -139.5 q0 -61 20.5 -93.5t60.5 -32.5zM283 686q0 -21 -15.5 -35.5t-38.5 -14.5q-19 0 -30.5 11t-11.5 29q0 21 15.5 35.5t38.5 14.5q19 0 30.5 -11t11.5 -29zM445 686q0 -21 -15.5 -35.5t-38.5 -14.5q-19 0 -30.5 11t-11.5 29q0 21 15.5 35.5t38.5 14.5q19 0 30.5 -11t11.5 -29z " />
<glyph unicode="&#xe5;" horiz-adv-x="465" d="M273 530q65 0 108 -57l16 46h58l-111 -519h-58l4 50q-28 -29 -60.5 -44.5t-65.5 -15.5q-60 0 -93 46.5t-33 128.5q0 104 33 188.5t86 130.5t116 46zM191 53q27 0 55.5 16.5t50.5 44.5l66 306q-15 21 -38.5 34t-48.5 13q-46 0 -84.5 -41.5t-60 -107t-21.5 -139.5 q0 -61 20.5 -93.5t60.5 -32.5zM423 701q0 -48 -34.5 -81.5t-84.5 -33.5q-41 0 -66 25t-25 66q0 48 34.5 81.5t84.5 33.5q41 0 66 -25t25 -66zM372 695q0 23 -13 37t-34 14q-25 0 -43 -18.5t-18 -44.5q0 -23 13 -37t34 -14q25 0 43 18.5t18 44.5z" />
<glyph unicode="&#xe6;" horiz-adv-x="696" d="M286 0l4 50q-28 -29 -60.5 -44.5t-65.5 -15.5q-60 0 -93 46.5t-33 128.5q0 104 33 188.5t86 130.5t116 46q65 0 108 -57l16 46h48l-11 -66q63 77 134 77q52 0 83 -31.5t31 -83.5q0 -59 -34 -104.5t-90.5 -70.5t-124.5 -25h-21t-20 1q-1 -7 -1 -14v-15q0 -134 103 -134 q26 0 53 9.5t49 25.5l16 -55q-25 -20 -60.5 -31.5t-73.5 -11.5q-47 0 -77 20t-47 63l-20 -73h-48zM191 53q27 0 55.5 16.5t50.5 44.5l66 306q-15 21 -38.5 34t-48.5 13q-46 0 -84.5 -41.5t-60 -107t-21.5 -139.5q0 -61 20.5 -93.5t60.5 -32.5zM561 469q-33 0 -67 -28 t-59 -73t-36 -97q9 -1 27 -1q55 0 98 18t66.5 48.5t23.5 67.5q0 31 -13.5 48t-39.5 17z" />
<glyph unicode="&#xe7;" horiz-adv-x="382" d="M315 32q-27 -20 -62 -31t-69 -11q-70 0 -108 51t-38 145q0 97 36.5 176.5t95 123.5t126.5 44q48 0 98 -29l-28 -54q-33 18 -73 18q-49 0 -91.5 -41t-67 -104t-24.5 -130q0 -65 24 -100t68 -35q48 0 97 33zM61 -161q35 -20 66 -20q28 0 44 12t16 33q0 41 -60 41h-28l56 97 h55l-32 -55q31 -7 48 -28t17 -53q0 -43 -31 -69.5t-83 -26.5q-49 0 -88 25z" />
<glyph unicode="&#xe8;" horiz-adv-x="413" d="M329 33q-25 -20 -60.5 -31.5t-73.5 -11.5q-75 0 -116 51t-41 146q0 73 22 137.5t57.5 110.5t79 70.5t88.5 24.5q52 0 83 -31.5t31 -83.5q0 -59 -34 -104.5t-90.5 -70.5t-124.5 -25h-21t-20 1q-1 -7 -1 -14v-15q0 -134 103 -134q26 0 53 9.5t49 25.5zM278 469 q-33 0 -67 -28t-59 -73t-36 -97q9 -1 27 -1q55 0 98 18t66.5 48.5t23.5 67.5q0 31 -13.5 48t-39.5 17zM265 609l-83 144h82l65 -144h-64z" />
<glyph unicode="&#xe9;" horiz-adv-x="413" d="M329 33q-25 -20 -60.5 -31.5t-73.5 -11.5q-75 0 -116 51t-41 146q0 73 22 137.5t57.5 110.5t79 70.5t88.5 24.5q52 0 83 -31.5t31 -83.5q0 -59 -34 -104.5t-90.5 -70.5t-124.5 -25h-21t-20 1q-1 -7 -1 -14v-15q0 -134 103 -134q26 0 53 9.5t49 25.5zM278 469 q-33 0 -67 -28t-59 -73t-36 -97q9 -1 27 -1q55 0 98 18t66.5 48.5t23.5 67.5q0 31 -13.5 48t-39.5 17zM320 609h-72l126 144h94z" />
<glyph unicode="&#xea;" horiz-adv-x="413" d="M329 33q-25 -20 -60.5 -31.5t-73.5 -11.5q-75 0 -116 51t-41 146q0 73 22 137.5t57.5 110.5t79 70.5t88.5 24.5q52 0 83 -31.5t31 -83.5q0 -59 -34 -104.5t-90.5 -70.5t-124.5 -25h-21t-20 1q-1 -7 -1 -14v-15q0 -134 103 -134q26 0 53 9.5t49 25.5zM278 469 q-33 0 -67 -28t-59 -73t-36 -97q9 -1 27 -1q55 0 98 18t66.5 48.5t23.5 67.5q0 31 -13.5 48t-39.5 17zM362 609l-48 91l-88 -91h-68l126 144h75l65 -144h-62z" />
<glyph unicode="&#xeb;" horiz-adv-x="413" d="M329 33q-25 -20 -60.5 -31.5t-73.5 -11.5q-75 0 -116 51t-41 146q0 73 22 137.5t57.5 110.5t79 70.5t88.5 24.5q52 0 83 -31.5t31 -83.5q0 -59 -34 -104.5t-90.5 -70.5t-124.5 -25h-21t-20 1q-1 -7 -1 -14v-15q0 -134 103 -134q26 0 53 9.5t49 25.5zM278 469 q-33 0 -67 -28t-59 -73t-36 -97q9 -1 27 -1q55 0 98 18t66.5 48.5t23.5 67.5q0 31 -13.5 48t-39.5 17zM273 686q0 -21 -15.5 -35.5t-38.5 -14.5q-19 0 -30.5 11t-11.5 29q0 21 15.5 35.5t38.5 14.5q19 0 30.5 -11t11.5 -29zM435 686q0 -21 -15.5 -35.5t-38.5 -14.5 q-19 0 -30.5 11t-11.5 29q0 21 15.5 35.5t38.5 14.5q19 0 30.5 -11t11.5 -29z" />
<glyph unicode="&#xec;" horiz-adv-x="203" d="M11 0l111 519h71l-111 -519h-71zM139 609l-83 144h82l65 -144h-64z" />
<glyph unicode="&#xed;" horiz-adv-x="203" d="M11 0l111 519h71l-111 -519h-71zM194 609h-72l126 144h94z" />
<glyph unicode="&#xee;" horiz-adv-x="203" d="M11 0l111 519h71l-111 -519h-71zM236 609l-48 91l-88 -91h-68l126 144h75l65 -144h-62z" />
<glyph unicode="&#xef;" horiz-adv-x="203" d="M11 0l111 519h71l-111 -519h-71zM147 686q0 -21 -15.5 -35.5t-38.5 -14.5q-19 0 -30.5 11t-11.5 29q0 21 15.5 35.5t38.5 14.5q19 0 30.5 -11t11.5 -29zM309 686q0 -21 -15.5 -35.5t-38.5 -14.5q-19 0 -30.5 11t-11.5 29q0 21 15.5 35.5t38.5 14.5q19 0 30.5 -11 t11.5 -29z" />
<glyph unicode="&#xf0;" horiz-adv-x="460" d="M343 661q79 -122 79 -305q0 -109 -32 -193t-87 -128.5t-124 -44.5q-63 0 -102 50t-39 132q0 92 34.5 169t87.5 120t113 43q28 0 51 -15.5t37 -42.5q-15 101 -67 179l-99 -74l-25 39l96 71q-31 35 -67 60l36 49q47 -33 80 -73l97 73l25 -39zM190 53q42 0 79.5 41t59 101.5 t21.5 124.5q0 56 -21.5 88.5t-58.5 32.5q-42 0 -79.5 -41t-59 -101.5t-21.5 -124.5q0 -56 21.5 -88.5t58.5 -32.5z" />
<glyph unicode="&#xf1;" horiz-adv-x="468" d="M280 0l75 352q5 25 5 46q0 33 -16.5 50t-48.5 17q-30 0 -64 -16t-62 -42l-87 -407h-71l111 519h58l-5 -56q37 32 75.5 49.5t73.5 17.5q53 0 81.5 -30t28.5 -86q0 -27 -6 -54l-77 -360h-71zM473 735q-10 -56 -35.5 -85t-63.5 -29q-18 0 -33 7.5t-38 29.5q-14 13 -21 17.5 t-16 4.5q-15 0 -24.5 -13.5t-14.5 -43.5h-60q10 56 35.5 85t63.5 29q18 0 33 -7.5t38 -29.5q14 -13 21 -17.5t16 -4.5q15 0 24.5 13.5t14.5 43.5h60z" />
<glyph unicode="&#xf2;" horiz-adv-x="460" d="M177 -10q-64 0 -101.5 50t-37.5 135q0 104 33 185.5t88.5 125.5t123.5 44q64 0 101.5 -50t37.5 -135q0 -104 -33 -185.5t-88.5 -125.5t-123.5 -44zM188 53q44 0 81.5 42t59 107t21.5 137q0 62 -20.5 95t-57.5 33q-44 0 -81.5 -42t-59 -107t-21.5 -137q0 -62 20.5 -95 t57.5 -33zM266 609l-83 144h82l65 -144h-64z" />
<glyph unicode="&#xf3;" horiz-adv-x="460" d="M177 -10q-64 0 -101.5 50t-37.5 135q0 104 33 185.5t88.5 125.5t123.5 44q64 0 101.5 -50t37.5 -135q0 -104 -33 -185.5t-88.5 -125.5t-123.5 -44zM188 53q44 0 81.5 42t59 107t21.5 137q0 62 -20.5 95t-57.5 33q-44 0 -81.5 -42t-59 -107t-21.5 -137q0 -62 20.5 -95 t57.5 -33zM321 609h-72l126 144h94z" />
<glyph unicode="&#xf4;" horiz-adv-x="460" d="M177 -10q-64 0 -101.5 50t-37.5 135q0 104 33 185.5t88.5 125.5t123.5 44q64 0 101.5 -50t37.5 -135q0 -104 -33 -185.5t-88.5 -125.5t-123.5 -44zM188 53q44 0 81.5 42t59 107t21.5 137q0 62 -20.5 95t-57.5 33q-44 0 -81.5 -42t-59 -107t-21.5 -137q0 -62 20.5 -95 t57.5 -33zM363 609l-48 91l-88 -91h-68l126 144h75l65 -144h-62z" />
<glyph unicode="&#xf5;" horiz-adv-x="460" d="M177 -10q-64 0 -101.5 50t-37.5 135q0 104 33 185.5t88.5 125.5t123.5 44q64 0 101.5 -50t37.5 -135q0 -104 -33 -185.5t-88.5 -125.5t-123.5 -44zM188 53q44 0 81.5 42t59 107t21.5 137q0 62 -20.5 95t-57.5 33q-44 0 -81.5 -42t-59 -107t-21.5 -137q0 -62 20.5 -95 t57.5 -33zM460 735q-10 -56 -35.5 -85t-63.5 -29q-18 0 -33 7.5t-38 29.5q-14 13 -21 17.5t-16 4.5q-15 0 -24.5 -13.5t-14.5 -43.5h-60q10 56 35.5 85t63.5 29q18 0 33 -7.5t38 -29.5q14 -13 21 -17.5t16 -4.5q15 0 24.5 13.5t14.5 43.5h60z" />
<glyph unicode="&#xf6;" horiz-adv-x="460" d="M177 -10q-64 0 -101.5 50t-37.5 135q0 104 33 185.5t88.5 125.5t123.5 44q64 0 101.5 -50t37.5 -135q0 -104 -33 -185.5t-88.5 -125.5t-123.5 -44zM188 53q44 0 81.5 42t59 107t21.5 137q0 62 -20.5 95t-57.5 33q-44 0 -81.5 -42t-59 -107t-21.5 -137q0 -62 20.5 -95 t57.5 -33zM274 686q0 -21 -15.5 -35.5t-38.5 -14.5q-19 0 -30.5 11t-11.5 29q0 21 15.5 35.5t38.5 14.5q19 0 30.5 -11t11.5 -29zM436 686q0 -21 -15.5 -35.5t-38.5 -14.5q-19 0 -30.5 11t-11.5 29q0 21 15.5 35.5t38.5 14.5q19 0 30.5 -11t11.5 -29z" />
<glyph unicode="&#xf7;" horiz-adv-x="490" d="M279 198q0 -22 -15.5 -37.5t-38.5 -15.5q-18 0 -29.5 11.5t-11.5 28.5q0 22 15.5 37t38.5 15q18 0 29.5 -11t11.5 -28zM71 314l13 62h372l-13 -62h-372zM342 506q0 -22 -15.5 -37t-38.5 -15q-18 0 -29.5 11t-11.5 29q0 22 15.5 37t38.5 15q18 0 29.5 -11t11.5 -29z" />
<glyph unicode="&#xf8;" horiz-adv-x="460" d="M-8 16l59 71q-13 36 -13 87q0 65 13 121.5t36.5 100t54 73.5t66.5 45.5t75 15.5q62 0 99 -46l45 53l41 -33l-59 -71q13 -36 13 -88q0 -104 -33 -185.5t-88.5 -125.5t-123.5 -44q-62 0 -99 46l-45 -53zM188 51q44 0 82.5 43t60 108.5t21.5 136.5v13t-1 12l-227 -272 q21 -41 64 -41zM108 181v-13t1 -12l227 272q-21 41 -64 41q-44 0 -82.5 -42.5t-60 -108.5t-21.5 -137z" />
<glyph unicode="&#xf9;" horiz-adv-x="462" d="M283 0l4 51q-72 -61 -143 -61q-52 0 -80.5 30t-28.5 85q0 27 6 54l77 360h71l-75 -352q-5 -27 -5 -47q0 -65 65 -65q27 0 59.5 13.5t59.5 37.5l88 413h71l-111 -519h-58zM269 609l-83 144h82l65 -144h-64z" />
<glyph unicode="&#xfa;" horiz-adv-x="462" d="M283 0l4 51q-72 -61 -143 -61q-52 0 -80.5 30t-28.5 85q0 27 6 54l77 360h71l-75 -352q-5 -27 -5 -47q0 -65 65 -65q27 0 59.5 13.5t59.5 37.5l88 413h71l-111 -519h-58zM324 609h-72l126 144h94z" />
<glyph unicode="&#xfb;" horiz-adv-x="462" d="M283 0l4 51q-72 -61 -143 -61q-52 0 -80.5 30t-28.5 85q0 27 6 54l77 360h71l-75 -352q-5 -27 -5 -47q0 -65 65 -65q27 0 59.5 13.5t59.5 37.5l88 413h71l-111 -519h-58zM366 609l-48 91l-88 -91h-68l126 144h75l65 -144h-62z" />
<glyph unicode="&#xfc;" horiz-adv-x="462" d="M283 0l4 51q-72 -61 -143 -61q-52 0 -80.5 30t-28.5 85q0 27 6 54l77 360h71l-75 -352q-5 -27 -5 -47q0 -65 65 -65q27 0 59.5 13.5t59.5 37.5l88 413h71l-111 -519h-58zM277 686q0 -21 -15.5 -35.5t-38.5 -14.5q-19 0 -30.5 11t-11.5 29q0 21 15.5 35.5t38.5 14.5 q19 0 30.5 -11t11.5 -29zM439 686q0 -21 -15.5 -35.5t-38.5 -14.5q-19 0 -30.5 11t-11.5 29q0 21 15.5 35.5t38.5 14.5q19 0 30.5 -11t11.5 -29z" />
<glyph unicode="&#xfd;" horiz-adv-x="412" d="M76 519h74l22 -417l200 417h75l-285 -563q-51 -102 -91 -142t-89 -40q-36 0 -62 17l21 54q23 -8 39 -8q32 0 59.5 33t79.5 134zM299 609h-72l126 144h94z" />
<glyph unicode="&#xfe;" horiz-adv-x="466" d="M-35 -216l206 966h71l-59 -276q56 56 119 56q59 0 92.5 -46.5t33.5 -129.5q0 -104 -33 -188t-86 -130t-116 -46q-61 0 -102 51l-55 -257h-71zM275 467q-27 0 -55.5 -16.5t-50.5 -44.5l-66 -307q15 -21 38.5 -33.5t48.5 -12.5q46 0 84.5 41.5t60 107t21.5 138.5 q0 63 -21 95t-60 32z" />
<glyph unicode="&#xff;" horiz-adv-x="412" d="M76 519h74l22 -417l200 417h75l-285 -563q-51 -102 -91 -142t-89 -40q-36 0 -62 17l21 54q23 -8 39 -8q32 0 59.5 33t79.5 134zM252 686q0 -21 -15.5 -35.5t-38.5 -14.5q-19 0 -30.5 11t-11.5 29q0 21 15.5 35.5t38.5 14.5q19 0 30.5 -11t11.5 -29zM414 686 q0 -21 -15.5 -35.5t-38.5 -14.5q-19 0 -30.5 11t-11.5 29q0 21 15.5 35.5t38.5 14.5q19 0 30.5 -11t11.5 -29z" />
<glyph unicode="&#x102;" horiz-adv-x="500" d="M353 0l-9 193h-214l-91 -193h-77l342 700h77l48 -700h-76zM324 606l-164 -345h181zM486 885q-11 -57 -49.5 -89.5t-94.5 -32.5q-50 0 -79.5 26t-29.5 72q0 13 1 24h58v-6q0 -30 14 -46.5t41 -16.5q28 0 47.5 17.5t29.5 51.5h62z" />
<glyph unicode="&#x103;" horiz-adv-x="465" d="M273 530q65 0 108 -57l16 46h58l-111 -519h-58l4 50q-28 -29 -60.5 -44.5t-65.5 -15.5q-60 0 -93 46.5t-33 128.5q0 104 33 188.5t86 130.5t116 46zM191 53q27 0 55.5 16.5t50.5 44.5l66 306q-15 21 -38.5 34t-48.5 13q-46 0 -84.5 -41.5t-60 -107t-21.5 -139.5 q0 -61 20.5 -93.5t60.5 -32.5zM434 729q-10 -57 -47 -90t-91 -33q-49 0 -77 27t-28 76q0 11 1 20h57v-7q0 -30 13.5 -46t38.5 -16q26 0 45 17.5t29 51.5h59z" />
<glyph unicode="&#x131;" horiz-adv-x="203" d="M11 0l111 519h71l-111 -519h-71z" />
<glyph unicode="&#x132;" horiz-adv-x="550" d="M16 0l149 700h75l-149 -700h-75zM205 84q41 -24 80 -24q45 0 71 33.5t43 113.5l105 493h75l-106 -498q-25 -116 -66.5 -164t-116.5 -48q-58 0 -109 31z" />
<glyph unicode="&#x133;" horiz-adv-x="406" d="M11 0l111 519h71l-111 -519h-71zM240 686q0 -23 -16.5 -38.5t-40.5 -15.5q-19 0 -30.5 11t-11.5 29q0 23 16.5 38.5t40.5 15.5q19 0 30.5 -11t11.5 -29zM85 -156q21 -7 37 -7q31 0 48.5 21t27.5 70l126 591h71l-127 -596q-17 -80 -49.5 -114.5t-90.5 -34.5q-38 0 -63 17z M442 686q0 -23 -16.5 -38.5t-40.5 -15.5q-19 0 -30.5 11t-11.5 29q0 23 16.5 38.5t40.5 15.5q19 0 30.5 -11t11.5 -29z" />
<glyph unicode="&#x152;" horiz-adv-x="762" d="M495 318l-52 -249h242l-15 -69h-309l18 85q-71 -95 -165 -95q-76 0 -118.5 61.5t-42.5 168.5q0 139 41 251.5t107 175.5t143 63q54 0 89.5 -33.5t50.5 -96.5l26 120h299l-15 -69h-232l-52 -244h190l-15 -69h-190zM226 60q57 0 106.5 60.5t77.5 154t28 195.5 q0 83 -24.5 126.5t-71.5 43.5q-57 0 -106.5 -60.5t-77.5 -154t-28 -195.5q0 -83 24.5 -126.5t71.5 -43.5z" />
<glyph unicode="&#x153;" horiz-adv-x="710" d="M626 33q-25 -20 -60.5 -31.5t-73.5 -11.5q-111 0 -141 112q-33 -55 -77.5 -83.5t-96.5 -28.5q-64 0 -101.5 50t-37.5 135q0 104 33 185.5t88.5 125.5t123.5 44q49 0 81.5 -31t43.5 -87q35 57 80 87.5t94 30.5q52 0 83 -31.5t31 -83.5q0 -59 -34 -104.5t-90.5 -70.5 t-124.5 -25h-21t-20 1q-1 -7 -1 -14v-15q0 -134 103 -134q26 0 53 9.5t49 25.5zM188 53q44 0 81.5 42t59 107t21.5 137q0 62 -20.5 95t-57.5 33q-44 0 -81.5 -42t-59 -107t-21.5 -137q0 -62 20.5 -95t57.5 -33zM575 469q-33 0 -67 -28t-59 -73t-36 -97q9 -1 27 -1 q55 0 98 18t66.5 48.5t23.5 67.5q0 31 -13.5 48t-39.5 17z" />
<glyph unicode="&#x15e;" horiz-adv-x="428" d="M9 93q56 -33 119 -33q69 0 112.5 39.5t43.5 103.5q0 41 -16.5 67.5t-63.5 61.5l-19 14q-45 33 -66 72.5t-21 94.5q0 59 28 104t75.5 69t106.5 24q40 0 77 -10.5t65 -30.5l-30 -60q-53 31 -110 31q-60 0 -97.5 -34t-37.5 -88q0 -41 16.5 -67.5t63.5 -61.5l19 -14 q45 -33 66 -72.5t21 -94.5q0 -67 -29.5 -116.5t-81 -75.5t-118.5 -26q-93 0 -153 43zM30 -160q35 -20 66 -20q28 0 43.5 11.5t15.5 32.5q0 40 -59 40h-29l56 98h59l-32 -55q62 -16 62 -81q0 -43 -31 -69.5t-83 -26.5q-49 0 -88 25z" />
<glyph unicode="&#x15f;" horiz-adv-x="372" d="M9 85q58 -32 113 -32q51 0 81 24.5t30 66.5q0 27 -15 48.5t-49 42.5l-16 10q-45 28 -65.5 60.5t-20.5 76.5q0 66 47 107t123 41q66 0 118 -32l-28 -54q-36 23 -89 23q-45 0 -72.5 -22.5t-27.5 -58.5q0 -27 15 -48.5t49 -42.5l16 -10q45 -28 65.5 -60.5t20.5 -76.5 q0 -73 -48.5 -115.5t-130.5 -42.5q-37 0 -76 11t-68 29zM11 -161q35 -20 66 -20q28 0 44 12t16 33q0 41 -60 41h-28l56 97h55l-32 -55q31 -7 48 -28t17 -53q0 -43 -31 -69.5t-83 -26.5q-49 0 -88 25z" />
<glyph unicode="&#x160;" horiz-adv-x="428" d="M9 93q56 -33 119 -33q69 0 112.5 39.5t43.5 103.5q0 41 -16.5 67.5t-63.5 61.5l-19 14q-45 33 -66 72.5t-21 94.5q0 59 28 104t75.5 69t106.5 24q40 0 77 -10.5t65 -30.5l-30 -60q-53 31 -110 31q-60 0 -97.5 -34t-37.5 -88q0 -41 16.5 -67.5t63.5 -61.5l19 -14 q45 -33 66 -72.5t21 -94.5q0 -67 -29.5 -116.5t-81 -75.5t-118.5 -26q-93 0 -153 43zM364 768h-82l-73 116h67l52 -69l81 69h77z" />
<glyph unicode="&#x161;" horiz-adv-x="372" d="M9 85q58 -32 113 -32q51 0 81 24.5t30 66.5q0 27 -15 48.5t-49 42.5l-16 10q-45 28 -65.5 60.5t-20.5 76.5q0 66 47 107t123 41q66 0 118 -32l-28 -54q-36 23 -89 23q-45 0 -72.5 -22.5t-27.5 -58.5q0 -27 15 -48.5t49 -42.5l16 -10q45 -28 65.5 -60.5t20.5 -76.5 q0 -73 -48.5 -115.5t-130.5 -42.5q-37 0 -76 11t-68 29zM220 609l-65 144h62l47 -91l89 91h68l-126 -144h-75z" />
<glyph unicode="&#x162;" horiz-adv-x="472" d="M145 0l134 631h-168l15 69h406l-15 -69h-163l-134 -631h-75zM62 -160q35 -20 66 -20q28 0 43.5 11.5t15.5 32.5q0 40 -59 40h-29l56 98h59l-32 -55q62 -16 62 -81q0 -43 -31 -69.5t-83 -26.5q-49 0 -88 25z" />
<glyph unicode="&#x163;" horiz-adv-x="324" d="M272 21q-48 -31 -108 -31q-52 0 -79.5 27.5t-27.5 78.5q0 24 11 76l61 286h-70l13 61h72l44 148h56l-31 -148h129l-13 -61h-129l-61 -286q-9 -40 -9 -64q0 -55 55 -55q36 0 75 24zM17 -161q35 -20 66 -20q28 0 44 12t16 33q0 41 -60 41h-28l56 97h55l-32 -55 q31 -7 48 -28t17 -53q0 -43 -31 -69.5t-83 -26.5q-49 0 -88 25z" />
<glyph unicode="&#x174;" horiz-adv-x="688" d="M398 0l-1 509l-216 -509h-80l24 700h75l-30 -578l220 518h68l2 -515l211 575h75l-268 -700h-80zM512 768l-52 68l-81 -68h-77l122 116h82l73 -116h-67z" />
<glyph unicode="&#x175;" horiz-adv-x="617" d="M346 0l-9 403l-173 -403h-66l-16 519h71v-414l169 395h68l8 -397l174 416h73l-233 -519h-66zM454 609l-48 91l-88 -91h-68l126 144h75l65 -144h-62z" />
<glyph unicode="&#x176;" horiz-adv-x="457" d="M136 0l58 275l-77 425h76l53 -351l203 351h77l-257 -426l-58 -274h-75zM397 768l-52 68l-81 -68h-77l122 116h82l73 -116h-67z" />
<glyph unicode="&#x177;" horiz-adv-x="412" d="M76 519h74l22 -417l200 417h75l-285 -563q-51 -102 -91 -142t-89 -40q-36 0 -62 17l21 54q23 -8 39 -8q32 0 59.5 33t79.5 134zM341 609l-48 91l-88 -91h-68l126 144h75l65 -144h-62z" />
<glyph unicode="&#x178;" horiz-adv-x="457" d="M136 0l58 275l-77 425h76l53 -351l203 351h77l-257 -426l-58 -274h-75zM304 834q0 -23 -16.5 -38t-40.5 -15q-20 0 -31.5 11.5t-11.5 29.5q0 23 16.5 38t40.5 15q20 0 31.5 -11.5t11.5 -29.5zM472 834q0 -23 -16.5 -38t-40.5 -15q-20 0 -31.5 11.5t-11.5 29.5 q0 23 16.5 38t40.5 15q20 0 31.5 -11.5t11.5 -29.5z" />
<glyph unicode="&#x17d;" horiz-adv-x="419" d="M-33 0l14 65l391 566h-264l15 69h349l-14 -65l-391 -566h289l-15 -69h-374zM342 768h-82l-73 116h67l52 -69l81 69h77z" />
<glyph unicode="&#x17e;" horiz-adv-x="362" d="M-24 0l12 53l302 405h-210l13 61h292l-12 -53l-302 -405h223l-13 -61h-305zM210 609l-65 144h62l47 -91l89 91h68l-126 -144h-75z" />
<glyph unicode="&#x218;" horiz-adv-x="428" d="M9 93q56 -33 119 -33q69 0 112.5 39.5t43.5 103.5q0 41 -16.5 67.5t-63.5 61.5l-19 14q-45 33 -66 72.5t-21 94.5q0 59 28 104t75.5 69t106.5 24q40 0 77 -10.5t65 -30.5l-30 -60q-53 31 -110 31q-60 0 -97.5 -34t-37.5 -88q0 -41 16.5 -67.5t63.5 -61.5l19 -14 q45 -33 66 -72.5t21 -94.5q0 -67 -29.5 -116.5t-81 -75.5t-118.5 -26q-93 0 -153 43zM64 -224q39 32 56 73q-13 2 -21 12t-8 24q0 21 15 35t37 14q19 0 30 -11.5t11 -30.5q0 -37 -26 -75.5t-72 -69.5z" />
<glyph unicode="&#x219;" horiz-adv-x="372" d="M9 85q58 -32 113 -32q51 0 81 24.5t30 66.5q0 27 -15 48.5t-49 42.5l-16 10q-45 28 -65.5 60.5t-20.5 76.5q0 66 47 107t123 41q66 0 118 -32l-28 -54q-36 23 -89 23q-45 0 -72.5 -22.5t-27.5 -58.5q0 -27 15 -48.5t49 -42.5l16 -10q45 -28 65.5 -60.5t20.5 -76.5 q0 -73 -48.5 -115.5t-130.5 -42.5q-37 0 -76 11t-68 29zM46 -224q40 33 57 75q-14 3 -22 12t-8 22q0 21 14.5 35t36.5 14q19 0 29.5 -11.5t10.5 -30.5q0 -37 -25.5 -74.5t-71.5 -69.5z" />
<glyph unicode="&#x21a;" horiz-adv-x="472" d="M145 0l134 631h-168l15 69h406l-15 -69h-163l-134 -631h-75zM93 -224q39 32 56 73q-13 2 -21 12t-8 24q0 21 15 35t37 14q19 0 30 -11.5t11 -30.5q0 -37 -26 -75.5t-72 -69.5z" />
<glyph unicode="&#x21b;" horiz-adv-x="324" d="M272 21q-48 -31 -108 -31q-52 0 -79.5 27.5t-27.5 78.5q0 24 11 76l61 286h-70l13 61h72l44 148h56l-31 -148h129l-13 -61h-129l-61 -286q-9 -40 -9 -64q0 -55 55 -55q36 0 75 24zM52 -224q40 33 57 75q-14 3 -22 12t-8 22q0 21 14.5 35t36.5 14q19 0 29.5 -11.5 t10.5 -30.5q0 -37 -25.5 -74.5t-71.5 -69.5z" />
<glyph unicode="&#x237;" horiz-adv-x="203" d="M-118 -156q21 -7 37 -7q31 0 48.5 21t27.5 70l126 591h71l-127 -596q-17 -80 -49.5 -114.5t-90.5 -34.5q-38 0 -63 17z" />
<glyph unicode="&#x2c6;" horiz-adv-x="471" d="M366 609l-48 91l-88 -91h-68l126 144h75l65 -144h-62z" />
<glyph unicode="&#x2c7;" horiz-adv-x="471" d="M274 609l-65 144h62l47 -91l89 91h68l-126 -144h-75z" />
<glyph unicode="&#x2cb;" horiz-adv-x="471" d="M314 609l-83 144h82l65 -144h-64z" />
<glyph unicode="&#x2d8;" horiz-adv-x="471" d="M441 729q-10 -57 -47 -90t-91 -33q-49 0 -77 27t-28 76q0 11 1 20h57v-7q0 -30 13.5 -46t38.5 -16q26 0 45 17.5t29 51.5h59z" />
<glyph unicode="&#x2da;" horiz-adv-x="471" d="M424 701q0 -48 -34.5 -81.5t-84.5 -33.5q-41 0 -66 25t-25 66q0 48 34.5 81.5t84.5 33.5q41 0 66 -25t25 -66zM373 695q0 23 -13 37t-34 14q-25 0 -43 -18.5t-18 -44.5q0 -23 13 -37t34 -14q25 0 43 18.5t18 44.5z" />
<glyph unicode="&#x2dc;" horiz-adv-x="471" d="M479 735q-10 -56 -35.5 -85t-63.5 -29q-18 0 -33 7.5t-38 29.5q-14 13 -21 17.5t-16 4.5q-15 0 -24.5 -13.5t-14.5 -43.5h-60q10 56 35.5 85t63.5 29q18 0 33 -7.5t38 -29.5q14 -13 21 -17.5t16 -4.5q15 0 24.5 13.5t14.5 43.5h60z" />
<glyph unicode="&#x300;" horiz-adv-x="0" d="M-13 609l-83 144h82l65 -144h-64z" />
<glyph unicode="&#x301;" horiz-adv-x="0" d="M42 609h-72l126 144h94z" />
<glyph unicode="&#x302;" horiz-adv-x="0" d="M84 609l-48 91l-88 -91h-68l126 144h75l65 -144h-62z" />
<glyph unicode="&#x303;" horiz-adv-x="0" d="M181 735q-10 -56 -35.5 -85t-63.5 -29q-18 0 -33 7.5t-38 29.5q-14 13 -21 17.5t-16 4.5q-15 0 -24.5 -13.5t-14.5 -43.5h-60q10 56 35.5 85t63.5 29q18 0 33 -7.5t38 -29.5q14 -13 21 -17.5t16 -4.5q15 0 24.5 13.5t14.5 43.5h60z" />
<glyph unicode="&#x306;" horiz-adv-x="0" d="M146 729q-10 -57 -47 -90t-91 -33q-49 0 -77 27t-28 76q0 11 1 20h57v-7q0 -30 13.5 -46t38.5 -16q26 0 45 17.5t29 51.5h59z" />
<glyph unicode="&#x308;" horiz-adv-x="0" d="M-5 686q0 -21 -15.5 -35.5t-38.5 -14.5q-19 0 -30.5 11t-11.5 29q0 21 15.5 35.5t38.5 14.5q19 0 30.5 -11t11.5 -29zM157 686q0 -21 -15.5 -35.5t-38.5 -14.5q-19 0 -30.5 11t-11.5 29q0 21 15.5 35.5t38.5 14.5q19 0 30.5 -11t11.5 -29z" />
<glyph unicode="&#x30a;" horiz-adv-x="0" d="M135 701q0 -48 -34.5 -81.5t-84.5 -33.5q-41 0 -66 25t-25 66q0 48 34.5 81.5t84.5 33.5q41 0 66 -25t25 -66zM84 695q0 23 -13 37t-34 14q-25 0 -43 -18.5t-18 -44.5q0 -23 13 -37t34 -14q25 0 43 18.5t18 44.5z" />
<glyph unicode="&#x30c;" horiz-adv-x="0" d="M-25 609l-65 144h62l47 -91l89 91h68l-126 -144h-75z" />
<glyph unicode="&#x326;" horiz-adv-x="0" d="M-86 -224q40 33 57 75q-14 3 -22 12t-8 22q0 21 14.5 35t36.5 14q19 0 29.5 -11.5t10.5 -30.5q0 -37 -25.5 -74.5t-71.5 -69.5z" />
<glyph unicode="&#x327;" horiz-adv-x="0" d="M-123 -161q35 -20 66 -20q28 0 44 12t16 33q0 41 -60 41h-28l56 97h55l-32 -55q31 -7 48 -28t17 -53q0 -43 -31 -69.5t-83 -26.5q-49 0 -88 25z" />
<glyph unicode="&#x1e80;" horiz-adv-x="688" d="M398 0l-1 509l-216 -509h-80l24 700h75l-30 -578l220 518h68l2 -515l211 575h75l-268 -700h-80zM413 768l-98 116h93l73 -116h-68z" />
<glyph unicode="&#x1e81;" horiz-adv-x="617" d="M346 0l-9 403l-173 -403h-66l-16 519h71v-414l169 395h68l8 -397l174 416h73l-233 -519h-66zM357 609l-83 144h82l65 -144h-64z" />
<glyph unicode="&#x1e82;" horiz-adv-x="688" d="M398 0l-1 509l-216 -509h-80l24 700h75l-30 -578l220 518h68l2 -515l211 575h75l-268 -700h-80zM474 768h-78l123 116h101z" />
<glyph unicode="&#x1e83;" horiz-adv-x="617" d="M346 0l-9 403l-173 -403h-66l-16 519h71v-414l169 395h68l8 -397l174 416h73l-233 -519h-66zM412 609h-72l126 144h94z" />
<glyph unicode="&#x1e84;" horiz-adv-x="688" d="M398 0l-1 509l-216 -509h-80l24 700h75l-30 -578l220 518h68l2 -515l211 575h75l-268 -700h-80zM419 834q0 -23 -16.5 -38t-40.5 -15q-20 0 -31.5 11.5t-11.5 29.5q0 23 16.5 38t40.5 15q20 0 31.5 -11.5t11.5 -29.5zM587 834q0 -23 -16.5 -38t-40.5 -15 q-20 0 -31.5 11.5t-11.5 29.5q0 23 16.5 38t40.5 15q20 0 31.5 -11.5t11.5 -29.5z" />
<glyph unicode="&#x1e85;" horiz-adv-x="617" d="M346 0l-9 403l-173 -403h-66l-16 519h71v-414l169 395h68l8 -397l174 416h73l-233 -519h-66zM365 686q0 -21 -15.5 -35.5t-38.5 -14.5q-19 0 -30.5 11t-11.5 29q0 21 15.5 35.5t38.5 14.5q19 0 30.5 -11t11.5 -29zM527 686q0 -21 -15.5 -35.5t-38.5 -14.5q-19 0 -30.5 11 t-11.5 29q0 21 15.5 35.5t38.5 14.5q19 0 30.5 -11t11.5 -29z" />
<glyph unicode="&#x1e9e;" horiz-adv-x="540" d="M178 81q35 -21 87 -21q67 0 108 41.5t41 108.5q0 59 -29.5 92.5t-82.5 33.5q-12 0 -28 -2l12 60l184 211q-24 17 -53.5 26t-60.5 9q-72 0 -114 -46.5t-64 -150.5l-94 -443h-74l95 447q30 141 88 202t162 61q100 0 187 -67l-13 -63l-167 -192q60 -14 94 -61t34 -115 q0 -102 -60.5 -162t-161.5 -60q-66 0 -117 31z" />
<glyph unicode="&#x1ef2;" horiz-adv-x="457" d="M136 0l58 275l-77 425h76l53 -351l203 351h77l-257 -426l-58 -274h-75zM298 768l-98 116h93l73 -116h-68z" />
<glyph unicode="&#x1ef3;" horiz-adv-x="412" d="M76 519h74l22 -417l200 417h75l-285 -563q-51 -102 -91 -142t-89 -40q-36 0 -62 17l21 54q23 -8 39 -8q32 0 59.5 33t79.5 134zM244 609l-83 144h82l65 -144h-64z" />
<glyph unicode="&#x2000;" horiz-adv-x="370" />
<glyph unicode="&#x2001;" horiz-adv-x="740" />
<glyph unicode="&#x2002;" horiz-adv-x="370" />
<glyph unicode="&#x2003;" horiz-adv-x="740" />
<glyph unicode="&#x2004;" horiz-adv-x="247" />
<glyph unicode="&#x2005;" horiz-adv-x="185" />
<glyph unicode="&#x2006;" horiz-adv-x="123" />
<glyph unicode="&#x2007;" horiz-adv-x="490" />
<glyph unicode="&#x2008;" horiz-adv-x="188" />
<glyph unicode="&#x2009;" horiz-adv-x="148" />
<glyph unicode="&#x200a;" horiz-adv-x="55" />
<glyph unicode="&#x200b;" horiz-adv-x="0" />
<glyph unicode="&#x2013;" horiz-adv-x="370" d="M-3 246l12 57h370l-12 -57h-370z" />
<glyph unicode="&#x2014;" horiz-adv-x="740" d="M-3 246l12 57h740l-12 -57h-740z" />
<glyph unicode="&#x2018;" horiz-adv-x="162" d="M245 691q-35 -24 -56 -47.5t-33 -52.5q15 -2 24 -12.5t9 -26.5q0 -22 -16 -37t-39 -15q-21 0 -32.5 13t-11.5 35q0 42 37.5 89.5t97.5 82.5z" />
<glyph unicode="&#x2019;" horiz-adv-x="162" d="M63 519q33 22 54 45.5t34 53.5q-15 3 -23.5 13.5t-8.5 26.5q0 22 16 37t39 15q21 0 32.5 -13t11.5 -35q0 -42 -37.5 -89.5t-97.5 -82.5z" />
<glyph unicode="&#x201a;" horiz-adv-x="162" d="M-70 -107q33 22 54 45.5t34 53.5q-15 3 -23.5 13.5t-8.5 26.5q0 22 16 37t39 15q21 0 32.5 -13t11.5 -35q0 -42 -37.5 -89.5t-97.5 -82.5z" />
<glyph unicode="&#x201c;" horiz-adv-x="301" d="M245 691q-35 -24 -56 -47.5t-33 -52.5q15 -2 24 -12.5t9 -26.5q0 -22 -16 -37t-39 -15q-21 0 -32.5 13t-11.5 35q0 42 37.5 89.5t97.5 82.5zM384 691q-35 -24 -56 -47.5t-33 -52.5q15 -2 24 -12.5t9 -26.5q0 -22 -16 -37t-39 -15q-21 0 -32.5 13t-11.5 35q0 42 37.5 89.5 t97.5 82.5z" />
<glyph unicode="&#x201d;" horiz-adv-x="301" d="M63 519q33 22 54 45.5t34 53.5q-15 3 -23.5 13.5t-8.5 26.5q0 22 16 37t39 15q21 0 32.5 -13t11.5 -35q0 -42 -37.5 -89.5t-97.5 -82.5zM202 519q33 22 54 45.5t34 53.5q-15 3 -23.5 13.5t-8.5 26.5q0 22 16 37t39 15q21 0 32.5 -13t11.5 -35q0 -42 -37.5 -89.5 t-97.5 -82.5z" />
<glyph unicode="&#x201e;" horiz-adv-x="301" d="M-70 -107q33 22 54 45.5t34 53.5q-15 3 -23.5 13.5t-8.5 26.5q0 22 16 37t39 15q21 0 32.5 -13t11.5 -35q0 -42 -37.5 -89.5t-97.5 -82.5zM69 -107q33 22 54 45.5t34 53.5q-15 3 -23.5 13.5t-8.5 26.5q0 22 16 37t39 15q21 0 32.5 -13t11.5 -35q0 -42 -37.5 -89.5 t-97.5 -82.5z" />
<glyph unicode="&#x2020;" horiz-adv-x="394" d="M82 -116l117 550h-119l13 61h119l50 235h71l-50 -235h119l-13 -61h-119l-117 -550h-71z" />
<glyph unicode="&#x2021;" horiz-adv-x="394" d="M82 -116l50 235h-119l13 61h119l54 254h-119l13 61h119l50 235h71l-50 -235h119l-13 -61h-119l-54 -254h119l-13 -61h-119l-50 -235h-71z" />
<glyph unicode="&#x2022;" horiz-adv-x="251" d="M225 302q0 -43 -32.5 -73.5t-78.5 -30.5q-34 0 -55.5 21.5t-21.5 54.5q0 43 32.5 73.5t78.5 30.5q34 0 55.5 -21.5t21.5 -54.5z" />
<glyph unicode="&#x2026;" horiz-adv-x="740" d="M130 46q0 -23 -17 -39.5t-41 -16.5q-20 0 -32.5 12t-12.5 32q0 23 17 39.5t41 16.5q20 0 32.5 -12t12.5 -32zM376 46q0 -23 -17 -39.5t-41 -16.5q-20 0 -32.5 12t-12.5 32q0 23 17 39.5t41 16.5q20 0 32.5 -12t12.5 -32zM622 46q0 -23 -17 -39.5t-41 -16.5 q-20 0 -32.5 12t-12.5 32q0 23 17 39.5t41 16.5q20 0 32.5 -12t12.5 -32z" />
<glyph unicode="&#x2032;" horiz-adv-x="179" d="M80 486l82 214h80l-106 -214h-56z" />
<glyph unicode="&#x2033;" horiz-adv-x="327" d="M80 486l82 214h80l-106 -214h-56zM228 486l82 214h80l-106 -214h-56z" />
<glyph unicode="&#x2039;" horiz-adv-x="229" d="M101 102l-76 178l152 178h72l-157 -185l73 -171h-64z" />
<glyph unicode="&#x203a;" horiz-adv-x="229" d="M-10 102l157 185l-73 171h64l76 -178l-152 -178h-72z" />
<glyph unicode="&#x2044;" horiz-adv-x="92" d="M-189 0l436 690h67l-436 -690h-67z" />
<glyph unicode="&#x2070;" d="M223 464q47 0 78 74q14 31 22 71t8 78q0 41 -11 60t-34 19q-47 0 -78 -74q-14 -31 -22 -71t-8 -78q0 -41 11 -60t34 -19zM353 507q-52 -97 -139 -97q-99 0 -99 139q0 46 11 91.5t30 82.5q52 97 139 97q99 0 99 -139q0 -46 -11 -91.5t-30 -82.5z" />
<glyph unicode="&#x2074;" d="M245 420l17 83h-174l10 49l232 258h56l-55 -257h39l-10 -50h-40l-17 -83h-58zM273 553l36 166l-149 -166h113z" />
<glyph unicode="&#x2075;" d="M244 755l-27 -97h22q50 0 81.5 -31.5t31.5 -81.5q0 -60 -40.5 -97.5t-105.5 -37.5q-62 0 -106 32l19 47q42 -25 84 -25q40 0 63.5 21.5t23.5 58.5q0 29 -19.5 46.5t-51.5 17.5q-29 0 -69 -2l55 204h184l-12 -55h-133z" />
<glyph unicode="&#x2076;" d="M364 752q-25 15 -58 15q-41 0 -70.5 -28.5t-44.5 -80.5q30 5 50 5q61 0 96.5 -32.5t35.5 -87.5q0 -60 -37 -96.5t-98 -36.5q-54 0 -87 39.5t-33 103.5q0 81 24.5 141.5t67 93t96.5 32.5q20 0 42 -6t38 -17zM229 614q-18 0 -48 -4q-3 -28 -3 -60q0 -41 16.5 -63.5 t46.5 -22.5q34 0 53 20.5t19 57.5q0 35 -22 53.5t-62 18.5z" />
<glyph unicode="&#x2077;" d="M159 420l1 7q6 39 19.5 74.5t41.5 83t80 122.5l34 48h-159l12 55h221l-11 -52l-51 -73q-67 -97 -94 -150.5t-35 -107.5l-1 -7h-58z" />
<glyph unicode="&#x2078;" d="M385 725q0 -33 -18.5 -60.5t-51.5 -43.5q53 -29 53 -88q0 -54 -40.5 -88.5t-104.5 -34.5q-54 0 -86 27.5t-32 73.5q0 37 23.5 67.5t64.5 46.5q-40 30 -40 80q0 51 36.5 83t94.5 32q46 0 73.5 -26t27.5 -69zM235 604q-32 -13 -51 -36.5t-19 -50.5q0 -28 17 -44t47 -16 q35 0 57 20.5t22 53.5q0 47 -44 63zM211 708q0 -47 47 -64l15 -6q25 13 39.5 34.5t14.5 46.5q0 26 -13 40t-38 14q-28 0 -46.5 -18.5t-18.5 -46.5z" />
<glyph unicode="&#x2079;" d="M200 463q90 0 117 109q-28 -5 -52 -5q-61 0 -96.5 32.5t-35.5 87.5q0 60 37 96.5t98 36.5q54 0 87 -39.5t33 -103.5q0 -125 -49.5 -196t-137.5 -71q-23 0 -46 7t-39 19l22 45q27 -18 62 -18zM277 616q28 0 48 4q3 27 3 60q0 41 -16.5 63.5t-46.5 22.5q-34 0 -53 -20.5 t-19 -57.5q0 -35 22 -53.5t62 -18.5z" />
<glyph unicode="&#x2080;" d="M108 -76q47 0 78 74q14 31 22 71t8 78q0 41 -11 60t-34 19q-47 0 -78 -74q-14 -31 -22 -71t-8 -78q0 -41 11 -60t34 -19zM238 -33q-52 -97 -139 -97q-99 0 -99 139q0 46 11 91.5t30 82.5q52 97 139 97q99 0 99 -139q0 -46 -11 -91.5t-30 -82.5z" />
<glyph unicode="&#x2081;" d="M96 -120l65 304l-82 -61l-28 46l136 101h54l-83 -390h-62z" />
<glyph unicode="&#x2082;" d="M3 -120l5 24q16 77 38.5 112.5t77.5 70.5q54 35 70.5 53.5t16.5 40.5q0 21 -14.5 32.5t-41.5 11.5q-37 0 -69 -21l-20 46q51 30 100 30q48 0 77.5 -25t29.5 -67q0 -38 -21 -65t-84 -70q-45 -31 -62.5 -54t-28.5 -64h151l-12 -55h-213z" />
<glyph unicode="&#x2083;" d="M2 -50q39 -25 84 -25q41 0 64 18t23 52q0 61 -79 61h-35l11 52h31q42 0 66 18t24 50q0 49 -59 49q-36 0 -73 -18l-17 46q22 12 50 19.5t52 7.5q49 0 79 -26t30 -68q0 -35 -22 -63t-61 -42q31 -12 48 -36t17 -55q0 -53 -40.5 -86.5t-105.5 -33.5q-27 0 -55.5 8.5 t-52.5 24.5z" />
<glyph unicode="&#x2084;" d="M130 -120l17 83h-174l10 49l232 258h56l-55 -257h39l-10 -50h-40l-17 -83h-58zM158 13l36 166l-149 -166h113z" />
<glyph unicode="&#x2085;" d="M129 215l-27 -97h22q50 0 81.5 -31.5t31.5 -81.5q0 -60 -40.5 -97.5t-105.5 -37.5q-62 0 -106 32l19 47q42 -25 84 -25q40 0 63.5 21.5t23.5 58.5q0 29 -19.5 46.5t-51.5 17.5q-29 0 -69 -2l55 204h184l-12 -55h-133z" />
<glyph unicode="&#x2086;" d="M249 212q-25 15 -58 15q-41 0 -70.5 -28.5t-44.5 -80.5q30 5 50 5q61 0 96.5 -32.5t35.5 -87.5q0 -60 -37 -96.5t-98 -36.5q-54 0 -87 39.5t-33 103.5q0 81 24.5 141.5t67 93t96.5 32.5q20 0 42 -6t38 -17zM114 74q-18 0 -48 -4q-3 -28 -3 -60q0 -41 16.5 -63.5 t46.5 -22.5q34 0 53 20.5t19 57.5q0 35 -22 53.5t-62 18.5z" />
<glyph unicode="&#x2087;" d="M44 -120l1 7q6 39 19.5 74.5t41.5 83t80 122.5l34 48h-159l12 55h221l-11 -52l-51 -73q-67 -97 -94 -150.5t-35 -107.5l-1 -7h-58z" />
<glyph unicode="&#x2088;" d="M270 185q0 -33 -18.5 -60.5t-51.5 -43.5q53 -29 53 -88q0 -54 -40.5 -88.5t-104.5 -34.5q-54 0 -86 27.5t-32 73.5q0 37 23.5 67.5t64.5 46.5q-40 30 -40 80q0 51 36.5 83t94.5 32q46 0 73.5 -26t27.5 -69zM120 64q-32 -13 -51 -36.5t-19 -50.5q0 -28 17 -44t47 -16 q35 0 57 20.5t22 53.5q0 47 -44 63zM96 168q0 -47 47 -64l15 -6q25 13 39.5 34.5t14.5 46.5q0 26 -13 40t-38 14q-28 0 -46.5 -18.5t-18.5 -46.5z" />
<glyph unicode="&#x2089;" d="M85 -77q90 0 117 109q-28 -5 -52 -5q-61 0 -96.5 32.5t-35.5 87.5q0 60 37 96.5t98 36.5q54 0 87 -39.5t33 -103.5q0 -125 -49.5 -196t-137.5 -71q-23 0 -46 7t-39 19l22 45q27 -18 62 -18zM162 76q28 0 48 4q3 27 3 60q0 41 -16.5 63.5t-46.5 22.5q-34 0 -53 -20.5 t-19 -57.5q0 -35 22 -53.5t62 -18.5z" />
<glyph unicode="&#x20ac;" horiz-adv-x="490" d="M162 236v-5q0 -83 33 -130t92 -47q56 0 109 33l18 -55q-61 -42 -144 -42q-85 0 -134 61.5t-49 169.5v15h-65l22 62h47q5 47 15 90h-53l22 62h48q41 117 117.5 183.5t171.5 66.5q29 0 57.5 -8.5t50.5 -23.5l-25 -54q-19 10 -43 16t-46 6q-65 0 -119 -49t-88 -137h191 l-22 -62h-188q-10 -43 -15 -90h185l-22 -62h-166z" />
<glyph unicode="&#x20ba;" horiz-adv-x="490" d="M182 250l-39 -187h44q79 0 127 54.5t69 167.5h71q-23 -148 -90.5 -216.5t-190.5 -68.5h-117l44 209l-74 -37l14 69l75 37l22 103l-77 -38l14 69l78 39l51 239h73l-42 -199l121 61l-14 -69l-122 -61l-22 -103l123 61l-14 -69z" />
<glyph unicode="&#x20bd;" horiz-adv-x="490" d="M66 0l26 122h-82l13 62h82l20 94h-82l13 61h82l75 351h124q81 0 125 -44t44 -125q0 -74 -30.5 -129.5t-83.5 -84.5t-120 -29h-74l-20 -94h156l-13 -62h-156l-26 -122h-73zM211 339h56q74 0 119.5 49.5t45.5 130.5q0 51 -26.5 80.5t-72.5 29.5h-60z" />
<glyph unicode="&#x2122;" horiz-adv-x="645" d="M618 316v265l-79 -212h-45l-79 212v-265h-56v384h66l92 -254l93 254h65v-384h-57zM155 316v328h-93v56h246v-56h-93v-328h-60z" />
<glyph unicode="&#x2212;" horiz-adv-x="490" d="M71 314l13 62h372l-13 -62h-372z" />
<glyph unicode="&#x25fc;" horiz-adv-x="520" d="M0 520h520v-520h-520v520z" />
<glyph unicode="&#xfeff;" horiz-adv-x="0" />
<glyph horiz-adv-x="490" d="M205 53q41 0 78.5 49t65.5 139q44 141 44 248q0 75 -18 111.5t-55 36.5q-41 0 -78.5 -49t-65.5 -139q-44 -143 -44 -248q0 -75 18 -111.5t55 -36.5zM194 -10q-65 0 -100.5 53t-35.5 151q0 107 31 224q75 282 242 282q65 0 100.5 -53t35.5 -151q0 -109 -31 -224 q-75 -282 -242 -282z" />
<glyph horiz-adv-x="490" d="M47 0l14 64h126l114 530l-136 -100l-33 53l194 143h68l-134 -626h121l-14 -64h-320z" />
<glyph horiz-adv-x="490" d="M37 0l9 43q26 126 66 192t124 121l15 10q77 49 108 87.5t31 81.5q0 49 -25.5 75.5t-71.5 26.5q-56 0 -111 -39l-23 53q32 23 70.5 36t76.5 13q72 0 115 -42.5t43 -113.5q0 -63 -42.5 -118t-139.5 -118l-16 -10q-37 -23 -62.5 -52.5t-44.5 -72.5t-35 -109h250l-14 -64 h-323z" />
<glyph horiz-adv-x="490" d="M57 88q55 -35 114 -35q67 0 108.5 43.5t41.5 111.5q0 57 -31.5 89.5t-88.5 32.5h-44l13 59h53q64 0 105 40.5t41 104.5q0 50 -25.5 76.5t-72.5 26.5q-56 0 -109 -33l-24 52q33 21 71 32.5t74 11.5q73 0 116.5 -42t43.5 -113q0 -67 -38 -118.5t-101 -71.5q45 -18 68 -57 t23 -95q0 -64 -28.5 -113t-78.5 -74.5t-114 -25.5q-84 0 -142 42z" />
<glyph horiz-adv-x="490" d="M254 0l35 167h-268l13 61l361 462h76l-98 -460h61l-13 -63h-62l-35 -167h-70zM303 230l72 341l-266 -341h194z" />
<glyph horiz-adv-x="490" d="M69 88q53 -35 113 -35q69 0 110 47.5t41 126.5q0 60 -31.5 93t-89.5 33q-32 0 -86 -2l89 339h238l-14 -64h-176l-56 -215q9 1 18 1h17q78 0 121.5 -49.5t43.5 -137.5q0 -71 -28.5 -124.5t-78.5 -82t-114 -28.5q-86 0 -142 42z" />
<glyph horiz-adv-x="490" d="M456 613q-20 12 -44 18.5t-44 6.5q-60 0 -111.5 -61t-80.5 -165q45 8 79 8q182 0 182 -187q0 -112 -54.5 -177.5t-147.5 -65.5q-77 0 -118 53t-41 156q0 109 24.5 203.5t65.5 161t92.5 101.5t108.5 35q62 0 115 -32zM249 362q-41 0 -86 -7q-15 -73 -15 -155 q0 -147 93 -147q58 0 91 47t33 126q0 136 -116 136z" />
<glyph horiz-adv-x="490" d="M109 0l8 45q15 78 34.5 137.5t54 127.5t94.5 165l94 151h-242l14 64h318l-13 -61l-99 -161q-89 -146 -125 -229t-57 -194l-8 -45h-73z" />
<glyph horiz-adv-x="490" d="M475 549q0 -57 -35 -110t-92 -82q35 -24 53.5 -62t18.5 -83q0 -65 -28.5 -116t-77 -78.5t-107.5 -27.5q-74 0 -117 43.5t-43 118.5q0 50 20 94t54 76t76 46q-32 24 -49 58t-17 75q0 58 26.5 103.5t71.5 70.5t99 25q66 0 106.5 -41.5t40.5 -109.5zM250 341 q-57 -16 -94 -67t-37 -113q0 -53 25 -82.5t71 -29.5q56 0 94.5 46.5t38.5 114.5q0 92 -78 123zM202 501q0 -80 78 -112l18 -7q46 23 76 67t30 90q0 49 -22 75.5t-63 26.5q-51 0 -84 -39.5t-33 -100.5z" />
<glyph horiz-adv-x="490" d="M156 52q64 0 116 60.5t80 168.5q-48 -8 -83 -8q-92 0 -137 45.5t-45 138.5q0 112 54.5 177.5t147.5 65.5q77 0 118 -53t41 -156q0 -151 -38.5 -265t-105.5 -175t-151 -61q-64 0 -119 36l26 55q19 -13 46 -21t50 -8zM275 331q48 0 88 6q13 76 13 153q0 147 -93 147 q-58 0 -91 -47t-33 -126q0 -67 28.5 -100t87.5 -33z" />
<glyph d="M134 44q47 0 78 74q14 31 22 71t8 78q0 41 -11 60t-34 19q-47 0 -78 -74q-14 -31 -22 -71t-8 -78q0 -41 11 -60t34 -19zM264 87q-52 -97 -139 -97q-99 0 -99 139q0 46 11 91.5t30 82.5q52 97 139 97q99 0 99 -139q0 -46 -11 -91.5t-30 -82.5z" />
<glyph d="M122 0l65 304l-82 -61l-28 46l136 101h54l-83 -390h-62z" />
<glyph d="M29 0l5 24q16 77 38.5 112.5t77.5 70.5q54 35 70.5 53.5t16.5 40.5q0 21 -14.5 32.5t-41.5 11.5q-37 0 -69 -21l-20 46q51 30 100 30q48 0 77.5 -25t29.5 -67q0 -38 -21 -65t-84 -70q-45 -31 -62.5 -54t-28.5 -64h151l-12 -55h-213z" />
<glyph d="M28 70q39 -25 84 -25q41 0 64 18t23 52q0 61 -79 61h-35l11 52h31q42 0 66 18t24 50q0 49 -59 49q-36 0 -73 -18l-17 46q22 12 50 19.5t52 7.5q49 0 79 -26t30 -68q0 -35 -22 -63t-61 -42q31 -12 48 -36t17 -55q0 -53 -40.5 -86.5t-105.5 -33.5q-27 0 -55.5 8.5 t-52.5 24.5z" />
<glyph d="M156 0l17 83h-174l10 49l232 258h56l-55 -257h39l-10 -50h-40l-17 -83h-58zM184 133l36 166l-149 -166h113z" />
<glyph d="M155 335l-27 -97h22q50 0 81.5 -31.5t31.5 -81.5q0 -60 -40.5 -97.5t-105.5 -37.5q-62 0 -106 32l19 47q42 -25 84 -25q40 0 63.5 21.5t23.5 58.5q0 29 -19.5 46.5t-51.5 17.5q-29 0 -69 -2l55 204h184l-12 -55h-133z" />
<glyph d="M275 332q-25 15 -58 15q-41 0 -70.5 -28.5t-44.5 -80.5q30 5 50 5q61 0 96.5 -32.5t35.5 -87.5q0 -60 -37 -96.5t-98 -36.5q-54 0 -87 39.5t-33 103.5q0 81 24.5 141.5t67 93t96.5 32.5q20 0 42 -6t38 -17zM140 194q-18 0 -48 -4q-3 -28 -3 -60q0 -41 16.5 -63.5 t46.5 -22.5q34 0 53 20.5t19 57.5q0 35 -22 53.5t-62 18.5z" />
<glyph d="M70 0l1 7q6 39 19.5 74.5t41.5 83t80 122.5l34 48h-159l12 55h221l-11 -52l-51 -73q-67 -97 -94 -150.5t-35 -107.5l-1 -7h-58z" />
<glyph d="M296 305q0 -33 -18.5 -60.5t-51.5 -43.5q53 -29 53 -88q0 -54 -40.5 -88.5t-104.5 -34.5q-54 0 -86 27.5t-32 73.5q0 37 23.5 67.5t64.5 46.5q-40 30 -40 80q0 51 36.5 83t94.5 32q46 0 73.5 -26t27.5 -69zM146 184q-32 -13 -51 -36.5t-19 -50.5q0 -28 17 -44t47 -16 q35 0 57 20.5t22 53.5q0 47 -44 63zM122 288q0 -47 47 -64l15 -6q25 13 39.5 34.5t14.5 46.5q0 26 -13 40t-38 14q-28 0 -46.5 -18.5t-18.5 -46.5z" />
<glyph d="M111 43q90 0 117 109q-28 -5 -52 -5q-61 0 -96.5 32.5t-35.5 87.5q0 60 37 96.5t98 36.5q54 0 87 -39.5t33 -103.5q0 -125 -49.5 -196t-137.5 -71q-23 0 -46 7t-39 19l22 45q27 -18 62 -18zM188 196q28 0 48 4q3 27 3 60q0 41 -16.5 63.5t-46.5 22.5q-34 0 -53 -20.5 t-19 -57.5q0 -35 22 -53.5t62 -18.5z" />
<glyph d="M198 344q47 0 78 74q14 31 22 71t8 78q0 41 -11 60t-34 19q-47 0 -78 -74q-14 -31 -22 -71t-8 -78q0 -41 11 -60t34 -19zM328 387q-52 -97 -139 -97q-99 0 -99 139q0 46 11 91.5t30 82.5q52 97 139 97q99 0 99 -139q0 -46 -11 -91.5t-30 -82.5z" />
<glyph d="M186 300l65 304l-82 -61l-28 46l136 101h54l-83 -390h-62z" />
<glyph d="M93 300l5 24q16 77 38.5 112.5t77.5 70.5q54 35 70.5 53.5t16.5 40.5q0 21 -14.5 32.5t-41.5 11.5q-37 0 -69 -21l-20 46q51 30 100 30q48 0 77.5 -25t29.5 -67q0 -38 -21 -65t-84 -70q-45 -31 -62.5 -54t-28.5 -64h151l-12 -55h-213z" />
<glyph d="M92 370q39 -25 84 -25q41 0 64 18t23 52q0 61 -79 61h-35l11 52h31q42 0 66 18t24 50q0 49 -59 49q-36 0 -73 -18l-17 46q22 12 50 19.5t52 7.5q49 0 79 -26t30 -68q0 -35 -22 -63t-61 -42q31 -12 48 -36t17 -55q0 -53 -40.5 -86.5t-105.5 -33.5q-27 0 -55.5 8.5 t-52.5 24.5z" />
<glyph d="M220 300l17 83h-174l10 49l232 258h56l-55 -257h39l-10 -50h-40l-17 -83h-58zM248 433l36 166l-149 -166h113z" />
<glyph d="M219 635l-27 -97h22q50 0 81.5 -31.5t31.5 -81.5q0 -60 -40.5 -97.5t-105.5 -37.5q-62 0 -106 32l19 47q42 -25 84 -25q40 0 63.5 21.5t23.5 58.5q0 29 -19.5 46.5t-51.5 17.5q-29 0 -69 -2l55 204h184l-12 -55h-133z" />
<glyph d="M339 632q-25 15 -58 15q-41 0 -70.5 -28.5t-44.5 -80.5q30 5 50 5q61 0 96.5 -32.5t35.5 -87.5q0 -60 -37 -96.5t-98 -36.5q-54 0 -87 39.5t-33 103.5q0 81 24.5 141.5t67 93t96.5 32.5q20 0 42 -6t38 -17zM204 494q-18 0 -48 -4q-3 -28 -3 -60q0 -41 16.5 -63.5 t46.5 -22.5q34 0 53 20.5t19 57.5q0 35 -22 53.5t-62 18.5z" />
<glyph d="M134 300l1 7q6 39 19.5 74.5t41.5 83t80 122.5l34 48h-159l12 55h221l-11 -52l-51 -73q-67 -97 -94 -150.5t-35 -107.5l-1 -7h-58z" />
<glyph d="M360 605q0 -33 -18.5 -60.5t-51.5 -43.5q53 -29 53 -88q0 -54 -40.5 -88.5t-104.5 -34.5q-54 0 -86 27.5t-32 73.5q0 37 23.5 67.5t64.5 46.5q-40 30 -40 80q0 51 36.5 83t94.5 32q46 0 73.5 -26t27.5 -69zM210 484q-32 -13 -51 -36.5t-19 -50.5q0 -28 17 -44t47 -16 q35 0 57 20.5t22 53.5q0 47 -44 63zM186 588q0 -47 47 -64l15 -6q25 13 39.5 34.5t14.5 46.5q0 26 -13 40t-38 14q-28 0 -46.5 -18.5t-18.5 -46.5z" />
<glyph d="M175 343q90 0 117 109q-28 -5 -52 -5q-61 0 -96.5 32.5t-35.5 87.5q0 60 37 96.5t98 36.5q54 0 87 -39.5t33 -103.5q0 -125 -49.5 -196t-137.5 -71q-23 0 -46 7t-39 19l22 45q27 -18 62 -18zM252 496q28 0 48 4q3 27 3 60q0 41 -16.5 63.5t-46.5 22.5q-34 0 -53 -20.5 t-19 -57.5q0 -35 22 -53.5t62 -18.5z" />
<glyph d="M62 -190l13 62q-57 7 -94 34l19 39q37 -23 84 -28l31 144q-82 39 -82 111q0 49 35 78t96 30l13 60h38l-14 -64q45 -8 79 -29l-20 -40q-35 18 -69 24l-29 -136q83 -39 83 -110q0 -50 -35.5 -80.5t-96.5 -33.5l-13 -61h-38zM86 173q0 -40 42 -62l26 123q-32 -2 -50 -17.5 t-18 -43.5zM191 -15q0 36 -41 61l-27 -129q33 4 50.5 22t17.5 46z" />
<glyph d="M88 -190l13 63q-37 9 -59 40t-22 75q0 78 40 128.5t105 57.5l13 61h38l-13 -62q33 -5 52 -19l-17 -38q-18 10 -45 13l-45 -213q30 3 51 19l13 -40q-13 -10 -32.5 -16.5t-41.5 -8.5l-12 -60h-38zM73 -9q0 -56 38 -70l44 206q-38 -10 -60 -46.5t-22 -89.5z" />
<glyph horiz-adv-x="510" d="M60 -120l256 390h53l-256 -390h-53zM402 -83q-31 -47 -82 -47q-33 0 -52 24.5t-19 68.5q0 56 26 97q31 47 82 47q33 0 52 -24.5t19 -68.5q0 -56 -26 -97zM326 -91q22 0 38 32q16 34 16 82q0 45 -29 45q-22 0 -38 -32q-16 -34 -16 -82q0 -45 29 -45zM154 90 q-31 -47 -82 -47q-33 0 -52 24.5t-19 68.5q0 56 26 97q31 47 82 47q33 0 52 -24.5t19 -68.5q0 -56 -26 -97zM78 82q22 0 38 32q16 34 16 82q0 45 -29 45q-22 0 -38 -32q-16 -34 -16 -82q0 -45 29 -45z" />
<glyph d="M-14 -120l40 108h-43l9 42h49l34 90h-52l9 42h58l40 108h47l-40 -108h67l40 108h47l-40 -108h43l-9 -42h-49l-34 -90h52l-9 -42h-58l-40 -108h-47l40 108h-67l-40 -108h-47zM88 30h67l34 90h-67z" />
<glyph d="M177 350l13 62q-57 7 -94 34l19 39q37 -23 84 -28l31 144q-82 39 -82 111q0 49 35 78t96 30l13 60h38l-14 -64q45 -8 79 -29l-20 -40q-35 18 -69 24l-29 -136q83 -39 83 -110q0 -50 -35.5 -80.5t-96.5 -33.5l-13 -61h-38zM201 713q0 -40 42 -62l26 123q-32 -2 -50 -17.5 t-18 -43.5zM306 525q0 36 -41 61l-27 -129q33 4 50.5 22t17.5 46z" />
<glyph d="M203 350l13 63q-37 9 -59 40t-22 75q0 78 40 128.5t105 57.5l13 61h38l-13 -62q33 -5 52 -19l-17 -38q-18 10 -45 13l-45 -213q30 3 51 19l13 -40q-13 -10 -32.5 -16.5t-41.5 -8.5l-12 -60h-38zM188 531q0 -56 38 -70l44 206q-38 -10 -60 -46.5t-22 -89.5z" />
<glyph horiz-adv-x="510" d="M175 420l256 390h53l-256 -390h-53zM517 457q-31 -47 -82 -47q-33 0 -52 24.5t-19 68.5q0 56 26 97q31 47 82 47q33 0 52 -24.5t19 -68.5q0 -56 -26 -97zM441 449q22 0 38 32q16 34 16 82q0 45 -29 45q-22 0 -38 -32q-16 -34 -16 -82q0 -45 29 -45zM269 630 q-31 -47 -82 -47q-33 0 -52 24.5t-19 68.5q0 56 26 97q31 47 82 47q33 0 52 -24.5t19 -68.5q0 -56 -26 -97zM193 622q22 0 38 32q16 34 16 82q0 45 -29 45q-22 0 -38 -32q-16 -34 -16 -82q0 -45 29 -45z" />
<glyph d="M101 420l40 108h-43l9 42h49l34 90h-52l9 42h58l40 108h47l-40 -108h67l40 108h47l-40 -108h43l-9 -42h-49l-34 -90h52l-9 -42h-58l-40 -108h-47l40 108h-67l-40 -108h-47zM203 570h67l34 90h-67z" />
<glyph d="M88 -70l13 62q-57 7 -94 34l19 39q37 -23 84 -28l31 144q-82 39 -82 111q0 49 35 78t96 30l13 60h38l-14 -64q45 -8 79 -29l-20 -40q-35 18 -69 24l-29 -136q83 -39 83 -110q0 -50 -35.5 -80.5t-96.5 -33.5l-13 -61h-38zM112 293q0 -40 42 -62l26 123q-32 -2 -50 -17.5 t-18 -43.5zM217 105q0 36 -41 61l-27 -129q33 4 50.5 22t17.5 46z" />
<glyph d="M114 -70l13 63q-37 9 -59 40t-22 75q0 78 40 128.5t105 57.5l13 61h38l-13 -62q33 -5 52 -19l-17 -38q-18 10 -45 13l-45 -213q30 3 51 19l13 -40q-13 -10 -32.5 -16.5t-41.5 -8.5l-12 -60h-38zM99 111q0 -56 38 -70l44 206q-38 -10 -60 -46.5t-22 -89.5z" />
<glyph horiz-adv-x="510" d="M86 0l256 390h53l-256 -390h-53zM428 37q-31 -47 -82 -47q-33 0 -52 24.5t-19 68.5q0 56 26 97q31 47 82 47q33 0 52 -24.5t19 -68.5q0 -56 -26 -97zM352 29q22 0 38 32q16 34 16 82q0 45 -29 45q-22 0 -38 -32q-16 -34 -16 -82q0 -45 29 -45zM180 210q-31 -47 -82 -47 q-33 0 -52 24.5t-19 68.5q0 56 26 97q31 47 82 47q33 0 52 -24.5t19 -68.5q0 -56 -26 -97zM104 202q22 0 38 32q16 34 16 82q0 45 -29 45q-22 0 -38 -32q-16 -34 -16 -82q0 -45 29 -45z" />
<glyph d="M12 0l40 108h-43l9 42h49l34 90h-52l9 42h58l40 108h47l-40 -108h67l40 108h47l-40 -108h43l-9 -42h-49l-34 -90h52l-9 -42h-58l-40 -108h-47l40 108h-67l-40 -108h-47zM114 150h67l34 90h-67z" />
<glyph d="M152 230l13 62q-57 7 -94 34l19 39q37 -23 84 -28l31 144q-82 39 -82 111q0 49 35 78t96 30l13 60h38l-14 -64q45 -8 79 -29l-20 -40q-35 18 -69 24l-29 -136q83 -39 83 -110q0 -50 -35.5 -80.5t-96.5 -33.5l-13 -61h-38zM176 593q0 -40 42 -62l26 123q-32 -2 -50 -17.5 t-18 -43.5zM281 405q0 36 -41 61l-27 -129q33 4 50.5 22t17.5 46z" />
<glyph d="M178 230l13 63q-37 9 -59 40t-22 75q0 78 40 128.5t105 57.5l13 61h38l-13 -62q33 -5 52 -19l-17 -38q-18 10 -45 13l-45 -213q30 3 51 19l13 -40q-13 -10 -32.5 -16.5t-41.5 -8.5l-12 -60h-38zM163 411q0 -56 38 -70l44 206q-38 -10 -60 -46.5t-22 -89.5z" />
<glyph horiz-adv-x="510" d="M150 300l256 390h53l-256 -390h-53zM492 337q-31 -47 -82 -47q-33 0 -52 24.5t-19 68.5q0 56 26 97q31 47 82 47q33 0 52 -24.5t19 -68.5q0 -56 -26 -97zM416 329q22 0 38 32q16 34 16 82q0 45 -29 45q-22 0 -38 -32q-16 -34 -16 -82q0 -45 29 -45zM244 510 q-31 -47 -82 -47q-33 0 -52 24.5t-19 68.5q0 56 26 97q31 47 82 47q33 0 52 -24.5t19 -68.5q0 -56 -26 -97zM168 502q22 0 38 32q16 34 16 82q0 45 -29 45q-22 0 -38 -32q-16 -34 -16 -82q0 -45 29 -45z" />
<glyph d="M76 300l40 108h-43l9 42h49l34 90h-52l9 42h58l40 108h47l-40 -108h67l40 108h47l-40 -108h43l-9 -42h-49l-34 -90h52l-9 -42h-58l-40 -108h-47l40 108h-67l-40 -108h-47zM178 450h67l34 90h-67z" />
<glyph horiz-adv-x="180" d="M161 376q0 -22 -15.5 -37t-38.5 -15q-18 0 -29.5 11t-11.5 29q0 22 15.5 37t38.5 15q18 0 29.5 -11t11.5 -29z" />
<glyph horiz-adv-x="180" d="M165 396q0 -22 -15.5 -37t-38.5 -15q-18 0 -29.5 11t-11.5 29q0 22 15.5 37t38.5 15q18 0 29.5 -11t11.5 -29z" />
<glyph horiz-adv-x="550" d="M16 0l149 700h75l-149 -700h-75zM205 84q41 -24 80 -24q45 0 71 33.5t43 113.5l105 493h75l-106 -498q-25 -116 -66.5 -164t-116.5 -48q-58 0 -109 31zM240 768h-78l123 116h101zM579 768h-78l123 116h101z" />
<glyph horiz-adv-x="406" d="M11 0l111 519h71l-111 -519h-71zM85 -156q21 -7 37 -7q31 0 48.5 21t27.5 70l126 591h71l-127 -596q-17 -80 -49.5 -114.5t-90.5 -34.5q-38 0 -63 17zM194 609h-72l126 144h94zM396 609h-72l126 144h94z" />
<glyph horiz-adv-x="307" d="M10 -125l124 583h-69l13 61h69l13 61q19 92 61 136t108 44q38 0 68 -15l-22 -57q-23 9 -43 9q-76 0 -102 -121l-12 -57h115l-13 -61h-115l-124 -583h-71z" />
<glyph horiz-adv-x="307" d="M10 -125l124 583h-69l13 61h69l13 61q19 92 61 136t108 44q38 0 68 -15l-22 -57q-23 9 -43 9q-76 0 -102 -121l-12 -57h216l-13 -61h-216l-124 -583h-71z" />
<glyph horiz-adv-x="0" d="M-123 -160q35 -20 66 -20q28 0 43.5 11.5t15.5 32.5q0 40 -59 40h-29l56 98h59l-32 -55q62 -16 62 -81q0 -43 -31 -69.5t-83 -26.5q-49 0 -88 25z" />
<glyph horiz-adv-x="0" d="M-87 -224q39 32 56 73q-13 2 -21 12t-8 24q0 21 15 35t37 14q19 0 30 -11.5t11 -30.5q0 -37 -26 -75.5t-72 -69.5z" />
<glyph horiz-adv-x="0" d="M42 768h-78l123 116h101z" />
<glyph horiz-adv-x="0" d="M-19 768l-98 116h93l73 -116h-68z" />
<glyph horiz-adv-x="0" d="M80 768l-52 68l-81 -68h-77l122 116h82l73 -116h-67z" />
<glyph horiz-adv-x="0" d="M178 881q-11 -56 -35 -85.5t-61 -29.5q-19 0 -36 8t-44 30q-18 14 -26 18.5t-15 4.5q-30 0 -40 -57h-59q11 56 35 85.5t61 29.5q19 0 36 -8t44 -30q18 -14 26 -18.5t15 -4.5q30 0 40 57h59z" />
<glyph horiz-adv-x="0" d="M49 768h-82l-73 116h67l52 -69l81 69h77z" />
<glyph horiz-adv-x="0" d="M-13 834q0 -23 -16.5 -38t-40.5 -15q-20 0 -31.5 11.5t-11.5 29.5q0 23 16.5 38t40.5 15q20 0 31.5 -11.5t11.5 -29.5zM155 834q0 -23 -16.5 -38t-40.5 -15q-20 0 -31.5 11.5t-11.5 29.5q0 23 16.5 38t40.5 15q20 0 31.5 -11.5t11.5 -29.5z" />
<glyph horiz-adv-x="0" d="M147 885q-11 -57 -49.5 -89.5t-94.5 -32.5q-50 0 -79.5 26t-29.5 72q0 13 1 24h58v-6q0 -30 14 -46.5t41 -16.5q28 0 47.5 17.5t29.5 51.5h62z" />
<glyph horiz-adv-x="0" d="M135 870q0 -48 -35 -82t-85 -34q-43 0 -68.5 25t-25.5 67q0 48 35 82t85 34q43 0 68.5 -25t25.5 -67zM82 864q0 22 -13 36t-34 14q-25 0 -43 -18.5t-18 -43.5q0 -22 13 -36t34 -14q25 0 43 18.5t18 43.5z" />
<glyph horiz-adv-x="598" d="M437 -10q-21 0 -39 6q-50 15 -74 15t-74 -15q-18 -6 -39 -6q-66 0 -85 76q-19 77 -19 94q0 19 8 39q3 9 3 23q0 21 -5 48.5t-12.5 56.5t-14.5 54t-11 42q-10 40 -10 55q0 43 40 75q7 6 10 9.5t5.5 8t5.5 13.5q21 60 72 93t126 33t126 -33t72 -93q3 -8 5 -12.5t5 -8 t11 -10.5q40 -32 40 -75q0 -15 -10 -55q-4 -17 -11 -42t-14.5 -54t-12.5 -56.5t-5 -48.5q0 -14 3 -23q8 -20 8 -39q0 -17 -19 -94q-19 -76 -85 -76zM218 238q5 0 14 7.5t14 16.5q7 12 15.5 35.5t8.5 28.5t-5 5q-1 0 -2.5 -0.5t-3.5 -2.5q-4 -4 -10 -7t-10 -3q-3 0 -5.5 1.5 t-2.5 2.5q0 4 8 10q10 7 10 11q0 5 -7 5q-3 0 -9 -7q-5 -5 -12 -5q-11 0 -16 8q-3 6 -7 6q-7 0 -7 -5q0 -2 0.5 -4t0.5 -4q0 -8 -7 -8q-4 0 -9 4q-3 2 -11 2q-3 0 -5.5 2t-2.5 5q0 7 13 14q4 3 27 8q4 1 4 7t-7 6q-19 0 -32 -5q-13 -4 -18 -11t-5 -18q0 -18 10 -41t27 -40 q12 -13 22 -18.5t20 -5.5zM323 53q22 0 41 8t27 21q12 17 12 37v19q0 13 2 25q1 4 1.5 7.5t0.5 5.5q0 4 -5 4t-24.5 -3.5t-54.5 -3.5q-34 0 -53 3.5t-24 3.5q-7 0 -7 -4q0 -2 2 -9.5t4 -11.5q3 -5 18 -7q25 -2 44 -2q23 0 35 1t18 1q16 0 16 -12q0 -11 -14 -13 q-25 -3 -53 -3q-17 0 -29.5 1t-21.5 1q-13 0 -13 -10q0 -13 12 -30q9 -13 27 -21t39 -8zM454 204q15 0 25 37q9 35 20 49q8 9 15 21t7 18q0 8 -4 8q-1 0 -5 -1.5t-8 -3.5t-5 -2q-7 0 -7 9q0 8 6 29.5t15 45.5q13 33 13 48q0 11 -8 25q-10 15 -15 15t-13 -8q-17 -17 -42 -17 q-29 0 -45 28q-7 12 -7 19q0 6 5 6q3 0 10 -5t11 -5q6 0 11 8q5 10 5 26q0 17 -6.5 29.5t-14.5 12.5q-3 0 -17 -4t-34.5 -8.5t-42.5 -4.5q-11 0 -32 3t-28 5q-15 5 -22 7t-10 2q-7 0 -18 -7q-12 -7 -28.5 -20.5t-25.5 -24.5q-29 -31 -29 -49q1 -10 4.5 -20t4.5 -25 q0 -12 -1.5 -20t-1.5 -15q0 -8 2.5 -10t13.5 -2q17 0 36.5 3t36 6t22.5 3q12 0 20.5 -4t18.5 -14q13 -13 13 -32q0 -6 -1 -17t-2 -20l-8 -79q2 -32 35 -32q17 0 26.5 8.5t9.5 23.5q0 4 -0.5 7.5t-0.5 6.5q0 11 8 11q5 0 20 -15l37 -38q16 -17 31 -17zM350 373q-4 0 -6.5 2.5 t-2.5 5.5q0 5 6 8q12 7 44.5 21t42.5 17q9 3 13 3q9 0 18 -8q7 -6 14.5 -15t7.5 -12q0 -5 -3 -9t-7 -4q-5 0 -9 2.5t-11 7.5t-16 5q-12 0 -47 -11q-7 -2 -16 -5t-17 -5.5t-11 -2.5zM436 338q-12 1 -24 4.5t-21 3.5q-11 0 -16.5 -0.5t-12.5 -0.5q-9 0 -9 5q0 7 6 8 q9 3 37.5 6t37.5 3q6 0 8.5 -1.5t4.5 -6.5q3 -6 10 -6q3 0 5.5 1t6.5 1q5 0 5 -5q0 -4 -13.5 -8t-24.5 -4z" />
</font>
</defs>
</svg>
