<?xml version="1.0" standalone="no"?>
<!DOCTYPE svg PUBLIC "-//W3C//DTD SVG 1.1//EN" "http://www.w3.org/Graphics/SVG/1.1/DTD/svg11.dtd" >
<svg xmlns="http://www.w3.org/2000/svg">
<metadata></metadata>
<defs>
<font id="att_aleck_cdmedium" horiz-adv-x="358" >
<font-face units-per-em="1000" ascent="750" descent="-250" />
<missing-glyph horiz-adv-x="210" />
<glyph unicode="fb" horiz-adv-x="790" d="M90 0v441h-71v83h71v38q0 93 42.5 145.5t115.5 52.5q38 0 72 -13l-22 -83q-15 5 -30 5q-34 0 -54 -28.5t-20 -78.5v-38h105v-83h-105v-441h-104zM369 0v750h104v-264q23 24 50 36.5t56 12.5q80 0 126.5 -73.5t46.5 -199.5q0 -84 -22.5 -145.5t-62.5 -94.5t-93 -33 q-66 0 -117 53l-7 -42h-81zM551 444q-43 0 -78 -38v-292q34 -34 78 -34q45 0 70.5 48.5t25.5 133.5t-25.5 133.5t-70.5 48.5z" />
<glyph unicode="fj" horiz-adv-x="534" d="M90 0v441h-71v83h71v38q0 93 42.5 145.5t115.5 52.5q38 0 72 -13l-22 -83q-15 5 -30 5q-34 0 -54 -28.5t-20 -78.5v-38h208v-83h-208v-441h-104zM282 -127q20 -7 38 -7q25 0 37 18.5t12 58.5v581h104v-580q0 -87 -32.5 -128.5t-99.5 -41.5q-39 0 -78 17zM486 676 q0 -28 -18 -45t-47 -17t-47 17t-18 45t18 45t47 17t47 -17t18 -45z" />
<glyph unicode="fk" horiz-adv-x="776" d="M90 0v441h-71v83h71v38q0 93 42.5 145.5t115.5 52.5q38 0 72 -13l-22 -83q-15 5 -30 5q-34 0 -54 -28.5t-20 -78.5v-38h105v-83h-105v-441h-104zM369 0v750h104v-438l170 212h112l-157 -194l166 -330h-113l-126 253l-52 -66v-187h-104z" />
<glyph unicode="ft" horiz-adv-x="632" d="M90 0v441h-71v83h71v38q0 93 43 145.5t120 52.5q46 0 82 -14l-22 -83q-24 6 -40 6q-38 0 -58.5 -28t-20.5 -79v-38h177l18 143h82v-143h125v-83h-125v-264q0 -51 13.5 -73.5t46.5 -22.5q32 0 63 15l23 -80q-51 -27 -108 -27q-74 0 -108 42.5t-34 136.5v273h-173v-441 h-104z" />
<glyph unicode="fh" horiz-adv-x="796" d="M90 0v441h-71v83h71v38q0 93 42.5 145.5t115.5 52.5q38 0 72 -13l-22 -83q-15 5 -30 5q-34 0 -54 -28.5t-20 -78.5v-38h105v-83h-105v-441h-104zM473 473q62 62 132 62q65 0 100 -44t35 -128v-363h-104v353q0 88 -71 88q-46 0 -92 -42v-399h-104v750h104v-277z" />
<glyph unicode="ff" horiz-adv-x="612" d="M90 0v441h-71v83h71v38q0 93 43 145.5t120 52.5q46 0 82 -14l-22 -83q-24 6 -40 6q-38 0 -58.5 -28t-20.5 -79v-38h178v38q0 93 43 145.5t120 52.5q52 0 98 -22l-23 -80q-31 11 -55 11q-38 0 -58.5 -28t-20.5 -79v-38h115v-83h-115v-441h-104v441h-178v-441h-104z" />
<glyph unicode="fi" horiz-adv-x="534" d="M90 0v441h-71v83h71v38q0 93 42.5 145.5t115.5 52.5q38 0 72 -13l-22 -83q-15 5 -30 5q-34 0 -54 -28.5t-20 -78.5v-38h208v-83h-208v-441h-104zM369 0v524h104v-524h-104zM486 676q0 -28 -18 -45t-47 -17t-47 17t-18 45t18 45t47 17t47 -17t18 -45z" />
<glyph unicode="fl" horiz-adv-x="534" d="M90 0v441h-71v83h71v38q0 93 42.5 145.5t115.5 52.5q38 0 72 -13l-22 -83q-15 5 -30 5q-34 0 -54 -28.5t-20 -78.5v-38h105v-83h-105v-441h-104zM369 0v750h104v-750h-104z" />
<glyph unicode="ffi" horiz-adv-x="819" d="M90 0v441h-71v83h71v38q0 93 43 145.5t120 52.5q46 0 82 -14l-22 -83q-24 6 -40 6q-38 0 -58.5 -28t-20.5 -79v-38h178v38q0 93 42.5 145.5t115.5 52.5q38 0 72 -13l-22 -83q-15 5 -30 5q-34 0 -54 -28.5t-20 -78.5v-38h282v-524h-104v441h-178v-441h-104v441h-178v-441 h-104zM771 676q0 -28 -18 -45t-47 -17t-47 17t-18 45t18 45t47 17t47 -17t18 -45z" />
<glyph unicode="ffl" horiz-adv-x="819" d="M90 0v441h-71v83h71v38q0 93 43 145.5t120 52.5q46 0 82 -14l-22 -83q-24 6 -40 6q-38 0 -58.5 -28t-20.5 -79v-38h178v38q0 93 42.5 145.5t115.5 52.5q38 0 72 -13l-22 -83q-15 5 -30 5q-34 0 -54 -28.5t-20 -78.5v-38h105v-83h-105v-441h-104v441h-178v-441h-104z M654 0v750h104v-750h-104z" />
<glyph unicode="ffb" horiz-adv-x="1075" d="M654 0v750h104v-264q23 24 50 36.5t56 12.5q80 0 126.5 -73.5t46.5 -199.5q0 -84 -22.5 -145.5t-62.5 -94.5t-93 -33q-66 0 -117 54l-13 -43h-75zM90 0v441h-71v83h71v38q0 93 43 145.5t120 52.5q46 0 82 -14l-22 -83q-24 6 -40 6q-38 0 -58.5 -28t-20.5 -79v-38h178v38 q0 93 42.5 145.5t115.5 52.5q38 0 72 -13l-22 -83q-15 5 -30 5q-34 0 -54 -28.5t-20 -78.5v-38h105v-83h-105v-441h-104v441h-178v-441h-104zM836 444q-43 0 -78 -38v-292q34 -34 78 -34q45 0 70.5 48.5t25.5 133.5t-25.5 133.5t-70.5 48.5z" />
<glyph unicode="ffh" horiz-adv-x="1081" d="M90 0v441h-71v83h71v38q0 93 43 145.5t120 52.5q46 0 82 -14l-22 -83q-24 6 -40 6q-38 0 -58.5 -28t-20.5 -79v-38h178v38q0 93 42.5 145.5t115.5 52.5q38 0 72 -13l-22 -83q-15 5 -30 5q-34 0 -54 -28.5t-20 -78.5v-38h105v-83h-105v-441h-104v441h-178v-441h-104z M758 473q62 62 132 62q65 0 100 -44t35 -128v-363h-104v353q0 88 -71 88q-46 0 -92 -42v-399h-104v750h104v-277z" />
<glyph unicode="ffj" horiz-adv-x="819" d="M90 0v441h-71v83h71v38q0 93 43 145.5t120 52.5q46 0 82 -14l-22 -83q-24 6 -40 6q-38 0 -58.5 -28t-20.5 -79v-38h178v38q0 93 42.5 145.5t115.5 52.5q38 0 72 -13l-22 -83q-15 5 -30 5q-34 0 -54 -28.5t-20 -78.5v-38h282v-580q0 -87 -32.5 -128.5t-99.5 -41.5 q-39 0 -78 17l19 82q20 -7 38 -7q25 0 37 18.5t12 58.5v498h-178v-441h-104v441h-178v-441h-104zM771 676q0 -28 -18 -45t-47 -17t-47 17t-18 45t18 45t47 17t47 -17t18 -45z" />
<glyph unicode="ffk" horiz-adv-x="1061" d="M90 0v441h-71v83h71v38q0 93 43 145.5t120 52.5q46 0 82 -14l-22 -83q-24 6 -40 6q-38 0 -58.5 -28t-20.5 -79v-38h178v38q0 93 42.5 145.5t115.5 52.5q38 0 72 -13l-22 -83q-15 5 -30 5q-34 0 -54 -28.5t-20 -78.5v-38h105v-83h-105v-441h-104v441h-178v-441h-104z M654 0v750h104v-438l170 212h112l-157 -194l166 -330h-113l-128 257l-50 -62v-195h-104z" />
<glyph unicode="fft" horiz-adv-x="914" d="M90 0v441h-71v83h71v38q0 93 43 145.5t120 52.5q46 0 82 -14l-22 -83q-24 6 -40 6q-38 0 -58.5 -28t-20.5 -79v-38h178v38q0 93 43 145.5t120 52.5q46 0 82 -14l-22 -83q-24 6 -40 6q-38 0 -58.5 -28t-20.5 -79v-38h177l18 143h82v-143h125v-83h-125v-264 q0 -51 13.5 -73.5t46.5 -22.5q32 0 63 15l23 -80q-51 -27 -108 -27q-74 0 -108 42.5t-34 136.5v273h-173v-441h-104v441h-178v-441h-104z" />
<glyph unicode=" "  horiz-adv-x="210" />
<glyph unicode="&#x09;" horiz-adv-x="210" />
<glyph unicode="&#xa0;" horiz-adv-x="210" />
<glyph unicode="!" horiz-adv-x="236" d="M75 217l-13 483h112l-13 -483h-86zM185 52q0 -27 -19 -45t-48 -18t-48 18t-19 45t19 45t48 18t48 -18t19 -45z" />
<glyph unicode="&#x22;" horiz-adv-x="360" d="M51 421l-12 279h104l-12 -279h-80zM229 421l-12 279h104l-12 -279h-80z" />
<glyph unicode="#" horiz-adv-x="490" d="M78 0l19 182h-67v84h76l17 158h-72v84h81l19 182h80l-19 -182h100l19 182h81l-19 -182h67v-84h-76l-17 -158h72v-84h-81l-19 -182h-80l19 182h-100l-19 -182h-81zM187 266h100l16 158h-100z" />
<glyph unicode="$" horiz-adv-x="490" d="M204 -112v103q-96 5 -165 53l26 81q32 -18 69 -29.5t70 -14.5v237q-82 36 -118 81t-36 113q0 75 43 124t117 60v98h67v-95q71 -5 138 -39l-26 -81q-52 25 -112 30v-216q89 -37 128 -83t39 -116q0 -84 -46 -137t-127 -64v-105h-67zM346 188q0 71 -75 103v-206 q36 10 55.5 37t19.5 66zM148 518q0 -66 62 -98v184q-62 -17 -62 -86z" />
<glyph unicode="%" horiz-adv-x="809" d="M188 0l345 690h88l-345 -690h-88zM682 203q0 64 -12.5 94t-39.5 30t-39.5 -30t-12.5 -94v-16q0 -64 12.5 -94t39.5 -30t39.5 30t12.5 94v16zM769 187q0 -93 -37 -145t-102 -52t-102 52t-37 145v16q0 93 37 145t102 52t102 -52t37 -145v-16zM231 503q0 64 -12.5 94 t-39.5 30t-39.5 -30t-12.5 -94v-16q0 -64 12.5 -94t39.5 -30t39.5 30t12.5 94v16zM318 487q0 -93 -37 -145t-102 -52t-102 52t-37 145v16q0 93 37 145t102 52t102 -52t37 -145v-16z" />
<glyph unicode="&#x26;" horiz-adv-x="566" d="M459 0l-66 84q-63 -95 -177 -95q-83 0 -132.5 48t-49.5 129q0 62 30.5 112.5t95.5 93.5q-35 47 -51 89t-16 85q0 75 43.5 120t116.5 45q70 0 114.5 -42.5t44.5 -109.5q0 -51 -30.5 -97t-98.5 -98l100 -123l63 134h94l-97 -205l133 -170h-117zM225 74q64 0 110 79 l-127 160q-36 -32 -53 -64.5t-17 -69.5q0 -48 24 -76.5t63 -28.5zM189 550q0 -32 11.5 -62.5t35.5 -64.5q45 39 64 69.5t19 64.5q0 33 -18 53t-48 20t-47 -21t-17 -59z" />
<glyph unicode="'" horiz-adv-x="182" d="M51 421l-12 279h104l-12 -279h-80z" />
<glyph unicode="(" horiz-adv-x="296" d="M173 -164q-54 85 -85.5 205t-31.5 242t31.5 242t85.5 205h107q-54 -93 -84.5 -210.5t-30.5 -236.5t30.5 -236.5t84.5 -210.5h-107z" />
<glyph unicode=")" horiz-adv-x="296" d="M16 -164q54 93 84.5 210.5t30.5 236.5t-30.5 236.5t-84.5 210.5h107q54 -85 85.5 -205t31.5 -242t-31.5 -242t-85.5 -205h-107z" />
<glyph unicode="*" horiz-adv-x="380" d="M255 384l-65 103l-65 -103l-64 46l79 93l-118 30l24 75l113 -46l-8 121h78l-8 -121l113 46l24 -75l-118 -30l79 -93z" />
<glyph unicode="+" horiz-adv-x="490" d="M200 147v155h-145v86h145v155h90v-155h145v-86h-145v-155h-90z" />
<glyph unicode="," horiz-adv-x="212" d="M12 -116q35 30 53.5 55t26.5 51q-24 5 -38 22t-14 40q0 27 19 45t48 18q30 0 48.5 -21t18.5 -56q0 -52 -34 -102.5t-97 -93.5z" />
<glyph unicode="-" horiz-adv-x="325" d="M44 233v88h237v-88h-237z" />
<glyph unicode="." horiz-adv-x="212" d="M173 52q0 -27 -19 -45t-48 -18t-48 18t-19 45t19 45t48 18t48 -18t19 -45z" />
<glyph unicode="/" horiz-adv-x="422" d="M15 -164l292 894h100l-292 -894h-100z" />
<glyph unicode="0" horiz-adv-x="486" d="M334 352q0 134 -22 195.5t-69 61.5t-69 -61.5t-22 -195.5v-15q0 -134 22 -195.5t69 -61.5t69 61.5t22 195.5v15zM443 337q0 -176 -49.5 -262t-150.5 -86t-150.5 86t-49.5 262v15q0 176 49.5 262t150.5 86t150.5 -86t49.5 -262v-15z" />
<glyph unicode="1" horiz-adv-x="352" d="M169 0v558l-105 -89l-57 74l172 147h97v-690h-107z" />
<glyph unicode="2" horiz-adv-x="399" d="M27 0v55q0 76 9 123t33.5 86t78.5 90q64 59 88 95t24 72q0 42 -24.5 66t-65.5 24q-49 0 -107 -44l-41 72q35 29 79 45t89 16q80 0 128.5 -48t48.5 -128q0 -56 -29.5 -104t-115.5 -130q-35 -34 -53 -60t-25.5 -57.5t-7.5 -81.5h230v-91h-339z" />
<glyph unicode="3" horiz-adv-x="414" d="M41 109q63 -31 104 -31q57 0 91.5 34t34.5 89t-33 84.5t-93 29.5h-51v84h51q50 0 79.5 30t29.5 80q0 45 -27.5 73.5t-71.5 28.5q-50 0 -101 -36l-36 73q69 52 156 52q84 0 135.5 -48.5t51.5 -127.5q0 -53 -26 -95t-72 -66q56 -20 85.5 -63.5t29.5 -107.5 q0 -92 -59.5 -147.5t-157.5 -55.5q-75 0 -152 42z" />
<glyph unicode="4" horiz-adv-x="473" d="M284 0v156h-260v87l254 447h106v-450h57v-84h-57v-156h-100zM284 240v286l-163 -286h163z" />
<glyph unicode="5" horiz-adv-x="413" d="M49 109q59 -31 106 -31q57 0 90.5 35.5t33.5 95.5q0 63 -37.5 96t-107.5 33q-57 0 -81 -1l20 353h269v-91h-181l-9 -181q19 1 43 1q86 0 138.5 -57.5t52.5 -151.5q0 -101 -59 -161t-158 -60q-80 0 -152 42z" />
<glyph unicode="6" horiz-adv-x="466" d="M284 611q-60 0 -93.5 -47.5t-41.5 -143.5q45 8 84 8q101 0 153.5 -53.5t52.5 -155.5q0 -108 -51.5 -169t-143.5 -61q-201 0 -201 312v32q0 179 60 273t175 94q69 0 130 -33l-26 -80q-51 24 -98 24zM146 296q0 -218 98 -218q44 0 68 35t24 100q0 71 -27.5 103t-89.5 32 q-40 0 -73 -4v-48z" />
<glyph unicode="7" horiz-adv-x="389" d="M76 0v31q0 89 20 166t75 202l89 200h-245v91h349v-85l-87 -206q-55 -130 -74.5 -206.5t-19.5 -161.5v-31h-107z" />
<glyph unicode="8" horiz-adv-x="460" d="M413 521q0 -51 -22 -91t-63 -65q100 -55 100 -178q0 -92 -53 -145t-147 -53q-91 0 -143.5 51t-52.5 141q0 60 26.5 104t76.5 68q-45 26 -68 67.5t-23 94.5q0 83 51.5 134t135.5 51q82 0 132 -49t50 -130zM213 323q-39 -20 -59.5 -54.5t-20.5 -78.5q0 -55 26 -87.5 t71 -32.5q43 0 68.5 32t25.5 87q0 51 -22.5 83.5t-65.5 44.5zM147 515q0 -44 21.5 -73.5t60.5 -40.5l23 -6q29 18 45 48.5t16 69.5q0 49 -22 77.5t-60 28.5t-61 -28.5t-23 -75.5z" />
<glyph unicode="9" horiz-adv-x="466" d="M74 102q23 -11 53.5 -17.5t54.5 -6.5q61 0 94 46.5t41 146.5q-45 -8 -84 -8q-101 0 -153.5 52.5t-52.5 154.5q0 108 51.5 169t143.5 61q201 0 201 -312v-32q0 -182 -59 -274.5t-176 -92.5q-36 0 -74 9t-66 24zM247 343q38 0 73 4v46q0 218 -98 218q-44 0 -68 -35 t-24 -100q0 -70 27.5 -101.5t89.5 -31.5z" />
<glyph unicode=":" horiz-adv-x="212" d="M173 52q0 -27 -19 -45t-48 -18t-48 18t-19 45t19 45t48 18t48 -18t19 -45zM173 461q0 -27 -19 -45t-48 -18t-48 18t-19 45t19 45t48 18t48 -18t19 -45z" />
<glyph unicode=";" horiz-adv-x="212" d="M12 -116q35 30 53.5 55t26.5 51q-24 5 -38 22t-14 40q0 27 19 45t48 18q30 0 48.5 -21t18.5 -56q0 -52 -34 -102.5t-97 -93.5zM172 461q0 -27 -19 -45t-48 -18t-48 18t-19 45t19 45t48 18t48 -18t19 -45z" />
<glyph unicode="&#x3c;" horiz-adv-x="490" d="M55 301v89l360 141v-94l-256 -91l256 -92v-94z" />
<glyph unicode="=" horiz-adv-x="490" d="M55 193v86h380v-86h-380zM55 411v86h380v-86h-380z" />
<glyph unicode="&#x3e;" horiz-adv-x="490" d="M75 160v94l256 92l-256 91v94l360 -141v-89z" />
<glyph unicode="?" horiz-adv-x="379" d="M110 217v24q0 67 13.5 104t51.5 72l13 12q30 29 44 55t14 55q0 39 -24.5 63.5t-61.5 24.5q-56 0 -115 -43l-41 70q79 64 174 64q79 0 128 -47t49 -123q0 -49 -20.5 -89.5t-68.5 -84.5l-13 -12q-26 -25 -36.5 -51.5t-10.5 -69.5v-24h-96zM225 52q0 -27 -19 -45t-48 -18 t-48 18t-19 45t19 45t48 18t48 -18t19 -45z" />
<glyph unicode="@" horiz-adv-x="851" d="M590 -153q-87 -38 -197 -38q-111 0 -190 43.5t-120 124t-41 190.5q0 140 60.5 250t161.5 170t223 60q99 0 172 -42t111.5 -117t38.5 -174q0 -96 -31 -169.5t-83.5 -113t-118.5 -39.5q-43 0 -71 20t-36 55q-24 -25 -54.5 -38.5t-62.5 -13.5q-51 0 -81.5 40.5t-30.5 107.5 q0 77 31 142.5t79.5 102.5t102.5 37q24 0 46 -10t38 -28l13 29h75l-73 -285q-6 -24 -6 -39q0 -48 41 -48q38 0 70.5 36.5t50.5 93.5t18 121q0 117 -66 187.5t-176 70.5q-103 0 -185.5 -55.5t-128 -147t-45.5 -200.5q0 -136 72 -211.5t202 -75.5q91 0 173 33zM385 88 q36 0 73 39l58 226q-28 18 -55 18q-37 0 -67 -28t-47 -73t-17 -96q0 -41 14.5 -63.5t40.5 -22.5z" />
<glyph unicode="A" horiz-adv-x="549" d="M418 0l-43 167h-205l-42 -167h-110l201 700h111l201 -700h-113zM273 571l-78 -309h156z" />
<glyph unicode="B" horiz-adv-x="521" d="M66 0v700h193q97 0 151 -48.5t54 -136.5q0 -58 -29 -100t-79 -58q61 -16 94.5 -60.5t33.5 -108.5q0 -87 -54 -137.5t-149 -50.5h-215zM172 307v-216h92q53 0 81.5 27.5t28.5 80.5t-28 80.5t-82 27.5h-92zM172 609v-211h74q110 0 110 105q0 106 -110 106h-74z" />
<glyph unicode="C" horiz-adv-x="472" d="M450 25q-28 -17 -65.5 -26.5t-78.5 -9.5q-125 0 -194.5 95t-69.5 266q0 111 33.5 192.5t93.5 125t139 43.5q73 0 136 -37l-26 -89q-43 22 -92 22q-80 0 -125.5 -68t-45.5 -189t45 -189t125 -68q53 0 99 21z" />
<glyph unicode="D" horiz-adv-x="557" d="M234 98q81 0 124.5 65.5t43.5 186.5t-43.5 186.5t-124.5 65.5h-57v-504h57zM66 0v700h169q133 0 206.5 -91.5t73.5 -258.5t-73.5 -258.5t-206.5 -91.5h-169z" />
<glyph unicode="E" horiz-adv-x="467" d="M177 305v-209h252v-96h-363v700h355v-96h-244v-203h200v-96h-200z" />
<glyph unicode="F" horiz-adv-x="444" d="M66 0v700h345v-96h-234v-218h190v-96h-190v-290h-111z" />
<glyph unicode="G" horiz-adv-x="537" d="M481 390v-359q-36 -20 -80.5 -31t-89.5 -11q-129 0 -199 94t-70 267q0 111 35 193t97 125t142 43q77 0 149 -37l-26 -89q-52 23 -104 23q-84 0 -132 -68.5t-48 -189.5t42.5 -189.5t118.5 -68.5q31 0 60 8v194h-95v96h200z" />
<glyph unicode="H" horiz-adv-x="560" d="M66 0v700h111v-296h206v296h111v-700h-111v304h-206v-304h-111z" />
<glyph unicode="I" horiz-adv-x="243" d="M66 0v700h111v-700h-111z" />
<glyph unicode="J" horiz-adv-x="369" d="M37 109q42 -17 78 -17q45 0 64.5 30t19.5 101v477h111v-484q0 -116 -43 -171.5t-133 -55.5q-63 0 -123 30z" />
<glyph unicode="K" horiz-adv-x="533" d="M66 0v700h111v-330l206 330h117l-181 -285l193 -415h-119l-145 314l-71 -113v-201h-111z" />
<glyph unicode="L" horiz-adv-x="435" d="M66 0v700h111v-600h234v-100h-345z" />
<glyph unicode="M" horiz-adv-x="708" d="M537 0v476l-138 -353h-90l-140 354v-477h-103v700h112l177 -448l176 448h111v-700h-105z" />
<glyph unicode="N" horiz-adv-x="556" d="M391 0l-222 474v-474h-103v700h99l222 -474v474h103v-700h-99z" />
<glyph unicode="O" horiz-adv-x="568" d="M284 92q60 0 94.5 69.5t34.5 188.5t-34.5 188.5t-94.5 69.5t-94.5 -69.5t-34.5 -188.5t34.5 -188.5t94.5 -69.5zM284 -11q-75 0 -130 44.5t-83.5 125.5t-28.5 191q0 113 30 194.5t84.5 124t127.5 42.5q75 0 130 -44.5t83.5 -125.5t28.5 -191q0 -113 -30 -194.5 t-84.5 -124t-127.5 -42.5z" />
<glyph unicode="P" horiz-adv-x="501" d="M66 0v700h178q103 0 162.5 -61t59.5 -168t-59.5 -168t-162.5 -61h-67v-242h-111zM177 338h59q57 0 87 34t30 99t-30 99t-87 34h-59v-266z" />
<glyph unicode="Q" horiz-adv-x="568" d="M441 -76l-62 87q-46 -22 -95 -22q-75 0 -130 44.5t-83.5 125.5t-28.5 191q0 113 30 194.5t84.5 124t127.5 42.5q75 0 130 -44.5t83.5 -125.5t28.5 -191q0 -94 -21.5 -167.5t-61.5 -120.5l63 -89zM284 90q19 0 34 6l-62 89l65 49l57 -81q35 68 35 197q0 119 -34.5 188.5 t-94.5 69.5t-94.5 -69.5t-34.5 -188.5q0 -121 34.5 -190.5t94.5 -69.5z" />
<glyph unicode="R" horiz-adv-x="519" d="M376 0l-125 256h-74v-256h-111v700h178q104 0 163 -59t59 -163q0 -70 -28.5 -121.5t-81.5 -77.5l141 -279h-121zM177 352h59q56 0 86.5 33t30.5 93t-30.5 93t-86.5 33h-59v-252z" />
<glyph unicode="S" horiz-adv-x="453" d="M52 128q35 -20 67.5 -29t70.5 -9q52 0 82 27t30 75q0 40 -22 66t-75 49l-23 10q-137 59 -137 194q0 91 55.5 145.5t149.5 54.5q77 0 148 -41l-26 -88q-54 28 -111 28q-47 0 -75 -24.5t-28 -66.5q0 -40 22 -66t75 -49l23 -10q137 -59 137 -194q0 -98 -57.5 -154.5 t-157.5 -56.5q-102 0 -174 51z" />
<glyph unicode="T" horiz-adv-x="499" d="M194 0v600h-166v100h443v-100h-166v-600h-111z" />
<glyph unicode="U" horiz-adv-x="540" d="M370 700h111v-460q0 -122 -54.5 -186.5t-156.5 -64.5t-156.5 64.5t-54.5 186.5v460h111v-459q0 -74 25.5 -111.5t74.5 -37.5t74.5 37.5t25.5 111.5v459z" />
<glyph unicode="V" horiz-adv-x="525" d="M207 0l-186 700h118l125 -554l125 554h115l-186 -700h-111z" />
<glyph unicode="W" horiz-adv-x="724" d="M456 0l-94 451l-94 -451h-114l-120 700h109l76 -521l98 461h93l98 -460l74 520h108l-120 -700h-114z" />
<glyph unicode="X" horiz-adv-x="525" d="M26 0l176 356l-171 344h121l112 -241l112 241h118l-171 -346l176 -354h-121l-118 251l-116 -251h-118z" />
<glyph unicode="Y" horiz-adv-x="501" d="M195 0v262l-173 438h119l111 -335l111 335h116l-173 -438v-262h-111z" />
<glyph unicode="Z" horiz-adv-x="463" d="M28 0v94l272 506h-259v100h383v-94l-272 -506h283v-100h-407z" />
<glyph unicode="[" horiz-adv-x="293" d="M66 -164v894h206v-86h-102v-722h102v-86h-206z" />
<glyph unicode="\" horiz-adv-x="422" d="M307 -164l-292 894h100l292 -894h-100z" />
<glyph unicode="]" horiz-adv-x="293" d="M21 -164v86h102v722h-102v86h206v-894h-206z" />
<glyph unicode="^" horiz-adv-x="490" d="M332 352l-89 236l-88 -236h-97l137 338h100l137 -338h-100z" />
<glyph unicode="_" horiz-adv-x="370" d="M0 -145v73h370v-73h-370z" />
<glyph unicode="`" horiz-adv-x="488" d="M260 606l-127 150h118l103 -150h-94z" />
<glyph unicode="a" horiz-adv-x="442" d="M308 0l-10 50q-27 -29 -61.5 -45t-70.5 -16q-59 0 -96 42.5t-37 112.5q0 76 43.5 120.5t120.5 44.5h92v35q0 101 -93 101q-53 0 -117 -33l-29 77q38 21 81.5 33.5t82.5 12.5q80 0 126 -46t46 -126v-363h-78zM198 75q47 0 91 41v115h-70q-45 0 -66.5 -19.5t-21.5 -60.5 q0 -37 18 -56.5t49 -19.5z" />
<glyph unicode="b" horiz-adv-x="482" d="M61 0v750h104v-264q23 24 50 36.5t56 12.5q80 0 126.5 -73.5t46.5 -199.5q0 -84 -22.5 -145.5t-62.5 -94.5t-93 -33q-66 0 -117 53l-7 -42h-81zM243 444q-43 0 -78 -38v-292q34 -34 78 -34q45 0 70.5 48.5t25.5 133.5t-25.5 133.5t-70.5 48.5z" />
<glyph unicode="c" horiz-adv-x="395" d="M377 19q-52 -30 -120 -30q-102 0 -160.5 73t-58.5 200q0 125 59.5 199t159.5 74q60 0 114 -32l-27 -78q-36 18 -71 18q-58 0 -94 -50t-36 -131q0 -82 36.5 -131.5t95.5 -49.5q37 0 75 16z" />
<glyph unicode="d" horiz-adv-x="482" d="M340 0l-9 49q-24 -29 -55.5 -44.5t-64.5 -15.5q-80 0 -126.5 73.5t-46.5 199.5q0 84 22.5 145.5t62.5 94.5t93 33q55 0 101 -39v254h104v-750h-81zM239 80q45 0 78 38v292q-35 34 -78 34q-45 0 -70.5 -48.5t-25.5 -133.5t25.5 -133.5t70.5 -48.5z" />
<glyph unicode="e" horiz-adv-x="452" d="M398 26q-30 -17 -68.5 -27t-75.5 -10q-101 0 -158.5 73t-57.5 200q0 82 25 144t68.5 95.5t98.5 33.5q84 0 131.5 -66.5t47.5 -184.5q0 -38 -2 -58h-268q7 -72 41.5 -110.5t91.5 -38.5q51 0 100 26zM230 449q-37 0 -61 -38t-30 -107h173v11q0 60 -22.5 97t-59.5 37z" />
<glyph unicode="f" horiz-adv-x="330" d="M90 0v441h-71v83h71v38q0 93 43 145.5t120 52.5q52 0 98 -22l-23 -80q-31 11 -55 11q-38 0 -58.5 -28t-20.5 -79v-38h115v-83h-115v-441h-104z" />
<glyph unicode="g" horiz-adv-x="482" d="M204 -134q58 0 85.5 33.5t27.5 103.5v46q-49 -49 -106 -49q-79 0 -126 72t-47 194q0 82 22.5 143t63 93.5t92.5 32.5q63 0 116 -53l12 42h77v-512q0 -117 -52.5 -177.5t-153.5 -60.5q-73 0 -142 32l23 84q53 -24 108 -24zM239 91q45 0 78 38v281q-35 34 -78 34 q-45 0 -70.5 -47.5t-25.5 -130.5q0 -81 25.5 -128t70.5 -47z" />
<glyph unicode="h" horiz-adv-x="488" d="M165 473q62 62 132 62q65 0 100 -44t35 -128v-363h-104v353q0 88 -71 88q-46 0 -92 -42v-399h-104v750h104v-277z" />
<glyph unicode="i" horiz-adv-x="226" d="M61 0v524h104v-524h-104zM178 676q0 -28 -18 -45t-47 -17t-47 17t-18 45t18 45t47 17t47 -17t18 -45z" />
<glyph unicode="j" horiz-adv-x="226" d="M-26 -127q20 -7 38 -7q25 0 37 18.5t12 58.5v581h104v-580q0 -87 -32.5 -128.5t-99.5 -41.5q-39 0 -78 17zM178 676q0 -28 -18 -45t-47 -17t-47 17t-18 45t18 45t47 17t47 -17t18 -45z" />
<glyph unicode="k" horiz-adv-x="468" d="M61 0v750h104v-438l170 212h112l-157 -194l166 -330h-113l-126 253l-52 -66v-187h-104z" />
<glyph unicode="l" horiz-adv-x="226" d="M61 0v750h104v-750h-104z" />
<glyph unicode="m" horiz-adv-x="737" d="M577 0v353q0 42 -17.5 65t-49.5 23q-20 0 -45 -12t-44 -31q1 -8 1.5 -17t0.5 -18v-363h-104v353q0 42 -17.5 65t-49.5 23q-20 0 -44 -11.5t-43 -29.5v-400h-104v524h87l9 -53q29 30 65.5 47t70.5 17q39 0 67.5 -18.5t44.5 -53.5q30 34 69 53t77 19q62 0 96 -45t34 -127 v-363h-104z" />
<glyph unicode="n" horiz-adv-x="488" d="M328 0v353q0 88 -71 88q-46 0 -92 -42v-399h-104v524h87l9 -54q32 32 68 48.5t72 16.5q65 0 100 -44t35 -128v-363h-104z" />
<glyph unicode="o" horiz-adv-x="478" d="M239 -11q-94 0 -147.5 73t-53.5 200t53.5 200t147.5 73t147.5 -73t53.5 -200t-53.5 -200t-147.5 -73zM239 80q45 0 70.5 48.5t25.5 133.5t-25.5 133.5t-70.5 48.5t-70.5 -48.5t-25.5 -133.5t25.5 -133.5t70.5 -48.5z" />
<glyph unicode="p" horiz-adv-x="482" d="M61 -216v740h81l8 -50q25 29 57 45t64 16q80 0 126.5 -73.5t46.5 -199.5q0 -84 -22.5 -145.5t-62.5 -94.5t-93 -33q-57 0 -101 43v-248h-104zM243 444q-43 0 -78 -38v-292q34 -34 78 -34q45 0 70.5 48.5t25.5 133.5t-25.5 133.5t-70.5 48.5z" />
<glyph unicode="q" horiz-adv-x="482" d="M317 -216v254q-49 -49 -106 -49q-80 0 -126.5 73.5t-46.5 199.5q0 84 22.5 145.5t62.5 94.5t93 33q63 0 116 -53l12 42h77v-740h-104zM239 80q45 0 78 38v292q-35 34 -78 34q-45 0 -70.5 -48.5t-25.5 -133.5t25.5 -133.5t70.5 -48.5z" />
<glyph unicode="r" horiz-adv-x="340" d="M61 0v524h87l10 -59q28 34 63 52t71 18q16 0 34 -4l-13 -98q-23 5 -43 5q-28 0 -55 -12.5t-50 -35.5v-390h-104z" />
<glyph unicode="s" horiz-adv-x="393" d="M50 110q68 -33 125 -33q40 0 63 18.5t23 49.5q0 24 -16.5 41.5t-55.5 32.5l-31 12q-61 24 -89 59t-28 88q0 72 47.5 114.5t125.5 42.5q63 0 135 -32l-27 -78q-47 22 -96 22q-40 0 -62 -16.5t-22 -46.5q0 -24 16.5 -41.5t55.5 -32.5l31 -12q61 -24 89 -59t28 -88 q0 -74 -48.5 -118t-131.5 -44q-82 0 -159 43z" />
<glyph unicode="t" horiz-adv-x="350" d="M335 16q-51 -27 -108 -27q-74 0 -108 42.5t-34 136.5v273h-71v83h75l18 143h82v-143h125v-83h-125v-264q0 -51 13.5 -73.5t46.5 -22.5q32 0 63 15z" />
<glyph unicode="u" horiz-adv-x="482" d="M334 0l-9 49q-62 -60 -135 -60q-64 0 -99 44.5t-35 127.5v363h104v-353q0 -43 17.5 -65.5t52.5 -22.5q43 0 87 37v404h104v-524h-87z" />
<glyph unicode="v" horiz-adv-x="436" d="M168 0l-151 524h110l92 -401l93 401h107l-151 -524h-100z" />
<glyph unicode="w" horiz-adv-x="648" d="M402 0l-78 361l-78 -361h-95l-130 524h106l73 -390l80 371h91l79 -371l74 390h103l-130 -524h-95z" />
<glyph unicode="x" horiz-adv-x="436" d="M309 0l-93 181l-92 -181h-107l147 271l-137 253h110l82 -163l83 163h107l-138 -253l148 -271h-110z" />
<glyph unicode="y" horiz-adv-x="436" d="M30 -126q29 -9 49 -9q33 0 53 27t43 102l-158 530h110l94 -392l91 392h107l-160 -555q-31 -107 -68.5 -151t-97.5 -44q-47 0 -82 20z" />
<glyph unicode="z" horiz-adv-x="390" d="M28 0v77l218 364h-211v83h320v-77l-218 -364h225v-83h-334z" />
<glyph unicode="{" horiz-adv-x="322" d="M301 -159q-39 -8 -69 -8q-72 0 -110 39t-38 112q0 30 9 92q8 59 8 85q0 42 -14 59.5t-49 17.5h-17v90h17q35 0 49 17.5t14 59.5q0 26 -8 85q-9 62 -9 92q0 73 38 112t110 39q30 0 69 -8v-82q-21 4 -43 4q-36 0 -53 -19.5t-17 -61.5q0 -22 8 -93q8 -62 8 -80 q0 -90 -75 -110q75 -19 75 -110q0 -18 -8 -80q-8 -71 -8 -93q0 -42 17 -61.5t53 -19.5q22 0 43 4v-82z" />
<glyph unicode="|" horiz-adv-x="234" d="M66 -216v946h102v-946h-102z" />
<glyph unicode="}" horiz-adv-x="322" d="M21 -77q21 -4 43 -4q36 0 53 19.5t17 61.5q0 22 -8 93q-8 62 -8 80q0 91 75 110q-75 20 -75 110q0 18 8 80q8 71 8 93q0 42 -17 61.5t-53 19.5q-22 0 -43 -4v82q39 8 69 8q72 0 110 -39t38 -112q0 -30 -9 -92q-8 -59 -8 -85q0 -42 14 -59.5t49 -17.5h17v-90h-17 q-35 0 -49 -17.5t-14 -59.5q0 -26 8 -85q9 -62 9 -92q0 -73 -38 -112t-110 -39q-30 0 -69 8v82z" />
<glyph unicode="~" horiz-adv-x="490" d="M450 402q0 -76 -28 -115t-82 -39q-30 0 -56.5 14t-61.5 47q-27 26 -39 34t-24 8q-35 0 -35 -60v-40h-84v37q0 76 28 115t82 39q30 0 56.5 -14t61.5 -47q27 -26 39 -34t24 -8q35 0 35 60v40h84v-37z" />
<glyph unicode="&#xa1;" horiz-adv-x="236" d="M62 -176l13 483h86l13 -483h-112zM185 472q0 -27 -19 -45t-48 -18t-48 18t-19 45t19 45t48 18t48 -18t19 -45z" />
<glyph unicode="&#xa2;" horiz-adv-x="490" d="M263 -112v103q-85 12 -133.5 82.5t-48.5 182.5t49 183t133 83v102h67v-103q44 -6 83 -28l-26 -76q-32 15 -57 18v-359q33 5 64 19l26 -76q-41 -23 -90 -29v-102h-67zM179 256q0 -69 21.5 -113.5t62.5 -59.5v346q-41 -15 -62.5 -59.5t-21.5 -113.5z" />
<glyph unicode="&#xa3;" horiz-adv-x="490" d="M241 304v-6q0 -61 -19 -114.5t-54 -92.5h274v-91h-378v84q38 36 60.5 90.5t22.5 112.5q0 12 -1 17h-74v84h61q-3 17 -7 31q-15 53 -15 98q0 85 50.5 134t138.5 49q72 0 135 -36l-30 -79q-52 26 -95 26q-49 0 -74.5 -26t-25.5 -75q0 -32 10 -71q7 -27 12 -51h138v-84h-129 z" />
<glyph unicode="&#xa5;" horiz-adv-x="490" d="M192 0v115h-135v82h135v69h-135v82h105l-139 342h113l110 -318l110 318h110l-140 -342h106v-82h-135v-69h135v-82h-135v-115h-105z" />
<glyph unicode="&#xa7;" horiz-adv-x="423" d="M81 -14q23 -11 51 -17.5t51 -6.5q40 0 62 16.5t22 46.5q0 24 -16.5 41.5t-55.5 32.5l-31 12q-68 28 -100.5 67t-32.5 93q0 51 25.5 92.5t71.5 64.5q-38 22 -55.5 52.5t-17.5 73.5q0 72 47.5 114.5t125.5 42.5q63 0 135 -32l-27 -78q-47 22 -96 22q-40 0 -62 -16.5 t-22 -46.5q0 -24 16.5 -41.5t55.5 -32.5l31 -12q68 -28 100.5 -67t32.5 -93q0 -52 -26 -93.5t-72 -63.5q38 -23 56 -53.5t18 -72.5q0 -72 -47.5 -114.5t-125.5 -42.5q-65 0 -141 34zM295 295q0 62 -91 99q-34 -12 -55 -40t-21 -64q0 -64 90 -100q35 13 56 41.5t21 63.5z" />
<glyph unicode="&#xa8;" horiz-adv-x="488" d="M214 681q0 -25 -17 -40.5t-44 -15.5t-44 15.5t-17 40.5t17 40.5t44 15.5t44 -15.5t17 -40.5zM396 681q0 -25 -17 -40.5t-44 -15.5t-44 15.5t-17 40.5t17 40.5t44 15.5t44 -15.5t17 -40.5z" />
<glyph unicode="&#xa9;" horiz-adv-x="514" d="M341 360q-32 -20 -69 -20q-53 0 -85.5 42.5t-32.5 111.5t32.5 111.5t85.5 42.5q32 0 67 -19l-17 -49q-18 9 -40 9q-31 0 -48.5 -25t-17.5 -70t17.5 -70t48.5 -25q20 0 42 10zM257 224q-69 0 -121.5 35.5t-81 96.5t-28.5 138q0 81 30.5 142.5t83 94.5t117.5 33 q69 0 121.5 -35.5t81 -96.5t28.5 -138q0 -81 -30.5 -142.5t-83 -94.5t-117.5 -33zM257 274q80 0 128.5 60t48.5 160t-48.5 160t-128.5 60t-128.5 -60t-48.5 -160t48.5 -160t128.5 -60z" />
<glyph unicode="&#xaa;" horiz-adv-x="310" d="M216 345l-10 36q-20 -21 -44.5 -32t-49.5 -11q-41 0 -66.5 29t-25.5 76q0 53 31 83t85 30h62v4q0 35 -14.5 51.5t-45.5 16.5q-40 0 -79 -24l-27 60q56 36 120 36q59 0 91 -35t32 -100v-220h-59zM28 226v70h247v-70h-247zM139 407q32 0 59 24v65h-47q-53 0 -53 -45 q0 -44 41 -44z" />
<glyph unicode="&#xab;" horiz-adv-x="437" d="M134 96l-116 184l116 184h100l-116 -184l116 -184h-100zM313 96l-116 184l116 184h100l-116 -184l116 -184h-100z" />
<glyph unicode="&#xac;" horiz-adv-x="490" d="M335 147v155h-290v86h380v-241h-90z" />
<glyph unicode="&#xae;" horiz-adv-x="514" d="M257 224q-69 0 -121.5 35.5t-81 96.5t-28.5 138q0 81 30.5 142.5t83 94.5t117.5 33q69 0 121.5 -35.5t81 -96.5t28.5 -138q0 -81 -30.5 -142.5t-83 -94.5t-117.5 -33zM257 274q80 0 128.5 60t48.5 160t-48.5 160t-128.5 60t-128.5 -60t-48.5 -160t48.5 -160t128.5 -60z M175 357v284h86q42 0 67.5 -25t25.5 -68q0 -30 -13 -51t-36 -31l54 -109h-58l-50 101h-21v-101h-55zM230 506h30q17 0 27.5 11.5t10.5 30.5t-10.5 30.5t-27.5 11.5h-30v-84z" />
<glyph unicode="&#xb0;" horiz-adv-x="312" d="M156 430q-58 0 -96.5 38.5t-38.5 96.5t38.5 96.5t96.5 38.5t96.5 -38.5t38.5 -96.5t-38.5 -96.5t-96.5 -38.5zM156 492q29 0 48 20.5t19 52.5t-19 52.5t-48 20.5t-48 -20.5t-19 -52.5t19 -52.5t48 -20.5z" />
<glyph unicode="&#xb2;" d="M60 420v29q0 43 7 72t26 53t58 53q37 26 50 43t13 38q0 19 -12.5 30t-34.5 11q-42 0 -80 -28l-28 60q55 39 120 39q53 0 86.5 -30.5t33.5 -78.5q0 -34 -18.5 -61.5t-69.5 -66.5q-38 -29 -49 -45.5t-13 -43.5h150v-74h-239z" />
<glyph unicode="&#xb3;" d="M70 502q39 -21 75 -21q32 0 50 14.5t18 40.5q0 25 -16.5 38.5t-47.5 13.5h-45v66h42q24 0 40.5 15t16.5 37q0 20 -14 31.5t-39 11.5q-38 0 -75 -21l-22 63q52 29 110 29q56 0 90.5 -28t34.5 -74q0 -30 -16 -54t-45 -38q34 -13 52.5 -39.5t18.5 -62.5q0 -53 -38 -83.5 t-105 -30.5q-59 0 -107 29z" />
<glyph unicode="&#xb4;" horiz-adv-x="488" d="M133 606l103 150h118l-127 -150h-94z" />
<glyph unicode="&#xb6;" horiz-adv-x="480" d="M350 -110v748h-61v-748h-64v388q-86 0 -138 57.5t-52 153.5t52 153.5t138 57.5h189v-810h-64z" />
<glyph unicode="&#xb7;" horiz-adv-x="212" d="M173 288q0 -27 -19 -45t-48 -18t-48 18t-19 45t19 45t48 18t48 -18t19 -45z" />
<glyph unicode="&#xb8;" horiz-adv-x="488" d="M159 -159q38 -18 68 -18q23 0 35.5 10.5t12.5 29.5q0 41 -65 41h-31l37 98h67l-20 -53q42 -6 63.5 -29t21.5 -60q0 -45 -30 -71.5t-84 -26.5t-95 25z" />
<glyph unicode="&#xb9;" d="M168 420v282l-63 -53l-45 59l120 102h74v-390h-86z" />
<glyph unicode="&#xba;" horiz-adv-x="342" d="M171 410q28 0 43 27.5t15 80.5t-15 80.5t-43 27.5t-43 -27.5t-15 -80.5t15 -80.5t43 -27.5zM171 336q-63 0 -101 50t-38 132t38 132t101 50t101 -50t38 -132t-38 -132t-101 -50zM43 226v70h256v-70h-256z" />
<glyph unicode="&#xbb;" horiz-adv-x="437" d="M24 96l116 184l-116 184h100l116 -184l-116 -184h-100zM203 96l116 184l-116 184h100l116 -184l-116 -184h-100z" />
<glyph unicode="&#xbc;" horiz-adv-x="809" d="M207 0l345 690h88l-345 -690h-88zM652 0v73h-167v70l166 247h81v-249h39v-68h-39v-73h-80zM652 141v135l-91 -135h91zM168 300v282l-63 -53l-45 59l120 102h74v-390h-86z" />
<glyph unicode="&#xbd;" horiz-adv-x="809" d="M172 0l345 690h88l-345 -690h-88zM511 0v29q0 43 7 72t26 53t58 53q37 26 50 43t13 38q0 19 -12.5 30t-34.5 11q-42 0 -80 -28l-28 60q55 39 120 39q53 0 86.5 -30.5t33.5 -78.5q0 -34 -18.5 -61.5t-69.5 -66.5q-38 -29 -49 -45.5t-13 -43.5h150v-74h-239zM168 300v282 l-63 -53l-45 59l120 102h74v-390h-86z" />
<glyph unicode="&#xbe;" horiz-adv-x="809" d="M213 0l345 690h88l-345 -690h-88zM652 0v73h-167v70l166 247h81v-249h39v-68h-39v-73h-80zM652 141v135l-91 -135h91zM70 382q39 -21 75 -21q32 0 50 14.5t18 40.5q0 25 -16.5 38.5t-47.5 13.5h-45v66h42q24 0 40.5 15t16.5 37q0 20 -14 31.5t-39 11.5q-38 0 -75 -21 l-22 63q52 29 110 29q56 0 90.5 -28t34.5 -74q0 -30 -16 -54t-45 -38q34 -13 52.5 -39.5t18.5 -62.5q0 -53 -38 -83.5t-105 -30.5q-59 0 -107 29z" />
<glyph unicode="&#xbf;" horiz-adv-x="379" d="M375 -130q-79 -64 -174 -64q-79 0 -128 47t-49 123q0 49 20.5 89.5t68.5 84.5l13 12q26 25 36.5 51.5t10.5 69.5v24h96v-24q0 -67 -13.5 -104t-51.5 -72l-13 -12q-30 -29 -44 -55t-14 -55q0 -39 24.5 -63.5t61.5 -24.5q56 0 115 43zM288 472q0 -27 -19 -45t-48 -18 t-48 18t-19 45t19 45t48 18t48 -18t19 -45z" />
<glyph unicode="&#xc0;" horiz-adv-x="549" d="M418 0l-43 167h-205l-42 -167h-110l201 700h111l201 -700h-113zM273 571l-78 -309h156zM230 765l-142 125h132l110 -125h-100z" />
<glyph unicode="&#xc1;" horiz-adv-x="549" d="M418 0l-43 167h-205l-42 -167h-110l201 700h111l201 -700h-113zM273 571l-78 -309h156zM318 765h-100l110 125h132z" />
<glyph unicode="&#xc2;" horiz-adv-x="549" d="M418 0l-43 167h-205l-42 -167h-110l201 700h111l201 -700h-113zM273 571l-78 -309h156zM342 765l-68 65l-68 -65h-98l110 125h112l110 -125h-98z" />
<glyph unicode="&#xc3;" horiz-adv-x="549" d="M418 0l-43 167h-205l-42 -167h-110l201 700h111l201 -700h-113zM273 571l-78 -309h156zM440 890q-3 -64 -26.5 -95.5t-69.5 -31.5q-19 0 -37.5 7t-47.5 26q-30 21 -45 21q-14 0 -20.5 -10.5t-9.5 -38.5h-76q3 64 26.5 95.5t69.5 31.5q19 0 37.5 -7t47.5 -26 q30 -21 45 -21q14 0 20.5 10.5t9.5 38.5h76z" />
<glyph unicode="&#xc4;" horiz-adv-x="549" d="M418 0l-43 167h-205l-42 -167h-110l201 700h111l201 -700h-113zM273 571l-78 -309h156zM241 833q0 -27 -17.5 -43t-45.5 -16t-45.5 16t-17.5 43t17.5 43t45.5 16t45.5 -16t17.5 -43zM433 833q0 -27 -17.5 -43t-45.5 -16t-45.5 16t-17.5 43t17.5 43t45.5 16t45.5 -16 t17.5 -43z" />
<glyph unicode="&#xc5;" horiz-adv-x="549" d="M418 0l-43 167h-205l-42 -167h-110l201 700h111l201 -700h-113zM273 571l-78 -309h156zM274 813q22 0 36 14.5t14 35.5t-14 35.5t-36 14.5t-36 -14.5t-14 -35.5t14 -35.5t36 -14.5zM274 751q-51 0 -83.5 31.5t-32.5 80.5t32.5 80.5t83.5 31.5t83.5 -31.5t32.5 -80.5 t-32.5 -80.5t-83.5 -31.5z" />
<glyph unicode="&#xc6;" horiz-adv-x="757" d="M0 0l299 700h412v-96h-229v-203h185v-96h-185v-209h237v-96h-346v203h-179l-83 -203h-111zM233 298h140v306h-15z" />
<glyph unicode="&#xc7;" horiz-adv-x="472" d="M450 25q-28 -17 -65.5 -26.5t-78.5 -9.5q-125 0 -194.5 95t-69.5 266q0 111 33.5 192.5t93.5 125t139 43.5q73 0 136 -37l-26 -89q-43 22 -92 22q-80 0 -125.5 -68t-45.5 -189t45 -189t125 -68q53 0 99 21zM190 -157q36 -18 69 -18q22 0 34 10t12 28q0 40 -64 40h-32 l37 99h69l-20 -52q42 -6 63.5 -28.5t21.5 -60.5q0 -46 -30 -72.5t-84 -26.5q-52 0 -97 25z" />
<glyph unicode="&#xc8;" horiz-adv-x="467" d="M177 305v-209h252v-96h-363v700h355v-96h-244v-203h200v-96h-200zM199 765l-142 125h132l110 -125h-100z" />
<glyph unicode="&#xc9;" horiz-adv-x="467" d="M177 305v-209h252v-96h-363v700h355v-96h-244v-203h200v-96h-200zM287 765h-100l110 125h132z" />
<glyph unicode="&#xca;" horiz-adv-x="467" d="M177 305v-209h252v-96h-363v700h355v-96h-244v-203h200v-96h-200zM311 765l-68 65l-68 -65h-98l110 125h112l110 -125h-98z" />
<glyph unicode="&#xcb;" horiz-adv-x="467" d="M177 305v-209h252v-96h-363v700h355v-96h-244v-203h200v-96h-200zM210 833q0 -27 -17.5 -43t-45.5 -16t-45.5 16t-17.5 43t17.5 43t45.5 16t45.5 -16t17.5 -43zM402 833q0 -27 -17.5 -43t-45.5 -16t-45.5 16t-17.5 43t17.5 43t45.5 16t45.5 -16t17.5 -43z" />
<glyph unicode="&#xcc;" horiz-adv-x="243" d="M66 0v700h111v-700h-111zM77 765l-142 125h132l110 -125h-100z" />
<glyph unicode="&#xcd;" horiz-adv-x="243" d="M66 0v700h111v-700h-111zM165 765h-100l110 125h132z" />
<glyph unicode="&#xce;" horiz-adv-x="243" d="M66 0v700h111v-700h-111zM189 765l-68 65l-68 -65h-98l110 125h112l110 -125h-98z" />
<glyph unicode="&#xcf;" horiz-adv-x="243" d="M66 0v700h111v-700h-111zM88 833q0 -27 -17.5 -43t-45.5 -16t-45.5 16t-17.5 43t17.5 43t45.5 16t45.5 -16t17.5 -43zM280 833q0 -27 -17.5 -43t-45.5 -16t-45.5 16t-17.5 43t17.5 43t45.5 16t45.5 -16t17.5 -43z" />
<glyph unicode="&#xd0;" horiz-adv-x="579" d="M88 0v311h-58v89h58v300h169q133 0 206.5 -91.5t73.5 -258.5t-73.5 -258.5t-206.5 -91.5h-169zM256 98q81 0 124.5 65.5t43.5 186.5q0 122 -43.5 187t-124.5 65h-57v-202h87v-89h-87v-213h57z" />
<glyph unicode="&#xd1;" horiz-adv-x="556" d="M391 0l-222 474v-474h-103v700h99l222 -474v474h103v-700h-99zM444 890q-3 -64 -26.5 -95.5t-69.5 -31.5q-19 0 -37.5 7t-47.5 26q-30 21 -45 21q-14 0 -20.5 -10.5t-9.5 -38.5h-76q3 64 26.5 95.5t69.5 31.5q19 0 37.5 -7t47.5 -26q30 -21 45 -21q14 0 20.5 10.5 t9.5 38.5h76z" />
<glyph unicode="&#xd2;" horiz-adv-x="568" d="M284 92q60 0 94.5 69.5t34.5 188.5t-34.5 188.5t-94.5 69.5t-94.5 -69.5t-34.5 -188.5t34.5 -188.5t94.5 -69.5zM284 -11q-75 0 -130 44.5t-83.5 125.5t-28.5 191q0 113 30 194.5t84.5 124t127.5 42.5q75 0 130 -44.5t83.5 -125.5t28.5 -191q0 -113 -30 -194.5 t-84.5 -124t-127.5 -42.5zM240 765l-142 125h132l110 -125h-100z" />
<glyph unicode="&#xd3;" horiz-adv-x="568" d="M284 92q60 0 94.5 69.5t34.5 188.5t-34.5 188.5t-94.5 69.5t-94.5 -69.5t-34.5 -188.5t34.5 -188.5t94.5 -69.5zM284 -11q-75 0 -130 44.5t-83.5 125.5t-28.5 191q0 113 30 194.5t84.5 124t127.5 42.5q75 0 130 -44.5t83.5 -125.5t28.5 -191q0 -113 -30 -194.5 t-84.5 -124t-127.5 -42.5zM328 765h-100l110 125h132z" />
<glyph unicode="&#xd4;" horiz-adv-x="568" d="M284 92q60 0 94.5 69.5t34.5 188.5t-34.5 188.5t-94.5 69.5t-94.5 -69.5t-34.5 -188.5t34.5 -188.5t94.5 -69.5zM284 -11q-75 0 -130 44.5t-83.5 125.5t-28.5 191q0 113 30 194.5t84.5 124t127.5 42.5q75 0 130 -44.5t83.5 -125.5t28.5 -191q0 -113 -30 -194.5 t-84.5 -124t-127.5 -42.5zM352 765l-68 65l-68 -65h-98l110 125h112l110 -125h-98z" />
<glyph unicode="&#xd5;" horiz-adv-x="568" d="M284 92q60 0 94.5 69.5t34.5 188.5t-34.5 188.5t-94.5 69.5t-94.5 -69.5t-34.5 -188.5t34.5 -188.5t94.5 -69.5zM284 -11q-75 0 -130 44.5t-83.5 125.5t-28.5 191q0 113 30 194.5t84.5 124t127.5 42.5q75 0 130 -44.5t83.5 -125.5t28.5 -191q0 -113 -30 -194.5 t-84.5 -124t-127.5 -42.5zM450 890q-3 -64 -26.5 -95.5t-69.5 -31.5q-19 0 -37.5 7t-47.5 26q-30 21 -45 21q-14 0 -20.5 -10.5t-9.5 -38.5h-76q3 64 26.5 95.5t69.5 31.5q19 0 37.5 -7t47.5 -26q30 -21 45 -21q14 0 20.5 10.5t9.5 38.5h76z" />
<glyph unicode="&#xd6;" horiz-adv-x="568" d="M284 92q60 0 94.5 69.5t34.5 188.5t-34.5 188.5t-94.5 69.5t-94.5 -69.5t-34.5 -188.5t34.5 -188.5t94.5 -69.5zM284 -11q-75 0 -130 44.5t-83.5 125.5t-28.5 191q0 113 30 194.5t84.5 124t127.5 42.5q75 0 130 -44.5t83.5 -125.5t28.5 -191q0 -113 -30 -194.5 t-84.5 -124t-127.5 -42.5zM251 833q0 -27 -17.5 -43t-45.5 -16t-45.5 16t-17.5 43t17.5 43t45.5 16t45.5 -16t17.5 -43zM443 833q0 -27 -17.5 -43t-45.5 -16t-45.5 16t-17.5 43t17.5 43t45.5 16t45.5 -16t17.5 -43z" />
<glyph unicode="&#xd7;" horiz-adv-x="490" d="M245 284l-127 -127l-62 62l127 126l-127 126l62 62l127 -127l127 127l62 -62l-127 -126l127 -126l-62 -62z" />
<glyph unicode="&#xd8;" horiz-adv-x="568" d="M36 20l56 90q-50 91 -50 240q0 113 30 194.5t84.5 124t127.5 42.5q86 0 146 -58l42 68l60 -41l-56 -90q50 -91 50 -240q0 -113 -30 -194.5t-84.5 -124t-127.5 -42.5q-86 0 -146 58l-42 -68zM284 84q62 0 97.5 71t35.5 195q0 70 -11 127l-212 -340q33 -53 90 -53zM151 350 q0 -70 11 -127l212 340q-33 53 -90 53q-62 0 -97.5 -71t-35.5 -195z" />
<glyph unicode="&#xd9;" horiz-adv-x="540" d="M370 700h111v-460q0 -122 -54.5 -186.5t-156.5 -64.5t-156.5 64.5t-54.5 186.5v460h111v-459q0 -74 25.5 -111.5t74.5 -37.5t74.5 37.5t25.5 111.5v459zM226 765l-142 125h132l110 -125h-100z" />
<glyph unicode="&#xda;" horiz-adv-x="540" d="M370 700h111v-460q0 -122 -54.5 -186.5t-156.5 -64.5t-156.5 64.5t-54.5 186.5v460h111v-459q0 -74 25.5 -111.5t74.5 -37.5t74.5 37.5t25.5 111.5v459zM314 765h-100l110 125h132z" />
<glyph unicode="&#xdb;" horiz-adv-x="540" d="M370 700h111v-460q0 -122 -54.5 -186.5t-156.5 -64.5t-156.5 64.5t-54.5 186.5v460h111v-459q0 -74 25.5 -111.5t74.5 -37.5t74.5 37.5t25.5 111.5v459zM338 765l-68 65l-68 -65h-98l110 125h112l110 -125h-98z" />
<glyph unicode="&#xdc;" horiz-adv-x="540" d="M370 700h111v-460q0 -122 -54.5 -186.5t-156.5 -64.5t-156.5 64.5t-54.5 186.5v460h111v-459q0 -74 25.5 -111.5t74.5 -37.5t74.5 37.5t25.5 111.5v459zM237 833q0 -27 -17.5 -43t-45.5 -16t-45.5 16t-17.5 43t17.5 43t45.5 16t45.5 -16t17.5 -43zM429 833 q0 -27 -17.5 -43t-45.5 -16t-45.5 16t-17.5 43t17.5 43t45.5 16t45.5 -16t17.5 -43z" />
<glyph unicode="&#xdd;" horiz-adv-x="501" d="M195 0v262l-173 438h119l111 -335l111 335h116l-173 -438v-262h-111zM294 765h-100l110 125h132z" />
<glyph unicode="&#xde;" horiz-adv-x="501" d="M66 0v700h111v-115h67q103 0 162.5 -61t59.5 -168t-59.5 -168t-162.5 -61h-67v-127h-111zM177 489v-266h59q57 0 87 34t30 99t-30 99t-87 34h-59z" />
<glyph unicode="&#xdf;" horiz-adv-x="489" d="M209 90q25 -13 57 -13q39 0 63 35.5t24 92.5q0 65 -32 102t-89 37h-25v84h20q40 0 67.5 39t27.5 97q0 50 -21 79t-58 29q-43 0 -63.5 -38t-20.5 -118v-516h-100v516q0 125 46 184.5t142 59.5q81 0 128.5 -49.5t47.5 -134.5q0 -41 -14 -78.5t-37 -64.5t-50 -39 q39 -10 70 -39t47.5 -69.5t16.5 -86.5q0 -94 -46.5 -152t-122.5 -58q-51 0 -95 23z" />
<glyph unicode="&#xe0;" horiz-adv-x="442" d="M308 0l-10 50q-27 -29 -61.5 -45t-70.5 -16q-59 0 -96 42.5t-37 112.5q0 76 43.5 120.5t120.5 44.5h92v35q0 101 -93 101q-53 0 -117 -33l-29 77q38 21 81.5 33.5t82.5 12.5q80 0 126 -46t46 -126v-363h-78zM198 75q47 0 91 41v115h-70q-45 0 -66.5 -19.5t-21.5 -60.5 q0 -37 18 -56.5t49 -19.5zM173 606l-127 150h118l103 -150h-94z" />
<glyph unicode="&#xe1;" horiz-adv-x="442" d="M308 0l-10 50q-27 -29 -61.5 -45t-70.5 -16q-59 0 -96 42.5t-37 112.5q0 76 43.5 120.5t120.5 44.5h92v35q0 101 -93 101q-53 0 -117 -33l-29 77q38 21 81.5 33.5t82.5 12.5q80 0 126 -46t46 -126v-363h-78zM198 75q47 0 91 41v115h-70q-45 0 -66.5 -19.5t-21.5 -60.5 q0 -37 18 -56.5t49 -19.5zM161 606l103 150h118l-127 -150h-94z" />
<glyph unicode="&#xe2;" horiz-adv-x="442" d="M308 0l-10 50q-27 -29 -61.5 -45t-70.5 -16q-59 0 -96 42.5t-37 112.5q0 76 43.5 120.5t120.5 44.5h92v35q0 101 -93 101q-53 0 -117 -33l-29 77q38 21 81.5 33.5t82.5 12.5q80 0 126 -46t46 -126v-363h-78zM198 75q47 0 91 41v115h-70q-45 0 -66.5 -19.5t-21.5 -60.5 q0 -37 18 -56.5t49 -19.5zM279 606l-65 84l-65 -84h-90l103 150h104l103 -150h-90z" />
<glyph unicode="&#xe3;" horiz-adv-x="442" d="M308 0l-10 50q-27 -29 -61.5 -45t-70.5 -16q-59 0 -96 42.5t-37 112.5q0 76 43.5 120.5t120.5 44.5h92v35q0 101 -93 101q-53 0 -117 -33l-29 77q38 21 81.5 33.5t82.5 12.5q80 0 126 -46t46 -126v-363h-78zM198 75q47 0 91 41v115h-70q-45 0 -66.5 -19.5t-21.5 -60.5 q0 -37 18 -56.5t49 -19.5zM375 745q-6 -127 -98 -127q-19 0 -35 7t-44 27q-16 12 -24 16t-15 4q-14 0 -21 -11.5t-10 -39.5h-75q6 127 98 127q19 0 35 -7t44 -27q16 -12 24 -16t15 -4q14 0 21 11.5t10 39.5h75z" />
<glyph unicode="&#xe4;" horiz-adv-x="442" d="M308 0l-10 50q-27 -29 -61.5 -45t-70.5 -16q-59 0 -96 42.5t-37 112.5q0 76 43.5 120.5t120.5 44.5h92v35q0 101 -93 101q-53 0 -117 -33l-29 77q38 21 81.5 33.5t82.5 12.5q80 0 126 -46t46 -126v-363h-78zM198 75q47 0 91 41v115h-70q-45 0 -66.5 -19.5t-21.5 -60.5 q0 -37 18 -56.5t49 -19.5zM184 681q0 -25 -17 -40.5t-44 -15.5t-44 15.5t-17 40.5t17 40.5t44 15.5t44 -15.5t17 -40.5zM366 681q0 -25 -17 -40.5t-44 -15.5t-44 15.5t-17 40.5t17 40.5t44 15.5t44 -15.5t17 -40.5z" />
<glyph unicode="&#xe5;" horiz-adv-x="442" d="M308 0l-10 50q-27 -29 -61.5 -45t-70.5 -16q-59 0 -96 42.5t-37 112.5q0 76 43.5 120.5t120.5 44.5h92v35q0 101 -93 101q-53 0 -117 -33l-29 77q38 21 81.5 33.5t82.5 12.5q80 0 126 -46t46 -126v-363h-78zM198 75q47 0 91 41v115h-70q-45 0 -66.5 -19.5t-21.5 -60.5 q0 -37 18 -56.5t49 -19.5zM214 643q22 0 36.5 14.5t14.5 36.5t-14.5 36.5t-36.5 14.5t-36.5 -14.5t-14.5 -36.5t14.5 -36.5t36.5 -14.5zM214 583q-51 0 -83.5 31t-32.5 80t32.5 80t83.5 31t83.5 -31t32.5 -80t-32.5 -80t-83.5 -31z" />
<glyph unicode="&#xe6;" horiz-adv-x="699" d="M645 26q-30 -17 -68.5 -27t-75.5 -10q-101 0 -158 71q-34 -34 -78.5 -52.5t-89.5 -18.5q-65 0 -103.5 42.5t-38.5 112.5q0 76 43.5 120.5t120.5 44.5h90v35q0 101 -91 101q-53 0 -117 -33l-29 77q38 21 81.5 33.5t82.5 12.5q49 0 83.5 -19t50.5 -55q21 34 56.5 54 t75.5 20q82 0 129 -67.5t47 -183.5q0 -38 -2 -58h-268q7 -72 41.5 -110.5t91.5 -38.5q51 0 100 26zM205 75q58 0 104 46q-20 49 -23 110h-67q-45 0 -66.5 -19.5t-21.5 -60.5q0 -37 19 -56.5t55 -19.5zM477 449q-37 0 -61 -38t-30 -107h173v11q0 60 -22.5 97t-59.5 37z" />
<glyph unicode="&#xe7;" horiz-adv-x="395" d="M377 19q-52 -30 -120 -30q-102 0 -160.5 73t-58.5 200q0 125 59.5 199t159.5 74q60 0 114 -32l-27 -78q-36 18 -71 18q-58 0 -94 -50t-36 -131q0 -82 36.5 -131.5t95.5 -49.5q37 0 75 16zM148 -159q38 -18 68 -18q23 0 35.5 10.5t12.5 29.5q0 41 -65 41h-31l37 98h67 l-20 -53q42 -6 63.5 -29t21.5 -60q0 -45 -30 -71.5t-84 -26.5t-95 25z" />
<glyph unicode="&#xe8;" horiz-adv-x="452" d="M398 26q-30 -17 -68.5 -27t-75.5 -10q-101 0 -158.5 73t-57.5 200q0 82 25 144t68.5 95.5t98.5 33.5q84 0 131.5 -66.5t47.5 -184.5q0 -38 -2 -58h-268q7 -72 41.5 -110.5t91.5 -38.5q51 0 100 26zM230 449q-37 0 -61 -38t-30 -107h173v11q0 60 -22.5 97t-59.5 37z M189 606l-127 150h118l103 -150h-94z" />
<glyph unicode="&#xe9;" horiz-adv-x="452" d="M398 26q-30 -17 -68.5 -27t-75.5 -10q-101 0 -158.5 73t-57.5 200q0 82 25 144t68.5 95.5t98.5 33.5q84 0 131.5 -66.5t47.5 -184.5q0 -38 -2 -58h-268q7 -72 41.5 -110.5t91.5 -38.5q51 0 100 26zM230 449q-37 0 -61 -38t-30 -107h173v11q0 60 -22.5 97t-59.5 37z M177 606l103 150h118l-127 -150h-94z" />
<glyph unicode="&#xea;" horiz-adv-x="452" d="M398 26q-30 -17 -68.5 -27t-75.5 -10q-101 0 -158.5 73t-57.5 200q0 82 25 144t68.5 95.5t98.5 33.5q84 0 131.5 -66.5t47.5 -184.5q0 -38 -2 -58h-268q7 -72 41.5 -110.5t91.5 -38.5q51 0 100 26zM230 449q-37 0 -61 -38t-30 -107h173v11q0 60 -22.5 97t-59.5 37z M295 606l-65 84l-65 -84h-90l103 150h104l103 -150h-90z" />
<glyph unicode="&#xeb;" horiz-adv-x="452" d="M398 26q-30 -17 -68.5 -27t-75.5 -10q-101 0 -158.5 73t-57.5 200q0 82 25 144t68.5 95.5t98.5 33.5q84 0 131.5 -66.5t47.5 -184.5q0 -38 -2 -58h-268q7 -72 41.5 -110.5t91.5 -38.5q51 0 100 26zM230 449q-37 0 -61 -38t-30 -107h173v11q0 60 -22.5 97t-59.5 37z M200 681q0 -25 -17 -40.5t-44 -15.5t-44 15.5t-17 40.5t17 40.5t44 15.5t44 -15.5t17 -40.5zM382 681q0 -25 -17 -40.5t-44 -15.5t-44 15.5t-17 40.5t17 40.5t44 15.5t44 -15.5t17 -40.5z" />
<glyph unicode="&#xec;" horiz-adv-x="226" d="M61 0v524h104v-524h-104zM71 606l-127 150h118l103 -150h-94z" />
<glyph unicode="&#xed;" horiz-adv-x="226" d="M61 0v524h104v-524h-104zM59 606l103 150h118l-127 -150h-94z" />
<glyph unicode="&#xee;" horiz-adv-x="226" d="M61 0v524h104v-524h-104zM177 606l-65 84l-65 -84h-90l103 150h104l103 -150h-90z" />
<glyph unicode="&#xef;" horiz-adv-x="226" d="M61 0v524h104v-524h-104zM82 681q0 -25 -17 -40.5t-44 -15.5t-44 15.5t-17 40.5t17 40.5t44 15.5t44 -15.5t17 -40.5zM264 681q0 -25 -17 -40.5t-44 -15.5t-44 15.5t-17 40.5t17 40.5t44 15.5t44 -15.5t17 -40.5z" />
<glyph unicode="&#xf0;" horiz-adv-x="478" d="M304 668q67 -74 101.5 -173.5t34.5 -219.5q0 -137 -52.5 -211.5t-149.5 -74.5q-61 0 -106.5 33t-69.5 91t-24 132q0 116 52.5 186t138.5 70q33 0 61.5 -17t49.5 -47q-31 103 -106 177l-92 -72l-35 45l84 65q-33 26 -79 53l45 74q56 -29 106 -71l84 66l35 -45zM239 80 q44 0 70 44.5t26 120.5t-26 120.5t-70 44.5t-70 -44.5t-26 -120.5t26 -120.5t70 -44.5z" />
<glyph unicode="&#xf1;" horiz-adv-x="488" d="M328 0v353q0 88 -71 88q-46 0 -92 -42v-399h-104v524h87l9 -54q32 32 68 48.5t72 16.5q65 0 100 -44t35 -128v-363h-104zM407 745q-6 -127 -98 -127q-19 0 -35 7t-44 27q-16 12 -24 16t-15 4q-14 0 -21 -11.5t-10 -39.5h-75q6 127 98 127q19 0 35 -7t44 -27 q16 -12 24 -16t15 -4q14 0 21 11.5t10 39.5h75z" />
<glyph unicode="&#xf2;" horiz-adv-x="478" d="M239 -11q-94 0 -147.5 73t-53.5 200t53.5 200t147.5 73t147.5 -73t53.5 -200t-53.5 -200t-147.5 -73zM239 80q45 0 70.5 48.5t25.5 133.5t-25.5 133.5t-70.5 48.5t-70.5 -48.5t-25.5 -133.5t25.5 -133.5t70.5 -48.5zM198 606l-127 150h118l103 -150h-94z" />
<glyph unicode="&#xf3;" horiz-adv-x="478" d="M239 -11q-94 0 -147.5 73t-53.5 200t53.5 200t147.5 73t147.5 -73t53.5 -200t-53.5 -200t-147.5 -73zM239 80q45 0 70.5 48.5t25.5 133.5t-25.5 133.5t-70.5 48.5t-70.5 -48.5t-25.5 -133.5t25.5 -133.5t70.5 -48.5zM186 606l103 150h118l-127 -150h-94z" />
<glyph unicode="&#xf4;" horiz-adv-x="478" d="M239 -11q-94 0 -147.5 73t-53.5 200t53.5 200t147.5 73t147.5 -73t53.5 -200t-53.5 -200t-147.5 -73zM239 80q45 0 70.5 48.5t25.5 133.5t-25.5 133.5t-70.5 48.5t-70.5 -48.5t-25.5 -133.5t25.5 -133.5t70.5 -48.5zM304 606l-65 84l-65 -84h-90l103 150h104l103 -150 h-90z" />
<glyph unicode="&#xf5;" horiz-adv-x="478" d="M239 -11q-94 0 -147.5 73t-53.5 200t53.5 200t147.5 73t147.5 -73t53.5 -200t-53.5 -200t-147.5 -73zM239 80q45 0 70.5 48.5t25.5 133.5t-25.5 133.5t-70.5 48.5t-70.5 -48.5t-25.5 -133.5t25.5 -133.5t70.5 -48.5zM400 745q-6 -127 -98 -127q-19 0 -35 7t-44 27 q-16 12 -24 16t-15 4q-14 0 -21 -11.5t-10 -39.5h-75q6 127 98 127q19 0 35 -7t44 -27q16 -12 24 -16t15 -4q14 0 21 11.5t10 39.5h75z" />
<glyph unicode="&#xf6;" horiz-adv-x="478" d="M239 -11q-94 0 -147.5 73t-53.5 200t53.5 200t147.5 73t147.5 -73t53.5 -200t-53.5 -200t-147.5 -73zM239 80q45 0 70.5 48.5t25.5 133.5t-25.5 133.5t-70.5 48.5t-70.5 -48.5t-25.5 -133.5t25.5 -133.5t70.5 -48.5zM209 681q0 -25 -17 -40.5t-44 -15.5t-44 15.5 t-17 40.5t17 40.5t44 15.5t44 -15.5t17 -40.5zM391 681q0 -25 -17 -40.5t-44 -15.5t-44 15.5t-17 40.5t17 40.5t44 15.5t44 -15.5t17 -40.5z" />
<glyph unicode="&#xf7;" horiz-adv-x="490" d="M303 185q0 -24 -16.5 -39.5t-41.5 -15.5t-41.5 15.5t-16.5 39.5t16.5 39.5t41.5 15.5t41.5 -15.5t16.5 -39.5zM55 302v86h380v-86h-380zM303 505q0 -24 -16.5 -39.5t-41.5 -15.5t-41.5 15.5t-16.5 39.5t16.5 39.5t41.5 15.5t41.5 -15.5t16.5 -39.5z" />
<glyph unicode="&#xf8;" horiz-adv-x="478" d="M29 18l47 68q-38 68 -38 176q0 127 53.5 200t147.5 73q71 0 120 -43l36 51l54 -37l-47 -68q38 -68 38 -176q0 -127 -53.5 -200t-147.5 -73q-71 0 -120 43l-36 -51zM134 262q0 -49 7 -83l166 238q-26 35 -68 35q-49 0 -77 -51t-28 -139zM239 72q49 0 77 51t28 139 q0 49 -7 83l-166 -238q26 -35 68 -35z" />
<glyph unicode="&#xf9;" horiz-adv-x="482" d="M334 0l-9 49q-62 -60 -135 -60q-64 0 -99 44.5t-35 127.5v363h104v-353q0 -43 17.5 -65.5t52.5 -22.5q43 0 87 37v404h104v-524h-87zM197 606l-127 150h118l103 -150h-94z" />
<glyph unicode="&#xfa;" horiz-adv-x="482" d="M334 0l-9 49q-62 -60 -135 -60q-64 0 -99 44.5t-35 127.5v363h104v-353q0 -43 17.5 -65.5t52.5 -22.5q43 0 87 37v404h104v-524h-87zM185 606l103 150h118l-127 -150h-94z" />
<glyph unicode="&#xfb;" horiz-adv-x="482" d="M334 0l-9 49q-62 -60 -135 -60q-64 0 -99 44.5t-35 127.5v363h104v-353q0 -43 17.5 -65.5t52.5 -22.5q43 0 87 37v404h104v-524h-87zM303 606l-65 84l-65 -84h-90l103 150h104l103 -150h-90z" />
<glyph unicode="&#xfc;" horiz-adv-x="482" d="M334 0l-9 49q-62 -60 -135 -60q-64 0 -99 44.5t-35 127.5v363h104v-353q0 -43 17.5 -65.5t52.5 -22.5q43 0 87 37v404h104v-524h-87zM208 681q0 -25 -17 -40.5t-44 -15.5t-44 15.5t-17 40.5t17 40.5t44 15.5t44 -15.5t17 -40.5zM390 681q0 -25 -17 -40.5t-44 -15.5 t-44 15.5t-17 40.5t17 40.5t44 15.5t44 -15.5t17 -40.5z" />
<glyph unicode="&#xfd;" horiz-adv-x="436" d="M30 -126q29 -9 49 -9q33 0 53 27t43 102l-158 530h110l94 -392l91 392h107l-160 -555q-31 -107 -68.5 -151t-97.5 -44q-47 0 -82 20zM165 606l103 150h118l-127 -150h-94z" />
<glyph unicode="&#xfe;" horiz-adv-x="482" d="M165 750v-264q23 24 50 36.5t56 12.5q80 0 126.5 -73.5t46.5 -199.5q0 -84 -22.5 -145.5t-62.5 -94.5t-93 -33q-57 0 -101 43v-248h-104v966h104zM243 444q-43 0 -78 -38v-292q34 -34 78 -34q45 0 70.5 48.5t25.5 133.5t-25.5 133.5t-70.5 48.5z" />
<glyph unicode="&#xff;" horiz-adv-x="436" d="M30 -126q29 -9 49 -9q33 0 53 27t43 102l-158 530h110l94 -392l91 392h107l-160 -555q-31 -107 -68.5 -151t-97.5 -44q-47 0 -82 20zM188 681q0 -25 -17 -40.5t-44 -15.5t-44 15.5t-17 40.5t17 40.5t44 15.5t44 -15.5t17 -40.5zM370 681q0 -25 -17 -40.5t-44 -15.5 t-44 15.5t-17 40.5t17 40.5t44 15.5t44 -15.5t17 -40.5z" />
<glyph unicode="&#x102;" horiz-adv-x="549" d="M418 0l-43 167h-205l-42 -167h-110l201 700h111l201 -700h-113zM273 571l-78 -309h156zM419 894q-3 -62 -42.5 -98t-102.5 -36t-102.5 36t-42.5 98h77q6 -31 23.5 -47.5t44.5 -16.5t44.5 16.5t23.5 47.5h77z" />
<glyph unicode="&#x103;" horiz-adv-x="442" d="M308 0l-10 50q-27 -29 -61.5 -45t-70.5 -16q-59 0 -96 42.5t-37 112.5q0 76 43.5 120.5t120.5 44.5h92v35q0 101 -93 101q-53 0 -117 -33l-29 77q38 21 81.5 33.5t82.5 12.5q80 0 126 -46t46 -126v-363h-78zM198 75q47 0 91 41v115h-70q-45 0 -66.5 -19.5t-21.5 -60.5 q0 -37 18 -56.5t49 -19.5zM354 740q-3 -63 -40.5 -100t-99.5 -37t-99.5 37t-40.5 100h72q6 -32 23.5 -48.5t44.5 -16.5t44.5 16.5t23.5 48.5h72z" />
<glyph unicode="&#x131;" horiz-adv-x="226" d="M61 0v524h104v-524h-104z" />
<glyph unicode="&#x132;" horiz-adv-x="612" d="M66 0v700h111v-700h-111zM280 109q42 -17 78 -17q45 0 64.5 30t19.5 101v477h111v-484q0 -116 -43 -171.5t-133 -55.5q-63 0 -123 30z" />
<glyph unicode="&#x133;" horiz-adv-x="452" d="M61 0v524h104v-524h-104zM178 676q0 -28 -18 -45t-47 -17t-47 17t-18 45t18 45t47 17t47 -17t18 -45zM200 -127q20 -7 38 -7q25 0 37 18.5t12 58.5v581h104v-580q0 -87 -32.5 -128.5t-99.5 -41.5q-39 0 -78 17zM404 676q0 -28 -18 -45t-47 -17t-47 17t-18 45t18 45t47 17 t47 -17t18 -45z" />
<glyph unicode="&#x152;" horiz-adv-x="795" d="M520 305v-209h237v-96h-332v77q-26 -43 -65 -65.5t-88 -22.5q-106 0 -168 97t-62 264t62 264t168 97q99 0 153 -89v78h324v-96h-229v-203h185v-96h-185zM284 92q60 0 94.5 69.5t34.5 188.5t-34.5 188.5t-94.5 69.5t-94.5 -69.5t-34.5 -188.5t34.5 -188.5t94.5 -69.5z" />
<glyph unicode="&#x153;" horiz-adv-x="745" d="M691 26q-30 -17 -68.5 -27t-75.5 -10q-110 0 -165 93q-50 -93 -147 -93q-62 0 -106.5 34t-67.5 95.5t-23 143.5q0 126 53 199.5t144 73.5q95 0 147 -93q53 93 145 93q82 0 128.5 -67t46.5 -184q0 -38 -2 -58h-268q7 -72 41.5 -110.5t91.5 -38.5q51 0 100 26zM239 80 q45 0 70.5 48.5t25.5 133.5t-25.5 133.5t-70.5 48.5t-70.5 -48.5t-25.5 -133.5t25.5 -133.5t70.5 -48.5zM523 449q-37 0 -61 -38t-30 -107h173v11q0 60 -22.5 97t-59.5 37z" />
<glyph unicode="&#x15e;" horiz-adv-x="453" d="M52 128q35 -20 67.5 -29t70.5 -9q52 0 82 27t30 75q0 40 -22 66t-75 49l-23 10q-137 59 -137 194q0 91 55.5 145.5t149.5 54.5q77 0 148 -41l-26 -88q-54 28 -111 28q-47 0 -75 -24.5t-28 -66.5q0 -40 22 -66t75 -49l23 -10q137 -59 137 -194q0 -98 -57.5 -154.5 t-157.5 -56.5q-102 0 -174 51zM129 -157q36 -18 69 -18q22 0 34 10t12 28q0 40 -64 40h-32l37 99h69l-20 -52q42 -6 63.5 -28.5t21.5 -60.5q0 -46 -30 -72.5t-84 -26.5q-52 0 -97 25z" />
<glyph unicode="&#x15f;" horiz-adv-x="393" d="M50 110q68 -33 125 -33q40 0 63 18.5t23 49.5q0 24 -16.5 41.5t-55.5 32.5l-31 12q-61 24 -89 59t-28 88q0 72 47.5 114.5t125.5 42.5q63 0 135 -32l-27 -78q-47 22 -96 22q-40 0 -62 -16.5t-22 -46.5q0 -24 16.5 -41.5t55.5 -32.5l31 -12q61 -24 89 -59t28 -88 q0 -74 -48.5 -118t-131.5 -44q-82 0 -159 43zM100 -159q38 -18 68 -18q23 0 35.5 10.5t12.5 29.5q0 41 -65 41h-31l37 98h67l-20 -53q42 -6 63.5 -29t21.5 -60q0 -45 -30 -71.5t-84 -26.5t-95 25z" />
<glyph unicode="&#x160;" horiz-adv-x="453" d="M52 128q35 -20 67.5 -29t70.5 -9q52 0 82 27t30 75q0 40 -22 66t-75 49l-23 10q-137 59 -137 194q0 91 55.5 145.5t149.5 54.5q77 0 148 -41l-26 -88q-54 28 -111 28q-47 0 -75 -24.5t-28 -66.5q0 -40 22 -66t75 -49l23 -10q137 -59 137 -194q0 -98 -57.5 -154.5 t-157.5 -56.5q-102 0 -174 51zM191 765l-110 125h98l68 -65l68 65h98l-110 -125h-112z" />
<glyph unicode="&#x161;" horiz-adv-x="393" d="M50 110q68 -33 125 -33q40 0 63 18.5t23 49.5q0 24 -16.5 41.5t-55.5 32.5l-31 12q-61 24 -89 59t-28 88q0 72 47.5 114.5t125.5 42.5q63 0 135 -32l-27 -78q-47 22 -96 22q-40 0 -62 -16.5t-22 -46.5q0 -24 16.5 -41.5t55.5 -32.5l31 -12q61 -24 89 -59t28 -88 q0 -74 -48.5 -118t-131.5 -44q-82 0 -159 43zM157 606l-103 150h90l65 -84l65 84h90l-103 -150h-104z" />
<glyph unicode="&#x162;" horiz-adv-x="499" d="M194 0v600h-166v100h443v-100h-166v-600h-111zM160 -157q36 -18 69 -18q22 0 34 10t12 28q0 40 -64 40h-32l37 99h69l-20 -52q42 -6 63.5 -28.5t21.5 -60.5q0 -46 -30 -72.5t-84 -26.5q-52 0 -97 25z" />
<glyph unicode="&#x163;" horiz-adv-x="350" d="M335 16q-51 -27 -108 -27q-74 0 -108 42.5t-34 136.5v273h-71v83h75l18 143h82v-143h125v-83h-125v-264q0 -51 13.5 -73.5t46.5 -22.5q32 0 63 15zM117 -159q38 -18 68 -18q23 0 35.5 10.5t12.5 29.5q0 41 -65 41h-31l37 98h67l-20 -53q42 -6 63.5 -29t21.5 -60 q0 -45 -30 -71.5t-84 -26.5t-95 25z" />
<glyph unicode="&#x174;" horiz-adv-x="724" d="M456 0l-94 451l-94 -451h-114l-120 700h109l76 -521l98 461h93l98 -460l74 520h108l-120 -700h-114zM430 765l-68 65l-68 -65h-98l110 125h112l110 -125h-98z" />
<glyph unicode="&#x175;" horiz-adv-x="648" d="M402 0l-78 361l-78 -361h-95l-130 524h106l73 -390l80 371h91l79 -371l74 390h103l-130 -524h-95zM389 606l-65 84l-65 -84h-90l103 150h104l103 -150h-90z" />
<glyph unicode="&#x176;" horiz-adv-x="501" d="M195 0v262l-173 438h119l111 -335l111 335h116l-173 -438v-262h-111zM318 765l-68 65l-68 -65h-98l110 125h112l110 -125h-98z" />
<glyph unicode="&#x177;" horiz-adv-x="436" d="M30 -126q29 -9 49 -9q33 0 53 27t43 102l-158 530h110l94 -392l91 392h107l-160 -555q-31 -107 -68.5 -151t-97.5 -44q-47 0 -82 20zM283 606l-65 84l-65 -84h-90l103 150h104l103 -150h-90z" />
<glyph unicode="&#x178;" horiz-adv-x="501" d="M195 0v262l-173 438h119l111 -335l111 335h116l-173 -438v-262h-111zM217 833q0 -27 -17.5 -43t-45.5 -16t-45.5 16t-17.5 43t17.5 43t45.5 16t45.5 -16t17.5 -43zM409 833q0 -27 -17.5 -43t-45.5 -16t-45.5 16t-17.5 43t17.5 43t45.5 16t45.5 -16t17.5 -43z" />
<glyph unicode="&#x17d;" horiz-adv-x="463" d="M28 0v94l272 506h-259v100h383v-94l-272 -506h283v-100h-407zM176 765l-110 125h98l68 -65l68 65h98l-110 -125h-112z" />
<glyph unicode="&#x17e;" horiz-adv-x="390" d="M28 0v77l218 364h-211v83h320v-77l-218 -364h225v-83h-334zM143 606l-103 150h90l65 -84l65 84h90l-103 -150h-104z" />
<glyph unicode="&#x218;" horiz-adv-x="453" d="M52 128q35 -20 67.5 -29t70.5 -9q52 0 82 27t30 75q0 40 -22 66t-75 49l-23 10q-137 59 -137 194q0 91 55.5 145.5t149.5 54.5q77 0 148 -41l-26 -88q-54 28 -111 28q-47 0 -75 -24.5t-28 -66.5q0 -40 22 -66t75 -49l23 -10q137 -59 137 -194q0 -98 -57.5 -154.5 t-157.5 -56.5q-102 0 -174 51zM158 -246q39 42 50 80q-21 4 -32.5 17.5t-11.5 33.5q0 24 15.5 39.5t39.5 15.5q27 0 44 -19.5t17 -49.5q0 -38 -22.5 -77.5t-64.5 -74.5z" />
<glyph unicode="&#x219;" horiz-adv-x="393" d="M50 110q68 -33 125 -33q40 0 63 18.5t23 49.5q0 24 -16.5 41.5t-55.5 32.5l-31 12q-61 24 -89 59t-28 88q0 72 47.5 114.5t125.5 42.5q63 0 135 -32l-27 -78q-47 22 -96 22q-40 0 -62 -16.5t-22 -46.5q0 -24 16.5 -41.5t55.5 -32.5l31 -12q61 -24 89 -59t28 -88 q0 -74 -48.5 -118t-131.5 -44q-82 0 -159 43zM130 -245q41 46 50 82q-21 4 -32.5 17t-11.5 32q0 24 15 39t39 15q27 0 43.5 -19t16.5 -48q0 -78 -86 -152z" />
<glyph unicode="&#x21a;" horiz-adv-x="499" d="M194 0v600h-166v100h443v-100h-166v-600h-111zM189 -246q39 42 50 80q-21 4 -32.5 17.5t-11.5 33.5q0 24 15.5 39.5t39.5 15.5q27 0 44 -19.5t17 -49.5q0 -38 -22.5 -77.5t-64.5 -74.5z" />
<glyph unicode="&#x21b;" horiz-adv-x="350" d="M335 16q-51 -27 -108 -27q-74 0 -108 42.5t-34 136.5v273h-71v83h75l18 143h82v-143h125v-83h-125v-264q0 -51 13.5 -73.5t46.5 -22.5q32 0 63 15zM147 -245q41 46 50 82q-21 4 -32.5 17t-11.5 32q0 24 15 39t39 15q27 0 43.5 -19t16.5 -48q0 -78 -86 -152z" />
<glyph unicode="&#x237;" horiz-adv-x="226" d="M-26 -127q20 -7 38 -7q25 0 37 18.5t12 58.5v581h104v-580q0 -87 -32.5 -128.5t-99.5 -41.5q-39 0 -78 17z" />
<glyph unicode="&#x2c6;" horiz-adv-x="488" d="M309 606l-65 84l-65 -84h-90l103 150h104l103 -150h-90z" />
<glyph unicode="&#x2c7;" horiz-adv-x="488" d="M192 606l-103 150h90l65 -84l65 84h90l-103 -150h-104z" />
<glyph unicode="&#x2cb;" horiz-adv-x="488" d="M260 606l-127 150h118l103 -150h-94z" />
<glyph unicode="&#x2d8;" horiz-adv-x="488" d="M384 740q-3 -63 -40.5 -100t-99.5 -37t-99.5 37t-40.5 100h72q6 -32 23.5 -48.5t44.5 -16.5t44.5 16.5t23.5 48.5h72z" />
<glyph unicode="&#x2da;" horiz-adv-x="488" d="M244 643q22 0 36.5 14.5t14.5 36.5t-14.5 36.5t-36.5 14.5t-36.5 -14.5t-14.5 -36.5t14.5 -36.5t36.5 -14.5zM244 583q-51 0 -83.5 31t-32.5 80t32.5 80t83.5 31t83.5 -31t32.5 -80t-32.5 -80t-83.5 -31z" />
<glyph unicode="&#x2dc;" horiz-adv-x="488" d="M405 745q-6 -127 -98 -127q-19 0 -35 7t-44 27q-16 12 -24 16t-15 4q-14 0 -21 -11.5t-10 -39.5h-75q6 127 98 127q19 0 35 -7t44 -27q16 -12 24 -16t15 -4q14 0 21 11.5t10 39.5h75z" />
<glyph unicode="&#x300;" horiz-adv-x="0" d="M-41 606l-127 150h118l103 -150h-94z" />
<glyph unicode="&#x301;" horiz-adv-x="0" d="M-53 606l103 150h118l-127 -150h-94z" />
<glyph unicode="&#x302;" horiz-adv-x="0" d="M65 606l-65 84l-65 -84h-90l103 150h104l103 -150h-90z" />
<glyph unicode="&#x303;" horiz-adv-x="0" d="M161 745q-6 -127 -98 -127q-19 0 -35 7t-44 27q-16 12 -24 16t-15 4q-14 0 -21 -11.5t-10 -39.5h-75q6 127 98 127q19 0 35 -7t44 -27q16 -12 24 -16t15 -4q14 0 21 11.5t10 39.5h75z" />
<glyph unicode="&#x306;" horiz-adv-x="0" d="M140 740q-3 -63 -40.5 -100t-99.5 -37t-99.5 37t-40.5 100h72q6 -32 23.5 -48.5t44.5 -16.5t44.5 16.5t23.5 48.5h72z" />
<glyph unicode="&#x308;" horiz-adv-x="0" d="M-30 681q0 -25 -17 -40.5t-44 -15.5t-44 15.5t-17 40.5t17 40.5t44 15.5t44 -15.5t17 -40.5zM152 681q0 -25 -17 -40.5t-44 -15.5t-44 15.5t-17 40.5t17 40.5t44 15.5t44 -15.5t17 -40.5z" />
<glyph unicode="&#x30a;" horiz-adv-x="0" d="M0 643q22 0 36.5 14.5t14.5 36.5t-14.5 36.5t-36.5 14.5t-36.5 -14.5t-14.5 -36.5t14.5 -36.5t36.5 -14.5zM0 583q-51 0 -83.5 31t-32.5 80t32.5 80t83.5 31t83.5 -31t32.5 -80t-32.5 -80t-83.5 -31z" />
<glyph unicode="&#x30c;" horiz-adv-x="0" d="M-52 606l-103 150h90l65 -84l65 84h90l-103 -150h-104z" />
<glyph unicode="&#x326;" horiz-adv-x="0" d="M-60 -245q41 46 50 82q-21 4 -32.5 17t-11.5 32q0 24 15 39t39 15q27 0 43.5 -19t16.5 -48q0 -78 -86 -152z" />
<glyph unicode="&#x327;" horiz-adv-x="0" d="M-90 -159q38 -18 68 -18q23 0 35.5 10.5t12.5 29.5q0 41 -65 41h-31l37 98h67l-20 -53q42 -6 63.5 -29t21.5 -60q0 -45 -30 -71.5t-84 -26.5t-95 25z" />
<glyph unicode="&#x1e80;" horiz-adv-x="724" d="M456 0l-94 451l-94 -451h-114l-120 700h109l76 -521l98 461h93l98 -460l74 520h108l-120 -700h-114zM318 765l-142 125h132l110 -125h-100z" />
<glyph unicode="&#x1e81;" horiz-adv-x="648" d="M402 0l-78 361l-78 -361h-95l-130 524h106l73 -390l80 371h91l79 -371l74 390h103l-130 -524h-95zM283 606l-127 150h118l103 -150h-94z" />
<glyph unicode="&#x1e82;" horiz-adv-x="724" d="M456 0l-94 451l-94 -451h-114l-120 700h109l76 -521l98 461h93l98 -460l74 520h108l-120 -700h-114zM406 765h-100l110 125h132z" />
<glyph unicode="&#x1e83;" horiz-adv-x="648" d="M402 0l-78 361l-78 -361h-95l-130 524h106l73 -390l80 371h91l79 -371l74 390h103l-130 -524h-95zM271 606l103 150h118l-127 -150h-94z" />
<glyph unicode="&#x1e84;" horiz-adv-x="724" d="M456 0l-94 451l-94 -451h-114l-120 700h109l76 -521l98 461h93l98 -460l74 520h108l-120 -700h-114zM329 833q0 -27 -17.5 -43t-45.5 -16t-45.5 16t-17.5 43t17.5 43t45.5 16t45.5 -16t17.5 -43zM521 833q0 -27 -17.5 -43t-45.5 -16t-45.5 16t-17.5 43t17.5 43t45.5 16 t45.5 -16t17.5 -43z" />
<glyph unicode="&#x1e85;" horiz-adv-x="648" d="M402 0l-78 361l-78 -361h-95l-130 524h106l73 -390l80 371h91l79 -371l74 390h103l-130 -524h-95zM294 681q0 -25 -17 -40.5t-44 -15.5t-44 15.5t-17 40.5t17 40.5t44 15.5t44 -15.5t17 -40.5zM476 681q0 -25 -17 -40.5t-44 -15.5t-44 15.5t-17 40.5t17 40.5t44 15.5 t44 -15.5t17 -40.5z" />
<glyph unicode="&#x1e9e;" horiz-adv-x="557" d="M246 105q38 -19 70 -19q46 0 72.5 32t26.5 85q0 56 -30 86.5t-86 30.5q-15 0 -32 -2v82l128 180q-46 28 -99 28q-67 0 -99 -41.5t-32 -127.5v-439h-106v447q0 129 58 196.5t168 67.5q107 0 202 -71v-88l-113 -159q70 -14 110 -66.5t40 -129.5q0 -92 -53.5 -150 t-137.5 -58q-58 0 -115 31z" />
<glyph unicode="&#x1ef2;" horiz-adv-x="501" d="M195 0v262l-173 438h119l111 -335l111 335h116l-173 -438v-262h-111zM206 765l-142 125h132l110 -125h-100z" />
<glyph unicode="&#x1ef3;" horiz-adv-x="436" d="M30 -126q29 -9 49 -9q33 0 53 27t43 102l-158 530h110l94 -392l91 392h107l-160 -555q-31 -107 -68.5 -151t-97.5 -44q-47 0 -82 20zM177 606l-127 150h118l103 -150h-94z" />
<glyph unicode="&#x2000;" horiz-adv-x="370" />
<glyph unicode="&#x2001;" horiz-adv-x="740" />
<glyph unicode="&#x2002;" horiz-adv-x="370" />
<glyph unicode="&#x2003;" horiz-adv-x="740" />
<glyph unicode="&#x2004;" horiz-adv-x="247" />
<glyph unicode="&#x2005;" horiz-adv-x="185" />
<glyph unicode="&#x2006;" horiz-adv-x="123" />
<glyph unicode="&#x2007;" horiz-adv-x="490" />
<glyph unicode="&#x2008;" horiz-adv-x="212" />
<glyph unicode="&#x2009;" horiz-adv-x="148" />
<glyph unicode="&#x200a;" horiz-adv-x="55" />
<glyph unicode="&#x200b;" horiz-adv-x="0" />
<glyph unicode="&#x2013;" horiz-adv-x="370" d="M0 236v82h370v-82h-370z" />
<glyph unicode="&#x2014;" horiz-adv-x="740" d="M0 236v82h740v-82h-740z" />
<glyph unicode="&#x2018;" horiz-adv-x="183" d="M169 685q-30 -27 -46.5 -51t-22.5 -49q23 -2 37.5 -18.5t14.5 -38.5q0 -24 -17.5 -40.5t-42.5 -16.5q-29 0 -46.5 20t-17.5 52q0 45 29 92.5t80 85.5z" />
<glyph unicode="&#x2019;" horiz-adv-x="183" d="M14 497q30 27 46.5 51t22.5 49q-23 2 -37.5 18.5t-14.5 38.5q0 24 17.5 40.5t42.5 16.5q29 0 46.5 -20t17.5 -52q0 -45 -29 -92.5t-80 -85.5z" />
<glyph unicode="&#x201a;" horiz-adv-x="183" d="M14 -105q30 27 46.5 51t22.5 49q-23 2 -37.5 18.5t-14.5 38.5q0 24 17.5 40.5t42.5 16.5q29 0 46.5 -20t17.5 -52q0 -45 -29 -92.5t-80 -85.5z" />
<glyph unicode="&#x201c;" horiz-adv-x="347" d="M169 685q-30 -27 -46.5 -51t-22.5 -49q23 -2 37.5 -18.5t14.5 -38.5q0 -24 -17.5 -40.5t-42.5 -16.5q-29 0 -46.5 20t-17.5 52q0 45 29 92.5t80 85.5zM333 685q-30 -27 -46.5 -51t-22.5 -49q23 -2 37.5 -18.5t14.5 -38.5q0 -24 -17.5 -40.5t-42.5 -16.5q-29 0 -46.5 20 t-17.5 52q0 45 29 92.5t80 85.5z" />
<glyph unicode="&#x201d;" horiz-adv-x="347" d="M14 497q30 27 46.5 51t22.5 49q-23 2 -37.5 18.5t-14.5 38.5q0 24 17.5 40.5t42.5 16.5q29 0 46.5 -20t17.5 -52q0 -45 -29 -92.5t-80 -85.5zM178 497q30 27 46.5 51t22.5 49q-23 2 -37.5 18.5t-14.5 38.5q0 24 17.5 40.5t42.5 16.5q29 0 46.5 -20t17.5 -52 q0 -45 -29 -92.5t-80 -85.5z" />
<glyph unicode="&#x201e;" horiz-adv-x="347" d="M14 -105q30 27 46.5 51t22.5 49q-23 2 -37.5 18.5t-14.5 38.5q0 24 17.5 40.5t42.5 16.5q29 0 46.5 -20t17.5 -52q0 -45 -29 -92.5t-80 -85.5zM178 -105q30 27 46.5 51t22.5 49q-23 2 -37.5 18.5t-14.5 38.5q0 24 17.5 40.5t42.5 16.5q29 0 46.5 -20t17.5 -52 q0 -45 -29 -92.5t-80 -85.5z" />
<glyph unicode="&#x2020;" horiz-adv-x="414" d="M156 -116v536h-121v89h121v221h102v-221h121v-89h-121v-536h-102z" />
<glyph unicode="&#x2021;" horiz-adv-x="414" d="M156 -116v221h-121v89h121v226h-121v89h121v221h102v-221h121v-89h-121v-226h121v-89h-121v-221h-102z" />
<glyph unicode="&#x2022;" horiz-adv-x="276" d="M246 288q0 -45 -31 -75t-77 -30t-77 30t-31 75t31 75t77 30t77 -30t31 -75z" />
<glyph unicode="&#x2026;" horiz-adv-x="740" d="M190 52q0 -27 -19 -45t-48 -18t-48 18t-19 45t19 45t48 18t48 -18t19 -45zM437 52q0 -27 -19 -45t-48 -18t-48 18t-19 45t19 45t48 18t48 -18t19 -45zM684 52q0 -27 -19 -45t-48 -18t-48 18t-19 45t19 45t48 18t48 -18t19 -45z" />
<glyph unicode="&#x2032;" horiz-adv-x="203" d="M28 462l42 238h108l-69 -238h-81z" />
<glyph unicode="&#x2033;" horiz-adv-x="377" d="M28 462l42 238h108l-69 -238h-81zM202 462l42 238h108l-69 -238h-81z" />
<glyph unicode="&#x2039;" horiz-adv-x="258" d="M134 96l-116 184l116 184h100l-116 -184l116 -184h-100z" />
<glyph unicode="&#x203a;" horiz-adv-x="258" d="M24 96l116 184l-116 184h100l116 -184l-116 -184h-100z" />
<glyph unicode="&#x2044;" horiz-adv-x="93" d="M-170 0l345 690h88l-345 -690h-88z" />
<glyph unicode="&#x2070;" d="M231 623q0 64 -12.5 94t-39.5 30t-39.5 -30t-12.5 -94v-16q0 -64 12.5 -94t39.5 -30t39.5 30t12.5 94v16zM318 607q0 -93 -37 -145t-102 -52t-102 52t-37 145v16q0 93 37 145t102 52t102 -52t37 -145v-16z" />
<glyph unicode="&#x2074;" d="M201 420v73h-167v70l166 247h81v-249h39v-68h-39v-73h-80zM201 561v135l-91 -135h91z" />
<glyph unicode="&#x2075;" d="M277 736h-129l-4 -76h25q59 0 93.5 -34t34.5 -91q0 -60 -37.5 -92.5t-105.5 -32.5q-59 0 -107 29l22 63q39 -21 75 -21q32 0 50 14.5t18 40.5q0 29 -17.5 44.5t-51.5 15.5q-55 0 -74 -1l12 215h196v-74z" />
<glyph unicode="&#x2076;" d="M279 733q-33 18 -67 18q-37 0 -57 -21.5t-25 -66.5q37 5 64 5q57 0 91 -33.5t34 -90.5q0 -60 -37 -97t-95 -37q-68 0 -105 47.5t-37 134.5v15q0 103 41.5 158t118.5 55q55 0 95 -23zM128 584q0 -52 14.5 -77.5t44.5 -25.5q51 0 51 62q0 32 -15.5 47.5t-48.5 15.5 q-14 0 -46 -4v-18z" />
<glyph unicode="&#x2077;" d="M98 420v5q0 58 20.5 115.5t77.5 157.5l22 38h-157v74h241v-69l-34 -63q-44 -82 -64 -140.5t-20 -107.5v-10h-86z" />
<glyph unicode="&#x2078;" d="M40 521q0 33 17.5 58t49.5 38q-55 31 -55 92q0 50 34.5 80.5t91.5 30.5q54 0 90 -30t36 -75q0 -28 -14 -50.5t-41 -35.5q35 -17 52 -41t17 -57q0 -55 -38.5 -88t-102.5 -33q-63 0 -100 30t-37 81zM162 594q-41 -21 -41 -68q0 -27 14.5 -41t41.5 -14t42 15t15 44 q0 22 -11.5 36.5t-33.5 20.5zM135 709q0 -22 10 -35.5t32 -19.5l15 -4q15 11 23.5 26t8.5 33q0 22 -12.5 36t-33.5 14q-19 0 -31 -14t-12 -36z" />
<glyph unicode="&#x2079;" d="M313 623q0 -103 -41.5 -158t-118.5 -55q-27 0 -54.5 6t-46.5 17l21 64q33 -18 73 -18q37 0 56.5 21.5t25.5 66.5q-38 -5 -64 -5q-57 0 -91 33.5t-34 90.5q0 59 36.5 96.5t95.5 37.5q68 0 105 -47.5t37 -134.5v-15zM184 624q21 0 46 3v19q0 52 -14.5 77.5t-44.5 25.5 q-51 0 -51 -62q0 -32 15.5 -47.5t48.5 -15.5z" />
<glyph unicode="&#x2080;" d="M231 83q0 64 -12.5 94t-39.5 30t-39.5 -30t-12.5 -94v-16q0 -64 12.5 -94t39.5 -30t39.5 30t12.5 94v16zM318 67q0 -93 -37 -145t-102 -52t-102 52t-37 145v16q0 93 37 145t102 52t102 -52t37 -145v-16z" />
<glyph unicode="&#x2081;" d="M168 -120v282l-63 -53l-45 59l120 102h74v-390h-86z" />
<glyph unicode="&#x2082;" d="M60 -120v29q0 43 7 72t26 53t58 53q37 26 50 43t13 38q0 19 -12.5 30t-34.5 11q-42 0 -80 -28l-28 60q55 39 120 39q53 0 86.5 -30.5t33.5 -78.5q0 -34 -18.5 -61.5t-69.5 -66.5q-38 -29 -49 -45.5t-13 -43.5h150v-74h-239z" />
<glyph unicode="&#x2083;" d="M70 -38q39 -21 75 -21q32 0 50 14.5t18 40.5q0 25 -16.5 38.5t-47.5 13.5h-45v66h42q24 0 40.5 15t16.5 37q0 20 -14 31.5t-39 11.5q-38 0 -75 -21l-22 63q52 29 110 29q56 0 90.5 -28t34.5 -74q0 -30 -16 -54t-45 -38q34 -13 52.5 -39.5t18.5 -62.5q0 -53 -38 -83.5 t-105 -30.5q-59 0 -107 29z" />
<glyph unicode="&#x2084;" d="M201 -120v73h-167v70l166 247h81v-249h39v-68h-39v-73h-80zM201 21v135l-91 -135h91z" />
<glyph unicode="&#x2085;" d="M277 196h-129l-4 -76h25q59 0 93.5 -34t34.5 -91q0 -60 -37.5 -92.5t-105.5 -32.5q-59 0 -107 29l22 63q39 -21 75 -21q32 0 50 14.5t18 40.5q0 29 -17.5 44.5t-51.5 15.5q-55 0 -74 -1l12 215h196v-74z" />
<glyph unicode="&#x2086;" d="M279 193q-33 18 -67 18q-37 0 -57 -21.5t-25 -66.5q37 5 64 5q57 0 91 -33.5t34 -90.5q0 -60 -37 -97t-95 -37q-68 0 -105 47.5t-37 134.5v15q0 103 41.5 158t118.5 55q55 0 95 -23zM128 44q0 -52 14.5 -77.5t44.5 -25.5q51 0 51 62q0 32 -15.5 47.5t-48.5 15.5 q-14 0 -46 -4v-18z" />
<glyph unicode="&#x2087;" d="M98 -120v5q0 58 20.5 115.5t77.5 157.5l22 38h-157v74h241v-69l-34 -63q-44 -82 -64 -140.5t-20 -107.5v-10h-86z" />
<glyph unicode="&#x2088;" d="M40 -19q0 33 17.5 58t49.5 38q-55 31 -55 92q0 50 34.5 80.5t91.5 30.5q54 0 90 -30t36 -75q0 -28 -14 -50.5t-41 -35.5q35 -17 52 -41t17 -57q0 -55 -38.5 -88t-102.5 -33q-63 0 -100 30t-37 81zM162 54q-41 -21 -41 -68q0 -27 14.5 -41t41.5 -14t42 15t15 44 q0 22 -11.5 36.5t-33.5 20.5zM135 169q0 -22 10 -35.5t32 -19.5l15 -4q15 11 23.5 26t8.5 33q0 22 -12.5 36t-33.5 14q-19 0 -31 -14t-12 -36z" />
<glyph unicode="&#x2089;" d="M313 83q0 -103 -41.5 -158t-118.5 -55q-27 0 -54.5 6t-46.5 17l21 64q33 -18 73 -18q37 0 56.5 21.5t25.5 66.5q-38 -5 -64 -5q-57 0 -91 33.5t-34 90.5q0 59 36.5 96.5t95.5 37.5q68 0 105 -47.5t37 -134.5v-15zM184 84q21 0 46 3v19q0 52 -14.5 77.5t-44.5 25.5 q-51 0 -51 -62q0 -32 15.5 -47.5t48.5 -15.5z" />
<glyph unicode="&#x20ac;" horiz-adv-x="490" d="M200 228q16 -72 52.5 -109t91.5 -37q50 0 101 23l25 -81q-66 -35 -138 -35q-97 0 -159 61.5t-82 177.5h-66l14 82h44q-1 8 -1 16.5v17.5v17.5t1 17.5h-58l14 82h53q21 114 83.5 176.5t156.5 62.5q68 0 130 -34l-25 -81q-49 22 -94 22q-54 0 -90.5 -37t-52.5 -109h186 l-14 -82h-182q-1 -9 -1 -17.5v-17.5v-17.5t1 -16.5h196l-14 -82h-172z" />
<glyph unicode="&#x20ba;" horiz-adv-x="490" d="M188 252v-161h27q141 0 141 199h103q0 -146 -60 -218t-184 -72h-132v201l-63 -30v84l63 30v69l-63 -30v84l63 30v252h105v-201l117 57v-84l-117 -57v-69l117 57v-84z" />
<glyph unicode="&#x20bd;" horiz-adv-x="490" d="M103 0v110h-74v82h74v78h-74v87h74v333h169q88 0 140.5 -57t52.5 -153t-52.5 -153t-140.5 -57h-64v-78h143v-82h-143v-110h-105zM208 357h50q47 0 73.5 32t26.5 91t-26.5 91t-73.5 32h-50v-246z" />
<glyph unicode="&#x2122;" horiz-adv-x="669" d="M572 316v238l-66 -180h-54l-67 178v-236h-72v384h82l84 -228l84 228h82v-384h-73zM96 316v311h-92v73h262v-73h-92v-311h-78z" />
<glyph unicode="&#x2212;" horiz-adv-x="490" d="M55 302v86h380v-86h-380z" />
<glyph unicode="&#x25fc;" horiz-adv-x="525" d="M0 525h525v-525h-525v525z" />
<glyph unicode="&#xfeff;" horiz-adv-x="0" />
<glyph horiz-adv-x="490" d="M336 352q0 134 -22 195.5t-69 61.5t-69 -61.5t-22 -195.5v-15q0 -134 22 -195.5t69 -61.5t69 61.5t22 195.5v15zM445 337q0 -176 -49.5 -262t-150.5 -86t-150.5 86t-49.5 262v15q0 176 49.5 262t150.5 86t150.5 -86t49.5 -262v-15z" />
<glyph horiz-adv-x="490" d="M100 0v91h123v467l-105 -89l-57 74l172 147h97v-599h114v-91h-344z" />
<glyph horiz-adv-x="490" d="M76 0v55q0 76 9 123t33.5 86t78.5 90q64 59 88 95t24 72q0 42 -24.5 66t-65.5 24q-49 0 -107 -44l-41 72q35 29 79 45t89 16q80 0 128.5 -48t48.5 -128q0 -56 -29.5 -104t-115.5 -130q-35 -34 -53 -60t-25.5 -57.5t-7.5 -81.5h230v-91h-339z" />
<glyph horiz-adv-x="490" d="M78 109q63 -31 104 -31q57 0 91.5 34t34.5 89t-33 84.5t-93 29.5h-51v84h51q50 0 79.5 30t29.5 80q0 45 -27.5 73.5t-71.5 28.5q-50 0 -101 -36l-36 73q69 52 156 52q84 0 135.5 -48.5t51.5 -127.5q0 -53 -26 -95t-72 -66q56 -20 85.5 -63.5t29.5 -107.5 q0 -92 -59.5 -147.5t-157.5 -55.5q-75 0 -152 42z" />
<glyph horiz-adv-x="490" d="M293 0v156h-260v87l254 447h106v-450h57v-84h-57v-156h-100zM293 240v286l-163 -286h163z" />
<glyph horiz-adv-x="490" d="M90 109q59 -31 106 -31q57 0 90.5 35.5t33.5 95.5q0 63 -37.5 96t-107.5 33q-57 0 -81 -1l20 353h269v-91h-181l-9 -181q19 1 43 1q86 0 138.5 -57.5t52.5 -151.5q0 -101 -59 -161t-158 -60q-80 0 -152 42z" />
<glyph horiz-adv-x="490" d="M296 611q-60 0 -93.5 -47.5t-41.5 -143.5q45 8 84 8q101 0 153.5 -53.5t52.5 -155.5q0 -108 -51.5 -169t-143.5 -61q-201 0 -201 312v32q0 179 60 273t175 94q69 0 130 -33l-26 -80q-51 24 -98 24zM158 296q0 -218 98 -218q44 0 68 35t24 100q0 71 -27.5 103t-89.5 32 q-40 0 -73 -4v-48z" />
<glyph horiz-adv-x="490" d="M133 0v31q0 89 20 166t75 202l89 200h-245v91h349v-85l-87 -206q-55 -130 -74.5 -206.5t-19.5 -161.5v-31h-107z" />
<glyph horiz-adv-x="490" d="M428 521q0 -51 -22 -91t-63 -65q100 -55 100 -178q0 -92 -53 -145t-147 -53q-91 0 -143.5 51t-52.5 141q0 60 26.5 104t76.5 68q-45 26 -68 67.5t-23 94.5q0 83 51.5 134t135.5 51q82 0 132 -49t50 -130zM228 323q-39 -20 -59.5 -54.5t-20.5 -78.5q0 -55 26 -87.5 t71 -32.5q43 0 68.5 32t25.5 87q0 51 -22.5 83.5t-65.5 44.5zM162 515q0 -44 21.5 -73.5t60.5 -40.5l23 -6q29 18 45 48.5t16 69.5q0 49 -22 77.5t-60 28.5t-61 -28.5t-23 -75.5z" />
<glyph horiz-adv-x="490" d="M86 102q23 -11 53.5 -17.5t54.5 -6.5q61 0 94 46.5t41 146.5q-45 -8 -84 -8q-101 0 -153.5 52.5t-52.5 154.5q0 108 51.5 169t143.5 61q201 0 201 -312v-32q0 -182 -59 -274.5t-176 -92.5q-36 0 -74 9t-66 24zM259 343q38 0 73 4v46q0 218 -98 218q-44 0 -68 -35 t-24 -100q0 -70 27.5 -101.5t89.5 -31.5z" />
<glyph d="M231 203q0 64 -12.5 94t-39.5 30t-39.5 -30t-12.5 -94v-16q0 -64 12.5 -94t39.5 -30t39.5 30t12.5 94v16zM318 187q0 -93 -37 -145t-102 -52t-102 52t-37 145v16q0 93 37 145t102 52t102 -52t37 -145v-16z" />
<glyph d="M168 0v282l-63 -53l-45 59l120 102h74v-390h-86z" />
<glyph d="M60 0v29q0 43 7 72t26 53t58 53q37 26 50 43t13 38q0 19 -12.5 30t-34.5 11q-42 0 -80 -28l-28 60q55 39 120 39q53 0 86.5 -30.5t33.5 -78.5q0 -34 -18.5 -61.5t-69.5 -66.5q-38 -29 -49 -45.5t-13 -43.5h150v-74h-239z" />
<glyph d="M70 82q39 -21 75 -21q32 0 50 14.5t18 40.5q0 25 -16.5 38.5t-47.5 13.5h-45v66h42q24 0 40.5 15t16.5 37q0 20 -14 31.5t-39 11.5q-38 0 -75 -21l-22 63q52 29 110 29q56 0 90.5 -28t34.5 -74q0 -30 -16 -54t-45 -38q34 -13 52.5 -39.5t18.5 -62.5q0 -53 -38 -83.5 t-105 -30.5q-59 0 -107 29z" />
<glyph d="M201 0v73h-167v70l166 247h81v-249h39v-68h-39v-73h-80zM201 141v135l-91 -135h91z" />
<glyph d="M277 316h-129l-4 -76h25q59 0 93.5 -34t34.5 -91q0 -60 -37.5 -92.5t-105.5 -32.5q-59 0 -107 29l22 63q39 -21 75 -21q32 0 50 14.5t18 40.5q0 29 -17.5 44.5t-51.5 15.5q-55 0 -74 -1l12 215h196v-74z" />
<glyph d="M279 313q-33 18 -67 18q-37 0 -57 -21.5t-25 -66.5q37 5 64 5q57 0 91 -33.5t34 -90.5q0 -60 -37 -97t-95 -37q-68 0 -105 47.5t-37 134.5v15q0 103 41.5 158t118.5 55q55 0 95 -23zM128 164q0 -52 14.5 -77.5t44.5 -25.5q51 0 51 62q0 32 -15.5 47.5t-48.5 15.5 q-14 0 -46 -4v-18z" />
<glyph d="M98 0v5q0 58 20.5 115.5t77.5 157.5l22 38h-157v74h241v-69l-34 -63q-44 -82 -64 -140.5t-20 -107.5v-10h-86z" />
<glyph d="M40 101q0 33 17.5 58t49.5 38q-55 31 -55 92q0 50 34.5 80.5t91.5 30.5q54 0 90 -30t36 -75q0 -28 -14 -50.5t-41 -35.5q35 -17 52 -41t17 -57q0 -55 -38.5 -88t-102.5 -33q-63 0 -100 30t-37 81zM162 174q-41 -21 -41 -68q0 -27 14.5 -41t41.5 -14t42 15t15 44 q0 22 -11.5 36.5t-33.5 20.5zM135 289q0 -22 10 -35.5t32 -19.5l15 -4q15 11 23.5 26t8.5 33q0 22 -12.5 36t-33.5 14q-19 0 -31 -14t-12 -36z" />
<glyph d="M313 203q0 -103 -41.5 -158t-118.5 -55q-27 0 -54.5 6t-46.5 17l21 64q33 -18 73 -18q37 0 56.5 21.5t25.5 66.5q-38 -5 -64 -5q-57 0 -91 33.5t-34 90.5q0 59 36.5 96.5t95.5 37.5q68 0 105 -47.5t37 -134.5v-15zM184 204q21 0 46 3v19q0 52 -14.5 77.5t-44.5 25.5 q-51 0 -51 -62q0 -32 15.5 -47.5t48.5 -15.5z" />
<glyph d="M231 503q0 64 -12.5 94t-39.5 30t-39.5 -30t-12.5 -94v-16q0 -64 12.5 -94t39.5 -30t39.5 30t12.5 94v16zM318 487q0 -93 -37 -145t-102 -52t-102 52t-37 145v16q0 93 37 145t102 52t102 -52t37 -145v-16z" />
<glyph d="M168 300v282l-63 -53l-45 59l120 102h74v-390h-86z" />
<glyph d="M60 300v29q0 43 7 72t26 53t58 53q37 26 50 43t13 38q0 19 -12.5 30t-34.5 11q-42 0 -80 -28l-28 60q55 39 120 39q53 0 86.5 -30.5t33.5 -78.5q0 -34 -18.5 -61.5t-69.5 -66.5q-38 -29 -49 -45.5t-13 -43.5h150v-74h-239z" />
<glyph d="M70 382q39 -21 75 -21q32 0 50 14.5t18 40.5q0 25 -16.5 38.5t-47.5 13.5h-45v66h42q24 0 40.5 15t16.5 37q0 20 -14 31.5t-39 11.5q-38 0 -75 -21l-22 63q52 29 110 29q56 0 90.5 -28t34.5 -74q0 -30 -16 -54t-45 -38q34 -13 52.5 -39.5t18.5 -62.5q0 -53 -38 -83.5 t-105 -30.5q-59 0 -107 29z" />
<glyph d="M201 300v73h-167v70l166 247h81v-249h39v-68h-39v-73h-80zM201 441v135l-91 -135h91z" />
<glyph d="M277 616h-129l-4 -76h25q59 0 93.5 -34t34.5 -91q0 -60 -37.5 -92.5t-105.5 -32.5q-59 0 -107 29l22 63q39 -21 75 -21q32 0 50 14.5t18 40.5q0 29 -17.5 44.5t-51.5 15.5q-55 0 -74 -1l12 215h196v-74z" />
<glyph d="M279 613q-33 18 -67 18q-37 0 -57 -21.5t-25 -66.5q37 5 64 5q57 0 91 -33.5t34 -90.5q0 -60 -37 -97t-95 -37q-68 0 -105 47.5t-37 134.5v15q0 103 41.5 158t118.5 55q55 0 95 -23zM128 464q0 -52 14.5 -77.5t44.5 -25.5q51 0 51 62q0 32 -15.5 47.5t-48.5 15.5 q-14 0 -46 -4v-18z" />
<glyph d="M98 300v5q0 58 20.5 115.5t77.5 157.5l22 38h-157v74h241v-69l-34 -63q-44 -82 -64 -140.5t-20 -107.5v-10h-86z" />
<glyph d="M40 401q0 33 17.5 58t49.5 38q-55 31 -55 92q0 50 34.5 80.5t91.5 30.5q54 0 90 -30t36 -75q0 -28 -14 -50.5t-41 -35.5q35 -17 52 -41t17 -57q0 -55 -38.5 -88t-102.5 -33q-63 0 -100 30t-37 81zM162 474q-41 -21 -41 -68q0 -27 14.5 -41t41.5 -14t42 15t15 44 q0 22 -11.5 36.5t-33.5 20.5zM135 589q0 -22 10 -35.5t32 -19.5l15 -4q15 11 23.5 26t8.5 33q0 22 -12.5 36t-33.5 14q-19 0 -31 -14t-12 -36z" />
<glyph d="M313 503q0 -103 -41.5 -158t-118.5 -55q-27 0 -54.5 6t-46.5 17l21 64q33 -18 73 -18q37 0 56.5 21.5t25.5 66.5q-38 -5 -64 -5q-57 0 -91 33.5t-34 90.5q0 59 36.5 96.5t95.5 37.5q68 0 105 -47.5t37 -134.5v-15zM184 504q21 0 46 3v19q0 52 -14.5 77.5t-44.5 25.5 q-51 0 -51 -62q0 -32 15.5 -47.5t48.5 -15.5z" />
<glyph d="M155 -130q-68 5 -109 35l17 53q29 -15 50 -22t42 -8v125q-56 19 -83.5 48t-27.5 71q0 44 30.5 73t82.5 34v61h42v-61q46 -4 94 -27l-17 -53q-46 18 -77 21v-112q116 -37 116 -120q0 -51 -31 -81.5t-87 -36.5v-61h-42v61zM247 -12q0 36 -50 53v-111q24 5 37 20t13 38z M112 172q0 -35 45 -52v99q-45 -7 -45 -47z" />
<glyph d="M191 -191v62q-53 5 -84.5 46t-31.5 107q0 43 14.5 76.5t41 53.5t60.5 23v61h42v-63q26 -4 56 -19l-18 -50q-23 9 -38 12v-189q14 2 39 13l18 -50q-22 -13 -57 -20v-63h-42zM142 24q0 -78 49 -93v186q-49 -15 -49 -93z" />
<glyph horiz-adv-x="510" d="M128 -120l191 390h63l-191 -390h-63zM428 -7q0 66 -32 66t-32 -66v-9q0 -66 32 -66t32 66v9zM489 -16q0 -52 -25 -83t-68 -31t-68 31t-25 83v9q0 52 25 83t68 31t68 -31t25 -83v-9zM146 166q0 66 -32 66t-32 -66v-9q0 -66 32 -66t32 66v9zM207 157q0 -52 -25 -83t-68 -31 t-68 31t-25 83v9q0 52 25 83t68 31t68 -31t25 -83v-9z" />
<glyph d="M58 -120l16 101h-43v53h52l13 82h-55v53h63l17 101h61l-17 -101h58l16 101h61l-16 -101h43v-53h-52l-13 -82h55v-53h-63l-17 -101h-61l17 101h-58l-16 -101h-61zM144 34h57l13 82h-57z" />
<glyph d="M155 410q-68 5 -109 35l17 53q29 -15 50 -22t42 -8v125q-56 19 -83.5 48t-27.5 71q0 44 30.5 73t82.5 34v61h42v-61q46 -4 94 -27l-17 -53q-46 18 -77 21v-112q116 -37 116 -120q0 -51 -31 -81.5t-87 -36.5v-61h-42v61zM247 528q0 36 -50 53v-111q24 5 37 20t13 38z M112 712q0 -35 45 -52v99q-45 -7 -45 -47z" />
<glyph d="M191 349v62q-53 5 -84.5 46t-31.5 107q0 43 14.5 76.5t41 53.5t60.5 23v61h42v-63q26 -4 56 -19l-18 -50q-23 9 -38 12v-189q14 2 39 13l18 -50q-22 -13 -57 -20v-63h-42zM142 564q0 -78 49 -93v186q-49 -15 -49 -93z" />
<glyph horiz-adv-x="510" d="M128 420l191 390h63l-191 -390h-63zM428 533q0 66 -32 66t-32 -66v-9q0 -66 32 -66t32 66v9zM489 524q0 -52 -25 -83t-68 -31t-68 31t-25 83v9q0 52 25 83t68 31t68 -31t25 -83v-9zM146 706q0 66 -32 66t-32 -66v-9q0 -66 32 -66t32 66v9zM207 697q0 -52 -25 -83t-68 -31 t-68 31t-25 83v9q0 52 25 83t68 31t68 -31t25 -83v-9z" />
<glyph d="M58 420l16 101h-43v53h52l13 82h-55v53h63l17 101h61l-17 -101h58l16 101h61l-16 -101h43v-53h-52l-13 -82h55v-53h-63l-17 -101h-61l17 101h-58l-16 -101h-61zM144 574h57l13 82h-57z" />
<glyph d="M155 -10q-68 5 -109 35l17 53q29 -15 50 -22t42 -8v125q-56 19 -83.5 48t-27.5 71q0 44 30.5 73t82.5 34v61h42v-61q46 -4 94 -27l-17 -53q-46 18 -77 21v-112q116 -37 116 -120q0 -51 -31 -81.5t-87 -36.5v-61h-42v61zM247 108q0 36 -50 53v-111q24 5 37 20t13 38z M112 292q0 -35 45 -52v99q-45 -7 -45 -47z" />
<glyph d="M191 -71v62q-53 5 -84.5 46t-31.5 107q0 43 14.5 76.5t41 53.5t60.5 23v61h42v-63q26 -4 56 -19l-18 -50q-23 9 -38 12v-189q14 2 39 13l18 -50q-22 -13 -57 -20v-63h-42zM142 144q0 -78 49 -93v186q-49 -15 -49 -93z" />
<glyph horiz-adv-x="510" d="M128 0l191 390h63l-191 -390h-63zM428 113q0 66 -32 66t-32 -66v-9q0 -66 32 -66t32 66v9zM489 104q0 -52 -25 -83t-68 -31t-68 31t-25 83v9q0 52 25 83t68 31t68 -31t25 -83v-9zM146 286q0 66 -32 66t-32 -66v-9q0 -66 32 -66t32 66v9zM207 277q0 -52 -25 -83t-68 -31 t-68 31t-25 83v9q0 52 25 83t68 31t68 -31t25 -83v-9z" />
<glyph d="M58 0l16 101h-43v53h52l13 82h-55v53h63l17 101h61l-17 -101h58l16 101h61l-16 -101h43v-53h-52l-13 -82h55v-53h-63l-17 -101h-61l17 101h-58l-16 -101h-61zM144 154h57l13 82h-57z" />
<glyph d="M155 290q-68 5 -109 35l17 53q29 -15 50 -22t42 -8v125q-56 19 -83.5 48t-27.5 71q0 44 30.5 73t82.5 34v61h42v-61q46 -4 94 -27l-17 -53q-46 18 -77 21v-112q116 -37 116 -120q0 -51 -31 -81.5t-87 -36.5v-61h-42v61zM247 408q0 36 -50 53v-111q24 5 37 20t13 38z M112 592q0 -35 45 -52v99q-45 -7 -45 -47z" />
<glyph d="M191 229v62q-53 5 -84.5 46t-31.5 107q0 43 14.5 76.5t41 53.5t60.5 23v61h42v-63q26 -4 56 -19l-18 -50q-23 9 -38 12v-189q14 2 39 13l18 -50q-22 -13 -57 -20v-63h-42zM142 444q0 -78 49 -93v186q-49 -15 -49 -93z" />
<glyph horiz-adv-x="510" d="M128 300l191 390h63l-191 -390h-63zM428 413q0 66 -32 66t-32 -66v-9q0 -66 32 -66t32 66v9zM489 404q0 -52 -25 -83t-68 -31t-68 31t-25 83v9q0 52 25 83t68 31t68 -31t25 -83v-9zM146 586q0 66 -32 66t-32 -66v-9q0 -66 32 -66t32 66v9zM207 577q0 -52 -25 -83t-68 -31 t-68 31t-25 83v9q0 52 25 83t68 31t68 -31t25 -83v-9z" />
<glyph d="M58 300l16 101h-43v53h52l13 82h-55v53h63l17 101h61l-17 -101h58l16 101h61l-16 -101h43v-53h-52l-13 -82h55v-53h-63l-17 -101h-61l17 101h-58l-16 -101h-61zM144 454h57l13 82h-57z" />
<glyph horiz-adv-x="198" d="M159 370q0 -25 -17 -41t-43 -16t-43 16t-17 41t17 41t43 16t43 -16t17 -41z" />
<glyph horiz-adv-x="198" d="M159 390q0 -25 -17 -41t-43 -16t-43 16t-17 41t17 41t43 16t43 -16t17 -41z" />
<glyph horiz-adv-x="612" d="M66 0v700h111v-700h-111zM280 109q42 -17 78 -17q45 0 64.5 30t19.5 101v477h111v-484q0 -116 -43 -171.5t-133 -55.5q-63 0 -123 30zM168 765h-100l110 125h132zM542 765h-100l110 125h132z" />
<glyph horiz-adv-x="452" d="M61 0v524h104v-524h-104zM200 -127q20 -7 38 -7q25 0 37 18.5t12 58.5v581h104v-580q0 -87 -32.5 -128.5t-99.5 -41.5q-39 0 -78 17zM63 606l103 150h118l-127 -150h-94zM288 606l103 150h118l-127 -150h-94z" />
<glyph horiz-adv-x="330" d="M90 0v441h-71v83h71v38q0 93 42.5 145.5t115.5 52.5q38 0 72 -13l-22 -83q-15 5 -30 5q-34 0 -54 -28.5t-20 -78.5v-38h105v-83h-105v-441h-104z" />
<glyph horiz-adv-x="330" d="M90 0v441h-71v83h71v38q0 93 42.5 145.5t115.5 52.5q38 0 72 -13l-22 -83q-15 5 -30 5q-34 0 -54 -28.5t-20 -78.5v-38h208v-83h-208v-441h-104z" />
<glyph horiz-adv-x="0" d="M-90 -157q36 -18 69 -18q22 0 34 10t12 28q0 40 -64 40h-32l37 99h69l-20 -52q42 -6 63.5 -28.5t21.5 -60.5q0 -46 -30 -72.5t-84 -26.5q-52 0 -97 25z" />
<glyph horiz-adv-x="0" d="M-61 -246q39 42 50 80q-21 4 -32.5 17.5t-11.5 33.5q0 24 15.5 39.5t39.5 15.5q27 0 44 -19.5t17 -49.5q0 -38 -22.5 -77.5t-64.5 -74.5z" />
<glyph horiz-adv-x="0" d="M44 765h-100l110 125h132z" />
<glyph horiz-adv-x="0" d="M-44 765l-142 125h132l110 -125h-100z" />
<glyph horiz-adv-x="0" d="M68 765l-68 65l-68 -65h-98l110 125h112l110 -125h-98z" />
<glyph horiz-adv-x="0" d="M166 890q-3 -64 -26.5 -95.5t-69.5 -31.5q-19 0 -37.5 7t-47.5 26q-30 21 -45 21q-14 0 -20.5 -10.5t-9.5 -38.5h-76q3 64 26.5 95.5t69.5 31.5q19 0 37.5 -7t47.5 -26q30 -21 45 -21q14 0 20.5 10.5t9.5 38.5h76z" />
<glyph horiz-adv-x="0" d="M-56 765l-110 125h98l68 -65l68 65h98l-110 -125h-112z" />
<glyph horiz-adv-x="0" d="M-33 833q0 -27 -17.5 -43t-45.5 -16t-45.5 16t-17.5 43t17.5 43t45.5 16t45.5 -16t17.5 -43zM159 833q0 -27 -17.5 -43t-45.5 -16t-45.5 16t-17.5 43t17.5 43t45.5 16t45.5 -16t17.5 -43z" />
<glyph horiz-adv-x="0" d="M145 894q-3 -62 -42.5 -98t-102.5 -36t-102.5 36t-42.5 98h77q6 -31 23.5 -47.5t44.5 -16.5t44.5 16.5t23.5 47.5h77z" />
<glyph horiz-adv-x="0" d="M0 813q22 0 36 14.5t14 35.5t-14 35.5t-36 14.5t-36 -14.5t-14 -35.5t14 -35.5t36 -14.5zM0 751q-51 0 -83.5 31.5t-32.5 80.5t32.5 80.5t83.5 31.5t83.5 -31.5t32.5 -80.5t-32.5 -80.5t-83.5 -31.5z" />
<glyph horiz-adv-x="598" d="M412 -10q-21 0 -39 6q-50 15 -74 15t-74 -15q-18 -6 -39 -6q-66 0 -85 76q-19 77 -19 94q0 19 8 39q3 9 3 23q0 21 -5 48.5t-12.5 56.5t-14.5 54t-11 42q-10 40 -10 55q0 43 40 75q7 6 10 9.5t5.5 8t5.5 13.5q21 60 72 93t126 33t126 -33t72 -93q3 -8 5 -12.5t5 -8 t11 -10.5q40 -32 40 -75q0 -15 -10 -55q-4 -17 -11 -42t-14.5 -54t-12.5 -56.5t-5 -48.5q0 -14 3 -23q8 -20 8 -39q0 -17 -19 -94q-19 -76 -85 -76zM193 238q5 0 14 7.5t14 16.5q7 12 15.5 35.5t8.5 28.5t-5 5q-1 0 -2.5 -0.5t-3.5 -2.5q-4 -4 -10 -7t-10 -3q-3 0 -5.5 1.5 t-2.5 2.5q0 4 8 10q10 7 10 11q0 5 -7 5q-3 0 -9 -7q-5 -5 -12 -5q-11 0 -16 8q-3 6 -7 6q-7 0 -7 -5q0 -2 0.5 -4t0.5 -4q0 -8 -7 -8q-4 0 -9 4q-3 2 -11 2q-3 0 -5.5 2t-2.5 5q0 7 13 14q4 3 27 8q4 1 4 7t-7 6q-19 0 -32 -5q-13 -4 -18 -11t-5 -18q0 -18 10 -41t27 -40 q12 -13 22 -18.5t20 -5.5zM298 53q22 0 41 8t27 21q12 17 12 37v19q0 13 2 25q1 4 1.5 7.5t0.5 5.5q0 4 -5 4t-24.5 -3.5t-54.5 -3.5q-34 0 -53 3.5t-24 3.5q-7 0 -7 -4q0 -2 2 -9.5t4 -11.5q3 -5 18 -7q25 -2 44 -2q23 0 35 1t18 1q16 0 16 -12q0 -11 -14 -13 q-25 -3 -53 -3q-17 0 -29.5 1t-21.5 1q-13 0 -13 -10q0 -13 12 -30q9 -13 27 -21t39 -8zM429 204q15 0 25 37q9 35 20 49q8 9 15 21t7 18q0 8 -4 8q-1 0 -5 -1.5t-8 -3.5t-5 -2q-7 0 -7 9q0 8 6 29.5t15 45.5q13 33 13 48q0 11 -8 25q-10 15 -15 15t-13 -8q-17 -17 -42 -17 q-29 0 -45 28q-7 12 -7 19q0 6 5 6q3 0 10 -5t11 -5q6 0 11 8q5 10 5 26q0 17 -6.5 29.5t-14.5 12.5q-3 0 -17 -4t-34.5 -8.5t-42.5 -4.5q-11 0 -32 3t-28 5q-15 5 -22 7t-10 2q-7 0 -18 -7q-12 -7 -28.5 -20.5t-25.5 -24.5q-29 -31 -29 -49q1 -10 4.5 -20t4.5 -25 q0 -12 -1.5 -20t-1.5 -15q0 -8 2.5 -10t13.5 -2q17 0 36.5 3t36 6t22.5 3q12 0 20.5 -4t18.5 -14q13 -13 13 -32q0 -6 -1 -17t-2 -20l-8 -79q2 -32 35 -32q17 0 26.5 8.5t9.5 23.5q0 4 -0.5 7.5t-0.5 6.5q0 11 8 11q5 0 20 -15l37 -38q16 -17 31 -17zM325 373q-4 0 -6.5 2.5 t-2.5 5.5q0 5 6 8q12 7 44.5 21t42.5 17q9 3 13 3q9 0 18 -8q7 -6 14.5 -15t7.5 -12q0 -5 -3 -9t-7 -4q-5 0 -9 2.5t-11 7.5t-16 5q-12 0 -47 -11q-7 -2 -16 -5t-17 -5.5t-11 -2.5zM411 338q-12 1 -24 4.5t-21 3.5q-11 0 -16.5 -0.5t-12.5 -0.5q-9 0 -9 5q0 7 6 8 q9 3 37.5 6t37.5 3q6 0 8.5 -1.5t4.5 -6.5q3 -6 10 -6q3 0 5.5 1t6.5 1q5 0 5 -5q0 -4 -13.5 -8t-24.5 -4z" />
</font>
</defs>
</svg>
